<svg xmlns="http://www.w3.org/2000/svg" width="581" height="345" viewBox="0 0 581 345">
    <defs>
        <linearGradient id="a" x1="-6.545%" x2="100.019%" y1="-18.171%" y2="110.267%">
            <stop offset="0%" stop-color="#D3D5CE"/>
            <stop offset="37.44%" stop-color="#B3B4A9"/>
            <stop offset="77.93%" stop-color="#969588"/>
            <stop offset="100%" stop-color="#8B897B"/>
        </linearGradient>
        <linearGradient id="b" x1="49.997%" x2="49.997%" y1="-.571%" y2="100.03%">
            <stop offset="0%" stop-color="#B0B0A5"/>
            <stop offset="13.39%" stop-color="#C4C4BD"/>
            <stop offset="33%" stop-color="#E6E8E6"/>
            <stop offset="41.51%" stop-color="#DDDEDB"/>
            <stop offset="66%" stop-color="#C5C5BE"/>
            <stop offset="85%" stop-color="#A9A89B"/>
            <stop offset="87.64%" stop-color="#9D9C8E"/>
            <stop offset="95.71%" stop-color="#7C7C69"/>
            <stop offset="100%" stop-color="#70705B"/>
        </linearGradient>
        <linearGradient id="c" x1="49.917%" x2="49.917%" y1="-1.574%" y2="104.726%">
            <stop offset="0%" stop-color="#232C43"/>
            <stop offset="12%" stop-color="#3D4457"/>
            <stop offset="35%" stop-color="#545C6E"/>
            <stop offset="57.65%" stop-color="#3C4458"/>
            <stop offset="85%" stop-color="#242C41"/>
            <stop offset="100%" stop-color="#373E52"/>
        </linearGradient>
        <linearGradient id="d" x1="50.456%" x2="50.456%" y1="-8.303%" y2="115.724%">
            <stop offset="0%" stop-color="#5E6373"/>
            <stop offset="12%" stop-color="#717682"/>
            <stop offset="37%" stop-color="#818793"/>
            <stop offset="45.1%" stop-color="#767D8A"/>
            <stop offset="81.58%" stop-color="#495263"/>
            <stop offset="100%" stop-color="#384154"/>
        </linearGradient>
        <linearGradient id="e" x1="52.082%" x2="52.082%" y1="-8.413%" y2="115.713%">
            <stop offset="0%" stop-color="#686E7C"/>
            <stop offset="7%" stop-color="#797B89"/>
            <stop offset="22%" stop-color="#878B97"/>
            <stop offset="52.13%" stop-color="#626877"/>
            <stop offset="82.87%" stop-color="#43495C"/>
            <stop offset="100%" stop-color="#373E52"/>
        </linearGradient>
        <linearGradient id="f" x1="49.99%" x2="49.99%" y1=".112%" y2="100.24%">
            <stop offset="0%" stop-color="#E4E4E0"/>
            <stop offset="20.03%" stop-color="#ECECEA"/>
            <stop offset="48%" stop-color="#FFF"/>
            <stop offset="60.45%" stop-color="#F5F6F4"/>
            <stop offset="75%" stop-color="#EEEFEC"/>
            <stop offset="100%" stop-color="#E1E2DD"/>
        </linearGradient>
        <linearGradient id="g" x1="50.481%" x2="50.481%" y1=".023%" y2="100.006%">
            <stop offset="0%" stop-color="#E4E4E0"/>
            <stop offset="13%" stop-color="#F6F4F4"/>
            <stop offset="53%" stop-color="#D3D5CE"/>
            <stop offset="68.96%" stop-color="#C4C5BC"/>
            <stop offset="100%" stop-color="#A9AA9E"/>
        </linearGradient>
        <linearGradient id="h" x1="49.456%" x2="49.456%" y1=".023%" y2="100.006%">
            <stop offset="0%" stop-color="#E4E4E0"/>
            <stop offset="13%" stop-color="#F6F4F4"/>
            <stop offset="53%" stop-color="#D3D5CE"/>
            <stop offset="68.96%" stop-color="#C4C5BC"/>
            <stop offset="100%" stop-color="#A9AA9E"/>
        </linearGradient>
    </defs>
    <g fill="none" fill-rule="evenodd">
        <path fill="url(#a)" fill-rule="nonzero" d="M.102 112.982c0 62.343 13.172 112.882 29.407 112.882 16.236 0 29.408-50.54 29.408-112.882C58.917 50.64 45.745.101 29.509.101 13.274.1.102 50.64.102 112.982" transform="translate(367.592 5.044)"/>
        <path fill="url(#b)" fill-rule="nonzero" d="M.817 5.145h396.285v225.662H.817z"/>
        <g fill-rule="nonzero">
            <path fill="#969486" d="M424.263 116.917c-9.088 51.346-27.161 53.666-27.161 53.666v26.834s27.16-13.417 27.16-80.5"/>
            <path fill="#1F2D3D" d="M548.631 257.74h22.668v26.834h-22.668z"/>
            <path fill="#000" d="M455.917 262.18h106.295v15.636H455.917z"/>
            <path fill="#000" d="M537.399 264.399h4.493v31.272h-4.493z"/>
            <path fill="#65605E" d="M526.065 264.399h15.827v8.978h-15.827z"/>
            <path fill="#494C55" d="M580.285 280.035c0 2.421-2.042 4.439-4.493 4.439h-15.826c-2.451 0-4.493-2.018-4.493-4.439l11.334-20.074v-4.44h9.088c2.45 0 4.492 2.018 4.492 4.44v20.074h-.102z"/>
            <path fill="#65605E" d="M553.226 257.74h22.668v26.834h-22.668z"/>
            <path fill="#837F7D" d="M553.226 259.96h22.668v2.22h-22.668zM573.546 262.18h2.246v17.855h-2.246z"/>
            <path fill="#989495" d="M553.226 262.18h2.246v17.855h-2.246z"/>
            <path fill="#1F2D3D" d="M548.631 268.838h22.668v4.439h-22.668z"/>
            <path fill="#000" d="M548.631 268.838h22.668v2.219h-22.668z"/>
            <path fill="#837F7D" d="M553.226 266.619h15.827v2.219h-15.827z"/>
            <path fill="#1F2D3D" d="M569.053 264.399h2.246v15.636h-2.246z"/>
            <path fill="#919497" d="M537.399 186.22h2.246v62.544h-2.246zM455.917 201.855h2.246v46.908h-2.246z"/>
            <path fill="#404041" d="M.817 246.544h541.075v11.197H.817z"/>
            <path fill="#6E6E71" d="M.817 233.127h382.704v24.614H.817z"/>
            <path fill="#FAAF43" d="M347.375 244.325h9.088v13.417h-9.088z"/>
            <path fill="#FAAF43" d="M342.78 253.202h18.073v4.439H342.78z"/>
            <path fill="#58595C" d="M186.757 255.42H521.47v20.076H186.757z"/>
            <path fill="#6E6E71" d="M277.226 282.254l42.988 42.47h63.307l40.742-40.25v-20.075H277.226z"/>
            <path fill="#192239" d="M394.855 302.43c0 23.403 19.197 42.47 42.988 42.47 23.69 0 42.988-18.966 42.988-42.47 0-23.404-19.196-42.47-42.988-42.47-23.791 0-42.988 18.965-42.988 42.47"/>
            <path fill="#7D7C7B" d="M399.348 302.43c0 20.982 17.257 38.03 38.495 38.03 21.239 0 38.495-17.048 38.495-38.03 0-20.983-17.256-38.03-38.495-38.03-21.238 0-38.495 17.047-38.495 38.03"/>
            <path fill="#58595C" d="M403.943 302.43c0 18.46 15.214 33.491 33.9 33.491 18.788 0 33.9-15.03 33.9-33.491 0-18.562-15.214-33.491-33.9-33.491-18.788-.101-33.9 14.93-33.9 33.49"/>
            <path fill="#6E6E71" d="M415.175 289.013h24.915c6.739 0 4.492 15.636 4.492 15.636s13.58 0 13.58-13.417c0-8.978-9.087-11.197-13.58-11.197h-29.407v8.978z"/>
            <path fill="#4B4B4B" d="M351.867 284.474h4.493v22.294h-4.493zM347.375 313.527h9.088v6.658h-9.088z"/>
            <path fill="#7D7C7B" d="M360.955 304.649h22.668v2.219h-22.668z"/>
            <path fill="#1B243A" d="M360.955 302.43h22.668v2.219h-22.668z"/>
            <path fill="#7D7C7B" d="M360.955 297.89h22.668v2.22h-22.668z"/>
            <path fill="#B6A5A0" d="M365.448 304.649h9.088v2.219h-9.088z"/>
            <path fill="#4B4B4B" d="M365.448 302.43h9.088v2.219h-9.088z"/>
            <path fill="#7D7C7B" d="M360.955 311.307h22.668v2.219h-22.668z"/>
            <path fill="#1B243A" d="M360.955 309.088h22.668v2.219h-22.668z"/>
            <path fill="#B6A5A0" d="M365.448 311.307h9.088v2.219h-9.088z"/>
            <path fill="#4B4B4B" d="M365.448 309.088h9.088v2.219h-9.088z"/>
            <path fill="#B6A5A0" d="M365.448 297.89h9.088v2.22h-9.088z"/>
            <path fill="#1B243A" d="M360.955 295.67h22.668v2.22h-22.668z"/>
            <path fill="#4B4B4B" d="M365.448 295.67h9.088v2.22h-9.088z"/>
            <path fill="#7D7C7B" d="M360.955 291.233h22.668v2.219h-22.668z"/>
            <path fill="#B6A5A0" d="M365.448 291.233h9.088v2.219h-9.088z"/>
            <path fill="#1B243A" d="M360.955 289.013h22.668v2.219h-22.668z"/>
            <path fill="#4B4B4B" d="M365.448 289.013h9.088v2.219h-9.088z"/>
            <path fill="#6E6E71" d="M417.421 275.596h-65.554v8.979h24.915c4.493 0 9.088 2.219 9.088 8.978v24.614c-1.736 2.219-4.493 4.438-9.088 4.438h-24.915v6.658h29.408c6.74 0 11.334-6.658 11.334-6.658l29.407-29.052c11.334-11.299 8.986-17.957-4.595-17.957m-4.492 15.636l-13.58 13.417c-2.247 2.22-6.842 4.439-6.842-4.438v-8.979c.102-6.254.715-6.657 6.739-6.657h13.58c2.349-.101 4.595 2.219.103 6.657"/>
            <path fill="#7D7C7B" d="M451.424 311.307c0 2.421-2.042 4.439-4.493 4.439h-18.073c-2.451 0-4.493-2.018-4.493-4.439v-17.855c0-2.421 2.042-4.439 4.493-4.439h18.073c2.45 0 4.493 2.018 4.493 4.439v17.855z"/>
            <path fill="#000" d="M426.51 302.43c0 6.153 5.105 11.197 11.333 11.197 6.229 0 11.334-5.044 11.334-11.197 0-6.154-5.105-11.198-11.334-11.198-6.228 0-11.334 4.943-11.334 11.198"/>
            <path fill="#4B4B4B" d="M428.756 302.43c0 4.943 4.084 8.978 9.087 8.978 5.004 0 9.088-4.035 9.088-8.978s-4.084-8.978-9.088-8.978c-5.003 0-9.087 4.035-9.087 8.978"/>
            <path fill="#7D7C7B" d="M433.35 302.43c0 2.42 2.043 4.438 4.493 4.438s4.493-2.017 4.493-4.438-2.042-4.439-4.493-4.439c-2.552-.1-4.493 1.917-4.493 4.439"/>
            <path fill="#192239" d="M308.88 302.43c0 23.403-19.197 42.47-42.988 42.47-23.69 0-42.988-18.966-42.988-42.47 0-23.404 19.196-42.47 42.988-42.47 23.791 0 42.988 18.965 42.988 42.47"/>
            <path fill="#7D7C7B" d="M304.387 302.43c0 20.982-17.257 38.03-38.495 38.03-21.239 0-38.495-17.048-38.495-38.03 0-20.983 17.256-38.03 38.495-38.03 21.238 0 38.495 17.047 38.495 38.03"/>
            <path fill="#58595C" d="M299.894 302.43c0 18.46-15.214 33.491-33.9 33.491-18.788 0-33.9-15.03-33.9-33.491 0-18.562 15.214-33.491 33.9-33.491 18.686-.101 33.9 14.93 33.9 33.49"/>
            <path fill="#6E6E71" d="M288.56 289.013h-24.915c-6.739 0-4.492 15.636-4.492 15.636s-13.58 0-13.58-13.417c0-8.978 9.087-11.197 13.58-11.197h29.407v8.978z"/>
            <path fill="#4B4B4B" d="M347.375 284.474h4.493v22.294h-4.493z"/>
            <path fill="#7D7C7B" d="M320.214 304.649h22.668v2.219h-22.668z"/>
            <path fill="#1B243A" d="M320.214 302.43h22.668v2.219h-22.668z"/>
            <path fill="#7D7C7B" d="M320.214 297.89h22.668v2.22h-22.668z"/>
            <path fill="#B6A5A0" d="M329.301 304.649h9.088v2.219h-9.088z"/>
            <path fill="#4B4B4B" d="M329.301 302.43h9.088v2.219h-9.088z"/>
            <path fill="#7D7C7B" d="M320.214 311.307h22.668v2.219h-22.668z"/>
            <path fill="#1B243A" d="M320.214 309.088h22.668v2.219h-22.668z"/>
            <path fill="#B6A5A0" d="M329.301 311.307h9.088v2.219h-9.088z"/>
            <path fill="#4B4B4B" d="M329.301 309.088h9.088v2.219h-9.088z"/>
            <path fill="#B6A5A0" d="M329.301 297.89h9.088v2.22h-9.088z"/>
            <path fill="#1B243A" d="M320.214 295.67h22.668v2.22h-22.668z"/>
            <path fill="#4B4B4B" d="M329.301 295.67h9.088v2.22h-9.088z"/>
            <path fill="#7D7C7B" d="M320.214 291.233h22.668v2.219h-22.668z"/>
            <path fill="#B6A5A0" d="M329.301 291.233h9.088v2.219h-9.088z"/>
            <path fill="#1B243A" d="M320.214 289.013h22.668v2.219h-22.668z"/>
            <path fill="#4B4B4B" d="M329.301 289.013h9.088v2.219h-9.088z"/>
            <path fill="#6E6E71" d="M281.719 293.452l29.407 29.052s4.493 6.658 11.334 6.658h29.407v-6.658h-24.914c-4.493 0-7.352-2.219-9.088-4.438v-24.614c0-6.658 4.493-8.978 9.088-8.978h24.914v-8.978h-65.553c-13.581.1-15.827 6.758-4.595 17.956m9.087-8.978h13.58c6.025 0 6.74.403 6.74 6.658v8.978c0 8.978-4.493 6.658-6.841 4.438l-13.58-13.416c-4.391-4.338-2.145-6.658.101-6.658"/>
            <path fill="#4B4B4B" d="M383.521 276.706c0 1.816-1.531 3.33-3.37 3.33h-58.814c-1.838 0-3.37-1.514-3.37-3.33s1.532-3.329 3.37-3.329h58.815c1.838 0 3.37 1.513 3.37 3.33"/>
            <path fill="#000" d="M376.782 278.925c0 .606-.51 1.11-1.123 1.11h-47.48a1.126 1.126 0 0 1-1.124-1.11c0-.605.51-1.11 1.123-1.11h47.48c.614 0 1.124.505 1.124 1.11"/>
            <path fill="#4B4B4B" d="M317.967 266.619h24.915v2.219h-24.915zM360.955 266.619h24.915v2.219h-24.915z"/>
            <path fill="#7D7C7B" d="M279.472 311.307c0 2.421-2.042 4.439-4.493 4.439h-18.073c-2.45 0-4.493-2.018-4.493-4.439v-17.855c0-2.421 2.043-4.439 4.493-4.439h18.073c2.451 0 4.493 2.018 4.493 4.439v17.855z"/>
            <path fill="#000" d="M277.226 302.43c0 6.153-5.106 11.197-11.334 11.197-6.229 0-11.334-5.044-11.334-11.197 0-6.154 5.105-11.198 11.334-11.198 6.228 0 11.334 4.943 11.334 11.198"/>
            <path fill="#4B4B4B" d="M274.98 302.43c0 4.943-4.085 8.978-9.088 8.978-5.004 0-9.088-4.035-9.088-8.978s4.084-8.978 9.088-8.978c5.003 0 9.087 4.035 9.087 8.978"/>
            <path fill="#7D7C7B" d="M270.487 302.43c0 2.42-2.043 4.438-4.493 4.438s-4.493-2.017-4.493-4.438 2.042-4.439 4.493-4.439c2.45-.1 4.493 1.917 4.493 4.439"/>
            <path fill="#58595C" d="M.817 280.035h131.721v2.219H.817z"/>
            <path fill="#969BA4" d="M516.978 215.272h33.9v2.219h-33.9zM514.731 248.763h2.246v84.939h-2.246zM487.57 326.943h27.161v2.219H487.57zM487.57 309.088h27.161v2.219H487.57zM487.57 291.233h27.161v2.219H487.57zM487.57 273.377h27.161v2.219H487.57zM487.57 255.42h27.161v2.22H487.57zM485.324 201.855h2.246V333.7h-2.246z"/>
            <path fill="#969BA4" d="M514.731 195.097h2.246v73.74h-2.246zM516.978 195.096v-4.438c0-2.421-.205-4.439 2.246-4.439h31.654V184h-31.654c-2.45 0-4.493 2.018-4.493 4.439v6.657h2.247z"/>
            <path fill="#404041" d="M130.835 280.974l48.014-48.014 1.57 1.569-48.015 48.014z"/>
            <path fill="#000" d="M44.213 280.035c0 4.943-4.084 8.978-9.088 8.978H.715v-35.811h34.41c5.004 0 9.088 4.035 9.088 8.978v17.855z"/>
        </g>
        <path fill="url(#c)" fill-rule="nonzero" d="M.817 250.982h43.498v35.711H.817z"/>
        <path fill="#686E7C" fill-rule="nonzero" d="M.817 262.18h36.657v4.439H.817z"/>
        <path fill="url(#d)" fill-rule="nonzero" d="M35.228 253.202h4.493v29.053h-4.493z"/>
        <path fill="url(#e)" fill-rule="nonzero" d="M26.14 253.202h2.246v33.491H26.14z"/>
        <g fill-rule="nonzero">
            <path fill="#000" d="M32.981 286.794h-4.595v-13.417z"/>
            <path fill="#8F909B" d="M23.893 286.794h6.74v2.219h-6.74z"/>
            <path fill="#000" d="M23.893 289.013h6.74v2.219h-6.74z"/>
            <path fill="#797764" d="M293.053.706h2.246v2.219h-2.246z"/>
        </g>
        <path d="M.817 5.145h396.285v225.662H.817z"/>
        <g fill-rule="nonzero">
            <path fill="#FAAF43" d="M.817 110.259h396.285v29.053H.817z"/>
            <path fill="#CECEC7" d="M252.311 5.145S313.372 7.364 351.867 23c22.567 9.18 40.742 22.294 40.742 22.294V5.044H252.311v.1z"/>
            <path fill="#919283" d="M.817 208.513h391.792v6.658H.817z"/>
            <path fill="#797764" d="M324.707 136.991s-4.493 73.741-24.915 93.816h24.915v-93.816zM358.709 136.991s-4.493 73.741-24.915 93.816h24.915v-93.816z"/>
        </g>
        <path fill="url(#f)" fill-rule="nonzero" d="M.817 74.447h391.792v35.711H.817z"/>
        <path fill="#848474" fill-rule="nonzero" d="M322.46 2.925h6.739v214.566h-6.739z"/>
        <path fill="url(#g)" fill-rule="nonzero" d="M324.707 2.925h6.739v214.566h-6.739z"/>
        <g fill-rule="nonzero">
            <path fill="#6E6E71" d="M322.46 192.878h9.088v4.439h-9.088z"/>
            <path fill="#6E6E71" d="M324.706 197.316h4.493v24.614h-4.493zM320.214 186.22h13.58v2.219h-13.58z"/>
            <path fill="#848474" d="M356.36 2.926h6.74v214.566h-6.74z"/>
        </g>
        <path fill="url(#h)" fill-rule="nonzero" d="M358.709 2.925h6.739v214.566h-6.739z"/>
        <path fill="#797764" fill-rule="nonzero" d="M412.929 201.855h124.369v2.219H412.929z"/>
        <path fill="#6E6E71" fill-rule="nonzero" d="M356.36 192.877h9.088v4.439h-9.088zM358.709 197.316h4.493v24.614h-4.493zM354.114 186.219h13.58v2.219h-13.58z"/>
        <path fill="#797764" fill-rule="nonzero" d="M261.399.706h31.654v4.439h-31.654z"/>
        <path fill="#6E6E71" fill-rule="nonzero" d="M320.214 221.93h20.32v11.197h-20.32zM349.621 221.93h20.32v11.197h-20.32z"/>
    </g>
</svg>
