<?xml version="1.0" encoding="UTF-8"?>
<svg width="581px" height="345px" viewBox="0 0 581 345" version="1.1" xmlns="http://www.w3.org/2000/svg" xmlns:xlink="http://www.w3.org/1999/xlink">
    <!-- Generator: sketchtool 46.2 (44496) - http://www.bohemiancoding.com/sketch -->
    <title>A0245D7F-AD5D-4613-A0B2-3C18A000C48F</title>
    <desc>Created with sketchtool.</desc>
    <defs>
        <linearGradient x1="16.066%" y1="-39.31312%" x2="28.3422%" y2="18.17542%" id="linearGradient-1">
            <stop stop-color="#D3D5CE" offset="0%"></stop>
            <stop stop-color="#B3B4A9" offset="37.44%"></stop>
            <stop stop-color="#969588" offset="77.93%"></stop>
            <stop stop-color="#8B897B" offset="100%"></stop>
        </linearGradient>
        <linearGradient x1="-6.54513889%" y1="-18.1705094%" x2="100.019097%" y2="110.266801%" id="linearGradient-2">
            <stop stop-color="#D3D5CE" offset="0%"></stop>
            <stop stop-color="#B3B4A9" offset="37.44%"></stop>
            <stop stop-color="#969588" offset="77.93%"></stop>
            <stop stop-color="#8B897B" offset="100%"></stop>
        </linearGradient>
        <linearGradient x1="49.9966302%" y1="-0.571249754%" x2="49.9966302%" y2="100.030047%" id="linearGradient-3">
            <stop stop-color="#B0B0A5" offset="0%"></stop>
            <stop stop-color="#C4C4BD" offset="13.39%"></stop>
            <stop stop-color="#E6E8E6" offset="33%"></stop>
            <stop stop-color="#DDDEDB" offset="41.51%"></stop>
            <stop stop-color="#C5C5BE" offset="66%"></stop>
            <stop stop-color="#A9A89B" offset="85%"></stop>
            <stop stop-color="#9D9C8E" offset="87.64%"></stop>
            <stop stop-color="#7C7C69" offset="95.71%"></stop>
            <stop stop-color="#70705B" offset="100%"></stop>
        </linearGradient>
        <linearGradient x1="49.9171737%" y1="-1.5742222%" x2="49.9171737%" y2="104.725778%" id="linearGradient-4">
            <stop stop-color="#232C43" offset="0%"></stop>
            <stop stop-color="#3D4457" offset="12%"></stop>
            <stop stop-color="#545C6E" offset="35%"></stop>
            <stop stop-color="#3C4458" offset="57.65%"></stop>
            <stop stop-color="#242C41" offset="85%"></stop>
            <stop stop-color="#373E52" offset="100%"></stop>
        </linearGradient>
        <linearGradient x1="50.4560682%" y1="-8.30295337%" x2="50.4560682%" y2="115.724477%" id="linearGradient-5">
            <stop stop-color="#5E6373" offset="0%"></stop>
            <stop stop-color="#717682" offset="12%"></stop>
            <stop stop-color="#818793" offset="37%"></stop>
            <stop stop-color="#767D8A" offset="45.1%"></stop>
            <stop stop-color="#495263" offset="81.58%"></stop>
            <stop stop-color="#384154" offset="100%"></stop>
        </linearGradient>
        <linearGradient x1="52.0822382%" y1="-8.41336687%" x2="52.0822382%" y2="115.712537%" id="linearGradient-6">
            <stop stop-color="#686E7C" offset="0%"></stop>
            <stop stop-color="#797B89" offset="7%"></stop>
            <stop stop-color="#878B97" offset="22%"></stop>
            <stop stop-color="#626877" offset="52.13%"></stop>
            <stop stop-color="#43495C" offset="82.87%"></stop>
            <stop stop-color="#373E52" offset="100%"></stop>
        </linearGradient>
        <linearGradient x1="49.9902236%" y1="0.111850424%" x2="49.9902236%" y2="100.240381%" id="linearGradient-7">
            <stop stop-color="#E4E4E0" offset="0%"></stop>
            <stop stop-color="#ECECEA" offset="20.03%"></stop>
            <stop stop-color="#FFFFFF" offset="48%"></stop>
            <stop stop-color="#F5F6F4" offset="60.45%"></stop>
            <stop stop-color="#EEEFEC" offset="75%"></stop>
            <stop stop-color="#E1E2DD" offset="100%"></stop>
        </linearGradient>
        <linearGradient x1="50.4812576%" y1="0.0228579878%" x2="50.4812576%" y2="100.005604%" id="linearGradient-8">
            <stop stop-color="#E4E4E0" offset="0%"></stop>
            <stop stop-color="#F6F4F4" offset="13%"></stop>
            <stop stop-color="#D3D5CE" offset="53%"></stop>
            <stop stop-color="#C4C5BC" offset="68.96%"></stop>
            <stop stop-color="#A9AA9E" offset="100%"></stop>
        </linearGradient>
        <linearGradient x1="49.4564773%" y1="0.0228579878%" x2="49.4564773%" y2="100.005604%" id="linearGradient-9">
            <stop stop-color="#E4E4E0" offset="0%"></stop>
            <stop stop-color="#F6F4F4" offset="13%"></stop>
            <stop stop-color="#D3D5CE" offset="53%"></stop>
            <stop stop-color="#C4C5BC" offset="68.96%"></stop>
            <stop stop-color="#A9AA9E" offset="100%"></stop>
        </linearGradient>
    </defs>
    <g id="Page-1" stroke="none" stroke-width="1" fill="none" fill-rule="evenodd">
        <g id="MainPage-vagon-2" transform="translate(-1213.000000, -411.000000)">
            <g id="Colorvagon3" transform="translate(1213.000000, 411.000000)">
                <g id="SVGID_1_-link" transform="translate(367.592267, 5.043860)" fill-rule="nonzero" fill="url(#linearGradient-2)">
                    <path d="M0.102108963,112.982456 C0.102108963,175.324561 13.2741652,225.864035 29.5094903,225.864035 C45.7448155,225.864035 58.9168717,175.324561 58.9168717,112.982456 C58.9168717,50.6403509 45.7448155,0.100877193 29.5094903,0.100877193 C13.2741652,0.100877193 0.102108963,50.6403509 0.102108963,112.982456" id="SVGID_1_"></path>
                </g>
                <rect id="Rectangle-path" fill="url(#linearGradient-3)" fill-rule="nonzero" x="0.816871705" y="5.14473684" width="396.284886" height="225.662281"></rect>
                <g id="Group" transform="translate(0.000000, 116.008772)" fill-rule="nonzero">
                    <path d="M424.262742,0.907894737 C415.175044,52.254386 397.101757,54.5745614 397.101757,54.5745614 L397.101757,81.4078947 C397.101757,81.4078947 424.262742,67.9912281 424.262742,0.907894737" id="Shape" fill="#969486"></path>
                    <rect id="Rectangle-path" fill="#1F2D3D" x="548.631459" y="141.732456" width="22.6681898" height="26.8333333"></rect>
                    <rect id="Rectangle-path" fill="#000000" x="455.91652" y="146.171053" width="106.295431" height="15.6359649"></rect>
                    <rect id="Rectangle-path" fill="#000000" x="537.399473" y="148.390351" width="4.49279438" height="31.2719298"></rect>
                    <rect id="Rectangle-path" fill="#65605E" x="526.065378" y="148.390351" width="15.8268893" height="8.97807018"></rect>
                    <path d="M580.285237,164.026316 C580.285237,166.447368 578.243058,168.464912 575.792443,168.464912 L559.965554,168.464912 C557.514938,168.464912 555.472759,166.447368 555.472759,164.026316 L566.806854,143.951754 L566.806854,139.513158 L575.894552,139.513158 C578.345167,139.513158 580.387346,141.530702 580.387346,143.951754 L580.387346,164.026316 L580.285237,164.026316 Z" id="Shape" fill="#494C55"></path>
                    <rect id="Rectangle-path" fill="#65605E" x="553.226362" y="141.732456" width="22.6681898" height="26.8333333"></rect>
                    <rect id="Rectangle-path" fill="#837F7D" x="553.226362" y="143.951754" width="22.6681898" height="2.21929825"></rect>
                    <rect id="Rectangle-path" fill="#837F7D" x="573.546046" y="146.171053" width="2.24639719" height="17.8552632"></rect>
                    <rect id="Rectangle-path" fill="#989495" x="553.226362" y="146.171053" width="2.24639719" height="17.8552632"></rect>
                    <rect id="Rectangle-path" fill="#1F2D3D" x="548.631459" y="152.828947" width="22.6681898" height="4.43859649"></rect>
                    <rect id="Rectangle-path" fill="#000000" x="548.631459" y="152.828947" width="22.6681898" height="2.21929825"></rect>
                    <rect id="Rectangle-path" fill="#837F7D" x="553.226362" y="150.609649" width="15.8268893" height="2.21929825"></rect>
                    <rect id="Rectangle-path" fill="#1F2D3D" x="569.053251" y="148.390351" width="2.24639719" height="15.6359649"></rect>
                    <rect id="Rectangle-path" fill="#919497" x="537.399473" y="70.2105263" width="2.24639719" height="62.5438596"></rect>
                    <rect id="Rectangle-path" fill="#919497" x="455.91652" y="85.8464912" width="2.24639719" height="46.9078947"></rect>
                    <rect id="Rectangle-path" fill="#404041" x="0.816871705" y="130.535088" width="541.075395" height="11.1973684"></rect>
                    <rect id="Rectangle-path" fill="#6E6E71" x="0.816871705" y="117.118421" width="382.704394" height="24.6140351"></rect>
                    <rect id="Rectangle-path" fill="#FAAF43" x="347.374692" y="128.315789" width="9.08769772" height="13.4166667"></rect>
                    <rect id="Rectangle-path" fill="#FAAF43" x="342.779789" y="137.192982" width="18.0732865" height="4.43859649"></rect>
                    <rect id="Rectangle-path" fill="#58595C" x="186.757293" y="139.412281" width="334.713181" height="20.0745614"></rect>
                    <polygon id="Shape" fill="#6E6E71" points="277.225835 166.245614 320.213708 208.714912 383.521265 208.714912 424.262742 168.464912 424.262742 148.390351 277.225835 148.390351"></polygon>
                    <path d="M394.85536,186.421053 C394.85536,209.824561 414.051845,228.890351 437.843234,228.890351 C461.532513,228.890351 480.831107,209.925439 480.831107,186.421053 C480.831107,163.017544 461.634622,143.951754 437.843234,143.951754 C414.051845,143.951754 394.85536,162.916667 394.85536,186.421053" id="Shape" fill="#192239"></path>
                    <path d="M399.348155,186.421053 C399.348155,207.403509 416.604569,224.451754 437.843234,224.451754 C459.081898,224.451754 476.338313,207.403509 476.338313,186.421053 C476.338313,165.438596 459.081898,148.390351 437.843234,148.390351 C416.604569,148.390351 399.348155,165.438596 399.348155,186.421053" id="Shape" fill="#7D7C7B"></path>
                    <path d="M403.943058,186.421053 C403.943058,204.881579 419.157293,219.912281 437.843234,219.912281 C456.631283,219.912281 471.743409,204.881579 471.743409,186.421053 C471.743409,167.859649 456.529174,152.929825 437.843234,152.929825 C419.055185,152.828947 403.943058,167.859649 403.943058,186.421053" id="Shape" fill="#58595C"></path>
                    <path d="M415.175044,173.004386 L440.089631,173.004386 C446.828822,173.004386 444.582425,188.640351 444.582425,188.640351 C444.582425,188.640351 458.162917,188.640351 458.162917,175.223684 C458.162917,166.245614 449.07522,164.026316 444.582425,164.026316 L415.175044,164.026316 L415.175044,173.004386 Z" id="Shape" fill="#6E6E71"></path>
                    <rect id="Rectangle-path" fill="#4B4B4B" x="351.867487" y="168.464912" width="4.49279438" height="22.2938596"></rect>
                    <rect id="Rectangle-path" fill="#4B4B4B" x="347.374692" y="197.517544" width="9.08769772" height="6.65789474"></rect>
                    <rect id="Rectangle-path" fill="#7D7C7B" x="360.955185" y="188.640351" width="22.6681898" height="2.21929825"></rect>
                    <rect id="Rectangle-path" fill="#1B243A" x="360.955185" y="186.421053" width="22.6681898" height="2.21929825"></rect>
                    <rect id="Rectangle-path" fill="#7D7C7B" x="360.955185" y="181.881579" width="22.6681898" height="2.21929825"></rect>
                    <rect id="Rectangle-path" fill="#B6A5A0" x="365.447979" y="188.640351" width="9.08769772" height="2.21929825"></rect>
                    <rect id="Rectangle-path" fill="#4B4B4B" x="365.447979" y="186.421053" width="9.08769772" height="2.21929825"></rect>
                    <rect id="Rectangle-path" fill="#7D7C7B" x="360.955185" y="195.298246" width="22.6681898" height="2.21929825"></rect>
                    <rect id="Rectangle-path" fill="#1B243A" x="360.955185" y="193.078947" width="22.6681898" height="2.21929825"></rect>
                    <rect id="Rectangle-path" fill="#B6A5A0" x="365.447979" y="195.298246" width="9.08769772" height="2.21929825"></rect>
                    <rect id="Rectangle-path" fill="#4B4B4B" x="365.447979" y="193.078947" width="9.08769772" height="2.21929825"></rect>
                    <rect id="Rectangle-path" fill="#B6A5A0" x="365.447979" y="181.881579" width="9.08769772" height="2.21929825"></rect>
                    <rect id="Rectangle-path" fill="#1B243A" x="360.955185" y="179.662281" width="22.6681898" height="2.21929825"></rect>
                    <rect id="Rectangle-path" fill="#4B4B4B" x="365.447979" y="179.662281" width="9.08769772" height="2.21929825"></rect>
                    <rect id="Rectangle-path" fill="#7D7C7B" x="360.955185" y="175.223684" width="22.6681898" height="2.21929825"></rect>
                    <rect id="Rectangle-path" fill="#B6A5A0" x="365.447979" y="175.223684" width="9.08769772" height="2.21929825"></rect>
                    <rect id="Rectangle-path" fill="#1B243A" x="360.955185" y="173.004386" width="22.6681898" height="2.21929825"></rect>
                    <rect id="Rectangle-path" fill="#4B4B4B" x="365.447979" y="173.004386" width="9.08769772" height="2.21929825"></rect>
                    <path d="M417.421441,159.587719 L351.867487,159.587719 L351.867487,168.565789 L376.782074,168.565789 C381.274868,168.565789 385.869772,170.785088 385.869772,177.54386 L385.869772,202.157895 C384.133919,204.377193 381.376977,206.596491 376.782074,206.596491 L351.867487,206.596491 L351.867487,213.254386 L381.274868,213.254386 C388.01406,213.254386 392.608963,206.596491 392.608963,206.596491 C392.608963,206.596491 410.68225,188.741228 422.016344,177.54386 C433.350439,166.245614 431.001933,159.587719 417.421441,159.587719 M412.928647,175.223684 C408.435852,179.662281 401.594552,186.421053 399.348155,188.640351 C397.101757,190.859649 392.506854,193.078947 392.506854,184.201754 C392.506854,183.495614 392.506854,176.030702 392.506854,175.223684 C392.608963,168.969298 393.221617,168.565789 399.246046,168.565789 L412.826538,168.565789 C415.175044,168.464912 417.421441,170.785088 412.928647,175.223684" id="Shape" fill="#6E6E71"></path>
                    <path d="M451.423726,195.298246 C451.423726,197.719298 449.381547,199.736842 446.930931,199.736842 L428.857645,199.736842 C426.40703,199.736842 424.364851,197.719298 424.364851,195.298246 L424.364851,177.442982 C424.364851,175.02193 426.40703,173.004386 428.857645,173.004386 L446.930931,173.004386 C449.381547,173.004386 451.423726,175.02193 451.423726,177.442982 L451.423726,195.298246 Z" id="Shape" fill="#7D7C7B"></path>
                    <path d="M426.509139,186.421053 C426.509139,192.574561 431.614587,197.618421 437.843234,197.618421 C444.07188,197.618421 449.177329,192.574561 449.177329,186.421053 C449.177329,180.267544 444.07188,175.223684 437.843234,175.223684 C431.614587,175.223684 426.509139,180.166667 426.509139,186.421053" id="Shape" fill="#000000"></path>
                    <path d="M428.755536,186.421053 C428.755536,191.364035 432.839895,195.399123 437.843234,195.399123 C442.846573,195.399123 446.930931,191.364035 446.930931,186.421053 C446.930931,181.47807 442.846573,177.442982 437.843234,177.442982 C432.839895,177.442982 428.755536,181.47807 428.755536,186.421053" id="Shape" fill="#4B4B4B"></path>
                    <path d="M433.350439,186.421053 C433.350439,188.842105 435.392619,190.859649 437.843234,190.859649 C440.293849,190.859649 442.336028,188.842105 442.336028,186.421053 C442.336028,184 440.293849,181.982456 437.843234,181.982456 C435.29051,181.881579 433.350439,183.899123 433.350439,186.421053" id="Shape" fill="#7D7C7B"></path>
                    <path d="M308.879613,186.421053 C308.879613,209.824561 289.683128,228.890351 265.89174,228.890351 C242.20246,228.890351 222.903866,209.925439 222.903866,186.421053 C222.903866,163.017544 242.100351,143.951754 265.89174,143.951754 C289.683128,143.951754 308.879613,162.916667 308.879613,186.421053" id="Shape" fill="#192239"></path>
                    <path d="M304.386819,186.421053 C304.386819,207.403509 287.130404,224.451754 265.89174,224.451754 C244.653076,224.451754 227.396661,207.403509 227.396661,186.421053 C227.396661,165.438596 244.653076,148.390351 265.89174,148.390351 C287.130404,148.390351 304.386819,165.438596 304.386819,186.421053" id="Shape" fill="#7D7C7B"></path>
                    <path d="M299.894025,186.421053 C299.894025,204.881579 284.679789,219.912281 265.993849,219.912281 C247.2058,219.912281 232.093673,204.881579 232.093673,186.421053 C232.093673,167.859649 247.307909,152.929825 265.993849,152.929825 C284.679789,152.828947 299.894025,167.859649 299.894025,186.421053" id="Shape" fill="#58595C"></path>
                    <path d="M288.55993,173.004386 L263.645343,173.004386 C256.906151,173.004386 259.152548,188.640351 259.152548,188.640351 C259.152548,188.640351 245.572056,188.640351 245.572056,175.223684 C245.572056,166.245614 254.659754,164.026316 259.152548,164.026316 L288.55993,164.026316 L288.55993,173.004386 Z" id="Shape" fill="#6E6E71"></path>
                    <rect id="Rectangle-path" fill="#4B4B4B" x="347.374692" y="168.464912" width="4.49279438" height="22.2938596"></rect>
                    <rect id="Rectangle-path" fill="#7D7C7B" x="320.213708" y="188.640351" width="22.6681898" height="2.21929825"></rect>
                    <rect id="Rectangle-path" fill="#1B243A" x="320.213708" y="186.421053" width="22.6681898" height="2.21929825"></rect>
                    <rect id="Rectangle-path" fill="#7D7C7B" x="320.213708" y="181.881579" width="22.6681898" height="2.21929825"></rect>
                    <rect id="Rectangle-path" fill="#B6A5A0" x="329.301406" y="188.640351" width="9.08769772" height="2.21929825"></rect>
                    <rect id="Rectangle-path" fill="#4B4B4B" x="329.301406" y="186.421053" width="9.08769772" height="2.21929825"></rect>
                    <rect id="Rectangle-path" fill="#7D7C7B" x="320.213708" y="195.298246" width="22.6681898" height="2.21929825"></rect>
                    <rect id="Rectangle-path" fill="#1B243A" x="320.213708" y="193.078947" width="22.6681898" height="2.21929825"></rect>
                    <rect id="Rectangle-path" fill="#B6A5A0" x="329.301406" y="195.298246" width="9.08769772" height="2.21929825"></rect>
                    <rect id="Rectangle-path" fill="#4B4B4B" x="329.301406" y="193.078947" width="9.08769772" height="2.21929825"></rect>
                    <rect id="Rectangle-path" fill="#B6A5A0" x="329.301406" y="181.881579" width="9.08769772" height="2.21929825"></rect>
                    <rect id="Rectangle-path" fill="#1B243A" x="320.213708" y="179.662281" width="22.6681898" height="2.21929825"></rect>
                    <rect id="Rectangle-path" fill="#4B4B4B" x="329.301406" y="179.662281" width="9.08769772" height="2.21929825"></rect>
                    <rect id="Rectangle-path" fill="#7D7C7B" x="320.213708" y="175.223684" width="22.6681898" height="2.21929825"></rect>
                    <rect id="Rectangle-path" fill="#B6A5A0" x="329.301406" y="175.223684" width="9.08769772" height="2.21929825"></rect>
                    <rect id="Rectangle-path" fill="#1B243A" x="320.213708" y="173.004386" width="22.6681898" height="2.21929825"></rect>
                    <rect id="Rectangle-path" fill="#4B4B4B" x="329.301406" y="173.004386" width="9.08769772" height="2.21929825"></rect>
                    <path d="M281.718629,177.442982 C293.052724,188.640351 311.126011,206.495614 311.126011,206.495614 C311.126011,206.495614 315.618805,213.153509 322.460105,213.153509 L351.867487,213.153509 L351.867487,206.495614 L326.9529,206.495614 C322.460105,206.495614 319.601054,204.276316 317.865202,202.057018 L317.865202,177.442982 C317.865202,170.785088 322.357996,168.464912 326.9529,168.464912 L351.867487,168.464912 L351.867487,159.486842 L286.313533,159.486842 C272.73304,159.587719 270.486643,166.245614 281.718629,177.442982 M290.806327,168.464912 L304.386819,168.464912 C310.411248,168.464912 311.126011,168.868421 311.126011,175.122807 C311.126011,175.929825 311.126011,183.29386 311.126011,184.100877 C311.126011,193.078947 306.633216,190.758772 304.28471,188.539474 C302.038313,186.320175 295.197012,179.561404 290.704218,175.122807 C286.313533,170.785088 288.55993,168.464912 290.806327,168.464912" id="Shape" fill="#6E6E71"></path>
                    <path d="M383.521265,160.697368 C383.521265,162.513158 381.989631,164.026316 380.15167,164.026316 L321.336907,164.026316 C319.498946,164.026316 317.967311,162.513158 317.967311,160.697368 C317.967311,158.881579 319.498946,157.368421 321.336907,157.368421 L380.15167,157.368421 C381.989631,157.368421 383.521265,158.881579 383.521265,160.697368" id="Shape" fill="#4B4B4B"></path>
                    <path d="M376.782074,162.916667 C376.782074,163.52193 376.271529,164.026316 375.658875,164.026316 L328.178207,164.026316 C327.565554,164.026316 327.055009,163.52193 327.055009,162.916667 C327.055009,162.311404 327.565554,161.807018 328.178207,161.807018 L375.658875,161.807018 C376.271529,161.807018 376.782074,162.311404 376.782074,162.916667" id="Shape" fill="#000000"></path>
                    <rect id="Rectangle-path" fill="#4B4B4B" x="317.967311" y="150.609649" width="24.914587" height="2.21929825"></rect>
                    <rect id="Rectangle-path" fill="#4B4B4B" x="360.955185" y="150.609649" width="24.914587" height="2.21929825"></rect>
                    <path d="M279.472232,195.298246 C279.472232,197.719298 277.430053,199.736842 274.979438,199.736842 L256.906151,199.736842 C254.455536,199.736842 252.413357,197.719298 252.413357,195.298246 L252.413357,177.442982 C252.413357,175.02193 254.455536,173.004386 256.906151,173.004386 L274.979438,173.004386 C277.430053,173.004386 279.472232,175.02193 279.472232,177.442982 L279.472232,195.298246 Z" id="Shape" fill="#7D7C7B"></path>
                    <path d="M277.225835,186.421053 C277.225835,192.574561 272.120387,197.618421 265.89174,197.618421 C259.663093,197.618421 254.557645,192.574561 254.557645,186.421053 C254.557645,180.267544 259.663093,175.223684 265.89174,175.223684 C272.120387,175.223684 277.225835,180.166667 277.225835,186.421053" id="Shape" fill="#000000"></path>
                    <path d="M274.979438,186.421053 C274.979438,191.364035 270.895079,195.399123 265.89174,195.399123 C260.888401,195.399123 256.804042,191.364035 256.804042,186.421053 C256.804042,181.47807 260.888401,177.442982 265.89174,177.442982 C270.895079,177.442982 274.979438,181.47807 274.979438,186.421053" id="Shape" fill="#4B4B4B"></path>
                    <path d="M270.486643,186.421053 C270.486643,188.842105 268.444464,190.859649 265.993849,190.859649 C263.543234,190.859649 261.501054,188.842105 261.501054,186.421053 C261.501054,184 263.543234,181.982456 265.993849,181.982456 C268.444464,181.881579 270.486643,183.899123 270.486643,186.421053" id="Shape" fill="#7D7C7B"></path>
                    <rect id="Rectangle-path" fill="#58595C" x="0.816871705" y="164.026316" width="131.720562" height="2.21929825"></rect>
                    <rect id="Rectangle-path" fill="#969BA4" x="516.97768" y="99.2631579" width="33.9001757" height="2.21929825"></rect>
                    <rect id="Rectangle-path" fill="#969BA4" x="514.731283" y="132.754386" width="2.24639719" height="84.9385965"></rect>
                    <rect id="Rectangle-path" fill="#969BA4" x="487.570299" y="210.934211" width="27.1609842" height="2.21929825"></rect>
                    <rect id="Rectangle-path" fill="#969BA4" x="487.570299" y="193.078947" width="27.1609842" height="2.21929825"></rect>
                    <rect id="Rectangle-path" fill="#969BA4" x="487.570299" y="175.223684" width="27.1609842" height="2.21929825"></rect>
                    <rect id="Rectangle-path" fill="#969BA4" x="487.570299" y="157.368421" width="27.1609842" height="2.21929825"></rect>
                    <rect id="Rectangle-path" fill="#969BA4" x="487.570299" y="139.412281" width="27.1609842" height="2.21929825"></rect>
                    <rect id="Rectangle-path" fill="#969BA4" x="485.323902" y="85.8464912" width="2.24639719" height="131.846491"></rect>
                    <rect id="Rectangle-path" fill="#969BA4" x="514.731283" y="79.0877193" width="2.24639719" height="73.7412281"></rect>
                    <path d="M516.97768,79.0877193 L516.97768,74.6491228 C516.97768,72.2280702 516.773462,70.2105263 519.224077,70.2105263 L550.877856,70.2105263 L550.877856,67.9912281 L519.224077,67.9912281 C516.773462,67.9912281 514.731283,70.0087719 514.731283,72.4298246 L514.731283,79.0877193 L516.97768,79.0877193 L516.97768,79.0877193 Z" id="Shape" fill="#969BA4"></path>
                    <rect id="Rectangle-path" fill="#404041" transform="translate(155.626971, 141.743104) rotate(-45.000000) translate(-155.626971, -141.743104) " x="121.676067" y="140.633465" width="67.9018093" height="2.21927696"></rect>
                    <path d="M44.213181,164.026316 C44.213181,168.969298 40.1288225,173.004386 35.1254833,173.004386 L0.714762742,173.004386 L0.714762742,137.192982 L35.1254833,137.192982 C40.1288225,137.192982 44.213181,141.22807 44.213181,146.171053 L44.213181,164.026316 L44.213181,164.026316 Z" id="Shape" fill="#000000"></path>
                </g>
                <rect id="Rectangle-path" fill="url(#linearGradient-4)" fill-rule="nonzero" x="0.816871705" y="250.982456" width="43.4984183" height="35.7105263"></rect>
                <rect id="Rectangle-path" fill="#686E7C" fill-rule="nonzero" x="0.816871705" y="262.179825" width="36.6571178" height="4.43859649"></rect>
                <rect id="Rectangle-path" fill="url(#linearGradient-5)" fill-rule="nonzero" x="35.2275923" y="253.201754" width="4.49279438" height="29.0526316"></rect>
                <rect id="Rectangle-path" fill="url(#linearGradient-6)" fill-rule="nonzero" x="26.1398946" y="253.201754" width="2.24639719" height="33.4912281"></rect>
                <g id="Group" transform="translate(23.485062, 0.000000)" fill-rule="nonzero">
                    <polygon id="Shape" fill="#000000" points="9.49613357 286.79386 4.90123023 286.79386 4.90123023 273.377193"></polygon>
                    <rect id="Rectangle-path" fill="#8F909B" x="0.408435852" y="286.79386" width="6.73919156" height="2.21929825"></rect>
                    <rect id="Rectangle-path" fill="#000000" x="0.408435852" y="289.013158" width="6.73919156" height="2.21929825"></rect>
                    <rect id="Rectangle-path" fill="#797764" x="269.567663" y="0.706140351" width="2.24639719" height="2.21929825"></rect>
                </g>
                <rect id="Rectangle-path" x="0.816871705" y="5.14473684" width="396.284886" height="225.662281"></rect>
                <g id="Group" transform="translate(0.000000, 5.043860)" fill-rule="nonzero">
                    <rect id="Rectangle-path" fill="#FAAF43" x="0.816871705" y="105.214912" width="396.284886" height="29.0526316"></rect>
                    <path d="M252.311248,0.100877193 C252.311248,0.100877193 313.372408,2.32017544 351.867487,17.9561404 C374.433568,27.1359649 392.608963,40.25 392.608963,40.25 L392.608963,-2.84217094e-14 L252.311248,-2.84217094e-14 L252.311248,0.100877193 Z" id="Shape" fill="#CECEC7"></path>
                    <rect id="Rectangle-path" fill="#919283" x="0.816871705" y="203.469298" width="391.792091" height="6.65789474"></rect>
                    <path d="M324.706503,131.947368 C324.706503,131.947368 320.213708,205.688596 299.791916,225.763158 L324.706503,225.763158 L324.706503,131.947368 Z" id="Shape" fill="#797764"></path>
                    <path d="M358.708787,131.947368 C358.708787,131.947368 354.215993,205.688596 333.7942,225.763158 L358.708787,225.763158 L358.708787,131.947368 Z" id="Shape" fill="#797764"></path>
                </g>
                <rect id="Rectangle-path" fill="url(#linearGradient-7)" fill-rule="nonzero" x="0.816871705" y="74.4473684" width="391.792091" height="35.7105263"></rect>
                <rect id="Rectangle-path" fill="#848474" fill-rule="nonzero" x="322.460105" y="2.9254386" width="6.73919156" height="214.565789"></rect>
                <rect id="Rectangle-path" fill="url(#linearGradient-8)" fill-rule="nonzero" x="324.706503" y="2.9254386" width="6.73919156" height="214.565789"></rect>
                <g id="Group" transform="translate(319.601054, 2.017544)" fill-rule="nonzero">
                    <rect id="Rectangle-path" fill="#6E6E71" x="2.85905097" y="190.859649" width="9.08769772" height="4.43859649"></rect>
                    <rect id="Rectangle-path" fill="#6E6E71" x="5.10544815" y="195.298246" width="4.49279438" height="24.6140351"></rect>
                    <rect id="Rectangle-path" fill="#6E6E71" x="0.612653779" y="184.201754" width="13.5804921" height="2.21929825"></rect>
                    <rect id="Rectangle-path" fill="#848474" x="36.7592267" y="0.907894737" width="6.73919156" height="214.565789"></rect>
                </g>
                <rect id="Rectangle-path" fill="url(#linearGradient-9)" fill-rule="nonzero" x="358.708787" y="2.9254386" width="6.73919156" height="214.565789"></rect>
                <rect id="Rectangle-path" fill="#797764" fill-rule="nonzero" x="412.928647" y="201.855263" width="124.368717" height="2.21929825"></rect>
                <rect id="Rectangle-path" fill="#6E6E71" fill-rule="nonzero" x="356.360281" y="192.877193" width="9.08769772" height="4.43859649"></rect>
                <rect id="Rectangle-path" fill="#6E6E71" fill-rule="nonzero" x="358.708787" y="197.315789" width="4.49279438" height="24.6140351"></rect>
                <rect id="Rectangle-path" fill="#6E6E71" fill-rule="nonzero" x="354.113884" y="186.219298" width="13.5804921" height="2.21929825"></rect>
                <rect id="Rectangle-path" fill="#797764" fill-rule="nonzero" x="261.398946" y="0.706140351" width="31.6537786" height="4.43859649"></rect>
                <rect id="Rectangle-path" fill="#6E6E71" fill-rule="nonzero" x="320.213708" y="221.929825" width="20.3196837" height="11.1973684"></rect>
                <rect id="Rectangle-path" fill="#6E6E71" fill-rule="nonzero" x="349.62109" y="221.929825" width="20.3196837" height="11.1973684"></rect>
            </g>
        </g>
    </g>
</svg>