<?xml version="1.0" encoding="UTF-8"?>
<svg width="2813px" height="646px" viewBox="0 0 2813 646" version="1.1" xmlns="http://www.w3.org/2000/svg" xmlns:xlink="http://www.w3.org/1999/xlink">
    <!-- Generator: sketchtool 46.2 (44496) - http://www.bohemiancoding.com/sketch -->
    <title>99EA3CBB-57FC-4074-AC19-3106B82EDA0E</title>
    <desc>Created with sketchtool.</desc>
    <defs></defs>
    <g id="Page-1" stroke="none" stroke-width="1" fill="none" fill-rule="evenodd">
        <g id="MainPage-vagon-2" transform="translate(0.000000, -134.000000)">
            <g id="top-with-rails" transform="translate(0.000000, 134.000000)">
                <polygon id="Fill-1" fill="#F48266" points="403 622 403 634.49822 427.085024 634.49822 427.085024 645.255606 456.35219 645.255606 456.35219 634.49822 505.075354 634.49822 505.075354 645.255606 534.359869 645.255606 534.359869 634.49822 583.07997 634.49822 583.07997 645.255606 612.362445 645.255606 612.362445 634.49822 661.093772 634.49822 661.093772 645.255606 690.367062 645.255606 690.367062 634.49822 739.070835 634.49822 739.070835 645.255606 768.344125 645.255606 768.344125 634.49822 817.076473 634.49822 817.076473 645.255606 846.347721 645.255606 846.347721 634.49822 895.081089 634.49822 895.081089 645.255606 924.353358 645.255606 924.353358 634.49822 973.062235 634.49822 973.062235 645.255606 1002.34267 645.255606 1002.34267 634.49822 1051.06379 634.49822 1051.06379 645.255606 1080.35035 645.255606 1080.35035 634.49822 1129.06535 634.49822 1129.06535 645.255606 1158.35292 645.255606 1158.35292 634.49822 1207.05976 634.49822 1207.05976 645.255606 1236.35244 645.255606 1236.35244 634.49822 1285.03784 634.49822 1285.03784 645.255606 1314.32644 645.255606 1314.32644 634.49822 1363.05674 634.49822 1363.05674 645.255606 1392.33718 645.255606 1392.33718 634.49822 1441.0481 634.49822 1441.0481 645.255606 1470.34792 645.255606 1470.34792 634.49822 1519.06394 634.49822 1519.06394 645.255606 1548.31988 645.255606 1548.31988 634.49822 1597.05427 634.49822 1597.05427 645.255606 1626.32654 645.255606 1626.32654 634.49822 1646.89489 634.49822 1646.89489 622"></polygon>
                <polygon id="Fill-1-Copy" fill="#F48266" points="1573 622 1573 634.49822 1597.08502 634.49822 1597.08502 645.255606 1626.35219 645.255606 1626.35219 634.49822 1675.07535 634.49822 1675.07535 645.255606 1704.35987 645.255606 1704.35987 634.49822 1753.07997 634.49822 1753.07997 645.255606 1782.36244 645.255606 1782.36244 634.49822 1831.09377 634.49822 1831.09377 645.255606 1860.36706 645.255606 1860.36706 634.49822 1909.07084 634.49822 1909.07084 645.255606 1938.34412 645.255606 1938.34412 634.49822 1987.07647 634.49822 1987.07647 645.255606 2016.34772 645.255606 2016.34772 634.49822 2065.08109 634.49822 2065.08109 645.255606 2094.35336 645.255606 2094.35336 634.49822 2143.06223 634.49822 2143.06223 645.255606 2172.34267 645.255606 2172.34267 634.49822 2221.06379 634.49822 2221.06379 645.255606 2250.35035 645.255606 2250.35035 634.49822 2299.06535 634.49822 2299.06535 645.255606 2328.35292 645.255606 2328.35292 634.49822 2377.05976 634.49822 2377.05976 645.255606 2406.35244 645.255606 2406.35244 634.49822 2455.03784 634.49822 2455.03784 645.255606 2484.32644 645.255606 2484.32644 634.49822 2533.05674 634.49822 2533.05674 645.255606 2562.33718 645.255606 2562.33718 634.49822 2611.0481 634.49822 2611.0481 645.255606 2640.34792 645.255606 2640.34792 634.49822 2689.06394 634.49822 2689.06394 645.255606 2718.31988 645.255606 2718.31988 634.49822 2767.05427 634.49822 2767.05427 645.255606 2796.32654 645.255606 2796.32654 634.49822 2816.89489 634.49822 2816.89489 622"></polygon>
                <path d="M607,187 L607,217.428208 L689.458116,217.428208 L689.458116,244.026984 L607,244.026984 L607,280.227645 L621.58613,280.227645 L621.58613,296.387481 L607,296.387481 L607,303.107183 L621.58613,303.107183 L621.58613,316.768992 L607,316.768992 L607,323.491727 L621.58613,323.491727 L621.58613,365.059455 L607,365.059455 L607,371.785222 L621.58613,371.785222 L621.58613,413.355983 L607,413.355983 L607,420.078717 L621.58613,420.078717 L621.58613,435.30748 L607,435.30748 L607,442.024148 L621.58613,442.024148 L621.58613,479.517798 L607,479.517798 L607,486.242555 L621.58613,486.242555 L621.58613,523.735194 L607,523.735194 L607,530.453884 L621.58613,530.453884 L621.58613,544.706081 L607,544.706081 L607,622.01045 L1214.48326,622.01045 L1214.48326,244.026984 L1179.45533,244.026984 L1179.45533,217.428208 L1214.48326,217.428208 L1214.48326,187 L607,187 Z M1062.84589,244.027995 L1154.12324,244.027995 L1154.12324,217.428208 L1062.84589,217.428208 L1062.84589,244.027995 Z M946.254822,244.027995 L1037.52809,244.027995 L1037.52809,217.428208 L946.254822,217.428208 L946.254822,244.027995 Z M829.648446,244.027995 L920.925798,244.027995 L920.925798,217.428208 L829.648446,217.428208 L829.648446,244.027995 Z M714.783058,244.027995 L806.06041,244.027995 L806.06041,217.428208 L714.783058,217.428208 L714.783058,244.027995 Z M1186.37233,296.387481 L1210.28693,296.387481 L1210.28693,280.227645 L1186.37233,280.227645 L1186.37233,296.387481 Z M1155.70503,296.387481 L1179.61555,296.387481 L1179.61555,280.227645 L1155.70503,280.227645 L1155.70503,296.387481 Z M1125.03671,296.387481 L1148.94824,296.387481 L1148.94824,280.227645 L1125.03671,280.227645 L1125.03671,296.387481 Z M1094.36838,296.387481 L1118.27992,296.387481 L1118.27992,280.227645 L1094.36838,280.227645 L1094.36838,296.387481 Z M1063.65413,296.387481 L1087.60853,296.387481 L1087.60853,280.227645 L1063.65413,280.227645 L1063.65413,296.387481 Z M1017.47714,296.387481 L1040.49675,296.387481 L1040.49675,280.227645 L1017.47714,280.227645 L1017.47714,296.387481 Z M986.812896,296.387481 L1010.72341,296.387481 L1010.72341,280.227645 L986.812896,280.227645 L986.812896,296.387481 Z M956.141509,296.387481 L980.052026,296.387481 L980.052026,280.227645 L956.141509,280.227645 L956.141509,296.387481 Z M925.470123,296.387481 L949.382681,296.387481 L949.382681,280.227645 L925.470123,280.227645 L925.470123,296.387481 Z M894.801798,296.387481 L918.713336,296.387481 L918.713336,280.227645 L894.801798,280.227645 L894.801798,296.387481 Z M864.136535,296.387481 L888.048072,296.387481 L888.048072,280.227645 L864.136535,280.227645 L864.136535,296.387481 Z M833.423308,296.387481 L857.376686,296.387481 L857.376686,280.227645 L833.423308,280.227645 L833.423308,296.387481 Z M781.688623,296.387481 L804.706195,296.387481 L804.706195,280.227645 L781.688623,280.227645 L781.688623,296.387481 Z M751.027442,296.387481 L774.938979,296.387481 L774.938979,280.227645 L751.027442,280.227645 L751.027442,296.387481 Z M720.357076,296.387481 L744.267593,296.387481 L744.267593,280.227645 L720.357076,280.227645 L720.357076,296.387481 Z M689.688751,296.387481 L713.599268,296.387481 L713.599268,280.227645 L689.688751,280.227645 L689.688751,296.387481 Z M659.013283,296.387481 L682.927882,296.387481 L682.927882,280.227645 L659.013283,280.227645 L659.013283,296.387481 Z M628.339856,296.387481 L652.257516,296.387481 L652.257516,280.227645 L628.339856,280.227645 L628.339856,296.387481 Z M1186.37233,316.770003 L1210.28693,316.770003 L1210.28693,303.107183 L1186.37233,303.107183 L1186.37233,316.770003 Z M1155.70503,316.770003 L1179.61555,316.770003 L1179.61555,303.107183 L1155.70503,303.107183 L1155.70503,316.770003 Z M1125.03671,316.770003 L1148.94824,316.770003 L1148.94824,303.107183 L1125.03671,303.107183 L1125.03671,316.770003 Z M1094.36838,316.770003 L1118.27992,316.770003 L1118.27992,303.107183 L1094.36838,303.107183 L1094.36838,316.770003 Z M1063.65413,316.770003 L1087.60853,316.770003 L1087.60853,303.107183 L1063.65413,303.107183 L1063.65413,316.770003 Z M1017.47714,316.770003 L1040.49675,316.770003 L1040.49675,303.107183 L1017.47714,303.107183 L1017.47714,316.770003 Z M986.812896,316.770003 L1010.72341,316.770003 L1010.72341,303.107183 L986.812896,303.107183 L986.812896,316.770003 Z M956.141509,316.770003 L980.052026,316.770003 L980.052026,303.107183 L956.141509,303.107183 L956.141509,316.770003 Z M925.470123,316.770003 L949.382681,316.770003 L949.382681,303.107183 L925.470123,303.107183 L925.470123,316.770003 Z M894.801798,316.770003 L918.713336,316.770003 L918.713336,303.107183 L894.801798,303.107183 L894.801798,316.770003 Z M864.136535,316.770003 L888.048072,316.770003 L888.048072,303.107183 L864.136535,303.107183 L864.136535,316.770003 Z M833.423308,316.770003 L857.376686,316.770003 L857.376686,303.107183 L833.423308,303.107183 L833.423308,316.770003 Z M781.688623,316.770003 L804.706195,316.770003 L804.706195,303.107183 L781.688623,303.107183 L781.688623,316.770003 Z M751.027442,316.770003 L774.938979,316.770003 L774.938979,303.107183 L751.027442,303.107183 L751.027442,316.770003 Z M720.357076,316.770003 L744.267593,316.770003 L744.267593,303.107183 L720.357076,303.107183 L720.357076,316.770003 Z M689.688751,316.770003 L713.599268,316.770003 L713.599268,303.107183 L689.688751,303.107183 L689.688751,316.770003 Z M659.013283,316.770003 L682.927882,316.770003 L682.927882,303.107183 L659.013283,303.107183 L659.013283,316.770003 Z M628.339856,316.770003 L652.257516,316.770003 L652.257516,303.107183 L628.339856,303.107183 L628.339856,316.770003 Z M1186.37233,365.058444 L1210.28693,365.058444 L1210.28693,323.491727 L1186.37233,323.491727 L1186.37233,365.058444 Z M1155.70503,365.058444 L1179.61555,365.058444 L1179.61555,323.491727 L1155.70503,323.491727 L1155.70503,365.058444 Z M1125.03671,365.058444 L1148.94824,365.058444 L1148.94824,323.491727 L1125.03671,323.491727 L1125.03671,365.058444 Z M1094.36838,365.058444 L1118.27992,365.058444 L1118.27992,323.491727 L1094.36838,323.491727 L1094.36838,365.058444 Z M1063.65413,365.058444 L1087.60853,365.058444 L1087.60853,323.491727 L1063.65413,323.491727 L1063.65413,365.058444 Z M1017.47714,365.058444 L1040.49675,365.058444 L1040.49675,323.491727 L1017.47714,323.491727 L1017.47714,365.058444 Z M986.812896,365.058444 L1010.72341,365.058444 L1010.72341,323.491727 L986.812896,323.491727 L986.812896,365.058444 Z M956.141509,365.058444 L980.052026,365.058444 L980.052026,323.491727 L956.141509,323.491727 L956.141509,365.058444 Z M925.470123,365.058444 L949.382681,365.058444 L949.382681,323.491727 L925.470123,323.491727 L925.470123,365.058444 Z M894.801798,365.058444 L918.713336,365.058444 L918.713336,323.491727 L894.801798,323.491727 L894.801798,365.058444 Z M864.136535,365.058444 L888.048072,365.058444 L888.048072,323.491727 L864.136535,323.491727 L864.136535,365.058444 Z M833.423308,365.058444 L857.376686,365.058444 L857.376686,323.491727 L833.423308,323.491727 L833.423308,365.058444 Z M781.688623,365.058444 L804.706195,365.058444 L804.706195,323.491727 L781.688623,323.491727 L781.688623,365.058444 Z M751.027442,365.058444 L774.938979,365.058444 L774.938979,323.491727 L751.027442,323.491727 L751.027442,365.058444 Z M720.357076,365.058444 L744.267593,365.058444 L744.267593,323.491727 L720.357076,323.491727 L720.357076,365.058444 Z M689.688751,365.058444 L713.599268,365.058444 L713.599268,323.491727 L689.688751,323.491727 L689.688751,365.058444 Z M659.013283,365.058444 L682.927882,365.058444 L682.927882,323.491727 L659.013283,323.491727 L659.013283,365.058444 Z M628.339856,365.058444 L652.257516,365.058444 L652.257516,323.491727 L628.339856,323.491727 L628.339856,365.058444 Z M1186.37233,413.355983 L1210.28693,413.355983 L1210.28693,371.785222 L1186.37233,371.785222 L1186.37233,413.355983 Z M1155.70503,413.355983 L1179.61555,413.355983 L1179.61555,371.785222 L1155.70503,371.785222 L1155.70503,413.355983 Z M1125.03671,413.355983 L1148.94824,413.355983 L1148.94824,371.785222 L1125.03671,371.785222 L1125.03671,413.355983 Z M1094.36838,413.355983 L1118.27992,413.355983 L1118.27992,371.785222 L1094.36838,371.785222 L1094.36838,413.355983 Z M1063.65413,413.355983 L1087.60853,413.355983 L1087.60853,371.785222 L1063.65413,371.785222 L1063.65413,413.355983 Z M1017.47714,413.355983 L1040.49675,413.355983 L1040.49675,371.785222 L1017.47714,371.785222 L1017.47714,413.355983 Z M986.812896,413.355983 L1010.72341,413.355983 L1010.72341,371.785222 L986.812896,371.785222 L986.812896,413.355983 Z M956.141509,413.355983 L980.052026,413.355983 L980.052026,371.785222 L956.141509,371.785222 L956.141509,413.355983 Z M925.470123,413.355983 L949.382681,413.355983 L949.382681,371.785222 L925.470123,371.785222 L925.470123,413.355983 Z M894.801798,413.355983 L918.713336,413.355983 L918.713336,371.785222 L894.801798,371.785222 L894.801798,413.355983 Z M864.136535,413.355983 L888.048072,413.355983 L888.048072,371.785222 L864.136535,371.785222 L864.136535,413.355983 Z M833.423308,413.355983 L857.376686,413.355983 L857.376686,371.785222 L833.423308,371.785222 L833.423308,413.355983 Z M781.688623,413.355983 L804.706195,413.355983 L804.706195,371.785222 L781.688623,371.785222 L781.688623,413.355983 Z M751.027442,413.355983 L774.938979,413.355983 L774.938979,371.785222 L751.027442,371.785222 L751.027442,413.355983 Z M720.357076,413.355983 L744.267593,413.355983 L744.267593,371.785222 L720.357076,371.785222 L720.357076,413.355983 Z M689.688751,413.355983 L713.599268,413.355983 L713.599268,371.785222 L689.688751,371.785222 L689.688751,413.355983 Z M659.013283,413.355983 L682.927882,413.355983 L682.927882,371.785222 L659.013283,371.785222 L659.013283,413.355983 Z M628.339856,413.355983 L652.257516,413.355983 L652.257516,371.785222 L628.339856,371.785222 L628.339856,413.355983 Z M1186.37233,435.30748 L1210.28693,435.30748 L1210.28693,420.078717 L1186.37233,420.078717 L1186.37233,435.30748 Z M1155.70503,435.30748 L1179.61555,435.30748 L1179.61555,420.078717 L1155.70503,420.078717 L1155.70503,435.30748 Z M1125.03671,435.30748 L1148.94824,435.30748 L1148.94824,420.078717 L1125.03671,420.078717 L1125.03671,435.30748 Z M1094.36838,435.30748 L1118.27992,435.30748 L1118.27992,420.078717 L1094.36838,420.078717 L1094.36838,435.30748 Z M1063.65413,435.30748 L1087.60853,435.30748 L1087.60853,420.078717 L1063.65413,420.078717 L1063.65413,435.30748 Z M1017.47714,435.30748 L1040.49675,435.30748 L1040.49675,420.078717 L1017.47714,420.078717 L1017.47714,435.30748 Z M986.812896,435.30748 L1010.72341,435.30748 L1010.72341,420.078717 L986.812896,420.078717 L986.812896,435.30748 Z M956.141509,435.30748 L980.052026,435.30748 L980.052026,420.078717 L956.141509,420.078717 L956.141509,435.30748 Z M925.470123,435.30748 L949.382681,435.30748 L949.382681,420.078717 L925.470123,420.078717 L925.470123,435.30748 Z M894.801798,435.30748 L918.713336,435.30748 L918.713336,420.078717 L894.801798,420.078717 L894.801798,435.30748 Z M864.136535,435.30748 L888.048072,435.30748 L888.048072,420.078717 L864.136535,420.078717 L864.136535,435.30748 Z M833.423308,435.30748 L857.376686,435.30748 L857.376686,420.078717 L833.423308,420.078717 L833.423308,435.30748 Z M781.688623,435.30748 L804.706195,435.30748 L804.706195,420.078717 L781.688623,420.078717 L781.688623,435.30748 Z M751.027442,435.30748 L774.938979,435.30748 L774.938979,420.078717 L751.027442,420.078717 L751.027442,435.30748 Z M720.357076,435.30748 L744.267593,435.30748 L744.267593,420.078717 L720.357076,420.078717 L720.357076,435.30748 Z M689.688751,435.30748 L713.599268,435.30748 L713.599268,420.078717 L689.688751,420.078717 L689.688751,435.30748 Z M659.013283,435.30748 L682.927882,435.30748 L682.927882,420.078717 L659.013283,420.078717 L659.013283,435.30748 Z M628.339856,435.30748 L652.257516,435.30748 L652.257516,420.078717 L628.339856,420.078717 L628.339856,435.30748 Z M1186.37233,479.517798 L1210.28693,479.517798 L1210.28693,442.024148 L1186.37233,442.024148 L1186.37233,479.517798 Z M1155.70503,479.517798 L1179.61555,479.517798 L1179.61555,442.024148 L1155.70503,442.024148 L1155.70503,479.517798 Z M1125.03671,479.517798 L1148.94824,479.517798 L1148.94824,442.024148 L1125.03671,442.024148 L1125.03671,479.517798 Z M1094.36838,479.517798 L1118.27992,479.517798 L1118.27992,442.024148 L1094.36838,442.024148 L1094.36838,479.517798 Z M1063.65413,479.517798 L1087.60853,479.517798 L1087.60853,442.024148 L1063.65413,442.024148 L1063.65413,479.517798 Z M1017.47714,479.517798 L1040.49675,479.517798 L1040.49675,442.024148 L1017.47714,442.024148 L1017.47714,479.517798 Z M986.812896,479.517798 L1010.72341,479.517798 L1010.72341,442.024148 L986.812896,442.024148 L986.812896,479.517798 Z M956.141509,479.517798 L980.052026,479.517798 L980.052026,442.024148 L956.141509,442.024148 L956.141509,479.517798 Z M925.470123,479.517798 L949.382681,479.517798 L949.382681,442.024148 L925.470123,442.024148 L925.470123,479.517798 Z M894.801798,479.517798 L918.713336,479.517798 L918.713336,442.024148 L894.801798,442.024148 L894.801798,479.517798 Z M864.136535,479.517798 L888.048072,479.517798 L888.048072,442.024148 L864.136535,442.024148 L864.136535,479.517798 Z M833.423308,479.517798 L857.376686,479.517798 L857.376686,442.024148 L833.423308,442.024148 L833.423308,479.517798 Z M781.688623,479.517798 L804.706195,479.517798 L804.706195,442.024148 L781.688623,442.024148 L781.688623,479.517798 Z M751.027442,479.517798 L774.938979,479.517798 L774.938979,442.024148 L751.027442,442.024148 L751.027442,479.517798 Z M720.357076,479.517798 L744.267593,479.517798 L744.267593,442.024148 L720.357076,442.024148 L720.357076,479.517798 Z M689.688751,479.517798 L713.599268,479.517798 L713.599268,442.024148 L689.688751,442.024148 L689.688751,479.517798 Z M659.013283,479.517798 L682.927882,479.517798 L682.927882,442.024148 L659.013283,442.024148 L659.013283,479.517798 Z M628.339856,479.517798 L652.257516,479.517798 L652.257516,442.024148 L628.339856,442.024148 L628.339856,479.517798 Z M1186.37233,523.735194 L1210.28693,523.735194 L1210.28693,486.242555 L1186.37233,486.242555 L1186.37233,523.735194 Z M1155.70503,523.735194 L1179.61555,523.735194 L1179.61555,486.242555 L1155.70503,486.242555 L1155.70503,523.735194 Z M1125.03671,523.735194 L1148.94824,523.735194 L1148.94824,486.242555 L1125.03671,486.242555 L1125.03671,523.735194 Z M1094.36838,523.735194 L1118.27992,523.735194 L1118.27992,486.242555 L1094.36838,486.242555 L1094.36838,523.735194 Z M1063.65413,523.735194 L1087.60853,523.735194 L1087.60853,486.242555 L1063.65413,486.242555 L1063.65413,523.735194 Z M1017.47714,523.735194 L1040.49675,523.735194 L1040.49675,486.242555 L1017.47714,486.242555 L1017.47714,523.735194 Z M986.812896,523.735194 L1010.72341,523.735194 L1010.72341,486.242555 L986.812896,486.242555 L986.812896,523.735194 Z M956.141509,523.735194 L980.052026,523.735194 L980.052026,486.242555 L956.141509,486.242555 L956.141509,523.735194 Z M925.470123,523.735194 L949.382681,523.735194 L949.382681,486.242555 L925.470123,486.242555 L925.470123,523.735194 Z M894.801798,523.735194 L918.713336,523.735194 L918.713336,486.242555 L894.801798,486.242555 L894.801798,523.735194 Z M864.136535,523.735194 L888.048072,523.735194 L888.048072,486.242555 L864.136535,486.242555 L864.136535,523.735194 Z M833.423308,523.735194 L857.376686,523.735194 L857.376686,486.242555 L833.423308,486.242555 L833.423308,523.735194 Z M781.688623,523.735194 L804.706195,523.735194 L804.706195,486.242555 L781.688623,486.242555 L781.688623,523.735194 Z M751.027442,523.735194 L774.938979,523.735194 L774.938979,486.242555 L751.027442,486.242555 L751.027442,523.735194 Z M720.357076,523.735194 L744.267593,523.735194 L744.267593,486.242555 L720.357076,486.242555 L720.357076,523.735194 Z M689.688751,523.735194 L713.599268,523.735194 L713.599268,486.242555 L689.688751,486.242555 L689.688751,523.735194 Z M659.013283,523.735194 L682.927882,523.735194 L682.927882,486.242555 L659.013283,486.242555 L659.013283,523.735194 Z M628.339856,523.735194 L652.257516,523.735194 L652.257516,486.242555 L628.339856,486.242555 L628.339856,523.735194 Z M1186.37233,544.706081 L1210.28693,544.706081 L1210.28693,530.453884 L1186.37233,530.453884 L1186.37233,544.706081 Z M1155.70503,544.706081 L1179.61555,544.706081 L1179.61555,530.453884 L1155.70503,530.453884 L1155.70503,544.706081 Z M1125.03671,544.706081 L1148.94824,544.706081 L1148.94824,530.453884 L1125.03671,530.453884 L1125.03671,544.706081 Z M1094.36838,544.706081 L1118.27992,544.706081 L1118.27992,530.453884 L1094.36838,530.453884 L1094.36838,544.706081 Z M1063.65413,544.706081 L1087.60853,544.706081 L1087.60853,530.453884 L1063.65413,530.453884 L1063.65413,544.706081 Z M1017.47714,544.706081 L1040.49675,544.706081 L1040.49675,530.453884 L1017.47714,530.453884 L1017.47714,544.706081 Z M986.812896,544.706081 L1010.72341,544.706081 L1010.72341,530.453884 L986.812896,530.453884 L986.812896,544.706081 Z M956.141509,544.706081 L980.052026,544.706081 L980.052026,530.453884 L956.141509,530.453884 L956.141509,544.706081 Z M925.470123,544.706081 L949.382681,544.706081 L949.382681,530.453884 L925.470123,530.453884 L925.470123,544.706081 Z M894.801798,544.706081 L918.713336,544.706081 L918.713336,530.453884 L894.801798,530.453884 L894.801798,544.706081 Z M864.136535,544.706081 L888.048072,544.706081 L888.048072,530.453884 L864.136535,530.453884 L864.136535,544.706081 Z M833.423308,544.706081 L857.376686,544.706081 L857.376686,530.453884 L833.423308,530.453884 L833.423308,544.706081 Z M781.688623,544.706081 L804.706195,544.706081 L804.706195,530.453884 L781.688623,530.453884 L781.688623,544.706081 Z M751.027442,544.706081 L774.938979,544.706081 L774.938979,530.453884 L751.027442,530.453884 L751.027442,544.706081 Z M720.357076,544.706081 L744.267593,544.706081 L744.267593,530.453884 L720.357076,530.453884 L720.357076,544.706081 Z M689.688751,544.706081 L713.599268,544.706081 L713.599268,530.453884 L689.688751,530.453884 L689.688751,544.706081 Z M659.013283,544.706081 L682.927882,544.706081 L682.927882,530.453884 L659.013283,530.453884 L659.013283,544.706081 Z M628.339856,544.706081 L652.257516,544.706081 L652.257516,530.453884 L628.339856,530.453884 L628.339856,544.706081 Z" id="Fill-2" fill="#F48266"></path>
                <path d="M0,187 L0,217.428208 L82.4581165,217.428208 L82.4581165,244.026984 L0,244.026984 L0,280.227645 L14.5861296,280.227645 L14.5861296,296.387481 L0,296.387481 L0,303.107183 L14.5861296,303.107183 L14.5861296,316.768992 L0,316.768992 L0,323.491727 L14.5861296,323.491727 L14.5861296,365.059455 L0,365.059455 L0,371.785222 L14.5861296,371.785222 L14.5861296,413.355983 L0,413.355983 L0,420.078717 L14.5861296,420.078717 L14.5861296,435.30748 L0,435.30748 L0,442.024148 L14.5861296,442.024148 L14.5861296,479.517798 L0,479.517798 L0,486.242555 L14.5861296,486.242555 L14.5861296,523.735194 L0,523.735194 L0,530.453884 L14.5861296,530.453884 L14.5861296,544.706081 L0,544.706081 L0,622.01045 L607.483265,622.01045 L607.483265,244.026984 L572.455327,244.026984 L572.455327,217.428208 L607.483265,217.428208 L607.483265,187 L0,187 Z M455.84589,244.027995 L547.123242,244.027995 L547.123242,217.428208 L455.84589,217.428208 L455.84589,244.027995 Z M339.254822,244.027995 L430.528092,244.027995 L430.528092,217.428208 L339.254822,217.428208 L339.254822,244.027995 Z M222.648446,244.027995 L313.925798,244.027995 L313.925798,217.428208 L222.648446,217.428208 L222.648446,244.027995 Z M107.783058,244.027995 L199.06041,244.027995 L199.06041,217.428208 L107.783058,217.428208 L107.783058,244.027995 Z M579.372335,296.387481 L603.286934,296.387481 L603.286934,280.227645 L579.372335,280.227645 L579.372335,296.387481 Z M548.70503,296.387481 L572.615547,296.387481 L572.615547,280.227645 L548.70503,280.227645 L548.70503,296.387481 Z M518.036705,296.387481 L541.948243,296.387481 L541.948243,280.227645 L518.036705,280.227645 L518.036705,296.387481 Z M487.368381,296.387481 L511.279918,296.387481 L511.279918,280.227645 L487.368381,280.227645 L487.368381,296.387481 Z M456.654133,296.387481 L480.608532,296.387481 L480.608532,280.227645 L456.654133,280.227645 L456.654133,296.387481 Z M410.477139,296.387481 L433.496751,296.387481 L433.496751,280.227645 L410.477139,280.227645 L410.477139,296.387481 Z M379.812896,296.387481 L403.723413,296.387481 L403.723413,280.227645 L379.812896,280.227645 L379.812896,296.387481 Z M349.141509,296.387481 L373.052026,296.387481 L373.052026,280.227645 L349.141509,280.227645 L349.141509,296.387481 Z M318.470123,296.387481 L342.382681,296.387481 L342.382681,280.227645 L318.470123,280.227645 L318.470123,296.387481 Z M287.801798,296.387481 L311.713336,296.387481 L311.713336,280.227645 L287.801798,280.227645 L287.801798,296.387481 Z M257.136535,296.387481 L281.048072,296.387481 L281.048072,280.227645 L257.136535,280.227645 L257.136535,296.387481 Z M226.423308,296.387481 L250.376686,296.387481 L250.376686,280.227645 L226.423308,280.227645 L226.423308,296.387481 Z M174.688623,296.387481 L197.706195,296.387481 L197.706195,280.227645 L174.688623,280.227645 L174.688623,296.387481 Z M144.027442,296.387481 L167.938979,296.387481 L167.938979,280.227645 L144.027442,280.227645 L144.027442,296.387481 Z M113.357076,296.387481 L137.267593,296.387481 L137.267593,280.227645 L113.357076,280.227645 L113.357076,296.387481 Z M82.6887514,296.387481 L106.599268,296.387481 L106.599268,280.227645 L82.6887514,280.227645 L82.6887514,296.387481 Z M52.013283,296.387481 L75.9278819,296.387481 L75.9278819,280.227645 L52.013283,280.227645 L52.013283,296.387481 Z M21.3398556,296.387481 L45.257516,296.387481 L45.257516,280.227645 L21.3398556,280.227645 L21.3398556,296.387481 Z M579.372335,316.770003 L603.286934,316.770003 L603.286934,303.107183 L579.372335,303.107183 L579.372335,316.770003 Z M548.70503,316.770003 L572.615547,316.770003 L572.615547,303.107183 L548.70503,303.107183 L548.70503,316.770003 Z M518.036705,316.770003 L541.948243,316.770003 L541.948243,303.107183 L518.036705,303.107183 L518.036705,316.770003 Z M487.368381,316.770003 L511.279918,316.770003 L511.279918,303.107183 L487.368381,303.107183 L487.368381,316.770003 Z M456.654133,316.770003 L480.608532,316.770003 L480.608532,303.107183 L456.654133,303.107183 L456.654133,316.770003 Z M410.477139,316.770003 L433.496751,316.770003 L433.496751,303.107183 L410.477139,303.107183 L410.477139,316.770003 Z M379.812896,316.770003 L403.723413,316.770003 L403.723413,303.107183 L379.812896,303.107183 L379.812896,316.770003 Z M349.141509,316.770003 L373.052026,316.770003 L373.052026,303.107183 L349.141509,303.107183 L349.141509,316.770003 Z M318.470123,316.770003 L342.382681,316.770003 L342.382681,303.107183 L318.470123,303.107183 L318.470123,316.770003 Z M287.801798,316.770003 L311.713336,316.770003 L311.713336,303.107183 L287.801798,303.107183 L287.801798,316.770003 Z M257.136535,316.770003 L281.048072,316.770003 L281.048072,303.107183 L257.136535,303.107183 L257.136535,316.770003 Z M226.423308,316.770003 L250.376686,316.770003 L250.376686,303.107183 L226.423308,303.107183 L226.423308,316.770003 Z M174.688623,316.770003 L197.706195,316.770003 L197.706195,303.107183 L174.688623,303.107183 L174.688623,316.770003 Z M144.027442,316.770003 L167.938979,316.770003 L167.938979,303.107183 L144.027442,303.107183 L144.027442,316.770003 Z M113.357076,316.770003 L137.267593,316.770003 L137.267593,303.107183 L113.357076,303.107183 L113.357076,316.770003 Z M82.6887514,316.770003 L106.599268,316.770003 L106.599268,303.107183 L82.6887514,303.107183 L82.6887514,316.770003 Z M52.013283,316.770003 L75.9278819,316.770003 L75.9278819,303.107183 L52.013283,303.107183 L52.013283,316.770003 Z M21.3398556,316.770003 L45.257516,316.770003 L45.257516,303.107183 L21.3398556,303.107183 L21.3398556,316.770003 Z M579.372335,365.058444 L603.286934,365.058444 L603.286934,323.491727 L579.372335,323.491727 L579.372335,365.058444 Z M548.70503,365.058444 L572.615547,365.058444 L572.615547,323.491727 L548.70503,323.491727 L548.70503,365.058444 Z M518.036705,365.058444 L541.948243,365.058444 L541.948243,323.491727 L518.036705,323.491727 L518.036705,365.058444 Z M487.368381,365.058444 L511.279918,365.058444 L511.279918,323.491727 L487.368381,323.491727 L487.368381,365.058444 Z M456.654133,365.058444 L480.608532,365.058444 L480.608532,323.491727 L456.654133,323.491727 L456.654133,365.058444 Z M410.477139,365.058444 L433.496751,365.058444 L433.496751,323.491727 L410.477139,323.491727 L410.477139,365.058444 Z M379.812896,365.058444 L403.723413,365.058444 L403.723413,323.491727 L379.812896,323.491727 L379.812896,365.058444 Z M349.141509,365.058444 L373.052026,365.058444 L373.052026,323.491727 L349.141509,323.491727 L349.141509,365.058444 Z M318.470123,365.058444 L342.382681,365.058444 L342.382681,323.491727 L318.470123,323.491727 L318.470123,365.058444 Z M287.801798,365.058444 L311.713336,365.058444 L311.713336,323.491727 L287.801798,323.491727 L287.801798,365.058444 Z M257.136535,365.058444 L281.048072,365.058444 L281.048072,323.491727 L257.136535,323.491727 L257.136535,365.058444 Z M226.423308,365.058444 L250.376686,365.058444 L250.376686,323.491727 L226.423308,323.491727 L226.423308,365.058444 Z M174.688623,365.058444 L197.706195,365.058444 L197.706195,323.491727 L174.688623,323.491727 L174.688623,365.058444 Z M144.027442,365.058444 L167.938979,365.058444 L167.938979,323.491727 L144.027442,323.491727 L144.027442,365.058444 Z M113.357076,365.058444 L137.267593,365.058444 L137.267593,323.491727 L113.357076,323.491727 L113.357076,365.058444 Z M82.6887514,365.058444 L106.599268,365.058444 L106.599268,323.491727 L82.6887514,323.491727 L82.6887514,365.058444 Z M52.013283,365.058444 L75.9278819,365.058444 L75.9278819,323.491727 L52.013283,323.491727 L52.013283,365.058444 Z M21.3398556,365.058444 L45.257516,365.058444 L45.257516,323.491727 L21.3398556,323.491727 L21.3398556,365.058444 Z M579.372335,413.355983 L603.286934,413.355983 L603.286934,371.785222 L579.372335,371.785222 L579.372335,413.355983 Z M548.70503,413.355983 L572.615547,413.355983 L572.615547,371.785222 L548.70503,371.785222 L548.70503,413.355983 Z M518.036705,413.355983 L541.948243,413.355983 L541.948243,371.785222 L518.036705,371.785222 L518.036705,413.355983 Z M487.368381,413.355983 L511.279918,413.355983 L511.279918,371.785222 L487.368381,371.785222 L487.368381,413.355983 Z M456.654133,413.355983 L480.608532,413.355983 L480.608532,371.785222 L456.654133,371.785222 L456.654133,413.355983 Z M410.477139,413.355983 L433.496751,413.355983 L433.496751,371.785222 L410.477139,371.785222 L410.477139,413.355983 Z M379.812896,413.355983 L403.723413,413.355983 L403.723413,371.785222 L379.812896,371.785222 L379.812896,413.355983 Z M349.141509,413.355983 L373.052026,413.355983 L373.052026,371.785222 L349.141509,371.785222 L349.141509,413.355983 Z M318.470123,413.355983 L342.382681,413.355983 L342.382681,371.785222 L318.470123,371.785222 L318.470123,413.355983 Z M287.801798,413.355983 L311.713336,413.355983 L311.713336,371.785222 L287.801798,371.785222 L287.801798,413.355983 Z M257.136535,413.355983 L281.048072,413.355983 L281.048072,371.785222 L257.136535,371.785222 L257.136535,413.355983 Z M226.423308,413.355983 L250.376686,413.355983 L250.376686,371.785222 L226.423308,371.785222 L226.423308,413.355983 Z M174.688623,413.355983 L197.706195,413.355983 L197.706195,371.785222 L174.688623,371.785222 L174.688623,413.355983 Z M144.027442,413.355983 L167.938979,413.355983 L167.938979,371.785222 L144.027442,371.785222 L144.027442,413.355983 Z M113.357076,413.355983 L137.267593,413.355983 L137.267593,371.785222 L113.357076,371.785222 L113.357076,413.355983 Z M82.6887514,413.355983 L106.599268,413.355983 L106.599268,371.785222 L82.6887514,371.785222 L82.6887514,413.355983 Z M52.013283,413.355983 L75.9278819,413.355983 L75.9278819,371.785222 L52.013283,371.785222 L52.013283,413.355983 Z M21.3398556,413.355983 L45.257516,413.355983 L45.257516,371.785222 L21.3398556,371.785222 L21.3398556,413.355983 Z M579.372335,435.30748 L603.286934,435.30748 L603.286934,420.078717 L579.372335,420.078717 L579.372335,435.30748 Z M548.70503,435.30748 L572.615547,435.30748 L572.615547,420.078717 L548.70503,420.078717 L548.70503,435.30748 Z M518.036705,435.30748 L541.948243,435.30748 L541.948243,420.078717 L518.036705,420.078717 L518.036705,435.30748 Z M487.368381,435.30748 L511.279918,435.30748 L511.279918,420.078717 L487.368381,420.078717 L487.368381,435.30748 Z M456.654133,435.30748 L480.608532,435.30748 L480.608532,420.078717 L456.654133,420.078717 L456.654133,435.30748 Z M410.477139,435.30748 L433.496751,435.30748 L433.496751,420.078717 L410.477139,420.078717 L410.477139,435.30748 Z M379.812896,435.30748 L403.723413,435.30748 L403.723413,420.078717 L379.812896,420.078717 L379.812896,435.30748 Z M349.141509,435.30748 L373.052026,435.30748 L373.052026,420.078717 L349.141509,420.078717 L349.141509,435.30748 Z M318.470123,435.30748 L342.382681,435.30748 L342.382681,420.078717 L318.470123,420.078717 L318.470123,435.30748 Z M287.801798,435.30748 L311.713336,435.30748 L311.713336,420.078717 L287.801798,420.078717 L287.801798,435.30748 Z M257.136535,435.30748 L281.048072,435.30748 L281.048072,420.078717 L257.136535,420.078717 L257.136535,435.30748 Z M226.423308,435.30748 L250.376686,435.30748 L250.376686,420.078717 L226.423308,420.078717 L226.423308,435.30748 Z M174.688623,435.30748 L197.706195,435.30748 L197.706195,420.078717 L174.688623,420.078717 L174.688623,435.30748 Z M144.027442,435.30748 L167.938979,435.30748 L167.938979,420.078717 L144.027442,420.078717 L144.027442,435.30748 Z M113.357076,435.30748 L137.267593,435.30748 L137.267593,420.078717 L113.357076,420.078717 L113.357076,435.30748 Z M82.6887514,435.30748 L106.599268,435.30748 L106.599268,420.078717 L82.6887514,420.078717 L82.6887514,435.30748 Z M52.013283,435.30748 L75.9278819,435.30748 L75.9278819,420.078717 L52.013283,420.078717 L52.013283,435.30748 Z M21.3398556,435.30748 L45.257516,435.30748 L45.257516,420.078717 L21.3398556,420.078717 L21.3398556,435.30748 Z M579.372335,479.517798 L603.286934,479.517798 L603.286934,442.024148 L579.372335,442.024148 L579.372335,479.517798 Z M548.70503,479.517798 L572.615547,479.517798 L572.615547,442.024148 L548.70503,442.024148 L548.70503,479.517798 Z M518.036705,479.517798 L541.948243,479.517798 L541.948243,442.024148 L518.036705,442.024148 L518.036705,479.517798 Z M487.368381,479.517798 L511.279918,479.517798 L511.279918,442.024148 L487.368381,442.024148 L487.368381,479.517798 Z M456.654133,479.517798 L480.608532,479.517798 L480.608532,442.024148 L456.654133,442.024148 L456.654133,479.517798 Z M410.477139,479.517798 L433.496751,479.517798 L433.496751,442.024148 L410.477139,442.024148 L410.477139,479.517798 Z M379.812896,479.517798 L403.723413,479.517798 L403.723413,442.024148 L379.812896,442.024148 L379.812896,479.517798 Z M349.141509,479.517798 L373.052026,479.517798 L373.052026,442.024148 L349.141509,442.024148 L349.141509,479.517798 Z M318.470123,479.517798 L342.382681,479.517798 L342.382681,442.024148 L318.470123,442.024148 L318.470123,479.517798 Z M287.801798,479.517798 L311.713336,479.517798 L311.713336,442.024148 L287.801798,442.024148 L287.801798,479.517798 Z M257.136535,479.517798 L281.048072,479.517798 L281.048072,442.024148 L257.136535,442.024148 L257.136535,479.517798 Z M226.423308,479.517798 L250.376686,479.517798 L250.376686,442.024148 L226.423308,442.024148 L226.423308,479.517798 Z M174.688623,479.517798 L197.706195,479.517798 L197.706195,442.024148 L174.688623,442.024148 L174.688623,479.517798 Z M144.027442,479.517798 L167.938979,479.517798 L167.938979,442.024148 L144.027442,442.024148 L144.027442,479.517798 Z M113.357076,479.517798 L137.267593,479.517798 L137.267593,442.024148 L113.357076,442.024148 L113.357076,479.517798 Z M82.6887514,479.517798 L106.599268,479.517798 L106.599268,442.024148 L82.6887514,442.024148 L82.6887514,479.517798 Z M52.013283,479.517798 L75.9278819,479.517798 L75.9278819,442.024148 L52.013283,442.024148 L52.013283,479.517798 Z M21.3398556,479.517798 L45.257516,479.517798 L45.257516,442.024148 L21.3398556,442.024148 L21.3398556,479.517798 Z M579.372335,523.735194 L603.286934,523.735194 L603.286934,486.242555 L579.372335,486.242555 L579.372335,523.735194 Z M548.70503,523.735194 L572.615547,523.735194 L572.615547,486.242555 L548.70503,486.242555 L548.70503,523.735194 Z M518.036705,523.735194 L541.948243,523.735194 L541.948243,486.242555 L518.036705,486.242555 L518.036705,523.735194 Z M487.368381,523.735194 L511.279918,523.735194 L511.279918,486.242555 L487.368381,486.242555 L487.368381,523.735194 Z M456.654133,523.735194 L480.608532,523.735194 L480.608532,486.242555 L456.654133,486.242555 L456.654133,523.735194 Z M410.477139,523.735194 L433.496751,523.735194 L433.496751,486.242555 L410.477139,486.242555 L410.477139,523.735194 Z M379.812896,523.735194 L403.723413,523.735194 L403.723413,486.242555 L379.812896,486.242555 L379.812896,523.735194 Z M349.141509,523.735194 L373.052026,523.735194 L373.052026,486.242555 L349.141509,486.242555 L349.141509,523.735194 Z M318.470123,523.735194 L342.382681,523.735194 L342.382681,486.242555 L318.470123,486.242555 L318.470123,523.735194 Z M287.801798,523.735194 L311.713336,523.735194 L311.713336,486.242555 L287.801798,486.242555 L287.801798,523.735194 Z M257.136535,523.735194 L281.048072,523.735194 L281.048072,486.242555 L257.136535,486.242555 L257.136535,523.735194 Z M226.423308,523.735194 L250.376686,523.735194 L250.376686,486.242555 L226.423308,486.242555 L226.423308,523.735194 Z M174.688623,523.735194 L197.706195,523.735194 L197.706195,486.242555 L174.688623,486.242555 L174.688623,523.735194 Z M144.027442,523.735194 L167.938979,523.735194 L167.938979,486.242555 L144.027442,486.242555 L144.027442,523.735194 Z M113.357076,523.735194 L137.267593,523.735194 L137.267593,486.242555 L113.357076,486.242555 L113.357076,523.735194 Z M82.6887514,523.735194 L106.599268,523.735194 L106.599268,486.242555 L82.6887514,486.242555 L82.6887514,523.735194 Z M52.013283,523.735194 L75.9278819,523.735194 L75.9278819,486.242555 L52.013283,486.242555 L52.013283,523.735194 Z M21.3398556,523.735194 L45.257516,523.735194 L45.257516,486.242555 L21.3398556,486.242555 L21.3398556,523.735194 Z M579.372335,544.706081 L603.286934,544.706081 L603.286934,530.453884 L579.372335,530.453884 L579.372335,544.706081 Z M548.70503,544.706081 L572.615547,544.706081 L572.615547,530.453884 L548.70503,530.453884 L548.70503,544.706081 Z M518.036705,544.706081 L541.948243,544.706081 L541.948243,530.453884 L518.036705,530.453884 L518.036705,544.706081 Z M487.368381,544.706081 L511.279918,544.706081 L511.279918,530.453884 L487.368381,530.453884 L487.368381,544.706081 Z M456.654133,544.706081 L480.608532,544.706081 L480.608532,530.453884 L456.654133,530.453884 L456.654133,544.706081 Z M410.477139,544.706081 L433.496751,544.706081 L433.496751,530.453884 L410.477139,530.453884 L410.477139,544.706081 Z M379.812896,544.706081 L403.723413,544.706081 L403.723413,530.453884 L379.812896,530.453884 L379.812896,544.706081 Z M349.141509,544.706081 L373.052026,544.706081 L373.052026,530.453884 L349.141509,530.453884 L349.141509,544.706081 Z M318.470123,544.706081 L342.382681,544.706081 L342.382681,530.453884 L318.470123,530.453884 L318.470123,544.706081 Z M287.801798,544.706081 L311.713336,544.706081 L311.713336,530.453884 L287.801798,530.453884 L287.801798,544.706081 Z M257.136535,544.706081 L281.048072,544.706081 L281.048072,530.453884 L257.136535,530.453884 L257.136535,544.706081 Z M226.423308,544.706081 L250.376686,544.706081 L250.376686,530.453884 L226.423308,530.453884 L226.423308,544.706081 Z M174.688623,544.706081 L197.706195,544.706081 L197.706195,530.453884 L174.688623,530.453884 L174.688623,544.706081 Z M144.027442,544.706081 L167.938979,544.706081 L167.938979,530.453884 L144.027442,530.453884 L144.027442,544.706081 Z M113.357076,544.706081 L137.267593,544.706081 L137.267593,530.453884 L113.357076,530.453884 L113.357076,544.706081 Z M82.6887514,544.706081 L106.599268,544.706081 L106.599268,530.453884 L82.6887514,530.453884 L82.6887514,544.706081 Z M52.013283,544.706081 L75.9278819,544.706081 L75.9278819,530.453884 L52.013283,530.453884 L52.013283,544.706081 Z M21.3398556,544.706081 L45.257516,544.706081 L45.257516,530.453884 L21.3398556,530.453884 L21.3398556,544.706081 Z" id="Fill-2-Copy" fill="#F48266"></path>
                <polygon id="Fill-3" fill="#F38165" points="708.533617 187.860614 728.003901 72.1436533 743.339084 74.6760517 723.8688 190.393013"></polygon>
                <polygon id="Stroke-4" stroke="#F48266" stroke-width="0.216" points="708.533617 187.860614 728.003901 72.1436533 743.339084 74.6760517 723.8688 190.393013"></polygon>
                <polygon id="Fill-5" fill="#F38165" points="755.14045 189.127016 770.716473 189.127016 770.716473 73.4100547 755.14045 73.4100547"></polygon>
                <polygon id="Stroke-6" stroke="#F48266" stroke-width="0.216" points="755.14045 189.127016 770.716473 189.127016 770.716473 73.4100547 755.14045 73.4100547"></polygon>
                <polygon id="Fill-7" fill="#F38165" points="1105.70179 190.393417 1086.23559 74.6764561 1101.56669 72.1440577 1121.03698 187.861019"></polygon>
                <polygon id="Stroke-8" stroke="#F48266" stroke-width="0.216" points="1105.70179 190.393417 1086.23559 74.6764561 1101.56669 72.1440577 1121.03698 187.861019"></polygon>
                <polygon id="Fill-9" fill="#F38165" points="1058.85606 189.127016 1074.43208 189.127016 1074.43208 73.4100547 1058.85606 73.4100547"></polygon>
                <polygon id="Stroke-10" stroke="#F48266" stroke-width="0.216" points="1058.85606 189.127016 1074.43208 189.127016 1074.43208 73.4100547 1058.85606 73.4100547"></polygon>
                <polygon id="Fill-11" fill="#F38165" points="735.673227 81.1245188 762.92693 81.1245188 762.92693 65.6945797 735.673227 65.6945797"></polygon>
                <polygon id="Stroke-12" stroke="#F48266" stroke-width="0.216" points="735.673227 81.1245188 762.92693 81.1245188 762.92693 65.6945797 735.673227 65.6945797"></polygon>
                <polygon id="Fill-13" fill="#F38165" points="735.673227 81.1245188 1093.90135 81.1245188 1093.90135 65.6945797 735.673227 65.6945797"></polygon>
                <polygon id="Stroke-14" stroke="#F48266" stroke-width="0.216" points="735.673227 81.1245188 1093.90135 81.1245188 1093.90135 65.6945797 735.673227 65.6945797"></polygon>
                <polygon id="Fill-15" fill="#F38165" points="735.673227 43.8381109 1093.62887 43.8381109 1093.62887 28.4081719 735.673227 28.4081719"></polygon>
                <polygon id="Stroke-16" stroke="#F48266" stroke-width="0.216" points="735.673227 43.8381109 1093.62887 43.8381109 1093.62887 28.4081719 735.673227 28.4081719"></polygon>
                <polygon id="Fill-17" fill="#F38165" points="730.286677 67.864557 769.225203 30.5791602 779.995651 41.6711664 741.055084 78.9555523"></polygon>
                <polygon id="Stroke-18" stroke="#F48266" stroke-width="0.216" points="730.286677 67.864557 769.225203 30.5791602 779.995651 41.6711664 741.055084 78.9555523"></polygon>
                <polygon id="Fill-19" fill="#F38165" points="780.481005 31.0913011 812.933179 68.3736652 801.187125 78.437548 768.739033 41.1551839"></polygon>
                <polygon id="Stroke-20" stroke="#F48266" stroke-width="0.216" points="780.481005 31.0913011 812.933179 68.3736652 801.187125 78.437548 768.739033 41.1551839"></polygon>
                <polygon id="Fill-21" fill="#F38165" points="801.946587 67.6237517 844.781416 30.3393658 854.999769 41.9115673 812.170043 79.1969642"></polygon>
                <polygon id="Stroke-22" stroke="#F48266" stroke-width="0.216" points="801.946587 67.6237517 844.781416 30.3393658 854.999769 41.9115673 812.170043 79.1969642"></polygon>
                <polygon id="Fill-23" fill="#F38165" points="855.668712 30.9990025 889.414891 68.2823775 877.854569 78.52924 844.110432 41.2468759"></polygon>
                <polygon id="Stroke-24" stroke="#F48266" stroke-width="0.216" points="855.668712 30.9990025 889.414891 68.2823775 877.854569 78.52924 844.110432 41.2468759"></polygon>
                <polygon id="Fill-25" fill="#F38165" points="878.132352 67.9564513 915.767689 30.6720653 926.778977 41.57907 889.141599 78.8644669"></polygon>
                <polygon id="Stroke-26" stroke="#F48266" stroke-width="0.216" points="878.132352 67.9564513 915.767689 30.6720653 926.778977 41.57907 889.141599 78.8644669"></polygon>
                <polygon id="Fill-27" fill="#F38165" points="927.145237 31.0913011 959.598432 68.3736652 947.853398 78.437548 915.403265 41.1551839"></polygon>
                <polygon id="Stroke-28" stroke="#F48266" stroke-width="0.216" points="927.145237 31.0913011 959.598432 68.3736652 947.853398 78.437548 915.403265 41.1551839"></polygon>
                <polygon id="Fill-29" fill="#F38165" points="948.037192 68.1662208 983.081458 30.8808239 994.456047 41.3693005 959.412801 78.6546973"></polygon>
                <polygon id="Stroke-30" stroke="#F48266" stroke-width="0.216" points="948.037192 68.1662208 983.081458 30.8808239 994.456047 41.3693005 959.412801 78.6546973"></polygon>
                <polygon id="Fill-31" fill="#F38165" points="994.642289 31.0913011 1027.09242 68.3736652 1015.34841 78.437548 982.896235 41.1551839"></polygon>
                <polygon id="Stroke-32" stroke="#F48266" stroke-width="0.216" points="994.642289 31.0913011 1027.09242 68.3736652 1015.34841 78.437548 982.896235 41.1551839"></polygon>
                <polygon id="Fill-33" fill="#F38165" points="1015.61803 68.0763484 1051.96446 30.7909516 1063.15842 41.4583641 1026.81607 78.7437609"></polygon>
                <polygon id="Stroke-34" stroke="#F48266" stroke-width="0.216" points="1015.61803 68.0763484 1051.96446 30.7909516 1063.15842 41.4583641 1026.81607 78.7437609"></polygon>
                <polygon id="Fill-35" fill="#F38165" points="1063.15638 30.7896373 1099.50282 68.0720014 1088.30682 78.7394139 1051.96242 41.4570498"></polygon>
                <polygon id="Stroke-36" stroke="#F48266" stroke-width="0.216" points="1063.15638 30.7896373 1099.50282 68.0720014 1088.30682 78.7394139 1051.96242 41.4570498"></polygon>
                <polygon id="Fill-37" fill="#F38165" points="727.915321 36.0023344 728.036761 28.3181984 743.551554 28.5588016 743.429093 36.2429375 742.884141 69.0458375 742.762701 76.7289625 727.248929 76.4883594 727.370369 68.8042234"></polygon>
                <polygon id="Stroke-38" stroke="#F48266" stroke-width="0.216" points="727.915321 36.0023344 728.036761 28.3181984 743.551554 28.5588016 743.429093 36.2429375 742.884141 69.0458375 742.762701 76.7289625 727.248929 76.4883594 727.370369 68.8042234"></polygon>
                <polygon id="Fill-39" fill="#F38165" points="1085.87413 36.2432408 1085.75269 28.5591048 1101.26748 28.3185017 1101.3879 36.0026377 1101.92979 68.8045267 1102.05327 76.4886627 1086.53644 76.7292658 1086.415 69.0451298"></polygon>
                <polygon id="Stroke-40" stroke="#F48266" stroke-width="0.216" points="1085.87413 36.2432408 1085.75269 28.5591048 1101.26748 28.3185017 1101.3879 36.0026377 1101.92979 68.8045267 1102.05327 76.4886627 1086.53644 76.7292658 1086.415 69.0451298"></polygon>
                <path d="M856.263056,0.120219844 L801.025987,0.120219844 L790.905603,0.120219844 L790.905603,7.83367297 L790.905603,36.1217261 L790.905603,43.838212 L801.025987,43.838212 L856.263056,43.838212 L866.381399,43.838212 L866.381399,36.1217261 L866.381399,7.83367297 L866.381399,0.120219844 L856.263056,0.120219844 Z M811.144329,28.408273 L846.139611,28.408273 L846.139611,15.548137 L811.144329,15.548137 L811.144329,28.408273 Z" id="Fill-41" fill="#F38165"></path>
                <path d="M856.263158,43.8380098 L801.026089,43.8380098 L790.905705,43.8380098 L790.905705,36.1225348 L790.905705,7.83448172 L790.905705,0.120017656 L801.026089,0.120017656 L856.263158,0.120017656 L866.381501,0.120017656 L866.381501,7.83448172 L866.381501,36.1225348 L866.381501,43.8380098 L856.263158,43.8380098 Z M811.144432,28.4080708 L846.139713,28.4080708 L846.139713,15.5499567 L811.144432,15.5499567 L811.144432,28.4080708 Z" id="Stroke-42" stroke="#F48266" stroke-width="0.216"></path>
                <g id="Group-77" transform="translate(729.000000, 6.120302)">
                    <path d="M40.6794317,166.483446 C42.8143357,170.177412 41.5182897,174.88737 37.7913923,177.000229 C34.0614333,179.112077 29.3058632,177.830209 27.1760617,174.137254 L1.10716916,128.975643 C-1.02467334,125.281677 0.268311075,120.570709 3.99724955,118.45886 C7.72720853,116.347012 12.4827787,117.62787 14.6146212,121.320824 L40.6794317,166.483446 Z" id="Fill-43" fill="#F38165"></path>
                    <path d="M40.6794317,166.483446 C42.8143357,170.177412 41.5182897,174.88737 37.7913923,177.000229 C34.0614333,179.112077 29.3058632,177.830209 27.1760617,174.137254 L1.10716916,128.975643 C-1.02467334,125.281677 0.268311075,120.570709 3.99724955,118.45886 C7.72720853,116.347012 12.4827787,117.62787 14.6146212,121.320824 L40.6794317,166.483446 Z" id="Stroke-45" stroke="#F48266" stroke-width="0.216"></path>
                    <path d="M14.5228774,121.380267 C12.3216404,125.023686 7.55382412,126.211538 3.87387006,124.032967 C0.197998031,121.854397 -1.00007908,117.129275 1.19809647,113.485856 L27.262907,70.2703002 C29.4610825,66.6278923 34.2299193,65.4400408 37.9068118,67.6176002 C41.5867659,69.7961705 42.7858635,74.5212923 40.5846264,78.1647111 L14.5228774,121.380267 Z" id="Fill-47" fill="#F38165"></path>
                    <path d="M14.5228774,121.380267 C12.3216404,125.023686 7.55382412,126.211538 3.87387006,124.032967 C0.197998031,121.854397 -1.00007908,117.129275 1.19809647,113.485856 L27.262907,70.2703002 C29.4610825,66.6278923 34.2299193,65.4400408 37.9068118,67.6176002 C41.5867659,69.7961705 42.7858635,74.5212923 40.5846264,78.1647111 L14.5228774,121.380267 Z" id="Stroke-49" stroke="#F48266" stroke-width="0.216"></path>
                    <path d="M344.395347,174.077811 C342.298202,177.771776 337.569165,179.078919 333.839206,176.99942 C330.110268,174.919922 328.78973,170.236248 330.889936,166.542283 L360.094852,115.294828 C362.194038,111.600862 366.925116,110.29372 370.653034,112.373219 C374.379931,114.452717 375.699449,119.13639 373.602304,122.830356 L344.395347,174.077811 Z" id="Fill-51" fill="#F38165"></path>
                    <path d="M344.395347,174.077811 C342.298202,177.771776 337.569165,179.078919 333.839206,176.99942 C330.110268,174.919922 328.78973,170.236248 330.889936,166.542283 L360.094852,115.294828 C362.194038,111.600862 366.925116,110.29372 370.653034,112.373219 C374.379931,114.452717 375.699449,119.13639 373.602304,122.830356 L344.395347,174.077811 Z" id="Stroke-53" stroke="#F48266" stroke-width="0.216"></path>
                    <path d="M373.388099,114.900967 C375.703633,118.478675 374.657612,123.243223 371.043991,125.539062 C367.434452,127.835912 362.621733,126.796668 360.306199,123.219971 L331.101284,78.3828714 C328.78575,74.8061745 329.831771,70.0406152 333.445392,67.7447761 C337.054931,65.4479261 341.866629,66.4871698 344.183184,70.0648777 L373.388099,114.900967 Z" id="Fill-55" fill="#F38165"></path>
                    <path d="M373.388099,114.900967 C375.703633,118.478675 374.657612,123.243223 371.043991,125.539062 C367.434452,127.835912 362.621733,126.796668 360.306199,123.219971 L331.101284,78.3828714 C328.78575,74.8061745 329.831771,70.0406152 333.445392,67.7447761 C337.054931,65.4479261 341.866629,66.4871698 344.183184,70.0648777 L373.388099,114.900967 Z" id="Stroke-57" stroke="#F48266" stroke-width="0.216"></path>
                    <polygon id="Stroke-59" stroke="#F48266" stroke-width="2.835" points="93.9114061 4.726875 105.813598 4.726875 105.813598 0.23426875 93.9114061 0.23426875"></polygon>
                    <path d="M110.916651,12.5884305 C110.916651,18.6348477 105.969226,23.5358727 99.8645431,23.5358727 C93.75884,23.5358727 88.8114143,18.6348477 88.8114143,12.5884305 C88.8114143,6.54302422 93.75884,1.64098828 99.8645431,1.64098828 C105.969226,1.64098828 110.916651,6.54302422 110.916651,12.5884305" id="Fill-61" fill="#FFFFFF"></path>
                    <path d="M110.916651,12.5884305 C110.916651,18.6348477 105.969226,23.5358727 99.8645431,23.5358727 C93.75884,23.5358727 88.8114143,18.6348477 88.8114143,12.5884305 C88.8114143,6.54302422 93.75884,1.64098828 99.8645431,1.64098828 C105.969226,1.64098828 110.916651,6.54302422 110.916651,12.5884305 Z" id="Stroke-62" stroke="#F48266" stroke-width="2.835"></path>
                    <path d="M91.0436748,19.1112014 L91.0436748,125.579095" id="Stroke-63" stroke="#F48266" stroke-width="0.216"></path>
                    <path d="M92.2883892,125.5795 L89.8003892,125.5795 L89.8003892,16.9674073 C90.5218888,18.9336808 91.258696,19.9264214 92.2883892,20.596673 L92.2883892,125.5795 Z" id="Stroke-64" stroke="#F48266" stroke-width="2.835"></path>
                    <path d="M109.138721,19.1112014 L109.138721,125.579095" id="Stroke-65" stroke="#F48266" stroke-width="0.216"></path>
                    <path d="M110.382925,125.5795 L107.894925,125.5795 C107.894925,90.343273 107.761239,55.5033339 107.761239,20.2660964 C108.687861,19.5806808 109.633872,17.8732073 110.382925,15.7785448 L110.382925,125.5795 Z" id="Stroke-66" stroke="#F48266" stroke-width="2.835"></path>
                    <path d="M98.963536,160.700176 C97.8491406,160.700176 96.7255606,160.401949 95.8162874,159.907601 C93.6334195,158.717727 92.9445762,156.576562 92.7506796,155.714232 L95.1784696,155.179446 C95.2754179,155.598985 95.6856623,157.022385 97.0153851,157.745206 C98.1716213,158.376031 99.9452653,158.462971 100.724934,157.57739 C101.410716,156.80099 101.234168,155.483738 100.945364,154.790235 C100.463684,153.624624 100.301423,153.37189 99.7513687,152.542921 L99.4819544,152.133492 C98.6267682,150.851623 97.2215278,148.736742 98.5665582,145.061984 L100.907605,145.904095 C99.9891472,148.415263 100.804534,149.644563 101.461741,150.63326 L101.830145,151.194331 C102.413876,152.068792 102.678187,152.46609 103.249672,153.854107 C103.894634,155.417017 103.944639,157.677473 102.597567,159.204999 C101.662781,160.260418 100.317751,160.700176 98.963536,160.700176" id="Fill-67" fill="#F48266"></path>
                    <path d="M98.963536,160.700176 C97.8491406,160.700176 96.7255606,160.401949 95.8162874,159.907601 C93.6334195,158.717727 92.9445762,156.576562 92.7506796,155.714232 L95.1784696,155.179446 C95.2754179,155.598985 95.6856623,157.022385 97.0153851,157.745206 C98.1716213,158.376031 99.9452653,158.462971 100.724934,157.57739 C101.410716,156.80099 101.234168,155.483738 100.945364,154.790235 C100.463684,153.624624 100.301423,153.37189 99.7513687,152.542921 L99.4819544,152.133492 C98.6267682,150.851623 97.2215278,148.736742 98.5665582,145.061984 L100.907605,145.904095 C99.9891472,148.415263 100.804534,149.644563 101.461741,150.63326 L101.830145,151.194331 C102.413876,152.068792 102.678187,152.46609 103.249672,153.854107 C103.894634,155.417017 103.944639,157.677473 102.597567,159.204999 C101.662781,160.260418 100.317751,160.700176 98.963536,160.700176 Z" id="Stroke-68" stroke="#F48266" stroke-width="0.216"></path>
                    <path d="M110.916651,127.198516 C110.916651,130.839913 110.317613,134.532868 106.35906,137.739561 C103.019956,140.440786 102.290292,146.222338 99.8645431,146.263786 C95.588612,146.330508 96.8530221,140.075838 93.1434733,137.574778 C90.4013667,135.718697 88.8114143,130.741852 88.8114143,127.198516 C88.8114143,121.152099 93.75884,116.251074 99.8645431,116.251074 C105.969226,116.251074 110.916651,121.152099 110.916651,127.198516" id="Fill-69" fill="#FFFFFF"></path>
                    <path d="M110.916651,127.198516 C110.916651,130.839913 110.317613,134.532868 106.35906,137.739561 C103.019956,140.440786 102.290292,146.222338 99.8645431,146.263786 C95.588612,146.330508 96.8530221,140.075838 93.1434733,137.574778 C90.4013667,135.718697 88.8114143,130.741852 88.8114143,127.198516 C88.8114143,121.152099 93.75884,116.251074 99.8645431,116.251074 C105.969226,116.251074 110.916651,121.152099 110.916651,127.198516 Z" id="Stroke-70" stroke="#F48266" stroke-width="5.669"></path>
                    <path d="M99.6706464,137.421925 C99.0113979,137.421925 98.4766514,137.950645 98.4766514,138.603711 C98.4766514,139.257787 99.0113979,139.786508 99.6706464,139.786508 C100.329895,139.786508 100.864642,139.257787 100.864642,138.603711 C100.864642,137.950645 100.329895,137.421925 99.6706464,137.421925" id="Fill-71" fill="#F48266"></path>
                    <path d="M99.6706464,137.421925 C99.0113979,137.421925 98.4766514,137.950645 98.4766514,138.603711 C98.4766514,139.257787 99.0113979,139.786508 99.6706464,139.786508 C100.329895,139.786508 100.864642,139.257787 100.864642,138.603711 C100.864642,137.950645 100.329895,137.421925 99.6706464,137.421925 Z" id="Stroke-72" stroke="#F48266" stroke-width="0.216"></path>
                    <polygon id="Fill-73" fill="#FFFFFF" points="94.1584712 43.0547506 94.1584712 75.2409788 88.3732079 75.2409788 88.3732079 48.2641116"></polygon>
                    <polygon id="Fill-74" fill="#FFFFFF" points="111.745304 22.411508 111.745304 48.2642127 105.960041 53.6029736 105.960041 22.411508"></polygon>
                    <polygon id="Fill-75" fill="#FFFFFF" points="105.959531 75.2407766 111.744794 75.2407766 111.744794 59.5045234 105.959531 59.5045234"></polygon>
                    <polygon id="Fill-76" fill="#FFFFFF" points="88.3731058 37.8664172 94.1583692 37.8664172 94.1583692 22.4112047 88.3731058 22.4112047"></polygon>
                </g>
            </g>
        </g>
    </g>
</svg>