<svg xmlns="http://www.w3.org/2000/svg" width="2813" height="646" viewBox="0 0 2813 646">
    <g fill="none" fill-rule="evenodd">
        <path fill="#F48266" d="M403 622v12.498h24.085v10.758h29.267v-10.758h48.723v10.758h29.285v-10.758h48.72v10.758h29.282v-10.758h48.732v10.758h29.273v-10.758h48.704v10.758h29.273v-10.758h48.732v10.758h29.272v-10.758h48.733v10.758h29.272v-10.758h48.71v10.758h29.28v-10.758h48.72v10.758h29.287v-10.758h48.715v10.758h29.288v-10.758h48.707v10.758h29.292v-10.758h48.686v10.758h29.288v-10.758h48.73v10.758h29.281v-10.758h48.711v10.758h29.3v-10.758h48.716v10.758h29.256v-10.758h48.734v10.758h29.273v-10.758h20.568V622z"/>
        <path fill="#F48266" d="M1573 622v12.498h24.085v10.758h29.267v-10.758h48.723v10.758h29.285v-10.758h48.72v10.758h29.282v-10.758h48.732v10.758h29.273v-10.758h48.704v10.758h29.273v-10.758h48.732v10.758h29.272v-10.758h48.733v10.758h29.272v-10.758h48.71v10.758h29.28v-10.758h48.72v10.758h29.287v-10.758h48.715v10.758h29.288v-10.758h48.707v10.758h29.292v-10.758h48.686v10.758h29.288v-10.758h48.73v10.758h29.281v-10.758h48.711v10.758h29.3v-10.758h48.716v10.758h29.256v-10.758h48.734v10.758h29.273v-10.758h20.568V622zM607 187v30.428h82.458v26.599H607v36.2h14.586v16.16H607v6.72h14.586v13.662H607v6.723h14.586v41.567H607v6.726h14.586v41.571H607v6.723h14.586v15.228H607v6.717h14.586v37.494H607v6.725h14.586v37.492H607v6.719h14.586v14.252H607v77.304h607.483V244.027h-35.028v-26.599h35.028V187H607zm455.846 57.028h91.277v-26.6h-91.277v26.6zm-116.591 0h91.273v-26.6h-91.273v26.6zm-116.607 0h91.278v-26.6h-91.278v26.6zm-114.865 0h91.277v-26.6h-91.277v26.6zm471.59 52.36h23.914v-16.16h-23.915v16.16zm-30.668 0h23.91v-16.16h-23.91v16.16zm-30.668 0h23.911v-16.16h-23.911v16.16zm-30.669 0h23.912v-16.16h-23.912v16.16zm-30.714 0h23.955v-16.16h-23.955v16.16zm-46.177 0h23.02v-16.16h-23.02v16.16zm-30.664 0h23.91v-16.16h-23.91v16.16zm-30.671 0h23.91v-16.16h-23.91v16.16zm-30.672 0h23.913v-16.16H925.47v16.16zm-30.668 0h23.911v-16.16h-23.911v16.16zm-30.665 0h23.911v-16.16h-23.911v16.16zm-30.714 0h23.954v-16.16h-23.954v16.16zm-51.734 0h23.017v-16.16H781.69v16.16zm-30.662 0h23.912v-16.16h-23.912v16.16zm-30.67 0h23.91v-16.16h-23.91v16.16zm-30.668 0h23.91v-16.16h-23.91v16.16zm-30.676 0h23.915v-16.16h-23.915v16.16zm-30.673 0h23.918v-16.16H628.34v16.16zm558.032 20.382h23.915v-13.663h-23.915v13.663zm-30.667 0h23.91v-13.663h-23.91v13.663zm-30.668 0h23.911v-13.663h-23.911v13.663zm-30.669 0h23.912v-13.663h-23.912v13.663zm-30.714 0h23.955v-13.663h-23.955v13.663zm-46.177 0h23.02v-13.663h-23.02v13.663zm-30.664 0h23.91v-13.663h-23.91v13.663zm-30.671 0h23.91v-13.663h-23.91v13.663zm-30.672 0h23.913v-13.663H925.47v13.663zm-30.668 0h23.911v-13.663h-23.911v13.663zm-30.665 0h23.911v-13.663h-23.911v13.663zm-30.714 0h23.954v-13.663h-23.954v13.663zm-51.734 0h23.017v-13.663H781.69v13.663zm-30.662 0h23.912v-13.663h-23.912v13.663zm-30.67 0h23.91v-13.663h-23.91v13.663zm-30.668 0h23.91v-13.663h-23.91v13.663zm-30.676 0h23.915v-13.663h-23.915v13.663zm-30.673 0h23.918v-13.663H628.34v13.663zm558.032 48.288h23.915v-41.566h-23.915v41.566zm-30.667 0h23.91v-41.566h-23.91v41.566zm-30.668 0h23.911v-41.566h-23.911v41.566zm-30.669 0h23.912v-41.566h-23.912v41.566zm-30.714 0h23.955v-41.566h-23.955v41.566zm-46.177 0h23.02v-41.566h-23.02v41.566zm-30.664 0h23.91v-41.566h-23.91v41.566zm-30.671 0h23.91v-41.566h-23.91v41.566zm-30.672 0h23.913v-41.566H925.47v41.566zm-30.668 0h23.911v-41.566h-23.911v41.566zm-30.665 0h23.911v-41.566h-23.911v41.566zm-30.714 0h23.954v-41.566h-23.954v41.566zm-51.734 0h23.017v-41.566H781.69v41.566zm-30.662 0h23.912v-41.566h-23.912v41.566zm-30.67 0h23.91v-41.566h-23.91v41.566zm-30.668 0h23.91v-41.566h-23.91v41.566zm-30.676 0h23.915v-41.566h-23.915v41.566zm-30.673 0h23.918v-41.566H628.34v41.566zm558.032 48.298h23.915v-41.57h-23.915v41.57zm-30.667 0h23.91v-41.57h-23.91v41.57zm-30.668 0h23.911v-41.57h-23.911v41.57zm-30.669 0h23.912v-41.57h-23.912v41.57zm-30.714 0h23.955v-41.57h-23.955v41.57zm-46.177 0h23.02v-41.57h-23.02v41.57zm-30.664 0h23.91v-41.57h-23.91v41.57zm-30.671 0h23.91v-41.57h-23.91v41.57zm-30.672 0h23.913v-41.57H925.47v41.57zm-30.668 0h23.911v-41.57h-23.911v41.57zm-30.665 0h23.911v-41.57h-23.911v41.57zm-30.714 0h23.954v-41.57h-23.954v41.57zm-51.734 0h23.017v-41.57H781.69v41.57zm-30.662 0h23.912v-41.57h-23.912v41.57zm-30.67 0h23.91v-41.57h-23.91v41.57zm-30.668 0h23.91v-41.57h-23.91v41.57zm-30.676 0h23.915v-41.57h-23.915v41.57zm-30.673 0h23.918v-41.57H628.34v41.57zm558.032 21.951h23.915V420.08h-23.915v15.228zm-30.667 0h23.91V420.08h-23.91v15.228zm-30.668 0h23.911V420.08h-23.911v15.228zm-30.669 0h23.912V420.08h-23.912v15.228zm-30.714 0h23.955V420.08h-23.955v15.228zm-46.177 0h23.02V420.08h-23.02v15.228zm-30.664 0h23.91V420.08h-23.91v15.228zm-30.671 0h23.91V420.08h-23.91v15.228zm-30.672 0h23.913V420.08H925.47v15.228zm-30.668 0h23.911V420.08h-23.911v15.228zm-30.665 0h23.911V420.08h-23.911v15.228zm-30.714 0h23.954V420.08h-23.954v15.228zm-51.734 0h23.017V420.08H781.69v15.228zm-30.662 0h23.912V420.08h-23.912v15.228zm-30.67 0h23.91V420.08h-23.91v15.228zm-30.668 0h23.91V420.08h-23.91v15.228zm-30.676 0h23.915V420.08h-23.915v15.228zm-30.673 0h23.918V420.08H628.34v15.228zm558.032 44.21h23.915v-37.493h-23.915v37.494zm-30.667 0h23.91v-37.493h-23.91v37.494zm-30.668 0h23.911v-37.493h-23.911v37.494zm-30.669 0h23.912v-37.493h-23.912v37.494zm-30.714 0h23.955v-37.493h-23.955v37.494zm-46.177 0h23.02v-37.493h-23.02v37.494zm-30.664 0h23.91v-37.493h-23.91v37.494zm-30.671 0h23.91v-37.493h-23.91v37.494zm-30.672 0h23.913v-37.493H925.47v37.494zm-30.668 0h23.911v-37.493h-23.911v37.494zm-30.665 0h23.911v-37.493h-23.911v37.494zm-30.714 0h23.954v-37.493h-23.954v37.494zm-51.734 0h23.017v-37.493H781.69v37.494zm-30.662 0h23.912v-37.493h-23.912v37.494zm-30.67 0h23.91v-37.493h-23.91v37.494zm-30.668 0h23.91v-37.493h-23.91v37.494zm-30.676 0h23.915v-37.493h-23.915v37.494zm-30.673 0h23.918v-37.493H628.34v37.494zm558.032 44.218h23.915v-37.492h-23.915v37.492zm-30.667 0h23.91v-37.492h-23.91v37.492zm-30.668 0h23.911v-37.492h-23.911v37.492zm-30.669 0h23.912v-37.492h-23.912v37.492zm-30.714 0h23.955v-37.492h-23.955v37.492zm-46.177 0h23.02v-37.492h-23.02v37.492zm-30.664 0h23.91v-37.492h-23.91v37.492zm-30.671 0h23.91v-37.492h-23.91v37.492zm-30.672 0h23.913v-37.492H925.47v37.492zm-30.668 0h23.911v-37.492h-23.911v37.492zm-30.665 0h23.911v-37.492h-23.911v37.492zm-30.714 0h23.954v-37.492h-23.954v37.492zm-51.734 0h23.017v-37.492H781.69v37.492zm-30.662 0h23.912v-37.492h-23.912v37.492zm-30.67 0h23.91v-37.492h-23.91v37.492zm-30.668 0h23.91v-37.492h-23.91v37.492zm-30.676 0h23.915v-37.492h-23.915v37.492zm-30.673 0h23.918v-37.492H628.34v37.492zm558.032 20.971h23.915v-14.252h-23.915v14.252zm-30.667 0h23.91v-14.252h-23.91v14.252zm-30.668 0h23.911v-14.252h-23.911v14.252zm-30.669 0h23.912v-14.252h-23.912v14.252zm-30.714 0h23.955v-14.252h-23.955v14.252zm-46.177 0h23.02v-14.252h-23.02v14.252zm-30.664 0h23.91v-14.252h-23.91v14.252zm-30.671 0h23.91v-14.252h-23.91v14.252zm-30.672 0h23.913v-14.252H925.47v14.252zm-30.668 0h23.911v-14.252h-23.911v14.252zm-30.665 0h23.911v-14.252h-23.911v14.252zm-30.714 0h23.954v-14.252h-23.954v14.252zm-51.734 0h23.017v-14.252H781.69v14.252zm-30.662 0h23.912v-14.252h-23.912v14.252zm-30.67 0h23.91v-14.252h-23.91v14.252zm-30.668 0h23.91v-14.252h-23.91v14.252zm-30.676 0h23.915v-14.252h-23.915v14.252zm-30.673 0h23.918v-14.252H628.34v14.252z"/>
        <path fill="#F48266" d="M0 187v30.428h82.458v26.599H0v36.2h14.586v16.16H0v6.72h14.586v13.662H0v6.723h14.586v41.567H0v6.726h14.586v41.571H0v6.723h14.586v15.228H0v6.717h14.586v37.494H0v6.725h14.586v37.492H0v6.719h14.586v14.252H0v77.304h607.483V244.027h-35.028v-26.599h35.028V187H0zm455.846 57.028h91.277v-26.6h-91.277v26.6zm-116.591 0h91.273v-26.6h-91.273v26.6zm-116.607 0h91.278v-26.6h-91.278v26.6zm-114.865 0h91.277v-26.6h-91.277v26.6zm471.59 52.36h23.914v-16.16h-23.915v16.16zm-30.668 0h23.91v-16.16h-23.91v16.16zm-30.668 0h23.911v-16.16h-23.911v16.16zm-30.669 0h23.912v-16.16h-23.912v16.16zm-30.714 0h23.955v-16.16h-23.955v16.16zm-46.177 0h23.02v-16.16h-23.02v16.16zm-30.664 0h23.91v-16.16h-23.91v16.16zm-30.671 0h23.91v-16.16h-23.91v16.16zm-30.672 0h23.913v-16.16H318.47v16.16zm-30.668 0h23.911v-16.16h-23.911v16.16zm-30.665 0h23.911v-16.16h-23.911v16.16zm-30.714 0h23.954v-16.16h-23.954v16.16zm-51.734 0h23.017v-16.16H174.69v16.16zm-30.662 0h23.912v-16.16h-23.912v16.16zm-30.67 0h23.91v-16.16h-23.91v16.16zm-30.668 0h23.91v-16.16H82.69v16.16zm-30.676 0h23.915v-16.16H52.013v16.16zm-30.673 0h23.918v-16.16H21.34v16.16zm558.032 20.382h23.915v-13.663h-23.915v13.663zm-30.667 0h23.91v-13.663h-23.91v13.663zm-30.668 0h23.911v-13.663h-23.911v13.663zm-30.669 0h23.912v-13.663h-23.912v13.663zm-30.714 0h23.955v-13.663h-23.955v13.663zm-46.177 0h23.02v-13.663h-23.02v13.663zm-30.664 0h23.91v-13.663h-23.91v13.663zm-30.671 0h23.91v-13.663h-23.91v13.663zm-30.672 0h23.913v-13.663H318.47v13.663zm-30.668 0h23.911v-13.663h-23.911v13.663zm-30.665 0h23.911v-13.663h-23.911v13.663zm-30.714 0h23.954v-13.663h-23.954v13.663zm-51.734 0h23.017v-13.663H174.69v13.663zm-30.662 0h23.912v-13.663h-23.912v13.663zm-30.67 0h23.91v-13.663h-23.91v13.663zm-30.668 0h23.91v-13.663H82.69v13.663zm-30.676 0h23.915v-13.663H52.013v13.663zm-30.673 0h23.918v-13.663H21.34v13.663zm558.032 48.288h23.915v-41.566h-23.915v41.566zm-30.667 0h23.91v-41.566h-23.91v41.566zm-30.668 0h23.911v-41.566h-23.911v41.566zm-30.669 0h23.912v-41.566h-23.912v41.566zm-30.714 0h23.955v-41.566h-23.955v41.566zm-46.177 0h23.02v-41.566h-23.02v41.566zm-30.664 0h23.91v-41.566h-23.91v41.566zm-30.671 0h23.91v-41.566h-23.91v41.566zm-30.672 0h23.913v-41.566H318.47v41.566zm-30.668 0h23.911v-41.566h-23.911v41.566zm-30.665 0h23.911v-41.566h-23.911v41.566zm-30.714 0h23.954v-41.566h-23.954v41.566zm-51.734 0h23.017v-41.566H174.69v41.566zm-30.662 0h23.912v-41.566h-23.912v41.566zm-30.67 0h23.91v-41.566h-23.91v41.566zm-30.668 0h23.91v-41.566H82.69v41.566zm-30.676 0h23.915v-41.566H52.013v41.566zm-30.673 0h23.918v-41.566H21.34v41.566zm558.032 48.298h23.915v-41.57h-23.915v41.57zm-30.667 0h23.91v-41.57h-23.91v41.57zm-30.668 0h23.911v-41.57h-23.911v41.57zm-30.669 0h23.912v-41.57h-23.912v41.57zm-30.714 0h23.955v-41.57h-23.955v41.57zm-46.177 0h23.02v-41.57h-23.02v41.57zm-30.664 0h23.91v-41.57h-23.91v41.57zm-30.671 0h23.91v-41.57h-23.91v41.57zm-30.672 0h23.913v-41.57H318.47v41.57zm-30.668 0h23.911v-41.57h-23.911v41.57zm-30.665 0h23.911v-41.57h-23.911v41.57zm-30.714 0h23.954v-41.57h-23.954v41.57zm-51.734 0h23.017v-41.57H174.69v41.57zm-30.662 0h23.912v-41.57h-23.912v41.57zm-30.67 0h23.91v-41.57h-23.91v41.57zm-30.668 0h23.91v-41.57H82.69v41.57zm-30.676 0h23.915v-41.57H52.013v41.57zm-30.673 0h23.918v-41.57H21.34v41.57zm558.032 21.951h23.915V420.08h-23.915v15.228zm-30.667 0h23.91V420.08h-23.91v15.228zm-30.668 0h23.911V420.08h-23.911v15.228zm-30.669 0h23.912V420.08h-23.912v15.228zm-30.714 0h23.955V420.08h-23.955v15.228zm-46.177 0h23.02V420.08h-23.02v15.228zm-30.664 0h23.91V420.08h-23.91v15.228zm-30.671 0h23.91V420.08h-23.91v15.228zm-30.672 0h23.913V420.08H318.47v15.228zm-30.668 0h23.911V420.08h-23.911v15.228zm-30.665 0h23.911V420.08h-23.911v15.228zm-30.714 0h23.954V420.08h-23.954v15.228zm-51.734 0h23.017V420.08H174.69v15.228zm-30.662 0h23.912V420.08h-23.912v15.228zm-30.67 0h23.91V420.08h-23.91v15.228zm-30.668 0h23.91V420.08H82.69v15.228zm-30.676 0h23.915V420.08H52.013v15.228zm-30.673 0h23.918V420.08H21.34v15.228zm558.032 44.21h23.915v-37.493h-23.915v37.494zm-30.667 0h23.91v-37.493h-23.91v37.494zm-30.668 0h23.911v-37.493h-23.911v37.494zm-30.669 0h23.912v-37.493h-23.912v37.494zm-30.714 0h23.955v-37.493h-23.955v37.494zm-46.177 0h23.02v-37.493h-23.02v37.494zm-30.664 0h23.91v-37.493h-23.91v37.494zm-30.671 0h23.91v-37.493h-23.91v37.494zm-30.672 0h23.913v-37.493H318.47v37.494zm-30.668 0h23.911v-37.493h-23.911v37.494zm-30.665 0h23.911v-37.493h-23.911v37.494zm-30.714 0h23.954v-37.493h-23.954v37.494zm-51.734 0h23.017v-37.493H174.69v37.494zm-30.662 0h23.912v-37.493h-23.912v37.494zm-30.67 0h23.91v-37.493h-23.91v37.494zm-30.668 0h23.91v-37.493H82.69v37.494zm-30.676 0h23.915v-37.493H52.013v37.494zm-30.673 0h23.918v-37.493H21.34v37.494zm558.032 44.218h23.915v-37.492h-23.915v37.492zm-30.667 0h23.91v-37.492h-23.91v37.492zm-30.668 0h23.911v-37.492h-23.911v37.492zm-30.669 0h23.912v-37.492h-23.912v37.492zm-30.714 0h23.955v-37.492h-23.955v37.492zm-46.177 0h23.02v-37.492h-23.02v37.492zm-30.664 0h23.91v-37.492h-23.91v37.492zm-30.671 0h23.91v-37.492h-23.91v37.492zm-30.672 0h23.913v-37.492H318.47v37.492zm-30.668 0h23.911v-37.492h-23.911v37.492zm-30.665 0h23.911v-37.492h-23.911v37.492zm-30.714 0h23.954v-37.492h-23.954v37.492zm-51.734 0h23.017v-37.492H174.69v37.492zm-30.662 0h23.912v-37.492h-23.912v37.492zm-30.67 0h23.91v-37.492h-23.91v37.492zm-30.668 0h23.91v-37.492H82.69v37.492zm-30.676 0h23.915v-37.492H52.013v37.492zm-30.673 0h23.918v-37.492H21.34v37.492zm558.032 20.971h23.915v-14.252h-23.915v14.252zm-30.667 0h23.91v-14.252h-23.91v14.252zm-30.668 0h23.911v-14.252h-23.911v14.252zm-30.669 0h23.912v-14.252h-23.912v14.252zm-30.714 0h23.955v-14.252h-23.955v14.252zm-46.177 0h23.02v-14.252h-23.02v14.252zm-30.664 0h23.91v-14.252h-23.91v14.252zm-30.671 0h23.91v-14.252h-23.91v14.252zm-30.672 0h23.913v-14.252H318.47v14.252zm-30.668 0h23.911v-14.252h-23.911v14.252zm-30.665 0h23.911v-14.252h-23.911v14.252zm-30.714 0h23.954v-14.252h-23.954v14.252zm-51.734 0h23.017v-14.252H174.69v14.252zm-30.662 0h23.912v-14.252h-23.912v14.252zm-30.67 0h23.91v-14.252h-23.91v14.252zm-30.668 0h23.91v-14.252H82.69v14.252zm-30.676 0h23.915v-14.252H52.013v14.252zm-30.673 0h23.918v-14.252H21.34v14.252z"/>
        <path fill="#F38165" d="M708.534 187.86l19.47-115.716 15.335 2.532-19.47 115.717z"/>
        <path stroke="#F48266" stroke-width=".216" d="M708.534 187.86l19.47-115.716 15.335 2.532-19.47 115.717z"/>
        <path fill="#F38165" d="M755.14 189.127h15.576V73.41H755.14z"/>
        <path stroke="#F48266" stroke-width=".216" d="M755.14 189.127h15.576V73.41H755.14z"/>
        <path fill="#F38165" d="M1105.702 190.393l-19.466-115.717 15.33-2.532 19.471 115.717z"/>
        <path stroke="#F48266" stroke-width=".216" d="M1105.702 190.393l-19.466-115.717 15.33-2.532 19.471 115.717z"/>
        <path fill="#F38165" d="M1058.856 189.127h15.576V73.41h-15.576z"/>
        <path stroke="#F48266" stroke-width=".216" d="M1058.856 189.127h15.576V73.41h-15.576z"/>
        <path fill="#F38165" d="M735.673 81.125h27.254v-15.43h-27.254z"/>
        <path stroke="#F48266" stroke-width=".216" d="M735.673 81.125h27.254v-15.43h-27.254z"/>
        <path fill="#F38165" d="M735.673 81.125h358.228v-15.43H735.673z"/>
        <path stroke="#F48266" stroke-width=".216" d="M735.673 81.125h358.228v-15.43H735.673z"/>
        <path fill="#F38165" d="M735.673 43.838h357.956v-15.43H735.673z"/>
        <path stroke="#F48266" stroke-width=".216" d="M735.673 43.838h357.956v-15.43H735.673z"/>
        <path fill="#F38165" d="M730.287 67.865l38.938-37.286 10.77 11.092-38.94 37.285z"/>
        <path stroke="#F48266" stroke-width=".216" d="M730.287 67.865l38.938-37.286 10.77 11.092-38.94 37.285z"/>
        <path fill="#F38165" d="M780.481 31.091l32.452 37.283-11.746 10.064-32.448-37.283z"/>
        <path stroke="#F48266" stroke-width=".216" d="M780.481 31.091l32.452 37.283-11.746 10.064-32.448-37.283z"/>
        <path fill="#F38165" d="M801.947 67.624l42.834-37.285L855 41.912l-42.83 37.285z"/>
        <path stroke="#F48266" stroke-width=".216" d="M801.947 67.624l42.834-37.285L855 41.912l-42.83 37.285z"/>
        <path fill="#F38165" d="M855.669 30.999l33.746 37.283-11.56 10.247-33.745-37.282z"/>
        <path stroke="#F48266" stroke-width=".216" d="M855.669 30.999l33.746 37.283-11.56 10.247-33.745-37.282z"/>
        <path fill="#F38165" d="M878.132 67.956l37.636-37.284 11.011 10.907-37.637 37.285z"/>
        <path stroke="#F48266" stroke-width=".216" d="M878.132 67.956l37.636-37.284 11.011 10.907-37.637 37.285z"/>
        <path fill="#F38165" d="M927.145 31.091l32.453 37.283-11.745 10.064-32.45-37.283z"/>
        <path stroke="#F48266" stroke-width=".216" d="M927.145 31.091l32.453 37.283-11.745 10.064-32.45-37.283z"/>
        <path fill="#F38165" d="M948.037 68.166l35.044-37.285 11.375 10.488-35.043 37.286z"/>
        <path stroke="#F48266" stroke-width=".216" d="M948.037 68.166l35.044-37.285 11.375 10.488-35.043 37.286z"/>
        <path fill="#F38165" d="M994.642 31.091l32.45 37.283-11.744 10.064-32.452-37.283z"/>
        <path stroke="#F48266" stroke-width=".216" d="M994.642 31.091l32.45 37.283-11.744 10.064-32.452-37.283z"/>
        <path fill="#F38165" d="M1015.618 68.076l36.346-37.285 11.194 10.667-36.342 37.286z"/>
        <path stroke="#F48266" stroke-width=".216" d="M1015.618 68.076l36.346-37.285 11.194 10.667-36.342 37.286z"/>
        <path fill="#F38165" d="M1063.156 30.79l36.347 37.282-11.196 10.667-36.345-37.282z"/>
        <path stroke="#F48266" stroke-width=".216" d="M1063.156 30.79l36.347 37.282-11.196 10.667-36.345-37.282z"/>
        <path fill="#F38165" d="M727.915 36.002l.122-7.684 15.515.24-.123 7.685-.545 32.803-.121 7.683-15.514-.24.121-7.685z"/>
        <path stroke="#F48266" stroke-width=".216" d="M727.915 36.002l.122-7.684 15.515.24-.123 7.685-.545 32.803-.121 7.683-15.514-.24.121-7.685z"/>
        <path fill="#F38165" d="M1085.874 36.243l-.121-7.684 15.514-.24.12 7.684.543 32.802.123 7.684-15.517.24-.121-7.684z"/>
        <path stroke="#F48266" stroke-width=".216" d="M1085.874 36.243l-.121-7.684 15.514-.24.12 7.684.543 32.802.123 7.684-15.517.24-.121-7.684z"/>
        <path fill="#F38165" d="M856.263.12h-65.357v43.718h75.475V.12h-10.118zm-45.119 28.288h34.996v-12.86h-34.996v12.86z"/>
        <path stroke="#F48266" stroke-width=".216" d="M856.263 43.838h-65.357V.12h75.476v43.718h-10.119zm-45.119-15.43h34.996V15.55h-34.996v12.858z"/>
        <path fill="#F38165" d="M769.68 172.604c2.134 3.694.838 8.404-2.889 10.517-3.73 2.111-8.485.83-10.615-2.863l-26.069-45.162c-2.132-3.694-.839-8.405 2.89-10.517 3.73-2.112 8.486-.83 10.618 2.862l26.064 45.163z"/>
        <path stroke="#F48266" stroke-width=".216" d="M769.68 172.604c2.134 3.694.838 8.404-2.889 10.517-3.73 2.111-8.485.83-10.615-2.863l-26.069-45.162c-2.132-3.694-.839-8.405 2.89-10.517 3.73-2.112 8.486-.83 10.618 2.862l26.064 45.163z"/>
        <path fill="#F38165" d="M743.523 127.5c-2.201 3.644-6.97 4.832-10.65 2.653-3.675-2.178-4.873-6.903-2.675-10.547l26.065-43.215c2.198-3.643 6.967-4.83 10.644-2.653 3.68 2.178 4.879 6.904 2.678 10.547l-26.062 43.216z"/>
        <path stroke="#F48266" stroke-width=".216" d="M743.523 127.5c-2.201 3.644-6.97 4.832-10.65 2.653-3.675-2.178-4.873-6.903-2.675-10.547l26.065-43.215c2.198-3.643 6.967-4.83 10.644-2.653 3.68 2.178 4.879 6.904 2.678 10.547l-26.062 43.216z"/>
        <path fill="#F38165" d="M1073.395 180.198c-2.097 3.694-6.826 5.001-10.556 2.922-3.729-2.08-5.05-6.763-2.95-10.457l29.206-51.248c2.099-3.694 6.83-5.001 10.558-2.921 3.727 2.079 5.046 6.763 2.95 10.457l-29.208 51.247z"/>
        <path stroke="#F48266" stroke-width=".216" d="M1073.395 180.198c-2.097 3.694-6.826 5.001-10.556 2.922-3.729-2.08-5.05-6.763-2.95-10.457l29.206-51.248c2.099-3.694 6.83-5.001 10.558-2.921 3.727 2.079 5.046 6.763 2.95 10.457l-29.208 51.247z"/>
        <path fill="#F38165" d="M1102.388 121.021c2.316 3.578 1.27 8.343-2.344 10.638-3.61 2.297-8.422 1.258-10.738-2.319l-29.205-44.837c-2.315-3.577-1.27-8.342 2.344-10.638 3.61-2.297 8.422-1.258 10.738 2.32l29.205 44.836z"/>
        <path stroke="#F48266" stroke-width=".216" d="M1102.388 121.021c2.316 3.578 1.27 8.343-2.344 10.638-3.61 2.297-8.422 1.258-10.738-2.319l-29.205-44.837c-2.315-3.577-1.27-8.342 2.344-10.638 3.61-2.297 8.422-1.258 10.738 2.32l29.205 44.836z"/>
        <path stroke="#F48266" stroke-width="2.835" d="M822.911 10.847h11.903V6.355H822.91z"/>
        <path fill="#FFF" d="M839.917 18.709c0 6.046-4.948 10.947-11.052 10.947-6.106 0-11.054-4.9-11.054-10.947 0-6.046 4.948-10.948 11.054-10.948 6.104 0 11.052 4.902 11.052 10.948"/>
        <path stroke="#F48266" stroke-width="2.835" d="M839.917 18.709c0 6.046-4.948 10.947-11.052 10.947-6.106 0-11.054-4.9-11.054-10.947 0-6.046 4.948-10.948 11.054-10.948 6.104 0 11.052 4.902 11.052 10.948z"/>
        <path stroke="#F48266" stroke-width=".216" d="M820.044 25.232v106.467"/>
        <path stroke="#F48266" stroke-width="2.835" d="M821.288 131.7H818.8V23.088c.722 1.966 1.459 2.959 2.488 3.629V131.7z"/>
        <path stroke="#F48266" stroke-width=".216" d="M838.139 25.232v106.467"/>
        <path stroke="#F48266" stroke-width="2.835" d="M839.383 131.7h-2.488c0-35.236-.134-70.076-.134-105.314.927-.685 1.873-2.392 2.622-4.487v109.8z"/>
        <path fill="#F48266" d="M827.964 166.82a6.729 6.729 0 0 1-3.148-.792c-2.183-1.19-2.871-3.331-3.065-4.193l2.427-.535c.097.42.508 1.843 1.837 2.566 1.157.63 2.93.717 3.71-.168.686-.777.51-2.094.22-2.787-.481-1.166-.644-1.419-1.194-2.248l-.269-.41c-.855-1.281-2.26-3.396-.915-7.07l2.34.841c-.918 2.512-.102 3.74.555 4.73l.368.56c.584.875.848 1.272 1.42 2.66.645 1.563.695 3.824-.652 5.351-.935 1.056-2.28 1.495-3.634 1.495"/>
        <path stroke="#F48266" stroke-width=".216" d="M827.964 166.82a6.729 6.729 0 0 1-3.148-.792c-2.183-1.19-2.871-3.331-3.065-4.193l2.427-.535c.097.42.508 1.843 1.837 2.566 1.157.63 2.93.717 3.71-.168.686-.777.51-2.094.22-2.787-.481-1.166-.644-1.419-1.194-2.248l-.269-.41c-.855-1.281-2.26-3.396-.915-7.07l2.34.841c-.918 2.512-.102 3.74.555 4.73l.368.56c.584.875.848 1.272 1.42 2.66.645 1.563.695 3.824-.652 5.351-.935 1.056-2.28 1.495-3.634 1.495z"/>
        <path fill="#FFF" d="M839.917 133.319c0 3.641-.6 7.334-4.558 10.54-3.339 2.702-4.069 8.484-6.494 8.525-4.276.067-3.012-6.188-6.722-8.689-2.742-1.856-4.332-6.833-4.332-10.376 0-6.047 4.948-10.948 11.054-10.948 6.104 0 11.052 4.901 11.052 10.948"/>
        <path stroke="#F48266" stroke-width="5.669" d="M839.917 133.319c0 3.641-.6 7.334-4.558 10.54-3.339 2.702-4.069 8.484-6.494 8.525-4.276.067-3.012-6.188-6.722-8.689-2.742-1.856-4.332-6.833-4.332-10.376 0-6.047 4.948-10.948 11.054-10.948 6.104 0 11.052 4.901 11.052 10.948z"/>
        <path fill="#F48266" d="M828.67 143.542c-.659 0-1.193.529-1.193 1.182 0 .654.534 1.183 1.194 1.183.659 0 1.194-.529 1.194-1.183 0-.653-.535-1.182-1.194-1.182"/>
        <path stroke="#F48266" stroke-width=".216" d="M828.67 143.542c-.659 0-1.193.529-1.193 1.182 0 .654.534 1.183 1.194 1.183.659 0 1.194-.529 1.194-1.183 0-.653-.535-1.182-1.194-1.182z"/>
        <path fill="#FFF" d="M823.158 49.175v32.186h-5.785V54.384zM840.745 28.532v25.853l-5.785 5.338V28.532zM834.96 81.361h5.785V65.625h-5.785zM817.373 43.987h5.785V28.532h-5.785z"/>
    </g>
</svg>
