<?xml version="1.0" encoding="UTF-8"?>
<svg width="578px" height="366px" viewBox="0 0 578 366" version="1.1" xmlns="http://www.w3.org/2000/svg" xmlns:xlink="http://www.w3.org/1999/xlink">
    <!-- Generator: sketchtool 46.2 (44496) - http://www.bohemiancoding.com/sketch -->
    <title>3AD83CE5-DB67-4D27-9DD2-4FED2F8AF7C3</title>
    <desc>Created with sketchtool.</desc>
    <defs>
        <linearGradient x1="49.9929597%" y1="-0.0114873063%" x2="49.9929597%" y2="99.9941048%" id="linearGradient-1">
            <stop stop-color="#E6E6E6" offset="0%"></stop>
            <stop stop-color="#C3C3C1" offset="55.21%"></stop>
            <stop stop-color="#ABAAA7" offset="100%"></stop>
        </linearGradient>
        <linearGradient x1="49.9981308%" y1="-31.5933449%" x2="49.9981308%" y2="160.461599%" id="linearGradient-2">
            <stop stop-color="#E6E6E6" offset="0%"></stop>
            <stop stop-color="#C3C3C1" offset="55.21%"></stop>
            <stop stop-color="#ABAAA7" offset="100%"></stop>
        </linearGradient>
    </defs>
    <g id="Page-1" stroke="none" stroke-width="1" fill="none" fill-rule="evenodd">
        <g id="MainPage-vagon-5" transform="translate(-722.000000, -194.000000)">
            <g id="Color" transform="translate(722.000000, 194.000000)">
                <rect id="Rectangle-path" fill="#1F2D3D" fill-rule="nonzero" x="545.8" y="276.6" width="22.8" height="27.4"></rect>
                <rect id="Rectangle-path" fill="#000000" fill-rule="nonzero" x="420.4" y="281.1" width="139.1" height="16"></rect>
                <rect id="Rectangle-path" fill="#000000" fill-rule="nonzero" x="534.4" y="283.4" width="4.6" height="31.9"></rect>
                <rect id="Rectangle-path" fill="#65605E" fill-rule="nonzero" x="523" y="283.4" width="16" height="9.1"></rect>
                <g id="Group" fill-rule="nonzero">
                    <path d="M577.7,299.4 C577.7,301.9 575.7,304 573.1,304 L557.1,304 C554.6,304 552.5,302 552.5,299.4 L563.9,278.9 L563.9,274.3 L573,274.3 C575.5,274.3 577.6,276.3 577.6,278.9 L577.6,299.4 L577.7,299.4 Z" id="Shape" fill="#494C55"></path>
                    <rect id="Rectangle-path" fill="#65605E" x="550.4" y="276.6" width="22.8" height="27.4"></rect>
                    <rect id="Rectangle-path" fill="#837F7D" x="550.4" y="278.8" width="22.8" height="2.3"></rect>
                    <rect id="Rectangle-path" fill="#837F7D" x="570.9" y="281.1" width="2.3" height="18.2"></rect>
                    <rect id="Rectangle-path" fill="#989495" x="550.3" y="281.1" width="2.3" height="18.2"></rect>
                    <rect id="Rectangle-path" fill="#1F2D3D" x="545.8" y="288" width="22.8" height="4.6"></rect>
                    <rect id="Rectangle-path" fill="#000000" x="545.8" y="288" width="22.8" height="2.3"></rect>
                    <rect id="Rectangle-path" fill="#837F7D" x="550.4" y="285.7" width="16" height="2.3"></rect>
                    <rect id="Rectangle-path" fill="#1F2D3D" x="566.3" y="283.4" width="2.3" height="16"></rect>
                    <rect id="Rectangle-path" fill="#000000" x="470.5" y="283.4" width="38.8" height="13.7"></rect>
                    <rect id="Rectangle-path" fill="#000000" x="0.2" y="274.3" width="520.5" height="16"></rect>
                    <rect id="Rectangle-path" fill="#000000" x="53.3" y="288" width="182.4" height="13.7"></rect>
                    <polygon id="Shape" fill="#000000" points="411.3 301.6 367.9 345 304.1 345 263.1 303.9 263.1 283.4 411.3 283.4"></polygon>
                    <path d="M292.7,322.2 C292.7,346.1 273.3,365.5 249.4,365.5 C225.5,365.5 206.1,346.1 206.1,322.2 C206.1,298.3 225.5,278.9 249.4,278.9 C273.3,278.8 292.7,298.2 292.7,322.2" id="Shape" fill="#616264"></path>
                    <path d="M288.1,322.2 C288.1,343.6 270.7,361 249.3,361 C227.9,361 210.5,343.6 210.5,322.2 C210.5,300.8 227.9,283.4 249.3,283.4 C270.8,283.4 288.1,300.7 288.1,322.2" id="Shape" fill="#717374"></path>
                    <path d="M283.6,322.2 C283.6,341.1 268.3,356.4 249.4,356.4 C230.5,356.4 215.2,341.1 215.2,322.2 C215.2,303.3 230.5,288 249.4,288 C268.3,288 283.6,303.3 283.6,322.2" id="Shape" fill="#000000"></path>
                    <path d="M272.2,308.5 L247.1,308.5 C240.3,308.5 242.5,324.5 242.5,324.5 C242.5,324.5 228.8,324.5 228.8,310.8 C228.8,301.7 237.9,299.4 242.5,299.4 L272.1,299.4 L272.1,308.5 L272.2,308.5 Z" id="Shape" fill="#535967"></path>
                    <rect id="Rectangle-path" fill="#535967" x="331.5" y="303.9" width="4.6" height="22.8"></rect>
                    <rect id="Rectangle-path" fill="#535967" x="331.5" y="333.6" width="9.1" height="6.8"></rect>
                    <rect id="Rectangle-path" fill="#717374" x="304.1" y="324.4" width="22.8" height="2.3"></rect>
                    <rect id="Rectangle-path" fill="#1B243A" x="304.1" y="322.2" width="22.8" height="2.3"></rect>
                    <rect id="Rectangle-path" fill="#717374" x="304.1" y="317.6" width="22.8" height="2.3"></rect>
                    <rect id="Rectangle-path" fill="#909393" x="313.2" y="324.4" width="9.1" height="2.3"></rect>
                    <rect id="Rectangle-path" fill="#535967" x="313.2" y="322.2" width="9.1" height="2.3"></rect>
                    <rect id="Rectangle-path" fill="#717374" x="304.1" y="331.3" width="22.8" height="2.3"></rect>
                    <rect id="Rectangle-path" fill="#1B243A" x="304.1" y="329" width="22.8" height="2.3"></rect>
                    <rect id="Rectangle-path" fill="#909393" x="313.2" y="331.3" width="9.1" height="2.3"></rect>
                    <rect id="Rectangle-path" fill="#535967" x="313.2" y="329" width="9.1" height="2.3"></rect>
                    <rect id="Rectangle-path" fill="#909393" x="313.2" y="317.6" width="9.1" height="2.3"></rect>
                    <rect id="Rectangle-path" fill="#1B243A" x="304.1" y="315.3" width="22.8" height="2.3"></rect>
                    <rect id="Rectangle-path" fill="#535967" x="313.2" y="315.3" width="9.1" height="2.3"></rect>
                    <rect id="Rectangle-path" fill="#717374" x="304.1" y="310.8" width="22.8" height="2.3"></rect>
                    <rect id="Rectangle-path" fill="#909393" x="313.2" y="310.8" width="9.1" height="2.3"></rect>
                    <rect id="Rectangle-path" fill="#1B243A" x="304.1" y="308.5" width="22.8" height="2.3"></rect>
                    <rect id="Rectangle-path" fill="#535967" x="313.2" y="308.5" width="9.1" height="2.3"></rect>
                    <path d="M269.9,294.8 L336,294.8 L336,303.9 L310.9,303.9 C306.3,303.9 301.8,306.2 301.8,313 L301.8,338.1 C303.5,340.4 306.4,342.7 310.9,342.7 L336,342.7 L336,349.5 L306.4,349.5 C299.6,349.5 295,342.7 295,342.7 C295,342.7 276.7,324.4 265.3,313 C253.9,301.6 256.2,294.8 269.9,294.8 M274.5,310.8 C279.1,315.4 285.9,322.2 288.2,324.5 C290.5,326.8 295,329.1 295,319.9 C295,319.2 295,311.6 295,310.8 C294.9,304.4 294.3,304 288.2,304 L274.5,304 C272.2,303.9 269.9,306.2 274.5,310.8" id="Shape" fill="#535967"></path>
                    <path d="M235.7,331.3 C235.7,333.8 237.7,335.9 240.3,335.9 L258.5,335.9 C261,335.9 263.1,333.9 263.1,331.3 L263.1,313 C263.1,310.5 261.1,308.4 258.5,308.4 L240.3,308.4 C237.8,308.4 235.7,310.4 235.7,313 L235.7,331.3 L235.7,331.3 Z" id="Shape" fill="#717374"></path>
                    <path d="M260.8,322.2 C260.8,328.5 255.7,333.6 249.4,333.6 C243.1,333.6 238,328.5 238,322.2 C238,315.9 243.1,310.8 249.4,310.8 C255.7,310.8 260.8,315.9 260.8,322.2" id="Shape" fill="#000000"></path>
                    <path d="M258.5,322.2 C258.5,327.2 254.4,331.3 249.4,331.3 C244.4,331.3 240.3,327.2 240.3,322.2 C240.3,317.2 244.4,313.1 249.4,313.1 C254.4,313 258.5,317.1 258.5,322.2" id="Shape" fill="#535967"></path>
                    <path d="M253.9,322.2 C253.9,324.7 251.9,326.8 249.3,326.8 C246.8,326.8 244.7,324.8 244.7,322.2 C244.7,319.7 246.7,317.6 249.3,317.6 C251.9,317.6 253.9,319.6 253.9,322.2" id="Shape" fill="#717374"></path>
                    <path d="M379.3,322.2 C379.3,346.1 398.7,365.5 422.6,365.5 C446.5,365.5 465.9,346.1 465.9,322.2 C465.9,298.3 446.5,278.9 422.6,278.9 C398.7,278.8 379.3,298.2 379.3,322.2" id="Shape" fill="#616264"></path>
                    <path d="M383.9,322.2 C383.9,343.6 401.3,361 422.7,361 C444.1,361 461.5,343.6 461.5,322.2 C461.5,300.8 444.1,283.4 422.7,283.4 C401.3,283.4 383.9,300.7 383.9,322.2" id="Shape" fill="#717374"></path>
                    <path d="M388.5,322.2 C388.5,341.1 403.8,356.4 422.7,356.4 C441.6,356.4 456.9,341.1 456.9,322.2 C456.9,303.3 441.6,288 422.7,288 C403.8,288 388.5,303.3 388.5,322.2" id="Shape" fill="#000000"></path>
                    <path d="M399.9,308.5 L425,308.5 C431.8,308.5 429.6,324.5 429.6,324.5 C429.6,324.5 443.3,324.5 443.3,310.8 C443.3,301.7 434.2,299.4 429.6,299.4 L400,299.4 L400,308.5 L399.9,308.5 Z" id="Shape" fill="#535967"></path>
                    <rect id="Rectangle-path" fill="#535967" x="336" y="303.9" width="4.6" height="22.8"></rect>
                    <rect id="Rectangle-path" fill="#717374" x="345.1" y="324.4" width="22.8" height="2.3"></rect>
                    <rect id="Rectangle-path" fill="#1B243A" x="345.1" y="322.2" width="22.8" height="2.3"></rect>
                    <rect id="Rectangle-path" fill="#717374" x="345.1" y="317.6" width="22.8" height="2.3"></rect>
                    <rect id="Rectangle-path" fill="#909393" x="349.7" y="324.4" width="9.1" height="2.3"></rect>
                    <rect id="Rectangle-path" fill="#535967" x="349.7" y="322.2" width="9.1" height="2.3"></rect>
                    <rect id="Rectangle-path" fill="#717374" x="345.1" y="331.3" width="22.8" height="2.3"></rect>
                    <rect id="Rectangle-path" fill="#1B243A" x="345.1" y="329" width="22.8" height="2.3"></rect>
                    <rect id="Rectangle-path" fill="#909393" x="349.7" y="331.3" width="9.1" height="2.3"></rect>
                    <rect id="Rectangle-path" fill="#535967" x="349.7" y="329" width="9.1" height="2.3"></rect>
                    <rect id="Rectangle-path" fill="#909393" x="349.7" y="317.6" width="9.1" height="2.3"></rect>
                    <rect id="Rectangle-path" fill="#1B243A" x="345.1" y="315.3" width="22.8" height="2.3"></rect>
                    <rect id="Rectangle-path" fill="#535967" x="349.7" y="315.3" width="9.1" height="2.3"></rect>
                    <rect id="Rectangle-path" fill="#717374" x="345.1" y="310.8" width="22.8" height="2.3"></rect>
                    <rect id="Rectangle-path" fill="#909393" x="349.7" y="310.8" width="9.1" height="2.3"></rect>
                    <rect id="Rectangle-path" fill="#1B243A" x="345.1" y="308.5" width="22.8" height="2.3"></rect>
                    <rect id="Rectangle-path" fill="#535967" x="349.7" y="308.5" width="9.1" height="2.3"></rect>
                    <path d="M406.7,313 C395.3,324.4 377.1,342.6 377.1,342.6 C377.1,342.6 372.5,349.4 365.7,349.4 L336,349.4 L336,342.6 L361.1,342.6 C365.7,342.6 368.5,340.3 370.2,338 L370.2,313 C370.2,306.2 365.6,303.9 361.1,303.9 L336,303.9 L336,294.8 L402.1,294.8 C415.8,294.8 418.1,301.6 406.7,313 M397.6,303.9 L383.9,303.9 C377.8,303.9 377.1,304.3 377.1,310.7 C377.1,311.5 377.1,319.1 377.1,319.8 C377.1,328.9 381.7,326.6 383.9,324.4 C386.2,322.1 393,315.3 397.6,310.7 C402.1,306.2 399.9,303.9 397.6,303.9" id="Shape" fill="#535967"></path>
                    <path d="M304.1,295.9 C304.1,297.8 305.6,299.3 307.5,299.3 L366.8,299.3 C368.7,299.3 370.2,297.8 370.2,295.9 C370.2,294 368.7,292.5 366.8,292.5 L307.5,292.5 C305.6,292.5 304.1,294 304.1,295.9" id="Shape" fill="#535967"></path>
                    <path d="M310.9,298.2 C310.9,298.8 311.4,299.3 312,299.3 L360,299.3 C360.6,299.3 361.1,298.8 361.1,298.2 C361.1,297.6 360.6,297.1 360,297.1 L312.1,297.1 C311.4,297.1 310.9,297.6 310.9,298.2" id="Shape" fill="#000000"></path>
                    <rect id="Rectangle-path" fill="#535967" x="345.1" y="285.7" width="25.1" height="2.3"></rect>
                    <rect id="Rectangle-path" fill="#535967" x="301.8" y="285.7" width="25.1" height="2.3"></rect>
                    <path d="M409,331.3 C409,333.8 411,335.9 413.6,335.9 L431.8,335.9 C434.3,335.9 436.4,333.9 436.4,331.3 L436.4,313 C436.4,310.5 434.4,308.4 431.8,308.4 L413.6,308.4 C411.1,308.4 409,310.4 409,313 L409,331.3 Z" id="Shape" fill="#717374"></path>
                    <path d="M411.3,322.2 C411.3,328.5 416.4,333.6 422.7,333.6 C429,333.6 434.1,328.5 434.1,322.2 C434.1,315.9 429,310.8 422.7,310.8 C416.4,310.8 411.3,315.9 411.3,322.2" id="Shape" fill="#000000"></path>
                    <path d="M413.5,322.2 C413.5,327.2 417.6,331.3 422.6,331.3 C427.6,331.3 431.7,327.2 431.7,322.2 C431.7,317.2 427.6,313.1 422.6,313.1 C417.6,313 413.5,317.1 413.5,322.2" id="Shape" fill="#535967"></path>
                    <path d="M418.1,322.2 C418.1,324.7 420.1,326.8 422.7,326.8 C425.2,326.8 427.3,324.8 427.3,322.2 C427.3,319.7 425.3,317.6 422.7,317.6 C420.1,317.6 418.1,319.6 418.1,322.2" id="Shape" fill="#717374"></path>
                    <rect id="Rectangle-path" fill="#000000" x="103.4" y="294.8" width="6.8" height="18.2"></rect>
                    <rect id="Rectangle-path" fill="#000000" x="12.2" y="288" width="2.3" height="25.1"></rect>
                    <rect id="Rectangle-path" fill="#000000" x="80.6" y="288" width="2.3" height="25.1"></rect>
                    <rect id="Rectangle-path" fill="#000000" x="7.7" y="308.5" width="109.4" height="2.3"></rect>
                    <rect id="Rectangle-path" fill="#000000" x="7.7" y="303.9" width="20.5" height="4.6"></rect>
                    <rect id="Rectangle-path" fill="#000000" x="10" y="288" width="6.8" height="11.4"></rect>
                    <rect id="Rectangle-path" fill="#ACABA8" x="0.2" y="0.7" width="538.8" height="273.6"></rect>
                </g>
                <rect id="Rectangle-path" fill="url(#linearGradient-1)" fill-rule="nonzero" x="0.2" y="0.7" width="536.5" height="273.6"></rect>
                <g id="Group" fill-rule="nonzero">
                    <rect id="Rectangle-path" fill="#DADAD8" x="0.2" y="0.7" width="538.8" height="4.6"></rect>
                    <path d="M422.7,274.3 L422.7,173.9 C422.7,173.9 251.3,202.3 0.2,210.4 L0.2,274.2 L422.7,274.2 L422.7,274.3 Z" id="Shape" fill="#B0AFAA"></path>
                    <rect id="Rectangle-path" fill="#FFFFFF" x="0.2" y="128.3" width="536.5" height="4.6"></rect>
                    <rect id="Rectangle-path" fill="#FFFFFF" x="0.2" y="98.7" width="536.5" height="4.6"></rect>
                    <rect id="Rectangle-path" fill="#FFFFFF" x="0.2" y="71.3" width="536.5" height="4.6"></rect>
                    <rect id="Rectangle-path" fill="#FFFFFF" x="0.2" y="187.6" width="536.5" height="4.6"></rect>
                    <rect id="Rectangle-path" fill="#6F6F72" x="0.2" y="192.2" width="536.5" height="2.3"></rect>
                    <rect id="Rectangle-path" fill="#FFFFFF" x="0.2" y="219.6" width="536.5" height="4.6"></rect>
                    <rect id="Rectangle-path" fill="#6F6F72" x="0.2" y="224.1" width="536.5" height="2.3"></rect>
                    <rect id="Rectangle-path" fill="#FFFFFF" x="0.2" y="253.8" width="536.5" height="4.6"></rect>
                    <rect id="Rectangle-path" fill="#6F6F72" x="0.2" y="258.3" width="536.5" height="2.3"></rect>
                    <rect id="Rectangle-path" fill="#FFFFFF" x="0.2" y="158" width="536.5" height="4.6"></rect>
                    <rect id="Rectangle-path" fill="#6F6F72" x="0.2" y="162.6" width="536.5" height="2.3"></rect>
                    <rect id="Rectangle-path" fill="#6F6F72" x="0.2" y="132.9" width="536.5" height="2.3"></rect>
                    <rect id="Rectangle-path" fill="#6F6F72" x="0.2" y="103.3" width="536.5" height="2.3"></rect>
                    <rect id="Rectangle-path" fill="#6F6F72" x="0.2" y="75.9" width="536.5" height="2.3"></rect>
                    <rect id="Rectangle-path" fill="#FFFFFF" x="0.2" y="44" width="536.5" height="4.6"></rect>
                    <rect id="Rectangle-path" fill="#6F6F72" x="0.2" y="48.5" width="536.5" height="2.3"></rect>
                    <rect id="Rectangle-path" fill="#C9C9C7" x="0.2" y="50.8" width="536.5" height="2.3"></rect>
                    <path d="M440.9,87.3 L495.6,87.3 C500.6,87.3 504.7,91.4 504.7,96.4 L504.7,260.6 C504.7,265.6 500.6,269.7 495.6,269.7 L440.9,269.7 C435.9,269.7 431.8,265.6 431.8,260.6 L431.8,96.4 C431.8,91.4 435.9,87.3 440.9,87.3 L440.9,87.3 Z M434.1,258.9 C434.1,263.6 436.1,267.4 440.9,267.4 L495.6,267.4 C500.4,267.4 502.4,263.6 502.4,258.9 L502.4,98.1 C502.4,93.4 500.4,89.6 495.6,89.6 L440.9,89.6 C436.1,89.6 434.1,93.4 434.1,98.1 L434.1,258.9 L434.1,258.9 Z" id="Shape" fill="#6F6F72"></path>
                    <rect id="Rectangle-path" fill="#FFFFFF" x="509.3" y="126.1" width="2.3" height="136.8"></rect>
                    <rect id="Rectangle-path" fill="#6F6F72" x="511.6" y="126.1" width="2.3" height="136.8"></rect>
                    <rect id="Rectangle-path" fill="#FFFFFF" x="507" y="121.5" width="9.1" height="4.6"></rect>
                    <rect id="Rectangle-path" fill="#FFFFFF" x="507" y="258.3" width="9.1" height="4.6"></rect>
                    <rect id="Rectangle-path" fill="#FFFFFF" x="422.7" y="126.1" width="2.3" height="136.8"></rect>
                    <rect id="Rectangle-path" fill="#6F6F72" x="424.9" y="126.1" width="2.3" height="136.8"></rect>
                    <rect id="Rectangle-path" fill="#FFFFFF" x="420.4" y="121.5" width="9.1" height="4.6"></rect>
                    <rect id="Rectangle-path" fill="#FFFFFF" x="420.4" y="258.3" width="9.1" height="4.6"></rect>
                    <path d="M338.3,196.6 C338.3,201.7 342.7,205.9 348.1,205.9 L397,205.9 C402.4,205.9 406.8,201.7 406.8,196.6 L406.8,96.6 C406.8,91.5 402.4,87.3 397,87.3 L348.1,87.3 C342.7,87.3 338.3,91.5 338.3,96.6 L338.3,196.6 Z" id="Shape" fill="#B1B2AF"></path>
                </g>
                <rect id="Rectangle-path" fill="url(#linearGradient-2)" fill-rule="nonzero" x="340.6" y="87.3" width="63.8" height="116.3"></rect>
                <rect id="Rectangle-path" fill="#BABDBF" fill-rule="nonzero" x="395.3" y="174" width="2.3" height="18.2"></rect>
                <rect id="Rectangle-path" fill="#BABDBF" fill-rule="nonzero" x="347.4" y="174" width="2.3" height="18.2"></rect>
                <rect id="Rectangle-path" fill="#FFFFFF" fill-rule="nonzero" x="347.4" y="96.4" width="50.2" height="2.3"></rect>
                <rect id="Rectangle-path" fill="#6F6F72" fill-rule="nonzero" x="347.4" y="98.7" width="50.2" height="2.3"></rect>
                <rect id="Rectangle-path" fill="#FFFFFF" fill-rule="nonzero" x="347.4" y="105.5" width="50.2" height="2.3"></rect>
                <rect id="Rectangle-path" fill="#6F6F72" fill-rule="nonzero" x="347.4" y="107.8" width="50.2" height="2.3"></rect>
                <rect id="Rectangle-path" fill="#FFFFFF" fill-rule="nonzero" x="347.4" y="114.7" width="50.2" height="2.3"></rect>
                <rect id="Rectangle-path" fill="#6F6F72" fill-rule="nonzero" x="347.4" y="116.9" width="50.2" height="2.3"></rect>
                <rect id="Rectangle-path" fill="#FFFFFF" fill-rule="nonzero" x="347.4" y="123.8" width="50.2" height="2.3"></rect>
                <rect id="Rectangle-path" fill="#6F6F72" fill-rule="nonzero" x="347.4" y="126.1" width="50.2" height="2.3"></rect>
                <rect id="Rectangle-path" fill="#FFFFFF" fill-rule="nonzero" x="347.4" y="132.9" width="50.2" height="2.3"></rect>
                <rect id="Rectangle-path" fill="#6F6F72" fill-rule="nonzero" x="347.4" y="135.2" width="50.2" height="2.3"></rect>
                <rect id="Rectangle-path" fill="#FFFFFF" fill-rule="nonzero" x="347.4" y="142" width="50.2" height="2.3"></rect>
                <rect id="Rectangle-path" fill="#6F6F72" fill-rule="nonzero" x="347.4" y="144.3" width="50.2" height="2.3"></rect>
                <rect id="Rectangle-path" fill="#FFFFFF" fill-rule="nonzero" x="347.4" y="151.1" width="50.2" height="2.3"></rect>
                <rect id="Rectangle-path" fill="#6F6F72" fill-rule="nonzero" x="347.4" y="153.4" width="50.2" height="2.3"></rect>
                <rect id="Rectangle-path" fill="#FFFFFF" fill-rule="nonzero" x="347.4" y="160.3" width="50.2" height="2.3"></rect>
                <rect id="Rectangle-path" fill="#6F6F72" fill-rule="nonzero" x="347.4" y="162.6" width="50.2" height="2.3"></rect>
                <rect id="Rectangle-path" fill="#FFFFFF" fill-rule="nonzero" x="347.4" y="169.4" width="50.2" height="2.3"></rect>
                <rect id="Rectangle-path" fill="#6F6F72" fill-rule="nonzero" x="347.4" y="171.7" width="50.2" height="2.3"></rect>
                <rect id="Rectangle-path" fill="#F3F3F3" fill-rule="nonzero" x="0.2" y="21.2" width="534.2" height="13.7"></rect>
                <rect id="Rectangle-path" fill="#C9C9C7" fill-rule="nonzero" x="80.6" y="16.6" width="82.1" height="9.1"></rect>
                <rect id="Rectangle-path" fill="#FFFFFF" fill-rule="nonzero" x="80.6" y="12.1" width="82.1" height="4.6"></rect>
                <rect id="Rectangle-path" fill="#5680A2" fill-rule="nonzero" x="146.8" y="237.8" width="4.6" height="4.6"></rect>
                <rect id="Rectangle-path" fill="#5680A2" fill-rule="nonzero" x="153.6" y="237.8" width="4.6" height="4.6"></rect>
                <rect id="Rectangle-path" fill="#5680A2" fill-rule="nonzero" x="171.9" y="237.8" width="4.6" height="4.6"></rect>
                <rect id="Rectangle-path" fill="#5680A2" fill-rule="nonzero" x="162.7" y="237.8" width="2.3" height="4.6"></rect>
                <rect id="Rectangle-path" fill="#5680A2" fill-rule="nonzero" x="167.3" y="237.8" width="2.3" height="4.6"></rect>
                <rect id="Rectangle-path" fill="#5680A2" fill-rule="nonzero" x="178.7" y="237.8" width="2.3" height="4.6"></rect>
                <rect id="Rectangle-path" fill="#5680A2" fill-rule="nonzero" x="185.5" y="237.8" width="4.6" height="4.6"></rect>
                <rect id="Rectangle-path" fill="#5680A2" fill-rule="nonzero" x="192.4" y="237.8" width="2.3" height="4.6"></rect>
                <rect id="Rectangle-path" fill="#5680A2" fill-rule="nonzero" x="199.2" y="237.8" width="4.6" height="4.6"></rect>
                <rect id="Rectangle-path" fill="#5680A2" fill-rule="nonzero" x="206.1" y="237.8" width="2.3" height="4.6"></rect>
                <rect id="Rectangle-path" fill="#5680A2" fill-rule="nonzero" x="203.8" y="249.2" width="4.6" height="2.3"></rect>
                <rect id="Rectangle-path" fill="#5680A2" fill-rule="nonzero" x="196.9" y="249.2" width="4.6" height="2.3"></rect>
                <rect id="Rectangle-path" fill="#5680A2" fill-rule="nonzero" x="178.7" y="249.2" width="4.6" height="2.3"></rect>
                <rect id="Rectangle-path" fill="#5680A2" fill-rule="nonzero" x="190.1" y="249.2" width="2.3" height="2.3"></rect>
                <rect id="Rectangle-path" fill="#5680A2" fill-rule="nonzero" x="185.5" y="249.2" width="2.3" height="2.3"></rect>
                <rect id="Rectangle-path" fill="#5680A2" fill-rule="nonzero" x="174.1" y="249.2" width="2.3" height="2.3"></rect>
                <rect id="Rectangle-path" fill="#5680A2" fill-rule="nonzero" x="165" y="249.2" width="4.6" height="2.3"></rect>
                <rect id="Rectangle-path" fill="#5680A2" fill-rule="nonzero" x="160.5" y="249.2" width="2.3" height="2.3"></rect>
                <rect id="Rectangle-path" fill="#5680A2" fill-rule="nonzero" x="146.8" y="231" width="20.5" height="2.3"></rect>
                <rect id="Rectangle-path" fill="#5680A2" fill-rule="nonzero" x="149.1" y="231" width="2.3" height="2.3"></rect>
                <rect id="Rectangle-path" fill="#5680A2" fill-rule="nonzero" x="160.5" y="231" width="2.3" height="2.3"></rect>
                <rect id="Rectangle-path" fill="#5680A2" fill-rule="nonzero" x="171.9" y="231" width="9.1" height="2.3"></rect>
                <rect id="Rectangle-path" fill="#5680A2" fill-rule="nonzero" x="183.3" y="231" width="4.6" height="2.3"></rect>
                <rect id="Rectangle-path" fill="#5680A2" fill-rule="nonzero" x="192.4" y="231" width="9.1" height="2.3"></rect>
                <rect id="Rectangle-path" fill="#5680A2" fill-rule="nonzero" x="146.8" y="201.3" width="2.3" height="13.7"></rect>
                <rect id="Rectangle-path" fill="#5680A2" fill-rule="nonzero" x="153.6" y="201.3" width="2.3" height="13.7"></rect>
                <rect id="Rectangle-path" fill="#5680A2" fill-rule="nonzero" x="160.5" y="201.3" width="2.3" height="13.7"></rect>
                <rect id="Rectangle-path" fill="#5680A2" fill-rule="nonzero" x="155.9" y="201.3" width="4.6" height="2.3"></rect>
                <rect id="Rectangle-path" fill="#5680A2" fill-rule="nonzero" x="155.9" y="212.7" width="4.6" height="2.3"></rect>
                <rect id="Rectangle-path" fill="#5680A2" fill-rule="nonzero" x="165.1" y="201.3" width="2.3" height="13.7"></rect>
                <rect id="Rectangle-path" fill="#5680A2" fill-rule="nonzero" x="171.9" y="201.3" width="2.3" height="13.7"></rect>
                <rect id="Rectangle-path" fill="#5680A2" fill-rule="nonzero" x="167.4" y="201.3" width="4.6" height="2.3"></rect>
                <rect id="Rectangle-path" fill="#5680A2" fill-rule="nonzero" x="167.4" y="212.7" width="4.6" height="2.3"></rect>
                <rect id="Rectangle-path" fill="#FFFFFF" fill-rule="nonzero" x="6" y="9.4" width="2.4" height="2.4"></rect>
                <rect id="Rectangle-path" stroke="#F48266" stroke-width="1.418" stroke-linecap="round" stroke-linejoin="round" x="6" y="9.4" width="2.4" height="2.4"></rect>
                <rect id="Rectangle-path" fill="#FFFFFF" fill-rule="nonzero" x="3.6" y="279.2" width="12.4" height="7.3"></rect>
                <path d="M16,279.2 L3.6,279.2 L3.6,286.5 M3.6,286.4 L16,286.4" id="Shape" stroke="#F48266" stroke-width="1.418" stroke-linecap="round" stroke-linejoin="round"></path>
            </g>
        </g>
    </g>
</svg>