<svg xmlns="http://www.w3.org/2000/svg" width="198" height="207" viewBox="0 0 198 207">
    <g fill="#F48264" fill-rule="evenodd">
        <path d="M48.117 107.425c.115-.247.322-.196.374-.199-.114.214-.134.292-.398.36.004-.046-.025-.057.024-.16zm1.565-1.554c.242-.229.619-.583.89-.592-.055.238-.258.28-.465.55-.3.395-.131.195-.5.37-.47.225-.256.791-.952.911-.036-.479.474-.607.686-.803.189-.175.092-.199.34-.436zm1.934-1.399c.04-.395.798-1.195 1.227-1.47.357.384-.015.411-.39.816-.284.306-.433.573-.837.654zM74.83 122.3c.322-.235.527-.176.835-.285l1.683-1.124c.265-.176.529-.367.839-.567 1.165-.749.863-.754 1.669-.389.763.347.929.517 1.436 1.328 1.158 1.854-.275 1.905-.911 3.28-.472 1.02-.98.882-1.071 1.62-.027.215-.096.742-.588.468-.606-.337-1.268-1.322-1.55-1.626-.822-.888-.45-.438-1.08-1.016-.305-.28-1.186-1.368-1.262-1.689zm7.238 7.813c.403-.567 1.039-1.04 1.66-.583l3.22 3.38c.515.541 1.985 1.847.57 2.563-.332.168-.554-.115-.824-.39-.554-.563-1.098-1.035-1.67-1.639-.553-.587-1.095-1.188-1.658-1.758-.396-.4-1.097-1.109-1.298-1.573zm-15.67-16.61c.44-.822 1.095-1.14 1.857-.418.6.571 1.42 1.378 1.939 2.014.446.545 1.353 1.503 1.84 1.992.419.422.583.437.438.945-.138.482-.296.651-.747.98-1.181-.819-.582-.456-1.445-1.319-1.014-1.015-3.306-3.299-3.882-4.194zm-3.22-3.495c1.175-1.97 1.999.051.64.643-.371-.17-.431-.31-.64-.643zm31.55 31.343c.378.182.925.924.938 1.252.016.394-.701.997-1.002.935-.172-.036-.488-.414-.656-.59-.7-.737.518-1.694.72-1.597zm-34.324-36.435c.286.152.983.908.688 1.274-.031.036-.846.66-1.296.383-.144-.087-.53-.502-.646-.648-.237-.295-.286-.383-.075-.673.356-.49.79-.618 1.329-.336zm30.864 32.854c.799.375-.484 1.377-.833 1.212-.67-.317-.102-1.109.373-1.295.277-.108.21-.033.46.083zm4.048.093c-.096.426-.556 1.094-.831 1.468-.225.307-.213.591-.793 1.39-.13.178-.184.195-.29.381-.133.24-.232.615-.571 1.042-.556.7-.951.992-1.432.497-.95-.975-1.765-2-2.718-3.01-.9-.95-1.764-1.998-2.691-2.865-.393-.367-.928-1.029-1.335-1.478-.235-.258-.428-.37-.672-.644l-1.79-1.95c-.471-.499-.918-.899-1.377-1.385-.251-.267-.372-.493-.597-.717-2.11-2.092-4.124-4.28-6.192-6.472-.23-.242-.49-.488-.71-.724-.223-.24-.308-.44-.584-.73l-5.406-5.739c-.561-.354-.225-.189-.593-.587-.492-.532-1.484-1.674-1.972-2.075-.59-.484-.875-.974-1.342-1.444-.225-.228-.472-.374-.67-.63-.52-.683-3.023-3.006-3.157-3.333-.215-.526.406-.954.888-1.288.308-.213 1.063-.556 1.463-.777.59-.327 2.358-1.48 2.893-1.418-.217.575-1.822 1.946-2.327 2.4-.277.247-.272.317-.563.545-.27.21-.347.28-.425.587-.116.46-.116.778.379 1.194l4.777 4.907c.714.841 2.177 2.205 2.79 2.904l2.962 3.265c.26.368.815.768 1.179 1.196.347.408.617.81 1.014 1.176l3.647 3.85c.759.95 1.406 1.478 2.25 2.373l9.253 9.796c.487.596.499 1.234 1.663 1.288.605.026.822-.367 1.3-.86.486-.5 2.044-2.098 2.58-2.133zm3.175 7.178c.584.62 1.002 1.258 1.76 1.596.52.234 1.338.33 1.938.852-.403.396-.833.528-1.262.585l-.608.051c-1.324-.186-.662-.417-1.744-.595-.552-.09-2.147-1.978-2.293-2.268.265-.543.745-1.015 1.392-.944.439.046.47.357.817.723zM55.23 101.124c-.231-.478-.21-.024-.398-1.059-.116-.637.484-1.785.84-1.94.224.092.204.192.228.26.027.081.04.22.078.34.232.765.34 1.57.772 1.97.45.413 1.358 1.285 1.603 1.784.155.318.168.184.066.464-.044.241-.525.708-.808.822-.375.154-.623-.224-.935-.538-1.822-1.825-.901-.978-1.446-2.103zm34.039 36.513c-.871-.51.778-1.475 1.119-1.899.792-.985 1.246-.41 1.965.43.007.007.42.558.42.558.115.213.074.413-.231.491-.213.055-.88-.287-1.106-.406-.933-.49-1.73.73-2.167.826zm-24.276-29.29c.25-.4.482-.802 1.154.13.406.562 2.027 1.036-.942 3.237-.307.23-.43.103-.645-.203.155-.606.772-.755.943-1.553.149-.695-.221-.979-.51-1.612zm36.637 44.061c-.918-1.504-1.712-2.026-3.012-2.634-1.02-.479-1.731-1.484-2.462-2.206-.241-.239-.618-.537-.797-.743-.18-.205-.131-.253-.323-.448-.157-.16-.214-.143-.367-.29-.248-.24-.398-.53-.716-.83-.471-.446-1.25-1.03-1.276-1.587l.396-.323c.537.262 1.473 1.588 2.092 2.1l1.98 2.038c.876.943 1.277.857 2.219 1.34.8.41 1.37.268 2.2.013 1.223-.375 1.537-.442 2.289-1.158l3.342-3.18c.363-.264.787-.729 1.124-1.049.346-.327.818-.717 1.118-1.067l.937-.938c.7-.62 1.444-1.414 2.095-2.105.384-.407.686-.62 1.086-.272.69.597.187.905.047 1.072-1.45 1.723-.566.721-2.044 2.092-.314.291-.66.78-.998 1.095l-2.235 2.055c-.883.917-1.198 1.215-2.157 2-.34.278-.142.174-.368.461-.145.185-.336.231-.517.373-.206.161-.275.352-.505.552-.908.79-.797.596-1.086 1.61-.13.452-.744 1.78-.618 2.19.036.117 1.898 2.617 2.657 2.842 1.22.362 1.52.682 2.452 1.082.185.08.277.075.488.155.77.291 1.064.471 1.964.765 1.118.366 1.033.506 2.014.808.42.13.612.317.978.45.347.125.63.173.986.407.564.371.408.236.973.402.326.095.585.315.985.43.687.198 1.578.605.715 1.436-.541-.09-1.855-.713-2.493-.953-.817-.307-.41-.209-.82-.39l-3.321-1.26c-.382-.157-.34-.279-.87-.433-.284-.08-.504-.228-.816-.374-.41-.193-.518-.139-.823-.26-.254-.103-.584-.353-.813-.41-.247-.064-.121.062-.434-.136l-2.448-1.156c-.204-.057-.211-.018-.38-.148-.186-.144-.453-.636-.622-.88l-.607-.838c-.197-.249-.242-.502-.505-.859-.214-.289-.538-.57-.704-.84zm-53.767-58.65c.09.241.23.733.332.89.042.061.757.906.79.933.192.162.545.286.864.541.745.596.346.948 1.689.58.589-.162 1.25-.223 1.837-.475.824-.352 4.304-3.948 5.246-4.815 1.257-1.156 2.305-2.368 3.512-3.374.6-.499 1.07-1.303 1.646-1.588 1.484.678.689 1.401-.387 2.524l-5.547 5.243c-.753.654-2.133 1.902-2.772 2.62-.395.443-.426.961-.641 1.353-.964 1.752-.717 1.3-.291 2.741.597 2.018.586 1.347 1.69 2.642.298.348.78.933 1.153 1.248.843.717.535.528.804.887.21.282 1.192 1.287 1.428 1.705-.523.824-.834.138-1.678-.762-.103-.11-.257-.22-.354-.349-.152-.204-.05-.192-.237-.385-.172-.177-.721-.647-.808-.766-.158-.218-.048-.277-.212-.477-.287-.347-.215.157-1.246-1.145-.201-.253-.515-.477-.776-.79-.61-.739-.692-1.406-.88-1.84-.104-.242-.448-.707-.633-.907-.45-.482-1.237-1.397-1.722-1.759-.775-.58-3.052-2.115-3.353-2.784-.41-.913-.5-1.577-.623-1.844-.075-.163-.17-.274-.241-.43-.152-.335-.02-.233-.068-.453-.024-.108-.32-.684-.407-.888l-.896-2.728c-.091-.305-.272-.569-.408-.898-.133-.323-.152-.59-.295-.94-.125-.307-.223-.618-.31-.89-.13-.404-.067-.479-.258-.887-.345-.734-.144-.26-.324-.895-.092-.326-.267-.499-.356-.887a3.58 3.58 0 0 0-.302-.893c-.615-1.373.77-1.09.77-1.09l.734 1.905c.203.934.92 2.79 1.276 3.673.255.635.307 1.142.613 1.835.189.431.155.52.284.941.123.408.263.542.364.893.083.291.12.658.269.941.243.461.26.414.36.895.115.535.205.52.364.948zm65.207 41.91c.317-.3.759-.65 1.043-.35.674.713.576.69-.05 1.29-.566.543-.487.485-1.087.65-.748-.73-.742-.8.094-1.59zM66.584 86.916c.19-.178.506-.407.735-.578.5-.376.862.156 1.013.53l-.533.654c-1.068 1.148-1.93.07-1.441-.392l.226-.214zm49.1 50.01c.448.282.447.853.079 1.252-.244.266-.444.288-.674.457-.277.204-.401.375-.683.155-.56-.433-.606-.885-.076-1.22.518-.333.877-.947 1.355-.645zM64.557 85.647c.202-.316.609-.493.93-.802.75-.715.773-.353 1.255.153.277.291.16.327.16.328-.02.393-.973 1.078-1.684 1.26-.366-.358-.652-.528-.661-.939zm4.462-1.03c.354-.334 1.113-1.337 1.628-.188.153.342-.19.61-.58.957-.793.704-1.276 1.432-1.825.596-.308-.47.402-1.012.777-1.366zm49.507 50.65c-.161.411-.558.72-.952 1.088-.51.476-.397.228-.774.588l-.26.171c-.224-.135-.526-.368-.601-.643-.087-.399.14-.342.819-.982.525-.496.828-1.697 1.768-.222zM68.05 82.345c.519-.489.936.201 1.208.69-.206.442-.174.43-.592.771-.73.594-1.108 1.402-1.82.71-.71-.692-.211-.834 1.204-2.17zm46.994 53.2c-.897-.683-.863-.8-.173-1.485.449-.444 1.029-1.077 1.517-.942.202.057.67.347.587.618-.046.15-.551.32-.75.513-.34.334.002.302-.46.75-.24.233-.442.437-.721.545zM73.81 76.568c.522.303 1.42 1.262 1.852 1.757 1.9 2.178 3.672 2.787.034 5.244-.752.507-1.667 3.136-3.49 1.24l-1.723-1.805c-.276-.294-.57-.682-.802-.904-.445-.419-.39-.412-.658-.86.36-.498.913-1.279 1.509-1.534 1.127.845.932.954 1.169 1.588 1.393.24.649-1.237-.114-1.853-.322-.26-.174-.369-.69-.739l-1.691-1.757c-.717-.9-.163-.25-.823-.852-.29-.263-.597-.732-.91-.952-.25-.176-.64-.25-.952-.51.378-.477.297-.592.86-.833.347.34.153.185.232.527.194.831.49.68.894 1.116.32.345.548.586.903.9.277.244.453.591.735.88.258.265.559.454.797.73.138.16.169.293.322.457.202.217.233.16.437.344.752.681.9 1.118 1.785 1.348.934-.823-.59-.643-1.186-2.054.28-.573.884-1.163 1.51-1.478zm52.126 49.987c.498.062.789.471.91.913l-1.561 1.517c-.585.555-.95-.097-1.044-.495-.142-.6.419-.697.696-1.008l.999-.927zm-3.305.5c-.09-.355-.064-.449.296-.786 1.657-1.55 1.495-1.79 2.367-.666-.133.52-.736 1.023-1.157 1.451-.307.312-.827 1.06-1.506 0zM74.82 76.132c-.09-.36.138-.517.493-.838.322-.29.553-.457.85-.7.4-.329.426-.495.849-.215 1.09.721.405 1.054-.744 2.155-.278.266-.488.587-.807.368-.25-.17-.59-.552-.641-.77zm4.215.398c-.177.532-.287.527-.77.982-.953.901-1.116 1.187-1.522.758-.534-.567-.473-.505.255-1.193.32-.302.646-.695 1-.992.177-.148.304-.212.507-.096.17.098.416.381.53.541zm47.69 46.155c.383-.36.68-.263 1.029.174.523.652-.554 1.324-1.3 2.036-.428.408-.63.732-1.05.29-.8-.85-.36-.91 1.322-2.5zM78.83 75.47c.104-.307.935-1.082 1.286-1.438.695-.706.926-.946 1.558-.018.059.266-.748 1.061-.988 1.301-.64.636-1.526 1.364-1.856.155zm47.713 50.611c.16-.32 1.089-1.236 1.377-1.456.71-.543.792-1.038 1.429-.064.479.733-.99 1.65-1.58 2.098-.52.394-.781.125-1.226-.578zm21.592 6.346c.177.241.208.35.4.591.277.345.194.401.475.72.607.686 1.06 1.403 1.57 1.951.185.198.797 1.281 1.462 2.05.306.354.208.298.397.597.252.402.773.858 1.032 1.294.21.357.414.873.597 1.286.16.366.275.895.448 1.328.618 1.547.274.736.284 1.938.01 1.183.033.351-.216 1.317-.133.516-.024.74-.166 1.261-.082.304-1.18 1.775-1.322 1.911-.857.826-.134.403-.993 1.218-.37.35-2.318 1.508-2.638 1.66-1.074.51-.917.651-1.287.803-.356.146-.374-.005-1.335.43l-2.61.742c-.792.227-.818-.189-2.538.198l-1.933.146c-.333-.067-.31-.083-.661-.026-.473.076-.846.051-1.27.093-.24.023-.444.023-.661.088-.542.16-1.043-.042-1.88.143-.306.07-.362.03-.66.02-.654-.018-1.29.061-1.931.152-.52.074-.82-.006-1.27.062-.363.052-.928-.028-1.265-.09-.868-.156-4.441-1.288-5.14-1.344-.381-.03-.331-.047-.653-.2-.527-.252-.44.248-1.811-1.335-.358-.414-.745-.777-1.098-1.142-1.047-1.08-.304-.689-.89-1.908l-.262-1.934c-.012-1.146.612-1.5 1.083-2.558.277-.62.354-.772.904-1.288l10.03-9.675c.756-.713 1.852-1.65 2.472-2.374.63-.733 1.76-1.215 2.634-1.66.432-.219.858-.532 1.292-.662 1.19-.354.367-.437 2.535-.068 2.479.422 2.143-.128 3.7 1.37.428.411.799.588 1.269.958l1.906 1.937zM78.687 72.177c.375-.354.645-.692 1.047-.268.776.823.58.766-.181 1.525-.441.441-1.028 1.118-1.554 1.295-.794-.669-1.028-.88-.486-1.407l1.174-1.145zM75.64 55.781c.097.176.176.45.328.665.16.23.372.277.518.564.059.116.432 4.193.373 4.524-.078.435-.757 1.574-.976 1.904-.526.796-.306.666-.678 1.292-.45.755-1.577 1.915-2.232 2.533-.413.391-.834.708-1.284 1.136-.28.263-.428.334-.685.532-.3.234-.351.398-.57.63l-5.066 4.82c-.336.383-.796.731-1.211 1.128-.858.824-2.726 2.937-3.795 3.35-.238.09-.464.183-.67.25-.354.11-.377.064-.614.114-.148.032-.52.251-1.33.455-.983.246-.5-.023-1.265-.083-.383-.029-.265-.056-.656-.206-.35-.134-1.036.046-1.911-.693l-2.124-2.498c-.28-.41.009-.344-.43-1.339l-.504-1.953c-.131-.334-.043-.365-.095-.66-.043-.237-.14-.443-.215-.667-.102-.304-.11-.808-.275-1.277-.113-.319-.136-.405-.13-.662.01-.32-.044-.367-.06-.663l.138-1.318c0-.04.532-3.672.553-4.5.017-.705.204-1.63.219-1.977l.257-1.92c.023-.239.003-.422.019-.663.018-.257.085-.349.112-.6.029-.288.01-.333.087-.66.15-.64-.016-1.264.239-1.922.149-.387.323-.883.447-1.307.129-.442.286-.812.444-1.256.089-.252.198-.434.284-.655.099-.252.11-.38.24-.649l1.73-2.562c.45-.509.304-.698.869-1.232.615-.579.755-.532 1.353-.915.175-.11.347-.299.574-.458.33-.23.317-.207.61-.349.3-.145.34-.339.676-.442.188-.058.418-.035.662-.08 1.244-.233.262-.106 1.269-.088.495.01.863-.197 1.327-.18.634.02.653.17 1.256.427l1.314.616c.374.241.883.245 1.24.5.253.178.21.311.535.553.295.22.346.297.626.558.287.264.427.211.675.43.303.267.229.307.59.515.178.102 1.104.922 1.298 1.131l2.525 2.066c.482.365.819.74 1.253 1.131l2.136 2.61zm53.26 62.262c1.18.773-.388 1.645-.13 2.43.252.766.963 1.361.179 1.968-.288.221-.39.138-.631-.109-.504-.516-.681-.525-.723-1.179l.075-1.27c.2-1.262.034-.969.076-1.26.003-.02.384-1.084 1.154-.58zm1.095 1.754c.293-.276.373-.159.65.06.3.232.362.337.435.616-.243.335-.564.694-.965.691-.182-.177-.388-.692-.463-.937l.343-.43zM82.333 72.04c.294.062.856.336 1.229.466.697.24.554.167 1.276-.212.479-.25.852-.407 1.16.128.65 1.13-.732 1.358-1.531 1.342-.906-.017-.378.14-1.266-.04-.388-.08-.606.23-1.263-.58-.43-.528-.147-.778.395-1.104zm1.204-1.417c.68-.64 1.86.99.436 1.074-.45.026-1.166-.383-.436-1.074zm41.862 84.722c-.525-.154-2.955-2.023-3.19-2.147-.674-.357-1.997-.97-1.417-1.53.532-.513.976.203 1.66.95.847.895 1.586.681 2.5 1.036.335.13.887.275 1.255.345l2.514.7c.282.1.938.273 1.26.331.689.123.495.13 1.262.168.346.016.342-.06.66-.045 1.286.055.883.036 1.879-.147.293-.053.355.024.66-.03.225-.042.394-.093.61-.092.402.001.797-.048 1.268-.073.266-.015.377-.05.662-.07.288-.02.346.022.606-.002l3.203-.248c.239-.016.353.018.606-.013.425-.055.803-.092 1.215-.116.452-.028.794.044 1.268-.005.424-.046 1.958-.594 2.555-.745l1.276-.404c.505-.153.642-.084 1.284-.446l1.964-1.226c1.326-.637 1.796-.994 2.792-2.369 1.034-1.428 1.277-1.349 1.565-2.494 0 0 .09-2.017.74-1.582.28.188.137.393.085.62-.07.298.025.293-.128.653-.371.87-.34 2.42-1.044 3.044-.7.621-.974.972-1.602 1.592-1.938 1.913-2.325 1.613-3.388 2.345-1.05.724-1.463 1.15-2.751 1.352-.268.042-.236.093-.502.213l-2.11.665c-.792.27-.423.173-1.104.075-.306-.045-.69.06-1.048.065-.755.016-.915.072-1.653.028l-1.603.135c-.236-.01-.3-.063-.55-.017-.275.05-.24.06-.497.061-.626.003-1.485-.022-2.095.113-.264.06-.26.088-.551.032-.397-.078-1.203.05-1.603.112l-2.147.026c-1.002.077-.493.005-1.104.007-.494.001-.57-.033-1.042-.103-.34-.05-.733-.229-1.04-.273-.881-.127-.644.141-1.588-.213-.323-.12-.232-.036-.55-.065-.324-.029-.268-.117-.548-.175-.25-.05-.241.037-.494-.038zm5.307-36.414c.166-.13.69-.308.854-.317.32-.018.527.2.787.53-.378 1.802-1.714.327-1.641-.213zM84.312 69.945c.032-.309.636-.865.946-.782.342.091.49.446.389.886-.214.912-.262 1.196-1.01.44-.341-.348-.321-.344-.325-.544zM56.155 45.04c.863-.814 1.166-.8 2.162-1.022l1.16-.163c.31-.095.847-.185 1.118-.148.247.282.214.377.185.673-.273.591-1.481-.034-2.711.737-.54.338-.8.45-1.335.878-.22.176-.48.321-.694.437-.524.286-.244.294-1.006.823-.22.151-.383.676-.673.986-.293.316-1.817 2.406-1.92 2.74-.06.192-.008.214-.13.487-.55 1.248-.488 1.324-.858 2.346-.13.354-.258.598-.401.924l-.228.985c-.06.435-.2.496-.14.934.056.39.076.126-.026.495l-.19 1.373c.017.742-.075.51-.152.93l-.472 3.79c.017.233.069.28.026.493l-.34 2.304c-.043.422.06.522-.072.99-.091.321-.041.167-.072.495-.062.663-.16.083-.096 1.373.06 1.23.42 1.824.486 2.44.082.77.312 1.586.51 2.327.088.33.23.61.322.946.493 1.805-.015 1.527 1.137 2.74.453.476.662.847 1.053 1.41l-.442.45c-.594-.059-.834-.575-1.26-1.338-.121-.22-.11-.38-.227-.566-.4-.628-.177-.142-.69-1.118-.642-1.228-1.123-1.34-1.31-3.282-.038-.413-.18-.696-.29-1.109l-.196-1.604c-.098-.678-.165-.147-.196-1.382-.018-.724.029-.577.224-1.369l.447-3.735c.068-.306.046-.235.04-.55-.014-.784.265-1.797.289-2.139.06-.848.05-1.345.178-2.2.352-2.375.085-2.636.893-5.315.105-.348.32-.694.426-1.09.507-1.91.387-1.198 1.705-3.202l.755-1.074c.552-.762 2.33-2.456 3.01-3.1zm73.66 73.237c-.594-.476-.874-.709-.192-1.14 1.374-.87.656-.835 2.545-.487.199.035.526.166.654.18.39.042.743-.3.768.694.005.185.086.462-.015.67-.364.751-.782.013-1.233-.26-.321-.195-2.043.208-2.526.343zM85.894 68.402c.275-.57.672-.45 1.105-.38.687.11.539.542.626.98.22 1.104.089.872.149 1.272.049.321.303.486-.237 1.256-.25.355-.86.95-1.221.678-.316-.235-.112-.577.037-1.26.45-2.062-.002-1.68-.46-2.546zm2.745.694c-.208-.322-.158-.433.22-.64.344.325.104.58-.22.64zm44.285 46.182c.315.06.526.628-.076.636-.607.01-.286-.452.076-.636zM88.697 70.302c.19-.23.487-.389.767-.66.893-.868.956-.24 2.272 1.106.499.511.972.708 1.319 1.384.22.427 1.034 1.155 1.407 1.505.507.476 1.009 1.088 1.454 1.621.145.173.148.242.28.382.323.341.779.631 1.1.996 1.35 1.533 2.97 2.948 4.273 4.535.969 1.181 3.21 3.384 4.394 4.635l2.874 2.93c.184.238.32.497.576.773.703.762 1.492 1.456 2.133 2.272.568.723 1.608 1.571 2.274 2.237l1.337 1.528c.263.296.527.465.719.696.375.453.817.864 1.224 1.315a228.063 228.063 0 0 0 5.763 6.138 42.81 42.81 0 0 1 1.49 1.591c.587.668.674.63 1.307 1.444.738.95 4.677 4.961 5.825 6.175.338.36 1.27 1.028.977 1.498-.118.186-.502.37-.706.648-.248.34-.096.434-.248.681-.54-.028-.943-.312-1.572.158-.623.466-.871.562-1.567.87-.328-.188-.47-.474-.825-.35-.012.566.618.4-.076 1.05-.783.733-.46 1.161-.522 2.075-.025.37-.118.658-.132 1.042-.063 1.677-1.003 1.805-2.177 2.853-.512.457-.61.002-1.014.167.012.354.25.367.117.695-.096.237-.354.328-.547.53-1.468 1.537-1.292 1.233-2.168.651l-.94-.445c-.526-.235-1.428.221-1.844.576-.652.555-1.26 1.25-1.918 1.805-.532.45-1.34 1.03-1.804 1.467.039 1.662-.135.746.438 2.324.352.971.884.69-.373 1.88-.41.39-.481.584-.976.83-.293-.084-.362-.24-.645-.169-.071.236.063.31.162.602a3.427 3.427 0 0 1-.881.903c-.415.29-.252.413-.475.828-.585 1.087.463 1.298.6 1.834.212.818-4.898 5.04-5.833 6.115-.512.588-1.34 1.24-1.95 1.825-.638.61-1.171 1.282-2.08.848-.791-.376-1.491-.41-2.066-.847-.716-.545-1.218-1.343-1.868-1.879-.748-.616-.855-.355-1.592-.422a13.18 13.18 0 0 1-.275-.035c-.207-.06.003.063-.254-.13.426-1.52-.497-1.83-1.343-2.948.1-.48.554-1.354.849-1.8.318-.48.496-.566.49-1.078-.008-.83.35-1.904-1.557-2.024-.77-.047-.891 1.117-1.547.533-.141-.126-.09-.132-.232-.272-.198-.193-.406-.276-.58-.446-.39-.385-.72-.803-1.19-.89-1.14-.212-1.626.931-2.457 1.313-.143-.29.253-.95.105-1.399-.173-.524-.5-.98-.935-1.434-.883-.926-1.697-1.803-2.605-2.686-.284-.276-.303-.48-.568-.71-.933-.809-.8-1.056-2.075-.965-.603.043-.934.643-1.282.734-.451.12-.956-.573-1.216-1.03-.093-.662 1.224-.747.935-1.738-.216-.738-.91-.383-.11-1.595.744-1.126 1.957-1.956 1.269-3.435-.157-.337-.333-.548-.515-.895-.277-.53-.34-.433-.717-.679-.84-.55-.671-.764-1.674-.895-.204-.027-.676-.03-.89.044-.27.094-.197.108-.378.256-.23.192-.196.094-.396.184l-.896.596c-.358.245-.462.345-.848.521-.58-.303-.757-.743-1.356-.598-.293.071-.712.43-1.017.606-.244.14-.047.111-.336.124-.318-.1-.744-.6-.93-.927.208-.742 1.212-1.128.747-2.4-.212-.582-1.893-2.295-2.501-2.933l-1.768-1.866c-.541-.64-1.018-.938-1.79-.736-.364.096-.276.193-.553.058-.115-.729 1.92-1.462 1.053-2.897-.383-.633-.734-.907-1.138-1.453-.711-.96.758-1.24.522-2.195a1.718 1.718 0 0 0-1.046-1.182c-.253-.098-.485-.229-.71-.175-.536.123-1.008.567-1.448.688-.388.108-.816.474-1.455.744-1.156-.699-.914-1.266-2.435-1.572-.474-.095-.291.16-.795-.13.006-.089.01-.084.032-.189l.167-.772c.027-.205.059-.019-.055-.277l-.222-.67c-.102-.278-.4-.375-.651-.728-.692-.975-1.394-1.137-1.653-2.473-.034-.18-.046-.34-.1-.496-.093-.282-.34-1.053-.25-1.322.258-.364 1.204-1.278 1.58-1.602.448-.385 1.304-1.167 1.648-1.564 1.44-1.657 3.598-3.208 4.993-4.92.957-1.176 1.105-.208 1.686.018.075.03.802.063.878.041.93-.278 1.08-.795 1.739-1.118.412-.203.399.223.816.033-.047-.403-.247-.36-.12-.727.09-.27 1.513-1.593 1.793-1.632.255-.037.683.23.919.396 1.242.882 1.815.581 2.837-.34.39-.35 1.582-1.366 1.809-1.662.794-1.039 2.494-1.73 1.273-3.673-.554-.879-.381-1.132.307-1.735.294-.258.48-.609.857-.873.464-.326.448.055.895.008.032-.183-.084-.407-.06-.578.052-.344 1.068-1.217 1.304-1.398.455-.352.456-.582.959-.852.553-.297 2.007-.246 2.649-.228 1.182.033.768-.139 1.568-.684.474-.322.635.154.967.221.143-.3-.128-.389-.322-.672.084-.236.145-.502.36-.76 1.017-1.232.756-.826.962-2.27zm15.399 10.474c.933.51 1.077 1.081 1.46 1.42.748.663.306.341.648.705.257.271.334.226.544.45.322.341.294.441.47.612.15.147.264.163.443.354l5.454 5.982c1.277 1.353 8.736 8.82 8.703 9.372-.001.025-.417.942-.976.683-.26-.12-4.27-4.434-4.44-4.545-.37-.239-3.054-3.197-3.57-3.743-.318-.337-.391-.154-.536-.659-.09-.312-.053-.324-.384-.479-.54-.253-.952-.844-1.433-1.354-.976-1.032-.584-.828-.911-1.173l-5.547-5.789c-.653-.76-1.367-1.044.075-1.836zm-.495-2.182c-.056.346.1.821.027 1.166-.058.271-.735.967-.96 1.036-.585.178-1.591-1.21-2.14-1.749l-6.735-7.133c-.336-.405-.221-.448-.911-1.177-.835-.88-2.358-2.832-3.4-2.98-.48-.068-1.312-.443-1.696-.429-.813.033-.464-.457-.102-.82.253-.255.29-.283.135-.525-.183.077-.744.477-.913.688-.568.702-.335.365-.933.512-.512.126-1.467 1.173-1.866 1.548-.923.864-1.19-.072-1.876-.788-.32-.334-.646-.612-.95-.925-.265-.274-.525-.79-.746-.606.037.301.378.546.583.765.252.27.389.495.648.774.514.553.889.803 1.3 1.416-.232.772-1.188 2.082-2.024 2.6-.628-.26-.942-.903-1.506-1.184-.76-.377-1.007.478-1.376.854-.36.367-1.157.264-1.518.211-.364-.052-.38-.006-.772.23-.542.325-.303-.066-.78-.08-.134.293-.01.294.145.57-.48.883-.184.586-.371 1.304-.21.802.262.587-.581 1.355-.605.552-.831.381-1.331.851-.227.214-.453.432-.68.648-.103.098-.232.23-.343.313-.084.065-.07.06-.17.11-.19.09-.171.054-.232.065-.41-.125-1.572-1.403-1.821-1.77-.227-.338-.7-.727-.976-1.072-.166-.209-.267-.454-.39-.599-.164-.196-.365-.229-.425-.415-.043-.375 1.7-1.836 1.917-2.055.638-.644 1.299-1.247 1.948-1.918.189-.194.307-.234.478-.39.197-.176.238-.3.479-.502 1.002-.839 2.303-1.9 2.928-2.963l1.132-2.067c.479-.84.999-1.24.927-2.07l-.235-1.549c-.046-.299.058-.44-.035-1.045-.085-.558-.01-1.098-.167-1.657-.088-.312-1.156-1.734-1.426-2.132-.114-.168-.14-.335-.264-.519-.15-.22-.288-.319-.428-.553-.69-1.157-2.021-1.93-2.962-2.784-.22-.199-.241-.328-.47-.495-.226-.165-.277-.093-.547-.352-.336-.32-.624-.777-1.018-1.01-.19-.113-.312-.119-.485-.26-.495-.402-1.067-1.062-1.552-1.38-.343-.227-.735-.544-1.04-.786-.464-.372-.432-.427-1.016-.81-.817-.536-2.181-.936-3.1-1.407-.646-.333-.61-.072-1.1-.232-.238-.283-.231-.905-.181-1.168.064-.34.67-.78.894-1.183-.832-1.13-.933.652-2.595.965-.457.086-.956.246-1.384.232-.553-.019-.868.186-1.44.275-.884.138-.557-.095-1.424.727-.688.651-2.2 2.29-2.81 2.62-.293.158-.576.93-.83 1.265-.217.29-.32.322-.508.648-.363.631-1.067 1.371-1.265 2.06l-1.151 3.435c-.142.368-.408 1.064-.37 1.367.062.465-.117.863-.11 1.375.009.5-.468 3.311-.522 4.17-.03.487-.007.867-.101 1.374-.062.335-.053.406-.06.714-.01.355-.122.392-.143.713l-.37 3.46c-.11.505-.106.906-.081 1.375.04.758-.075 1.362.185 2.1.276.78.154.732.35 1.388.269.892-.11 1.837.989 3.541.474.735.914 1.282 1.209 2.081.17.465.644.907.839 1.4.168.423.29.377.48.737.36.69-.102.87.598 1.45.554-.298.3-.567.34-.988.042-.432.606-.886.986-1.113.63.232.322.386 1.58.583.396.06.38.085.766.21.76.246 1.67.451 2.415.248.712-.197 2.716-.728 3.22-1.128.84-.67 3.98-4.009 4.589-4.24.286.192.072.217.282.39.386.315.083-.366 1.579 1.217.614.65 1.562 1.497 1.91 2.18-.372.575-1.655 1.612-1.73 1.877-.244.886-.766 1.318-1.685 1.27-.906-.048-.623.016-1.502.408l-.415-.234c-.24.473.133.197.108.666-.041.17-.664.701-.606 1.686.032.535-.437.858-.84 1.235-.677.638-1.041 1.354-1.791 1.96l-6.897 6.53c-.34.32-.68.642-1.018.964-.471.45-1.44.627-2.031.7-.43.051-.553.138-.976-.268-.997-.959-1.345-.945-1.537-1.8-.157-.7-.52-1.294-.752-2.009-.113-.348-.18-.66-.278-.997-.086-.296-.267-.696-.385-1.002-.157-.4-.198-.636-.308-1-.098-.32-.34-.696-.42-1.006-.21-.812-.397-1.259-.73-2l-.947-3.004c-.15-.659-.514-1.324-.492-1.997.017-.53.034-.616-.537-.792-.253.268-.34 1.175-2.022 1.04-.296-.024-.466-.148-.78-.02-.207.668.317.381.77 1.845l.695 1.891c.262.675.45 1.214.592 1.84.089.39.282.571.37.947.12.508.129.431.369.94.15.318.14.586.214.892.098.412.354.556.41.95.08.54.118.488.343.944l1.33 3.73c.189.47.023.47.43.96.452.543 1.074 1.006 1.674 1.402.666.438 3.209 2.578 3.559 3.25.509.98.158 1.956-.696 2.617-.416.321-.441.517-.826.833-.363.296-.524.292-.945.692-.655.625-3.107 3.134-3.704 3.272-.446.105-.533-.19-.61.54l.267.312c1.293-.139 1.712-.813 2.182-.944-.108.28-.454.455-.717 1.076-.23.544-.295.552-.31 1.074.303.335.585.43.83-.066.13-.267.226-.613.444-.86.276-.314.594-.57.898-.854.964-.893 1.667-1.749 2.766-2.526.625-.44 1.244-1.258 1.852-1.675.583-.4.899.115 1.229.476.594.651 1.569 1.312 1.91 2.122.159.381.479.428.81.764.333.338.499.533.842.83l1.554 1.701c1.833 1.706 4.132 4.283 5.837 6.194.355.397.606.542.497.967-.196.763-2.56 2.688-3.286 3.208-.53.38-1.996 2.192-2.597 2.364-.398.114-.49-.415-.927.19.382.904 1.25.8 1.85.33.89-.695 1.289-1.373 1.864-1.84.219-.177.28-.126.505-.362.637-.665.164-.42 1.378-1.284.676-.482 1.427-1.459 2.089-1.943.416.325.033.615-.27.93-.342.357-.652.642-.994.992-.404.415-.633.291-1.02.73-.746.848-.455.411-1.021.768-.313.2-.115.368-.761.975-.74.698-1.202.687-1.765 1.795-.264.518-.588.346-.457.924.096.42.482.763.852.472.464-.367-.123-.372.356-.984l1.842-1.896c.377-.319.693-.465.989-.832.44-.54 1.313-1.12 1.89-1.678 1.367-1.322 1.426-1.425 2.759.101.55.631 1.154 1.21 1.69 1.852.33.394.629.59.943.913l2.693 3.014c.348.435.549.522.888.89l4.667 4.914c.348.367 1.486 1.554 1.73 1.996-.4 1.015-1.636 1.746-2.362 2.357-.328.276-.6.615-.957.916-.704.594-2.126 2.174-2.775 2.58-1.505.941-.244 1.321.232.944.188-.149.137-.212.404-.406.236-.172.293-.182.519-.41.316-.319.654-.643.953-.977.43-.482 1.364-1.24 1.916-1.77.385-.368.683-.502 1.026-.846.464-.465.896-.935 1.414-1.336.418-.325.786-.078.447.397-.12.168-.284.338-.408.491-.424.532-2.224 1.907-2.953 2.606-.674.647-1.35 1.293-2.032 1.931-.56.523-.412.416-.692.972-.222.44-.328.653.15 1.063.129-.052.265-.083.406-.233.267-.284.133-.624.825-1.294l2.774-2.623c.486-.465 1.062-.869 1.815-1.595.222-.213 1.06-1.26 1.813-.227l1.64 1.69c.3.308.453.645.787.896.589.442 1.143 1.203 1.659 1.643.306.262 1.255 1.366 1.536 1.735.373.491 2.86 3.158 3.277 3.47l1.607 1.772c.649.678 1.429 1.098.809 1.854-.67.818-.801.977-1.635 1.578-.84.607-2.28 2.047-3.102 2.861-.207.206-.313.2-.51.372-.39.34-.2.502-.794.656-.45.117-.553.221-.506.673.956.72 2.199-.93 2.9-1.57l4-3.7c.18-.173.512-.579.8-.439.474.226-.53.954-.694 1.118-.69.688-1.34 1.065-2.017 1.724-.146.142-.295.334-.416.427-.183.138-.298.135-.448.308-1.2 1.394-2.11 1.728-2.56 2.841-.157.385-.252.656.045.982.593.018.592-.164.697-.63.107-.479 3.08-3.034 3.732-3.696.286-.29.59-.438.972-.817.718-.717 1.228-1.179 2.097-1.279 1.052-.122 1.012.325 1.899 1.12.996.893 1.444 1.918 2.259 2.958.15.195.146.297.294.492.477.625.55.912 1.272 1.36.498.311.6.182 1.039.426.39.215 1.025.596 1.464.721l6.584 2.725c.703.26 1.31.554 2.015.871.57.26 1.5.53 2.018.83.345.198.435.818.878.5.359-.26.005-.64.082-1.044.324-1.687.8-1.369 1.193-1.674l-.2-.478c-.475.001-.666.066-1.105-.088-.46-.16-.682-.154-1.143-.416-.757-.429-.716-.233-1.15-.426-.178-.08-.343-.216-.54-.306-.266-.124-.382-.103-.602-.179-1.148-.397-2.268-.997-3.427-1.476-.457-.187-.704-.25-1.14-.442-.374-.163-.454-.089-1.092-.415-.483-.246-.666-.225-1.148-.53-.336-.21-.82-.338-1.135-.476-1.167-.506-1.307-.6-2.071-1.74-.408-.612-.626-.424-.547-1.176.05-.473.254-.755.323-1.147.082-.47.117-.685.61-1.146.68-.637 8.235-7.663 8.81-8.34.443-.525.937-1.28 1.565-1.605.428-.222.79-.093 1.158-.078.413.016.796-.318 1.178-.559 1.06-.667.836-1.747.932-2.187.098-.444.557-.753.966-1.063.44-.336.862-.508 1.209-.832 1.256-1.17.727-1.366 2.915.945.235.248.774.728.914.913.352.47.068.541.489.996.194.001.358-.024.548.074-.062.593-2.96 3.111-3.555 3.673-1.128 1.065-1.36 1.556-1.992 2.772-.21.401-.24.575-.402.98-.194.488-.281.404-.247.93.063.98.419 1.888.557 2.88.05.356.007.625.185.94.233.412.468.577.042.978-.226.213-.714.514-.94.543-.41.054-.568-.36-.97.245.319.544.78.395 1.275.728l1.352.822c1.078.663 2.98 2.208 4.058 2.582.896.312 1.822.322 2.737.574l2.688.463c.607.06 1.428-.07 2.038-.062.364.007.284.144.716.017.63-.184 2.64-.13 3.42-.187l7.559-.385c1.26-.22 2.87-.856 4.164-1.208.794-.217.646-.203 1.384-.68.202-.129.486-.279.688-.386l2.122-1.27c.468-.305 2.247-2.023 2.603-2.487.419-.548.719-.508 1.03-1.24.113-.266.103-.423.128-.658.07-.689.495-1.35.629-2.076.079-.428.122-.97.332-1.367.222-.42.895-.497 1.239-1.024-.254-.724-.622-.292-1.187.008-.381.201-1.108.302-1.452.11-.231-.233-.14-.813-.196-1.122-.137-.736-.58-1.523-.817-2.227a4.654 4.654 0 0 0-.52-1.118c-.305-.49-1.986-2.96-2.39-3.395l-3.354-4.55c-.287-.39-.71-.78-.997-1.12-.281-.335-.586-.274-1.071-.786-.408-.432-.661-.456-1.023-.914-.28-.353-.663-.522-1.007-.797-.626-.496-.623-.192-1.15-.366-.38-.125-.682-.025-1.094-.154-.607-.194-1.036-.018-1.647-.192-.527-.15-1.068-.264-1.652-.093l-1.673.752c-.295.19-.297.116-.555.261-.385.217-.716.43-1.12.656-.611.344-.684.355-1.2.923-1.088 1.201-1.828 1.67-2.635 2.572-.244.271-.288.183-.543.402l-1.025 1.086c-.22.234-.312.19-.56.412-.552.496-1.045 1.126-1.583 1.616-.452.413-.597.328-1.014.862-.268.344-.846.828-1.157.886-.367-.734.42-.182-1.174-1.874-.306-.324-.468-.625-.8-.897-.418-.346-.471-.589-.803-.893l-1.234-1.33c-.205-.28-.256-.214-.475-.4-.294-.257-.573-.72-.904-.933-.277-.176-.65-.21-.934.008-.317.52 1.096 1.1 1.499 1.916-.298.474-1.034 1.231-1.547 1.437-.245-.127-3.218-3.107-3.503-3.517-.516-.74-.61-1.14-.367-1.883.189-.579 1.18-1.33 1.676-1.8 1.194-1.128 2.329-2.506 3.766-1.028.764.785 2.918 2.908 3.326 3.726l-.838.87c-.338.385-.628.547-1.007.43-.566-.352-.963-1.75-1.67-1.345-.116.723.483 1.293 1.047 1.838.536.516 1.155 1.37 1.67 1.796 1.887 1.556 1.963 3 3.602 2.62l-.147-.679c-.67-.336-.083.223-1.114-.68-.774-.679-1.452-1.518-2.118-2.285-.415-.478-.056-.669.319-1.132.302-.374.679-.646.927-1.067.468-.798 1.045-1.455 2.028-1.436.754.016.599-.139 1.165-.269.408.057.375.348.777.217-.04-.199-.29-.5-.262-.719.095-.448.539-.587.52-1.25-.016-.572-.087-.708.49-1.244.764-.709.943-.98.156-1.879l-.392-.504c-.245-.494.455-.934.886-1.359.355-.347.347-.204.614-.376.229-.149.422-.407.679-.585.68.134 1.06.736 1.616 1.322l1.232 1.27c.259.228.209.226.447.17-.086-.607-2.668-2.56-2.681-3.065-.018-.666 1.935-1.75 2.165-2.527.24-.81.724-.9 1.167-1.55-.506-.215-.574.301-1.02.402-.445-.184-.26-.573-.304-.839-.06-.338-.198-.557-.234-.999-.126-1.512-2.066-2.819-3.01-3.928-1.252-1.47-2.758-2.819-3.79-4.026a11.098 11.098 0 0 0-.97-1.014c-.313-.293-.45-.678-.81-1.054l-3.722-3.982c-.188-.443.492-1.054.863-1.23.416-.197.87.031 1.322.011.623-.799-.636-.784-1.178-.973-.49-.17-4.555-4.652-5.337-5.502-.24-.263-.462-.409-.68-.644l-3.287-3.649c-.368-.362-.925-.946-1.337-1.304l-5.724-6.163c-.477-.534-1.6-1.414-1.863-2.032-.198-.464-.077-2.022-.972-1.304z"/>
        <path d="M3.816 29.623c.336.216.072.534-.224.568-.104-.128-.271-.259.03-.5.126-.1.112-.05.194-.068zm26.29 27.46a.493.493 0 0 1 .396-.375c-.038.187-.173.316-.395.374zm.649-.613c-.036-.268.116-.299.345-.453.272-.183.274-.282.527-.269-.255.236-.583.681-.872.722zm98.3 107.632c.185-.39.34-.248.732-.292.303-.034.484-.075.772-.085.336-.013.439-.052.775-.097l2.256-.027c.692.125 1.762-.24 2.266-.174.94.122 1.509-.286 2.262-.14l2.259-.018c.488-.002.32-.238.733.003.004.145.012.03-.028.175-.224.8.08.863-.141 1.043-.561.177-.506-.47-1.132.314.127.311.195.32.514.54.14.097.56.334.643.422 3.333 3.714 3.696 2.936 1.342 5.16-.17.161-.281.495-.45.693-.31.364-1.57 1.361-1.861 1.715-.37.445-.736.944-1.246.528-.855-.698-5.665-5.912-7.11-7.429-.152-.16-.667-.838-.69-.847l-1.896-1.484zm10.737 10.822c.304-.803 2.007-1.876 2.975-3.22l2.23-2.049c1.18-.749 2.335-3.02 3.22-2.024-.516 1.053-3.566 3.316-3.828 3.674-.744 1.01-.711.752-1.438 1.626-.256.31-.708.651-1.04.977-1.495 1.472-1.41 1.816-2.12 1.016zM11.6 22.684l-2.547 2.541c-.86.831-.316.003-1.268 1.13-.272.322-.808.761-1.035 1.066-.133.18-.16.311-.384.586-.357.433-1.17 1.266-1.626 1.293-.465-.903.823-1.484 1.393-2.179.282-.346.292-.594.63-.853l1.926-1.656c.5-.453.342-.394.676-.758l1.245-1.175c.382-.362.726-.45.99.004zm161.676 172.745c.293-.277.494-.404.783-.367.197.368-.002.608-.406.955-.303.26-.651.626-.976.932-.352.334-.66.764-1.058 1.007-.354.217-.241.108-.52.445l-1.194 1.168c-.913.907-1.016 1.367-2.164 2.244-.396.303-.59.983-1.378 1.122-.506-.416-.183-.61.22-.985l2.044-1.925c.405-.39.284-.55.648-.895l1.528-1.445c.252-.238.629-.42.888-.655l1.585-1.6zM36.928 51.217c.135-.127.385-.333.539-.457.286-.23.259-.2.518.056.167.565-.2.546-.523.853-.41.386-.351.416-.69.803-.436.497-.265.005-1.137 1l-1.4 1.244c-1.016.892-.99 1.243-1.378 1.601l-.726.706c-.257.243-.618.461-.964.795-.722.695-1.133.265-.575-.26.843-.796 2.44-2.148 3.058-3.094.502-.768.844-.867 1.45-1.44l1.828-1.807zm137.009 145.818c.964-.91 1.838-2.077 2.929-1.469.7.392 1.526 1.418 1.977 2.07.303.438.399.48-.11.961-1.014.958-2.148 1.323-3.004 2.032-.32.264-.942.59-1.347.774-.74.34-1.098.782-1.96 1.274-.206.118-1.12 1.161-1.854 1.28-.276.044-.947-.176-1.313-.297-.59-.197-.756-.249-1.037-.87.276-.482.7-.815 1.177-1.267.594-.559.8-.957 1.318-1.44.337-.316.862-1.005 1.177-1.248 1.002-.763 1.11-.915 2.047-1.8zM4.077 27.895c-.678.641-1.133-.148-1.33-.702-.108-.306-.14-.39-.08-.664.13-.59-.04-.296.03-.662l.8-1.348c.232-.36.089-.413.2-.66.082-.177.348-.399.497-.65.565-.952.276-.507.93-1.339.19-.24.213-.393.439-.67.975-1.198.999-1.542 1.3-1.92l1.365-1.958c.582-.55 2.14 1.312 2.67 1.873.214.226.346.834.306 1.134-.132.97-.982 1.392-1.352 1.773l-1.334 1.315c-.302.288-.485.552-.811.842-.284.251-.548.445-.883.761-1.702 1.61-.791.93-1.438 1.704-.261.314-.524.26-.791.422-.32.197-.173.422-.518.748zm39.245 19.954c-.121.388-.024.472-.041.771-.013.211-.195.64-.215 1.538l-.276 2.304c-.277 1.325.123.56-.076 1.156-.26.777-.022.585-.175 1.152-.443 1.643-.128 1.726-.465 3.015l-.14 1.54c.049.458-.157 1.061-.241 1.534-.176.992-.06 1.917-.338 3.078-.098.408.096.434.084.773l-.36 2.688c-.13.77-.075 2.267-.518 2.59-.293-.112-.383-.302-.568-.587-.661-1.01-2.167-2.602-3.034-3.589-.49-.555-2.204-2.136-2.71-2.785-.23-.292-.203-.383-.555-.762l-1.35-1.406c-1.714-1.487-1.297-1.576-.701-2.14.315.12.586.047.823-.232-.02-.295-.021-.157-.138-.413.57-.639 1.299-1.229 1.608-1.73.143-.233.308-.364.54-.58 1.146-1.075 1.292-1.598 2.47-.43.422.415.787.891 1.235 1.298 1.114 1.012 1.653 2.345 2.088 2.393.202.023.414-.083.416-.337 0-.178-.142-.455-.197-.599.364-.184-.111-.093.629.03.617.102.778-.206.61-.767-.204-.092-.216-.044-.416-.119-.525-.196-.721-.514-1.03-.867-.687-.788-2.691-2.584-2.667-3.28.018-.51 1.048-1.057 1.357-1.505.209-.305.03-.897-.107-1.207-.168-.382-.114-.018-.066-.395.042-.33.217-.46.532-.754.828-.769 3.487-3.494 4.014-3.627.357.347.08 1.101.015 1.484-.074.433.136.206-.037.767zm98.335 115.368c.275-.212.453-.139.709-.137l2.152-.135c.25-.024.425-.132.719-.105.357.032.325.1.715.007l1.436-.144c1.533-.109 1.169.018 2.87-.21.348-.047.974-.002 1.434-.034.468-.032.99-.232 1.42.081-.203.83-2.111 2.204-2.83 2.882-.41.388-1.038 1.353-1.576 1.303-.214-.02-.227-.073-.436-.118-.383-.082-.834-.188-1.16-.032-.435.206-1.212 1.14-1.626 1.125-.453-.016-1.2-.993-1.576-1.392-.823-.872-2.371-2.084-2.251-3.09zm1.144-3.445c.342-.2.857-.179 1.206-.178.45.001.189-.115 1.215-.107l1.214-.104c.555-.067.68.357.704.775.009.17-.017.123.006.332.023.217.093.014.02.276-.068.252-1.066.413-1.111.414-1.114.02-1.713-.034-2.958.155-.297-.332-.331-1.393-.296-1.563zM45.769 53.925c-.021.251-.008.24-.06.494-.046.233-.103.354-.096.55.009.28.048 1.28-.221 1.466-.26.067-1.126.058-1.357-.355-.17-.302-.021-1.017.073-1.376.105-.4.008-.296.078-.713.066-.39-.04-.475.122-1.045.233-.825-.044-.635.31-1.003.22.028.38.083.637.122.965.145.605.574.595.871-.007.198.064.265.03.5-.034.236-.09.228-.111.49zm102.427 106.832c-.274-.342-.228-.452-.247-.796-.054-.94.247-.672.968-.694.23-.007.526-.116.775-.14l6.846-.505c1.59-.266 1.137 1.456 1.13 1.466-.421.355-.834.244-1.235.267-1.037.062-.91.196-2.372.148-1.383-.046-.895.286-2.377.262-1.386-.023-.39.037-1.49.092-.154.008-.17.03-.277.037-.281.02-1.422-.012-1.721-.137zM46.79 45.362c-.03.268.038.354.01.606-.025.245-.111.303-.14.547-.025.211.007.39-.02.605-.056.493-.233 1.282-.19 1.758.027.3-.093.428-.16 1.15-.125 1.35-.146 1.31-.902 1.196-.364-.055-.391.041-.715-.405-.075-.546.077-1.046.094-1.383.014-.279.064-.36.114-.66l.403-3.293c.002-.278-.058-.379 0-.66l.224-1.316c.009-.283-.005-.39.059-.659.217-.896-.26-1.44.979-1.44.365 0 .375.057.664.39-.045.22-.05.301-.12.597-.133.57.114.217-.021.937l-.167 1.426c-.01.225-.084.35-.112.604zm111.767 113.285c.405-.226.387-.168.738-.162.454.01.768-.105 1.324-.095.258.004.384-.03.662-.054.329-.03.412-.006.719-.05 1.158-.169.758 1.506.752 1.516-.195.277-2.222.46-2.514.408-.552-.098-.726.055-1.468-.017-.33-.464-.355-1.097-.213-1.546zm-111.39-118c-1.725-.173-1.24-.39-1.218-1.7.019-1.063.243-1.51.23-1.976-.005-.183-.033-.484.22-.658.219-.149 1.138-.006 1.298.358.079.181-.138 2.441-.201 2.654-.195.663.164.821-.328 1.321zM2.709 29.027c-.286.063-.275.014-.553-.28-.4-.423-.985-1.099-1.191-1.607-.276-.679-.08-1.46.37-2.043.384-.494 1.163-1.505 1.346-2.037.253-.736.82-1.383 1.217-2 .349-.543.956-1.093 1.445-2.056.116-.229.313-.353.694-1.025.167-.294.484-.672.694-.977.24-.35.479-.674.692-1.024.17-.279.432-.854.546-1.016.506-.729 1.007-1.33 1.515-2.006l2.693-4.06c.207-.42 1.063-1.494 1.404-2.047.665-1.08.7-1.03 1.59-1.9.824-.809 2.09-2.293 3.12-2.628.337-.109.73-.313 1.007-.386.583-.157.98-.234 1.607-.536C21.962.893 22.43.77 23.46.795c.38.01.736 0 1.045.023.21.017.338.083.546.11.18.021.32.001.497.01l1.045.035c.737.003.919.171 1.525.52l1.04.48c.29.172.209.204.385.331.142.101.293.084.53.194.234.108.28.197.495.345.32.22.614.131.974.301.664.318 1.417 1.39 2.048 1.834l1.022.842c.482.31 1.574 1.277 1.978 1.745.623.723 1.587 1.168 2.069 1.688.412.443.765.64.926.813.449.488.558.467.95.838.182.172.354.401.536.565.18.162.259.167.468.321l1.886 1.635c.749.555 1.262 1.23 1.944 1.777.173.14.376.192.53.307.183.136.316.334.482.487.6.555.324-.004 1.985 1.766.797.848 2.29 1.832 3.023 2.604.63.664 1.303 1.227 1.978 1.708.988.701 3.25 3.136 4.038 3.58.59.333.46.566.91.865.449.3.545.475.965.806.4.315 1.723 1.407 1.99 1.74.159.196.716.505.982.754.81.764 1.592 1.666 2.51 2.302.212.145.308.127.514.302.407.345.344.542.876.938.309.232.684.61.959.866l3.998 3.462c.372.446.305.075.907.835.26.331 1.542 1.158 1.99 1.613.15.15.327.376.488.5.232.176.219.064.476.305l2.04 1.751c.909.708 5.289 5.24 6.023 6.172 1.064 1.351 2.663 2.79 3.906 4.13 2.594 2.795 5.526 5.618 8.004 8.508l4.02 4.135c.357.334.368.59.778.987a15 15 0 0 1 .953 1.036l3.888 4.025c.233.187.838.827 1.018 1.07.392.53 1.145 1.434 1.655 1.862.688.575.539.63.892.943.403.361.659.571 1.046.978.317.334.614.772.926 1.054.835.755 1.656 1.848 1.944 2.1.669.586 1.377 1.29 1.998 1.996 1.204 1.372 2.434 2.627 3.624 3.964.374.421.666.546 1.012.977.544.68 2.336 2.441 3.01 3.157.659.696 1.285 1.443 1.885 2.076 1.825 1.928 3.887 4.038 5.595 5.966.907 1.024 1.849 1.754 2.824 3.004.469.601 2.275 2.402 2.873 3.001.267.268.5.645.838 1 1.256 1.318 2.418 2.31 3.642 3.825l6.716 7.057c.317.26 1.598 1.54 1.814 1.882.23.364 3.485 3.793 3.964 4.236.754.7 5.43 5.676 5.814 6.29.473.751 2.184 2.588 2.473 3.155.29.572 1.933 2.492 2.444 3.136.184.231.208.411.33.571.178.233.198.08.383.402.413.714.972 1.53 1.549 2.131.746.78 1.713 2.248 2.446 3.164l1.278 1.577c.224.273.118.26.282.497.28.405.66.663.872 1.071.215.411 1.477 1.77 1.67 2.148.328.632 1.277 1.302 1.623 2.085.238.54.504.541.784.905.12.157.186.404.282.546l1.373 1.554c.299.35.28.488.808 1.065.33.361.384.681.693 1.052l2.426 3.173c.559.563 1.95 2.47 2.468 3.137.393.508.548.476.865 1.07.205.386.576.567.85 1.077.199.37.553.604.82 1.072.278.484 2.31 2.91 2.382 3.035.329.581.537.563.809.96.252.367.022.374.474.883 1.047 1.18 2.522 3.278 3.427 4.23.63.662.77 1.45 1.472 2.147.5.498.483.688.802 1.062.573.672.94 1.165 1.192 2.08.266.97 1.054 2.294 1.327 3.123.128.388.134 1.573.054 2.041-.084.5.106 1.236-.007 2.037-.063.448.013.52-.13 1.043-.281 1.032-.656 1.534-.812 2.073-.116.4-.313.616-.475.978-.137.31-.267.711-.365 1.035-.22.732-2.271 2.201-2.87 2.728-.4.352-.417.575-.96.794-.741.3-1.451.921-2.128 1.252l-3.142 1.971c-.68.464-1.461.824-2.078 1.263-.195.14-.323.284-.56.41-.947.495-.825.622-1.46.963l-5.261 3.278c-.552.411-.564.192-1.025.515-.364.257-.643.531-1.061.775-.52.304-.615.225-1.01.744-.372.488-1.448 1.03-2.016 1.22-.877.295-1.078.732-2.038.094-.518-.344-.538-.245-.927-.728-.241-.3-.735-.688-.644-1.037.377-.06.85.595 1.21.78l2.418.232c.954-.136 1.666-1.136 2.464-1.59.233-.132.406-.29.638-.457.244-.174.352-.188.613-.374.469-.334.79-.347 1.209-.657.768-.569 1.64-1.049 2.427-1.596.952-.665.637-.552 1.124-.913.936-.69.364-1.398.205-1.778-.26-.617-.847-1.13-1.384-1.657-.536-.525-.375-.474-1.07-.83-.623-.322-.507-.4-1.202-.339-.418.035-.775.245-1.155.098-.183-.549.215-.662.58-1.04l4.408-4.162c.299-.359.922-1.78.938-2.17.012-.32-.153-.807-.242-1.109l-.448-1.156c-.215-.457-.36-.679-.77-1.118-.744-.799-2.15-2.489-3.096-2.854-.445-.173-.665.05-1.097-.26-.233-.166-1.912-1.906-2.101-2.149-.254-.324-.276-.227-.543-.487-.21-.203-.28-.37-.51-.593l-3.275-3.334c-1.302-1.515-2.922-3.084-4.337-4.58-1.874-1.986-1.832-1.67-2.262-3.494-.153-.645-.311-.578-.726-1.132-.445-.595-1.508-1.592-2.034-2.133-.426-.437-.4-.562-.963-.95-.561-.387-.852-.273-1.048-.602.395-.293.385-.088.842-.188.604-.133 1.96-.18 2.539-.157.38.015.509-.067.882-.079 1.715-.05.955-.133 2.467.307.24-.219.232-.224.323-.445-.256-.43-.5-.15-.783-1.134a2.917 2.917 0 0 1-.061-.442c-.058-1.09-.256-.703.506-1.745-.138-.31-.08-.319-.41-.608-.638.36-.438.733-1.284.681l-3.424.285c-.35-.007-.457.09-1.378.058-.677-.024-1.353.115-2.041.077-.522-.03-1.547.211-2.044.206-.175-.002-.142-.033-.33 0l-1.048.054c-.527.02-.9.17-1.382.183-.278.008-.413.013-.662.014-.735.004-1.396.17-2.042.15-.492-.017-.917.104-1.38.162-.462.06-.92-.068-1.38.011-.39.067-.367.005-.66.016-.36.011-1.725.256-2.044.166-.23-.065-.426-.257-.648-.493-.395-.253-1.052.09-.562.632.4.445.39.451.527 1.072.078.354.02.442.082.723.147.667.085.722-.431 1.202-.343.322-.637.361-1.051.407-.182.021-.148.042-.331.075-.291.052-.363-.047-.662-.022-.187.017-.22.056-.387.053a23.155 23.155 0 0 0-3.142.177c-.522.06-.848-.056-1.378-.008-.746.067-1.002.273-2.1.204l-2.094.143c-.901.27-1.84-.049-2.764.226l-2.042.12c-.626.078-.8.06-1.377.044l-1.38.08c-.954.127-1.658.012-2.15.072l-1.381.182c-.265.037-.404.016-.662.01-.221-.007-.506.047-.716.027-.66-.056-1.398.124-2.042.121-.74-.002-1.373.184-2.097.157-1.503-.054-3.096 1.077-3.893 1.32-.157.047-.198.084-.336.125-1.17.343-1.25.046-2.038-.007-.127-.01-.222.032-.386.045-.22.017-.108-.008-.33-.024-.287-.022-.361.062-.665.1-.53.064-.888.02-1.376.015-.472-.005-.927.174-1.382.158-.245-.01-.371-.01-.716-.009l-2.422-.046c-1.478-.2-1.67.184-2.346-.652-.421-.52-.795-.67-1.301-.935-.392-.205-1.012-.973-1.347-1.33l-3.963-4.27c-.435-.393-.765-.855-1.23-1.322-.602-.604-.572-.793-1.27-1.309-.275-.203-.861-.982-1.238-1.32-.932-.835-1.305-1.438-1.828-1.95l-1.861-1.882c-1.314-1.33-2.515-2.81-3.81-4.117-.852-.86-1.747-1.853-2.621-2.776-.483-.51-.754-.936-1.221-1.423l-2.576-2.596c-.873-.924-1.725-1.943-2.661-2.8-.424-.389-.711-.848-1.1-1.245-.474-.486-.952-.948-1.428-1.447-.516-.542-.557-.87-1.212-1.28-.358-.226-1.714-1.615-2.005-2.083-.288-.46-.042-.195-.46-.55-.351-.299-.253-.394-.583-.653-.277-.219-2.544-2.798-3.105-3.294-.271-.239-.114-.153-.278-.362-.256-.325-.622-.55-.566-1.004-.694-.388-.494-.217-1.081-.834-.364-.383-.716-.636-1.077-1.036-.713-.793-1.457-1.547-2.19-2.324l-3.154-3.339c-.39-.41-.706-.653-1.08-1.016-.393-.384-.74-.864-1.093-1.22l-3.064-3.212c-.386-.4-.652-.787-1.02-1.175-.322-.34-.77-.76-1.028-1.047-.513-.57-1.534-1.79-2.07-2.189-.346-.257-.242-.306-.481-.513-.3-.26-.252-.137-.5-.509-.221-.335-.23-.27-.465-.47-.235-.2-.246-.317-.435-.54-.757-.893-.772-.644-1.566-1.649-.177-.225-.297-.232-.498-.46-.622-.713-1.926-2.49-1.974-3.418-.01-.194.028-.377.004-.552l-.075-.555c.023-.82-.194-1.4-.07-2.258l.103-1.154c-.013-.64.184-.724.166-1.098l.093-1.153c.037-1.438.225-1.318.344-2.195.063-.464-.15-.556.022-1.097.18-.57.669-1.144 1.045-2.232.19-.547.753-1.708.74-2.237-.015-.665.253-2.036.334-2.8.02-.198-.002-.37.022-.549.028-.21.11-.322.119-.549l.76-6.752c.114-.899.096-1.865.31-2.748.11-.456-.035-.7.177-1.152.445-.946.202-.29.152-1.094-.01-.156.07-.344.076-.606l.09-1.098c.056-.559.224-1.13.197-1.7-.021-.426.018-.669.076-1.102.06-.45-.081-.698-.018-1.102l.323-2.25c.108-.35.193-.776.22-1.094.025-.267.029-.375.05-.607.016-.182.06-.356.076-.548.027-.332.156-.84.157-1.094.002-.44-.044-.692.198-1.156.233-.445.599-.505 1.007-.507.227 0 .343.045.547.098.297.077.3.036.55.063.554.056.609.375 1.089.761 1.035-.252.216-.803.057-1.258-.1-.285.219-2.432.3-2.908.052-.293-.017-.46.037-.713.105-.494.15-.17.098-.715-.03-.306.266-1.765.304-2.196.024-.28.096-.465.129-.712.035-.258-.021-.114-.03-.384l.614-5.383c.175-.774.198-1.466.236-2.196.008-.162.062-.249.069-.383.009-.18-.03-.159-.032-.333-.003-.252.13-.442.13-.766l.297-2.857c.222-.972-.385-.224.602-1.397.309-.367.3-.359-.095-.718-.674.022-.61.748-1.813.386-.508-.152-.537.052-.88-.094-.46-.199-.397-.469-.648-.78-.264-.153-.73.07-.632.465.06.236.26.435.346.671.273.745-.204 2.516-.26 3.355-.022.32-.186.52-.145.823.055.414-.077 1.353-.317 1.691-.65-.664-.232-.639-.61-1.219-.222-.339-.788-.906-1.097-1.185-.943-.849-1.947-2.613-3.326-2.849-.265-.047-.26.042-.603-.099a1.431 1.431 0 0 1-.491-.344l-4.641-4.887c-.237-.205-.221-.3-.417-.543-.357-.442-.585-.608-.97-1.014-.68-.717-6.198-6.436-6.568-6.96-.307-.437-.113-1.703-.68-2.192-.395-.344-.596-.695-1.015-1.055-.818-.7-1.477-1.613-2.251-2.359-.677-.65-.961-.384-1.68-.642-.234-.083-.284-.209-.548-.21-.447-.006-.762.25-1.164.306-.418.06-.774.37-1.174.482-.508.143-.418.387-.91.764-.551.422-1.607 1.55-2.223 2.132-.446.422-1.782 1.903-2.303 1.902-.325-.399.084-.805.179-1.275.146-.73-.262-.694-.401-1.278-.19-.789-.424-.595-.877-1.183-.285-.37-.81-.969-1.165-1.247-.775-.607-1.865-.67-2.392.213-.22.37-.161-.02-.82 1.127-.7 1.22-2.981 4.135-3.36 4.921-.112.235-.128.36-.218.596-.335.877-1.132 1.477-1.095 2.504l.284 1.885c.118.351.784.658.573 1.077zm25.73 28.88l2.14 2.265 1.992 2.18c.264.237.737.682.91.924l.745.86c.275.247.238.335.432.54.182.191.313.203.528.457.17.202.21.345.414.576.164.183.349.315.508.492.19.211.235.364.419.567.385.422 1.093.892 1.615 1.475.436.487 1.262 1.604 1.529 2.198.439.983.514 1.196.639 2.166.1.777.052 1.386-.05 2.147l-.433 3.294c-.147.52-.12 1.07-.18 1.592l-.182 1.59c-.061.953-.14.705-.158 1.1-.017.343-.062.697-.114 1.041-.172 1.127-.09 2.133-.47 3.24-.262.762-.48 1.403-.894 2.118-.847 1.464-.372 1.04-.65 2.133-.08.32-.026.71-.083 1.042-.036.205-.125.295-.181.546l-.157 1.647c.029.563-.057.525-.188 1.097-.083.361-.03.665-.06 1.046l-.027 1.101c-.046 1.348.05 1 .063 1.6l.06 1.102c.024.247-.018.294-.022.495-.008.353.293.771.559 1.106.23.291.443.775.645 1.124.38.66.965 1.091 1.432 1.713.113.151.16.32.308.454.148.135.332.202.5.394l1.468 1.633c.702.696 1.29 1.348 1.979 2.095.662.718.195.32.97 1.007l3.135 3.255c.694.736 1.29 1.44 1.99 2.192.584.626 1.407 1.611 1.98 2.118.603.531 1.516 1.57 1.985 2.178.495.644 1.47 1.51 2.057 2.12l5.154 5.443c.639.4 2.49 2.562 3.147 3.216l2.947 3.264c.955.79 7.909 8.31 9.31 9.796 1.385 1.47 2.68 2.952 4.123 4.364.178.175.342.254.487.451.14.19.162.37.356.563.442.448.446.31.922.96.349.477.753.621 1.05 1.02.422.56.449.521.926.973.26.25.585.76.955 1.124l4.602 4.914c.893.808 1.61 1.675 2.454 2.562l3.132 3.28c.55.744 1.303 1.092 1.949 1.67l1.057.69c.159.11.362.167.539.176l3.797.146c.399.006.666-.105 1.104-.083a3.89 3.89 0 0 0 1.049-.056l3.252-.153c1.895-.079.572.562 3.267-.6.449-.194.649-.169 1.113-.4 1.433-.72 1.738-.322 3.21-.533.265-.039.33-.007.553-.023 1.124-.08 2.662-.3 3.75-.293.472.003.549.102 1.105-.012.707-.145 3.376-.275 4.305-.335.183-.012.824-.06 1.047-.02.693.121 1.584.366 2.182.717.25.145 1.918 1.286 2.084 1.542.364.563 1.292 1.45 1.796 1.94l1.98 2.02c.316.351.58.727.967 1.097.377.358.665.612 1.022 1.065.593.752 1.359 1.473 2.032 2.18l.958 1.016c1.364 1.462 1.507 1.584 3.078.013.6-.603 1.757-1.437 2.12-2.043.302-.498 3.535-3.402 4.207-3.98.9-.773.724-1.033.71-1.61-.003-.15.065-.366.118-.493.254-.608 3.503-3.409 4.245-4.186.835-.873 2.186-1.282 3.288-1.032.26.06.284.131.544.224.71.252 1.03.58 1.592 1.167.69.722.392.895.492 1.693.072.566 1.906 2.282 2.375 2.777.387.407.556.717.897 1.08l10.26 10.648c.289.345.576.692.878 1.006.275.286.654.69.966.964.264.23.188.288.338.508.16.236.317.26.529.442.347.295.572.642 1.017.771.4.115.765-.059 1.109.135.382.22.672.613.903.947.499.717.319.383.532 1.118.117.401.227.661.347 1.056.126.415-.031.68-.246 1.091-.22.42-.123.593-.55 1.021-.36.362-.735.708-1.07 1.094-.5.578-2.356 2.195-3.001 2.76-.361.316-.672.851-1.12.922-.226.035-.284-.048-.55-.008-.925.14-2.027 1.53-2.757 2.225-.408.39-.712.55-1.135.951-.287.273-.74.772-.97.963-.583.484-.474.53-.836 1.021-.291.398-.636.435-.996.911-.885 1.167-2.777 1.68-1.51 3.11.225.251.792.906.985 1.074.539.47 1.557 1.758 2.08 2.046.916.504 1.168.681 2.139.407 1.506-.425 1.385-.212 2.729-1.183.25-.182.386-.215.555-.335.407-.289.64-.612 1.122-.896.235-.137.358-.238.592-.405.184-.13.32-.153.542-.288.393-.24.689-.443 1.064-.644.522-.278.6-.372 1.114-.75.709-.52 1.493-.773 2.184-1.313a13.728 13.728 0 0 1 2.199-1.385c.299-.15.317-.253.565-.419.146-.099.288-.147.498-.283l6.562-4.2c.946-.477 3.454-3.135 4.48-4.046.738-.655 1.252-1.177 1.59-2.038.484-1.22 1.082-2.44 1.079-3.772 0-.187-.04-.324-.018-.496.045-.375.152-.689.038-1.099-.065-.234.024-1.642-.022-2.15-.067-.73-.45-1.487-.714-2.167-.121-.308-.004-.246-.167-.558-.107-.206-.196-.296-.294-.505-.252-.542-.425-1.134-.707-1.67-.1-.192-.211-.398-.3-.56l-1.643-2.179a19.474 19.474 0 0 1-.825-1.146c-.368-.583-1.517-1.862-1.634-2.076-.352-.645-1.11-1.603-1.6-2.195-.28-.338-.644-.743-.898-1.084-.338-.454-.485-.658-.896-1.13-.151-.173-.81-.852-.864-.953-.116-.216-.056-.296-.275-.549-.181-.21-.295-.24-.433-.456-.146-.228-.141-.339-.32-.55l-3.406-4.295c-.142-.209-.346-.375-.512-.568-.328-.383-.305-.514-.858-1.119-.341-.372-.398-.616-.804-1.059-.472-.514-.1-.53-.833-1.106-.198-.154-.553-.735-.733-.998-.15-.217-.31-.372-.394-.562-.115-.257-.044-.27-.307-.543-1.05-1.087-3.418-4.075-4.301-5.419-.193-.293-.684-.843-.925-1.108-.17-.182-.374-.373-.51-.584-.126-.198-.083-.25-.287-.485-.173-.2-.37-.354-.516-.576l-1.21-1.638c-.532-.448-1.157-1.519-1.616-2.14l-1.77-2.188c-.306-.378-.68-.783-.97-1.14-.285-.353-.493-.752-.762-1.073l-2.446-3.327c-.2-.314-.26-.26-.45-.469l-1.271-1.619c-.156-.269-2.312-2.616-2.603-3.264-.203-.453-1.57-1.756-2.01-2.199-.22-.219-.3-.388-.503-.596-.197-.203-.367-.299-.577-.528l-4.214-4.48c-.731-.709-1.328-1.507-2.062-2.235-.383-.379-.43-.598-.837-1.025-1.41-1.477-2.704-2.86-4.12-4.359l-8.147-8.482c-.637-.719-1.55-1.497-2.098-2.198-.41-.523-.591-.575-.985-.996-.206-.218-.27-.427-.4-.593-.375-.483-3.006-3.338-3.435-3.658l-4.843-5.106c-.59-.527-4.728-4.749-5.243-5.502-.226-.33-1.633-1.692-2.028-2.107-.413-.435-.504-.653-.827-1.035-1.052-1.247-6.771-6.872-7.111-7.482-.331-.594-.576-.603-.948-.906-.64-.517-5.328-5.619-6.11-6.516-.277-.32-.651-.803-.97-1.06-.374-.306-.597-.546-.83-.92-.158-.259-1.758-1.91-2.068-2.178-.925-.797-11.542-11.962-12.256-12.88-.284-.368-.673-.676-1.021-1.047l-.818-1.047c-.301-.427-1.694-1.733-2.165-2.244-.286-.31-.237-.29-.427-.593-.16-.254-.296-.259-.513-.445-.56-.479-1.416-1.623-1.99-2.028-.234-.165-.263-.103-.548-.392-.721-.73-.483-.42-1.01-.872-.537-.462-.332-.42-1.068-.949-.176-.125-.31-.295-.485-.443-.381-.324-.704-.76-1.064-1.044a9.364 9.364 0 0 1-1.063-.947c-.226-.226-.348-.259-.548-.45-.186-.179-.256-.33-.438-.495-.726-.66-1.432-1.019-2.111-1.698-.301-.3-.667-.65-1.006-.98-.354-.345-.656-.5-1.066-.922-.367-.376-.613-.358-1.058-.822-.326-.34-.237-.212-.523-.397-.387-.25-.2-.245-.354-.539-.107-.205-.74-.599-.98-.798-.42-.352-.561-.603-.963-.946-.727-.622-1.235-.758-2.091-1.674l-1.04-.945c-.637-.55-.321-.346-1.071-.856-.504-.34-.365-.577-.907-.887-.621-.355-4.234-3.823-5.322-4.629l-1.451-1.22c-.211-.197-.288-.365-.533-.534-.52-.36-.47-.204-.926-.772l-1.62-1.377c-.227-.182-.278-.355-.507-.574-.177-.17-.411-.314-.557-.44-.193-.17-.35-.382-.538-.548-.183-.16-.361-.22-.532-.37-.172-.15-.318-.35-.484-.502-.218-.2-.348-.197-.531-.367-.147-.137-.271-.358-.438-.539-.372-.399-.685-.49-1.014-.78-.26-.23-.208-.339-.415-.55-.237-.243-.305-.139-.548-.285-.706-.42-1.533-1.289-2.116-1.91-.491-.526-.692-.497-1.058-.827-.192-.175-.33-.373-.54-.54-.145-.118-.384-.265-.531-.394-.19-.168-.352-.376-.53-.552-.24-.239-.338-.238-.514-.38-.466-.38-.057-.223-1.07-.933-.43-.302-.354-.41-1.014-.818-.143-.089-.724-.693-.97-.896a31.046 31.046 0 0 1-1.013-.893c-1.182-1.097-1.762-1.72-3.193-2.395-.288-.137-.801-.279-1.002-.484-.38-.388-.513-.409-1.004-.587-.366-.133-.692-.359-1.033-.509-.188-.084-.387-.185-.544-.244-.263-.098-.308-.026-.548-.045-.51-.042-.99-.168-1.593-.11-.674.063-1.52-.09-2.203-.076-.59.011-1.012-.19-1.595.081-.722.335-1.465.507-2.177.84-.294.14-.293.191-.557.258-.671.17-.831.085-1.613.57L15.19 3.705c-.333.385-.41.641-.934 1.068L12.49 6.755c-.26.326-.416.716-.638 1.037-.497.72-1.016 1.366-1.521 2.102-.226.33-.43.727-.662 1.082L7.43 14.16c-.4.6-.37.4-.676 1.09-.244.55-1.065 1.435-1.412 2.106-.236.457-.505.58-.747 1.027a11.867 11.867 0 0 1-1.422 2.095l-1.124 1.627c-.103.167-.115.336-.168.492-.226.667-.953 1.462-1.333 2.105-.213.36-.261.766-.386 1.098-.478 1.262.18 2.173.98 3.28.52.72 1.355 1.35 1.943 2 1.156 1.276 1.515.663 2.14.071.73-.69 1.498-1.382 2.212-2.086.352-.345.357-.544.915-1.066.373-.35.752-.736 1.132-1.073l1.135-.949c.4-.38.636-.609.97-1.013.33-.398.87-.699 1.15-1.054.302-.379.107-.69.078-1.055-.045-.56 1.25-1.589 1.644-1.988.655-.664 2.497-2.632 3.287-3.112.267-.163.746-.296 1.055-.427 1.17-.495 1.037-.223 2.147.133.428.136.7.322 1.076.674.389.365 1.089.964.994 1.486-.265 1.477 1.768 2.583 2.513 3.598l1.812 1.906c.399.323.468.62.96.986.31.234.215.147.39.443.21.355 2.144 2.307 2.439 2.56.33.282.513.586.959 1.027.64.631 1.012 1.26 1.242 1.495.222.227.329.311.53.575.946 1.237 4.32 4.396 5.076 5.384 1.73 2.258 2.156.86 3.214 1.997.232.25.852.844.998 1.086.117.196.674 1.996.639 2.175-.017.087-.382.927-.46 1.086a3.303 3.303 0 0 1-.803 1.058l-1.568 1.532c-.188.176-.347.247-.55.441-.708.676-1.404 1.494-2.17 2.133-.505.423-.613.027-1.114.152-1.386.346-2.115 1.674-3.144 2.588-.69.613-1.513 1.194-2.096 1.96-.703.92-1.176 1.243-1.975 2.01-.336.324-1.676 1.547-1.473 2.096z"/>
        <path d="M25.746 17.953c.199-.072.317-.09.473-.005-.186.33-.288.354-.576.39-.015-.267-.013-.145.103-.385m.741-.46c.046.155.197.248-.183.327-.015-.169-.03-.26.183-.328m.636-.585c.029.123.151.04-.011.242-.149.184-.192.07-.265.05.084-.239.057-.183.276-.293m.7-.721c.141-.142.103.113.034.05l-.006-.005c-.06-.079-.193.12-.028-.046m-13.561 2.63c-.317-.883-.711-.456-1.356-.538-.251-.296-.401-.523-.701-.849-1.52-1.648-1.167-.953-1.505-2.62-.247-1.223.102-1.596.91-2.514.255-.29.253-.508.58-.863l2.446-3.332c.521-.657 1.466-1.92 2.044-2.465.376-.353.534-.396.885-.649.209-.149.665-.514.854-.676.365-.314 1.313-1.066 1.723-1.117.373-.048.529-.053.879-.167l.84-.221c.566-.143 1.127-.486 1.718-.423.783.082 1.393-.004 2.145.17.329.076 1.111.026 1.266.037.887.058 1.746.958 2.554 1.317 2.388 1.067 1.266.758 2.535 1.676.374.27.504.497.872.755.332.232.462.444.774.728.352.321.491.244.831.659l3.268 2.965c1.366 1.431-.067 2.37-1.034 3.37-.725.75-2.688 2.585-3.391 3.054-.31.21-.562.543-.762.793-.521.654-1.14 1.046-1.691 1.666-.196.218-.552.543-.796.78-.892.854-.817.866-1.752.508-.743-.285-2.027-.727-1.673-1.902.174-.575 2.593-2.636 3.229-3.241.525-.497 1.057-1.168 1.726-1.515.284-.147.56-.018.856-.17.398-.432-.549-.913-1.171-.726-.279.083-.26.178-.528.127.202-.463.167-.667.193-1.127.011-.19.007-.216-.003-.422-.961-.774-.748.385-.912.662l-4.536 4.442c-1.069.837-1.95-.454-2.599-1.168-.53-.583-.384-.356-.926-.444-.636-.104-1.59-.833-2.291-.825-.16.002-.102-.008-.217-.008-.126 0-.058-.027-.222.021l-.947.437c-.527.232-1.433.463-1.832.746-.173 1.197 1.5.499 2.091.155 1.715-.998 1.791.025 3.069.268l.594.216c.291.192.953.966 1.236 1.267.757.802 1.765 1.76 2.415 2.598.202.262.825.745 1.105 1.04l4.776 5.023c.4.423.794.896 1.212 1.325.364.369.843.575 1.26.67.459.107.85.298 1.274.133.053-.376.03-.565-.432-.66l-.929-.28c-.614-.207-2.986-2.922-3.6-3.576-.258-.276-1.623-1.596-1.561-1.945.06-.203.2-.178.42-.213.381-.063.244-.074.609-.313.558-.366 3.028-2.816 3.556-3.348l2.349-2.12 2.435-2.298c.446-.42.59-.69.713-1.154.27-1.013.371-.323.641-.138.767.527 1.602 1.171 2.306 1.878l1.735 1.43c1.075.896 1.346 2.33 1.896 2.857 1.026-.322.061-1.297-.208-1.987-.129-.332-.269-.515-.513-.774-.48-.512-1.819-1.551-2.161-1.912-.272-.287-.449-.516-.774-.745-.317-.226-.414-.36-.7-.659l-1.507-1.199c-.663-.453-1.376-1.533-2.092-1.947-.399-.23-.433-.368-.762-.655-.237-.207-.518-.363-.76-.572-.297-.258-.423-.345-.682-.547-.334-.261-.468-.513-.751-.776-.279-.258-.424-.27-.741-.583-.284-.278-.506-.38-.757-.601-.286-.253-.366-.46-.705-.65-.41-.229-.422-.23-.782-.595-.984-.994-1.204-.768-2.199-1.464-.39-.274-.454-.166-.758-.328-.248-.132-.487-.363-.754-.49-.159-.075-.549-.15-.77-.21-.696-.183-1.543 0-2.254-.089-.142-.016-.23-.048-.387-.064-.141-.013-.245-.004-.382-.012-1.56-.09-1.536.07-3.043.462-.281.074-.466.09-.721.194-.127.05-.26.117-.391.147-.168.038-.22.025-.388.066-.26.065-.576.083-.758.223-.373.285-.416.338-.816.58-.481.288-.852.665-1.396.973-.387.216-.475.417-.704.7-.216.268-.851.574-1.874 2.096-.358.53-.821.978-1.15 1.513-.398.648-1.13 1.543-1.628 2.215-.214.288-.294.533-.479.748-.435.505-.762.896-1.177 1.454-.185.25-.165.44-.123.77.073.58.214 1.774.417 2.266.238.578.79 1.061 1.281 1.534.477.462 1.294 1.838 2.095 1.614.223-.064.605-.24.801-.442M182.36 178.193l-2.443 2.607c-.321.29-.422.617-.886.43-.188-.582.38-.477.905-.974.586-.552 1.96-2.092 2.425-2.063m-1.76-17.267l-.325.327c.39.6 1.783.944 2.567 1.914.278.343.439.58.788.97.28.315.32.596.55.875.33.4.492.552.789.968.38.532 1.137 1.302 1.316 1.844-.365.68-.826.392-1.324.622-.252.116-1.241 1.064-1.531 1.34l-1.396 1.353c-.224.256-.503.382-.74.586-.292.249-.434.572-.685.727-.59.364-.894.695-1.407 1.243-.455.487-.967.885-1.396 1.334-.36.375-.948.814-1.315 1.234-.228.262-.047.308-.242.699-.114.228-.266.568-.421.705-.653-.083-1.311-.977-1.701-1.484-.355-.462-2.742-2.63-3.36-3.511-.401-.575-.115-1.571-.868-1.778-.508.208-.216.664-.12 1.09.124.54-.024.739.464 1.258.803.855 1.608 1.703 2.412 2.548.912.958 6.426 6.672 7.002 7.424.257.337.108.257.468.53.555.42.794 1.264.976 1.898.364 1.266.538 1.239-.083 2.474-.202.4-.322.86-.518 1.197-.175.299-.337.315-.12.608.23.309.38.274.64.223.034-.021 1.469-2.532 1.304-3.367-.08-.405-.154-.737-.352-1.17-.522-1.14.07-.851-1.063-2.293-.75-.954-1.303-1.168-.145-2.29.762-.736 1.55-1.462 2.323-2.191.66-.625 1.632-1.76 2.348-1.934.07-.018 1.089-.113.47-.65-.533-.464-1.938.373-2.308.813-.3.357-.718.779-1.117 1.025a.686.686 0 0 1 .19-.495c.314-.343.803-.512 1.072-.856.185-.236.136-.234.382-.461.33-.302.439-.69.45-1.058.016-.492-.04-.668-.59-.697-.373.445-.02.472-.32.894-.053.075-.63.61-.76.733-.292.278-.567.478-.875.775-.306.296-.443.554-.785.867-.61.557-1.21 1.135-1.812 1.709-.365.348-.498.588-.92.592-.237.002-.631-.026-.864-.232-.677-.598-.823-1.114-.882-1.78-.026-.29-.015-.135.055-.438.045-.192.054-.3.076-.437.064-.408.279-.514.635-.85 1.116-1.045 2.489-2.534 3.664-3.415.655-.491 1.117-1.12 1.714-1.666.313-.285.569-.411.867-.76.355-.414 1.164-1.316 1.716-1.455 1.167-.294 1.787-.201 2.552.862.254.352.52.586.755.9.293.395.129.31.637.904.295.345.245.489.626.904l2.01 2.589c.39.579.98 1.232 1.267 1.85.167.358.127.499.347.896.15.27.307.564.4.887.263.906.656 1.012.633 2.223l.03 1.324c.02.322.056.572.04.88-.051.952.127.765-.302 1.81-.268.653-.571 2.043-.857 2.62l-2.702 3.377c-.692.548-1.221.588-1.81 1.048l-3.573 2.227c-.607.409-1.25.714-1.863 1.184-1.352 1.034-1.328.723-2.65.559-.377-.046-.521-.016-.888-.385-.503-.503-1.756-1.608-1.825-2.275-.05-.477.375-.937-.53-1.025-.18.175-.346.453-.386.665-.17.902.687 1.668 1.287 2.29.38.395 1.018 1.096 1.447 1.289.484.218 1.016.159 1.533.3 1.523.417 2.144-.597 3.732-1.465.295-.161.498-.364.779-.566.89-.645 2.183-1.222 3.088-1.901.86-.647 2.039-.756 2.957-2.06.228-.322.238-.433.55-.742.325-.32.348-.48.597-.755.84-.928.73-.807 1.142-1.795l.369-1.146c.28-1.011.789-1.944.677-3.01l-.004-2.975c.099-.586-.223-.94-.45-1.498-.113-.28-.143-.53-.23-.78-.135-.398-.312-.451-.454-.791-.125-.3-.052-.353-.307-.721a4.932 4.932 0 0 1-.457-.782c-.2-.426-.34-.397-.583-.725-.232-.315-.04-.391-.42-.706-.712-.592-1.01-1.467-1.637-2.17l-1.307-1.526c-.162-.24-.225-.518-.461-.725-.492-.432-.311-.162-.492-.677-.117-.336-.43-.43-.56-.687-.193-.382.087-.24-.41-.636-.465-.374-.358-.4-.65-.764-.18-.227-.6-.58-.722-.794-.194-.34.115-.313-.447-.722-.462-.336-.296-.3-.528-.677-.121-.197-.436-.448-.615-.671-.404-.506-.832-1.086-1.252-1.587-.765-.913-1.814-1.727-2.976-1.98M169.289 163.003c.268.266.646.473.568.833-.119.552-1.106 1.193-1.493 1.375-.251-.27-.324-.485-.455-.77-.325-.71.231-1.843.652-2.125.748.347.27.233.728.687m.667 1.475c.511-.483.884.076 1.278.51.53.583.93.734.181 1.174-.232.137-.426.263-.669.31-.167.03-.543.045-.66.02-.043-.01-1.11-.519-1.273-.703.235-.584.539-.74 1.143-1.31m.807-.726c.482-.579 1.046-1.145 1.689-1.315.658.69.772 1.464.365 2.2-.618 1.118-.645.862-1.698-.253-.321-.339-.289-.236-.356-.632m-1.29-1.027c-.154-.163-.232-.313-.353-.507-.179-.288-.256-.266-.052-.483.293-.309 1.273-.668 1.933-.397.266.108.728.301.921.578-.219.606-.519.67-1.018 1.02-.733.51-.823.434-1.431-.21m-1.887-1.89c-.172.49.283.367-.133 1.333-.806 1.871-.604 1.467.185 4.017-.32.306-.43.272-.34.63.635.046.339-.556 1.564.017.191.09 1.314.521 1.528.54.618.055 1.724-.66 2.332-.59.363.041.42.241.742.387.027-.107.061.005.006-.148-.094-.26-.3-.29-.352-.612-.032-.2.063-.55.166-.767.502-1.054 1.099-1.31.264-3.076-.133-.28-.237-.464-.28-.784-.069-.5.25-.364.037-.76-.364 0-.314.21-.698.136-.618-.12-1.6-.924-2.125-.902-.27.01-.497.16-.723.26-.423.19-.407.096-.723.167-.578.13-.386.502-1.216.22-.182-.06-.047-.035-.234-.069M41.047 30.2c.178-.4.394-.525.78-.894.337-.322.464-.594.887-.43.559.222 1.202.938 1.404 1.483-.294.41-1.1.754-1.572.607-.59-.186-1.22-.221-1.5-.765m.449-2.837c.174.202.567.635.648.795-.207.563-.434.582-.881 1.004-.364.345-.82 1.028-1.205-.682-.132-.587.106-1.246.563-1.7.337.07.613.28.875.583m1.642.98c.208-.425.78-.751 1.148-1.087.239-.22.344-.365.59-.12.437.435.519 1.178.32 1.71-.662 1.777-.933.9-1.246.607-.312-.292-.96-.533-.812-1.11m-2.044-2.085c.333-.337 1.265-.541 1.602-.543.312-.002 1.27.337 1.529.673-.11.55-1.166 1.36-1.6 1.629-.32-.111-1.423-1.184-1.531-1.76m-1.565-1.312c-.193.36.035.247.249.772.14.346-.48 1.917-.574 2.352-.172.789.492 1.569.633 2.333.09.492-.391.358-.292.836.57.028.212-.471 1.508.035.345.135.664.512 1.523.604.473.05.957-.222 1.497-.406 1.49-.51 1.01-.077 1.532.019-.005-.273-.147-.306-.297-.604.349-1.014 1.058-1.435.945-2.616-.067-.702-.541-1.031-.607-2-.034-.49.174-.358.15-.722-.367-.116-.38.132-.786.134-.236.002-.521-.163-.761-.277-1.49-.71-1.383-.54-2.365-.2l-1.165.237c-.917.048-.724-.253-1.19-.497"/>
    </g>
</svg>
