<svg xmlns="http://www.w3.org/2000/svg" width="198" height="207" viewBox="0 0 198 207">
    <g fill="#F48264" fill-rule="evenodd">
        <path d="M48.117 107.425c.114-.246.322-.196.373-.198-.114.213-.134.292-.398.359.005-.046-.024-.057.025-.161zm1.565-1.554c.241-.227.618-.583.89-.592-.056.239-.259.28-.466.55-.3.396-.13.195-.498.37-.47.225-.258.79-.953.91-.037-.478.474-.606.685-.801.19-.176.092-.2.341-.437zm1.933-1.397c.04-.397.798-1.197 1.227-1.472.358.386-.014.41-.39.816-.283.306-.432.574-.837.656zM74.83 122.3c.323-.236.528-.177.837-.285l1.681-1.124c.267-.177.53-.367.84-.568 1.165-.75.862-.754 1.669-.388.763.346.928.516 1.436 1.328 1.157 1.853-.276 1.904-.912 3.278-.471 1.02-.978.883-1.07 1.62-.028.216-.097.743-.588.469-.606-.337-1.268-1.321-1.55-1.626-.822-.888-.45-.438-1.08-1.016-.305-.28-1.186-1.368-1.263-1.688zm7.239 7.812c.403-.567 1.038-1.041 1.66-.583l3.22 3.38c.515.54 1.985 1.847.57 2.564-.332.168-.555-.116-.825-.391-.553-.562-1.097-1.035-1.668-1.64-.555-.586-1.097-1.187-1.66-1.756-.395-.402-1.096-1.11-1.297-1.574zm-15.67-16.61c.44-.821 1.095-1.141 1.858-.418.6.57 1.418 1.378 1.938 2.015.445.545 1.352 1.503 1.84 1.992.418.422.582.436.438.944-.138.483-.297.652-.747.98-1.181-.82-.582-.455-1.445-1.32-1.014-1.013-3.306-3.298-3.883-4.193zm-3.22-3.495c1.175-1.971 1.999.052.64.644-.371-.171-.431-.311-.64-.644zm31.55 31.344c.378.18.925.923.938 1.252.016.393-.701.997-1.002.934-.172-.036-.49-.414-.657-.59-.7-.737.518-1.694.721-1.596zm-34.324-36.435c.285.15.982.907.688 1.273-.032.037-.846.66-1.297.383-.144-.087-.53-.502-.645-.648-.239-.294-.286-.383-.075-.673.355-.49.79-.618 1.328-.335zm30.863 32.854c.8.375-.483 1.376-.832 1.21-.67-.316-.103-1.108.373-1.293.276-.11.21-.034.46.083zm4.049.092c-.097.426-.556 1.094-.832 1.468-.224.308-.212.59-.792 1.392-.13.176-.184.193-.29.38-.133.238-.233.614-.572 1.042-.555.698-.95.99-1.431.497-.95-.975-1.766-2.001-2.719-3.011-.899-.95-1.764-1.998-2.69-2.864-.393-.368-.928-1.03-1.335-1.48-.236-.257-.428-.37-.672-.642l-1.79-1.952c-.471-.497-.918-.898-1.377-1.383-.252-.268-.373-.493-.597-.718-2.11-2.092-4.124-4.28-6.192-6.472-.23-.242-.49-.488-.71-.724-.223-.241-.308-.441-.584-.731l-5.407-5.738c-.56-.354-.224-.19-.592-.587-.492-.531-1.484-1.674-1.972-2.073-.59-.485-.876-.976-1.343-1.446-.224-.228-.471-.374-.668-.631-.521-.682-3.024-3.004-3.158-3.332-.216-.526.405-.954.887-1.287.309-.214 1.064-.556 1.464-.778.59-.327 2.358-1.48 2.892-1.417-.216.574-1.822 1.945-2.326 2.398-.277.248-.273.318-.563.546-.269.209-.348.28-.425.587-.116.46-.116.779.379 1.195l4.777 4.906c.713.842 2.177 2.205 2.79 2.904l2.962 3.265c.26.368.814.769 1.178 1.196.347.408.617.81 1.014 1.176l3.647 3.849c.76.952 1.406 1.479 2.25 2.374l9.253 9.796c.487.596.5 1.234 1.663 1.288.605.026.822-.367 1.302-.86.485-.5 2.043-2.098 2.579-2.133zm3.174 7.178c.585.619 1.004 1.258 1.76 1.597.522.233 1.338.328 1.939.85-.402.397-.833.53-1.262.587l-.609.05c-1.323-.186-.662-.417-1.743-.595-.552-.09-2.148-1.978-2.294-2.267.265-.544.745-1.016 1.392-.945.44.046.47.357.817.723zm-43.26-43.916c-.231-.478-.21-.023-.398-1.058-.117-.637.483-1.786.84-1.941.223.092.204.193.227.26.027.08.042.22.078.34.233.765.34 1.57.773 1.969.45.414 1.358 1.286 1.602 1.785.156.318.169.184.068.464-.046.242-.526.708-.81.823-.374.153-.623-.225-.934-.537-1.823-1.827-.903-.98-1.446-2.105zm34.039 36.514c-.872-.511.777-1.476 1.118-1.9.791-.984 1.246-.411 1.966.429l.42.56c.115.213.074.413-.231.49-.213.055-.88-.286-1.106-.405-.934-.492-1.73.729-2.168.826zm-24.276-29.291c.25-.401.482-.802 1.154.13.405.562 2.026 1.037-.943 3.237-.306.229-.428.103-.644-.201.154-.608.772-.756.942-1.555.15-.694-.22-.98-.51-1.611zm36.636 44.06c-.918-1.503-1.712-2.025-3.011-2.633-1.02-.48-1.731-1.484-2.462-2.206-.242-.24-.619-.537-.797-.743-.18-.205-.131-.253-.323-.448-.157-.161-.215-.143-.367-.291-.248-.24-.398-.53-.716-.83-.472-.443-1.25-1.028-1.276-1.586l.395-.322c.537.26 1.474 1.588 2.093 2.099l1.98 2.038c.876.944 1.276.857 2.219 1.34.8.41 1.37.268 2.2.013 1.223-.375 1.537-.442 2.289-1.157l3.342-3.182c.363-.263.787-.728 1.124-1.048.346-.327.817-.717 1.117-1.067l.938-.938c.7-.62 1.444-1.414 2.095-2.105.384-.406.686-.62 1.086-.272.688.597.186.906.046 1.073-1.45 1.723-.566.72-2.043 2.09-.315.292-.66.78-.999 1.096l-2.234 2.055c-.883.917-1.199 1.216-2.157 1.999-.34.279-.143.176-.369.462-.145.185-.336.23-.517.373-.206.16-.275.352-.504.553-.909.79-.797.595-1.087 1.609-.13.452-.743 1.779-.618 2.189.037.119 1.899 2.62 2.658 2.843 1.22.363 1.52.682 2.452 1.082.185.079.276.075.487.155.77.29 1.064.47 1.965.765 1.117.366 1.032.506 2.013.809.42.13.612.316.978.448.347.126.63.174.986.408.565.37.409.236.974.402.326.095.585.315.984.43.688.198 1.579.606.716 1.437-.541-.091-1.856-.714-2.493-.953-.818-.308-.41-.21-.82-.392l-3.322-1.26c-.382-.156-.338-.278-.87-.431-.284-.082-.504-.23-.816-.374-.409-.194-.517-.14-.823-.262-.252-.102-.584-.352-.813-.41-.246-.062-.12.063-.433-.134l-2.448-1.156c-.204-.057-.211-.02-.38-.15-.186-.142-.453-.635-.623-.88l-.606-.837c-.198-.25-.242-.502-.505-.86-.215-.288-.538-.568-.705-.84zm-53.767-58.65c.09.242.231.734.332.89.042.062.758.908.79.935.192.16.545.285.864.54.745.596.346.948 1.69.58.589-.161 1.25-.223 1.837-.474.824-.353 4.303-3.95 5.245-4.816 1.258-1.156 2.306-2.368 3.513-3.373.6-.5 1.07-1.304 1.645-1.59 1.485.679.69 1.403-.386 2.526l-5.548 5.242c-.752.654-2.133 1.902-2.772 2.619-.395.444-.425.962-.64 1.354-.965 1.752-.718 1.3-.291 2.742.596 2.017.586 1.346 1.69 2.642.297.347.78.932 1.152 1.247.844.717.536.529.805.887.21.282 1.192 1.287 1.428 1.705-.523.824-.834.138-1.678-.761-.103-.111-.257-.22-.354-.35-.152-.203-.05-.192-.237-.385-.172-.177-.722-.647-.809-.766-.157-.217-.047-.277-.212-.477-.287-.347-.215.157-1.245-1.145-.201-.253-.515-.476-.776-.791-.61-.738-.693-1.405-.88-1.84-.105-.241-.448-.706-.633-.906-.45-.482-1.238-1.396-1.723-1.758-.774-.58-3.052-2.116-3.352-2.785-.41-.913-.5-1.577-.623-1.844-.076-.163-.17-.274-.242-.431-.151-.334-.02-.232-.067-.451-.024-.11-.32-.685-.407-.89l-.897-2.727c-.09-.305-.273-.57-.408-.898-.133-.321-.151-.59-.294-.94-.125-.307-.223-.618-.31-.891-.13-.402-.068-.478-.259-.886-.345-.734-.144-.26-.324-.893-.091-.328-.267-.5-.355-.89a3.58 3.58 0 0 0-.303-.892c-.614-1.373.771-1.09.771-1.09l.734 1.905c.203.934.92 2.79 1.276 3.674.253.634.306 1.14.612 1.835.19.43.156.518.284.94.123.408.264.542.364.894.084.29.121.657.27.94.242.46.26.414.36.896.114.534.204.519.363.947zm65.208 41.91c.317-.3.76-.65 1.043-.35.674.714.576.69-.05 1.29-.567.544-.487.486-1.088.65-.747-.73-.741-.8.095-1.59zM66.584 86.917c.19-.178.505-.407.734-.578.5-.375.862.156 1.014.53l-.533.655c-1.069 1.147-1.93.068-1.442-.393l.227-.214zm49.1 50.009c.448.283.447.854.079 1.254-.245.265-.445.287-.675.456-.276.204-.4.375-.682.155-.56-.433-.607-.885-.077-1.221.519-.331.878-.946 1.356-.644zM64.555 85.648c.202-.316.61-.493.931-.8.75-.717.772-.355 1.254.15.278.292.163.328.163.329-.022.394-.975 1.079-1.687 1.259-.365-.357-.651-.525-.66-.938zm4.462-1.031c.355-.333 1.114-1.336 1.629-.186.153.34-.19.609-.58.957-.794.703-1.276 1.43-1.826.595-.307-.47.403-1.01.778-1.366zm49.508 50.652c-.162.41-.559.718-.953 1.087-.51.477-.398.229-.773.588l-.259.17c-.226-.134-.528-.367-.603-.641-.087-.4.142-.343.82-.983.524-.496.828-1.697 1.767-.221zM68.049 82.347c.52-.491.936.199 1.208.687-.206.444-.174.43-.592.773-.729.593-1.108 1.4-1.819.709-.71-.692-.212-.833 1.203-2.17zm46.994 53.197c-.897-.682-.863-.8-.172-1.483.449-.445 1.029-1.078 1.517-.942.201.056.67.346.587.617-.046.149-.551.32-.75.513-.34.334.002.302-.46.75-.24.233-.442.438-.722.545zM73.81 76.569c.523.303 1.42 1.262 1.852 1.757 1.901 2.178 3.672 2.787.034 5.244-.751.507-1.666 3.136-3.49 1.24l-1.722-1.805c-.276-.294-.57-.682-.802-.903-.445-.42-.39-.413-.659-.861.36-.498.913-1.28 1.51-1.534 1.126.846.931.954 1.168 1.588 1.394.239.65-1.236-.113-1.853-.322-.26-.174-.37-.69-.74l-1.691-1.756c-.717-.901-.163-.25-.823-.85-.29-.265-.597-.734-.91-.953-.25-.177-.64-.251-.953-.512.379-.476.297-.591.861-.832.346.34.152.185.231.527.195.83.492.679.894 1.116.32.345.548.586.903.9.278.244.454.592.736.88.257.265.558.454.796.73.138.16.17.293.323.457.201.217.233.16.436.344.753.682.902 1.118 1.786 1.349.934-.824-.59-.644-1.186-2.055.28-.572.883-1.163 1.51-1.478zm52.126 49.988c.498.06.79.47.911.912l-1.561 1.517c-.585.556-.95-.095-1.044-.495-.142-.6.418-.697.695-1.008l1-.926zm-3.305.499c-.088-.355-.064-.45.296-.786 1.657-1.551 1.495-1.791 2.367-.665-.132.518-.736 1.022-1.156 1.45-.308.312-.828 1.059-1.507 0zM74.82 76.133c-.09-.36.138-.517.493-.838.322-.29.552-.457.85-.7.4-.328.425-.494.849-.215 1.09.722.404 1.055-.745 2.155-.277.266-.487.587-.806.368-.25-.171-.59-.551-.641-.77zm4.215.398c-.177.532-.287.528-.77.983-.954.9-1.117 1.186-1.522.757-.534-.567-.474-.504.255-1.192.32-.303.645-.696 1-.993.176-.148.303-.212.506-.096.171.098.416.38.53.54zm47.69 46.156c.383-.362.68-.264 1.029.173.522.653-.555 1.325-1.3 2.036-.428.409-.63.732-1.05.29-.8-.85-.36-.91 1.322-2.5zM78.83 75.47c.103-.31.934-1.082 1.285-1.44.696-.706.927-.946 1.559-.017.058.265-.749 1.06-.988 1.3-.64.637-1.527 1.365-1.857.157zm47.713 50.609c.16-.32 1.088-1.236 1.376-1.456.712-.543.793-1.038 1.43-.063.478.732-.99 1.648-1.58 2.097-.52.395-.782.125-1.227-.578zm21.591 6.346c.178.242.209.349.402.592.275.344.192.4.475.719.606.686 1.06 1.404 1.569 1.95.184.2.796 1.282 1.462 2.05.305.355.208.299.397.598.251.402.773.858 1.031 1.294.212.357.415.873.596 1.286.162.366.276.896.45 1.328.618 1.547.274.736.284 1.939.01 1.182.033.35-.217 1.316-.132.517-.023.74-.166 1.26-.082.305-1.18 1.776-1.322 1.913-.857.825-.133.402-.993 1.218-.37.349-2.317 1.507-2.638 1.658-1.073.51-.916.652-1.286.805-.357.145-.374-.005-1.335.429l-2.61.742c-.793.227-.819-.19-2.538.2l-1.933.144c-.333-.067-.31-.083-.661-.026-.474.076-.846.052-1.27.094-.24.022-.444.022-.661.087-.542.16-1.043-.042-1.88.143-.306.069-.362.029-.66.02-.654-.018-1.29.06-1.931.152-.52.074-.82-.006-1.27.062-.364.052-.929-.028-1.266-.088-.868-.158-4.44-1.29-5.139-1.346-.382-.03-.332-.047-.653-.2-.527-.251-.44.25-1.811-1.334-.359-.414-.746-.778-1.099-1.143-1.046-1.081-.303-.688-.89-1.908l-.261-1.934c-.013-1.146.611-1.5 1.082-2.557.278-.621.356-.773.904-1.288l10.031-9.676c.756-.713 1.852-1.651 2.471-2.374.631-.733 1.762-1.214 2.635-1.66.431-.22.858-.532 1.292-.662 1.19-.354.367-.437 2.535-.068 2.478.422 2.143-.128 3.7 1.37.427.41.798.589 1.268.958l1.906 1.937zm-69.447-60.25c.374-.353.645-.69 1.047-.267.776.823.58.766-.18 1.526-.442.44-1.03 1.117-1.555 1.294-.794-.668-1.028-.88-.486-1.407l1.173-1.145zM75.64 55.782c.097.177.175.45.328.665.16.229.371.278.517.564.06.117.433 4.193.374 4.524-.078.435-.757 1.574-.977 1.905-.526.795-.306.665-.678 1.29-.448.756-1.576 1.916-2.231 2.536-.413.389-.834.707-1.285 1.134-.28.263-.428.334-.684.533-.3.233-.352.397-.57.63l-5.066 4.818c-.337.385-.796.732-1.212 1.129-.858.824-2.726 2.937-3.795 3.35-.237.09-.463.183-.67.249-.354.11-.377.065-.614.116-.148.03-.52.25-1.328.455-.985.245-.502-.024-1.267-.083-.383-.03-.264-.057-.655-.206-.35-.135-1.036.046-1.911-.694l-2.124-2.498c-.28-.411.008-.344-.43-1.34l-.505-1.952c-.13-.334-.042-.365-.094-.66-.044-.237-.14-.442-.215-.667-.102-.304-.11-.808-.276-1.277-.112-.32-.136-.404-.128-.661.009-.322-.045-.368-.061-.663l.138-1.32c0-.04.532-3.671.553-4.5.017-.704.203-1.63.218-1.975l.258-1.921c.023-.24.002-.422.019-.662.017-.258.084-.35.11-.602.03-.287.012-.331.089-.66.15-.64-.017-1.263.238-1.921.15-.387.323-.883.447-1.307.13-.442.287-.812.444-1.256.09-.251.198-.434.285-.655.099-.252.11-.381.24-.65l1.73-2.561c.45-.51.304-.698.87-1.232.612-.58.753-.531 1.352-.915.175-.111.346-.3.574-.458.33-.23.316-.207.61-.348.3-.145.34-.34.675-.443.188-.058.419-.034.663-.08 1.244-.233.262-.106 1.269-.088.494.01.862-.196 1.326-.181.634.022.653.17 1.256.428l1.313.616c.375.24.884.245 1.241.499.253.179.212.313.535.554.296.22.346.298.626.558.287.264.427.21.675.429.303.269.23.308.591.516.178.102 1.103.923 1.297 1.132l2.526 2.066c.481.364.819.738 1.252 1.13l2.136 2.61zm53.26 62.262c1.18.773-.388 1.645-.13 2.43.251.766.962 1.36.178 1.968-.287.22-.39.138-.63-.11-.505-.515-.682-.522-.724-1.178l.076-1.27c.2-1.262.034-.97.076-1.261.003-.02.384-1.083 1.153-.58zm1.094 1.754c.293-.275.375-.158.651.059.3.233.361.338.434.618-.243.335-.564.693-.965.69-.181-.177-.388-.691-.462-.936l.343-.431zM82.332 72.039c.294.063.857.337 1.23.466.697.24.553.167 1.276-.211.479-.252.852-.406 1.16.127.65 1.129-.733 1.358-1.532 1.343-.905-.018-.377.138-1.265-.041-.388-.08-.606.229-1.263-.58-.43-.528-.148-.778.394-1.104zm1.205-1.417c.68-.641 1.861.99.435 1.074-.448.027-1.165-.383-.435-1.074zm41.861 84.722c-.524-.154-2.954-2.023-3.19-2.147-.674-.357-1.996-.97-1.416-1.531.531-.512.975.204 1.66.95.847.897 1.585.682 2.5 1.037.335.13.886.276 1.255.345l2.513.7c.282.1.939.274 1.26.33.69.124.496.13 1.263.169.346.016.341-.06.66-.045 1.286.055.883.036 1.879-.147.292-.053.355.024.66-.03.225-.041.393-.093.61-.092.401 0 .797-.048 1.268-.072.266-.016.376-.052.662-.072.287-.02.345.024.606-.001l3.203-.248c.239-.015.352.018.606-.012a16.23 16.23 0 0 1 1.215-.117c.45-.028.793.044 1.268-.005.424-.045 1.958-.593 2.555-.745l1.275-.404c.505-.152.642-.084 1.284-.445l1.964-1.227c1.327-.637 1.797-.994 2.792-2.37 1.035-1.427 1.278-1.348 1.565-2.493.001 0 .09-2.016.742-1.582.279.188.136.393.084.619-.07.299.025.294-.129.654-.37.87-.34 2.419-1.043 3.044-.7.62-.975.972-1.602 1.592-1.938 1.913-2.325 1.613-3.388 2.345-1.05.724-1.464 1.15-2.752 1.352-.268.042-.236.093-.501.213l-2.11.665c-.793.27-.424.173-1.105.075-.305-.045-.69.059-1.047.065-.756.016-.916.072-1.654.028l-1.602.135c-.237-.01-.3-.063-.55-.017-.275.049-.24.059-.497.06-.626.004-1.486-.02-2.096.114-.263.059-.26.088-.55.032-.397-.078-1.203.05-1.603.113l-2.148.025c-1.002.077-.493.005-1.103.007-.494 0-.57-.032-1.042-.103-.34-.05-.733-.23-1.04-.273-.882-.127-.645.143-1.589-.213-.322-.121-.231-.036-.55-.064-.323-.03-.267-.118-.547-.176-.25-.051-.24.037-.495-.038zm5.308-36.413c.166-.132.69-.31.854-.318.32-.017.526.2.786.53-.377 1.802-1.714.328-1.64-.212zM84.311 69.945c.032-.308.636-.865.945-.782.343.092.492.446.39.886-.215.912-.262 1.196-1.01.439-.341-.345-.322-.343-.326-.543zM56.154 45.039c.862-.813 1.166-.8 2.161-1.021l1.161-.164c.31-.095.847-.185 1.117-.147.248.28.215.376.185.672-.273.592-1.48-.033-2.71.737-.54.338-.8.45-1.336.878-.22.176-.478.32-.694.438-.523.285-.244.294-1.006.822-.218.15-.383.677-.672.987-.294.316-1.817 2.405-1.92 2.738-.06.193-.009.215-.13.488-.55 1.248-.489 1.324-.858 2.346-.13.354-.259.598-.402.924l-.227.986c-.06.434-.2.495-.14.933.056.389.076.126-.026.496l-.19 1.372c.016.743-.076.51-.153.93l-.471 3.79c.017.234.069.279.026.493l-.34 2.304c-.044.423.06.522-.072.989-.091.323-.041.168-.072.496-.063.663-.16.084-.097 1.373.061 1.23.422 1.825.486 2.439.083.77.313 1.587.51 2.328.089.329.23.609.323.946.492 1.805-.015 1.528 1.137 2.74.453.476.662.847 1.053 1.41l-.443.449c-.593-.057-.833-.572-1.258-1.337-.123-.22-.11-.38-.229-.565-.4-.627-.177-.143-.689-1.12-.643-1.227-1.125-1.338-1.31-3.281-.038-.413-.18-.696-.29-1.11l-.197-1.603c-.097-.677-.164-.147-.195-1.382-.018-.724.029-.576.224-1.37l.447-3.734c.068-.306.046-.234.04-.55-.015-.784.264-1.797.288-2.14.06-.847.051-1.344.178-2.2.353-2.373.086-2.634.894-5.314.104-.348.32-.693.425-1.09.508-1.911.388-1.198 1.706-3.202l.755-1.073c.552-.763 2.33-2.456 3.01-3.101zm73.66 73.237c-.595-.476-.875-.708-.192-1.141 1.375-.868.656-.834 2.544-.486.2.036.526.166.654.179.39.043.744-.3.768.695.006.185.087.462-.014.67-.364.75-.782.013-1.233-.26-.322-.195-2.044.209-2.527.343zM85.893 68.402c.275-.571.671-.45 1.105-.38.686.11.538.542.626.98.22 1.104.089.872.148 1.272.05.322.303.486-.237 1.256-.25.355-.86.949-1.22.678-.316-.234-.112-.577.037-1.26.45-2.061-.002-1.68-.46-2.546zm2.745.695c-.209-.323-.159-.434.22-.64.343.324.103.578-.22.64zm44.285 46.18c.315.06.525.629-.077.638-.607.009-.286-.453.077-.637zM88.696 70.303c.19-.231.487-.388.767-.66.894-.868.957-.24 2.273 1.106.498.51.971.708 1.319 1.384.22.428 1.033 1.155 1.406 1.506.508.475 1.01 1.088 1.454 1.62.145.174.148.242.281.383.323.34.78.63 1.1.996 1.35 1.532 2.97 2.947 4.272 4.534.97 1.182 3.212 3.385 4.395 4.636l2.874 2.928c.183.24.32.499.575.774.703.762 1.492 1.456 2.133 2.272.569.723 1.608 1.572 2.275 2.238l1.337 1.527c.263.296.526.466.719.696.374.453.816.864 1.224 1.316a226.48 226.48 0 0 0 5.764 6.137c.49.505 1.03 1.067 1.49 1.59.585.669.674.63 1.305 1.445.738.95 4.677 4.96 5.825 6.176.338.359 1.272 1.028.977 1.497-.118.186-.502.37-.706.648-.248.34-.095.434-.248.68-.54-.027-.942-.311-1.572.16-.623.465-.87.56-1.566.869-.328-.188-.47-.474-.826-.35-.012.567.618.4-.076 1.049-.782.734-.46 1.162-.522 2.076-.024.37-.117.658-.131 1.042-.063 1.677-1.003 1.805-2.177 2.854-.513.458-.61.002-1.014.167.011.353.25.366.117.694-.096.237-.355.328-.547.53-1.468 1.537-1.293 1.235-2.168.652l-.94-.446c-.526-.235-1.428.22-1.844.576-.653.555-1.26 1.25-1.918 1.805-.532.45-1.34 1.03-1.804 1.467.038 1.662-.136.746.438 2.324.352.97.884.69-.373 1.88-.41.389-.481.584-.977.83-.293-.084-.361-.241-.644-.17-.072.238.063.31.162.603-.25.353-.493.632-.882.903-.414.29-.251.413-.474.829-.586 1.086.462 1.297.6 1.834.212.818-4.898 5.038-5.834 6.114-.511.588-1.34 1.24-1.95 1.826-.637.609-1.17 1.28-2.08.847-.79-.376-1.49-.41-2.066-.846-.715-.545-1.217-1.344-1.867-1.88-.749-.616-.856-.354-1.593-.422a13.972 13.972 0 0 1-.275-.034c-.206-.061.004.062-.253-.131.425-1.52-.496-1.83-1.343-2.947.1-.482.553-1.355.849-1.8.318-.482.496-.567.49-1.077-.008-.831.35-1.906-1.558-2.026-.77-.047-.89 1.117-1.546.533-.142-.126-.09-.131-.233-.272-.198-.192-.406-.275-.579-.445-.39-.386-.72-.804-1.189-.891-1.141-.212-1.627.932-2.459 1.313-.142-.29.254-.95.106-1.4-.174-.522-.5-.978-.936-1.433-.882-.925-1.697-1.803-2.605-2.686-.283-.275-.302-.48-.567-.71-.933-.81-.8-1.056-2.076-.965-.603.043-.934.644-1.282.736-.45.119-.956-.575-1.215-1.032-.094-.662 1.223-.747.934-1.738-.216-.736-.91-.383-.11-1.595.744-1.126 1.957-1.956 1.27-3.434-.157-.338-.334-.548-.516-.896-.276-.531-.338-.432-.716-.68-.84-.548-.671-.763-1.674-.894-.204-.026-.676-.03-.89.044-.27.095-.197.108-.378.256-.23.192-.197.094-.396.184l-.896.597c-.359.245-.463.344-.849.52-.579-.303-.757-.742-1.356-.598-.292.07-.712.432-1.016.606-.245.139-.047.112-.337.124-.317-.1-.743-.601-.928-.926.206-.743 1.21-1.128.745-2.401-.211-.582-1.892-2.295-2.5-2.932l-1.768-1.867c-.542-.641-1.019-.938-1.79-.736-.365.097-.276.193-.553.059-.117-.73 1.92-1.462 1.052-2.898-.382-.633-.733-.907-1.138-1.452-.71-.961.758-1.241.522-2.195a1.725 1.725 0 0 0-1.044-1.183c-.254-.098-.486-.228-.712-.175-.535.123-1.007.568-1.447.688-.389.108-.816.474-1.456.744-1.155-.698-.913-1.266-2.434-1.571-.474-.096-.291.159-.795-.132.006-.088.01-.083.032-.188l.166-.771c.028-.206.06-.02-.054-.278l-.223-.67c-.101-.278-.4-.374-.65-.728-.692-.975-1.395-1.136-1.654-2.473-.034-.18-.046-.34-.099-.496-.093-.282-.34-1.052-.25-1.322.258-.364 1.203-1.277 1.58-1.602.448-.384 1.303-1.167 1.648-1.564 1.44-1.657 3.597-3.208 4.993-4.921.957-1.175 1.105-.207 1.686.02.075.028.802.062.877.04.93-.278 1.082-.794 1.74-1.118.411-.203.398.223.816.034-.047-.404-.247-.361-.12-.728.09-.27 1.512-1.593 1.792-1.632.255-.037.683.229.92.396 1.242.883 1.815.58 2.837-.34.39-.351 1.582-1.366 1.809-1.662.794-1.04 2.494-1.731 1.273-3.672-.555-.88-.382-1.133.306-1.735.294-.26.48-.61.858-.873.463-.326.447.054.894.007.032-.183-.084-.407-.058-.578.05-.343 1.066-1.216 1.302-1.398.456-.352.457-.582.96-.852.553-.297 2.006-.246 2.648-.228 1.183.033.769-.14 1.57-.684.473-.322.634.154.966.22.142-.3-.129-.388-.323-.671.085-.235.145-.502.36-.761 1.017-1.231.757-.824.963-2.27zm15.4 10.474c.932.51 1.076 1.08 1.46 1.42.748.663.306.34.648.705.257.27.334.226.544.45.322.34.293.44.47.612.15.148.263.163.442.354l5.455 5.982c1.276 1.353 8.736 8.819 8.703 9.372-.001.025-.418.942-.977.683-.258-.12-4.268-4.434-4.438-4.543-.372-.241-3.056-3.2-3.572-3.745-.318-.337-.39-.154-.535-.66-.09-.31-.053-.323-.385-.477-.538-.254-.951-.845-1.433-1.355-.975-1.032-.584-.828-.91-1.173l-5.547-5.79c-.653-.76-1.368-1.043.075-1.835zm-.496-2.182c-.055.346.102.82.028 1.166-.058.27-.736.968-.96 1.036-.586.179-1.592-1.21-2.14-1.75l-6.736-7.132c-.335-.405-.22-.448-.91-1.177-.836-.881-2.359-2.832-3.4-2.981-.48-.067-1.313-.442-1.697-.428-.813.033-.463-.456-.102-.82.253-.255.29-.282.135-.525-.183.078-.743.477-.912.688-.569.702-.336.365-.934.513-.511.126-1.466 1.172-1.865 1.547-.924.865-1.19-.071-1.876-.788-.32-.333-.646-.611-.95-.924-.266-.274-.526-.791-.747-.607.037.3.378.546.584.765.252.269.389.495.648.774.513.553.888.803 1.3 1.416-.233.773-1.189 2.082-2.025 2.599-.627-.26-.941-.902-1.505-1.183-.76-.377-1.008.479-1.377.855-.36.366-1.157.263-1.518.21-.364-.052-.38-.006-.772.229-.541.326-.302-.064-.778-.08-.135.294-.01.295.144.57-.48.884-.184.587-.371 1.305-.21.802.261.587-.582 1.356-.605.55-.83.38-1.33.85-.227.214-.453.432-.68.649-.103.097-.233.229-.344.312-.084.065-.07.06-.17.109-.188.09-.17.056-.231.066-.41-.124-1.573-1.402-1.822-1.771-.227-.337-.698-.726-.975-1.071-.166-.21-.267-.454-.39-.6-.165-.195-.365-.228-.425-.414-.043-.375 1.7-1.836 1.916-2.054.638-.645 1.3-1.247 1.948-1.92.19-.193.308-.233.478-.39.197-.175.239-.3.48-.501 1.002-.84 2.303-1.9 2.928-2.963l1.131-2.067c.48-.841 1-1.24.927-2.07l-.234-1.55c-.047-.298.057-.44-.035-1.044-.085-.558-.01-1.098-.167-1.656-.089-.313-1.157-1.735-1.427-2.133-.114-.168-.138-.335-.263-.52-.15-.22-.288-.318-.428-.551-.69-1.158-2.022-1.932-2.962-2.785-.22-.2-.241-.328-.47-.494-.227-.166-.277-.093-.547-.351-.337-.322-.623-.78-1.019-1.013-.19-.111-.312-.117-.485-.26-.495-.401-1.067-1.06-1.552-1.38-.343-.225-.734-.543-1.038-.785-.466-.372-.434-.427-1.017-.81-.817-.536-2.181-.936-3.1-1.407-.646-.333-.61-.072-1.1-.232-.238-.282-.231-.904-.181-1.168.063-.34.67-.78.894-1.183-.832-1.13-.934.653-2.596.965-.457.086-.956.246-1.384.233-.553-.02-.867.185-1.439.274-.885.139-.558-.095-1.425.727-.688.65-2.2 2.29-2.808 2.62-.294.158-.578.929-.831 1.265-.218.289-.32.324-.509.649-.363.63-1.067 1.37-1.264 2.058l-1.152 3.436c-.142.368-.407 1.064-.368 1.367.06.465-.12.864-.11 1.375.008.5-.47 3.312-.524 4.169-.03.488-.007.868-.1 1.375-.063.335-.053.406-.06.714-.01.355-.122.392-.143.714l-.37 3.459c-.11.506-.106.906-.081 1.376.04.757-.075 1.36.184 2.099.276.78.154.734.352 1.388.267.893-.111 1.837.988 3.54.474.736.913 1.283 1.209 2.082.17.465.643.907.838 1.399.168.424.291.378.48.738.36.689-.102.869.599 1.45.553-.298.3-.566.34-.987.041-.433.605-.887.986-1.114.63.232.321.386 1.58.583.395.06.38.086.765.21.76.246 1.67.452 2.415.248.712-.197 2.716-.728 3.22-1.128.84-.67 3.981-4.008 4.59-4.24.285.193.072.217.281.389.386.316.084-.364 1.58 1.219.614.649 1.562 1.496 1.91 2.179-.373.576-1.656 1.613-1.73 1.877-.245.886-.766 1.319-1.686 1.27-.905-.048-.622.016-1.501.408l-.416-.233c-.239.472.133.196.108.666-.04.17-.663.7-.605 1.685.032.535-.438.859-.84 1.236-.677.637-1.042 1.353-1.792 1.959l-6.897 6.529c-.34.32-.68.643-1.018.966-.47.448-1.44.627-2.03.698-.43.053-.553.14-.977-.267-.996-.96-1.344-.945-1.536-1.801-.158-.7-.52-1.292-.753-2.007-.113-.35-.18-.66-.278-.997-.086-.295-.266-.697-.384-1.002-.157-.402-.198-.637-.308-1-.098-.321-.34-.697-.42-1.007-.21-.812-.398-1.26-.73-2l-.947-3.004c-.15-.66-.515-1.323-.492-1.997.017-.53.034-.615-.538-.792-.253.268-.34 1.176-2.022 1.039-.296-.023-.466-.147-.78-.02-.206.669.317.382.771 1.846l.694 1.892c.263.674.452 1.214.593 1.839.088.39.282.57.37.947.12.509.129.43.368.939.15.32.14.587.215.893.098.412.354.556.41.95.08.54.117.488.343.944l1.329 3.73c.19.47.023.47.43.959.453.544 1.075 1.008 1.675 1.403.665.439 3.209 2.578 3.558 3.25.51.98.158 1.956-.696 2.617-.415.322-.44.517-.825.833-.364.296-.525.293-.946.692-.656.625-3.107 3.135-3.704 3.272-.446.105-.533-.19-.608.539l.266.314c1.293-.14 1.712-.814 2.181-.945-.108.28-.453.456-.717 1.077-.23.544-.294.55-.31 1.073.303.335.586.43.83-.066.132-.267.227-.613.444-.861.276-.312.594-.57.898-.852.965-.894 1.668-1.75 2.767-2.526.624-.442 1.243-1.26 1.852-1.676.583-.401.899.116 1.229.476.593.65 1.568 1.312 1.91 2.123.158.38.478.427.81.764.332.338.498.532.841.829l1.554 1.702c1.834 1.705 4.133 4.282 5.838 6.193.354.397.605.542.496.967-.197.763-2.56 2.689-3.285 3.208-.53.379-1.996 2.192-2.597 2.365-.398.114-.49-.416-.927.188.382.906 1.25.8 1.85.33.89-.693 1.288-1.371 1.864-1.84.218-.176.28-.125.505-.361.636-.664.163-.42 1.377-1.283.677-.483 1.428-1.46 2.09-1.944.416.325.032.615-.27.929-.343.358-.653.643-.995.993-.403.415-.632.29-1.019.73-.747.848-.456.412-1.022.768-.313.199-.114.368-.76.977-.74.696-1.203.685-1.766 1.794-.264.518-.588.345-.457.923.096.42.482.763.852.472.465-.367-.123-.372.357-.984l1.842-1.896c.376-.32.693-.465.989-.832.44-.541 1.313-1.121 1.89-1.678 1.367-1.322 1.425-1.424 2.758.1.55.632 1.154 1.21 1.692 1.854.33.393.627.588.941.913l2.694 3.013c.348.435.55.522.888.89l4.666 4.914c.349.367 1.487 1.554 1.73 1.996-.398 1.015-1.636 1.746-2.362 2.358-.327.275-.6.614-.956.916-.705.593-2.127 2.174-2.776 2.58-1.504.94-.243 1.32.233.943.188-.148.136-.212.404-.406.236-.171.293-.182.519-.41.316-.32.653-.643.953-.977.43-.481 1.364-1.241 1.915-1.77.386-.368.684-.501 1.026-.846.465-.465.896-.935 1.414-1.336.418-.324.786-.078.447.397-.12.168-.283.338-.407.492-.424.53-2.224 1.906-2.954 2.605-.674.648-1.349 1.293-2.032 1.932-.56.522-.412.415-.691.97-.223.44-.329.655.15 1.064.129-.052.264-.083.406-.233.266-.284.132-.623.825-1.293l2.773-2.624c.486-.464 1.063-.87 1.816-1.595.221-.213 1.06-1.261 1.813-.227l1.64 1.692c.3.306.453.643.787.894.588.443 1.142 1.203 1.659 1.644.305.26 1.254 1.366 1.535 1.734.373.49 2.861 3.158 3.278 3.47l1.607 1.772c.649.678 1.428 1.098.809 1.854-.67.818-.802.977-1.636 1.578-.84.607-2.28 2.047-3.102 2.86-.207.207-.313.2-.51.373-.388.34-.2.502-.793.657-.45.116-.553.22-.506.672.956.719 2.199-.93 2.9-1.57l4-3.7c.18-.173.511-.58.8-.44.474.227-.53.956-.694 1.12-.69.687-1.34 1.064-2.017 1.723-.147.142-.296.334-.416.427-.183.139-.299.135-.448.309-1.2 1.393-2.11 1.727-2.56 2.84-.157.385-.253.657.044.982.593.018.593-.164.697-.631.108-.478 3.081-3.033 3.733-3.694.285-.291.59-.44.972-.818.718-.717 1.228-1.178 2.096-1.28 1.053-.12 1.013.326 1.9 1.12.996.895 1.444 1.919 2.258 2.959.151.195.147.297.294.492.478.625.551.912 1.272 1.36.499.31.603.182 1.04.426.39.215 1.025.596 1.463.72l6.585 2.727c.703.259 1.31.553 2.014.87.57.26 1.501.529 2.019.829.344.199.434.819.877.5.36-.26.005-.64.082-1.043.325-1.687.802-1.37 1.194-1.674l-.2-.477c-.475 0-.666.065-1.105-.088-.46-.161-.683-.155-1.144-.416-.757-.43-.716-.234-1.148-.427-.18-.08-.344-.215-.54-.306-.266-.124-.383-.102-.603-.178-1.148-.398-2.267-.998-3.428-1.477-.457-.187-.704-.251-1.14-.441-.374-.163-.454-.09-1.092-.415-.483-.247-.666-.226-1.148-.531-.335-.211-.817-.338-1.135-.475-1.166-.507-1.306-.602-2.07-1.742-.409-.611-.626-.422-.547-1.174.05-.474.254-.756.323-1.148.082-.47.117-.684.61-1.145.68-.638 8.235-7.663 8.809-8.342.444-.524.938-1.278 1.566-1.604.428-.221.79-.092 1.158-.078.413.016.796-.318 1.178-.558 1.06-.667.835-1.747.931-2.188.099-.444.557-.753.966-1.062.442-.337.862-.51 1.21-.831 1.255-1.171.727-1.368 2.914.943.235.248.774.728.914.913.353.469.069.54.49.996.194 0 .358-.023.547.075-.061.592-2.96 3.11-3.555 3.672-1.127 1.067-1.358 1.556-1.991 2.773-.21.4-.24.574-.402.979-.195.488-.282.404-.248.929.064.98.42 1.89.558 2.88.05.357.007.627.186.94.231.413.466.578.04.98-.225.213-.713.513-.94.543-.41.054-.567-.361-.97.244.32.545.782.395 1.276.728l1.352.823c1.078.663 2.98 2.208 4.058 2.582.895.31 1.822.32 2.736.573l2.689.464c.607.058 1.428-.072 2.038-.063.363.007.284.144.715.017.631-.184 2.64-.131 3.422-.187l7.558-.384c1.26-.222 2.87-.856 4.163-1.208.794-.218.647-.204 1.385-.681.202-.13.486-.278.688-.386l2.121-1.27c.469-.305 2.248-2.023 2.603-2.487.42-.547.72-.508 1.03-1.241.113-.265.103-.422.129-.657.07-.69.495-1.351.629-2.075.078-.43.121-.972.331-1.368.222-.42.895-.497 1.24-1.024-.255-.724-.623-.292-1.188.008-.38.2-1.107.304-1.451.109-.232-.232-.14-.811-.197-1.121-.136-.736-.58-1.522-.816-2.226a4.643 4.643 0 0 0-.52-1.12c-.306-.49-1.987-2.96-2.39-3.394l-3.355-4.55c-.287-.391-.71-.781-.996-1.121-.281-.334-.587-.272-1.071-.785-.409-.431-.661-.456-1.024-.914-.279-.353-.662-.522-1.006-.797-.626-.496-.624-.192-1.15-.365-.38-.125-.683-.026-1.094-.155-.607-.194-1.036-.017-1.648-.192-.526-.15-1.067-.264-1.651-.093l-1.673.753c-.296.19-.297.115-.555.26-.386.219-.717.43-1.12.656-.612.344-.685.356-1.198.923-1.09 1.2-1.83 1.669-2.637 2.572-.244.27-.288.183-.543.403l-1.025 1.086c-.22.233-.313.188-.56.412-.553.495-1.046 1.126-1.584 1.616-.452.412-.597.327-1.014.86-.267.345-.846.829-1.156.887-.367-.733.42-.181-1.174-1.874-.306-.323-.469-.625-.8-.897-.419-.346-.472-.588-.803-.893l-1.234-1.33c-.206-.28-.257-.214-.475-.401-.294-.254-.574-.72-.904-.932-.277-.176-.65-.21-.934.009-.317.519 1.096 1.098 1.499 1.916-.299.473-1.035 1.23-1.547 1.436-.245-.127-3.218-3.106-3.503-3.516-.516-.741-.61-1.142-.367-1.884.188-.578 1.18-1.33 1.675-1.8 1.195-1.128 2.33-2.506 3.766-1.027.763.784 2.918 2.907 3.326 3.725l-.838.87c-.338.385-.628.548-1.006.43-.567-.352-.964-1.751-1.67-1.345-.117.724.483 1.293 1.046 1.838.537.516 1.156 1.37 1.672 1.796 1.886 1.557 1.962 3 3.6 2.62l-.147-.68c-.67-.334-.082.224-1.114-.68-.774-.678-1.452-1.517-2.118-2.283-.415-.48-.056-.67.32-1.133.301-.373.678-.646.926-1.067.468-.797 1.045-1.455 2.028-1.436.755.016.6-.14 1.165-.27.409.058.375.349.778.218-.04-.2-.29-.501-.262-.72.095-.447.538-.586.52-1.25-.017-.571-.088-.707.49-1.243.764-.71.943-.981.156-1.88l-.392-.503c-.245-.494.454-.934.887-1.36.353-.346.346-.203.613-.375.228-.148.422-.407.679-.585.68.134 1.06.736 1.615 1.322l1.232 1.27c.26.228.21.226.447.169-.085-.606-2.668-2.56-2.68-3.064-.018-.665 1.934-1.75 2.165-2.527.24-.811.724-.9 1.167-1.551-.506-.214-.575.302-1.02.404-.445-.185-.26-.574-.304-.84-.06-.338-.199-.557-.235-.998-.125-1.513-2.065-2.82-3.008-3.93-1.254-1.47-2.76-2.817-3.79-4.024a11.11 11.11 0 0 0-.971-1.015c-.313-.293-.45-.678-.81-1.054l-3.723-3.982c-.188-.443.492-1.054.863-1.23.416-.197.871.032 1.322.01.624-.798-.635-.783-1.177-.971-.49-.172-4.555-4.653-5.338-5.503-.24-.262-.462-.41-.68-.644l-3.285-3.65c-.37-.361-.927-.945-1.339-1.303l-5.724-6.162c-.477-.535-1.599-1.414-1.862-2.032-.198-.464-.077-2.023-.972-1.305z"/>
        <path d="M3.816 29.623c.336.216.072.534-.224.57-.104-.129-.271-.26.03-.502.126-.1.112-.05.194-.068zm26.29 27.46a.493.493 0 0 1 .396-.375c-.038.188-.173.317-.395.374zm.649-.613c-.036-.268.116-.299.345-.453.272-.183.274-.28.527-.269-.255.237-.583.681-.872.722zm98.3 107.633c.185-.392.34-.248.732-.293.303-.033.484-.074.772-.085.336-.013.439-.052.775-.097l2.256-.027c.692.125 1.762-.239 2.265-.174.94.122 1.51-.286 2.263-.14l2.258-.017c.489-.002.322-.238.734.003.004.144.012.03-.028.175-.224.798.08.862-.141 1.042-.561.177-.506-.47-1.132.314.127.311.195.32.514.54.14.098.56.334.643.422 3.333 3.715 3.696 2.936 1.342 5.16-.17.161-.281.495-.45.693-.31.365-1.57 1.362-1.861 1.715-.37.446-.737.945-1.246.53-.855-.7-5.665-5.914-7.11-7.43-.152-.16-.667-.839-.69-.848l-1.896-1.483zm10.737 10.821c.304-.803 2.007-1.876 2.975-3.22l2.23-2.048c1.18-.749 2.335-3.02 3.22-2.025-.516 1.053-3.566 3.318-3.828 3.674-.744 1.011-.711.752-1.438 1.626-.256.31-.708.652-1.04.977-1.495 1.472-1.41 1.816-2.12 1.016zM11.6 22.684l-2.547 2.541c-.86.832-.316.004-1.268 1.13-.272.322-.808.761-1.035 1.066-.133.18-.16.312-.384.586-.357.434-1.17 1.267-1.626 1.293-.465-.902.823-1.483 1.393-2.179.282-.345.292-.593.63-.853l1.926-1.655c.5-.454.342-.395.676-.758l1.245-1.176c.382-.36.726-.45.99.005zM173.277 195.43c.292-.276.493-.403.782-.366.197.367-.002.607-.406.954-.303.26-.652.626-.975.932-.353.334-.661.764-1.06 1.007-.353.217-.24.11-.52.446l-1.193 1.168c-.912.906-1.016 1.367-2.164 2.244-.396.302-.59.982-1.378 1.121-.506-.415-.183-.61.22-.985l2.044-1.924c.405-.39.284-.552.648-.896l1.528-1.445c.252-.237.629-.42.888-.654l1.586-1.602zM36.927 51.217c.136-.127.386-.333.54-.457.286-.229.259-.2.518.057.167.564-.2.546-.523.852-.41.386-.351.416-.69.803-.436.497-.265.005-1.137 1l-1.4 1.244c-1.016.893-.99 1.243-1.378 1.602l-.726.705c-.257.244-.618.462-.964.796-.722.694-1.133.264-.575-.262.843-.795 2.44-2.147 3.058-3.093.502-.767.844-.867 1.45-1.44l1.828-1.807zm137.01 145.82c.964-.913 1.838-2.079 2.929-1.47.7.391 1.526 1.418 1.977 2.07.303.437.399.48-.11.96-1.014.958-2.148 1.323-3.004 2.032-.32.264-.942.59-1.347.775-.74.34-1.098.781-1.96 1.273-.206.118-1.12 1.161-1.854 1.28-.276.044-.947-.175-1.313-.297-.59-.197-.756-.249-1.038-.87.277-.482.702-.815 1.178-1.266.594-.56.8-.956 1.318-1.442.337-.315.862-1.004 1.177-1.247 1.002-.762 1.11-.915 2.047-1.799zM4.077 27.894c-.678.641-1.133-.148-1.33-.7-.108-.308-.14-.392-.08-.665.13-.59-.04-.296.03-.663l.8-1.347c.232-.36.089-.413.2-.66.082-.178.348-.4.497-.65.565-.953.276-.508.93-1.34.19-.24.213-.393.439-.67.975-1.198.999-1.542 1.3-1.92l1.365-1.957c.582-.55 2.14 1.312 2.67 1.873.214.225.346.834.306 1.133-.132.97-.982 1.392-1.352 1.774l-1.334 1.314c-.302.288-.485.552-.811.842-.284.251-.548.445-.883.762-1.702 1.608-.791.93-1.438 1.703-.261.314-.524.26-.791.423-.32.195-.173.422-.518.748zM43.322 47.85c-.121.39-.024.473-.041.771-.013.211-.195.64-.215 1.538l-.276 2.304c-.277 1.325.123.56-.076 1.156-.26.778-.022.585-.175 1.153-.443 1.642-.128 1.725-.465 3.014l-.14 1.54c.049.458-.157 1.061-.242 1.535-.175.991-.06 1.917-.337 3.078-.098.407.096.433.084.772l-.36 2.69c-.13.768-.075 2.265-.518 2.59-.293-.114-.383-.304-.568-.588-.661-1.01-2.167-2.603-3.034-3.589-.49-.556-2.204-2.137-2.711-2.785-.228-.292-.202-.383-.554-.763l-1.35-1.405c-1.714-1.488-1.297-1.577-.701-2.14.315.12.586.046.823-.232-.02-.295-.021-.158-.138-.414.57-.639 1.299-1.229 1.608-1.73.143-.232.308-.363.54-.58 1.146-1.074 1.292-1.598 2.47-.43.422.415.787.891 1.235 1.298 1.114 1.014 1.653 2.346 2.088 2.394.202.022.414-.083.416-.337 0-.179-.142-.455-.197-.6.364-.183-.111-.093.629.03.617.102.778-.206.61-.766-.204-.093-.216-.045-.416-.119-.525-.197-.721-.515-1.03-.868-.687-.788-2.691-2.584-2.667-3.279.018-.51 1.048-1.057 1.357-1.506.209-.304.03-.897-.107-1.207-.168-.382-.114-.017-.066-.394.042-.33.217-.46.532-.755.828-.769 3.487-3.493 4.014-3.627.357.348.08 1.102.015 1.484-.074.433.136.206-.037.767zm98.335 115.368c.275-.212.453-.139.709-.138l2.152-.133c.25-.025.425-.132.719-.106.357.032.325.1.715.007l1.436-.145c1.533-.108 1.169.02 2.872-.209.346-.046.972-.002 1.432-.034.468-.032.99-.23 1.42.081-.203.83-2.111 2.204-2.83 2.882-.41.388-1.038 1.354-1.576 1.303-.214-.02-.227-.072-.436-.117-.383-.08-.834-.189-1.16-.033-.435.207-1.212 1.14-1.626 1.125-.452-.016-1.2-.993-1.576-1.392-.823-.87-2.371-2.084-2.251-3.09zm1.144-3.444c.342-.2.857-.18 1.205-.179.452.002.19-.114 1.216-.106l1.214-.105c.555-.066.68.357.704.775.009.17-.017.124.006.332.023.217.093.014.02.276-.068.252-1.066.413-1.111.414-1.114.02-1.713-.033-2.958.155-.297-.332-.331-1.392-.296-1.562zM45.769 53.925c-.021.251-.008.24-.06.494-.046.234-.103.355-.096.55.009.28.048 1.28-.221 1.466-.26.067-1.126.058-1.357-.354-.17-.302-.021-1.017.073-1.377.105-.4.008-.296.078-.713.066-.39-.04-.475.122-1.044.233-.826-.044-.635.31-1.003.22.027.38.083.637.122.965.144.605.573.595.871-.007.197.064.264.03.498-.034.237-.09.23-.111.49zm102.427 106.832c-.274-.342-.228-.452-.247-.796-.054-.939.247-.672.968-.694.23-.007.526-.115.775-.14l6.846-.505c1.59-.265 1.137 1.456 1.13 1.466-.421.356-.834.244-1.236.268-1.036.061-.908.195-2.371.147-1.383-.046-.895.286-2.377.262-1.386-.023-.39.037-1.49.093-.154.007-.17.028-.277.036-.281.02-1.422-.012-1.721-.137zM46.79 45.363c-.03.267.038.353.01.605-.025.245-.111.304-.14.547-.025.211.007.391-.02.605-.056.494-.233 1.282-.19 1.758.027.3-.093.428-.16 1.151-.125 1.35-.146 1.308-.902 1.195-.364-.055-.391.041-.715-.404-.075-.546.077-1.046.094-1.383.014-.28.064-.36.114-.66l.403-3.293c.002-.279-.058-.379 0-.66l.224-1.317c.009-.283-.005-.39.059-.659.217-.896-.26-1.44.979-1.44.365 0 .375.057.664.39-.045.22-.05.301-.12.598-.133.568.114.217-.021.936l-.167 1.426c-.01.226-.084.351-.112.605zm111.767 113.285c.405-.227.387-.168.738-.162.454.008.768-.106 1.324-.096.258.004.384-.029.662-.054.329-.03.412-.006.719-.05 1.158-.169.758 1.506.752 1.516-.195.277-2.222.46-2.514.408-.552-.097-.725.055-1.468-.016-.33-.464-.355-1.098-.213-1.546zm-111.39-118c-1.725-.174-1.241-.392-1.218-1.7.019-1.064.243-1.51.23-1.977-.005-.183-.033-.482.22-.657.219-.15 1.138-.007 1.298.357.079.182-.138 2.442-.201 2.654-.195.664.164.822-.33 1.322zM2.708 29.028c-.286.063-.275.013-.553-.28-.4-.424-.985-1.099-1.191-1.608-.276-.679-.08-1.46.37-2.043.384-.493 1.162-1.505 1.346-2.037.253-.736.82-1.383 1.217-2 .349-.543.956-1.093 1.445-2.056.116-.228.313-.352.694-1.024.167-.294.484-.673.694-.977.24-.35.479-.675.692-1.024.17-.28.432-.855.546-1.017.506-.728 1.007-1.33 1.515-2.006l2.693-4.06c.207-.42 1.063-1.493 1.404-2.047.665-1.08.7-1.03 1.59-1.9.824-.809 2.09-2.293 3.12-2.627.337-.11.73-.314 1.007-.387.583-.156.98-.234 1.606-.535C21.962.893 22.43.77 23.46.795c.38.01.736 0 1.045.024.21.016.338.083.546.108.18.022.32.002.497.011l1.045.035c.737.003.919.172 1.525.52l1.04.48c.29.173.209.204.385.331.142.102.293.084.53.194.234.11.28.198.495.345.32.221.614.131.974.302.664.317 1.417 1.388 2.048 1.835l1.022.841c.482.308 1.574 1.276 1.978 1.745.623.722 1.587 1.168 2.069 1.687.412.444.765.64.926.814.449.487.558.466.95.838.182.171.354.4.536.564.18.162.259.167.468.321l1.886 1.635c.749.556 1.262 1.23 1.944 1.777.173.14.376.192.53.307.183.137.316.334.482.487.6.555.324-.004 1.985 1.766.797.85 2.29 1.832 3.023 2.604a13.46 13.46 0 0 0 1.978 1.708c.988.702 3.25 3.136 4.038 3.581.59.333.46.565.91.865.449.3.545.474.965.805.4.315 1.723 1.408 1.99 1.74.159.196.717.506.98.755.812.763 1.594 1.667 2.512 2.301.212.145.308.127.514.302.407.345.344.542.876.94.309.23.684.608.959.864l3.998 3.463c.372.445.305.074.907.835.26.331 1.542 1.157 1.99 1.612.15.151.327.376.488.5.232.177.219.064.476.306l2.04 1.751c.909.708 5.289 5.24 6.023 6.171 1.064 1.351 2.663 2.79 3.906 4.13 2.594 2.795 5.526 5.62 8.004 8.508l4.02 4.135c.357.334.368.591.778.987.335.323.677.712.953 1.036l3.888 4.025c.233.187.837.827 1.018 1.07.392.53 1.145 1.435 1.655 1.862.688.576.539.63.892.944.403.36.659.57 1.046.977.317.334.614.773.926 1.054.835.755 1.656 1.85 1.944 2.102a22.248 22.248 0 0 1 1.998 1.995c1.204 1.372 2.434 2.627 3.624 3.964.374.42.666.545 1.012.976.544.68 2.336 2.442 3.01 3.157.659.697 1.285 1.444 1.885 2.078 1.825 1.927 3.887 4.037 5.595 5.964.907 1.025 1.849 1.755 2.824 3.004.469.601 2.275 2.403 2.873 3.001.267.268.5.646.838 1 1.256 1.32 2.418 2.31 3.642 3.825l6.716 7.057c.317.26 1.598 1.54 1.814 1.882.23.365 3.485 3.793 3.964 4.236.754.7 5.43 5.676 5.815 6.29.472.751 2.183 2.588 2.472 3.156.29.57 1.933 2.492 2.444 3.135.184.232.209.411.33.572.178.232.198.08.383.402.413.713.972 1.53 1.549 2.131.746.78 1.714 2.247 2.447 3.163l1.277 1.577c.224.273.118.26.282.497.28.406.66.663.872 1.071.215.412 1.477 1.77 1.67 2.148.328.633 1.277 1.303 1.623 2.085.238.54.504.541.784.905.12.157.186.404.282.546l1.373 1.555c.298.348.28.487.808 1.064.33.361.384.682.693 1.052l2.426 3.174c.559.562 1.95 2.47 2.468 3.136.393.508.548.476.865 1.071.205.385.576.566.85 1.076.199.37.553.604.82 1.072.278.485 2.31 2.91 2.382 3.035.329.581.537.563.809.96.252.367.022.374.474.883 1.047 1.18 2.522 3.278 3.427 4.231.63.662.77 1.45 1.472 2.146.5.498.483.69.802 1.063.573.671.94 1.165 1.192 2.081.266.968 1.054 2.293 1.327 3.122.128.387.134 1.572.055 2.041-.085.5.105 1.235-.008 2.036-.063.448.013.52-.13 1.044-.281 1.031-.656 1.533-.812 2.072-.116.4-.313.616-.475.98-.137.308-.268.71-.365 1.034-.22.731-2.271 2.2-2.87 2.727-.4.352-.417.575-.96.794-.741.3-1.451.921-2.128 1.252l-3.142 1.972c-.68.464-1.461.823-2.078 1.263-.195.14-.323.284-.56.41-.947.495-.825.622-1.46.963l-5.261 3.277c-.552.411-.564.192-1.026.516-.363.256-.642.53-1.06.774-.52.305-.615.226-1.01.744-.372.488-1.448 1.03-2.016 1.221-.877.295-1.078.731-2.038.094-.518-.344-.538-.246-.927-.729-.242-.3-.735-.687-.644-1.037.377-.06.85.596 1.21.78l2.417.233c.955-.137 1.667-1.137 2.465-1.59.233-.133.406-.29.638-.457.244-.175.352-.189.613-.374.469-.334.79-.347 1.209-.658.768-.569 1.64-1.048 2.428-1.596.95-.664.636-.552 1.123-.912.936-.692.364-1.399.205-1.779-.26-.617-.847-1.13-1.384-1.656-.536-.525-.375-.474-1.07-.832-.623-.32-.507-.398-1.202-.338-.418.035-.775.245-1.155.098-.183-.549.215-.66.582-1.04l4.406-4.16c.299-.36.922-1.782.938-2.173.012-.319-.153-.806-.242-1.108l-.448-1.156c-.215-.457-.36-.679-.77-1.118-.744-.799-2.15-2.488-3.096-2.855-.445-.17-.665.05-1.097-.258-.233-.166-1.912-1.907-2.101-2.149-.254-.325-.275-.227-.543-.487-.21-.204-.28-.372-.51-.594l-3.275-3.335c-1.302-1.513-2.922-3.083-4.337-4.58-1.874-1.985-1.832-1.669-2.262-3.493-.153-.645-.311-.578-.726-1.132-.445-.595-1.508-1.592-2.034-2.133-.426-.437-.4-.562-.963-.95-.561-.387-.852-.272-1.048-.6.395-.294.385-.089.842-.19.604-.133 1.96-.18 2.539-.157.382.016.509-.067.882-.078 1.715-.05.955-.134 2.467.306.24-.218.232-.223.323-.445-.255-.43-.5-.149-.783-1.134a2.882 2.882 0 0 1-.061-.442c-.058-1.09-.256-.702.506-1.745-.138-.31-.08-.319-.41-.608-.638.36-.438.734-1.284.681l-3.424.285c-.35-.007-.457.09-1.378.058-.677-.024-1.352.115-2.041.077-.522-.029-1.547.211-2.044.206-.175-.002-.142-.033-.33 0l-1.048.055c-.527.02-.9.17-1.382.182-.278.008-.413.013-.662.014-.735.004-1.397.17-2.042.15-.492-.017-.917.104-1.38.163-.462.058-.92-.069-1.38.01-.39.068-.367.005-.66.016-.36.012-1.725.257-2.044.166-.23-.065-.426-.257-.648-.492-.395-.253-1.052.09-.562.632.4.444.39.451.527 1.071.078.354.02.442.082.723.147.667.085.722-.431 1.203-.343.321-.637.36-1.051.406-.182.021-.148.042-.331.075-.291.052-.363-.047-.662-.02-.187.015-.22.054-.387.051a23.318 23.318 0 0 0-3.142.177c-.522.06-.848-.055-1.378-.008-.746.068-1.002.274-2.1.204l-2.094.143c-.901.27-1.84-.049-2.764.226l-2.042.121c-.626.078-.8.058-1.377.044l-1.38.08c-.954.128-1.658.012-2.15.071l-1.381.184c-.265.036-.404.014-.663.007-.22-.006-.505.048-.716.03-.66-.058-1.397.123-2.041.12-.74-.003-1.373.183-2.097.156-1.503-.054-3.096 1.077-3.893 1.32-.157.046-.198.084-.336.125-1.17.343-1.25.046-2.038-.007-.127-.009-.222.033-.386.045-.22.017-.108-.007-.33-.024-.287-.022-.361.062-.665.1-.53.064-.888.02-1.376.015-.472-.005-.927.174-1.382.158a15.208 15.208 0 0 0-.716-.008l-2.422-.046c-1.478-.2-1.67.184-2.346-.653-.421-.52-.795-.67-1.301-.935-.391-.204-1.012-.973-1.347-1.329l-3.963-4.27c-.435-.393-.765-.855-1.23-1.323-.602-.604-.572-.793-1.27-1.309-.275-.203-.861-.982-1.238-1.32-.932-.835-1.305-1.437-1.828-1.95l-1.861-1.882c-1.313-1.33-2.515-2.81-3.81-4.117-.852-.86-1.747-1.853-2.621-2.776-.483-.51-.754-.936-1.221-1.422l-2.576-2.597c-.873-.925-1.725-1.942-2.661-2.8-.424-.389-.711-.848-1.1-1.245-.474-.485-.952-.947-1.428-1.446-.517-.542-.557-.87-1.212-1.282-.358-.225-1.714-1.614-2.005-2.082-.287-.46-.041-.195-.46-.55-.351-.298-.253-.394-.583-.653-.278-.218-2.544-2.798-3.105-3.293-.271-.24-.114-.154-.278-.363-.256-.325-.622-.55-.566-1.004-.694-.388-.494-.217-1.081-.834-.364-.383-.716-.637-1.077-1.036-.713-.793-1.457-1.547-2.19-2.324l-3.154-3.339c-.39-.41-.706-.652-1.08-1.016-.393-.383-.74-.864-1.093-1.22l-3.064-3.21c-.386-.402-.652-.788-1.02-1.177-.322-.34-.77-.76-1.028-1.047-.513-.569-1.534-1.79-2.07-2.188-.346-.257-.242-.307-.481-.514-.3-.26-.252-.137-.5-.509-.221-.335-.23-.269-.465-.47-.235-.2-.246-.317-.435-.54-.757-.892-.772-.643-1.566-1.649-.177-.225-.297-.232-.498-.46-.622-.713-1.926-2.489-1.974-3.418-.01-.193.028-.377.004-.552l-.075-.554c.023-.822-.194-1.4-.07-2.258l.103-1.155c-.013-.64.184-.724.166-1.097l.093-1.154c.037-1.438.225-1.317.344-2.195.063-.464-.15-.556.022-1.097.18-.57.669-1.144 1.045-2.232.19-.547.753-1.708.74-2.236-.015-.665.253-2.036.334-2.8.02-.198-.002-.37.022-.55.028-.21.11-.32.119-.549l.76-6.752c.114-.898.096-1.865.31-2.748.11-.456-.036-.7.177-1.152.445-.945.202-.29.152-1.094-.01-.156.07-.344.076-.605l.09-1.099c.056-.559.224-1.13.197-1.7-.021-.426.018-.669.076-1.102.06-.45-.082-.699-.018-1.1l.323-2.25c.108-.352.193-.778.22-1.096.025-.267.029-.375.05-.606.016-.183.06-.357.076-.548.027-.332.156-.84.157-1.095.002-.439-.044-.69.198-1.155.233-.446.599-.506 1.007-.508.227 0 .343.045.547.1.297.076.3.035.55.061.554.057.609.375 1.089.762 1.035-.253.216-.805.057-1.259-.1-.285.219-2.432.3-2.907.052-.293-.017-.462.037-.714.105-.492.15-.17.098-.715-.03-.306.266-1.765.304-2.195.024-.28.096-.466.129-.713.035-.258-.021-.113-.03-.384l.614-5.383c.175-.774.198-1.466.236-2.196.008-.162.062-.249.069-.383.009-.18-.03-.159-.032-.333-.003-.252.13-.44.13-.765l.296-2.858c.222-.972-.384-.224.603-1.396.309-.368.3-.36-.095-.719-.674.022-.61.748-1.813.387-.508-.153-.537.051-.88-.095-.46-.198-.397-.469-.648-.779-.264-.154-.73.07-.632.464.06.237.26.435.346.671.273.745-.204 2.516-.26 3.356-.022.318-.186.518-.145.822.055.414-.077 1.354-.317 1.691-.65-.664-.232-.638-.61-1.218-.222-.34-.788-.907-1.097-1.186-.943-.849-1.947-2.613-3.326-2.849-.265-.046-.26.042-.603-.099a1.431 1.431 0 0 1-.491-.344l-4.641-4.887c-.237-.205-.221-.299-.417-.543-.357-.442-.585-.608-.97-1.013-.68-.718-6.198-6.437-6.568-6.96-.307-.439-.113-1.703-.68-2.193-.395-.343-.596-.695-1.015-1.054-.818-.7-1.477-1.614-2.251-2.36-.677-.65-.961-.383-1.68-.64-.234-.084-.284-.21-.548-.212-.447-.006-.762.25-1.164.307-.42.058-.774.37-1.174.481-.508.143-.418.388-.91.765-.551.421-1.607 1.55-2.223 2.131-.446.422-1.782 1.904-2.303 1.903-.325-.4.084-.806.179-1.276.146-.73-.262-.694-.402-1.278-.188-.789-.423-.595-.876-1.183-.285-.37-.81-.968-1.165-1.246-.775-.608-1.866-.672-2.392.212-.22.37-.161-.019-.82 1.127-.7 1.22-2.981 4.135-3.36 4.921-.112.235-.128.36-.218.596-.335.878-1.132 1.477-1.095 2.505l.284 1.884c.118.351.784.66.573 1.078zm25.73 28.88l2.14 2.264 1.992 2.181c.264.236.737.681.91.925l.745.857c.275.248.238.336.432.54.182.192.313.204.528.458.17.202.21.346.414.576.164.183.349.316.508.492.19.211.235.365.419.567.385.423 1.093.892 1.615 1.475.436.488 1.262 1.604 1.529 2.2.439.981.514 1.194.639 2.165.1.776.052 1.385-.05 2.146l-.433 3.294c-.147.521-.12 1.07-.18 1.592l-.182 1.59c-.061.953-.14.705-.158 1.1a10.5 10.5 0 0 1-.114 1.041c-.172 1.127-.09 2.133-.47 3.24-.262.762-.48 1.403-.894 2.12-.847 1.463-.372 1.038-.65 2.132-.08.32-.026.71-.083 1.042-.036.205-.125.294-.181.545l-.157 1.647c.029.563-.057.525-.188 1.098-.083.36-.03.665-.06 1.045l-.027 1.101c-.046 1.35.05 1 .063 1.6l.06 1.102c.024.247-.018.294-.022.495-.008.353.293.771.559 1.107.23.29.443.774.645 1.123.38.66.965 1.093 1.432 1.715.113.15.16.318.308.453s.332.201.5.393l1.468 1.633c.7.696 1.29 1.348 1.979 2.095.662.72.195.32.97 1.008l3.135 3.255c.694.735 1.29 1.438 1.99 2.191.584.626 1.407 1.611 1.98 2.118.603.531 1.516 1.57 1.985 2.178.495.644 1.47 1.51 2.057 2.12l5.154 5.443c.639.4 2.49 2.562 3.147 3.216l2.947 3.264c.955.79 7.909 8.31 9.31 9.797 1.385 1.47 2.68 2.951 4.123 4.363.178.175.342.254.487.451.14.191.162.37.356.564.442.447.446.308.922.96.349.476.753.621 1.05 1.018.422.562.449.523.926.975.26.25.585.76.955 1.123l4.602 4.914c.893.808 1.612 1.676 2.454 2.562l3.132 3.28c.55.744 1.303 1.092 1.949 1.67l1.057.69c.158.11.36.167.539.177l3.797.145c.399.006.666-.105 1.104-.083a3.89 3.89 0 0 0 1.049-.055l3.252-.155c1.895-.078.572.563 3.267-.599.449-.194.649-.168 1.113-.4 1.433-.719 1.738-.322 3.21-.533.265-.039.33-.007.553-.022 1.124-.08 2.662-.3 3.75-.293.472.003.549.101 1.105-.013.707-.145 3.376-.274 4.305-.336.183-.01.824-.059 1.047-.019.693.122 1.584.367 2.182.717.25.146 1.918 1.286 2.084 1.543.364.563 1.292 1.448 1.796 1.94l1.98 2.02c.316.35.58.727.967 1.096.377.358.666.612 1.022 1.065.593.752 1.359 1.473 2.032 2.18l.958 1.017c1.364 1.462 1.507 1.584 3.078.012.6-.602 1.757-1.437 2.12-2.043.302-.498 3.534-3.402 4.207-3.98.9-.773.724-1.032.71-1.61-.003-.15.065-.366.118-.493.254-.608 3.503-3.409 4.244-4.186.836-.872 2.187-1.28 3.289-1.03.26.058.284.13.544.222.71.252 1.03.58 1.592 1.167.692.722.392.897.493 1.694.07.565 1.905 2.282 2.374 2.776.387.407.556.718.897 1.08l10.26 10.648c.289.345.576.692.878 1.006.275.286.654.691.966.964.264.23.188.288.337.508.162.236.318.26.53.442.347.295.572.642 1.017.771.4.115.765-.059 1.109.136.382.218.672.612.903.946.499.718.319.384.532 1.118.117.401.228.661.347 1.057.126.415-.031.68-.246 1.091-.22.418-.123.592-.55 1.02-.36.362-.735.708-1.07 1.095-.5.577-2.356 2.194-3.001 2.758-.361.317-.672.852-1.12.923-.226.036-.284-.046-.55-.007-.925.138-2.027 1.528-2.757 2.224-.408.39-.712.55-1.135.951-.287.273-.74.772-.97.963-.583.485-.474.53-.836 1.022-.291.397-.636.434-.996.91-.885 1.167-2.777 1.68-1.51 3.11.225.251.792.907.985 1.075.538.468 1.557 1.757 2.08 2.045.916.504 1.168.681 2.139.408 1.506-.425 1.385-.212 2.729-1.184.25-.182.387-.215.555-.335.407-.289.64-.61 1.122-.895.235-.139.358-.239.592-.406.184-.13.32-.153.542-.288.393-.24.689-.443 1.064-.643.522-.279.6-.372 1.114-.75.709-.522 1.493-.774 2.184-1.314a13.87 13.87 0 0 1 2.199-1.385c.299-.15.317-.253.565-.419.146-.099.288-.147.498-.283l6.562-4.2c.946-.477 3.454-3.135 4.48-4.046.738-.655 1.252-1.177 1.59-2.038.484-1.22 1.082-2.439 1.079-3.77 0-.189-.04-.326-.018-.498.045-.375.152-.689.038-1.099-.065-.234.024-1.642-.022-2.15-.067-.73-.45-1.487-.714-2.167-.121-.308-.004-.246-.167-.558-.107-.206-.196-.296-.294-.505-.252-.542-.425-1.134-.707-1.67-.1-.19-.211-.396-.3-.56l-1.643-2.178a19.485 19.485 0 0 1-.825-1.147c-.368-.583-1.517-1.862-1.634-2.076-.352-.644-1.11-1.602-1.6-2.194-.28-.339-.644-.743-.898-1.085-.338-.453-.485-.657-.896-1.13-.151-.173-.81-.852-.864-.953-.116-.216-.056-.296-.275-.549-.181-.209-.295-.24-.433-.456-.146-.227-.141-.339-.32-.55l-3.406-4.294c-.142-.21-.346-.376-.512-.569-.33-.383-.305-.513-.858-1.118-.341-.372-.398-.617-.804-1.06-.472-.514-.1-.53-.833-1.105-.198-.154-.553-.736-.733-.998-.15-.218-.31-.372-.394-.563-.115-.257-.044-.27-.307-.543-1.05-1.087-3.418-4.075-4.301-5.419-.193-.293-.684-.843-.925-1.107-.17-.184-.374-.373-.51-.585-.126-.197-.083-.25-.287-.485-.173-.2-.37-.354-.516-.576l-1.21-1.637c-.532-.449-1.157-1.519-1.616-2.14l-1.77-2.189c-.306-.377-.68-.783-.97-1.14-.285-.353-.493-.752-.762-1.072l-2.446-3.328c-.2-.314-.26-.259-.45-.468l-1.271-1.619c-.156-.27-2.312-2.617-2.603-3.265-.203-.452-1.57-1.756-2.01-2.198-.22-.22-.3-.389-.503-.597-.197-.202-.367-.299-.577-.527l-4.214-4.482c-.731-.708-1.328-1.507-2.062-2.233-.383-.379-.43-.599-.837-1.026-1.41-1.477-2.704-2.86-4.12-4.359l-8.147-8.48c-.637-.72-1.55-1.499-2.098-2.2-.41-.523-.591-.575-.985-.996-.206-.218-.27-.427-.4-.593-.375-.484-3.006-3.337-3.435-3.658l-4.843-5.106c-.59-.527-4.728-4.748-5.243-5.502-.225-.33-1.634-1.692-2.028-2.107-.413-.435-.503-.653-.827-1.035-1.052-1.247-6.771-6.872-7.111-7.482-.331-.594-.576-.603-.948-.905-.64-.518-5.328-5.62-6.11-6.517-.278-.32-.651-.803-.968-1.06-.376-.305-.6-.545-.831-.92-.16-.258-1.76-1.91-2.07-2.177C96.81 62.684 86.194 51.52 85.48 50.6c-.284-.366-.673-.675-1.021-1.046l-.818-1.047c-.301-.426-1.694-1.732-2.165-2.243-.286-.31-.237-.292-.427-.594-.16-.254-.296-.259-.513-.445-.56-.479-1.416-1.623-1.99-2.027-.234-.166-.263-.104-.548-.393-.721-.73-.483-.42-1.01-.872-.537-.462-.332-.42-1.068-.948-.176-.126-.31-.295-.485-.444-.381-.324-.704-.76-1.064-1.044a9.364 9.364 0 0 1-1.063-.947c-.226-.226-.348-.259-.548-.45-.186-.179-.256-.329-.438-.494-.726-.66-1.432-1.02-2.111-1.699-.301-.3-.666-.65-1.006-.98-.354-.345-.656-.5-1.066-.922-.367-.376-.613-.357-1.058-.822-.326-.34-.237-.212-.523-.397-.387-.25-.2-.245-.354-.539-.107-.205-.74-.598-.98-.798-.42-.352-.561-.603-.963-.945-.727-.623-1.235-.759-2.091-1.675l-1.04-.944c-.637-.552-.321-.347-1.071-.856-.504-.34-.365-.578-.907-.888-.621-.355-4.234-3.822-5.322-4.629l-1.451-1.22c-.211-.196-.288-.365-.533-.534-.52-.36-.47-.204-.927-.77L49.3 17.61c-.228-.182-.28-.356-.508-.574-.177-.17-.411-.315-.557-.442-.193-.169-.35-.38-.538-.547-.183-.16-.361-.22-.532-.37-.172-.149-.318-.35-.484-.503-.218-.2-.348-.195-.532-.366-.146-.137-.27-.358-.437-.538-.372-.4-.685-.49-1.014-.78-.26-.23-.208-.339-.415-.55-.237-.243-.305-.14-.548-.285-.707-.42-1.533-1.29-2.116-1.912-.491-.525-.692-.496-1.058-.826-.192-.175-.33-.373-.54-.54-.146-.118-.384-.264-.531-.393-.19-.168-.352-.376-.53-.553-.24-.238-.338-.237-.514-.38-.466-.38-.057-.223-1.07-.933-.43-.3-.354-.41-1.014-.819-.143-.088-.724-.69-.97-.894a31.093 31.093 0 0 1-1.013-.894c-1.183-1.097-1.762-1.72-3.193-2.395-.288-.136-.801-.278-1.002-.484-.38-.388-.513-.409-1.004-.587-.366-.133-.692-.358-1.033-.509-.188-.084-.387-.185-.544-.244-.263-.097-.308-.026-.548-.046-.51-.04-.99-.167-1.593-.109-.674.063-1.52-.09-2.203-.076-.59.012-1.012-.19-1.595.081-.722.336-1.465.508-2.177.841-.295.138-.293.19-.558.257-.67.17-.83.085-1.612.57L15.19 3.705c-.333.385-.41.641-.934 1.07l-1.766 1.98c-.26.326-.416.716-.638 1.037-.497.72-1.016 1.366-1.521 2.103-.226.33-.43.726-.662 1.081L7.43 14.16c-.4.6-.37.4-.676 1.09-.244.55-1.065 1.435-1.412 2.107-.236.457-.505.58-.747 1.026a11.912 11.912 0 0 1-1.422 2.096l-1.124 1.627c-.103.167-.115.336-.168.491-.226.667-.953 1.462-1.333 2.105-.213.36-.261.766-.386 1.098-.478 1.263.18 2.172.98 3.28.52.72 1.355 1.35 1.943 2 1.156 1.277 1.515.664 2.14.072.73-.69 1.498-1.383 2.212-2.086.352-.346.357-.544.915-1.067.373-.35.752-.736 1.132-1.073l1.135-.949c.4-.38.636-.609.97-1.013.33-.397.87-.699 1.15-1.054.302-.378.107-.69.078-1.054-.045-.56 1.25-1.59 1.644-1.989.655-.664 2.497-2.632 3.287-3.112.267-.163.746-.296 1.054-.427 1.17-.495 1.038-.222 2.148.133.428.136.7.322 1.076.674.389.365 1.089.964.994 1.486-.265 1.477 1.768 2.583 2.513 3.598l1.812 1.906c.399.324.468.62.96.988.31.232.215.145.39.441.21.355 2.144 2.308 2.439 2.561.33.282.513.585.959 1.026.64.633 1.012 1.26 1.242 1.495.222.228.329.312.53.576.946 1.237 4.32 4.396 5.076 5.383 1.73 2.258 2.156.86 3.214 1.997.232.25.852.844.998 1.086.117.196.674 1.996.639 2.175-.017.088-.382.928-.46 1.087a3.3 3.3 0 0 1-.803 1.057L40.96 46.53c-.188.175-.347.247-.55.44-.708.677-1.404 1.494-2.17 2.134-.505.423-.613.026-1.114.151-1.386.347-2.115 1.674-3.144 2.588-.69.613-1.513 1.194-2.096 1.96-.703.92-1.176 1.243-1.975 2.011-.336.323-1.676 1.547-1.473 2.095z"/>
        <path d="M25.746 17.954c.2-.073.317-.09.473-.006-.185.33-.288.354-.576.39-.015-.267-.013-.145.103-.384m.741-.462c.046.155.197.248-.183.327-.015-.168-.03-.259.183-.327m.636-.586c.03.124.151.041-.01.243-.15.185-.193.07-.266.05.084-.238.057-.183.276-.293m.7-.722c.141-.14.103.114.034.05l-.006-.005c-.06-.078-.193.12-.028-.045m-13.56 2.631c-.318-.884-.712-.458-1.357-.54-.25-.295-.4-.522-.7-.848-1.52-1.648-1.168-.953-1.506-2.62-.247-1.222.102-1.595.91-2.514.255-.29.253-.509.581-.864l2.446-3.332c.52-.656 1.465-1.92 2.044-2.463.375-.354.533-.397.885-.649.208-.149.664-.516.853-.678.365-.313 1.313-1.065 1.723-1.117.373-.048.53-.052.88-.166l.84-.222c.565-.142 1.126-.485 1.718-.422.782.082 1.392-.004 2.144.17.33.076 1.111.026 1.266.037.887.058 1.746.958 2.554 1.317 2.388 1.066 1.266.758 2.535 1.676.374.27.504.496.872.755.332.232.462.443.774.727.352.322.491.244.831.66l3.268 2.965c1.367 1.432-.067 2.371-1.034 3.37-.725.75-2.688 2.584-3.39 3.054-.31.21-.563.542-.763.792-.52.655-1.14 1.046-1.69 1.666-.197.221-.553.544-.797.78-.892.856-.817.867-1.752.508-.743-.285-2.027-.725-1.673-1.9.174-.576 2.593-2.638 3.23-3.24.524-.499 1.056-1.169 1.725-1.519.284-.146.56-.015.856-.168.398-.433-.549-.914-1.17-.727-.28.084-.26.18-.529.127.202-.463.167-.666.193-1.127.011-.189.007-.215-.003-.42-.96-.776-.748.383-.912.661l-4.536 4.442c-1.069.836-1.95-.455-2.599-1.168-.53-.583-.384-.355-.926-.444-.636-.105-1.589-.832-2.29-.825-.16.002-.103-.007-.218-.007-.126 0-.058-.028-.222.02l-.947.437c-.527.232-1.433.464-1.832.747-.173 1.196 1.5.497 2.091.153 1.715-.997 1.791.026 3.07.27l.593.215c.291.192.953.966 1.236 1.265.757.804 1.765 1.761 2.415 2.6.202.261.825.745 1.105 1.041l4.776 5.022c.4.423.794.897 1.212 1.324.364.37.843.576 1.26.672.46.106.85.296 1.274.131.053-.375.03-.563-.432-.659l-.929-.279c-.614-.208-2.986-2.922-3.6-3.577-.258-.276-1.623-1.596-1.56-1.946.06-.203.2-.178.42-.213.38-.06.243-.074.608-.312.558-.365 3.028-2.817 3.557-3.349l2.348-2.12c.811-.765 1.623-1.53 2.435-2.298.446-.419.59-.688.714-1.154.27-1.012.37-.322.64-.138.767.53 1.603 1.172 2.306 1.878l1.735 1.431c1.075.896 1.346 2.33 1.896 2.856 1.026-.32.061-1.297-.208-1.987-.129-.332-.269-.514-.513-.773-.48-.512-1.819-1.55-2.16-1.912-.273-.288-.45-.515-.775-.745-.317-.225-.414-.36-.7-.659l-1.507-1.199c-.663-.452-1.376-1.532-2.092-1.946-.399-.232-.433-.369-.762-.656-.237-.207-.518-.363-.76-.573-.297-.257-.423-.344-.682-.547-.334-.26-.468-.513-.75-.775-.28-.259-.425-.27-.742-.583-.284-.279-.506-.38-.757-.602-.286-.253-.365-.459-.705-.648-.41-.229-.422-.23-.782-.596-.984-.994-1.204-.768-2.199-1.465-.39-.272-.454-.165-.758-.328-.248-.132-.487-.362-.754-.49-.159-.074-.549-.15-.77-.209-.696-.183-1.542 0-2.254-.089-.14-.017-.23-.049-.387-.063-.14-.014-.245-.004-.382-.013-1.56-.09-1.536.07-3.043.463-.28.072-.465.09-.72.192-.128.051-.26.12-.392.15-.168.036-.22.022-.388.063-.26.065-.576.083-.758.224-.373.286-.416.34-.816.58-.48.29-.852.666-1.396.972-.387.217-.475.417-.704.702-.216.266-.85.574-1.874 2.094-.358.532-.82.98-1.15 1.514-.397.647-1.13 1.542-1.628 2.214-.214.288-.294.533-.479.748-.435.506-.762.896-1.177 1.455-.185.25-.165.44-.123.77.073.58.215 1.774.417 2.265.238.578.791 1.063 1.281 1.535.478.461 1.294 1.838 2.095 1.614.223-.064.605-.24.801-.44M182.36 178.192l-2.443 2.608c-.321.291-.422.617-.886.43-.188-.582.38-.476.905-.974.586-.553 1.96-2.093 2.425-2.064m-1.76-17.266l-.325.328c.39.599 1.783.942 2.567 1.913.278.344.439.58.788.97.28.315.32.595.55.875.33.4.492.552.789.968.38.532 1.137 1.302 1.316 1.844-.365.681-.826.392-1.325.621-.251.117-1.24 1.066-1.53 1.34l-1.396 1.353c-.225.256-.503.382-.74.587-.292.249-.434.573-.685.727-.59.363-.894.695-1.407 1.243-.455.487-.967.885-1.396 1.334-.36.375-.948.815-1.315 1.233-.228.262-.047.309-.242.7-.114.228-.266.568-.421.706-.653-.084-1.311-.978-1.701-1.486-.355-.462-2.742-2.628-3.36-3.51-.401-.576-.115-1.571-.868-1.779-.508.208-.216.665-.12 1.091.124.54-.024.738.464 1.257.803.855 1.607 1.703 2.412 2.548.912.959 6.426 6.674 7.002 7.425.257.338.108.256.468.53.555.42.794 1.264.975 1.898.365 1.266.539 1.239-.082 2.474-.202.4-.322.86-.518 1.196-.175.3-.337.316-.12.61.23.308.38.273.64.221.034-.02 1.469-2.531 1.304-3.367-.08-.405-.154-.737-.352-1.17-.522-1.138.07-.85-1.063-2.292-.75-.954-1.303-1.168-.146-2.29.763-.737 1.552-1.463 2.324-2.19.66-.626 1.632-1.76 2.348-1.935.07-.018 1.089-.113.47-.65-.534-.464-1.938.373-2.308.813-.3.356-.718.78-1.117 1.025a.686.686 0 0 1 .189-.494c.315-.343.804-.514 1.073-.857.185-.236.136-.233.382-.462.33-.302.439-.688.45-1.056.016-.493-.04-.668-.59-.698-.373.445-.02.47-.32.893-.053.075-.63.61-.76.733-.292.28-.567.48-.875.777-.306.296-.443.553-.785.864-.61.558-1.21 1.137-1.812 1.71-.365.348-.498.59-.92.592-.237.004-.631-.026-.864-.232-.677-.596-.823-1.114-.882-1.779-.026-.29-.016-.136.055-.439.045-.193.054-.298.076-.438.064-.405.279-.512.635-.847 1.116-1.047 2.488-2.537 3.664-3.417.655-.49 1.117-1.12 1.714-1.666.313-.285.569-.41.867-.758.355-.416 1.164-1.317 1.716-1.457 1.167-.294 1.787-.2 2.552.863.254.351.52.587.755.9.293.395.129.31.637.904.295.344.245.49.626.904l2.01 2.59c.39.578.98 1.23 1.267 1.848.167.36.127.5.347.898.15.27.307.563.4.886.263.907.656 1.012.633 2.222l.03 1.325c.02.323.056.573.04.88-.051.951.127.766-.302 1.81-.268.652-.571 2.043-.857 2.62l-2.702 3.377c-.692.548-1.221.589-1.81 1.048l-3.573 2.226c-.607.41-1.25.714-1.863 1.185-1.352 1.034-1.328.722-2.65.559-.377-.047-.521-.016-.888-.385-.503-.502-1.756-1.609-1.826-2.276-.05-.476.376-.935-.528-1.023-.18.173-.347.452-.387.663-.17.902.687 1.668 1.287 2.291.38.394 1.018 1.096 1.447 1.288.484.219 1.016.16 1.533.302 1.523.416 2.144-.599 3.732-1.467.295-.16.498-.363.779-.565.89-.647 2.183-1.222 3.088-1.901.86-.647 2.039-.756 2.957-2.06.228-.322.238-.434.55-.742.325-.32.348-.48.597-.756.84-.927.73-.806 1.14-1.793l.37-1.147c.28-1.012.79-1.944.678-3.01l-.004-2.975c.098-.585-.223-.94-.45-1.498-.113-.28-.144-.53-.23-.78-.135-.398-.312-.452-.454-.791-.125-.3-.052-.353-.307-.72a4.985 4.985 0 0 1-.457-.784c-.2-.424-.34-.398-.583-.725-.233-.315-.04-.39-.42-.705-.712-.593-1.01-1.469-1.637-2.17l-1.307-1.527c-.162-.24-.225-.518-.461-.725-.492-.431-.311-.16-.492-.678-.117-.335-.43-.429-.56-.685-.193-.382.087-.24-.41-.637-.465-.374-.358-.399-.65-.763-.18-.226-.6-.58-.723-.794-.193-.341.116-.313-.446-.721-.462-.338-.296-.3-.528-.679-.121-.196-.436-.447-.615-.67-.404-.506-.832-1.087-1.252-1.588-.765-.912-1.814-1.726-2.976-1.978M169.289 163.003c.268.267.646.473.568.833-.12.552-1.106 1.194-1.493 1.375-.251-.27-.324-.485-.455-.771-.325-.708.23-1.842.652-2.123.748.346.27.232.728.686m.667 1.476c.51-.484.884.075 1.278.508.53.585.93.734.18 1.175-.232.137-.425.263-.668.309-.167.031-.543.046-.66.02-.043-.009-1.111-.518-1.273-.702.235-.584.539-.74 1.143-1.31m.807-.726c.482-.579 1.046-1.144 1.69-1.314.656.688.77 1.464.364 2.199-.618 1.117-.645.862-1.698-.253-.321-.339-.29-.236-.356-.632m-1.29-1.027c-.154-.162-.232-.313-.353-.507-.18-.288-.256-.266-.052-.482.293-.31 1.273-.668 1.933-.398.266.109.728.3.92.578-.218.607-.518.67-1.017 1.018-.733.513-.823.436-1.431-.209m-1.887-1.89c-.172.491.283.368-.133 1.334-.806 1.871-.604 1.467.185 4.018-.32.305-.43.271-.34.629.635.046.339-.556 1.564.017.19.09 1.314.522 1.528.54.618.055 1.724-.661 2.332-.591.363.042.42.243.742.388.027-.106.06.005.006-.147-.094-.262-.3-.29-.352-.613-.032-.2.063-.549.166-.766.502-1.055 1.099-1.312.264-3.076-.133-.282-.237-.464-.28-.785-.07-.501.25-.364.037-.76-.364 0-.314.211-.698.136-.618-.121-1.6-.923-2.125-.902-.27.01-.497.159-.723.26-.423.189-.407.097-.723.167-.578.13-.386.503-1.216.221-.182-.062-.047-.036-.234-.07M41.047 30.201c.178-.402.394-.527.78-.896.337-.322.464-.594.887-.428.56.22 1.202.936 1.403 1.481-.293.41-1.099.754-1.57.607-.59-.186-1.22-.22-1.5-.764m.448-2.838c.174.202.567.636.648.796-.207.562-.434.582-.88 1.004-.365.344-.82 1.027-1.206-.683-.132-.586.106-1.246.563-1.699.337.07.613.28.875.582m1.642.98c.208-.424.781-.75 1.148-1.087.24-.218.344-.365.59-.119.437.434.52 1.177.32 1.71-.662 1.777-.933.901-1.246.607-.312-.292-.959-.534-.812-1.11m-2.044-2.086c.333-.337 1.265-.54 1.602-.543.312-.002 1.271.337 1.53.673-.11.551-1.167 1.361-1.6 1.63-.32-.112-1.424-1.184-1.532-1.76m-1.565-1.313c-.193.36.035.247.25.772.14.346-.48 1.917-.575 2.352-.172.79.492 1.57.633 2.333.091.492-.39.358-.292.836.571.028.211-.47 1.508.035.345.136.664.513 1.523.605.473.05.957-.223 1.497-.407 1.491-.509 1.01-.077 1.532.02-.005-.274-.147-.307-.297-.605.35-1.013 1.058-1.434.945-2.616-.067-.702-.54-1.03-.607-1.999-.034-.49.174-.358.15-.723-.367-.116-.38.132-.786.134-.236.002-.52-.163-.76-.277-1.49-.71-1.384-.539-2.366-.199l-1.165.236c-.917.05-.724-.253-1.19-.497"/>
    </g>
</svg>
