<svg xmlns="http://www.w3.org/2000/svg" xmlns:xlink="http://www.w3.org/1999/xlink" width="198" height="207" viewBox="0 0 198 207">
    <defs>
        <path id="a" d="M197.227 207H0V.469h197.227z"/>
    </defs>
    <g fill="none" fill-rule="evenodd">
        <path fill="#F48264" d="M48.116 107.425c.115-.246.322-.196.375-.198-.115.213-.135.292-.399.359.004-.045-.025-.057.024-.161zm1.565-1.553c.242-.228.62-.584.89-.593-.056.239-.258.28-.465.55-.3.396-.13.196-.499.37-.47.225-.257.792-.953.91-.036-.478.475-.606.686-.801.19-.176.092-.2.341-.436zm1.934-1.398c.04-.397.798-1.197 1.227-1.472.357.386-.015.41-.39.817-.284.305-.433.573-.837.655zM74.83 122.3c.321-.236.527-.177.835-.285l1.683-1.124c.265-.176.53-.367.84-.568 1.164-.75.861-.754 1.668-.388.762.347.93.516 1.436 1.328 1.158 1.853-.275 1.904-.91 3.279-.473 1.02-.98.882-1.072 1.62-.027.215-.096.742-.588.469-.606-.338-1.268-1.322-1.55-1.627-.822-.888-.449-.438-1.079-1.016-.306-.28-1.187-1.368-1.263-1.688zm7.238 7.812c.402-.567 1.04-1.041 1.66-.583l3.221 3.38c.514.542 1.983 1.848.57 2.564-.334.168-.556-.116-.825-.391-.555-.561-1.098-1.034-1.67-1.638-.554-.587-1.095-1.19-1.659-1.757-.396-.403-1.096-1.111-1.297-1.575zm-15.67-16.61c.44-.821 1.095-1.141 1.857-.418.601.57 1.42 1.379 1.94 2.015.444.545 1.352 1.504 1.84 1.992.417.423.582.436.437.945-.138.482-.297.65-.747.98-1.18-.82-.582-.456-1.445-1.32-1.014-1.014-3.306-3.3-3.882-4.194zm-3.22-3.495c1.174-1.971 2 .052.641.644-.372-.171-.433-.311-.642-.644zm31.551 31.345c.376.18.924.922.937 1.252.016.392-.7.997-1.002.933-.172-.036-.489-.414-.656-.59-.7-.736.518-1.694.721-1.595zm-34.325-36.436c.286.15.983.908.687 1.273-.03.037-.845.66-1.296.383-.144-.087-.529-.502-.646-.648-.237-.294-.286-.383-.075-.673.357-.49.792-.617 1.33-.335zm30.864 32.855c.8.375-.484 1.375-.833 1.21-.67-.317-.102-1.11.373-1.293.277-.11.21-.035.46.083zm4.047.09c-.096.428-.555 1.095-.83 1.47-.226.307-.213.59-.794 1.39-.128.178-.183.194-.288.38-.135.239-.233.615-.572 1.043-.556.698-.952.99-1.432.498-.95-.976-1.766-2.002-2.719-3.011-.899-.95-1.763-2-2.69-2.865-.394-.368-.928-1.03-1.335-1.478-.235-.258-.428-.371-.673-.644l-1.788-1.951c-.473-.498-.919-.898-1.378-1.384-.252-.268-.372-.493-.597-.718-2.11-2.092-4.124-4.28-6.193-6.472-.229-.242-.489-.488-.709-.724-.223-.241-.308-.44-.584-.731l-5.406-5.738c-.562-.354-.225-.19-.593-.587-.492-.53-1.484-1.674-1.973-2.073-.588-.485-.874-.976-1.34-1.446-.226-.228-.473-.374-.67-.63-.52-.683-3.024-3.005-3.159-3.333-.214-.526.407-.953.89-1.287.306-.213 1.062-.556 1.461-.778.591-.326 2.36-1.48 2.893-1.417-.216.574-1.822 1.945-2.327 2.398-.276.248-.27.318-.562.546-.269.209-.347.28-.425.588-.116.459-.116.779.38 1.195l4.776 4.905c.714.842 2.176 2.205 2.79 2.904l2.962 3.265c.26.369.814.769 1.178 1.196.348.408.618.81 1.015 1.176l3.647 3.849c.76.952 1.406 1.479 2.25 2.374l9.252 9.796c.488.596.5 1.234 1.664 1.288.604.026.821-.367 1.301-.86.485-.5 2.043-2.098 2.578-2.133zm3.175 7.18c.585.618 1.003 1.257 1.76 1.597.522.232 1.34.327 1.94.85-.404.396-.834.529-1.263.586l-.608.05c-1.325-.186-.663-.416-1.744-.595-.552-.09-2.147-1.978-2.293-2.266.265-.545.745-1.017 1.392-.946.44.046.47.357.816.724zm-43.26-43.917c-.23-.478-.21-.023-.398-1.058-.116-.637.484-1.786.84-1.941.223.092.204.193.227.26.027.08.042.22.078.34.232.765.34 1.57.773 1.969.451.415 1.358 1.286 1.603 1.786.155.317.168.183.066.464-.044.24-.525.707-.809.822-.374.153-.622-.225-.935-.537-1.82-1.827-.9-.98-1.445-2.105zm34.04 36.514c-.872-.511.777-1.476 1.118-1.9.791-.984 1.245-.41 1.965.429l.42.56c.115.213.074.414-.23.49-.214.055-.88-.285-1.107-.405-.933-.492-1.729.729-2.167.826zm-24.277-29.291c.25-.401.482-.802 1.154.13.405.562 2.027 1.037-.943 3.237-.306.229-.428.103-.645-.201.156-.607.772-.756.943-1.554.15-.694-.22-.98-.509-1.612zm36.637 44.06c-.918-1.502-1.713-2.025-3.012-2.633-1.019-.48-1.73-1.484-2.462-2.206-.24-.24-.619-.537-.798-.743-.178-.205-.13-.253-.322-.448-.157-.16-.214-.142-.367-.291-.248-.238-.398-.528-.716-.83-.472-.443-1.25-1.028-1.276-1.586l.396-.322c.537.26 1.473 1.588 2.091 2.099l1.982 2.039c.875.944 1.276.856 2.218 1.339.8.41 1.37.269 2.201.014 1.221-.376 1.536-.442 2.288-1.158l3.342-3.182c.362-.263.786-.727 1.124-1.048.345-.327.817-.717 1.118-1.067l.936-.938c.702-.62 1.444-1.414 2.096-2.105.383-.405.686-.618 1.086-.272.69.597.187.906.046 1.074-1.45 1.722-.565.719-2.043 2.09-.314.29-.66.78-.999 1.095l-2.235 2.055c-.883.917-1.197 1.216-2.157 2-.339.278-.142.175-.367.46-.145.186-.336.232-.518.374-.205.16-.274.353-.505.553-.907.79-.797.595-1.086 1.609-.129.452-.743 1.779-.618 2.189.037.119 1.898 2.62 2.658 2.843 1.22.363 1.52.682 2.452 1.082.185.079.276.075.488.155.77.292 1.064.47 1.964.765 1.118.366 1.033.507 2.014.809.42.13.611.316.978.448.347.126.63.174.985.408.565.37.41.236.974.403.326.095.585.314.984.429.687.198 1.578.606.715 1.437-.54-.091-1.855-.714-2.492-.953-.817-.308-.409-.21-.819-.392l-3.323-1.26c-.38-.156-.339-.278-.87-.431-.284-.082-.504-.228-.815-.374-.409-.194-.519-.14-.823-.262-.254-.102-.584-.352-.813-.41-.247-.062-.122.064-.434-.134l-2.448-1.156c-.204-.057-.21-.018-.38-.15-.186-.142-.454-.635-.622-.88l-.607-.837c-.198-.25-.242-.502-.505-.858-.214-.29-.539-.57-.704-.842zm-53.767-58.65c.09.242.231.734.332.89.042.062.757.908.79.935.192.162.545.285.864.54.745.598.346.948 1.69.58.588-.161 1.25-.223 1.836-.474.824-.353 4.304-3.95 5.246-4.816 1.256-1.156 2.304-2.368 3.512-3.373.6-.5 1.07-1.304 1.646-1.588 1.484.677.69 1.402-.387 2.524l-5.547 5.242c-.754.654-2.133 1.902-2.772 2.619-.395.444-.426.962-.64 1.354-.965 1.752-.718 1.3-.292 2.742.597 2.017.586 1.346 1.691 2.642.297.347.78.932 1.151 1.247.843.717.536.529.805.888.211.28 1.192 1.286 1.428 1.704-.523.824-.835.138-1.679-.761-.102-.11-.256-.22-.353-.35-.152-.203-.049-.191-.237-.384-.172-.177-.72-.648-.808-.767-.158-.217-.048-.277-.213-.476-.286-.348-.214.156-1.245-1.146-.2-.252-.515-.477-.776-.791-.61-.737-.692-1.404-.879-1.84-.105-.241-.449-.706-.634-.905-.45-.483-1.236-1.397-1.722-1.76-.775-.58-3.053-2.114-3.353-2.784-.41-.913-.5-1.577-.623-1.843-.075-.164-.17-.275-.24-.432-.153-.333-.02-.231-.069-.45-.024-.11-.32-.685-.407-.89l-.896-2.728c-.09-.305-.272-.57-.408-.898-.133-.323-.152-.59-.295-.94-.125-.307-.223-.618-.31-.891-.129-.402-.067-.478-.258-.886-.345-.734-.144-.26-.324-.893-.092-.328-.267-.5-.356-.89a3.58 3.58 0 0 0-.302-.892c-.615-1.373.771-1.09.771-1.09l.733 1.905c.203.934.92 2.79 1.276 3.674.254.634.307 1.14.613 1.835.19.43.155.518.283.94.124.408.264.543.365.894.083.292.121.657.27.94.242.462.26.415.36.896.114.535.204.519.363.947zm65.207 41.91c.317-.3.76-.648 1.042-.348.674.712.577.688-.048 1.288-.567.544-.488.486-1.088.65-.748-.73-.742-.8.094-1.59zm-46.486-48.75c.19-.18.506-.407.735-.58.5-.374.861.158 1.013.53l-.533.656c-1.069 1.147-1.929.068-1.44-.392l.225-.214zm49.101 50.008c.447.282.446.854.078 1.254-.245.265-.445.287-.674.456-.278.204-.4.377-.683.156-.559-.434-.606-.886-.076-1.223.518-.33.877-.944 1.355-.643zm-51.13-51.277c.203-.315.61-.493.932-.8.75-.717.771-.355 1.254.152.277.29.161.327.161.327-.02.394-.974 1.079-1.686 1.259-.365-.356-.65-.525-.66-.938zm4.463-1.03c.353-.334 1.113-1.337 1.628-.186.153.34-.19.608-.58.956-.793.704-1.276 1.43-1.825.596-.308-.47.401-1.011.777-1.366zm49.506 50.65c-.16.413-.557.719-.95 1.088-.51.477-.399.229-.775.588l-.259.17c-.226-.133-.527-.367-.602-.641-.087-.4.141-.343.82-.983.524-.496.827-1.696 1.766-.221zM68.05 82.348c.52-.49.936.199 1.208.687-.206.445-.174.43-.593.773-.728.593-1.107 1.4-1.819.709-.709-.692-.21-.832 1.204-2.17zm46.994 53.197c-.897-.681-.864-.8-.173-1.482.45-.446 1.028-1.08 1.517-.943.202.056.67.346.587.617-.046.149-.55.32-.749.513-.34.334 0 .303-.46.75-.24.233-.443.438-.722.545zM73.81 76.569c.522.303 1.42 1.262 1.852 1.757 1.901 2.178 3.672 2.787.034 5.244-.753.507-1.667 3.136-3.49 1.24l-1.723-1.805c-.276-.293-.569-.682-.803-.902-.444-.42-.39-.414-.657-.862.36-.497.912-1.28 1.51-1.533 1.126.844.93.953 1.168 1.587 1.393.239.65-1.236-.114-1.852-.322-.26-.174-.37-.69-.74l-1.69-1.756c-.719-.902-.164-.251-.824-.851-.29-.265-.598-.734-.91-.953-.249-.176-.64-.251-.953-.512.38-.476.297-.591.862-.832.346.34.152.185.231.527.194.83.49.68.894 1.116.32.345.548.586.903.9.276.244.453.592.735.88.258.265.56.454.797.73.137.16.17.293.322.457.201.217.233.16.436.344.752.682.901 1.118 1.786 1.349.934-.824-.589-.644-1.187-2.055.28-.571.885-1.162 1.511-1.478zm52.126 49.988c.498.06.79.47.91.913l-1.562 1.516c-.584.556-.949-.096-1.044-.495-.14-.6.42-.697.696-1.007l1-.927zm-3.306.499c-.088-.354-.063-.45.297-.785 1.657-1.551 1.494-1.792 2.366-.666-.132.518-.736 1.023-1.156 1.45-.307.312-.828 1.059-1.507 0zM74.82 76.133c-.092-.36.137-.517.492-.837.322-.292.553-.458.85-.7.4-.328.426-.495.85-.216 1.09.722.403 1.055-.745 2.155-.278.266-.488.587-.808.368-.248-.17-.588-.551-.64-.77zm4.213.398c-.176.532-.286.528-.769.984-.953.899-1.116 1.185-1.522.756-.535-.567-.473-.504.255-1.192.321-.303.646-.696 1-.993.177-.147.303-.212.507-.096.17.098.415.38.53.54zm47.692 46.157c.382-.362.68-.264 1.028.173.523.652-.555 1.324-1.299 2.035-.429.41-.63.733-1.05.29-.8-.85-.36-.91 1.321-2.498zM78.83 75.47c.104-.31.935-1.083 1.285-1.44.696-.706.926-.945 1.558-.016.06.264-.747 1.06-.987 1.299-.64.637-1.527 1.365-1.856.157zm47.712 50.609c.162-.32 1.09-1.235 1.377-1.456.712-.543.793-1.038 1.43-.063.478.732-.99 1.648-1.58 2.097-.52.394-.78.125-1.227-.578zm21.593 6.346c.177.242.207.35.401.592.276.344.193.4.474.719.606.686 1.061 1.405 1.57 1.952.185.199.797 1.28 1.462 2.048.305.355.208.299.396.599.253.4.774.857 1.033 1.294.211.356.414.872.596 1.285.162.366.276.896.45 1.328.616 1.547.273.736.283 1.939.01 1.182.033.35-.216 1.316-.134.517-.024.74-.166 1.26-.082.305-1.18 1.776-1.322 1.913-.858.825-.135.402-.993 1.218-.37.35-2.318 1.507-2.638 1.658-1.074.51-.917.652-1.287.805-.356.145-.375-.005-1.335.429l-2.609.743c-.793.226-.819-.19-2.539.199l-1.933.144c-.333-.067-.309-.083-.66-.026-.475.076-.847.053-1.27.094-.24.022-.445.022-.662.087-.543.16-1.044-.041-1.88.143-.306.069-.363.029-.66.02-.654-.018-1.29.06-1.93.152-.52.074-.82-.006-1.272.062-.363.052-.927-.028-1.264-.088-.869-.157-4.442-1.29-5.139-1.346-.382-.03-.332-.047-.654-.2-.527-.251-.44.25-1.81-1.334-.36-.414-.746-.778-1.099-1.143-1.047-1.081-.304-.687-.89-1.908l-.262-1.934c-.012-1.146.612-1.5 1.083-2.557.276-.621.354-.773.904-1.287l10.031-9.677c.754-.713 1.851-1.651 2.471-2.373.631-.733 1.76-1.215 2.634-1.66.432-.22.858-.533 1.292-.662 1.19-.355.366-.438 2.534-.07 2.48.423 2.144-.128 3.702 1.37.427.412.797.59 1.267.959l1.907 1.937zM78.686 72.179c.375-.356.645-.693 1.046-.27.776.823.58.766-.18 1.526-.44.44-1.028 1.117-1.554 1.294-.794-.667-1.028-.88-.486-1.407l1.174-1.143zM75.64 55.782c.097.176.176.449.327.665.16.228.373.277.518.563.06.117.432 4.193.373 4.525-.077.435-.756 1.573-.975 1.904-.527.796-.306.666-.678 1.29-.449.756-1.578 1.916-2.233 2.536-.412.39-.833.707-1.284 1.134-.28.264-.427.334-.684.534-.299.232-.352.397-.57.63l-5.066 4.818c-.336.385-.797.73-1.21 1.129-.86.823-2.728 2.936-3.796 3.349-.238.09-.465.183-.67.249-.354.112-.378.066-.614.117-.148.03-.52.25-1.329.454-.984.245-.5-.024-1.266-.083-.384-.03-.265-.057-.657-.206-.349-.135-1.035.047-1.91-.693l-2.124-2.5c-.28-.41.01-.343-.429-1.337l-.505-1.954c-.13-.334-.043-.365-.095-.66-.043-.236-.14-.442-.215-.667-.102-.304-.109-.808-.275-1.277-.113-.32-.136-.404-.129-.661.01-.322-.045-.368-.06-.663l.137-1.318c.001-.042.532-3.673.553-4.502.017-.703.204-1.63.22-1.975l.256-1.92c.023-.24.003-.423.02-.662.017-.26.084-.351.11-.603.03-.287.011-.331.088-.66.15-.64-.016-1.263.24-1.921.148-.387.322-.883.446-1.307.13-.441.286-.812.444-1.256.09-.25.198-.434.284-.655.1-.252.11-.381.24-.65l1.73-2.56c.45-.51.304-.698.87-1.233.613-.58.753-.531 1.352-.914.174-.111.347-.3.573-.458.33-.23.318-.208.611-.35.301-.144.34-.34.675-.442.19-.057.42-.033.663-.08 1.244-.233.262-.105 1.27-.088.494.01.862-.196 1.325-.181.635.022.654.172 1.257.428l1.313.616c.375.24.883.245 1.241.499.253.18.211.314.535.554.294.22.345.298.626.557.287.265.427.212.674.43.304.27.23.308.592.516.177.103 1.103.924 1.297 1.132l2.525 2.066c.482.364.82.738 1.253 1.13l2.136 2.61zm53.26 62.26c1.18.775-.388 1.646-.13 2.432.251.765.963 1.36.178 1.967-.288.222-.389.138-.63-.11-.504-.514-.68-.522-.723-1.178l.074-1.27c.201-1.262.034-.97.077-1.261.003-.02.384-1.083 1.154-.58zm1.094 1.756c.294-.276.374-.158.652.058.3.233.361.338.433.618-.242.336-.564.693-.965.69-.18-.176-.387-.691-.462-.936l.342-.43zm-47.66-47.76c.292.064.854.338 1.228.467.696.24.554.167 1.276-.211.48-.252.852-.406 1.16.127.65 1.129-.732 1.358-1.532 1.343-.906-.018-.377.139-1.265-.041-.388-.08-.606.229-1.264-.58-.429-.528-.146-.777.396-1.104zm1.203-1.416c.68-.641 1.861.99.436 1.074-.449.027-1.166-.383-.436-1.074zm41.862 84.722c-.525-.154-2.955-2.023-3.19-2.147-.675-.357-1.998-.97-1.417-1.53.531-.513.976.203 1.66.95.847.896 1.586.68 2.5 1.037.334.129.887.275 1.254.345l2.514.699c.282.1.94.274 1.261.33.69.124.495.13 1.262.169.345.017.342-.06.66-.045 1.286.055.883.036 1.878-.147.294-.053.356.024.662-.03.223-.041.393-.092.61-.092.401 0 .796-.048 1.267-.072.266-.016.377-.051.662-.072.288-.02.346.025.606 0l3.202-.248c.24-.016.354.018.607-.013a16.23 16.23 0 0 1 1.215-.117c.451-.028.794.044 1.268-.005.424-.045 1.957-.593 2.554-.745l1.277-.404c.505-.152.642-.084 1.284-.446l1.964-1.226c1.326-.637 1.796-.994 2.792-2.368 1.034-1.43 1.277-1.35 1.565-2.494 0-.001.09-2.017.741-1.582.28.188.136.393.083.618-.069.299.026.294-.127.654-.37.87-.34 2.42-1.045 3.044-.698.62-.973.972-1.6 1.593-1.939 1.912-2.326 1.612-3.39 2.344-1.048.724-1.463 1.15-2.75 1.352-.268.042-.236.093-.502.213l-2.11.665c-.792.27-.423.173-1.104.075-.306-.045-.69.059-1.048.066-.756.015-.915.072-1.654.027l-1.602.136c-.236-.011-.3-.064-.55-.018-.275.05-.239.06-.497.06-.626.004-1.485-.02-2.095.115-.264.058-.26.087-.552.032-.397-.08-1.202.049-1.602.113l-2.148.024c-1 .077-.492.006-1.103.007-.494 0-.57-.032-1.042-.102-.339-.05-.734-.23-1.04-.274-.882-.126-.644.143-1.589-.213-.323-.121-.232-.036-.549-.064-.324-.03-.269-.118-.549-.176-.249-.051-.24.037-.493-.038zm5.307-36.412c.166-.133.691-.31.854-.32.32-.016.526.2.787.53-.378 1.803-1.714.329-1.64-.21zM84.311 69.945c.032-.307.636-.865.946-.782.342.092.491.446.388.886-.214.912-.26 1.196-1.008.439-.342-.345-.323-.343-.326-.543zM56.154 45.04c.863-.815 1.165-.8 2.162-1.022l1.161-.164c.31-.095.846-.185 1.117-.147.247.28.214.376.185.672-.274.592-1.482-.032-2.71.737-.54.339-.8.45-1.336.878-.22.176-.479.32-.695.438-.524.285-.244.295-1.005.822-.219.15-.383.677-.673.987-.293.316-1.817 2.406-1.92 2.739-.059.192-.008.214-.129.488-.55 1.247-.489 1.323-.859 2.345-.129.355-.258.599-.4.925l-.229.985c-.059.435-.2.495-.139.933.055.389.075.127-.027.496l-.19 1.372c.017.743-.075.51-.152.93l-.472 3.79c.017.234.07.28.026.493l-.339 2.305c-.044.422.06.52-.073.989-.09.322-.04.167-.072.495-.062.663-.16.084-.096 1.373.061 1.23.421 1.825.486 2.439.082.77.312 1.587.51 2.329.088.329.23.608.322.945.493 1.806-.015 1.528 1.137 2.74.453.476.662.847 1.053 1.41l-.442.449c-.594-.057-.834-.572-1.259-1.337-.122-.22-.11-.38-.228-.565-.4-.627-.177-.143-.689-1.12-.643-1.226-1.125-1.338-1.31-3.281-.039-.413-.18-.696-.29-1.108l-.197-1.605c-.098-.677-.165-.146-.196-1.382-.018-.724.03-.576.224-1.37l.447-3.734c.068-.306.046-.234.04-.55-.014-.783.266-1.797.29-2.14.06-.847.05-1.344.177-2.198.352-2.375.085-2.635.893-5.315.105-.35.321-.694.426-1.091.507-1.911.387-1.198 1.705-3.202l.755-1.072c.552-.764 2.33-2.457 3.011-3.101zm73.661 73.236c-.595-.476-.875-.708-.193-1.141 1.374-.868.656-.833 2.545-.486.2.036.526.166.654.179.39.043.742-.3.768.695.005.185.085.463-.015.67-.364.75-.783.013-1.234-.26-.32-.195-2.042.21-2.525.343zM85.891 68.402c.276-.571.673-.45 1.106-.38.687.11.538.542.626.98.22 1.104.09.872.15 1.272.047.323.302.486-.238 1.256-.25.355-.86.95-1.222.679-.315-.235-.112-.578.037-1.261.451-2.062-.002-1.68-.459-2.546zm2.745.694c-.207-.322-.158-.433.22-.64.344.325.105.58-.22.64zm44.285 46.182c.315.059.526.628-.075.637-.607.009-.286-.453.075-.637zM88.696 70.302c.19-.23.487-.388.767-.66.893-.868.955-.24 2.272 1.106.5.51.971.708 1.32 1.384.22.428 1.033 1.155 1.405 1.506.508.475 1.01 1.089 1.455 1.62.144.174.148.242.28.383.323.34.78.63 1.101.997 1.35 1.53 2.968 2.946 4.272 4.534.97 1.18 3.211 3.384 4.394 4.635l2.874 2.928c.184.24.321.499.576.774.703.763 1.492 1.457 2.132 2.272.568.723 1.61 1.572 2.275 2.239l1.337 1.526c.262.296.527.466.718.696.375.453.818.864 1.224 1.317a229.59 229.59 0 0 0 5.764 6.137 42.783 42.783 0 0 1 1.491 1.59c.585.669.673.63 1.305 1.444.74.95 4.678 4.962 5.826 6.175.338.36 1.271 1.029.977 1.498-.118.187-.502.37-.707.649-.247.339-.095.433-.247.68-.54-.028-.943-.311-1.572.159-.623.465-.87.56-1.568.868-.327-.187-.469-.472-.824-.35-.012.568.617.402-.077 1.05-.782.734-.459 1.163-.52 2.076-.026.37-.119.658-.134 1.042-.062 1.677-1.002 1.805-2.176 2.854-.513.458-.61.002-1.014.167.012.353.25.366.117.694-.097.237-.354.328-.548.53-1.468 1.537-1.29 1.235-2.167.652l-.94-.446c-.526-.234-1.429.22-1.844.576-.652.556-1.26 1.25-1.918 1.805-.532.45-1.339 1.03-1.804 1.468.04 1.66-.135.745.438 2.323.352.97.883.692-.373 1.88-.41.39-.48.584-.977.83-.293-.084-.362-.241-.644-.17-.07.238.063.31.162.605-.25.35-.493.63-.88.9-.417.29-.253.414-.477.83-.584 1.086.463 1.297.602 1.833.211.819-4.899 5.04-5.835 6.115-.51.588-1.339 1.24-1.95 1.825-.637.61-1.17 1.283-2.079.848-.79-.376-1.492-.41-2.066-.846-.716-.545-1.219-1.343-1.868-1.88-.748-.616-.855-.355-1.593-.422a8.602 8.602 0 0 1-.274-.035c-.207-.06.003.063-.255-.13.427-1.52-.496-1.83-1.342-2.947.101-.481.554-1.355.848-1.8.318-.482.497-.567.491-1.077-.008-.831.351-1.906-1.557-2.025-.77-.047-.89 1.117-1.548.532-.14-.125-.088-.131-.23-.272-.2-.192-.408-.274-.58-.445-.392-.386-.72-.804-1.19-.891-1.14-.212-1.628.933-2.458 1.313-.143-.291.253-.95.105-1.4-.173-.522-.5-.978-.935-1.433-.884-.924-1.698-1.803-2.606-2.686-.284-.275-.302-.48-.567-.71-.933-.81-.8-1.055-2.075-.964-.603.043-.934.643-1.282.735-.45.119-.956-.575-1.217-1.032-.092-.662 1.225-.746.935-1.738-.216-.736-.909-.383-.109-1.595.743-1.126 1.957-1.956 1.27-3.434-.158-.337-.334-.548-.516-.896-.277-.531-.339-.432-.717-.68-.839-.548-.67-.763-1.675-.894-.204-.026-.675-.03-.889.044-.27.095-.198.108-.378.258-.23.19-.196.092-.397.182l-.895.596c-.358.246-.462.346-.848.52-.579-.301-.758-.741-1.357-.597-.292.072-.71.432-1.016.606-.244.139-.047.112-.337.124-.318-.098-.744-.601-.928-.926.206-.743 1.21-1.128.746-2.401-.212-.581-1.893-2.295-2.5-2.932l-1.77-1.867c-.54-.641-1.017-.938-1.788-.736-.365.097-.278.193-.554.059-.116-.73 1.92-1.462 1.053-2.898-.384-.632-.735-.907-1.139-1.452-.71-.961.758-1.24.523-2.195a1.724 1.724 0 0 0-1.046-1.183c-.254-.097-.485-.227-.71-.175-.537.123-1.008.568-1.449.689-.387.107-.816.473-1.454.743-1.157-.698-.914-1.266-2.436-1.571-.473-.096-.29.159-.794-.132.006-.088.01-.083.032-.188l.167-.771c.026-.206.06-.02-.055-.278l-.222-.67c-.102-.278-.4-.373-.65-.728-.693-.975-1.395-1.136-1.654-2.472-.034-.18-.047-.341-.099-.497-.094-.282-.34-1.051-.25-1.321.257-.365 1.202-1.278 1.58-1.602.446-.385 1.303-1.168 1.647-1.565 1.44-1.657 3.598-3.208 4.992-4.921.957-1.174 1.106-.207 1.686.02.076.028.803.062.88.04.93-.278 1.08-.795 1.738-1.118.412-.203.4.223.816.034-.047-.403-.248-.362-.12-.728.091-.27 1.513-1.593 1.792-1.632.256-.036.684.229.92.396 1.242.883 1.814.58 2.836-.34.391-.351 1.583-1.366 1.81-1.662.794-1.04 2.493-1.731 1.272-3.672-.553-.88-.38-1.133.307-1.735.294-.26.481-.61.857-.873.465-.326.45.054.896.007.031-.183-.084-.406-.059-.578.051-.343 1.067-1.216 1.302-1.398.456-.351.457-.581.96-.852.553-.297 2.007-.246 2.65-.228 1.181.034.767-.14 1.567-.684.474-.322.635.155.967.22.142-.3-.128-.388-.323-.671.085-.235.145-.501.36-.761 1.018-1.231.757-.824.963-2.27zm15.4 10.474c.932.51 1.076 1.082 1.46 1.42.747.663.304.342.646.705.258.27.335.227.545.45.322.34.294.44.47.612.15.148.264.163.442.354l5.454 5.982c1.278 1.354 8.736 8.819 8.704 9.373 0 .024-.417.94-.976.683-.259-.121-4.269-4.435-4.439-4.544-.372-.241-3.055-3.2-3.57-3.745-.32-.336-.392-.154-.538-.66-.089-.31-.052-.322-.383-.477-.54-.254-.952-.845-1.433-1.354-.976-1.033-.584-.83-.91-1.174l-5.548-5.79c-.653-.76-1.367-1.043.075-1.835zm-.497-2.18c-.055.344.101.819.028 1.164-.058.27-.736.969-.96 1.036-.586.18-1.59-1.21-2.139-1.75l-6.736-7.132c-.336-.405-.22-.448-.912-1.177-.834-.88-2.357-2.832-3.399-2.981-.48-.067-1.312-.441-1.696-.428-.813.033-.465-.456-.103-.82.254-.255.291-.282.136-.525-.183.079-.744.477-.914.688-.567.703-.334.365-.932.513-.513.126-1.467 1.173-1.866 1.547-.923.866-1.19-.071-1.876-.787-.32-.334-.646-.613-.95-.925-.265-.274-.525-.791-.746-.607.037.3.377.546.583.765.252.269.39.495.648.774.513.553.89.804 1.301 1.417-.234.772-1.189 2.08-2.025 2.598-.628-.258-.942-.902-1.507-1.182-.759-.377-1.007.477-1.375.855-.36.365-1.157.262-1.518.21-.364-.053-.38-.007-.772.228-.543.326-.303-.064-.779-.078-.135.293-.01.293.143.568-.479.884-.184.587-.37 1.305-.209.802.262.587-.582 1.356-.605.55-.83.38-1.33.85-.227.215-.454.434-.68.649-.103.097-.232.229-.343.312-.084.065-.07.062-.17.11-.189.09-.17.055-.232.065-.41-.124-1.573-1.401-1.822-1.771-.226-.337-.698-.725-.975-1.071-.167-.208-.267-.453-.389-.598-.165-.197-.367-.23-.426-.416-.043-.375 1.701-1.836 1.917-2.054.637-.645 1.3-1.247 1.947-1.92.19-.193.308-.233.48-.39.195-.175.237-.298.478-.501 1.002-.84 2.302-1.9 2.928-2.963l1.132-2.067c.48-.841 1-1.24.927-2.07l-.235-1.548c-.047-.3.058-.441-.035-1.046-.086-.558-.01-1.097-.167-1.655-.088-.314-1.156-1.736-1.426-2.133-.114-.17-.139-.336-.264-.52-.15-.221-.288-.32-.428-.553-.69-1.157-2.02-1.93-2.962-2.783-.22-.2-.242-.33-.47-.495-.226-.166-.277-.093-.547-.351-.336-.322-.624-.78-1.018-1.012-.19-.112-.312-.118-.485-.26-.495-.402-1.067-1.06-1.553-1.381-.342-.224-.735-.542-1.038-.785-.465-.372-.433-.426-1.017-.81-.817-.536-2.182-.935-3.099-1.407-.647-.333-.61-.072-1.102-.231-.237-.283-.23-.904-.18-1.17.064-.338.67-.777.893-1.182-.83-1.13-.933.653-2.594.965-.457.086-.956.246-1.384.233-.553-.02-.868.185-1.44.274-.884.139-.557-.095-1.424.727-.688.65-2.2 2.29-2.809 2.62-.294.158-.577.929-.83 1.266-.218.288-.32.323-.509.649-.363.63-1.067 1.37-1.265 2.057l-1.15 3.437c-.143.368-.409 1.063-.37 1.366.061.465-.118.864-.11 1.375.008.5-.469 3.312-.523 4.17-.03.487-.007.867-.1 1.374-.063.335-.054.406-.06.715-.01.354-.123.39-.144.712l-.369 3.46c-.11.506-.107.907-.082 1.377.041.757-.075 1.36.185 2.098.276.78.155.734.351 1.388.268.893-.11 1.837.988 3.54.474.736.914 1.283 1.21 2.082.17.465.643.907.838 1.399.168.424.291.378.48.738.36.69-.102.869.598 1.45.554-.298.3-.566.34-.986.042-.434.606-.888.986-1.115.63.232.322.386 1.58.583.396.06.381.085.766.21.76.246 1.67.453 2.415.248.712-.196 2.716-.728 3.22-1.128.84-.67 3.981-4.008 4.59-4.24.285.193.07.217.281.389.385.316.083-.364 1.578 1.219.615.649 1.563 1.497 1.912 2.179-.373.577-1.657 1.614-1.73 1.877-.246.886-.767 1.319-1.687 1.27-.905-.047-.622.016-1.5.408l-.417-.233c-.238.472.134.196.11.666-.042.17-.665.7-.607 1.685.031.535-.438.859-.839 1.237-.678.635-1.042 1.352-1.792 1.958l-6.897 6.529c-.34.32-.68.643-1.018.966-.47.448-1.44.628-2.03.698-.43.054-.554.14-.977-.267-.997-.96-1.345-.945-1.537-1.8-.157-.7-.519-1.293-.752-2.008-.113-.35-.18-.66-.278-.997-.087-.295-.267-.697-.385-1.002-.157-.401-.198-.637-.308-1-.098-.321-.34-.696-.419-1.007-.21-.812-.398-1.258-.73-2l-.948-3.004c-.149-.658-.514-1.322-.492-1.996.017-.53.034-.616-.537-.792-.253.267-.34 1.175-2.022 1.038-.296-.023-.466-.147-.78-.02-.207.669.317.382.771 1.847l.694 1.892c.262.673.451 1.213.592 1.838.09.39.282.57.371.947.12.509.128.43.368.939.15.32.14.587.214.893.098.412.354.556.411.95.08.54.117.488.342.944l1.33 3.729c.19.473.023.47.43.96.452.544 1.074 1.008 1.674 1.403.666.44 3.21 2.578 3.56 3.25.508.98.157 1.956-.697 2.617-.416.322-.44.518-.826.833-.363.296-.524.293-.945.693-.656.624-3.107 3.134-3.704 3.272-.446.105-.533-.191-.609.538l.266.314c1.293-.14 1.712-.814 2.182-.945-.108.282-.454.457-.717 1.077-.23.544-.295.552-.31 1.073.303.336.585.43.83-.066.131-.267.226-.613.444-.861.276-.312.594-.57.898-.852.964-.894 1.667-1.75 2.766-2.526.625-.442 1.244-1.26 1.852-1.676.583-.401.9.117 1.23.476.593.65 1.568 1.312 1.91 2.123.158.38.478.427.81.764.332.338.498.532.84.83l1.555 1.7c1.833 1.707 4.132 4.283 5.837 6.195.355.396.606.54.497.966-.197.764-2.56 2.69-3.287 3.209-.529.378-1.995 2.19-2.596 2.364-.398.114-.49-.416-.928.189.383.905 1.252.8 1.852.33.89-.694 1.288-1.372 1.863-1.841.218-.176.28-.125.505-.361.637-.664.164-.42 1.377-1.283.677-.482 1.427-1.46 2.09-1.944.415.325.033.616-.27.929-.343.358-.652.643-.995.994-.403.414-.632.29-1.018.73-.748.847-.456.41-1.022.767-.314.2-.115.368-.76.977-.74.696-1.204.685-1.767 1.794-.264.518-.587.345-.456.923.096.42.482.763.851.472.464-.366-.122-.372.357-.984l1.842-1.896c.376-.32.692-.465.99-.831.44-.542 1.311-1.122 1.89-1.68 1.366-1.321 1.425-1.422 2.758.102.55.63 1.154 1.209 1.691 1.853.33.393.628.589.942.913l2.693 3.013c.348.435.55.523.887.89l4.668 4.915c.348.366 1.486 1.553 1.73 1.995-.4 1.015-1.637 1.746-2.362 2.358-.328.275-.6.614-.957.916-.704.593-2.127 2.174-2.775 2.58-1.505.94-.244 1.32.232.943.188-.148.137-.211.404-.405.236-.172.293-.183.52-.41.315-.32.653-.644.951-.978.432-.481 1.364-1.241 1.917-1.77.385-.368.683-.501 1.026-.846.464-.465.896-.935 1.413-1.336.42-.323.787-.078.448.397-.12.168-.284.338-.408.493-.424.53-2.224 1.905-2.953 2.605-.675.647-1.349 1.293-2.032 1.932-.56.52-.413.414-.692.97-.222.44-.328.653.15 1.063.128-.051.265-.083.406-.233.267-.284.132-.623.825-1.293l2.774-2.624c.486-.463 1.062-.87 1.815-1.595.222-.213 1.06-1.261 1.812-.227l1.642 1.692c.3.307.452.643.786.894.59.443 1.143 1.203 1.66 1.644.305.26 1.253 1.366 1.534 1.734.374.49 2.862 3.158 3.278 3.47l1.607 1.772c.65.678 1.428 1.098.81 1.854-.67.818-.802.977-1.637 1.579-.84.606-2.28 2.047-3.1 2.86-.208.206-.314.199-.512.373-.388.34-.2.5-.793.656-.45.116-.554.22-.507.672.957.719 2.2-.928 2.902-1.57l4-3.7c.18-.172.511-.58.8-.44.473.228-.53.956-.695 1.12-.69.687-1.34 1.064-2.018 1.724-.145.14-.294.333-.416.426-.182.139-.298.135-.447.309-1.2 1.393-2.11 1.727-2.56 2.84-.157.385-.253.657.045.982.593.018.591-.163.696-.631.108-.478 3.082-3.033 3.733-3.693.286-.291.591-.44.971-.82.72-.715 1.23-1.176 2.097-1.278 1.052-.121 1.013.325 1.9 1.12.996.894 1.444 1.918 2.26 2.958.15.195.145.297.293.492.477.625.55.912 1.272 1.362.498.309.601.18 1.04.424.39.215 1.023.596 1.462.72l6.585 2.728c.703.258 1.311.55 2.015.869.57.26 1.501.53 2.018.829.345.2.434.819.877.5.36-.258.005-.64.083-1.043.324-1.686.8-1.37 1.193-1.674l-.2-.477c-.475 0-.666.065-1.105-.088-.46-.16-.683-.154-1.143-.416-.757-.43-.716-.233-1.149-.427-.179-.081-.344-.215-.54-.306-.267-.124-.384-.101-.603-.178-1.148-.398-2.268-.998-3.427-1.476-.458-.188-.704-.252-1.14-.442-.374-.163-.455-.088-1.092-.414-.483-.247-.666-.227-1.148-.532-.336-.211-.819-.337-1.135-.474-1.167-.508-1.307-.602-2.07-1.743-.409-.611-.628-.422-.548-1.173.05-.474.254-.757.322-1.15.082-.468.118-.682.611-1.144.68-.638 8.235-7.663 8.81-8.342.442-.523.937-1.278 1.565-1.603.428-.222.791-.092 1.157-.08.414.017.797-.317 1.18-.557 1.06-.667.835-1.747.931-2.187.098-.445.557-.754.966-1.063.44-.336.862-.51 1.21-.832 1.255-1.17.725-1.367 2.914.944.234.248.774.728.913.914.352.468.07.54.49.995.194 0 .357-.023.548.075-.062.592-2.96 3.11-3.555 3.672-1.128 1.067-1.359 1.556-1.992 2.774-.209.4-.24.573-.402.978-.194.488-.282.404-.248.929.064.98.42 1.89.558 2.88.05.357.007.626.185.94.233.413.468.578.041.98-.225.213-.713.514-.939.543-.41.054-.568-.36-.97.245.32.543.781.394 1.275.727l1.352.823c1.078.664 2.98 2.208 4.057 2.583.897.31 1.823.32 2.738.572l2.688.463c.606.059 1.428-.071 2.038-.061.364.006.284.143.716.017.631-.185 2.64-.132 3.421-.188l7.558-.384c1.26-.221 2.871-.856 4.164-1.208.794-.216.645-.203 1.384-.681.201-.13.486-.278.688-.385l2.121-1.27c.47-.306 2.248-2.024 2.604-2.488.418-.547.718-.508 1.03-1.24.112-.266.103-.423.127-.658.072-.69.496-1.351.63-2.074.078-.43.122-.972.332-1.37.221-.418.895-.496 1.238-1.022-.254-.725-.62-.293-1.186.007-.38.2-1.108.304-1.453.109-.23-.231-.139-.811-.196-1.121-.136-.736-.579-1.522-.816-2.226a4.643 4.643 0 0 0-.519-1.12c-.307-.49-1.988-2.96-2.392-3.394l-3.353-4.55c-.287-.391-.71-.78-.997-1.121-.282-.334-.586-.272-1.07-.785-.409-.431-.662-.456-1.024-.914-.28-.353-.663-.522-1.007-.797-.626-.496-.623-.192-1.15-.365-.38-.125-.682-.026-1.094-.155-.607-.193-1.037-.017-1.647-.191-.528-.15-1.068-.265-1.652-.094l-1.674.753c-.295.19-.296.115-.555.26-.384.218-.716.43-1.118.656-.612.345-.685.356-1.2.923-1.089 1.2-1.829 1.669-2.636 2.572-.244.27-.289.183-.543.403l-1.025 1.087c-.22.232-.312.187-.56.41-.552.497-1.045 1.127-1.583 1.617-.452.413-.597.327-1.014.86-.268.345-.847.829-1.158.887-.366-.732.421-.181-1.174-1.873-.305-.324-.468-.625-.799-.897-.418-.347-.47-.59-.803-.894l-1.234-1.33c-.205-.28-.256-.213-.475-.4-.295-.256-.573-.72-.905-.932-.276-.176-.649-.21-.933.008-.318.519 1.096 1.098 1.5 1.916-.299.473-1.035 1.23-1.548 1.436-.245-.127-3.218-3.106-3.503-3.516-.517-.741-.61-1.142-.368-1.883.19-.58 1.181-1.331 1.677-1.801 1.194-1.128 2.33-2.506 3.766-1.026.763.783 2.917 2.906 3.325 3.724l-.838.87c-.338.385-.627.548-1.006.43-.566-.352-.963-1.751-1.67-1.345-.116.724.483 1.293 1.047 1.838.536.516 1.155 1.37 1.671 1.796 1.885 1.557 1.962 3 3.601 2.62l-.148-.68c-.669-.334-.082.224-1.113-.68-.774-.677-1.453-1.517-2.119-2.283-.414-.478-.056-.67.32-1.133.302-.374.68-.646.927-1.067.468-.797 1.045-1.455 2.028-1.436.753.017.6-.14 1.164-.268.41.056.375.347.778.216-.039-.2-.29-.501-.262-.72.095-.447.54-.586.52-1.25-.016-.571-.088-.707.49-1.243.763-.71.943-.981.156-1.88l-.392-.503c-.246-.494.455-.934.886-1.36.354-.346.347-.202.613-.375.23-.148.423-.407.68-.584.68.133 1.06.735 1.616 1.32l1.232 1.27c.26.229.208.227.447.17-.086-.606-2.668-2.56-2.682-3.063-.017-.666 1.936-1.751 2.166-2.528.241-.811.724-.898 1.167-1.55-.506-.215-.574.3-1.02.403-.445-.185-.259-.574-.305-.84-.058-.337-.197-.556-.234-.998-.125-1.513-2.065-2.82-3.009-3.928-1.252-1.471-2.758-2.818-3.789-4.025a10.994 10.994 0 0 0-.97-1.016c-.314-.293-.45-.677-.81-1.054l-3.723-3.982c-.188-.443.492-1.053.863-1.23.416-.197.871.033 1.322.01.623-.798-.636-.783-1.178-.971-.49-.171-4.556-4.653-5.337-5.503-.24-.261-.462-.41-.68-.644l-3.287-3.65c-.369-.361-.926-.945-1.337-1.303l-5.725-6.162c-.476-.535-1.598-1.414-1.862-2.032-.198-.463-.078-2.023-.973-1.303z"/>
        <g transform="translate(0 -.469)">
            <mask id="b" fill="#fff">
                <use xlink:href="#a"/>
            </mask>
            <path fill="#F48264" d="M3.816 30.093c.336.216.072.533-.224.568-.104-.128-.271-.259.03-.501.126-.1.112-.051.194-.067zm26.29 27.457a.493.493 0 0 1 .396-.372c-.038.187-.173.316-.395.372zm.649-.611c-.036-.268.116-.298.345-.453.272-.182.274-.281.527-.268-.255.235-.583.681-.872.721zm98.3 107.633c.184-.392.34-.249.732-.292.303-.034.484-.075.772-.085.336-.013.439-.053.775-.097l2.256-.028c.69.126 1.762-.239 2.265-.173.94.122 1.509-.286 2.263-.142l2.258-.016c.488-.002.322-.238.734.003.003.145.012.03-.03.174-.222.799.082.864-.14 1.043-.561.178-.506-.47-1.132.315.127.309.196.32.515.54.14.097.56.334.643.422 3.333 3.714 3.695 2.935 1.342 5.159-.171.161-.281.496-.45.692-.311.365-1.57 1.362-1.861 1.717-.37.445-.737.943-1.246.527-.855-.698-5.665-5.913-7.11-7.428-.153-.161-.667-.839-.69-.848l-1.896-1.483zm10.736 10.822c.305-.804 2.008-1.876 2.976-3.222l2.23-2.048c1.18-.749 2.335-3.02 3.22-2.024-.516 1.054-3.566 3.317-3.828 3.675-.744 1.01-.711.752-1.438 1.626-.256.308-.708.651-1.04.976-1.495 1.473-1.41 1.816-2.12 1.017zM11.6 23.154l-2.547 2.541c-.86.831-.316.003-1.268 1.129-.272.323-.808.76-1.035 1.067-.133.18-.16.311-.384.586-.357.433-1.17 1.266-1.626 1.293-.465-.903.823-1.484 1.393-2.18.282-.345.292-.593.63-.853l1.926-1.655c.5-.454.342-.394.676-.758l1.245-1.175c.382-.362.726-.452.99.005zm161.676 172.745c.292-.277.494-.404.783-.368.197.369-.002.609-.406.956-.303.259-.652.626-.976.931-.352.334-.66.765-1.058 1.007-.354.217-.241.108-.521.445l-1.193 1.169c-.913.907-1.016 1.367-2.165 2.243-.395.303-.588.984-1.377 1.122-.506-.415-.183-.611.22-.985l2.043-1.925c.406-.39.285-.551.649-.894l1.528-1.445c.252-.238.629-.42.888-.655l1.585-1.601zM36.928 51.687c.135-.127.385-.333.539-.457.286-.23.259-.201.518.056.167.565-.2.546-.523.853-.41.386-.351.415-.69.802-.436.498-.265.006-1.137 1.001l-1.4 1.244c-1.016.892-.99 1.242-1.378 1.601l-.726.705c-.257.244-.618.462-.964.795-.722.696-1.133.265-.575-.261.843-.794 2.44-2.148 3.058-3.092.502-.768.844-.868 1.45-1.441l1.828-1.806zm137.009 145.817c.964-.91 1.837-2.076 2.928-1.469.702.393 1.527 1.418 1.978 2.071.303.437.398.479-.111.961-1.013.958-2.147 1.322-3.003 2.032-.32.264-.942.589-1.348.774-.738.339-1.097.782-1.96 1.274-.205.117-1.118 1.161-1.854 1.278-.275.046-.946-.174-1.312-.297-.59-.196-.757-.248-1.038-.87.277-.48.702-.814 1.178-1.265.594-.56.8-.957 1.318-1.441.336-.315.86-1.005 1.177-1.248 1-.762 1.11-.914 2.047-1.8zM4.077 28.364c-.678.641-1.133-.148-1.33-.701-.108-.306-.14-.391-.08-.664.13-.592-.04-.296.03-.663l.8-1.347c.233-.362.089-.413.2-.66.082-.177.348-.399.497-.65.565-.952.276-.508.93-1.34.19-.24.213-.392.439-.671.975-1.197.999-1.541 1.3-1.92l1.365-1.956c.582-.55 2.14 1.313 2.67 1.872.214.227.346.835.306 1.133-.132.971-.982 1.394-1.352 1.775l-1.334 1.315c-.302.286-.485.551-.811.841-.284.252-.548.444-.883.761-1.702 1.61-.79.93-1.438 1.705-.261.313-.524.259-.791.422-.32.196-.173.421-.518.748zm39.245 19.955c-.121.387-.024.471-.041.77-.013.21-.195.64-.215 1.538l-.276 2.305c-.277 1.323.123.559-.076 1.155-.26.777-.022.585-.175 1.152-.443 1.642-.128 1.725-.465 3.014l-.14 1.541c.049.458-.157 1.062-.241 1.535-.176.992-.06 1.916-.338 3.078-.098.408.096.432.084.773l-.36 2.687c-.13.771-.075 2.266-.518 2.59-.293-.112-.383-.302-.568-.586-.661-1.01-2.167-2.603-3.034-3.59-.49-.554-2.204-2.135-2.711-2.784-.228-.293-.202-.383-.555-.762l-1.348-1.406c-1.715-1.488-1.298-1.577-.702-2.141.315.121.586.048.823-.232-.02-.295-.021-.158-.138-.413.57-.638 1.299-1.228 1.608-1.73.143-.232.308-.364.539-.579 1.147-1.075 1.293-1.599 2.472-.432.42.417.786.892 1.234 1.3 1.114 1.012 1.653 2.345 2.088 2.392.202.023.414-.082.416-.336 0-.178-.142-.455-.197-.599.364-.184-.111-.094.629.028.617.104.778-.205.61-.765-.204-.092-.216-.044-.416-.119-.525-.197-.721-.514-1.03-.869-.687-.787-2.691-2.584-2.667-3.277.018-.512 1.048-1.059 1.357-1.508.209-.303.03-.895-.107-1.206-.168-.383-.114-.017-.066-.395.042-.329.217-.459.532-.753.828-.771 3.487-3.494 4.014-3.628.357.347.08 1.101.015 1.485-.074.433.136.205-.037.767zm98.335 115.368c.275-.212.453-.141.709-.139l2.15-.134c.253-.023.427-.132.72-.104.357.031.326.099.715.007l1.436-.146c1.534-.107 1.17.02 2.872-.209.347-.046.973-.002 1.433-.033.468-.032.99-.232 1.42.079-.203.829-2.111 2.204-2.83 2.884-.41.388-1.038 1.352-1.576 1.303-.215-.021-.227-.073-.436-.118-.383-.082-.834-.188-1.16-.034-.435.208-1.212 1.141-1.626 1.125-.453-.014-1.2-.993-1.576-1.39-.823-.872-2.371-2.084-2.251-3.091zm1.143-3.446c.343-.2.858-.179 1.206-.177.45.001.19-.116 1.215-.108l1.215-.103c.555-.068.68.356.703.774.01.169-.016.124.007.332.023.218.093.015.02.277-.068.252-1.066.412-1.111.413-1.114.02-1.713-.033-2.958.155-.297-.331-.331-1.393-.297-1.563zM45.769 54.395c-.021.25-.008.238-.06.494-.046.232-.103.354-.096.549.009.281.048 1.281-.221 1.467-.26.067-1.126.057-1.357-.356-.17-.301-.021-1.016.073-1.376.105-.401.008-.296.078-.714.066-.388-.04-.474.122-1.043.233-.827-.044-.635.31-1.003.22.028.38.083.637.121.965.146.605.575.595.872-.007.197.064.263.03.499-.034.237-.09.227-.111.49zm102.427 106.832c-.274-.342-.228-.452-.247-.796-.054-.94.247-.673.968-.695.229-.006.526-.116.775-.139l6.846-.506c1.59-.265 1.137 1.456 1.13 1.467-.421.355-.834.244-1.236.267-1.037.062-.908.196-2.372.148-1.383-.046-.894.285-2.376.262-1.386-.024-.39.037-1.49.091-.154.008-.17.03-.277.037-.281.019-1.423-.011-1.721-.136zM46.79 45.832c-.03.268.038.354.01.606-.025.244-.111.302-.14.547-.025.21.007.39-.02.604-.056.493-.233 1.282-.19 1.758.027.301-.093.429-.16 1.151-.125 1.35-.146 1.309-.902 1.195-.364-.054-.391.041-.715-.405-.075-.545.077-1.046.094-1.382.014-.281.064-.362.114-.661l.403-3.292c.002-.279-.058-.379 0-.661l.224-1.315c.01-.284-.005-.393.059-.659.217-.897-.26-1.442.979-1.441.365 0 .375.057.664.391-.045.219-.05.3-.12.597-.133.569.113.217-.021.935l-.167 1.428c-.01.225-.084.35-.112.604zm111.766 113.285c.406-.226.388-.169.739-.162.453.008.768-.105 1.324-.096.258.005.384-.029.662-.054.329-.03.41-.006.719-.051 1.158-.168.758 1.508.752 1.517-.196.277-2.222.46-2.515.408-.551-.097-.725.056-1.467-.016-.33-.465-.356-1.098-.214-1.546zM47.169 41.115c-1.726-.171-1.241-.39-1.22-1.699.02-1.063.244-1.51.23-1.975-.004-.185-.032-.484.222-.658.218-.15 1.137-.006 1.296.358.08.181-.137 2.44-.2 2.653-.195.664.164.822-.328 1.321zM2.709 29.498c-.287.063-.276.014-.554-.282-.4-.422-.985-1.097-1.191-1.605-.276-.679-.08-1.462.37-2.043.384-.495 1.162-1.505 1.346-2.037.253-.738.82-1.383 1.217-2.001.349-.542.956-1.093 1.445-2.055.116-.229.313-.354.694-1.025.167-.294.484-.672.694-.977.24-.351.479-.675.692-1.024.17-.28.432-.854.546-1.016.506-.73 1.007-1.33 1.515-2.006l2.693-4.061c.207-.42 1.063-1.493 1.404-2.047.665-1.08.7-1.03 1.59-1.902.825-.806 2.09-2.291 3.12-2.626.337-.109.73-.312 1.007-.385.584-.157.98-.236 1.607-.536 1.058-.507 1.527-.631 2.557-.605.38.01.736-.001 1.045.022.21.018.338.084.546.11.18.021.32.001.497.01l1.045.035c.737.004.919.172 1.525.519l1.04.481c.29.173.209.205.385.331.142.102.293.084.53.195.234.108.28.197.495.345.32.22.614.13.974.301.664.318 1.417 1.388 2.048 1.834l1.022.842c.482.309 1.574 1.277 1.978 1.745.623.722 1.587 1.167 2.069 1.688.412.443.765.639.926.813.449.488.558.466.95.838.182.171.353.401.536.565.18.161.259.166.468.321l1.886 1.635c.749.555 1.262 1.229 1.944 1.776.173.14.376.192.53.307.183.137.316.335.482.487.6.555.324-.004 1.985 1.767.797.848 2.29 1.832 3.023 2.603a13.46 13.46 0 0 0 1.978 1.708c.988.702 3.25 3.137 4.038 3.581.59.333.46.565.91.865.449.299.545.474.965.805.399.316 1.722 1.408 1.99 1.74.158.196.716.505.98.755.812.764 1.593 1.666 2.512 2.301.21.146.308.128.514.303.407.345.344.541.876.937.309.232.683.611.959.867l3.998 3.461c.372.447.304.076.906.836.262.331 1.543 1.158 1.992 1.613.149.15.326.376.487.499.232.177.219.064.476.306l2.04 1.751c.909.708 5.289 5.239 6.023 6.171 1.064 1.352 2.663 2.79 3.905 4.129 2.594 2.795 5.527 5.62 8.005 8.51l4.02 4.134c.357.334.368.591.778.988.334.321.676.711.953 1.034l3.888 4.026c.233.188.837.828 1.017 1.071.393.528 1.145 1.433 1.655 1.86.688.576.539.629.892.945.404.36.66.571 1.047.977.316.335.614.773.926 1.055.834.755 1.656 1.848 1.944 2.1.668.586 1.377 1.29 1.997 1.996 1.205 1.372 2.435 2.627 3.625 3.964.374.42.666.544 1.012.977.544.679 2.335 2.441 3.01 3.155.659.698 1.285 1.445 1.884 2.078 1.826 1.928 3.887 4.038 5.595 5.965.908 1.024 1.85 1.755 2.825 3.005.469.6 2.275 2.401 2.873 3 .267.268.5.646.838 1.001 1.256 1.318 2.418 2.31 3.642 3.824l6.716 7.057c.317.261 1.598 1.54 1.814 1.882.229.365 3.485 3.794 3.964 4.237.754.698 5.429 5.675 5.814 6.289.473.752 2.183 2.589 2.473 3.156.29.571 1.933 2.492 2.444 3.134.184.232.208.412.33.573.178.233.198.08.383.402.412.714.972 1.53 1.549 2.131.746.78 1.713 2.247 2.446 3.164l1.278 1.577c.224.272.118.259.28.496.282.405.66.664.874 1.071.215.411 1.476 1.771 1.67 2.149.327.631 1.277 1.301 1.623 2.085.238.539.504.541.784.904.12.158.186.404.28.547l1.375 1.554c.298.349.28.488.808 1.065.329.36.383.681.693 1.051l2.425 3.174c.559.562 1.95 2.469 2.469 3.136.393.508.548.477.865 1.071.205.384.575.567.85 1.077.198.369.553.603.82 1.072.278.484 2.31 2.909 2.382 3.034.328.581.537.564.809.959.25.367.022.375.474.885 1.047 1.179 2.52 3.277 3.427 4.229.629.662.77 1.451 1.472 2.148.5.498.482.688.8 1.061.574.672.942 1.166 1.194 2.081.266.969 1.054 2.294 1.327 3.123.128.387.133 1.573.054 2.041-.084.498.105 1.235-.008 2.037-.063.448.013.519-.13 1.042-.28 1.033-.655 1.535-.811 2.073-.116.399-.314.617-.475.978a9.291 9.291 0 0 0-.365 1.036c-.22.731-2.271 2.201-2.87 2.728-.4.352-.417.573-.96.793-.741.299-1.451.921-2.128 1.252l-3.143 1.972c-.678.464-1.46.824-2.077 1.262-.195.141-.324.285-.56.409-.948.497-.825.624-1.46.964l-5.261 3.279c-.552.411-.565.192-1.026.515-.363.256-.643.53-1.06.774-.52.304-.616.225-1.011.744-.371.487-1.447 1.03-2.015 1.221-.877.295-1.078.732-2.04.094-.516-.344-.537-.246-.925-.729-.242-.3-.735-.688-.644-1.037.377-.06.85.596 1.21.78l2.417.232c.955-.136 1.667-1.135 2.464-1.59.234-.132.406-.29.639-.456.244-.174.352-.188.613-.374.469-.334.79-.347 1.209-.659.768-.568 1.64-1.047 2.427-1.595.952-.664.637-.552 1.124-.913.936-.692.364-1.397.205-1.778-.26-.616-.847-1.131-1.385-1.656-.535-.526-.374-.474-1.07-.831-.622-.321-.506-.399-1.202-.338-.417.034-.774.244-1.154.098-.184-.549.215-.662.58-1.04l4.408-4.162c.299-.361.922-1.782.937-2.171.013-.32-.152-.806-.242-1.109l-.447-1.155c-.215-.457-.36-.68-.77-1.118-.745-.799-2.15-2.489-3.097-2.856-.444-.172-.665.049-1.096-.258-.233-.166-1.912-1.907-2.101-2.149-.254-.325-.276-.228-.543-.487-.21-.203-.281-.371-.51-.594l-3.275-3.334c-1.303-1.514-2.922-3.083-4.337-4.58-1.874-1.985-1.832-1.669-2.263-3.494-.152-.645-.311-.578-.725-1.131-.445-.596-1.508-1.593-2.034-2.134-.427-.437-.401-.562-.964-.95-.56-.388-.851-.272-1.047-.602.394-.292.385-.087.84-.187.606-.135 1.963-.181 2.54-.157.382.015.51-.068.883-.079 1.715-.051.955-.133 2.467.305.239-.218.232-.223.323-.443-.256-.432-.5-.15-.783-1.136a2.87 2.87 0 0 1-.061-.441c-.058-1.091-.256-.702.506-1.744-.138-.31-.08-.321-.41-.609-.638.36-.438.734-1.285.681l-3.423.285c-.35-.007-.457.09-1.378.058-.678-.024-1.353.116-2.041.077-.522-.03-1.547.212-2.044.206-.176-.002-.142-.032-.33 0l-1.048.054c-.528.02-.9.17-1.383.183-.277.008-.412.013-.661.015-.736.004-1.397.17-2.042.148-.492-.016-.917.106-1.38.163-.462.059-.921-.068-1.38.012-.39.067-.367.005-.66.015-.36.012-1.725.257-2.044.166-.23-.066-.426-.257-.648-.492-.395-.253-1.052.088-.563.632.4.445.392.451.528 1.072.078.352.019.442.082.721.147.667.085.724-.431 1.204-.343.321-.637.361-1.051.407-.182.019-.148.042-.332.075-.29.052-.362-.047-.661-.022-.187.017-.22.056-.387.053a23.308 23.308 0 0 0-3.142.176c-.522.06-.848-.056-1.378-.008-.746.067-1.002.273-2.1.204l-2.094.143c-.902.269-1.84-.049-2.764.226l-2.042.121c-.626.078-.8.058-1.377.044l-1.38.079c-.954.128-1.658.012-2.15.073l-1.381.182c-.265.037-.405.016-.663.008-.221-.006-.505.048-.716.029-.66-.056-1.397.124-2.041.121-.74-.002-1.374.183-2.097.157-1.504-.055-3.096 1.077-3.893 1.318-.157.048-.2.086-.336.125-1.17.345-1.25.048-2.038-.006-.127-.009-.223.033-.387.045-.218.018-.107-.007-.328-.023-.288-.023-.362.061-.667.098-.528.066-.887.021-1.376.016-.471-.005-.926.175-1.381.157a16.994 16.994 0 0 0-.717-.007l-2.422-.046c-1.477-.201-1.668.183-2.345-.653-.422-.52-.795-.67-1.302-.934-.391-.206-1.011-.973-1.346-1.33l-3.963-4.27c-.435-.393-.765-.855-1.23-1.322-.602-.606-.572-.793-1.27-1.31-.275-.202-.861-.981-1.24-1.319-.93-.835-1.303-1.438-1.826-1.95l-1.861-1.882c-1.314-1.331-2.515-2.812-3.81-4.118-.852-.86-1.748-1.852-2.621-2.776-.483-.511-.754-.935-1.222-1.422l-2.576-2.596c-.872-.925-1.724-1.943-2.66-2.8-.424-.39-.711-.85-1.1-1.245-.474-.486-.952-.949-1.428-1.447-.517-.542-.557-.872-1.212-1.283-.358-.223-1.714-1.613-2.006-2.081-.287-.46-.041-.195-.46-.551-.35-.297-.252-.392-.582-.651-.278-.219-2.544-2.8-3.106-3.295-.27-.238-.113-.153-.277-.361-.256-.325-.622-.552-.566-1.004-.694-.389-.494-.218-1.081-.835-.364-.383-.716-.637-1.077-1.036-.714-.793-1.457-1.546-2.191-2.323l-3.153-3.339c-.39-.411-.707-.653-1.08-1.017-.393-.384-.74-.863-1.093-1.22l-3.064-3.212c-.386-.399-.652-.786-1.02-1.174-.322-.34-.77-.762-1.028-1.047-.513-.571-1.534-1.79-2.07-2.19-.345-.256-.242-.305-.481-.512-.3-.261-.252-.137-.5-.51-.221-.334-.23-.27-.465-.47-.235-.199-.246-.317-.435-.54-.757-.892-.772-.644-1.566-1.649-.177-.224-.297-.232-.498-.461-.622-.711-1.926-2.489-1.974-3.417-.01-.193.028-.377.004-.552l-.075-.554c.023-.822-.194-1.4-.07-2.258l.103-1.155c-.013-.641.184-.723.166-1.097l.093-1.154c.037-1.437.225-1.317.344-2.195.063-.463-.15-.557.022-1.097.18-.57.669-1.143 1.045-2.231.19-.547.753-1.709.74-2.237-.015-.666.254-2.036.334-2.801.02-.197-.002-.369.022-.549.028-.21.11-.321.119-.548l.76-6.754c.114-.897.096-1.864.31-2.747.11-.456-.035-.7.176-1.151.446-.946.203-.292.153-1.094-.01-.156.07-.346.076-.607l.09-1.097c.056-.56.224-1.13.197-1.701-.021-.426.018-.669.076-1.101.06-.45-.082-.699-.018-1.103l.323-2.249c.108-.351.193-.778.222-1.094.023-.269.027-.375.048-.607.016-.182.06-.357.076-.548.027-.333.156-.841.157-1.095.002-.44-.044-.692.198-1.155.233-.447.599-.506 1.007-.508.227 0 .343.046.546.099.298.077.302.036.552.063.553.056.608.375 1.088.76 1.035-.251.216-.803.057-1.257-.1-.285.219-2.434.3-2.909.052-.292-.017-.46.037-.712.105-.493.15-.171.098-.715-.03-.308.266-1.766.304-2.197.024-.281.096-.464.129-.711.035-.258-.021-.115-.03-.384l.614-5.383c.175-.774.198-1.468.236-2.197.008-.161.062-.248.069-.382.009-.182-.03-.159-.032-.333-.003-.252.13-.442.13-.767l.297-2.857c.22-.972-.385-.224.602-1.396.309-.368.3-.36-.095-.718-.674.02-.61.748-1.813.385-.508-.151-.537.052-.88-.093-.46-.199-.397-.47-.648-.78-.264-.153-.73.07-.632.463.06.238.26.437.346.672.273.745-.204 2.516-.26 3.355-.022.32-.186.518-.145.824.055.414-.077 1.352-.317 1.69-.65-.664-.232-.638-.61-1.218-.222-.339-.788-.908-1.097-1.185-.943-.85-1.947-2.614-3.326-2.85-.265-.046-.26.042-.603-.098a1.459 1.459 0 0 1-.491-.344l-4.641-4.888c-.237-.205-.221-.3-.417-.543-.357-.441-.585-.607-.97-1.013-.68-.717-6.198-6.436-6.568-6.961-.307-.438-.113-1.702-.68-2.192-.395-.343-.596-.695-1.015-1.054-.818-.702-1.477-1.615-2.251-2.36-.677-.651-.961-.383-1.68-.641-.234-.083-.284-.209-.548-.211-.447-.005-.762.251-1.164.306-.418.059-.774.37-1.174.483-.508.142-.418.386-.91.763-.551.422-1.607 1.55-2.223 2.132-.446.422-1.782 1.904-2.303 1.903-.325-.4.084-.805.179-1.277.146-.729-.262-.692-.401-1.276-.19-.789-.424-.597-.877-1.185-.285-.368-.81-.967-1.165-1.246-.775-.606-1.866-.671-2.392.214-.22.368-.161-.021-.82 1.127-.7 1.219-2.981 4.135-3.36 4.92-.112.234-.128.36-.218.596-.335.878-1.132 1.476-1.095 2.504l.284 1.884c.118.352.784.659.573 1.079zm25.73 28.879l2.139 2.265 1.992 2.181c.264.236.737.681.91.924l.745.859c.275.248.238.336.432.54.182.191.313.203.528.458.17.202.21.345.414.575.164.184.349.316.508.492.19.21.235.364.419.568.385.422 1.093.89 1.615 1.474.436.488 1.262 1.605 1.528 2.199.44.983.515 1.195.64 2.166.1.776.052 1.385-.05 2.147l-.433 3.294c-.147.52-.12 1.068-.18 1.592l-.182 1.589c-.061.953-.14.705-.158 1.098-.017.346-.061.7-.114 1.043-.173 1.127-.09 2.133-.47 3.239-.262.764-.48 1.405-.894 2.12-.847 1.464-.372 1.039-.65 2.132-.08.321-.026.709-.083 1.042-.036.206-.125.295-.181.545l-.157 1.649c.029.561-.057.523-.188 1.096-.083.362-.03.666-.06 1.046l-.027 1.101c-.046 1.349.05 1 .063 1.6l.06 1.102c.024.248-.018.294-.022.495-.008.354.293.772.559 1.107.23.291.443.774.645 1.123.38.659.965 1.092 1.432 1.714.113.151.16.32.308.454s.332.202.5.393l1.468 1.633c.7.696 1.29 1.349 1.979 2.096.662.718.195.32.97 1.007l3.135 3.255c.694.736 1.29 1.439 1.99 2.191.584.627 1.407 1.61 1.98 2.119.603.53 1.516 1.567 1.985 2.178.495.643 1.47 1.508 2.057 2.119l5.154 5.442c.639.401 2.49 2.564 3.147 3.217l2.947 3.265c.955.789 7.908 8.307 9.31 9.795 1.385 1.47 2.68 2.953 4.123 4.365.178.175.34.253.487.451.14.19.162.367.356.563.44.448.445.309.92.959.35.478.755.622 1.052 1.02.42.561.449.521.925.974.262.249.586.759.955 1.124l4.602 4.913c.893.808 1.612 1.676 2.454 2.562l3.133 3.279c.55.746 1.303 1.092 1.949 1.671l1.057.689c.158.11.36.168.538.178l3.798.146c.399.005.666-.105 1.104-.083.469.022.619.014 1.049-.057l3.25-.154c1.897-.077.574.564 3.269-.6.448-.194.648-.168 1.113-.401 1.432-.717 1.738-.319 3.21-.531.264-.038.33-.006.552-.023 1.125-.08 2.663-.299 3.752-.293.47.003.547.102 1.104-.011.707-.147 3.376-.276 4.305-.336.183-.013.824-.06 1.047-.02.693.122 1.583.367 2.182.718.25.145 1.918 1.284 2.084 1.542.364.563 1.292 1.448 1.796 1.94l1.98 2.02c.315.351.579.726.967 1.096.376.358.665.613 1.022 1.065.593.753 1.359 1.474 2.032 2.18l.958 1.017c1.364 1.462 1.506 1.584 3.077.012.602-.602 1.757-1.437 2.122-2.043.3-.499 3.533-3.401 4.206-3.979.9-.775.724-1.034.71-1.611-.003-.149.065-.365.118-.494.254-.606 3.503-3.407 4.244-4.184.835-.874 2.187-1.282 3.288-1.033.26.061.285.131.545.224.709.253 1.029.579 1.592 1.168.69.721.39.895.492 1.693.072.566 1.906 2.282 2.375 2.776.387.408.555.717.897 1.08l10.26 10.648c.289.346.575.693.877 1.007.275.285.655.69.967.964.264.229.188.287.337.507.162.236.317.26.53.441.347.295.57.644 1.017.773.4.115.764-.06 1.108.135.382.217.673.612.904.946.499.718.319.384.532 1.118.117.4.227.662.347 1.057.126.415-.031.679-.247 1.09-.22.419-.122.594-.55 1.022-.36.361-.734.708-1.07 1.094-.498.578-2.355 2.195-3 2.758-.362.318-.672.853-1.12.923-.226.035-.284-.047-.55-.007-.925.139-2.027 1.528-2.757 2.225-.408.388-.713.549-1.135.95-.287.274-.74.773-.97.964-.583.484-.474.529-.836 1.021-.291.398-.636.434-.997.91-.885 1.168-2.776 1.68-1.508 3.11.224.252.79.906.983 1.074.539.47 1.558 1.757 2.08 2.045.917.506 1.168.683 2.139.408 1.506-.424 1.385-.211 2.729-1.183.25-.182.387-.214.556-.334.407-.289.64-.612 1.122-.896.235-.138.358-.239.592-.405.183-.132.32-.153.542-.289.393-.239.689-.442 1.063-.644.522-.277.6-.372 1.114-.749.71-.521 1.494-.773 2.184-1.313a13.859 13.859 0 0 1 2.2-1.386c.298-.151.317-.253.564-.419.147-.098.289-.147.499-.282l6.562-4.202c.946-.476 3.453-3.133 4.48-4.045.738-.654 1.25-1.178 1.59-2.037.483-1.223 1.082-2.44 1.079-3.772 0-.187-.04-.325-.018-.497.045-.376.152-.688.038-1.098-.065-.236.024-1.643-.022-2.151-.067-.729-.45-1.486-.715-2.167-.12-.307-.004-.247-.166-.557-.107-.206-.196-.296-.294-.506-.253-.541-.425-1.134-.707-1.67-.1-.191-.211-.397-.3-.56l-1.643-2.178a19.66 19.66 0 0 1-.826-1.148c-.368-.583-1.516-1.86-1.633-2.074-.352-.646-1.11-1.603-1.6-2.195-.28-.338-.644-.743-.898-1.084-.338-.455-.486-.659-.897-1.131-.15-.173-.81-.852-.863-.953-.116-.215-.057-.295-.276-.548-.181-.21-.294-.241-.433-.457-.145-.228-.141-.338-.32-.55l-3.406-4.294c-.141-.209-.345-.376-.511-.569-.33-.382-.306-.513-.86-1.119-.34-.371-.396-.617-.803-1.058-.472-.515-.1-.531-.832-1.106-.198-.155-.553-.737-.733-.998-.151-.217-.31-.373-.395-.562-.114-.257-.043-.272-.307-.543-1.05-1.088-3.418-4.076-4.301-5.419-.192-.293-.683-.845-.924-1.108-.17-.183-.374-.373-.51-.584-.126-.198-.083-.25-.288-.487-.172-.198-.368-.352-.515-.575l-1.21-1.637c-.532-.449-1.157-1.519-1.617-2.141l-1.77-2.189c-.305-.376-.68-.782-.97-1.139-.284-.352-.493-.752-.761-1.072l-2.447-3.329c-.2-.312-.258-.258-.45-.467l-1.27-1.619c-.157-.27-2.312-2.616-2.604-3.265-.203-.452-1.568-1.755-2.01-2.199-.22-.218-.3-.387-.502-.595-.197-.203-.367-.299-.577-.528l-4.214-4.481c-.732-.708-1.33-1.508-2.062-2.235-.383-.378-.43-.597-.838-1.025-1.41-1.477-2.703-2.86-4.12-4.359l-8.147-8.481c-.636-.719-1.55-1.498-2.097-2.198-.41-.524-.591-.575-.986-.996-.205-.219-.27-.428-.398-.595-.376-.482-3.007-3.336-3.436-3.657l-4.843-5.106c-.591-.527-4.728-4.748-5.243-5.501-.226-.331-1.634-1.694-2.028-2.109-.413-.434-.504-.651-.827-1.034-1.052-1.246-6.772-6.871-7.111-7.481-.331-.595-.577-.603-.948-.906-.64-.517-5.328-5.62-6.11-6.517-.278-.32-.652-.802-.97-1.061-.374-.304-.597-.545-.83-.92-.158-.257-1.758-1.908-2.068-2.176-.925-.797-11.542-11.962-12.256-12.881-.285-.367-.673-.676-1.021-1.046l-.818-1.047c-.302-.428-1.694-1.733-2.165-2.243-.287-.313-.237-.292-.427-.595-.16-.254-.296-.259-.514-.444-.56-.48-1.415-1.623-1.988-2.029-.236-.166-.264-.102-.55-.391-.72-.732-.483-.42-1.01-.872-.536-.462-.331-.421-1.067-.949-.177-.126-.311-.296-.485-.443-.381-.325-.704-.761-1.064-1.045a9.362 9.362 0 0 1-1.063-.946c-.227-.228-.35-.259-.548-.451-.186-.178-.256-.329-.438-.495-.726-.66-1.432-1.018-2.111-1.698-.301-.301-.667-.65-1.006-.98-.354-.346-.656-.501-1.066-.922-.368-.376-.613-.357-1.06-.821-.324-.34-.236-.212-.521-.399-.387-.251-.2-.243-.354-.538-.108-.204-.741-.598-.98-.798-.42-.351-.561-.602-.963-.945-.727-.622-1.236-.759-2.092-1.675l-1.04-.944c-.637-.551-.32-.348-1.07-.856-.504-.342-.365-.579-.907-.887-.621-.356-4.234-3.823-5.322-4.629l-1.451-1.221c-.211-.196-.288-.365-.533-.533-.52-.361-.47-.204-.926-.773l-1.62-1.376c-.227-.181-.278-.355-.507-.575-.177-.17-.411-.314-.557-.441-.193-.168-.35-.38-.538-.546-.183-.16-.361-.223-.532-.371-.172-.149-.318-.351-.484-.502-.218-.201-.348-.196-.532-.367-.146-.136-.27-.358-.437-.538-.372-.401-.685-.491-1.014-.782-.26-.228-.208-.337-.415-.549-.237-.242-.305-.139-.548-.285-.706-.42-1.533-1.289-2.116-1.912-.491-.523-.692-.495-1.058-.825-.192-.175-.33-.372-.54-.54-.145-.118-.384-.264-.532-.394-.19-.167-.351-.375-.53-.551-.238-.239-.337-.238-.513-.38-.466-.381-.057-.224-1.07-.935-.43-.3-.354-.408-1.014-.817-.143-.089-.724-.692-.97-.895a31.046 31.046 0 0 1-1.013-.893c-1.183-1.098-1.762-1.721-3.193-2.396-.288-.137-.801-.278-1.002-.483-.38-.389-.513-.409-1.004-.587-.366-.134-.692-.359-1.033-.51-.188-.084-.387-.185-.544-.243-.263-.099-.308-.026-.548-.047-.51-.042-.99-.167-1.593-.109-.674.062-1.52-.09-2.203-.075-.59.011-1.012-.192-1.595.08-.722.336-1.465.508-2.177.841-.294.137-.293.191-.557.257-.671.169-.831.085-1.613.57L15.19 4.174c-.333.385-.41.641-.934 1.068L12.49 7.225c-.26.325-.416.716-.638 1.037-.497.718-1.016 1.365-1.521 2.102-.226.33-.43.726-.662 1.082l-2.24 3.182c-.4.599-.37.401-.676 1.091-.244.549-1.065 1.435-1.412 2.106-.237.457-.505.579-.747 1.027a11.904 11.904 0 0 1-1.422 2.095l-1.124 1.627c-.103.166-.115.336-.168.492-.226.666-.953 1.461-1.333 2.103-.213.361-.261.768-.386 1.1-.478 1.261.18 2.172.98 3.278.52.72 1.355 1.351 1.943 2 1.156 1.278 1.515.664 2.14.073.73-.69 1.498-1.382 2.212-2.086.352-.345.357-.544.915-1.066.373-.352.752-.737 1.132-1.073l1.135-.949c.402-.38.636-.61.97-1.013.33-.398.87-.7 1.15-1.055.302-.378.107-.691.078-1.055-.045-.559 1.25-1.588 1.644-1.989.655-.664 2.497-2.631 3.287-3.11.267-.163.745-.297 1.055-.428 1.17-.496 1.037-.222 2.147.133.428.137.7.321 1.076.675.389.364 1.089.964.994 1.485-.265 1.477 1.768 2.583 2.513 3.598l1.812 1.907c.399.322.468.618.96.986.31.234.216.147.39.443.21.354 2.144 2.307 2.439 2.559.33.283.513.586.959 1.027.64.632 1.012 1.26 1.242 1.496.222.226.329.31.53.575.946 1.237 4.32 4.396 5.076 5.383 1.73 2.258 2.156.86 3.214 1.998.232.249.852.843.998 1.086.117.196.674 1.996.639 2.175-.017.087-.382.927-.46 1.085a3.292 3.292 0 0 1-.803 1.058l-1.568 1.533c-.188.175-.347.247-.55.441-.708.676-1.404 1.494-2.17 2.133-.505.423-.613.027-1.114.152-1.386.346-2.115 1.673-3.144 2.588-.69.612-1.513 1.192-2.096 1.958-.702.922-1.176 1.244-1.975 2.012-.336.323-1.676 1.547-1.473 2.095z" mask="url(#b)"/>
        </g>
        <path fill="#F48264" d="M25.746 17.954c.2-.073.317-.09.473-.005-.185.329-.288.352-.576.388-.015-.264-.013-.145.103-.383m.741-.461c.046.154.197.248-.183.327-.015-.167-.03-.26.183-.327m.636-.586c.03.124.151.041-.01.241-.15.186-.193.07-.266.052.084-.239.057-.184.276-.293m.7-.724c.141-.139.103.116.034.051l-.006-.005c-.06-.078-.193.12-.028-.046m-13.56 2.632c-.318-.884-.712-.458-1.357-.54-.25-.295-.4-.522-.7-.848-1.52-1.647-1.168-.953-1.506-2.621-.247-1.221.102-1.594.91-2.513.255-.29.253-.508.581-.864l2.446-3.332c.52-.656 1.465-1.92 2.044-2.463.375-.353.533-.396.885-.649.208-.149.664-.516.853-.678.365-.312 1.313-1.064 1.723-1.117.373-.048.53-.052.88-.166l.84-.222c.565-.142 1.126-.485 1.718-.422.782.082 1.392-.004 2.144.169.33.077 1.111.027 1.266.038.887.058 1.746.958 2.554 1.318 2.388 1.064 1.266.757 2.535 1.675.374.27.504.497.872.755.332.232.462.444.774.728.352.321.491.243.831.658l3.268 2.966c1.367 1.433-.067 2.371-1.034 3.37-.725.75-2.688 2.585-3.39 3.056-.31.208-.563.54-.763.792-.52.653-1.14 1.045-1.69 1.665-.197.22-.553.544-.797.778-.892.857-.817.868-1.752.509-.743-.284-2.027-.725-1.673-1.901.174-.575 2.593-2.636 3.23-3.24.524-.498 1.056-1.168 1.725-1.517.284-.147.56-.016.856-.168.398-.434-.549-.914-1.17-.728-.28.084-.26.18-.529.127.202-.463.167-.666.193-1.127.011-.188.007-.215-.003-.421-.96-.775-.748.384-.912.662l-4.536 4.443c-1.069.836-1.95-.455-2.598-1.169-.53-.583-.385-.355-.927-.444-.636-.105-1.589-.832-2.29-.825-.16.002-.103-.007-.218-.007-.126 0-.058-.028-.222.02l-.947.437c-.527.232-1.433.464-1.832.747-.173 1.196 1.5.498 2.091.153 1.715-.996 1.791.026 3.07.27l.593.215c.292.193.953.966 1.236 1.265.757.804 1.765 1.762 2.415 2.6.202.261.825.746 1.105 1.041l4.776 5.021c.4.424.794.898 1.212 1.325.364.37.843.576 1.26.672.46.106.85.296 1.274.131.053-.376.03-.563-.432-.658l-.929-.281c-.614-.207-2.986-2.921-3.6-3.576-.258-.276-1.623-1.596-1.56-1.946.06-.203.2-.178.42-.213.38-.061.243-.074.608-.312.558-.365 3.028-2.817 3.557-3.349l2.348-2.12 2.435-2.298c.446-.419.59-.687.714-1.153.27-1.013.371-.323.64-.139.767.529 1.603 1.172 2.306 1.878l1.735 1.432c1.075.895 1.346 2.329 1.896 2.855 1.026-.32.061-1.297-.208-1.986-.129-.332-.269-.515-.513-.774-.48-.512-1.819-1.551-2.16-1.912-.273-.288-.45-.515-.775-.746-.317-.224-.414-.358-.7-.658l-1.507-1.198c-.663-.453-1.376-1.533-2.092-1.947-.399-.232-.432-.369-.762-.656-.237-.207-.518-.362-.76-.573-.297-.257-.423-.344-.682-.547-.334-.261-.468-.513-.75-.775-.28-.258-.424-.27-.742-.582-.284-.281-.506-.38-.757-.603-.286-.253-.365-.459-.705-.648-.41-.229-.422-.231-.782-.596-.984-.993-1.204-.767-2.199-1.465-.39-.272-.454-.165-.758-.328-.248-.132-.487-.361-.754-.489-.159-.075-.549-.151-.77-.209-.696-.184-1.542 0-2.254-.091-.14-.016-.23-.048-.387-.062-.14-.012-.245-.004-.382-.012-1.56-.092-1.536.068-3.043.462-.28.073-.465.089-.72.192-.128.052-.26.119-.392.148-.168.038-.22.024-.388.066-.26.064-.576.083-.758.223-.373.286-.416.34-.816.58-.48.289-.852.666-1.396.972-.387.217-.475.417-.704.701-.216.267-.85.575-1.874 2.095-.358.532-.82.981-1.15 1.514-.397.647-1.13 1.543-1.628 2.215-.214.288-.294.533-.479.748-.435.505-.762.894-1.177 1.455-.185.25-.165.439-.123.768.073.581.215 1.776.417 2.266.238.578.791 1.063 1.281 1.535.478.461 1.294 1.838 2.095 1.614.223-.064.605-.241.801-.441M182.36 178.192l-2.444 2.608c-.32.291-.422.617-.886.431-.188-.584.38-.478.905-.975.587-.552 1.96-2.092 2.425-2.064m-1.76-17.266l-.325.326c.39.6 1.784.944 2.567 1.915.278.343.44.581.788.97.281.315.322.595.552.874.33.402.49.552.788.968.38.532 1.137 1.304 1.316 1.845-.365.681-.827.392-1.326.622-.25.115-1.24 1.064-1.53 1.34l-1.395 1.352c-.225.256-.504.382-.74.586-.292.25-.434.573-.685.728-.59.363-.895.694-1.408 1.242-.454.486-.966.886-1.395 1.334-.36.375-.948.815-1.315 1.234-.228.262-.047.308-.242.7-.114.227-.267.567-.422.705-.653-.083-1.31-.978-1.7-1.485-.355-.462-2.742-2.629-3.36-3.51-.401-.576-.115-1.572-.869-1.778-.507.207-.215.663-.119 1.09.124.54-.024.738.464 1.258a655 655 0 0 0 2.411 2.548c.912.958 6.427 6.671 7.002 7.424.257.337.108.256.468.53.555.421.794 1.264.976 1.897.364 1.267.538 1.24-.083 2.475-.202.4-.322.86-.518 1.196-.174.3-.337.316-.119.61.23.307.38.272.64.221.034-.02 1.469-2.533 1.304-3.366-.08-.405-.154-.737-.352-1.17-.523-1.14.07-.85-1.064-2.294-.75-.954-1.302-1.168-.144-2.289.762-.736 1.55-1.463 2.323-2.192.66-.624 1.632-1.758 2.347-1.934.07-.017 1.09-.112.47-.649-.534-.464-1.938.373-2.308.812-.3.357-.718.781-1.117 1.026a.684.684 0 0 1 .19-.495c.315-.343.804-.512 1.073-.857.185-.236.136-.233.382-.46.33-.303.439-.688.45-1.058.016-.493-.04-.668-.59-.698-.374.446-.02.473-.32.895-.053.074-.63.61-.76.732-.292.28-.567.478-.875.776-.306.296-.444.553-.786.866-.61.556-1.21 1.136-1.811 1.711-.365.346-.498.587-.92.59-.238.003-.632-.027-.864-.232-.678-.597-.823-1.114-.882-1.778-.026-.29-.016-.137.054-.44.046-.193.054-.298.077-.437.064-.407.279-.514.635-.848 1.116-1.047 2.489-2.537 3.663-3.417.656-.49 1.118-1.12 1.715-1.666.313-.286.569-.41.867-.759.355-.415 1.163-1.317 1.716-1.456 1.167-.294 1.786-.2 2.552.863.254.351.52.585.755.9.293.394.129.31.637.903.294.345.245.49.626.905l2.01 2.59c.39.578.98 1.23 1.267 1.848.166.36.126.5.346.897.15.27.307.564.4.886.264.907.657 1.012.633 2.222l.03 1.325c.022.323.056.573.04.881-.05.951.127.765-.302 1.81-.268.652-.57 2.043-.857 2.621l-2.702 3.376c-.691.548-1.22.588-1.81 1.047l-3.572 2.227c-.607.41-1.25.714-1.863 1.185-1.352 1.034-1.328.722-2.65.56-.379-.048-.522-.017-.888-.386-.503-.503-1.756-1.609-1.826-2.276-.05-.476.376-.936-.528-1.024-.18.174-.347.453-.387.665-.17.901.686 1.668 1.286 2.291.38.393 1.018 1.094 1.447 1.288.484.217 1.017.158 1.534.3 1.523.417 2.143-.598 3.732-1.465.294-.16.498-.364.779-.567.89-.645 2.183-1.22 3.088-1.9.86-.647 2.039-.757 2.957-2.06.227-.322.237-.434.55-.743.325-.318.347-.479.597-.755.84-.928.73-.806 1.14-1.794l.37-1.147c.28-1.01.79-1.942.678-3.01l-.004-2.974c.099-.585-.224-.94-.45-1.499-.114-.28-.145-.529-.23-.78-.135-.397-.313-.45-.454-.79-.126-.3-.053-.353-.308-.72a4.985 4.985 0 0 1-.456-.784c-.2-.424-.34-.397-.584-.724-.232-.315-.038-.392-.418-.706-.713-.592-1.01-1.468-1.638-2.17l-1.307-1.527c-.162-.24-.226-.517-.462-.724-.492-.433-.31-.162-.492-.679-.117-.335-.43-.429-.558-.685-.195-.382.085-.24-.41-.636-.466-.374-.36-.4-.651-.765-.18-.226-.6-.579-.724-.794-.192-.34.117-.31-.446-.72-.462-.338-.296-.3-.528-.678-.12-.198-.436-.448-.615-.67-.404-.508-.832-1.087-1.251-1.589-.766-.912-1.815-1.726-2.976-1.979M169.289 163.004c.268.266.646.473.568.833-.12.55-1.106 1.193-1.493 1.375-.251-.271-.324-.485-.455-.771-.325-.71.23-1.842.652-2.124.748.345.27.233.728.687m.667 1.475c.51-.484.884.075 1.278.508.53.584.93.735.18 1.174-.231.138-.425.265-.668.31-.167.032-.543.047-.66.02-.043-.008-1.111-.517-1.273-.702.235-.584.539-.74 1.143-1.31m.807-.725c.482-.58 1.046-1.145 1.69-1.315.656.689.77 1.464.364 2.199-.618 1.118-.645.863-1.698-.252-.321-.34-.29-.236-.356-.632m-1.29-1.027c-.155-.163-.232-.314-.353-.508-.18-.287-.256-.266-.052-.482.293-.31 1.273-.67 1.933-.397.266.108.728.3.92.578-.218.605-.518.67-1.017 1.018-.733.512-.823.434-1.431-.21m-1.887-1.89c-.172.49.283.367-.133 1.335-.806 1.87-.604 1.467.185 4.017-.32.305-.43.272-.34.629.635.047.339-.555 1.564.018.19.09 1.314.52 1.528.539.618.056 1.724-.66 2.332-.591.363.042.42.242.742.389.026-.108.06.005.006-.148-.094-.262-.3-.29-.352-.614-.032-.198.063-.548.166-.765.502-1.054 1.099-1.311.264-3.076-.133-.282-.237-.464-.28-.785-.07-.502.25-.363.037-.76-.364 0-.314.21-.698.135-.618-.12-1.6-.922-2.125-.901-.27.01-.497.16-.723.26-.423.188-.407.097-.723.168-.578.129-.386.5-1.216.219-.182-.06-.047-.034-.234-.068M41.047 30.201c.178-.402.394-.527.78-.895.337-.323.464-.595.887-.429.559.22 1.202.937 1.404 1.482-.294.41-1.1.754-1.572.606-.59-.185-1.22-.22-1.499-.764m.448-2.837c.174.201.567.635.648.794-.207.564-.434.583-.881 1.005-.364.344-.819 1.027-1.205-.683-.132-.586.106-1.246.563-1.698.337.07.613.28.875.582m1.643.98c.207-.426.78-.752 1.147-1.088.239-.219.344-.364.59-.118.437.434.519 1.176.32 1.71-.662 1.776-.933.9-1.246.606-.312-.293-.959-.534-.811-1.11m-2.045-2.087c.333-.336 1.265-.54 1.602-.542.312-.003 1.271.337 1.529.674-.109.55-1.166 1.36-1.599 1.628-.321-.11-1.424-1.183-1.532-1.76m-1.565-1.31c-.193.36.035.246.249.77.141.347-.479 1.917-.574 2.353-.172.788.492 1.57.633 2.332.091.493-.391.358-.292.837.571.028.211-.47 1.508.034.345.135.664.513 1.523.605.473.051.957-.223 1.497-.406 1.491-.51 1.01-.078 1.532.02-.005-.276-.147-.307-.297-.607.349-1.013 1.058-1.433.945-2.614-.067-.703-.541-1.032-.607-1.999-.034-.49.174-.36.15-.725-.367-.115-.38.134-.786.136-.236.002-.521-.163-.761-.277-1.489-.71-1.383-.54-2.365-.2l-1.165.237c-.917.048-.724-.254-1.19-.497"/>
    </g>
</svg>
