<svg xmlns="http://www.w3.org/2000/svg" xmlns:xlink="http://www.w3.org/1999/xlink" width="214" height="206" viewBox="0 0 214 206">
    <defs>
        <path id="a" d="M0 206h213.381V.074H0z"/>
    </defs>
    <g fill="none" fill-rule="evenodd">
        <g transform="translate(0 -.074)">
            <mask id="b" fill="#fff">
                <use xlink:href="#a"/>
            </mask>
            <path fill="#F48264" d="M89.466 116.965c-.364-.285-.168-.169-.485-.27l-.156-.035c-.51-.05-.423.564-.441.595l-2.16 2.267.254.43c.602-.175 2.37-2.428 2.988-2.987zm76.486 71.385l.874-.892c-.011-.034-.014-.099-.045-.09-.031.007-.032-.07-.043-.09l-.045-.085c-.194-.352-.63-.668-1.167-1.135-.276-.238-.374-.29-.54-.57-.518.568-1.226 1.09-.443 1.683.318.241 1.177 1.108 1.409 1.18zm3.75 1.808c-.215-.384-.136-.282-.507-.624-.26-.239-.362-.318-.56-.53-.224-.242-.882-.862-1.184-.96l-.425.383c.029.233.006-.149.046.156.05.385-.093.723.09.983.393.553.413-.172 1.52 1.096.673-.134-.091.36.592-.053l.429-.45zm-72.094-69.462c-.86-.46.129-.06-1.104-.467-.848-.278-1.133-.99-1.791-1.469-.602-.439-.025.12-.624-.203-.798-.43-.003-.406-1.054-.63.204.445.21.701.642 1.07l2.509 2.336c.24.182.292.181.409.506.89-.184 1.07-.158 1.013-1.143zm64.69 61.561c-.41.313-.047.077-.456.226-.22.08.012-.058-.233.087-.723.426-.866 1.14-.874 1.163-.025.002-.046-.018-.073.003l-.84.617c0 .001-.05 1.333 1.167.906.28-.097.492.058.633-.547.052-.224-.137.001.257-.399.426-.43.606-.607.952-1.02l-.227-.578c-.115-.449-.078-.105-.305-.458zm9.619 9.926c-1.12 1.222-1.303 1.13-1.402 1.963l-.111.395.666.628 2.09-2.209c.329-.429.127-.045.216-.808-.436.298-.358.028-.766.103-.282.052-.535.173-.693-.072zM12.577 42.204a48.42 48.42 0 0 0-.698.773c-.396.454-.101.354-.3.888.269.104.05.283 1.114.08.169-.032.159 0 .51-.383.457-.493.992-.92 1.184-1.4l.229-.57c-.32-.37-.664-.69-1.287-.14-.088.077-.628.621-.752.752zm75.652 71.731c.213.06.244.06.432.26.339.362.029.112.41.413.6.472 1.242 1.454 1.912 1.626.43.11.758.493 1.14.93.002-.036.023-.24.015-.29-.021-.173-.046-.166-.093-.234-.016-.024-.082-.084-.1-.108-.244-.353-.06-.163-.168-.432-.184-.45-.861-.785-1.165-1.25-.235-.356.037-.185-.257-.538-.02-.023-.526-.488-.53-.492-.247-.334.07-.16-.215-.584-.196-.292-.37-.308-.51-.579l-.772.931c-.006.018-.011.05-.015.066l-.084.281zm9.35 8.71l1.61 1.575c.413.273.024.04.337.04.35.001.143.11.54.33a1.634 1.634 0 0 0-.098-.382c-.476-1.443-.382-.61-.39-2.237-.001-.208-.02-.196-.008-.394-.453-.098-.868-.12-1.228.221-.205.194-.585.743-.763.846zm-81.76-77.378c.065.36.164.578.027.86l1.174.13c.044.318.072 1.266.855 1.151.316-.045-.001.143.334-.19.917-.917.438-.977-1.535-2.917l-.854.966zm5.8 3.74c-1.017-1.132-.533.026-.973-.666-.33-.519.422.285-.2-.484-.113-.14-.363-.33-.553-.509-.021.005-.038.003-.06.02-.108.081-.008.013-.294 0-.015 0-.173-.09-.428.131-.75.654.459 1.45 1.008 1.946.214.192.11.203.504.435.024-.005.072-.04.065-.029-.01.014.053-.024.066-.03l.459-.24c.084-.094-.03-.305.407-.575zm3.399 2.92c.216-.234.274-.164.065-.492-.228-.356-.845-.418-.86-.418-.026 0-.451.147-.46.152-.052.033-.583.605-.75.777-.226.237-.421.371-.581.72-.187.408-.34.903.263 1.042.777.181.81-.143 2.323-1.782zm136.759 128.591c-.474-.26-.637-.474-.67-.945-.018-.273-.004-.27-.18-.473-.56-.644-.781-.429-1.13-.507-1.403-.314-1.537.13-1.86-.44-.575.224-.781.261-.77.804l.034.294c.317.793.253-.294.34.983.014.191-.154-.128.128.336l.52 1.013c.006.023.009.057.016.08l.333 1.035c.102.246-.027-.07.055.206l.373.485c.33.25.612.251.975-.279.262-.389.062-.01.009-.586l.44-.103c.214-.059.029.037.23-.088.198-.122.595-.599.768-.792-.066-.792-.024-.276.389-1.023zm-75.243-70.307l.49.226a.382.382 0 0 0 .1.012c.029-.002-.051.076.112-.056-.026-.207.176-.015-.25-.318l-.452.136zm2.259 1.525l-.751-.849c-.826.45-.176.185-.97.34-.87.171-.447-.545-1.436-.09.12.628 1.01 1.03 1.443 1.651l.267-.036c.289-.027.408.064.855-.472l.039-.05c.155-.19-.033.012.138-.17.013-.013.15-.147.172-.163.145-.119.108-.119.243-.16zm14.057 12.506c-.387-.09-.238-.108-.654.062l.286.273.368-.335zm66.062 60.801c-.97-.925-1.982-1.872-2.882-2.738-.085-.082-.322-.316-.346-.336l-.714-.243c-.294-.074-.923-.188-1.22.074l-.275.834.507.565c-.152.33-.184.162.026.353.073.068.097.114.225.236.233.213.47.422.7.64l.266.167c.01.002.207.015.233.018.659.092 0 .402.86 1.105.463.38.55.77 1.288.784.782.015.993.213 1.274-1.206l.058-.253zm8.08 8.352c-.146-.146-.383-.39-.477-.466-.613-.499.025-.012-.574-.189l-1.167-.272-2.45 2.565c.085.332.029.814.363.944.15.06.203.023.297.041.318.06-.017-.026.325.101.085.033.076.13.426.101.034 0 .09-.032.11-.033.094.088.152.155.263.225l.48.21c.046.022.114.083.184.106.238.08.59-.063.944.118.519.267-.437-.053.68.358.788.29.384.506 1.14-.207-.21-.259-.263-.635-.341-.868l-.056-.17c-.088-.174-.173-.223-.321-.363.2-.172.159-1.3-.236-1.77l.41-.43zM20.867 44.403c-.853-.623-1.363-1.26-2.036-1.874l-1.86-1.733c-1.03-.514-.853-.114-1.395.086-.025.01-.311-.03-.306.321.008.058.025.133.026.192.024.77.423.875 1.316 1.7l2.45 2.37c.139.186.025.062.092.12.015.014.32.193.37.214l1.343-1.396zm3.328 10.075c.907.994.598.398 1.662.807.026.01.055.026.083.037l.908.308c.563.126.1.077.66.268l1.204.246c.443.102.198.144.556.27.218-.657-.123-.177-.043-.95.029-.286.1-.457-.143-.876l-.135-.728c.003-.022.014-.057.016-.078.07-.535-.036.154-.073-.808-.01-.238.06-.045-.067-.28l-.7-.494c-.025-.004-.057-.004-.084-.006-.505-.056-.345.114-.72-.2-.064-.052-.182-.163-.203-.17-.385-.144.522-.062-.151.002-.025.002-.106.022-.136.026-.831.103-.561-.077-1.074.477l-1.56 2.15zM9.235 37.27c-.051.906-.262.34-.162.842l.19.557c.11.281-.068-.053.097.228.126.215.156.153.293.312.299.346-.087.116.335.658.37.476.054.337.198.82l.55 1.208c.204.218.326.273.582.368l2.52-2.656-.567-.465c.204-.535.266.118-.21-.805-.53-1.029.108-.516-.546-.949-.32.648-.961.224-1.847.166-.513-.033-.065.051-.456-.16-.118-.066-.047-.114-.428-.099-.62.025-.117.191-.55-.025zM171.41 187.861c-.013-.168-.03.018.004-.185l.064-.223c-.444-.42-.588-.554-1.074-1.01-.13-.123-.322-.325-.492-.383-.571-.194-.917.206-1.365.771-.19.24-.088.045-.14.25-.201.807.516 1.072.978 1.543.184.187.004.03.207.234.395.394.467.293.796.374.224.054-.022-.015.162.047l.245.107c.16.888-.082.515.657 1.222.804.77.579.431 1.04.572l.292.124c.497.11.566-.036.863-.369-.057-.66-.067-.938-.01-1.442-1.01-.955-1.858-2.088-2.227-1.632zm16.674 14.914l-1.717-1.645c-.61-.427.155.216-.642-.199l-.032-.297c-.062-.2.103.024-.16-.292-.15-.179-.553-.518-.745-.69l-.366.03c-.184.04.094-.054-.253.075-.125.046-.183.085-.295.131l.017.41c-.041.204-.46.451-.544.73-.01.033-.008.083-.015.115-.044.194.21-.144-.064.2 2.604 1.904 2.836 3.585 3.763 2.581.2-.216.994-1.026 1.053-1.149zM25.299 48.237c-.29-.287-1.301-1.37-1.615-1.422l-.137-.01c-.858-.212-.897-1.039-1.047-1.244l-.617-.274c-.277-.074-.35-.128-.472-.33l-.664.793c-.414.313-.382.37-.388.702-.006.293 1.398 1.488 1.712 1.868.222.27.062-.036.833.72.248.242.576.62.899.86.39.287.093-.006.485.142.38.143.706.567 1.07.28.006-.005.025-.033.033-.039.356-.334.224-.367.223-.39-.031-.29.128-.552.035-.837-.16-.482-.511-.264-.421-.64l.07-.179zM2.429 27.263c-.167.26-.336.325-.44.598-.051.138.01-.037-.058.198l-.184.712c-.001.022-.003.058-.001.08.003.083-.036.041.046.223.09.204.002.042.133.18.507.53.436-.132.906.423.486.573-.121-.18.21.623.766.395-.022-.179.625.195.522.301.307.352.407.622.108.29.57.765.807.857l.295-.204c.207-.167.153-.103.24-.13l.904-.955c.328-1.238-.992-.836-1.561-2-.288-.589-1.107-1.22-1.593-1.666-.293.424-.19.33-.735.244zm85.95 81.846c.504.393.682.535.88 1.018l.259.967c.178.727.662 1.53 1.21 2.017.62.552.24.278.458.683.157.296.49.546.748.8-.011.123-.21.118.28.644a.588.588 0 0 0 .174.312l1.265 1.194c.105.1.238.155.374.161l-.002.002-.071.002.04.04-.025.033c.112.081.217.161.314.238l.378.357a.597.597 0 0 0 .159.108c.444.42.687.74.956.945.317.245.008.068.327.173.045.015.11.017.157.03l.564.176c.02.006.054.013.075.02l.182.085c.594.406.115.423 1.156.822.374.143.43.28.755.576.664-.07.534.098 1.106-.123l1.417 1.09c.402-.106-.091-.22.452.007 1.263.524.666-.164 1.6-.595-.357-.789-1.095-.89-1.574-.483-.66-.743-.33-.122-.827-.506-.165-.129-.077-.144-.298-.21l-.82-.227c-.374-.163-.194-.113-.507-.359-.534-.425-.105-.107-.451-.2-.338-.09.16.152-.235-.08-.01-.004-.308-.26-.34-.289-.635.19-.606-.209-.96-.452-.428-.294-.105.08-.584-.29-.06-.046-.182-.154-.203-.163-.01-.004-.038-.01-.048-.014-.327-.09-.228.181-1.011-.573l-.077-.077a.586.586 0 0 0-.157-.25l-.886-.838a.594.594 0 0 0-.285-.148l-.526-.497c-.1-.185-.32-.336-.543-.515a.943.943 0 0 0-.125-.102c-.18-.152-.347-.328-.44-.557-.001 0-.043-.87-.94-1.037l.1-.802-1.017-.966c.065-.434.03-.194-.276-.83-.24-.57-.472-1.146-.726-1.71l-.186-.88a3.163 3.163 0 0 0-.256-.614c-.455-.11-.373.098-.737-.15-.068.38-.352.238-.325 1.157.012.373.102.177.073.88zM39.187 62.82c.608-.139 1.1-.76 1.098-.757l.184-.164c.007-.01.014-.063.14-.227l.79-.835c.515-.688-.084.05.257-.584-.04.001-.07-.015-.114.017l-.197.042c-.458.116-.51.056-.898.31-.113.782.023.584-.454 1.081-.325.338-.804.66-.806 1.117zm111.649 105.16l-.325.832c.416-.169.646-.379.747-.536l.206-.293c.255-.323.009-.029.273-.276l.446-.466c.19-.19.319-.483.604-.587.3-.11.06 0 .129.013-.093-.736.462-.122-.164-.72-.387.142.006-.005-.19.134l-.243.163c-.02.02-.153.226-.187.272l-1.296 1.464zM40.405 63.18c.714.851.105-.117.964.411.029-.33.24-.366.483-.626 1.315-1.41.532-.784.774-1.363.088-.21.096.016.179-.318l-.303-.265c-.321.101-1.913 1.748-2.097 2.16zm108.992 104.034l.062.641c.9-.146.446-.138.666-.399.154-.182.159-.098.39-.334.433-.442-.206.301.094-.14l.67-.757.052-.039c.615-.5.175-.258.566-.603.294-.26.206-.063.348-.329l-.333-.52c-.342.491-.21.047-.71.915l-1.064.933c-.301.241-.184.496-.741.632zm.798-5.13c.07.078.254.232.417.387.17.167.123.125.202.192l1.696 1.597c.125.121.077.154.303.143.256-.016.304-.073.532-.295-.11-.694-.135-.04-.033-.767-1.136-.21-.514-.128-1.177-.766l-3.437-3.252c-.022.003-.051.015-.064.017-.564.114-.432-.06-.8-.34l-.305.123c-.08.31-.14.354.256.691.358.336.714.673 1.074 1.007.28.26-.01-.023.213.194l1.123 1.07zm8.583 7.311c.072-.91-.397-.74-.835-1.346-.412-.566.062-.333-.455-.592-.775-.386-1.96-1.575-2.34-2.186-.328-.523-.276-.074-.405-.576-.471.083-1.507-.054-.961.715l4.457 4.257c.375-.123.199.012.539-.272zM42.468 59.571c.312-.154.382-.243.656-.62-.644-.753-1.702-1.643-2.452-2.353-1.128-1.066-1.43-1.63-2.328-1.76l-.364.32c.42.432.868.842 1.31 1.252.21.196.455.393.574.618.208.393-.07.102.193.483l1.836 1.776c.555.486.365.085.576.284zm5.769 5.476c.164-.006.049.182.135-.167l-.054-1.037-4.422-4.165c-.457.077-.234-.018-.66.37.279.772.005.39.31.781l2.088 1.97c.329.326 2.145 2.304 2.603 2.248zM16.209 17.701l-.844.908c-.207-.068-.226-.062-.64.101l-.42.188c-.358.214-.182.257-.641.43l-1.342.47c-.796.368-.442-.033-.942.121l-.311.16c-.691.291-.94-.102-1.368.348-.238.25-.165.24-.173.255l-.34-.147-1.034 1.188c-.246.25-.731 1.058-.972.467 0 0-.086.171-.092.178l-1.615 1.703c-.363.39-.534.467-.617.765-.166.59.128-.055-.084.535l-.762.13c-.016.33-.007.106-.083.397l-.252 1.086c.474.066.334.011.81.463.572.547 1.963 1.935 2.513 2.301.165-.048.092-.136.548-.254.237-.062.068.058.232-.068.006-.005.137-.227.19-.289.226-.259.189-.139.407-.386l3.197-3.394c.018-.019.126-.119.164-.16l3.04-3.248c.299-.304.163-.072.354-.32l.555-.615c.005-.006.09-.127.12-.163l1.353-1.702c.248-.649-.11-.573-.951-1.448zm66.953 67.46l.447.388c.112.044 1.317.252 1.864-.109l.807-.314-.006-.14c.195-.188.337-.39.395-.662l.036-.019.002.097c.384-.407.716-.726.725-1.354.004-.176-.017-.242-.032-.275-.002-.033-.004-.066-.01-.097.015-.035.042-.09.089-.185.167-.347.32.11.05-.458-.292-.616-.11-.775-.493-.985a1.202 1.202 0 0 0-.291-.436l-1.138-1.075a1.242 1.242 0 0 0-.23-.17l-4.656-4.403a1.132 1.132 0 0 0-.173-.206l-2.15-2.03a1.196 1.196 0 0 0-.442-.265.973.973 0 0 0-.147-.076c-.034-.54-.232-.37-1.196-.54-.025-.004-.058-.012-.084-.014l-1.405.142c-.94.421.277 1.205-1.092 1.121-.67.663-.345.357-.623 1.061-.174.447-.096 1.18.12 1.67.13.29.076.296.236.48.175.2.313.264.425.262.06.128.147.247.253.345l.349.331c.042.433.167.691.495.84.167.077.23-.007.617.356.34.317 1.112.96 1.267 1.271.015.027.02.058.03.085.397.874 3.874 3.785 4.742 4.627l.043-.024c.235.218.539.323.838.314l-.367.011c.225.213.382.364.705.436zM57.597 42.945c-.46-.178-2.208-1.945-2.687-2.542-.156-.196-.44-.372-.72-.524l-.465-.439-.12.128-.015-.009-7.076 7.5-.784.235c.024.191.073.387.03.576l-.171.181c-.073-.008-.144-.062-.178-.065-.027 0-.128-.019-.15-.02-.014-.002-.084.013-.077-.008.009-.02-.052-.006-.077-.004-.191.305-.127.452-.098.69l-5.262 5.592.448.586c.102.391-.091.163.246.532.138.153.422.387.587.538.166-.068.218-.104.318-.147l1.627 1.548c.117.237.037.105.077.333.057.32.312.3.684.374l3.905 3.691c.265.47-.15.055.12.534.103.181.373.382.534.524 1-.096.73-.175 1.904-1.405l5.39-5.71c.527-.56 2.832-2.792 3.228-3.434.276-.452-.017.05.122-.309.03-.082.133-.225.274-.399l1.26-1.334c.216-.2.396-.352.494-.405.667-.358 1.064-.965 1.683-1.58-.093-.089-.14-.12-.166-.143l.158-.168-.357-.337c-.005-.11.055.005-.653-.699a2.957 2.957 0 0 0-.573-.46l-1.11-1.048c-.062-.117-.145-.222-.378-.439-.341-.316-.56-.648-.976-.84l-.996-.942v-.152zm101.339 124.641c.353-.079.253.005.525-.299 1.104-1.172 2.21-2.34 3.316-3.51.467-.518-.103.098.144-.164.009-.009.269-.28.285-.3.028-.032.095-.12.106-.133l4.479-4.708c1.357-1.479 2.875-2.91 4.149-4.395l.778-.819c.137-.156.02.11.089-.137.012-.04.02-.08.029-.12l.254-.268-.25-.237c-.11-.467-.556-.692-.965-.912l-.851-.805c-.467-.626-.94-1.418-1.835-1.734l-1.104-1.042.013-.039-3.978-3.854a.8.8 0 0 0-.123.032l-.238-.226-1.008 1.068c-1.081.961-2.367 2.503-3.284 3.591l-1.52 1.608a5.556 5.556 0 0 0-.481.511l-.84.887-.02-.02c-.023.04-.044.077-.068.115l-6.76 7.156.149.14a2.037 2.037 0 0 0-.144.452c.033.011.067.035.089.047.474.271.755.251 1.043.534.175.172.394.32.494.494.318.555-.132-.027.116.461.59.462.4-.124.798.352.346.415-.145.197.379.79.284.318 1.028 1.014 1.515.925l.817.771c.115.324.557.514.809.784l.936.93c.222.3.82.813 1.124 1.098.11.105.252.218.313.284.372.407-.13.183.417.76l.303-.068zm13.328-18.649c-.553-.518-1.285-1.399-1.87-1.635-.411.191-.65.738-.648.736.01-.008-.017.036-.026.055l4.097 3.923c.74.775.269-.045.789.387.266.222.382.51.607.241.19-.225.09-.518.096-.824l-1.405-1.323c-.233.077-.111.073-.446.091l-.713-.743c-.196-.529.242-.233-.481-.908zm-2.867-1.828c.05-.253.05-.595.046-.832l-5.085-4.813c-.521.37-.557.382-.604 1.095.373.235 4.646 4.254 4.88 4.68.513-.234.152-.123.763-.13zM54.96 37.816c-.577-.539-.324-.147-.76-.429.11.853-.586-.016-.103.742.014.023.035.05.05.07.608.857.2.12.246.707l.224.15c.684.544.404.6 1.257.967.986.422.988 1.09.989 1.09.08.132 1.13 1.401 1.687 1.35.02-.003.103.01.14-.018.027-.02.05-.008.08-.003l.47-.508-4.28-4.118zm9.409 9.981c.274.066.464-.136.64-.412-.034-.134-2.355-2.296-2.673-2.586-2.277-2.086-2.1-2.628-3.048-1.746.716.707.172.294.457.818l3.877 3.703c.312.27.053.08.282.107l.465.116zm53.774 48.981c-.463-.526-.114-.444-.796-1.15l.039-.285c-.097-.36-1.56-1.596-1.741-1.63l-.04.044-.665-.629.047-.098c-.7-.825-.474-.169-1.091-.649a1.284 1.284 0 0 0-.108-.087c-.373-.319-.727-.817-1.137-.993l-1.176-.575-2.142-.605c-.458-.08-.785-.314-1.05-.325-.607-.023-.612.233-1.201-.006-.394-.159-.352-.054-.693-.089l-.597-.02c-.23.026-.461.055-.692.08-.305-.026-.824-.092-1.112.042-.17.08-.267.15-.513.191-.447.077.045.021-.488-.013-.506-.034-.387.118-1.092.236-.383.064-.093.08-.322.188-.477.225.169-.252-1.041.435l-.32.166c-.127.074-.07.065-.223.143-.324.162-.486.174-.841.01-.405.681-.79.895-1.38 1.272-.354.225-2.877 2.855-3.172 3.34-.303.5.127-.065-.193.448-.145.228-.128.074-.317.364-.301.465.027.443-.29.838-.105.132.05-.03-.123.122a4.845 4.845 0 0 1-.15.12l-.138.063a.287.287 0 0 1-.082-.022c.05.497.168.118-.062.728l-.241.991c-.02.156-.011.051-.041.241-.205 1.297-.48.262-.451 2.186.013.741-.172.806-.043 1.676.07.478-.217.567.117 1.777.07.252.04.034.048.245.003.075-.057.371-.055.388.037.22.142.123.243.346.11.246-.006.392.064.634l.293.695c.1.512.105.781.449 1.222.052.067 1.02 2.19 1.337 2.534.482.522.322.617.54.915.085.116.198.228.323.335.052.084.117.163.19.234l.629.592.447.423c.1.093.209.166.326.22.647.623.68.824 1.577 1.168 1.094.42.245 0 1.153.652.383.276.383.078.9-.046.62.596.569.472 1.24.785l.363.14c.39.123.726.004 1.08.175.54.262.33.057.784.267.052.023.102.04.152.062l3.304-.052c.326-.024.327-.143 1.356-.193l.072-.005c.74-.074.283-.36.857-.383.272-.009.357.064.618-.038.196-.076.026-.07.416-.168.38-.094.119-.004.437-.272.284-.24.31-.1.584-.235.017-.009.046-.03.06-.039l.826-.499c.618-.538.548-.01 1.017-.564.499-.588 1.54-.82 1.748-1.618.178-.185.37-.364.477-.603a.637.637 0 0 1 .132.083c.59-.522.494-.39.617-.876.082-.33.514-.69.735-.916.089-.092.296-.188.357-.41l.263-.904c.117-.435.162-.217.39-.689.18-.367-.02-.239.186-.528l.448-1.026c.073-.368-.058-.39.075-.827l.262-.726c.073-.518-.115-.55.083-1.187.069-.225.044.01.087-.337l-.134-.5c-.118-.256-.023-.298.027-.494.168-.65.008-1.036-.14-1.56l-.23-.94c-.103-.237-.03-.047-.061-.214a21.9 21.9 0 0 0-.043-.278l-.084-.335c-.197-.848.113-.978-.545-1.759-.363-.432-.026-.039-.131-.38l-.588-1.039zm90.02 81.984c-.335-.464-.618-.656-1.028-1.037-.165-.153-.423-.359-.537-.503-.34-.428-.052-.398-.44-.776-.042.09-3.49 3.706-3.857 4.091-.168.178.065-.075-.144.14l-5.276 5.596c-.362.413-.715.766-.888 1.298l-.146.436c-.14.24-.557-.015-1.135.541-.215.208.013-.018-.151.17-3.255 3.465-6.301 6.681-9.373 10.317-.098.22-.298.204.03.366.227.11-.042.011.227.028.188.013.13-.012.334 0l2.884 2.754c.694-.746 4.558-4.618 4.976-5.297.19-.309.062-.286.248-.528.11-.147.196-.12.225-.355.014-.12-.071-.702.036-1.063.068-.233.077-.034.129-.33.039-.224-.106-.388.076-1.049.154-.566.18.002.089-.637-.15-1.038.196.156.288-1.293.027-.44.382-.77.608-1.218l.814-1.723c.009-.033.002-.088.094-.22a.592.592 0 0 1 .226-.185c.165-.068.112-.046.297-.037l.385.06c.232-.05-.042.013.319-.277.555-.445.095.14 1.374-1.078l3.98-.948c.41-.1.327.01.852-.167l.58-.173c.553-.563 4-4.047 4.187-4.474.007-.018.013-.05.02-.07l.123-.308c.206-.336.397-.386.622-.66l.245-.512-1.194-1.2c-.001.01.054.132-.098.321zM121.109 96.39c-.281-.129-.233-.058-.422-.363-.397-.638.023-.102-.201-.482-.17-.29-.174-.076-.272-.346-.137-.378.13-.11-.132-.438-.406-.505-.792-.499-.968-1.057-.022-.073-.03-.133-.041-.206-.042-.27-.13.217.006-.092-.634-.503-1.1-.936-1.653-1.56l-.07.072-.68-.64c-.241-.415-1.653-1.919-2.641-2.174-.605-.156-.363-.027-.79-.434-.507-.483.048.093-.707-.308l-.75-.234c-.456-.204-.33-.03-.648-.202-.441-.238-1.232-.352-1.947-.64-.292-.118-.392-.1-.747-.313-.021.14.323-.193-.09.154-.23.193-.47.153-.712.095-.33-.079-.65-.259-.888-.376-.206.117-.13.086-.308.376-.422-.32-1.744-.318-2.171-.186-.104.033-.115.06-.247.111-.355.138-.573.1-.956.113-.497.02-.12.212-.577.191-.472-.023-.408-.128-.677.066-.323.231-1 .41-1.43.334-.407.403-.316.166-.256.492-.581-.076-.714-.078-1.152.364-.335.337-.084.165-.365.246-.18.052-.853.165-1.263.58-.12.121-.253.277-.37.406l-.861.38c-.371.455-.107.193-.616.22-.227.4-.805.78-.878 1.103-.042.187.028.717-.406.767-.413.05-.17-.175-.63.206-.514.426-.988.878-.892 1.553-.371.31-.885.412-.956 1.04-.063.57-.536.787-.575 1.453-.017.315-.615 1.16-.811 1.498-.303.52.076.506-.203 1.073l-.096.326c0 .011.005.041.005.053l-.32 1.527c-.002.025-.007.06-.01.083-.01.16-.031.121.044.285.22.483-.023.06.124.1-.314.124-.161-.039-.28.31l-.115.66c0 .187-.013.234.376.558-.395.387-.297.18-.297.571l.13 1.194c.049.128.126.26.15.401l.045.54c.092.412-.128.681.055 1.138l.14.395c.06.198.002.11.124.311.123.204.26.243.23.533l.474.743c.004.026.004.057.008.082l.166.506c.598.897.186.432.482.928.055.09.12.098.239.321-.047.102-.145.232-.155.27l1.654 1.72c-.002.02-.034.083-.038.114l.015.232c.143.378.129.063.244.494.097.363-.227.118.335.65.05.135.088.257.2.364l.823.777c.12.112.272.165.423.161l-.122.004.58.548.035.03c.28.3.652.558.906.797.042-.013.257-.096.349-.136.836.79.694.312 1.134.59.415.262.394.453.847.731 1.058.648 1.455.334 2.084.92l.23-.058c.07.02.193.183.26.24.152.127.004.11.23.085.009 0 .04-.014.049-.016.325-.066.14.031.473.136l.58.102c.167.042.37.014.496.3.65-.096.79.178 1.275.017.026-.008.057-.028.084-.036.477-.144.605.147 1.114.123l.8.06c.433.018.284-.332.825.156.297-.31.643-.45 1.036-.39.938.141.587.028.928-.145.128-.065.273-.008.509-.09.447-.157.732-.392 1.266-.042l.528-.555c.274.07-.002.03.348.132.012-.306.02-.239.349-.568.15.03.247.06.425.057.079 0 .174 0 .25-.025.602-.184.23-.474.952-.383.062-.222-.026-.19.219-.279.245-.089-.026-.274.639-.172.053-.223-.014-.209.18-.33l.39-.104c.524-.373 1.223-1.45 1.799-1.675.033-.013.132-.039.165-.048.678-.214.428-.385.669-1.03l.487.112c-.007-.26.015-.384.287-.32l-.047-.436c.017-.033-.004-.056-.006-.083.307-.312 1.199-1.179 1.4-1.486.232-.353-.05-.199.328-.718.162-.223.192-.12.513-.437-.503-.285.077.043-.26-.179-.28-.185-.04-.036-.111-.054l.325-.608c.15-.163.572-.486.567-.704-.014-.5-.085-.75.338-1.132-.404-.245.174-.299.19-.677.003-.01-.004-.044-.003-.056l.385-1.443-.145-.952c.013-.235.013-.302.064-.502l.055-3.034c-.022-.205-.01-.276-.08-.484-.13-.4-.108-.08-.144-.485-.073-.78-.29-.555-.327-1.514l-.403-.792c.213-.719.079-.098-.167-.63-.145-.314-.023-.45-.034-.728-.438-.393-.452-.232-.315-.793zM95.553 113.8l.113-.126c-.155-.363-.7-.904-1.01-1.154-.254-.207-.16.021-.377-.358-.254-.444.14-.093-.29-.504-.314-.299-.615-.505-.61-.702.018-.568-.017-.383-.093-.432-.532-.357-.337-.605-.614-1l-.33-.582c-.048-.113-.117-.189-.163-.31-.09-.24.055-.203-.034-.567-.093-.373-.1-.146-.214-.482-.065-.19-.035-.317-.064-.497-.086-.549-.025-.104-.16-.36-.088-.169.026-.17-.086-.394-.007-.013-.033-.043-.041-.056-.044-.08-.068-.07-.1-.176-.121-.38.12.052-.081-.416-.1-.23-.167-.119-.222-.503-.027-.194.045-.343.107-.507.143-.38.15.013.125-.384.025-.434.016.006-.138-.373-.136-.33-.02-.91-.042-1.137l-.083-.32c-.067-.409-.055-.509.108-.873.152-.336.082-.459.066-.808l.127-.75c.002-.39.24-.658.134-1.097l.92-1.012c-.12-.432-.024-.197-.24-.576l.53-.593c-.047-.42.233-.57.58-.904l-.152-.409c.23-.266.475-.497.703-.752.583-.649-.014-.283 1.357-1.756.33-.353.889-1.027 1.196-1.259.385-.288.22.03.573-.296.202-.185.404-.435.615-.638.476-.253.643.161 1.448-.662l.352.144c.017-.27.22-.613.49-.55.274.063.005-.03.284.117.307-.352.474-.49.966-.544l.716-.18c.373-.067.599-.147.952-.21.392-.072.137-.03.484-.047.457-.023.963.075 1.32-.174.358-.248.68-.044 1.09-.054.158-.004.365-.09.45-.112l2.109.25c.4.116-.35-.105.164.06.418.134.433-.018.676.064l1.289.335a.56.56 0 0 0 .176.092.753.753 0 0 0 .294.118l.107.102c.148.14.35.188.536.146.179.17.259.282.508.356.126.097.7.175.563.178l-.122.004c.19.181.332.36.624.351l-.121.005.516.487a.585.585 0 0 0 .289.15c.113.09.249.131.384.128l-.122.003.265.25a.59.59 0 0 0 .423.161l-.122.004a.588.588 0 0 0 .434.172l-.122.004.266.25c.09.085.172.117.286.152l1.544 1.457c.087.082.18.12.282.151-.014.068.005.168.262.456.268.303 1.064.885 1.315 1.235.356.496-.195-.139.213.461.318.468.024-.298.27.318l.509 1.584c.05.111-.038-.014.144.183l.466.363c-.178 1.326.55 1.824.433 3.022-.045.47.046-.036.032.406-.053 1.472.163.89.24 1.447.11.793-.025.647-.144.93l-.025 1.724c-.063.661-.425.34-.29 1.133-.678.15.174.245-.554.754.407.406-.098.204.29.686-.782.694-.048.291-.41.712-.25.291-.26.11-.27.522-.011.436.07.008-.112.464-.178.44-.348.657-.668 1-.352.378.097.074-.34.677-.133.186-.278.295-.502.524-1.114 1.142-.483 1.082-.87 1.364-.185.134.044-.112-.132.1l-.503.53c-.005.005-.193.282-.305.418a1.159 1.159 0 0 1-.28-.187c-.471.462-.394.213-.86.595-.424.348-.707.836-1.103 1.176-.202.172-.754.417-1.205.388l-.643.447c-.064 0 .026-.023-.168.034-.14.04-.228.056-.422.157-.432.227-.321.308-.78.321-.447.012-.042-.086-.461.085-.436.178-.717.061-1.214.214-.401.125.082.164-.46.067-.705-.129-.144.292-1.69.337-.452.013-.393-.027-.811-.358-.367.432-.713.523-1.222.318-.354-.142-.162-.142-.612-.206-.42-.058.127-.03-.193-.009l-.066.01c-.434.043-.378-.242-.891-.258-.246-.008-.428.073-.64.043-.522-.075-.162-.174-.651-.354-.895-.33.037.5-1.223-.55-.353-.295-.04-.029-.412-.107-.746-.154-.024-.41-1.085-.354-.427-.39-.24-.355-.534-.556-.368-.252-.3-.319-.56-.533-.26-.212-.3-.08-.573-.216-.608-.302-.01-.538-.998-.73l-.05-.028c-.156-.149-.317-.34-.536-.387l-.494-.467zM28.085 8.038c-.17-.613.01-.199.043-.647.027-.388-.72-.928-1.035-1.226-.711-.67-1.445-1.342-2.14-2.034-.425.043-.601-.01-.887.256-.041.04-.234.267-.332.37l-2.517 2.65c-.051.055-.098.113-.147.168L19.7 9.07c-.5.785-.403.371-.656.635-.262.274-.01.091-.083.441l-.305 1.697c0 .14-.001.278-.003.418.028.49.139.403-.05.814-.102.218-.077-.004-.101.222-.078.78.408-.477-.104.387-.145.24.069.076-.218.803l-.434 1.454c0 .006 0 .061.013.053.015-.007.014.035.02.056l-1.153 1.253c.134.29.477.511.64.63.959.692.692.646 2.289-1.009l2.055-2.206c.598-.537.002-.246.449-.832.522-.688.662-.228.947-.579l2.44-2.65c.124-.137.18-.16.26-.244.132-.136.076-.092.173-.204l1.603-1.676c.307-.347.195-.41.603-.494zm48.769 47.05c-2.663-2.442-.557-1.017-2.448-2.744-.385-.354-.382-.616-.611-.93-.232-.322-.59-.47-.801-.78-.148-.219-.103-.194-.124-.243-.31-.69-.765-.968-1.124-1.263-.96-.79-.415-.722-.921-1.264-.576-.62-.15-.484-.643-1.003-.36-.379-.951-.72-1.153-1.188-.234-.548-.132-.437-.643-.907-.211-.195-.314-.298-.452-.426-.07-.063-.2-.173-.257-.256-.104-.154-.101-.223-.107-.24-.157-.355-.776-.867-1.082-1.19-.324-.347-.093-.254-.326-.69-.043-.082-.103-.148-.164-.219l-1.201-1.547c-.636-.516-1.126.3-1.512.745l-1.344 1.41c.3.984-.556.38.562 1.427l.842.78c.165.177.187.171.388.355l3.628 3.412c.119.13.116-.046.148.356v.078l.009.525-.786.021c-.18.036-.08.037-.236.038-.524 0-.03-.072-.502-.133-.038-.004-.093.005-.133 0l-.402-.108c-.396-.142-.241-.202-.667-.3-.365-.084-.516-.137-.88-.027l-.396.145c-.337.266-.507.602-.794.886-.732.777-1.467 1.551-2.2 2.326-.172.18-.292.287-.385.392l-.328.335c-.466.521-1.021 1.012-1.23 1.55-.111.284-.046.293-.42.493l-.277.093c-.503.24-.812.836-1.208 1.19l-1.008 1.194c.003.011.04.112.052.105.018-.009.024.038.032.056-.03 0-.07-.01-.087-.012-.366-.013-.42.148-.668.44l-.254.464c-.13.442-.174.386-.58.528-.675.238-.271.576-.983 1.303-.371-.122-.23-.12-.526.2l-.577.58c-.241.264-.141.346-.255.608l-1.392 1.22c-.475.241-.88.958-.874 1.486l.026.497c-.062.441-.166-.13-.044.326l.333.867c.486.862.167-.279.479 1.377-.334.321-.116.197-.51.166l-.435-.066c-.158-.369.01-.203-.227-.586-.524-.117-.126.171-.652-.26-.383-.31-1.122-.857-1.081-1.377-.494.07-.148.118-.44-.054l-.428-.72c-.323-.43-.2.091-.72-.357-.311-.269-.137-.367-.346-.667-.023-.032-.064-.105-.221-.192-.423-.229-.207.165-.65-.3l-.188-.342c-.088-.186.228.09-.173-.307-.46-.452-.478-.098-.841-.08-.17.006-.203-.025-.334-.05-.38.54-1.543 1.64-1.693 1.946l1.255 1.222c1.42 1.334 1.258.821 1.66 1.096.367.25.595.62.935.84l1.45 1.2c.07.083.07.106.223.245.19.174.67.805 1.204.883.994.147 1.645 1.85 2.62 2.036.516.1.839.56 1.283.97.347-.11.043-.244.399.075.599.538 1.26 1.394 1.98 1.876.288.194 1.004.265 1.379.793l.033.11c.018-.012.005.044.009.066.499.338.892.865 1.345 1.233.524.426.188.094.633.271l2.727 2.114c.302-.06.38-.058.617.146.496.425 1.263 1.588 1.9 1.751.344.088.148-.104.673.402.842.816.7.216 1.424.907.355.337.655.637 1.04.948.404-.216.193-.242.564.121l5.49 5.178c2.162 2.004 3.598 3.387 5.859 5.54.687.656 1.782 1.563 2.323 2.288l.762 1.837c.214.517.163.206.078.514-.114.413.004.301-.047.541l.02 2.473a4.99 4.99 0 0 0 .017.468c.047.368.056.108.09.35.043.29-.078.326-.066.697l-.058 2.253c-.115.487-.433.847.046 1.24.033-.018.069-.049.086-.054.299-.074.246.023.429.082.235-.232.547-.39.779-.358.012.002.042.011.055.013l.77.17c-.218.283.054.001-.104.418l-.06-.012c-.227-.012-.302.105-.5.201l-.58.338c.16.267.329.301.602.612.456.515.356.802.953 1.265.269.206.296.334.656.62l.46-.702c-.01-.024-.06-.112-.072-.142-.204-.496-.157-1.169-.04-1.707.319-1.456-.662-1.009-.992-2.053.165-.089.14-.079.323-.107.122-.017.252-.02.376-.029.035-.02.063.002.095 0l.829.777c.44-.2.566-.159 1.009-.23.494-.76.357-.745.2-1.223-.293-.897.004-1.617-.03-2.317-.024-.5-.2-.137-.106-.732.04-.257.17-.489.133-.798-.043-.353-.145-.409-.008-.735.258-.61.272-.094.175-.872l.095-.345c.237-.543-.174.49.059-.148.443-1.213-.004-.364.18-.82.082-.199-.037.288.139-.219l.58-1.624c.2-.384-.053.07.167-.2.236-.29.15-.169-.066-.534.32-.323.345-.207.44-.51.007-.019.008-.053.012-.07l.366-.96c.182-.2.127-.067.26-.328.22-.422.303-.242.57-.517 1.059-1.092-.27-.245.957-1.576a.313.313 0 0 1 .006-.105c.117-.059.224-.14.317-.239l2.323-2.459c.103-.108.2-.204.28-.334.25-.163.42-.398.697-.625.41.081.245.183.445.03l.179-.21c.1-.109-.07.08.152-.154.155-.16.314-.51.562-.685l.538-.247c.025-.01.056-.022.08-.035.35-.253.733-.587 1.196-.495.013.002.04.042.067.028.023-.015.04.025.06.03.122-.135.264-.404.32-.442.145-.043.294-.08.435-.135.384-.153.758-.37.779-.515.609.34.258.194.636.043.313-.123.357-.278.656-.339l.606.103c.599-.573.676-.612 1.372-.587l1.782-.283c-.366-.586.08-.287-.415-.797l-3.062-2.892c-1.552-1.388-.805-.503-1.321-.928-.543-.448.089-.05-.315-.596-.463-.625-1.526-1.482-2.077-1.984l-4.38-4.14c-2.801-2.735-4.723-4.249-7.303-6.925l-1.332-1.678c-.174-.077.05.052-.04-.2-.222-.62-.97-1.04-1.375-1.47-.506-.537.11-.054-.371-.679-.291-.377-.85-.716-1.155-1.093l-.152-.369c-.006-.022-.006-.055-.013-.077-.024-.062-.031-.097-.068-.158-.331-.53-.973-.792-1.143-1.405-.038-.136.015-.049-.091-.208-.303-.448-1.066-.872-1.338-1.357-.19-.337.13-.098-.311-.499-.528-.48-.57-.509-1.028-.967a1.65 1.65 0 0 0 .183-.274zM87.32 85.878c-.101.01-.212.044-.348.107-.361.167-.28.152-.688.09l-1.37.737c-.008 0-.038-.009-.048-.009-1.086-.096-.15-.15-1.037-.22l-.424.003c-.343-.24-.476-.463-.691-.505l-.864-.044-.916-.866.04-.157c-.36-.216-1.05-.908-1.534-1.39a1.247 1.247 0 0 0-.172-.258 1.196 1.196 0 0 0-.271-.38l-.453-.43c-.024-.064-.08-.155-.224-.319-.312-.352-.89-.834-1.251-1.177-.546-.514-1.732-1.959-2.624-2.376l-1.31-1.238c.032-.116.065-.243.13-.407-.156-.096-.424-.293-.538-.568-.215-.51.15.56-.046-.28-.028-.125-.001-.042-.093-.18-.326-.484-.213-1.62-.232-2.265-.022-.699.713-.837.584-1.497l.388-.41c.089-.096.16-.202.212-.313l.01.01c.485-.096.23.116.739-.226.35-.234.577-.462 1.024-.447l.78-.039c.294-.036.087-.015.412.088.294.093.136.077.329.061l.266-.08c.023-.002.195.046.223.057.21.094.133.096.402.19l.849.411.043-.049c.075.051.154.092.237.125l.37.351c.159.15.355.253.566.298l.01.003c.039.227.205.461.497.731l5.357 5.057c.48.44.274.535.684.951.059-.01.119-.025.178-.032l1.46 1.38c.042.062.076.12.11.173.473.7.239 0 .258.751.009.086.01.191.032.272.11.422.299.734.278 1.203-.001.021-.002.054-.005.076l-.2.58c-.095.422-.19.551-.481.894.107.347.228.246.138.624-.054.218-.17.21-.277.4l-.51.54zm84.37 56.21c-.425-.542-1.283-1.41-1.898-1.686-.03-.013-.06-.02-.088-.033-.327-.149-.747-.44-.754-.794-.023.012-.044.008-.073.031l-.15.043c-.576.074-1.104-.725-1.497-1.1-.57.023-.306.04-.646-.204-.633-.45-.42 0-1.448-.993-2.16-2.086.01.296-2.384-1.904-.173-.159-.413-.462-.69-.669l-.907-.487c-.816-.802-.601-.352-1.042-.55-.166-.074-.302-.274-.391-.363-.584-.59-1.016-.964-1.663-1.563-.097.052-.23.166-.262.185-.368-.326-.81-.882-1.221-1.058-.538-.232-.623-.603-1.057-.703-.49-.113-.15.171-.722-.34-.505-.454-1.344-1.575-1.973-1.729-.022-.005-.056-.006-.077-.009-.432-.07-.897-.658-1.534-1.26-.241.082-.06.362-1.255-.876a14.39 14.39 0 0 0-1.327-1.186c-.062.012-.083.054-.163.048-.348-.026-.823-.697-1.166-.928-.682-.459-.505-.02-.595-.439-.032-.152.18.056-.09-.228-.27-.282-.333-.134-.52-.206l-.657-.362c-.753-.219-.134-.557-.986-.897-.577-.23-.28-.268-.528-.654-.287-.444-.303-.252-.523-.323-.461-.149-3.017-2.63-3.408-3.09-.145-.172-.17-.249-.243-.454-.136-.33-2.254-2.334-2.583-2.436-.475-.147-1.137-.869-1.628-1.315l-2.737-2.592c-.337-.324-.611-.383-.516-.85-.37-.032-.551-.132-.854-.43-.625-.616-.433-.51-.604-.952-.294-.763-.58-.396-.784-.328l-.231-.382c-.025-.056-.043-.14-.061-.2-.316-.712-1.125-.848-1.611-1.253-.747-.626-.536-.675-.852-1.143a4.508 4.508 0 0 0-.313-.32l-.97-.392-.22.693c-.03.44.125.407-.292.492.337.488 0 .898.047 1.301.046.4-.266.985-.316 1.362-.023.168-.065.441-.082.558-.068.436-.242.344-.217.81.013.203.063.262-.046.461-.267.484-.055-.28-.274.427-.076.241.032-.042-.06.24-.054.173-.066.14-.128.335-.271.876-.262.351-.386.723-.09.271-.003.095 0 .151 0 .01.012.043.012.052l-1.014 1.614c-.746.741-.412.99-.98 1.54-.193.186-.267.151-.46.473-.376.624.114.32-.653 1.1-2.034 2.061-1.07.965-1.813 1.494-.338.24-.28.416-.521.488l-.4.037a1.86 1.86 0 0 0-.241.221l-.458.563c-.531-.094-.273-.162-.592.198-.576.653-.351.013-.817.411-.433.37-.126.354-.69.576l-.52.19c-.453.123-.1.098-.624.393-.331.185-.391.055-.687.181l-.601.3c-.388.132-.57-.048-.934.19-.37.24-.458.296-.954.164-.27.383.118.348-.696.311-.288-.014.062-.115-.33.068-.41.194-1 .223-1.47.186l-.88.056c-.135-.004-.274-.045-.402-.05l-1.28.086c-.706-.04-.564-.484-1.29.456-.23.296-.113.267-.152.67-.01.107-.031.212-.045.321-.185.127-.21.095-.25.111-.29.115-.094.164-.841.385l-2.35-.116-.493.521 1.93 1.911c.253.251.415.17.59.621.367-.069.065-.159.352-.09.173.041.167.176.392.313l1.265.375c.639.124.615.09 1.138-.135.587-.253.86.247 1.514.14l.477-.176c.438-.176 1.278-.238 1.729-.026.246.115-.111.013.164.092.198.055.09.013.275.006.103-.004.22-.006.322-.017l.469-.078c.53-.14.386-.272.66.14.404-.119.515-.145.854.041.574.312 1.184.303 1.58.733.396.428.35.204.858.332.06.488-.05.447.35.785.214.18.337.415.616.486.365.094.518.082.786.505.589.927-.18.186 1.169 1.451l2.49 2.36c.232.224.113.108.305.268l1.528 1.435c.392.343.735.711 1.142 1.104.226.22.116.112.302.267l3.678 3.49c.275.263.28.472.486.75.032.041.08.092.114.133.502.604 1.279 1.17 1.656 1.59.534.595.017.473 1.272 1.617.66.602.265.297.424.817.012.041.478.455.707.693.258.267.966.855 1.194 1.304.23.461.93 1.016 1.365 1.424.434.408.106.33.553.298l-.184.423c.309.336.559.752 1 .623.176.827 1.109 1.617 1.388 1.983l.115.21c.364.861-.233.058 1.183 1.425.629.61.29.572.518.947.286.467 1.27 1.024 1.6 1.604.496.874.22.366 1.02 1.11.223.206.65.56.723.734.244.575-.156.276.5.896.34.322.627.573.714.975.137.62 1.127 1.044 1.434 1.634.12.232-.043.146.329.493.456.426 1.076 1.184 1.623 1.48l-.04.38c1.294 1.471.44.382 1.005 1.5.39-.346.419.218 1.608-1.15l.756-.799c.427-.43.429-.423.339-.998-.938-1.034-2.294-2.266-3.235-3.106-.557-.499-1.218-1.168-1.623-1.517-.898-.776-.451-.67-.792-1.169-.02-.032-.178-.125-.223-.399l.44.014c.733-.164.858.115 1.493.175.319.03.728.195 1.046.165l.654-.073.219.207 14.06-14.882-.276-.26c.263-.565.154-1.074.074-1.654-.026-.144-.028-.119-.048-.185-.24-.728-.748-1.064-.285-1.907.212-.012.436-.078.653.013.217.092.573.475.76.655l2.806 2.652c.569.542.742.904 1.406.827-.032.24-.306.086.09.59.278.35 1.008 1.074 1.496.707.016-.012.157-.197.19-.233.113-.128.153-.156.253-.263l.244-.262c1.388-1.32 1.195-1.757 1.344-1.893zM63.328 40.21c-.083-.588-.044-.489.506-1.05-.063-.02-.263-.168-.287-.177-.222-.097-.375.031-.696.168-.404.17-1.804 1.76-1.838 1.835-.418.936-.363.788-.004 1.167.233-.263.578-.619.765-.814l.407-.619c.008-.017.004-.048.026-.08.155-.21.546-.388.892-.438.2-.029-.013.003.229.007zm110.548 103.59c-.11-.19-.29-.273-.506-.199l-.942.96c-.538.722-.41.412-1.077 1.114-.082.086-.188.183-.246.264-.121.171-.048.021-.082.216-.04.218.056.073-.154.374.208.14.109.041.247.254.263-.23 2.562-2.555 2.76-2.984zm-3.92 1.95c.96.161.712-.085 1.097-.44l1.423-1.476c.203-.307.323-.509.327-.804l-2.493 2.166c-.125.123.028-.062-.111.145-.051.078-.186.278-.243.408zM61.193 39.988c.087-.084-.048.073.086-.127 1.007-1.498 1.432-1.019 1.518-1.887-.244-.084-.086-.169-.352-.035-.787.39-.45-.048-.918.408-.894.868.174.35-1.235 1.867-.65.698-.845.652-.487.926l1.388-1.153zm47.562 46.461c.84-.099-.321-.014.233-.043.359-.019.283.051.56.078l.432-.086c.45.412.63.44.765.405.11.064.255.097.379.133a.57.57 0 0 0 .379.123c.109.102.166.161.316.21.077.02.156.05.233.067a.715.715 0 0 0 .259.122.578.578 0 0 0 .283.117.583.583 0 0 0 .144.05.698.698 0 0 0 .257.121.59.59 0 0 0 .376.122l-.122.003a.594.594 0 0 0 .296.16.607.607 0 0 0 .317.176.585.585 0 0 0 .385.128c.192.181.332.36.625.352l-.123.004a.615.615 0 0 0 .324.165c.056.054.12.116.195.184.393.361.7.294 1.113.708.354.353.715.6 1.04.628l.847.8c.007.04.013.09.02.151.058.497.804.997 1.22 1.376.289.264.369.514.538.815.097.173.36.353.664.645.243.232.157.087.239.328.102.304-.158-.026.162.406.524.708.268.037.225.806.494.143.325.38.436.907.098.483.35.186.487.873.137.682.279.595.55 1.432l.146.721c.006.024.022.056.029.078l.236 1.018c.1.488.179.983.265 1.475.088.372.137.696-.226.944.606.62.193.047.195.732l.01.147c.002.016.01.05.013.064l-.266.944c-.1.436.466.547.103 1.507l-.193.857c-.05.567-.244 1.001-.421 1.538-.137.413-.085-.02-.117.42-.045.615-.42 1.054-.376 1.292.049.261-.183.366-.296.632l-.54 1.091c-.343.553-.418.44-.582.978a2.64 2.64 0 0 1-.164.362l-.581.556c-.421.483-.365.274-.508.498-.297.465-.88.884-1.1 1.218l-1.211 1.193c-.266.154-.281-.027-.556.201-.337.281-.386.41-.924.718-.172.098-.29.353-.55.513-.241.147-.501.278-.763.257-.077.166-.06.202-.063.22-.023.094.065.001-.024.128l-.414-.159c-.515.668-.764.418-.961.438-.113.012-.168.06-.375.063l.096.3c-.31-.06-.251.035-.421-.185-.705.711-.828.287-1.39.654-.494.324-.033-.097-.565.208-.222.127-.057.048-.326.02-.16-.019-.353.02-.514.04a6.723 6.723 0 0 1-.238.05l-3.034.21c-.565.014-.551.255-1.047-.243-.22.331-.767.356-1.114.272-.405.831-.231.77-.356 1.031.219.008.46.006.676.034l.68-.076c.26-.085.635.043.92.014.257-.026.029-.05.249.108.294.211.205.137.668.104 1.014-.07.42-.478 1.619-.03.068.026.12.041.19.06.177.02.172-.062.257-.145.138-.135.05-.125.227-.182l.34-.009c.172.007.295.028.42.024.488-.018.388-.236 1.025-.247l1.123-.44a.596.596 0 0 1 .157-.036l.454-.124c.405-.138-.062.04.289-.002l.132-.026c.43-.135.553-.54.898-.5.236.03.707-.262.908-.38l1.049-.722c.348-.214.6-.189.637-.204.326-.138.63-.642.737-.743.588-.56.067.122.658-.328.374-.287 1.256-1.325 1.638-1.73 1.118-1.183 1.62-1.475 2.19-2.622.077-.15.074-.124.126-.193l.568-.584c.402-.473-.19-.22.349-.915l.436-1.14c.01-.018.03-.046.039-.062.377-.606.034.292.164-.21.003-.026.018-.086-.002-.078-.005-.067-.013-.13-.02-.196-.043-.539.42-.832.514-1.269.195-.914-.108-.132.317-1.123l.07-.192c.252-.657.037-.492.095-1.178l.019-.165c.098-.742.375-1.243.266-2.08l-.003-.498c-.01-.334-.055-.139-.04-.38l-.003-.985c.006-.197.003-.104-.008-.23-.045-.618-.315-.484-.265-1.044a169.85 169.85 0 0 0-.157-1.89c.002-.29-.35-.818-.503-1.159l-.17-.376c-.288-.349-.074-.076-.144-.082.345-.555-.03-1.217-.436-1.635.074-.302-.092-.398-.211-.684-.334-.798.27.01-.687-1.028l-.195-.242c-.893-1.39-.008-.442-.84-1.47-.486-.6-.045-.372-.414-.805-.327-.384-.823-.935-1.29-1.202l-1.108-1.047.004-.013c-.2-.24-.271-.256-.463-.43-.178-.165-.16-.183-.377-.388-.284-.269-.336-.36-.52-.33a.595.595 0 0 0-.276-.143.615.615 0 0 0-.384-.186 5.336 5.336 0 0 1-.176-.154c-.66-.602-.196-.255-.892-.539l-1.31-.635c-.1-.01-.127-.005-.148-.005a.527.527 0 0 0-.145-.056c-.11-.046-.176-.085-.246-.105a.638.638 0 0 0-.264-.128.593.593 0 0 0-.358-.127l-.356-.332a1.016 1.016 0 0 1-.227.05.645.645 0 0 0-.222-.107 1.426 1.426 0 0 1-.157-.272l-.873-.355c-.145.07-.086.101-.335.144-.224.038-.306-.059-.56-.163-.416-.173.06-.006-.17-.049a3.904 3.904 0 0 0-.48-.04c-.73.02-.833-.085-1.414-.259-.465-.14-.708-.088-1.013.146-.481-.542-.955-.31-.993-.31-.278-.006-.56-.018-.835-.013-.08.002-.17.008-.25.012l-.762.176c-.561.156-1.244.002-1.97.28l-.316.103c-.494.148-.69.31-1.26.34-.476.023-.593.191-1.037.396-.025.012-.054.03-.08.041-.292.118-.208-.088-.592.142l-.882.546c-.206.157.088-.023-.154.113l-.283.125c-.404.192-.686.146-1.004.438l-1.101.808c-.71.565-.425.007-1.665 1.471-.21.247-.25.168-.373.311l-1.4 1.57c-.228.203-.13.047-.365.36l-.717.722c-.23.276-.217.185-.337.333l-.05.44c-.653.703-.352.55-.768 1.14-.146.206-.406.307-.395.568 0 .02.007.057.007.078.005.333-.224.662-.31.88-.1.256-.565.582-.65.82-.381 1.101.046.573-.247 1.453l-.052.167c-.223.81.189-.162-.203.427-.14.211.05.32.064.542.027.38.002.168-.075.338l-.18.694c-.181.598-.15.48-.094 1.14l.012 1.777c-.08.857-.23-.023-.15.846l-.001.121c.019.391-.14-.298.008.163.014.04.039.068.057.102.255.503.228.97.119 1.571l.544.49c.03-.01.067-.03.088-.039.342-.14.42-.028.719-.348.28-.298.106-.904.015-1.267-.237-.904-.138-1.79-.213-2.727-.038-.472.164-.589.167-1.052l.06-.822c.078-.406-.114-.64.035-1.008.112-.278-.134.273.09-.159.084-.18.167-.36.256-.537.006-.014.028-.04.034-.053.289-.547-.221.107.075-.579.297-.688.278.092.328-.41l-.061-.682c-.045-.292.003-.039.223-.367.118-.176.078-.168.133-.322l.244-.64c.143-.33.729-.74.767-1l-.017-.289c.025-.209-.01-.049.104-.218l.295-.654c.068-.136.362-.42.516-.582.177-.183.624-.657.832-.87.439-.455.157-.61.643-.98.593-.454.253.027 1.33-1.117.143-.152.696-.78.908-.972.265-.24.736-.192 1.097-.326.222-.084.302-.34.548-.425.195-.065.143.011.305-.113.043-.033.117-.139.229-.242.555-.52.18-.175.688-.332.043-.013.336-.163.432-.165l.324.036c.445-.036.112-.053.469-.308.54-.386.6.04 1.508-.72.065.141.47.087.706.003.512-.183.835.065 1.3-.118.502-.196-.02-.135.629-.24l3.059-.059c1.16-.108.918.427 1.698.335zm83.349 75.068c.178.515.18.245.009.43l-.121.153c-.047.372.494.764.896 1.13.599.545.526.368 1.328.638.034.565-.07.595.483 1.067l.567.494c.49.19-.265-.44 1.176.546.185-.335.872-.903.962-1.105.082-.18.037.013.056-.218.032-.379-.086-.379-.205-.618-.033-.073-.071-.174-.11-.242l-.092-.156c-.357-.484-1.078-1-1.511-1.273-.142-.089-.153-.139-.222-.282-.098-.168-.01-.126-.244-.34-.398-.36-.073.09-.782-.402-.454-.315-.338-.315-.66-.647-1.374.077-.481.11-1.53.825zm14.608 14.53c.017-.008-.023.064-.031.097.027.2 1.489 1.518 1.72 1.727.47.423 1.04 1.046 1.535 1.364.245-.125.219-.143.399-.287.66-.532.29.103.613-.456.059-.103-.044-.036.093-.277.445-.77 1.103-.393-.053-1.419l-2.412-2.328-.787.26a2.129 2.129 0 0 0-.135.118l-.907 1.105c-.01.023-.05.103-.035.096zm-34.358-29.319c.114.256.04.241.215.328-.227.081-.458.351-.524.565.33.581 2.376 2.32 2.876 2.791.449.424 2.943 2.615 2.96 2.923-.136.392-.021.11-.215.308-.59.612-.661.311-1.385.24-.203-.02.199.105-.16-.036-.56-.22-1.505-.56-2.088-.198l-.026-.025-.12.125c-.103.08-.2.167-.291.242-1.158 1.18-1.853 2.001-2.94 3.075-.04.04-.07.077-.106.12l-1.595 1.692c-.056.058-.091.142-.256.327-.343.385-1.175.975-1.44 1.475a.5.5 0 0 0 .025.06l-.801.85c-.373.244-.763.692-.945.892-.02.022-.143.188-.16.207l-4.605 4.91a4.912 4.912 0 0 0-.516.58l-.354.375.117.11c-.072.258-.075.56-.018.975l.386 1.213c.09.238.153.464.223.707.056.203-.017.142-.095.227l-.55.571-3.471-3.269c-.221-.334.209-.26-.696-1.023.162-.128-.202 0-.397.033-.196-.218-.414-.387-.552-.643-.012-.024-.02-.053-.03-.076l-.1-.239c-.115-.19-.237-.292-.398-.456-.38.403-2.697 2.658-2.937 3.14l-.127.628c.078.102.042.01.055.012.01.003.054.01.07.018.659.276 1.243 1.312 1.852 1.72.07.046.179.122.217.168.136.163.069.101.112.192l.764.97c.41.381.856.78 1.252 1.168.574.563.176.615.755 1.12.126.107.817.87 1.093 1.014.336.177.203-.04.54.158.172.1.466.411.677.567.433-.224.936-.03 1.388-.088.195-.026.037.018.142-.029l.477-.137c.164.007.333.031.497.05.27.103.374.278.457.586.07.262 0 .14.13.472l.31 1.144c-.051.441-.027.027.17.471.16.356-.034.57.199.837.265.303.36.268.677.14l.313-.13c.493-.244.338-.42.769-.377.664.066-.174.018.219.05l.203-.029c.404-.14.496-.12.718.091.022.033.05.066.082.095l5.197 4.91c.167.238.425.44.67.633l3.084 2.914c.208.281.277.551.332 1.017.049.42-.251.36-.261.815-.01.446.025.426.436.821.263.11.677-.056.999.03.405.11.328.184.72.145l.298-.063c.156-.038.432-.019.695.195l.722.695c-.121.27-.12.151-.201.286-.13.218-.115.93-.153 1.163-.102.594.352.568.183 1.687.32.386.606.62.703.945.05.173-.03.076.129.283.685.898 1.906 1.725 2.683 2.54.227.235.468.472.718.654.185-.09.067-.034.16-.117 8.407-8.883 16.49-17.829 24.746-26.839a.913.913 0 0 0-.118-.25c-.5-.672-2.824-2.684-3.528-3.357-.655-.622-1.772-.688-2.637-.65-1.174.05-.6-.053-1.57.27-.387.128-.627-.335-.698-.648l-.002-1.223-.713-1.127c-.351.241-.147.25-.617.25-.42-.002-.435-.108-.796.324-.544-.539-.402.007-1.328-.86l-3.533-3.337-.01.022-3.388-3.202c-.055-.082-.177-.21-.446-.446l-.015.01-.753-.71a.751.751 0 0 0-.111-.156c-.555-.594-.863-.599-.665-1.473l.152-.349c.113-.35-.156-.083.254-.629-1.152-1.122-.524-.588-1.747-.949-.128-.038-.031-.036-.246-.069-.533-.085-.293.101-.874-.149-.258-.11.033-.038-.323-.079-.24-.026-.341-.002-.557-.015.09-.664-.498-1.298.167-1.707-.147-.188-.248-.26-.257-.38l.044-.882c-.023-.945.139-.447-.295-1.276-.226-.428-.185-.827-.953-1.032-.454-.12-1.24-1.138-1.683-1.508-.326-.273-.364-.004-1.043-.537-.348-.27-.201-.139-.55-.21-.523-.107-.567-.445-.837-.613-.29-.18-.57.054-.662-.387-.045-.219.253.003-.501-.705-1.171-1.1-.751-.574-1.115-.756-.098-.049-.33-.707-1.281.308-.61.648-1.112 1.124-1.667 1.796zm19.156 14.638c.674-.856 1.51-1.35 1.125-1.739-.003-.003-.46-.228-1.196-.97-.426-.43-.476-.3-.782-.858l-.065-.13c-.404-.818-.747-.664-.91-.745a8.803 8.803 0 0 1-.452-.343c-.327-.319-.233-.439-.761-.489-1.602-.15-1.263 1.32-.94 1.583.676.55.204.165.539 1.03.338.07.257.128.716.04-.075.365.025.252-.158.566.032.008.07.03.092.04 1.075.518.394.144 1.04.304-.001.816-.111.501.609 1.15.795.715.255.381 1.143.561zM22.605 14.993l-.288.101a1.19 1.19 0 0 1-.07.275l-1.586 1.576c-.313.296-.513.586-.737.884l-.7.741c-.118.09-.226.175-.29.31l-4.317 4.567c-.026-.002-.07-.01-.172-.02a1.315 1.315 0 0 1-.065.27l-.951 1.007.03.03a3148.76 3148.76 0 0 0-4.704 4.98c-.258.253-.511.512-.765.77-.025.03-.045.064-.07.095-.492.522-.98 1.051-1.478 1.57l-.128.11c-.18.242-.086.614-.096.884l-.005.083c.552.307.092-.009.416.13.235.101.2.09.423.29.27.243.56.538.824.797l.069.507c.015 0 .057-.007.078-.007.736.01.825.667.925.844.452.035.646.317 1.056.45l1.11.217c.017 0 .05-.009.066-.009l.66.04c.782-.15.98-.847 1.823-.068-.018.326-.056.767.102 1.083.396.79.548.188.268.791.33.37.737.758.86 1.11.146.414.325.543.796.022.872.522.867.077 1.78.458.564.234 2.976 2.554 3.398 3.045.395.458-.503.095.495.683.055-.015.109-.034.162-.056l1.033.977c.04.224.12.417.363.516l.809.587c.232.228.736.697.918.865.744.69 1.216 1.153 1.958 1.846l-.007.156c.037.31.1.561.187.854.078.271-.101.142-.134.341-.005.032-.001.067-.001.1-.007.61.024.13-.175.766l.596.595c1.356-.429 1.242.397 1.93.478l.396.074c.505.12.448.005.936.46l-.183 2.21c.004.287.14.456.237.733l.084.254c.27.472 1.469 1.112 1.682 1.774.078.238.29.706.646.85.463.187-.061-.628 1.47.986l.76.685c.198.096.405.018.762.437.303.357.107.167.129.247l.038.253c.029.012.096-.006.089.02-.06.241.178-.024.48.172.027.018.375.343.504.473.628.622.555.106 1.09.653l1.38-1.495c.16-.124.508.135.828-.532l.247-.709c-.488-.453-.484-.462-.91-.856a6.28 6.28 0 0 1-.42-.45c-.162-.273.098-.223-.234-.51-.042-.035-.957-.289-1.453-1.075l-1.984-2.166c-.397-.4-.27-.452-.671-.418l.03-.345c.135-.37.704-.332.963-.289.376.064.348.264 1.19.563.1.04.213.09.315.118l.369.025c.488.002-.04 0 .154.007l.153.006c.67-.042-.327.076.167-.026l.2-.049c.646-.212 1.083-1.045 1.535-1.504.667-.677 4.559-4.595 4.732-5.126.197-.6.538-.295.674-.904l.9-1.02c.568-.407.76-.924 1.514-1.262.308-.14.645-.516.83-.81.23-.359-.033-.477.467-.852l.404-.15c.029-.006.127-.017.163-.029.207-.584-.235-.19.45-.913l2.923-3.074c-.058-.223-.05-.142-.064-.382-.01-.149.028-.42.026-.467l-.5-1.29c-.068-.422-.2-.625-.008-1.046.334-.732 1.124.015 1.472.453.325.408-.013.357.28.641.12.117.012-.007.152.112l1.213 1.152c.045.042.253.228.33.303.226.221.31.33.572.52.61.438.094-.26.713.351-.136.292.11.451.248.581l.65.642c.097.081.218.18.326.246l.33.163 1.563-1.669c.576-.549.568.04.836-.709.137-.379.308-.53.61-.64.005-.836.16-.73-.55-1.376-1.358-1.23-.517-.776-.818-1.116-1.183-1.108-1.84-1.743-2.894-2.727-.48-.446-.29-.233-.454-.74l-.06-.164c-.12-.349-.05-.37-.415-.744a5.748 5.748 0 0 0-.437-.37c-.457-.273-.032-.015-.255-.1l-.244-.092c-.028-.013-.052-.032-.081-.047l-1.171-.503-.775.186c-.701-.002-.157-.116-.473.107-.63.445-1.44-.132-1.702-.783l-.372-1.168c-.041-.473-.446-.715-.41-1.139l.026-.179c.052-.68-.092-.202-.3-.715-.562.564-.623.344-1.146.91l-1.591-.414c-.517-.224-.367-.6-1.012-1.213-.223.018-.46.103-.38.008-.678-.61-1.634-1.663-2.35-2.186-.058-.076-.123-.135-.19-.2l-1.033-.975c.046-.063.043-.089.044-.094.033-.479-3.513-3.47-3.94-3.963-.305-.356-.23-.335-.233-.74-.003-.22-.04-.529-.016-.72.084-.662.472-.722-.223-1.336l-1.052-.168c-.264-.034-.55-.13-.697.116-.235-.223-.181-.222-.465-.334-.027-.01-.058-.017-.085-.025-.507-.166-1.147-.127-1.257-.794-.25-.167-.048-.4.073-.725.273-.73.187-1.474.129-2.256-.028-.369-.091-.524-.133-.586l-.572-.742c-.28-.765-.708-.368-1.08-.812-.347-.415-.107-.79-1.516-1.84-.242-.183-.324-.227-.574-.17l-.385.202c-.097.103-.021.041-.064.092l-.854 1.033c-.172.18-.19.241-.377.38-.3.22-.512.35-.68.683l-3.677 3.857a.327.327 0 0 0-.071.113l-2.39 2.531zm22.23 4.051c-.915-.763-1.921-1.76-2.791-2.597-.627-.605-.218-.91-.866-1.118l-.793-.155a6.745 6.745 0 0 1-.294-.059l-.626.656c.018.09.066.227.089.38l.043.462c.076.406 3.097 3.193 3.67 3.648.02.016.045.067.079.056.036-.013.052.035.078.051.382-.15.36-.229.66-.555.343-.375.47-.5.752-.769zm4.668 6.055c.127-.243.33-.609.325-.887-.006-.255-.05-.293-.121-.577-.17-.675-.255-.612-1.193-1.456-1.115-1-.528-.114-1.34-.886-2.641-2.513-1.392-1.348-2.896-.544.52.663.184.374.457.881l1.853 1.802c.4.37 1.52 1.497 1.84 1.65.256.122.883.061 1.075.017zM26.557 4.894c2.319 2.176 2.19 2.424 3.179 1.248.05-.062.114-.154.192-.244.172-.199.139-.195.405-.253-.002-.1-.03-.213-.034-.319l.008-.357-3.255-3.06c-1.515.182-.4.09-1.005.383-.553.267-.131-.126-.603.261-.292.24-.083.12-.155.392-.048.182-.125.15-.08.311l.369.727c.267.29.666.62.979.911zM191.495 157.12c.005.021.034.063.039.084l-.034.515c.232.047.826.692 1.175 1.017.264.243.437.516.979.256l.589-.587-.006-.33c0-.435-.074-.267-.787-.948-.845-.808-.475-.695-1.505-.737-.293.314-.49.416-.463.687 0 .007.012.036.013.043zM45.343 16.426c-.186-.148-1.177-1.23-1.843-.432.126.242.19.064.188.62-.004.462.092.297.353.542l1.007.992.595-.099c.092-.032.047.024.212-.102.338-.257.143-.276.29-.786l-.802-.735zm2.864 2.755c-.908-.972-.81-.945-1.387-.863-.322.043-.11-.025-.24.076l-.252.475c.507.471 2.256 2.017 2.272 2.136.13-.009.442-.12.503-.285.284-.777-.673-1.3-.896-1.539zm148.508 141.132c-.053-.34-.192-.278-.508-.46-.928-.533.308-.106-1.227-1.025-.198.211-.68.587-.68.867l.012.392c.088.521 1.233 1.521 1.762 1.566.042.004-.026.365.872-.76l-.231-.58zm-9.743-6.443c.048-.36.08-.384.384-.7.244-.256.448-.458.793-.836.002 0 .846.07.824-.443-.012-.275-.6-.683-.84-.916-.331.023-.201.092-.492-.05l-.506-.176c-.19-.047-.381-.089-.56-.17l-.157-.102c-.193-.104-.07-.04-.121-.05-.348-.066-.622-.063-1.125-.312-.104-.053-.285-.225-.66-.182-.243.028-.152.003-.301.102-.227.153-.206.193-.174.537l.078.324c.226 1.202.566.456.17 1.478l-.028.127c.023.5.006-.01.163.366l.13.698c.06.254.063.2.192.42.726.008.293-.038 1.044.466l1.168-.368c.005-.052-.004-.045.018-.213zm.593.708c.209.338.506.498.748.586.662.24-.011-.336.765.041-.02-.48.294-.528.45-.625.334-.21-.147-.038.56-.583l.13-.157c.416-.622.43-.273.564-.575.034-.072.066-.237.087-.323.028-.039.018-.064.03-.098l-.745-.7c-.031.001-.07.011-.087.014l-.422.077c-.393.065-.058-.23-.565.297-.412.428-.431.392-.452.677-.028.427-.158.382-.8 1.046-.25.257-.15.023-.263.323zM38.487 13.573c.319-.589 2.535-2.528 2.593-2.92.067-.438-.353-.23-.996-.686-.146-.105-.816-.397-1.2-.342l-.791-.389c-.29.03-.41.021-.696-.35-.504.125-.104.18-.635.088l-.692-.1c.292.525-.02.022-.08.545-.041.35.148.152.237.751.027.183-.197.145.378.583-.643.618-.44.505.033 1.152-.391.375-.3.336-.416.948 1.144.987.639.507 1.167.545l.295.03c.122.012.25.01.37.037.057.011.11.036.165.051.15.042.137.043.268.057zm17.37 15.004c.483-.915.052-.615-.046-1.632-.043-.425-.336-.375-.441-.729-.06-.204-.006-.104-.056-.389-.025-.108-.04-.216-.082-.319l-.537-1.203c-.017-.052-.044-.11-.058-.162l-.005-.438-.761-.653-1.912 1.834c-.982 1.003.249 1.358.087 2.167-.038.19-.051.14-.12.272l.584.54.783-.035c.067.013.336.16.463.21.457.19.132-.069.655.05.038.01.097.048.244.077.224.045.289-.002.476.016.482.048.288.284.727.394zM198.3 164.467c.697 1.2.85.663 1.97-.517.527-.554.69-.202.956-.757l.043-.6c-.021-.273.088-.46.004-.295-.865-.929-1.118-.305-1.816.43-.97 1.025-.655.525-.967 1.267-.098.233-.161.297-.19.472zm3.964-.178c.083-.19.063-.26.066-.474-.013-.065.088.015-.064-.144-.494-.519-1.461 1.084-1.48 1.096-.733.483-.92.807-1.627 1.56.015.277.04.58-.001.848.47.418.459.538 1.047.706l.656.11c1.108-.029.942-.189 1.369.221-.055-.293-.053-.058.073-.323.095.072.322.27.352.29.18.12.046.08.315.087.743.021-.107-.063.618.274l.212-.697c-.005-.023-.02-.054-.027-.077l-.413-1.03c-.084-.207.024.048-.067-.272l-.46-1.199c-.202-.302-.074-.018-.171-.265-.03-.072-.031-.166-.036-.242-.047-.165-.182-.262-.362-.469zM40.845 14.247c.542-.452 1.019-1.035 1.36-1.384.75-.77.925-.834.003-1.56-.096.167-.645.691-.818.855-.127.122-.284.373-.447.47-.304.181-.27 0-.664.167-.174.387.028.354-.088.648-.122.31-.126-.04-.354.385.599.575-.043.061 1.008.42zm9.93 9.288l.44.658 2.438-2.593-.31-.278c-.57-.523-.404-.163-.511-.085-.491.356.084-.55-1.068.665-.686.724-1.001.795-.988 1.545 0 .026-.002.061 0 .088zm-5.382-8.469c.12.356.075.381.367.675.702.707.869 1.071 1.166.955l.783.74c.045.041.093.08.144.115a3.08 3.08 0 0 1-.02.305l.487-.019.145.373c.1.203.026.083.173.245.978 1.08 1.303.6 1.458 1.166.234.842.416.17.354.794-.024.25-.252-.014-.09.497-.214.232-.57.59-.592.648l-.15.72c.309-.006.118.228.742-.47l.758-.54c.482-.269.488-.746.867-1.182.16-.184.186-.184.289-.349.603.081 2.323 1.371 2.628 2.086.176.413.23.65.067 1.05.826.761.027.251.594.974l.489 1.001c.01.022.016.056.025.08.038.084.066.132.116.206.234.348.09-.134.19.336l.236.868c.052.987.32 1.061.603 1.901.067.2.092.412.117.62l.026.063c.227.478.403.904.944 1.16-.15.694.363.747.724 1.263.218.312.035.39.435.765.295.277 1 .751 1.175 1.128.005.01.009.04.012.048l.19.423c.427.567 1.89 1.574 2.039 2.102l.24.607c.22.673.07.567.345.588l.185.4c.058.212.173.4.329.546v.001c.208.197.386.393.669.494.362.436.879.371 1.144.926l.023.061c.154.33.419.511.675.758.287.276.688.51.565 1.04.806.79.712 1.064 1.195 1.53.19.182.397.365.59.546.61.572.625.61.976 1.202.232.391.56.433.703.793.006.018.01.053.018.071.176.516.496.748.905 1.132 1.563 1.465.804.968 1.356 1.691.124.162.227.145.365.318.476.596-.664-.216 1.418 1.684.285.26-.016.358.274.672.482.523 1.239 1.16 1.669 1.552.556.506.119.55 1.318 1.593.295.257.289.562.395.944l.222.552c.105.114.212.186.346.314 1.612 1.56.927 1.233 1.577 1.828 2.068 1.888.396.801 2.39 2.653.864.804.176.475.709 1.062.318.352.97.814 1.236 1.167l.633 1.142c.323.734 4.917 4.84 5.832 5.7.598.565.42.581.777 1.034.627.795 1.087.622 1.27 1.002l.104.24c.108.177.194.251.35.401l3.895 3.664c.415.3.608.153.918.753.307.594 4.899 4.771 5.925 5.727.509.474.498.156.896.534.447.421.057.106.192.373.194.378.27.337.63.46 1.096.368.875.051 1.643.292.515.16.768-.012 1.225.116l.08.027c.442.12.36-.01.727.103.459.142.296.213 1.112.315.027.004.409.011.415.011.523.044.429.31 1.057.35l.335.057c.156.07.264.196.414.273.415.215 1.313.412 1.54.635l1.34 1.023c.06-.036.02-.379.617.134l.602.67.57-.053c.768.715 1.06 1.123 1.339 1.148l.65.613-.075.08c.097.09.452.45.453.451l.05.34c.06.317.045.218.339.48.123.108.178.162.314.292.222.21 1.343 1.216 1.427 1.364.197.351.014.23.117.481l.568.812c.069.104.032.04.113.122.179.18.174.563.507.95.19.416.385.835.572 1.254l.678 1.891c.256.633.639 1.024.589 1.757l-.045.34-.001.103.134 1.063c.099.355.065.967.195 1.034.026.313-.083-.027.094.284l6.154 5.852c-.02.994.266.294.907.845l2.484 2.353c.246.243.555.47.622.567.375.543-.152.033.212.69.626.287.16-.174.735.231.822.576 1.092 1.056 1.795 1.683.65.58 1.533 1.48 2.572 2.44.14.336-.11.423.327.838.272.261.462.225.788.2l-.125.337c.064.068.125.134.184.2a.59.59 0 0 0 .24.468l4.88 3.61c.506.466.91.838 1.538 1.137l2.377 1.758c.453.456.877.907 1.207 1.206.29.266.369.25.683.336l1.613 1.05c.457.514.924 1.053 1.447 1.19.62.164 1.09.864 1.592 1.35.107-.022.21-.045.319-.057l1.219 1.072c.135.13.472.442.606.561.106.094.152.133.239.243.283.356.082.063.166.278.422-.043.508-.12.85.224.3.304.483.332.68.404l.683.506c.833.753.777.64.905.67l.843.623c.125.11.25.21.365.27l1.338.99c.065.053.129.104.196.145l1.675 1.24c.162.188.255.272.37.272l3.002 2.22c.354.323.708.604 1.002.741l1.096.811c.027.031.05.058.073.08l.014-.015 1.102.814.02.253c.07-.037.124-.069.2-.088l2.513 1.858c.286.295.567.595.82.843l.142-.13.655.496 2.39 1.755c.147.11.328.14.493.1.089.08.206.173.392.241 1.156.427.25-.2 1.543.497.123.067.098.074.248.141l.68.262c.557.237.55.05 1.054.338.145.082.077.05.3.083 1.423.217.63.443 1.88.637l.644.276c.102.063.13.07.224.11.67.284.763.217 1.344.71.326.277.348.195.574.128.214.201 1.149.954 1.165 1.18l.13.872c-.404.467-1.892 1.81-2.075 2.262-.041.183-.08.36-.127.54 1.072.366 1.12-.976 1.878-1.109l.486.002c.292.101 1.94 1.705 2.184 1.987l.23.162 1.269 1.196a.722.722 0 0 0 .178.251c.365.357.594.498.869.74l.209.197c.11.11.23.244.37.415.339.413.089.23.229.531.13.28.17.251.35.47-.134.277.022-.033-.222.277-.157.202-.058.284-.312.568l-.692.391c.127.502-.143 1.011.688.814.405-.099.65-.31.806-.68.422-1 .7-.78 1.265-1.233.195-.155.362-.42.509-.483.13-.058.289.054.42-.058.289.27 1.893 1.626 1.896 1.88.006.49.323.415.488.98.007.022.097.257.098.26l.446 1.591c.427.582.388.172.179.994.242.2.244.162.423.443l.253.621c.094.438-.008-.05.015.166.07.653.53.687.502 1.458l-.042.492c.8 1.052 6.472 6.181 7.973 7.615.027.025.377.346.393.378.097.218-.15.445-.307.607l-3.038 3.222c-.268.305-.594.532-.767.918-.031.068-.046.15-.076.214-.174.385-.47.528-.815.716-.354.193.183-.136-.167.103-.385.26-1.126 1.093-1.322 1.503l-.09.27c-.224.541-.617.26-.936.64-.246.296-.524.582-.785.866-.24.234-.385.154-.601.221-.27.083-.138.115-.397.222-.648.27-.318-.176-1.048.111-.677.265-.1.156-.967.236-.353.033-.061.003-.393-.002l-1.022.233-1.68.972c-.99.54.173-.66-2.09 1.69-.444.46-.405.331-.52.798-.076.311-.46.52-.521.891l-.236 1.611c-.027.158-.174.254-.18.493l.098.77c-.016.347.029-.035-.121.298-.14.311.094.652-.08.956-.216.375.003-.11-.15.245l-.155.398c-.13.365-.006.48-.231.787-.366.497-.297.182-.558.82l-.41.54c-1.038 1.064-3.464 3.97-4.36 4.547-.031.441.233.084-.08.521l-1.642 1.784c-.901.74-1.51.011-2.33-.846-.195-.204.02-.03-.216-.235l-.567-.618c-.423-.323-1.11-.877-1.401-1.316-.28-.42.324.2-.185-.142l-.424-.446c-.04-.033-.05-.024-.086-.043l-.833-.664c.023-.148.006-.158-.004-.172l-1.483-1.234c.046-.294-.24-.31-.444-.48-.134-.11-.327-.338-.487-.409l-.232-.049c-.67-.084.036.058-.538-.257-.275-.15-.39-.096-.784-.545-.44.055-.253.113-.627-.048-.601-.26-.428.025-.895-.12-.012-.002-.131-.065-.248-.1-.075-.023-.154-.034-.234-.06l-.761-.145c-.023-.008-.09-.049-.116-.06l-.816-.44c-.027-.013-.057-.019-.085-.029l-1.3-.244c-.47-.455-.714-.359-.933-.459-1.617-.745-1.875-2.09-2.565-1.71l-.168-.986c.149-.164.497-.55.578-.6.403-.25.092.141.51-.245a.174.174 0 0 1-.042-.077c-.065-.903 1.837-.849.603-2.042-.78.895-.781 1.156-1.967 1.136-.02-.123-.058-.235-.092-.356-.137-.32-.232-.269-.532-.542-.757-.69-.177-.487-.786-.429l-.455-.43-.02-.03-.146-.254a.711.711 0 0 0-.296-.15l-1.021-.966a.163.163 0 0 0-.056-.1l-.166-.11-1.902-1.797c-.543-.755.394-.494.289-1.123-.045-.267-.112.04-.025-.286.164-.613.109-.362.055-.94l-.623-.008c-.7.74.34-.125-1.021 1.38.009.02.028.047.032.056l-.632.652c-.028.008-.058.022-.083.03-.205.058-.017.046-.237.046-.164 0-.124-.022-.234-.048-1.035-.243-.85-.989-1.133-1.199-.574-.429-.77-.02-1.188-.95-.083-.184-.043-.067-.11-.197-.14-.282-.01.037-.06-.33-.06-.426.072.027-.218-.366l-.427-1.228c-.114-.336-.081-.356-.35-.636-.231-.24-.232-.534-.387-.886-.062-.137-.128-.269-.194-.403-.108-.243-.041-.07-.088-.233-.013-.039-.034-.16-.052-.236l-.08-.532c-.07-.365-.226-.1-.496-.827l-.03-.468c-.003-.24-.142-.62-.27-.885a.6.6 0 0 0-.135-.316l-1.515-1.806c-.07-.098-.151-.189-.21-.265l-2.295-2.725c-.02-.175-.125-.263-.264-.314l-1.101-1.358c-.061-.209-.155-.32-.33-.374h-.022l-2.852-3.402c0-.292-.451-.62-.695-.828l-.834-.995a.948.948 0 0 1 .016-.248c-.08.04-.124.062-.165.071l-1.28-1.527a4.217 4.217 0 0 0-.505-.603l-4.635-5.55a3.649 3.649 0 0 0-.112-.11l-.351-.509c-.092-.466-.845-1.108-1.464-1.657l-.575-.684a.525.525 0 0 0-.206-.247l-1.337-1.595c-.341-.522-.417-.579-.666-.794l-1.485-1.77.007-.03-3.827-4.524c.002-.11-.003-.223.005-.358l-1.553-1.4c-.404-.439.006-.374-1.091-1.283l-1.843-1.739c-.021-.019-.048-.038-.07-.056l-6.58-6.203c-.408-.379-.94-.755-1.116-1.295-.124-.38-.33-.397-.753-.616-.962-.495-1.855-2.105-2.804-2.319l-6.027.002c-.055.005-.104.01-.158.02-.43.083-.523.31-1.023.165-.087-.03-.17-.06-.254-.095-.055-.023-.338-.155-.347-.157l-.16-.049c-.051-.01-.092 0-.14-.004l-.79.013c-.488.101.116.113-.211.033-.018-.004-.14-.1-.167-.124l-.84-.806c-.11-.106-.046-.084-.198-.172-.4-.23-.558-.164-.883-.438-.023-.02-.148-.136-.251-.174-.338-.126-.131.087-.523-.12-.205-.108.02.052-.181-.153-.29-.295-.774-.87-1.16-1.114-.24-.15-.134-.085-.303-.114-.228.2-.164.232-.177.521l-.33.01c-.018-.002-.054.004-.076 0l-.448-.305.606-.827c.155-.537-1.621-1.968-2.346-2.628-.44-.4-1.54-1.893-2.214-1.567-.855.411-.415.927-.944 1.148.29.423.27.703-.114 1.09-1.988 1.99-1.522 2.075-2.363 1.26l-.555-.502c.33-.173 1.965-1.578 2.004-1.98l-.04-.175c.566-.61 1.339-.82 1.524-1.414-.26-.212-.09-.1-.344-.203l-.236-.06c-.251-.026-.17-.03-.353.156-.96.97.05.326-.953 1.351-.38.39-.578.292-.916.63-.125.124-.141.151-.241.26-.411.44-.09.437-.484.831-.33.327-.457.172-.886.215-.035-.61-.358-.706-.21-1.063l.2-.39c.118-.119.09-.076.187-.117.277-.119-.043.051.21-.05.324-.129-.068.098.134-.085.413-.373.507-.74.915-1.152.272-.272.393-.03 1.196-.475.682-.377.766-1.04.7-1.708-.193.01-.148.018-.365-.02-.164-.04-.31-.078-.451-.086a1.187 1.187 0 0 0-.98-.867l.06-.27-.768-.59c-.528.191-.915.77-1.24 1.214.158.381.269.551.25.72l-1.356 1.435a1.169 1.169 0 0 0-.243.384l-.09.096a.795.795 0 0 1-.258.102l-.723-.066c-.233-.032-.362.108-.458-.226-.045-.158.034-.336.065-.446-.547-.197-.445-.464-.784-.568-.163-.05-.532-.096-.767-.303.049-.48-.038-.682.038-1.128.384-.23.334-.214.783-.135.027-.29.219-.523.424-.725 1.362-1.338.658-.67 1.412-.862.874-.224 1.033-1.175 1.025-1.248-.043-.332-.43-.58-.763-.885-.73-.669-.944-.84-1.042-.87l-.423-.4c-.011-.088-.04-.144-.236-.347-.495-.516-.683-.768-1.073-.89l-1.938-1.83a1.166 1.166 0 0 0-.05-.119c-.392-.839-2.04-1.383-2.271-2.572l-.177-.01a2.557 2.557 0 0 0-.033-.119 1.202 1.202 0 0 0-.156-.605 1.186 1.186 0 0 0-.171-.429l.444-.117c-.207-.477-.456-.647-.525-1.163-.063-.48-.155-.818-.032-1.368.085-.388.302-.419.206-1.019l-.023-.112c-.028-.146-.042-.058-.038-.245l.034-.8c-.021-.19-.016-.067-.03-.229l-.008-.137c-.003-.25.006-.023.02-.234a4.03 4.03 0 0 0-.03-.76c-.008-.073-.018-.138-.02-.207-.017-1.058.114-.933.027-1.414l-.034-.149c-.16-1.216-.062-.698-1.073-1.67-.11-.106-.078-.076-.12-.278-.145-.716-.366-.644-.79-.72-.494-.09-1.126-.969-1.511-1.294l-.293-.315-1.535-1.384c-.857-.84-.805-.708-.753-1.193l-.502-.46c-.13.018-.06.074-.35-.03.064-.376.113-.206-.293-.6l-1.573-1.467c-.755-.716-1.288-1.235-2.046-1.935l-1.55-1.474c-.311-.272-.075-.092-.413-.17-.581-.135-.987-.732-1.433-1.095-.236-.192-.28-.312-.347-.51-.562.173-.606.103-.988-.313-.112-.122-.605-.6-.7-.68-.04-.033-1.67-1.05-2.145-1.734-.362-.517-.624-.248-1.106-.6-.623-.456-1.022-.959-1.657-1.562-.25-.236-.44-.445-.671-.495-.015-.003-.052-.004-.07-.007-.38-.063-.491-.296-.872-.599-.618-.493-.132-.092-.562-.268-.351-.144-1.84-1.64-2.298-2.123l-.553-.1c-1.445-1.496-1.326-.945-1.893-1.457-1.096-.987-.727-.3-1.512-1.048-.66-.629-2.548-2.7-3.32-2.88-1.016-.237-1.787-1.226-2.491-1.89-.563-.532-.47-.706-.934-.45l-2.496-2.367c-.14-.056-.28.055-.436.148-.007-.64-.122-.533-.546-1.149-.45.068-.43.12-.748-.095l-.422-.399c-.154-.145-.302-.207-.488-.294-.04-.183-.085-.344-.25-.465-.351-.258-.553-.196-.956-.68a1.159 1.159 0 0 0-.26-.246l-.145-.053c-.346-.083-.217.171-.586-.189-1.137-1.105-.838-.243-1.506-.9-.37-.364-2.038-2.014-2.35-2.132l-1.173-.505c-.777-.683-.892-.82-1.762-1.05-.934-.25-.89-.055-1.151-.253l-1.743-.485c-.076-.013-.266-.209-.353-.253-.465-.237.073.197-.532-.159l-2.017-.715c-.745-.48-.262-.08-.938-.394-.34-.157-.204.008-.632-.366-.615-.536-1.842-1.286-1.095-2.054.578-.594.137-.519.457-.905.324-.389 1.116-.85 1.235-1.397-.302-.247-.103-.13-.328-.126-.021 0-.056.006-.076.01-.775.126-.493.891-1.42.783l-.248-.036c-.342-.099-1.028-.908-1.261-1.125-.617-.575-.783-.903-1.261-1.03l-1.023-.967c.013-.046.017-.05-.02-.242-.472-.233-.546-.464-.8-.534l-.314-.296c-.11-.24-.26-.364-.441-.537l.127-.128c-.316-.03-.806-.475-.944-1.074.143-.166.31-.323.417-.507.27-.469.586-.866.349-1.493-.397-.097-.542.088-.955.104.05.258.034.206.174.435-.675.277-.093.06-.53.49l-.476.291-.05.002c-.421.046.017-.342-.517.271.032.106.267.067-.025.67-.46-.33-.655.066-1.125-.042-.646-.147-1.08-.559-1.08-1.17A4.497 4.497 0 0 1 9.77 42.11l-.595-1.673c-.013-.032-.027-.086-.108-.213-.053-.082-.118-.134-.163-.214l-.37-.83c0-.012.035-.398.026-.48-.034-.375-.431-.98-.775-1.104.37-.168.118-.027.139-.32.03-.402-.125.08.044-.452-.467-.465-.563-1-1.146-1.396-.587-.4-.343-.772-.887-1.247-.205-.178-.64-.029-1.258-.91l-1.29-1.116c-.806-.769-.303-.7-1.042-1.402-1.087-1.03-1.401-.919-1.463-.977C.667 29.57.48 28.38 0 28.342c.323-.417.434-.489.725-.792.332-.348.229-.4.455-.676l1.66-1.57c1.1-1.156.374-.898.993-1.297.239-.155.186.005.484-.25.438-.376.128-.44.679-1.05.696-.77.926-.683 1.278-1.024.09-.09.268-.295.414-.449 1.345-1.423 1.067-.826 1.48-1.23.552-.542.426-.22.937-.499l.479-.307c.438-.22.544-.223 1.036-.258.296-.023.177-.073.478-.172.028-.009.49-.07.557-.075.199-.016.304-.006.49-.022.485-.04.514-.207.999-.132l1.363-1.019c.474-.307.492-.804 1.193-1.17.623-.324.544-.613.89-1.11l.314-.402c.014-.025.023-.053.037-.077l.687-2.659c-.092-1.853.124-1.273.194-2.005.04-.434.103-.728.398-1.069.306-.354.019-.333 1.343-1.734l7.052-7.22c.634.235 2.99 2.696 3.522 3.2 1.319 1.245 2.633 2.51 3.965 3.74.387.03.203-.04.522.074.76.275.988.578 1.767.685l1.402.498c1.79.353.99.465 2.979.928.257.061.503-.02.744-.144l2.646 2.517c-.02.104-.066.29-.057.385l.025.16c.073.43-.034.491-.346.723l-.266.312c.01-.013-.035.038-.057.051-.558.184-.23-.242-.576.12-.447.465-.17.622-.438 1.015-.011.016-.038.04-.05.055-.52.658-.32 1.453.415.811.138-.122.184-.196.28-.3.23-.252.479-.505.704-.755l.847.56c.377.38.305.298.75.357z" mask="url(#b)"/>
        </g>
        <path fill="#F48264" d="M106.86 105.908l.85-.878c-.1-.082-.164-.17-.28-.194-.55-.116.516-.227-.292.06-.96.345-.53.05-1.54-.03-.137-.011-.276.016-.413.029a.872.872 0 0 0-.117.049c-.268.143-.265.233.018.592.096.123.395.39.542.554.798-.205-.017.26.662-.128.257-.148.1-.14.366-.14.535 0 .035.055.203.086zm.463.727c-.474-.122-.356-.05-.88-.023-.282.016-.862.086-1.099-.041-.194-.104-.425-.538-.927-.532-.205 0-.335.117-.439.289l-.066.472c.274.13.422.016.437.018l.398.179c.491.154-.034-.15 1.093.358l.991.03c.193-.06.138-.116.308-.205.296-.156.151.058.59-.356.012.034-.268-.08.06.09.568.292 1.17-.86 1.113-.96-.129-.23.196-.12-.209-.021-.075.02-.168.069-.238.1-.855.363-.567-.056-1.132.602zm-3.494-2.723c.525.487.463.592.96.04-.062-.052-.114-.334-.13-.416l-.116-1.122c-.046.004-.272-.194-.614.345-.156.245-.119.413-.108.713l.008.44zm-.36-2.94c-.026.013-.044.016-.075.045-.03.032-.056.037-.072.05l-.398.38c-.206.226-.21.17-.138.458l-.455.507c.017.076.054.162.08.29.173.882-.204.51.193 1.653.208.599.286.475.831 1.074.123-.365.178-.29-.003-.571-.108-.171-.157-.17-.23-.271-.279-.38-.26-1.29-.206-1.741.044-.371.14-.327.291-.665l.181-1.21zm3.554 2.038l-.49-.471c-.034.007-.058.006-.217.05l-.668.445c-.553.607-.26 1.203.32 1.239.971.059 1.007-.782 1.055-1.263zm-1.065-2.363c-.487.482-.758.63-.774 1.08.435-.056.24.036.646.12l.156.023c.061.005.127-.015.185-.016.21 0-.264-.03.161.012.345.034.13.19.49-.064.932-.665-.492-.986-.864-1.155zm2.813 2.285c.02-.398-.076.13-.59-.984l-.482.05c-.297.469-.012.214.052 1.114.014.203.006.208.113.375.401.628-.212.274-.098.897.038.207-.073.024.143.243.465-.13.644-.393.657-.817.002-.07.04-.804.205-.878zm-2.666-2.461l.481-.535c.408.368.283.222.617.368.225.098.42.27.674.44l.293-.854c-.847-.625-.442.03-1.47-.296-.317-.101-.634-.202-.95-.144-.219.04-.086.05-.239.08-.133.028-.256-.001-.384.017-.74.09-1.348.996-1.395 1.16l1.111-.09c.25-.241.176-.27.616-.35.247-.043.372.024.646.204zm2.975 4.602c-.116.394.054.272.303.58.955-.941.075-.103.498-1.211l.052-.147c.235-.638.39.077.223-1.006-.006-.032-.017-.125-.022-.154-.058-.29.005-.003-.053-.183-.21-.647-.073-.983-.136-1.257-.054-.227.002-.068-.132-.225-.018-.024-.086-.087-.109-.112-.44-.456-.24-.262-.653-.403-.088.087-.196.13-.212.365 0 .022.005.056.007.076.028.356.373.918.556 1.215l.17.38c.1.434-.067.375-.222 1.27-.004.022-.003.056-.01.08l-.22.41c-.138.322-.162.006-.04.322zm2.293-2.125c-.584.612-.234.26-.19.79l-.028.319c-.072 1.147.047.59-.402 1.528-.125.26-.213.343-.41.6a.803.803 0 0 1 .005.037c.003.08.001.184.014.26l.018.13-.7.742c-.13-.025-.265.108-1.116.542-.348.179-.676.386-1.12.45l-2.496-.127c-.275-.105.243.206-.25-.107-.48-.301-.5-.555-1.04-.683l-.504-.177-.02.019c-.092-.088-.189-.188-.29-.265l-.227-.171a1.42 1.42 0 0 0-.359-.512c.012-.12.023-.268.038-.46l-.609-.716a1.727 1.727 0 0 1-.06-.158l-.057-.651c.004-.025.017-.057.02-.08l-.019-.476c-.337-.69-.279-.05-.306-.954-.007-.233.097-.197.203-.661l.133-.535c.142-.286.081.025.208-.357s-.032-.164.116-.452c.153-.298.234-.18.451-.491l.073-.133c.063-.132.021-.274-.069-.415.115-.121.213-.222.294-.376l.051.05c1.134-.225.362-.261 1.07-.44.491-.123-.05.26.468-.171.422-.35-.282-.346 1.63-.36.315-.001.673-.028.954-.033.427-.008.42.287 1.145.436.023.005.056.008.081.013l1.357.494.01-.022.471.443c-.2.356.308.148.511.747.14.414-.008.292.275.677.361.492.132.762.381 1.3.014.033.061.13.082.162.08.125-.028.047.213.244zM105.353 125.181c-.013.023-.013.045-.04.071-.025.024-.034.053-.046.06-.396.24-.129-.015-.559.174l-.183-.457.431-.406c.001.003.244.264.264.293.2.291.093.156.133.265M130.084 130.264l-.413-.424c-.05-.11-.327-1.3.004-1.868l.266-.823h.14c.177-.207.37-.359.64-.435l.017-.036-.097.003c.384-.407.684-.755 1.31-.8.176-.013.243.002.279.017.032 0 .063 0 .095.002.034-.016.087-.045.179-.097.338-.186-.128-.314.455-.077.63.257.78.065 1.013.436.167.054.32.144.45.266l1.139 1.076c.07.067.13.141.182.22l4.66 4.397c.517.302 1.843 1.7 2.367 2.193.129.123.225.27.288.425.03.046.059.094.085.143.54.005.38.21.605 1.163.006.026.016.06.02.084l-.063 1.41c-.366.963-1.22-.206-1.057 1.155-.624.707-.336.365-1.024.682-.436.201-1.172.163-1.673-.026-.297-.113-.3-.058-.494-.208-.21-.162-.281-.297-.284-.408a1.197 1.197 0 0 1-.36-.233l-.35-.33c-.435-.018-.7-.128-.867-.447-.086-.162-.006-.23-.39-.596-.337-.322-1.02-1.054-1.342-1.193-.027-.012-.057-.015-.086-.025-.895-.346-4-3.652-4.888-4.47l.022-.044a1.192 1.192 0 0 1-.363-.82l.012.367c-.227-.214-.387-.36-.477-.679zm-.953-4.11c-.004.1-.03.214-.086.353-.147.37-.137.288-.051.693l-.658 1.407c0 .01.01.04.012.05.157 1.078.158.138.279 1.021l.02.424c.258.33.49.45.542.661l.094.862.916.866.156-.052c.235.347.966.997 1.474 1.454.097.041.188.095.269.157.322.122.597.44.848.676.373.121 1.254 1.084 1.577 1.39.545.515 2.054 1.616 2.522 2.483l1.31 1.237c.114-.038.239-.079.4-.153.105.152.316.407.598.506.52.185-.57-.119.284.03.125.022.04-.003.182.082.503.298 1.63.121 2.275.104.698-.018.796-.76 1.462-.668l.387-.41c.09-.097.192-.173.3-.232l-.01-.01c.068-.489-.128-.222.182-.75.214-.362.429-.602.39-1.046l-.007-.783c.02-.295.01-.087-.11-.406-.11-.288-.084-.13-.08-.324l.064-.269a1.384 1.384 0 0 0-.068-.22c-.107-.205-.104-.127-.212-.39l-.46-.825.047-.046a1.12 1.12 0 0 1-.14-.229l-.37-.35a1.178 1.178 0 0 1-.328-.548l-.004-.01c-.231-.026-.474-.178-.76-.454l-5.352-5.063c-.467-.454-.55-.242-.99-.628.009-.058.02-.12.024-.179l-1.461-1.38-.18-.1c-.725-.432-.014-.238-.765-.215-.086-.002-.19.001-.273-.016-.426-.086-.75-.257-1.217-.209-.02.002-.054.005-.076.01l-.566.232c-.416.12-.541.22-.865.53-.353-.087-.26-.213-.631-.102-.215.066-.2.182-.383.3l-.511.538z"/>
    </g>
</svg>
