<svg xmlns="http://www.w3.org/2000/svg" width="578" height="366" viewBox="0 0 578 366">
    <defs>
        <linearGradient id="a" x1="49.993%" x2="49.993%" y1="-.011%" y2="99.994%">
            <stop offset="0%" stop-color="#E6E6E6"/>
            <stop offset="55.21%" stop-color="#C3C3C1"/>
            <stop offset="100%" stop-color="#ABAAA7"/>
        </linearGradient>
        <linearGradient id="b" x1="49.998%" x2="49.998%" y1="-31.593%" y2="160.462%">
            <stop offset="0%" stop-color="#E6E6E6"/>
            <stop offset="55.21%" stop-color="#C3C3C1"/>
            <stop offset="100%" stop-color="#ABAAA7"/>
        </linearGradient>
    </defs>
    <g fill="none" fill-rule="evenodd">
        <path fill="#1F2D3D" fill-rule="nonzero" d="M545.8 276.6h22.8V304h-22.8z"/>
        <path fill="#000" fill-rule="nonzero" d="M420.4 281.1h139.1v16H420.4z"/>
        <path fill="#000" fill-rule="nonzero" d="M534.4 283.4h4.6v31.9h-4.6z"/>
        <path fill="#65605E" fill-rule="nonzero" d="M523 283.4h16v9.1h-16z"/>
        <g fill-rule="nonzero">
            <path fill="#494C55" d="M577.7 299.4c0 2.5-2 4.6-4.6 4.6h-16c-2.5 0-4.6-2-4.6-4.6l11.4-20.5v-4.6h9.1c2.5 0 4.6 2 4.6 4.6v20.5h.1z"/>
            <path fill="#65605E" d="M550.4 276.6h22.8V304h-22.8z"/>
            <path fill="#837F7D" d="M550.4 278.8h22.8v2.3h-22.8zM570.9 281.1h2.3v18.2h-2.3z"/>
            <path fill="#989495" d="M550.3 281.1h2.3v18.2h-2.3z"/>
            <path fill="#1F2D3D" d="M545.8 288h22.8v4.6h-22.8z"/>
            <path fill="#000" d="M545.8 288h22.8v2.3h-22.8z"/>
            <path fill="#837F7D" d="M550.4 285.7h16v2.3h-16z"/>
            <path fill="#1F2D3D" d="M566.3 283.4h2.3v16h-2.3z"/>
            <path fill="#000" d="M470.5 283.4h38.8v13.7h-38.8z"/>
            <path fill="#000" d="M.2 274.3h520.5v16H.2z"/>
            <path fill="#000" d="M53.3 288h182.4v13.7H53.3zM411.3 301.6L367.9 345h-63.8l-41-41.1v-20.5h148.2z"/>
            <path fill="#616264" d="M292.7 322.2c0 23.9-19.4 43.3-43.3 43.3s-43.3-19.4-43.3-43.3 19.4-43.3 43.3-43.3c23.9-.1 43.3 19.3 43.3 43.3"/>
            <path fill="#717374" d="M288.1 322.2c0 21.4-17.4 38.8-38.8 38.8s-38.8-17.4-38.8-38.8 17.4-38.8 38.8-38.8c21.5 0 38.8 17.3 38.8 38.8"/>
            <path fill="#000" d="M283.6 322.2c0 18.9-15.3 34.2-34.2 34.2-18.9 0-34.2-15.3-34.2-34.2 0-18.9 15.3-34.2 34.2-34.2 18.9 0 34.2 15.3 34.2 34.2"/>
            <path fill="#535967" d="M272.2 308.5h-25.1c-6.8 0-4.6 16-4.6 16s-13.7 0-13.7-13.7c0-9.1 9.1-11.4 13.7-11.4h29.6v9.1h.1zM331.5 303.9h4.6v22.8h-4.6zM331.5 333.6h9.1v6.8h-9.1z"/>
            <path fill="#717374" d="M304.1 324.4h22.8v2.3h-22.8z"/>
            <path fill="#1B243A" d="M304.1 322.2h22.8v2.3h-22.8z"/>
            <path fill="#717374" d="M304.1 317.6h22.8v2.3h-22.8z"/>
            <path fill="#909393" d="M313.2 324.4h9.1v2.3h-9.1z"/>
            <path fill="#535967" d="M313.2 322.2h9.1v2.3h-9.1z"/>
            <path fill="#717374" d="M304.1 331.3h22.8v2.3h-22.8z"/>
            <path fill="#1B243A" d="M304.1 329h22.8v2.3h-22.8z"/>
            <path fill="#909393" d="M313.2 331.3h9.1v2.3h-9.1z"/>
            <path fill="#535967" d="M313.2 329h9.1v2.3h-9.1z"/>
            <path fill="#909393" d="M313.2 317.6h9.1v2.3h-9.1z"/>
            <path fill="#1B243A" d="M304.1 315.3h22.8v2.3h-22.8z"/>
            <path fill="#535967" d="M313.2 315.3h9.1v2.3h-9.1z"/>
            <path fill="#717374" d="M304.1 310.8h22.8v2.3h-22.8z"/>
            <path fill="#909393" d="M313.2 310.8h9.1v2.3h-9.1z"/>
            <path fill="#1B243A" d="M304.1 308.5h22.8v2.3h-22.8z"/>
            <path fill="#535967" d="M313.2 308.5h9.1v2.3h-9.1z"/>
            <path fill="#535967" d="M269.9 294.8H336v9.1h-25.1c-4.6 0-9.1 2.3-9.1 9.1v25.1c1.7 2.3 4.6 4.6 9.1 4.6H336v6.8h-29.6c-6.8 0-11.4-6.8-11.4-6.8L265.3 313c-11.4-11.4-9.1-18.2 4.6-18.2m4.6 16l13.7 13.7c2.3 2.3 6.8 4.6 6.8-4.6v-9.1c-.1-6.4-.7-6.8-6.8-6.8h-13.7c-2.3-.1-4.6 2.2 0 6.8"/>
            <path fill="#717374" d="M235.7 331.3c0 2.5 2 4.6 4.6 4.6h18.2c2.5 0 4.6-2 4.6-4.6V313c0-2.5-2-4.6-4.6-4.6h-18.2c-2.5 0-4.6 2-4.6 4.6v18.3z"/>
            <path fill="#000" d="M260.8 322.2c0 6.3-5.1 11.4-11.4 11.4-6.3 0-11.4-5.1-11.4-11.4 0-6.3 5.1-11.4 11.4-11.4 6.3 0 11.4 5.1 11.4 11.4"/>
            <path fill="#535967" d="M258.5 322.2c0 5-4.1 9.1-9.1 9.1s-9.1-4.1-9.1-9.1 4.1-9.1 9.1-9.1c5-.1 9.1 4 9.1 9.1"/>
            <path fill="#717374" d="M253.9 322.2c0 2.5-2 4.6-4.6 4.6-2.5 0-4.6-2-4.6-4.6 0-2.5 2-4.6 4.6-4.6 2.6 0 4.6 2 4.6 4.6"/>
            <path fill="#616264" d="M379.3 322.2c0 23.9 19.4 43.3 43.3 43.3s43.3-19.4 43.3-43.3-19.4-43.3-43.3-43.3c-23.9-.1-43.3 19.3-43.3 43.3"/>
            <path fill="#717374" d="M383.9 322.2c0 21.4 17.4 38.8 38.8 38.8s38.8-17.4 38.8-38.8-17.4-38.8-38.8-38.8-38.8 17.3-38.8 38.8"/>
            <path fill="#000" d="M388.5 322.2c0 18.9 15.3 34.2 34.2 34.2 18.9 0 34.2-15.3 34.2-34.2 0-18.9-15.3-34.2-34.2-34.2-18.9 0-34.2 15.3-34.2 34.2"/>
            <path fill="#535967" d="M399.9 308.5H425c6.8 0 4.6 16 4.6 16s13.7 0 13.7-13.7c0-9.1-9.1-11.4-13.7-11.4H400v9.1h-.1zM336 303.9h4.6v22.8H336z"/>
            <path fill="#717374" d="M345.1 324.4h22.8v2.3h-22.8z"/>
            <path fill="#1B243A" d="M345.1 322.2h22.8v2.3h-22.8z"/>
            <path fill="#717374" d="M345.1 317.6h22.8v2.3h-22.8z"/>
            <path fill="#909393" d="M349.7 324.4h9.1v2.3h-9.1z"/>
            <path fill="#535967" d="M349.7 322.2h9.1v2.3h-9.1z"/>
            <path fill="#717374" d="M345.1 331.3h22.8v2.3h-22.8z"/>
            <path fill="#1B243A" d="M345.1 329h22.8v2.3h-22.8z"/>
            <path fill="#909393" d="M349.7 331.3h9.1v2.3h-9.1z"/>
            <path fill="#535967" d="M349.7 329h9.1v2.3h-9.1z"/>
            <path fill="#909393" d="M349.7 317.6h9.1v2.3h-9.1z"/>
            <path fill="#1B243A" d="M345.1 315.3h22.8v2.3h-22.8z"/>
            <path fill="#535967" d="M349.7 315.3h9.1v2.3h-9.1z"/>
            <path fill="#717374" d="M345.1 310.8h22.8v2.3h-22.8z"/>
            <path fill="#909393" d="M349.7 310.8h9.1v2.3h-9.1z"/>
            <path fill="#1B243A" d="M345.1 308.5h22.8v2.3h-22.8z"/>
            <path fill="#535967" d="M349.7 308.5h9.1v2.3h-9.1z"/>
            <path fill="#535967" d="M406.7 313l-29.6 29.6s-4.6 6.8-11.4 6.8H336v-6.8h25.1c4.6 0 7.4-2.3 9.1-4.6v-25c0-6.8-4.6-9.1-9.1-9.1H336v-9.1h66.1c13.7 0 16 6.8 4.6 18.2m-9.1-9.1h-13.7c-6.1 0-6.8.4-6.8 6.8v9.1c0 9.1 4.6 6.8 6.8 4.6l13.7-13.7c4.5-4.5 2.3-6.8 0-6.8"/>
            <path fill="#535967" d="M304.1 295.9c0 1.9 1.5 3.4 3.4 3.4h59.3c1.9 0 3.4-1.5 3.4-3.4s-1.5-3.4-3.4-3.4h-59.3c-1.9 0-3.4 1.5-3.4 3.4"/>
            <path fill="#000" d="M310.9 298.2c0 .6.5 1.1 1.1 1.1h48c.6 0 1.1-.5 1.1-1.1 0-.6-.5-1.1-1.1-1.1h-47.9c-.7 0-1.2.5-1.2 1.1"/>
            <path fill="#535967" d="M345.1 285.7h25.1v2.3h-25.1zM301.8 285.7h25.1v2.3h-25.1z"/>
            <path fill="#717374" d="M409 331.3c0 2.5 2 4.6 4.6 4.6h18.2c2.5 0 4.6-2 4.6-4.6V313c0-2.5-2-4.6-4.6-4.6h-18.2c-2.5 0-4.6 2-4.6 4.6v18.3z"/>
            <path fill="#000" d="M411.3 322.2c0 6.3 5.1 11.4 11.4 11.4 6.3 0 11.4-5.1 11.4-11.4 0-6.3-5.1-11.4-11.4-11.4-6.3 0-11.4 5.1-11.4 11.4"/>
            <path fill="#535967" d="M413.5 322.2c0 5 4.1 9.1 9.1 9.1s9.1-4.1 9.1-9.1-4.1-9.1-9.1-9.1c-5-.1-9.1 4-9.1 9.1"/>
            <path fill="#717374" d="M418.1 322.2c0 2.5 2 4.6 4.6 4.6 2.5 0 4.6-2 4.6-4.6 0-2.5-2-4.6-4.6-4.6-2.6 0-4.6 2-4.6 4.6"/>
            <path fill="#000" d="M103.4 294.8h6.8V313h-6.8zM12.2 288h2.3v25.1h-2.3zM80.6 288h2.3v25.1h-2.3z"/>
            <path fill="#000" d="M7.7 308.5h109.4v2.3H7.7zM7.7 303.9h20.5v4.6H7.7zM10 288h6.8v11.4H10z"/>
            <path fill="#ACABA8" d="M.2.7H539v273.6H.2z"/>
        </g>
        <path fill="url(#a)" fill-rule="nonzero" d="M.2.7h536.5v273.6H.2z"/>
        <g fill-rule="nonzero">
            <path fill="#DADAD8" d="M.2.7H539v4.6H.2z"/>
            <path fill="#B0AFAA" d="M422.7 274.3V173.9S251.3 202.3.2 210.4v63.8h422.5v.1z"/>
            <path fill="#FFF" d="M.2 128.3h536.5v4.6H.2zM.2 98.7h536.5v4.6H.2zM.2 71.3h536.5v4.6H.2zM.2 187.6h536.5v4.6H.2z"/>
            <path fill="#6F6F72" d="M.2 192.2h536.5v2.3H.2z"/>
            <path fill="#FFF" d="M.2 219.6h536.5v4.6H.2z"/>
            <path fill="#6F6F72" d="M.2 224.1h536.5v2.3H.2z"/>
            <path fill="#FFF" d="M.2 253.8h536.5v4.6H.2z"/>
            <path fill="#6F6F72" d="M.2 258.3h536.5v2.3H.2z"/>
            <path fill="#FFF" d="M.2 158h536.5v4.6H.2z"/>
            <path fill="#6F6F72" d="M.2 162.6h536.5v2.3H.2zM.2 132.9h536.5v2.3H.2zM.2 103.3h536.5v2.3H.2zM.2 75.9h536.5v2.3H.2z"/>
            <path fill="#FFF" d="M.2 44h536.5v4.6H.2z"/>
            <path fill="#6F6F72" d="M.2 48.5h536.5v2.3H.2z"/>
            <path fill="#C9C9C7" d="M.2 50.8h536.5v2.3H.2z"/>
            <path fill="#6F6F72" d="M440.9 87.3h54.7c5 0 9.1 4.1 9.1 9.1v164.2c0 5-4.1 9.1-9.1 9.1h-54.7c-5 0-9.1-4.1-9.1-9.1V96.4c0-5 4.1-9.1 9.1-9.1zm-6.8 171.6c0 4.7 2 8.5 6.8 8.5h54.7c4.8 0 6.8-3.8 6.8-8.5V98.1c0-4.7-2-8.5-6.8-8.5h-54.7c-4.8 0-6.8 3.8-6.8 8.5v160.8z"/>
            <path fill="#FFF" d="M509.3 126.1h2.3v136.8h-2.3z"/>
            <path fill="#6F6F72" d="M511.6 126.1h2.3v136.8h-2.3z"/>
            <path fill="#FFF" d="M507 121.5h9.1v4.6H507zM507 258.3h9.1v4.6H507zM422.7 126.1h2.3v136.8h-2.3z"/>
            <path fill="#6F6F72" d="M424.9 126.1h2.3v136.8h-2.3z"/>
            <path fill="#FFF" d="M420.4 121.5h9.1v4.6h-9.1zM420.4 258.3h9.1v4.6h-9.1z"/>
            <path fill="#B1B2AF" d="M338.3 196.6c0 5.1 4.4 9.3 9.8 9.3H397c5.4 0 9.8-4.2 9.8-9.3v-100c0-5.1-4.4-9.3-9.8-9.3h-48.9c-5.4 0-9.8 4.2-9.8 9.3v100z"/>
        </g>
        <path fill="url(#b)" fill-rule="nonzero" d="M340.6 87.3h63.8v116.3h-63.8z"/>
        <path fill="#BABDBF" fill-rule="nonzero" d="M395.3 174h2.3v18.2h-2.3zM347.4 174h2.3v18.2h-2.3z"/>
        <path fill="#FFF" fill-rule="nonzero" d="M347.4 96.4h50.2v2.3h-50.2z"/>
        <path fill="#6F6F72" fill-rule="nonzero" d="M347.4 98.7h50.2v2.3h-50.2z"/>
        <path fill="#FFF" fill-rule="nonzero" d="M347.4 105.5h50.2v2.3h-50.2z"/>
        <path fill="#6F6F72" fill-rule="nonzero" d="M347.4 107.8h50.2v2.3h-50.2z"/>
        <path fill="#FFF" fill-rule="nonzero" d="M347.4 114.7h50.2v2.3h-50.2z"/>
        <path fill="#6F6F72" fill-rule="nonzero" d="M347.4 116.9h50.2v2.3h-50.2z"/>
        <path fill="#FFF" fill-rule="nonzero" d="M347.4 123.8h50.2v2.3h-50.2z"/>
        <path fill="#6F6F72" fill-rule="nonzero" d="M347.4 126.1h50.2v2.3h-50.2z"/>
        <path fill="#FFF" fill-rule="nonzero" d="M347.4 132.9h50.2v2.3h-50.2z"/>
        <path fill="#6F6F72" fill-rule="nonzero" d="M347.4 135.2h50.2v2.3h-50.2z"/>
        <path fill="#FFF" fill-rule="nonzero" d="M347.4 142h50.2v2.3h-50.2z"/>
        <path fill="#6F6F72" fill-rule="nonzero" d="M347.4 144.3h50.2v2.3h-50.2z"/>
        <path fill="#FFF" fill-rule="nonzero" d="M347.4 151.1h50.2v2.3h-50.2z"/>
        <path fill="#6F6F72" fill-rule="nonzero" d="M347.4 153.4h50.2v2.3h-50.2z"/>
        <path fill="#FFF" fill-rule="nonzero" d="M347.4 160.3h50.2v2.3h-50.2z"/>
        <path fill="#6F6F72" fill-rule="nonzero" d="M347.4 162.6h50.2v2.3h-50.2z"/>
        <path fill="#FFF" fill-rule="nonzero" d="M347.4 169.4h50.2v2.3h-50.2z"/>
        <path fill="#6F6F72" fill-rule="nonzero" d="M347.4 171.7h50.2v2.3h-50.2z"/>
        <path fill="#F3F3F3" fill-rule="nonzero" d="M.2 21.2h534.2v13.7H.2z"/>
        <path fill="#C9C9C7" fill-rule="nonzero" d="M80.6 16.6h82.1v9.1H80.6z"/>
        <path fill="#FFF" fill-rule="nonzero" d="M80.6 12.1h82.1v4.6H80.6z"/>
        <path fill="#5680A2" fill-rule="nonzero" d="M146.8 237.8h4.6v4.6h-4.6zM153.6 237.8h4.6v4.6h-4.6zM171.9 237.8h4.6v4.6h-4.6zM162.7 237.8h2.3v4.6h-2.3zM167.3 237.8h2.3v4.6h-2.3zM178.7 237.8h2.3v4.6h-2.3zM185.5 237.8h4.6v4.6h-4.6zM192.4 237.8h2.3v4.6h-2.3zM199.2 237.8h4.6v4.6h-4.6zM206.1 237.8h2.3v4.6h-2.3zM203.8 249.2h4.6v2.3h-4.6zM196.9 249.2h4.6v2.3h-4.6zM178.7 249.2h4.6v2.3h-4.6zM190.1 249.2h2.3v2.3h-2.3zM185.5 249.2h2.3v2.3h-2.3zM174.1 249.2h2.3v2.3h-2.3zM165 249.2h4.6v2.3H165zM160.5 249.2h2.3v2.3h-2.3zM146.8 231h20.5v2.3h-20.5z"/>
        <path fill="#5680A2" fill-rule="nonzero" d="M149.1 231h2.3v2.3h-2.3zM160.5 231h2.3v2.3h-2.3zM171.9 231h9.1v2.3h-9.1zM183.3 231h4.6v2.3h-4.6zM192.4 231h9.1v2.3h-9.1zM146.8 201.3h2.3V215h-2.3zM153.6 201.3h2.3V215h-2.3zM160.5 201.3h2.3V215h-2.3zM155.9 201.3h4.6v2.3h-4.6zM155.9 212.7h4.6v2.3h-4.6zM165.1 201.3h2.3V215h-2.3zM171.9 201.3h2.3V215h-2.3z"/>
        <path fill="#5680A2" fill-rule="nonzero" d="M167.4 201.3h4.6v2.3h-4.6zM167.4 212.7h4.6v2.3h-4.6z"/>
        <path fill="#FFF" fill-rule="nonzero" d="M6 9.4h2.4v2.4H6z"/>
        <path stroke="#F48266" stroke-linecap="round" stroke-linejoin="round" stroke-width="1.418" d="M6 9.4h2.4v2.4H6z"/>
        <path fill="#FFF" fill-rule="nonzero" d="M3.6 279.2H16v7.3H3.6z"/>
        <path stroke="#F48266" stroke-linecap="round" stroke-linejoin="round" stroke-width="1.418" d="M16 279.2H3.6v7.3m0-.1H16"/>
    </g>
</svg>
