<svg xmlns="http://www.w3.org/2000/svg" xmlns:xlink="http://www.w3.org/1999/xlink" width="1158" height="367" viewBox="0 0 1158 367">
    <defs>
        <path id="a" d="M0 367h1157.688V.76H0z"/>
    </defs>
    <g fill="none" fill-rule="evenodd">
        <path stroke="#F48266" stroke-linecap="round" stroke-linejoin="round" stroke-width="1.417" d="M342.728 301.684h182.409v-13.678H342.728z"/>
        <path stroke="#F48266" stroke-linecap="round" stroke-linejoin="round" stroke-width="1.417" d="M595.25 290.282H57.714v-15.959H595.25"/>
        <path stroke="#F48266" stroke-linecap="round" stroke-linejoin="round" stroke-width="1.417" d="M18.948 297.128h139.087v-15.961H18.948zM595.25 53.151H41.753v-2.28H595.25"/>
        <path stroke="#F48266" stroke-linecap="round" stroke-linejoin="round" stroke-width="1.417" d="M595.25 50.874H41.753v-2.28H595.25M595.25 48.593H41.753v-4.558H595.25M595.25 78.237H41.753v-2.281H595.25M595.25 105.594H41.753v-2.282H595.25M595.25 135.237H41.753v-2.281H595.25M595.25 164.88H41.753v-2.28H595.25M595.25 162.6H41.753v-4.558H595.25M595.25 260.645H41.753v-2.281H595.25M595.25 258.363H41.753v-4.558H595.25M595.25 226.444H41.753v-2.282H595.25M595.25 224.161H41.753v-4.556H595.25M595.25 194.519H41.753v-2.281H595.25"/>
        <path stroke="#F48266" stroke-linecap="round" stroke-linejoin="round" stroke-width="1.417" d="M595.25 192.242H41.753v-4.558H595.25M595.25 75.956H41.753v-4.557H595.25M595.25 103.317H41.753V98.76H595.25M595.25 132.955H41.753v-4.558H595.25"/>
        <g stroke="#F48266" stroke-linecap="round" stroke-linejoin="round" stroke-width="1.417">
            <path d="M595.25 5.272H39.47V.714h555.78"/>
            <path d="M595.25 274.323H39.47V.708h555.78"/>
        </g>
        <path stroke="#F48266" stroke-linecap="round" stroke-linejoin="round" stroke-width="1.417" d="M561.618 299.403h6.839v-11.402h-6.839zM550.217 308.524h20.522v-4.559h-20.522zM461.292 310.805h109.447v-2.281H461.292z"/>
        <path stroke="#F48266" stroke-linecap="round" stroke-linejoin="round" stroke-width="1.417" d="M495.492 313.087h2.281v-25.082h-2.281zM563.895 313.087h2.281v-25.082h-2.281zM468.136 313.087h6.839v-18.242h-6.839z"/>
        <path fill="#FFF" d="M167.157 301.686l37.363.247 1.404 42.848 72.27-.456 2.364-42.213 34.807 1.855v-20.522H167.157z"/>
        <path stroke="#F48266" stroke-linecap="round" stroke-linejoin="round" stroke-width="1.417" d="M167.157 301.686l37.363.247 1.404 42.848 72.27-.456 2.364-42.213 34.807 1.855v-20.522H167.157z"/>
        <g transform="translate(0 -.76)">
            <path stroke="#F48266" stroke-linecap="round" stroke-linejoin="round" stroke-width="1.417" d="M194.519 322.966c0 21.408-17.356 38.765-38.765 38.765-21.403 0-38.758-17.357-38.758-38.765 0-21.407 17.355-38.765 38.758-38.765 21.409 0 38.765 17.358 38.765 38.765z"/>
            <path fill="#FFF" d="M199.079 322.966c0 23.924-19.397 43.322-43.321 43.322-23.93 0-43.323-19.398-43.323-43.322 0-23.93 19.393-43.32 43.323-43.32 23.924 0 43.32 19.39 43.32 43.32"/>
            <path stroke="#F48266" stroke-linecap="round" stroke-linejoin="round" stroke-width="1.417" d="M199.079 322.966c0 23.924-19.397 43.322-43.321 43.322-23.93 0-43.323-19.398-43.323-43.322 0-23.93 19.393-43.32 43.323-43.32 23.924 0 43.32 19.39 43.32 43.32"/>
            <path fill="#FFF" d="M285.723 322.966c0 23.924 19.398 43.322 43.322 43.322 23.93 0 43.321-19.398 43.321-43.322 0-23.93-19.392-43.32-43.32-43.32-23.925 0-43.323 19.39-43.323 43.32"/>
            <path stroke="#F48266" stroke-linecap="round" stroke-linejoin="round" stroke-width="1.417" d="M285.723 322.966c0 23.924 19.398 43.322 43.322 43.322 23.93 0 43.321-19.398 43.321-43.322 0-23.93-19.392-43.32-43.32-43.32-23.925 0-43.323 19.39-43.323 43.32"/>
            <mask id="b" fill="#fff">
                <use xlink:href="#a"/>
            </mask>
            <path stroke="#F48266" stroke-linecap="round" stroke-linejoin="round" stroke-width="1.417" d="M69.108 297.888h38.764v-13.68H69.108zM9.827 300.163h2.281v-15.96H9.827zM12.109 288.766h15.96v-2.281h-15.96z" mask="url(#b)"/>
            <path stroke="#F48266" stroke-linecap="round" stroke-linejoin="round" stroke-width="1.417" d="M9.827 291.042h22.799v-2.281H9.827z" mask="url(#b)"/>
            <path stroke="#F48266" stroke-linecap="round" stroke-linejoin="round" stroke-width="1.417" d="M9.827 293.324h22.799v-4.558H9.827z" mask="url(#b)"/>
            <path stroke="#F48266" stroke-linecap="round" stroke-linejoin="round" stroke-width="1.417" d="M25.791 300.163h2.281v-18.241h-2.281zM5.269 300.163H7.55v-18.241H5.269z" mask="url(#b)"/>
            <path stroke="#F48266" stroke-linecap="round" stroke-linejoin="round" stroke-width="1.417" d="M5.269 281.926h22.799v-2.28H5.269z" mask="url(#b)"/>
            <path stroke="#F48266" stroke-linecap="round" stroke-linejoin="round" stroke-width="1.417" d="M5.269 304.725h22.799v-27.36H5.269zM39.47 293.324h15.96v-9.12H39.47z" mask="url(#b)"/>
            <path stroke="#F48266" stroke-linecap="round" stroke-linejoin="round" stroke-width="1.417" d="M9.827 304.725h22.799v-27.36H9.827zM178.558 309.287h-25.08c-6.84 0-4.564 15.959-4.564 15.959s-13.677 0-13.677-13.678c0-9.121 9.12-11.402 13.677-11.402h29.644v9.12z" mask="url(#b)"/>
            <path stroke="#F48266" stroke-linecap="round" stroke-linejoin="round" stroke-width="1.417" d="M189.96 322.966c0 18.888-15.314 34.201-34.202 34.201-18.892 0-34.2-15.313-34.2-34.2 0-18.893 15.308-34.2 34.2-34.2 18.888 0 34.202 15.307 34.202 34.2M306.245 309.287h25.08c6.84 0 4.563 15.959 4.563 15.959s13.678 0 13.678-13.678c0-9.121-9.12-11.402-13.678-11.402h-29.643v9.12z" mask="url(#b)"/>
            <path stroke="#F48266" stroke-linecap="round" stroke-linejoin="round" stroke-width="1.417" d="M294.844 322.966c0 18.888 15.314 34.201 34.202 34.201 18.892 0 34.2-15.313 34.2-34.2 0-18.893-15.308-34.2-34.2-34.2-18.888 0-34.202 15.307-34.202 34.2" mask="url(#b)"/>
            <path stroke="#F48266" stroke-linecap="round" stroke-linejoin="round" stroke-width="1.417" d="M290.284 322.966c0 21.408 17.356 38.765 38.764 38.765 21.404 0 38.76-17.357 38.76-38.765 0-21.407-17.356-38.765-38.76-38.765-21.409 0-38.764 17.358-38.764 38.765M208.201 288.766h25.08v-2.281h-25.08zM251.522 288.766h25.08v-2.281h-25.08zM267.483 299.026a1.14 1.14 0 0 1-1.14 1.14h-47.88a1.14 1.14 0 0 1-1.14-1.14c0-.63.509-1.141 1.14-1.141h47.88c.63 0 1.14.51 1.14 1.14" mask="url(#b)"/>
            <path stroke="#F48266" stroke-linecap="round" stroke-linejoin="round" stroke-width="1.417" d="M274.324 296.745a3.424 3.424 0 0 1-3.423 3.423h-59.28a3.42 3.42 0 0 1-3.419-3.423 3.421 3.421 0 0 1 3.418-3.423h59.28a3.426 3.426 0 0 1 3.424 3.423M219.602 311.565h9.12v-2.281h-9.12z" mask="url(#b)"/>
            <path stroke="#F48266" stroke-linecap="round" stroke-linejoin="round" stroke-width="1.417" d="M210.482 311.565h22.799v-2.281h-22.799zM219.602 313.847h9.12v-2.282h-9.12z" mask="url(#b)"/>
            <path stroke="#F48266" stroke-linecap="round" stroke-linejoin="round" stroke-width="1.417" d="M210.482 313.847h22.799v-2.282h-22.799zM219.602 318.404h9.12v-2.28h-9.12z" mask="url(#b)"/>
            <path stroke="#F48266" stroke-linecap="round" stroke-linejoin="round" stroke-width="1.417" d="M210.482 318.404h22.799v-2.28h-22.799zM219.602 320.687h9.12v-2.283h-9.12zM219.602 332.088h9.12v-2.28h-9.12zM219.602 334.37h9.12v-2.28h-9.12z" mask="url(#b)"/>
            <path stroke="#F48266" stroke-linecap="round" stroke-linejoin="round" stroke-width="1.417" d="M210.482 332.088h22.799v-2.28h-22.799zM210.482 334.37h22.799v-2.28h-22.799zM219.602 325.249h9.12v-2.281h-9.12z" mask="url(#b)"/>
            <path stroke="#F48266" stroke-linecap="round" stroke-linejoin="round" stroke-width="1.417" d="M219.602 327.526h9.12v-2.282h-9.12zM210.482 320.687h22.799v-2.283h-22.799z" mask="url(#b)"/>
            <path stroke="#F48266" stroke-linecap="round" stroke-linejoin="round" stroke-width="1.417" d="M210.482 325.249h22.799v-2.281h-22.799z" mask="url(#b)"/>
            <path stroke="#F48266" stroke-linecap="round" stroke-linejoin="round" stroke-width="1.417" d="M210.482 327.526h22.799v-2.282h-22.799zM237.843 327.526h4.558v-22.801h-4.558zM237.843 341.208h9.121v-6.839h-9.121zM242.406 327.526h4.558v-22.801h-4.558zM256.084 311.565h9.122v-2.281h-9.122z" mask="url(#b)"/>
            <path stroke="#F48266" stroke-linecap="round" stroke-linejoin="round" stroke-width="1.417" d="M251.522 311.565h22.799v-2.281h-22.799zM256.084 313.847h9.122v-2.282h-9.122z" mask="url(#b)"/>
            <path stroke="#F48266" stroke-linecap="round" stroke-linejoin="round" stroke-width="1.417" d="M251.522 313.847h22.799v-2.282h-22.799zM256.084 318.404h9.122v-2.28h-9.122z" mask="url(#b)"/>
            <path stroke="#F48266" stroke-linecap="round" stroke-linejoin="round" stroke-width="1.417" d="M251.522 318.404h22.799v-2.28h-22.799zM256.084 320.687h9.122v-2.283h-9.122zM256.084 332.088h9.122v-2.28h-9.122zM256.084 334.37h9.122v-2.28h-9.122z" mask="url(#b)"/>
            <path stroke="#F48266" stroke-linecap="round" stroke-linejoin="round" stroke-width="1.417" d="M251.522 332.088h22.799v-2.28h-22.799zM251.522 334.37h22.799v-2.28h-22.799zM256.084 325.249h9.122v-2.281h-9.122z" mask="url(#b)"/>
            <path stroke="#F48266" stroke-linecap="round" stroke-linejoin="round" stroke-width="1.417" d="M256.084 327.526h9.122v-2.282h-9.122zM251.522 320.687h22.799v-2.283h-22.799z" mask="url(#b)"/>
            <path stroke="#F48266" stroke-linecap="round" stroke-linejoin="round" stroke-width="1.417" d="M251.522 325.249h22.799v-2.281h-22.799z" mask="url(#b)"/>
            <path stroke="#F48266" stroke-linecap="round" stroke-linejoin="round" stroke-width="1.417" d="M251.522 327.526h22.799v-2.282h-22.799zM116.995 322.967c0 21.408 17.355 38.765 38.763 38.765 21.403 0 38.76-17.357 38.76-38.765s-17.357-38.765-38.76-38.765c-21.408 0-38.763 17.357-38.763 38.765" mask="url(#b)"/>
            <g mask="url(#b)">
                <path fill="#FFF" d="M308.522 295.607h-66.12v9.12h25.08c4.563 0 9.121 2.28 9.121 9.12v25.08c-1.709 2.282-4.558 4.559-9.12 4.559H242.4v6.845h29.644c6.84 0 11.397-6.845 11.397-6.845s18.241-18.241 29.643-29.638c11.402-11.402 9.12-18.241-4.563-18.241m-4.558 15.959l-13.679 13.679c-2.28 2.28-6.843 4.563-6.843-4.558 0-.74 0-8.345.01-9.121.073-6.422.73-6.84 6.833-6.84h13.68c2.28 0 4.557 2.282 0 6.84"/>
                <path stroke="#F48266" stroke-linecap="round" stroke-linejoin="round" stroke-width="1.417" d="M308.522 295.607h-66.12v9.12h25.08c4.563 0 9.121 2.28 9.121 9.12v25.08c-1.709 2.282-4.558 4.559-9.12 4.559H242.4v6.845h29.644c6.84 0 11.397-6.845 11.397-6.845s18.241-18.241 29.643-29.638c11.402-11.402 9.12-18.241-4.563-18.241m-4.558 15.959l-13.679 13.679c-2.28 2.28-6.843 4.563-6.843-4.558 0-.74 0-8.345.01-9.121.073-6.422.73-6.84 6.833-6.84h13.68c2.28 0 4.557 2.282 0 6.84"/>
            </g>
            <g mask="url(#b)">
                <path fill="#FFF" d="M171.717 313.846l29.644 29.644s4.558 6.838 11.397 6.838h29.643v-6.838h-25.08c-4.563 0-7.413-2.28-9.12-4.563v-25.08c0-6.84 4.557-9.122 9.12-9.122h25.08v-9.12h-66.12c-13.685 0-15.966 6.84-4.564 18.241m9.12-9.12h13.68c6.104 0 6.76.416 6.834 6.84.01.776.01 8.38.01 9.12 0 9.12-4.563 6.838-6.845 4.562-2.275-2.28-9.12-9.12-13.679-13.683-4.556-4.558-2.28-6.84 0-6.84"/>
                <path stroke="#F48266" stroke-linecap="round" stroke-linejoin="round" stroke-width="1.417" d="M171.717 313.846l29.644 29.644s4.558 6.838 11.397 6.838h29.643v-6.838h-25.08c-4.563 0-7.413-2.28-9.12-4.563v-25.08c0-6.84 4.557-9.122 9.12-9.122h25.08v-9.12h-66.12c-13.685 0-15.966 6.84-4.564 18.241m9.12-9.12h13.68c6.104 0 6.76.416 6.834 6.84.01.776.01 8.38.01 9.12 0 9.12-4.563 6.838-6.845 4.562-2.275-2.28-9.12-9.12-13.679-13.683-4.556-4.558-2.28-6.84 0-6.84"/>
            </g>
            <path fill="#FFF" d="M169.437 332.087a4.56 4.56 0 0 1-4.558 4.558h-18.24a4.56 4.56 0 0 1-4.563-4.558v-18.24a4.556 4.556 0 0 1 4.562-4.559h18.241a4.555 4.555 0 0 1 4.558 4.558v18.241z" mask="url(#b)"/>
            <path stroke="#F48266" stroke-linecap="round" stroke-linejoin="round" stroke-width="1.417" d="M169.437 332.087a4.56 4.56 0 0 1-4.558 4.558h-18.24a4.56 4.56 0 0 1-4.563-4.558v-18.24a4.556 4.556 0 0 1 4.562-4.559h18.241a4.555 4.555 0 0 1 4.558 4.558v18.241z" mask="url(#b)"/>
            <path stroke="#F48266" stroke-linecap="round" stroke-linejoin="round" stroke-width="1.417" d="M160.317 322.966a4.56 4.56 0 1 1-9.12 0 4.557 4.557 0 0 1 4.562-4.558 4.556 4.556 0 0 1 4.558 4.558" mask="url(#b)"/>
            <path stroke="#F48266" stroke-linecap="round" stroke-linejoin="round" stroke-width="1.417" d="M164.878 322.966a9.121 9.121 0 1 1-18.242-.002 9.121 9.121 0 0 1 18.242.002" mask="url(#b)"/>
            <path stroke="#F48266" stroke-linecap="round" stroke-linejoin="round" stroke-width="1.417" d="M167.157 322.966c0 6.298-5.103 11.402-11.403 11.402-6.296 0-11.395-5.104-11.395-11.402 0-6.298 5.099-11.4 11.395-11.4 6.3 0 11.404 5.102 11.404 11.4M317.646 322.966c0 6.298 5.104 11.402 11.402 11.402 6.297 0 11.397-5.104 11.397-11.402 0-6.298-5.1-11.4-11.397-11.4-6.298 0-11.402 5.102-11.402 11.4" mask="url(#b)"/>
            <path fill="#FFF" d="M342.726 332.087a4.559 4.559 0 0 1-4.557 4.558h-18.242a4.56 4.56 0 0 1-4.562-4.558v-18.24a4.556 4.556 0 0 1 4.562-4.559h18.242a4.554 4.554 0 0 1 4.557 4.558v18.241z" mask="url(#b)"/>
            <path stroke="#F48266" stroke-linecap="round" stroke-linejoin="round" stroke-width="1.417" d="M342.726 332.087a4.559 4.559 0 0 1-4.557 4.558h-18.242a4.56 4.56 0 0 1-4.562-4.558v-18.24a4.556 4.556 0 0 1 4.562-4.559h18.242a4.554 4.554 0 0 1 4.557 4.558v18.241z" mask="url(#b)"/>
            <path stroke="#F48266" stroke-linecap="round" stroke-linejoin="round" stroke-width="1.417" d="M324.485 322.966a4.559 4.559 0 0 0 4.558 4.558 4.558 4.558 0 1 0 0-9.116 4.556 4.556 0 0 0-4.558 4.558" mask="url(#b)"/>
            <path stroke="#F48266" stroke-linecap="round" stroke-linejoin="round" stroke-width="1.417" d="M319.926 322.966a9.121 9.121 0 1 0 18.242-.002 9.121 9.121 0 0 0-18.242.002" mask="url(#b)"/>
            <path fill="#FFF" d="M240.121 197.382c0 5.135-4.375 9.298-9.772 9.298h-48.858c-5.396 0-9.773-4.163-9.773-9.298V97.415c0-5.137 4.377-9.299 9.773-9.299h48.858c5.397 0 9.772 4.162 9.772 9.3v99.966z" mask="url(#b)"/>
            <path stroke="#F48266" stroke-linecap="round" stroke-linejoin="round" stroke-width="1.417" d="M240.121 197.382c0 5.135-4.375 9.298-9.772 9.298h-48.858c-5.396 0-9.773-4.163-9.773-9.298V97.415c0-5.137 4.377-9.299 9.773-9.299h48.858c5.397 0 9.772 4.162 9.772 9.3v99.966z" mask="url(#b)"/>
            <path stroke="#F48266" stroke-linecap="round" stroke-linejoin="round" stroke-width="1.417" d="M180.837 172.48h50.162v-2.281h-50.162zM180.837 165.641h50.162v-2.281h-50.162zM180.837 163.359h50.162v-2.282h-50.162zM180.837 156.52h50.162v-2.283h-50.162zM180.837 154.237h50.162v-2.281h-50.162zM180.837 147.398h50.162v-2.282h-50.162z" mask="url(#b)"/>
            <path stroke="#F48266" stroke-linecap="round" stroke-linejoin="round" stroke-width="1.417" d="M180.837 145.117h50.162v-2.281h-50.162zM180.837 138.278h50.162v-2.281h-50.162z" mask="url(#b)"/>
            <path stroke="#F48266" stroke-linecap="round" stroke-linejoin="round" stroke-width="1.417" d="M180.837 135.997h50.162v-2.281h-50.162zM180.837 129.157h50.162v-2.281h-50.162zM180.837 126.876h50.162v-2.281h-50.162zM180.837 120.037h50.162v-2.281h-50.162zM180.837 117.756h50.162v-2.281h-50.162zM180.837 110.916h50.162v-2.281h-50.162z" mask="url(#b)"/>
            <path stroke="#F48266" stroke-linecap="round" stroke-linejoin="round" stroke-width="1.417" d="M180.837 108.635h50.162v-2.281h-50.162zM180.837 101.796h50.162v-2.281h-50.162zM180.837 99.515h50.162v-2.283h-50.162zM180.837 174.761h50.162v-2.281h-50.162zM228.716 193.002h2.283v-18.241h-2.283zM180.838 193.002h2.281v-18.241h-2.281z" mask="url(#b)"/>
            <path stroke="#F48266" stroke-linecap="round" stroke-linejoin="round" stroke-width="1.417" d="M228.722 88.118H183.12c-5.036 0-9.12 4.084-9.12 9.115v98.05c0 5.033 4.084 9.117 9.12 9.117h45.603a9.117 9.117 0 0 0 9.117-9.116V97.233a9.117 9.117 0 0 0-9.117-9.115" mask="url(#b)"/>
            <path fill="#FFF" d="M.708 300.166a4.56 4.56 0 0 0 4.558 4.558h15.965a4.56 4.56 0 0 0 4.558-4.558l-11.403-20.524v-4.556h-9.12a4.556 4.556 0 0 0-4.558 4.556v20.524z" mask="url(#b)"/>
            <path stroke="#F48266" stroke-linecap="round" stroke-linejoin="round" stroke-width="1.417" d="M.708 300.166a4.56 4.56 0 0 0 4.558 4.558h15.965a4.56 4.56 0 0 0 4.558-4.558l-11.403-20.524v-4.556h-9.12a4.556 4.556 0 0 0-4.558 4.556v20.524zM340.446 322.967c0 6.297-5.104 11.4-11.403 11.4-6.297 0-11.396-5.103-11.396-11.4 0-6.298 5.099-11.402 11.396-11.402 6.299 0 11.403 5.104 11.403 11.402M632.552 302.447H814.96v-13.678H632.552z" mask="url(#b)"/>
            <path stroke="#F48266" stroke-linecap="round" stroke-linejoin="round" stroke-width="1.417" d="M562.437 291.045h537.538v-15.959H562.437" mask="url(#b)"/>
            <path stroke="#F48266" stroke-linecap="round" stroke-linejoin="round" stroke-width="1.417" d="M999.653 297.89h139.087v-15.961H999.653zM562.437 53.914h553.5v-2.281h-553.5" mask="url(#b)"/>
            <path stroke="#F48266" stroke-linecap="round" stroke-linejoin="round" stroke-width="1.417" d="M562.437 51.637h553.5v-2.281h-553.5M562.437 49.356h553.5v-4.558h-553.5M562.437 79h553.5v-2.281h-553.5M562.437 106.356h553.5v-2.282h-553.5M562.437 136h553.5v-2.281h-553.5M562.437 165.643h553.5v-2.281h-553.5M562.437 163.362h553.5v-4.557h-553.5M562.437 261.408h553.5v-2.281h-553.5M562.437 259.126h553.5v-4.559h-553.5M562.437 227.207h553.5v-2.282h-553.5M562.437 224.924h553.5v-4.556h-553.5M562.437 195.281h553.5v-2.28h-553.5" mask="url(#b)"/>
            <path stroke="#F48266" stroke-linecap="round" stroke-linejoin="round" stroke-width="1.417" d="M562.437 193.004h553.5v-4.558h-553.5M562.437 76.718h553.5v-4.557h-553.5M562.437 104.08h553.5v-4.558h-553.5M562.437 133.718h553.5v-4.558h-553.5M562.437 6.035h555.78V1.477h-555.78" mask="url(#b)"/>
            <path stroke="#F48266" stroke-linecap="round" stroke-linejoin="round" stroke-width="1.417" d="M562.437 275.086h555.78V1.471h-555.78M589.23 300.166h6.839v-11.402h-6.839zM586.949 309.287h20.521v-4.559h-20.521zM586.949 311.568h109.447v-2.281H586.949z" mask="url(#b)"/>
            <path stroke="#F48266" stroke-linecap="round" stroke-linejoin="round" stroke-width="1.417" d="M659.914 313.85h2.281v-25.082h-2.281zM591.512 313.85h2.281v-25.082h-2.281zM682.713 313.85h6.839v-18.242h-6.839z" mask="url(#b)"/>
            <path fill="#FFF" d="M990.53 302.449l-37.363.247-1.405 42.848-72.269-.456-2.364-42.213-34.806 1.855v-20.522H990.53z" mask="url(#b)"/>
            <path stroke="#F48266" stroke-linecap="round" stroke-linejoin="round" stroke-width="1.417" d="M990.53 302.449l-37.363.247-1.405 42.848-72.269-.456-2.364-42.213-34.806 1.855v-20.522H990.53z" mask="url(#b)"/>
            <path stroke="#F48266" stroke-linecap="round" stroke-linejoin="round" stroke-width="1.417" d="M963.169 322.97c0 21.407 17.355 38.764 38.765 38.764 21.403 0 38.758-17.357 38.758-38.765 0-21.407-17.355-38.765-38.758-38.765-21.41 0-38.765 17.358-38.765 38.765" mask="url(#b)"/>
            <g mask="url(#b)">
                <path fill="#FFF" d="M958.61 322.97c0 23.922 19.395 43.321 43.32 43.321 23.93 0 43.323-19.399 43.323-43.322 0-23.93-19.393-43.32-43.324-43.32-23.924 0-43.32 19.39-43.32 43.32"/>
                <path stroke="#F48266" stroke-linecap="round" stroke-linejoin="round" stroke-width="1.417" d="M958.61 322.97c0 23.922 19.395 43.321 43.32 43.321 23.93 0 43.323-19.399 43.323-43.322 0-23.93-19.393-43.32-43.324-43.32-23.924 0-43.32 19.39-43.32 43.32"/>
            </g>
            <g mask="url(#b)">
                <path fill="#FFF" d="M871.964 322.97c0 23.922-19.397 43.321-43.321 43.321-23.93 0-43.322-19.399-43.322-43.322 0-23.93 19.392-43.32 43.322-43.32 23.924 0 43.32 19.39 43.32 43.32"/>
                <path stroke="#F48266" stroke-linecap="round" stroke-linejoin="round" stroke-width="1.417" d="M871.964 322.97c0 23.922-19.397 43.321-43.321 43.321-23.93 0-43.322-19.399-43.322-43.322 0-23.93 19.392-43.32 43.322-43.32 23.924 0 43.32 19.39 43.32 43.32"/>
            </g>
            <path stroke="#F48266" stroke-linecap="round" stroke-linejoin="round" stroke-width="1.417" d="M1049.815 297.89h38.764v-13.679h-38.764zM1145.579 300.166h2.281v-15.96h-2.281zM1129.619 288.769h15.96v-2.281h-15.96z" mask="url(#b)"/>
            <path stroke="#F48266" stroke-linecap="round" stroke-linejoin="round" stroke-width="1.417" d="M1125.061 291.045h22.799v-2.281h-22.799z" mask="url(#b)"/>
            <path stroke="#F48266" stroke-linecap="round" stroke-linejoin="round" stroke-width="1.417" d="M1125.061 293.327h22.799v-4.559h-22.799z" mask="url(#b)"/>
            <path stroke="#F48266" stroke-linecap="round" stroke-linejoin="round" stroke-width="1.417" d="M1129.615 300.166h2.281v-18.241h-2.281zM1150.138 300.166h2.28v-18.241h-2.28z" mask="url(#b)"/>
            <path stroke="#F48266" stroke-linecap="round" stroke-linejoin="round" stroke-width="1.417" d="M1129.619 281.929h22.799v-2.28h-22.799z" mask="url(#b)"/>
            <path stroke="#F48266" stroke-linecap="round" stroke-linejoin="round" stroke-width="1.417" d="M1129.619 304.728h22.799v-27.36h-22.799zM1102.258 293.327h15.96v-9.12h-15.96z" mask="url(#b)"/>
            <path stroke="#F48266" stroke-linecap="round" stroke-linejoin="round" stroke-width="1.417" d="M1125.061 304.728h22.799v-27.36h-22.799zM979.13 309.29h25.08c6.839 0 4.565 15.958 4.565 15.958s13.676 0 13.676-13.678c0-9.12-9.12-11.401-13.676-11.401H979.13v9.12z" mask="url(#b)"/>
            <path stroke="#F48266" stroke-linecap="round" stroke-linejoin="round" stroke-width="1.417" d="M967.728 322.97c0 18.887 15.313 34.2 34.201 34.2 18.893 0 34.2-15.313 34.2-34.2 0-18.893-15.307-34.2-34.2-34.2-18.888 0-34.2 15.307-34.2 34.2M851.442 309.29h-25.08c-6.839 0-4.564 15.958-4.564 15.958s-13.677 0-13.677-13.678c0-9.12 9.12-11.401 13.677-11.401h29.644v9.12z" mask="url(#b)"/>
            <path stroke="#F48266" stroke-linecap="round" stroke-linejoin="round" stroke-width="1.417" d="M862.844 322.97c0 18.887-15.314 34.2-34.202 34.2-18.892 0-34.2-15.313-34.2-34.2 0-18.893 15.308-34.2 34.2-34.2 18.888 0 34.202 15.307 34.202 34.2" mask="url(#b)"/>
            <path stroke="#F48266" stroke-linecap="round" stroke-linejoin="round" stroke-width="1.417" d="M867.403 322.97c0 21.407-17.355 38.764-38.763 38.764-21.404 0-38.76-17.357-38.76-38.765 0-21.407 17.356-38.765 38.76-38.765 21.408 0 38.763 17.358 38.763 38.765M924.407 288.769h25.08v-2.281h-25.08zM881.086 288.769h25.08v-2.281h-25.08zM890.205 299.029c0 .63.509 1.14 1.14 1.14h47.88a1.14 1.14 0 0 0 1.14-1.14 1.14 1.14 0 0 0-1.14-1.141h-47.88a1.14 1.14 0 0 0-1.14 1.14" mask="url(#b)"/>
            <path stroke="#F48266" stroke-linecap="round" stroke-linejoin="round" stroke-width="1.417" d="M883.364 296.748a3.424 3.424 0 0 0 3.423 3.423h59.28a3.42 3.42 0 0 0 3.418-3.423 3.421 3.421 0 0 0-3.418-3.423h-59.28a3.426 3.426 0 0 0-3.423 3.423M928.965 311.568h9.12v-2.281h-9.12z" mask="url(#b)"/>
            <path stroke="#F48266" stroke-linecap="round" stroke-linejoin="round" stroke-width="1.417" d="M924.407 311.568h22.799v-2.281h-22.799zM928.965 313.85h9.12v-2.282h-9.12z" mask="url(#b)"/>
            <path stroke="#F48266" stroke-linecap="round" stroke-linejoin="round" stroke-width="1.417" d="M924.407 313.85h22.799v-2.282h-22.799zM928.965 318.407h9.12v-2.281h-9.12z" mask="url(#b)"/>
            <path stroke="#F48266" stroke-linecap="round" stroke-linejoin="round" stroke-width="1.417" d="M924.407 318.407h22.799v-2.281h-22.799zM928.965 320.69h9.12v-2.283h-9.12zM928.965 332.091h9.12v-2.281h-9.12zM928.965 334.372h9.12v-2.281h-9.12z" mask="url(#b)"/>
            <path stroke="#F48266" stroke-linecap="round" stroke-linejoin="round" stroke-width="1.417" d="M924.407 332.091h22.799v-2.281h-22.799zM924.407 334.372h22.799v-2.281h-22.799zM928.965 325.252h9.12v-2.281h-9.12z" mask="url(#b)"/>
            <path stroke="#F48266" stroke-linecap="round" stroke-linejoin="round" stroke-width="1.417" d="M928.965 327.529h9.12v-2.282h-9.12zM924.407 320.69h22.799v-2.283h-22.799z" mask="url(#b)"/>
            <path stroke="#F48266" stroke-linecap="round" stroke-linejoin="round" stroke-width="1.417" d="M924.407 325.252h22.799v-2.281h-22.799z" mask="url(#b)"/>
            <path stroke="#F48266" stroke-linecap="round" stroke-linejoin="round" stroke-width="1.417" d="M924.407 327.529h22.799v-2.282h-22.799zM915.287 327.529h4.558v-22.801h-4.558zM910.724 341.211h9.121v-6.839h-9.121zM910.724 327.529h4.558v-22.801h-4.558zM892.481 311.568h9.122v-2.281h-9.122z" mask="url(#b)"/>
            <path stroke="#F48266" stroke-linecap="round" stroke-linejoin="round" stroke-width="1.417" d="M883.367 311.568h22.799v-2.281h-22.799zM892.481 313.85h9.122v-2.282h-9.122z" mask="url(#b)"/>
            <path stroke="#F48266" stroke-linecap="round" stroke-linejoin="round" stroke-width="1.417" d="M883.367 313.85h22.799v-2.282h-22.799zM892.481 318.407h9.122v-2.281h-9.122z" mask="url(#b)"/>
            <path stroke="#F48266" stroke-linecap="round" stroke-linejoin="round" stroke-width="1.417" d="M883.367 318.407h22.799v-2.281h-22.799zM892.481 320.69h9.122v-2.283h-9.122zM892.481 332.091h9.122v-2.281h-9.122zM892.481 334.372h9.122v-2.281h-9.122z" mask="url(#b)"/>
            <path stroke="#F48266" stroke-linecap="round" stroke-linejoin="round" stroke-width="1.417" d="M883.367 332.091h22.799v-2.281h-22.799zM883.367 334.372h22.799v-2.281h-22.799zM892.481 325.252h9.122v-2.281h-9.122z" mask="url(#b)"/>
            <path stroke="#F48266" stroke-linecap="round" stroke-linejoin="round" stroke-width="1.417" d="M892.481 327.529h9.122v-2.282h-9.122zM883.367 320.69h22.799v-2.283h-22.799z" mask="url(#b)"/>
            <path stroke="#F48266" stroke-linecap="round" stroke-linejoin="round" stroke-width="1.417" d="M883.367 325.252h22.799v-2.281h-22.799z" mask="url(#b)"/>
            <path stroke="#F48266" stroke-linecap="round" stroke-linejoin="round" stroke-width="1.417" d="M883.367 327.529h22.799v-2.282h-22.799zM1040.692 322.97c0 21.408-17.355 38.765-38.763 38.765-21.403 0-38.76-17.357-38.76-38.765s17.357-38.765 38.76-38.765c21.408 0 38.763 17.357 38.763 38.765" mask="url(#b)"/>
            <g mask="url(#b)">
                <path fill="#FFF" d="M849.165 295.61c-13.683 0-15.965 6.839-4.562 18.24l29.642 29.639s4.559 6.845 11.398 6.845h29.643v-6.845h-25.081c-4.562 0-7.412-2.277-9.121-4.56v-25.078c0-6.84 4.559-9.121 9.12-9.121h25.082v-9.12h-66.121m4.559 15.959c-4.56-4.558-2.282-6.84 0-6.84h13.678c6.103 0 6.76.418 6.833 6.84.01.775.01 8.38.01 9.12 0 9.122-4.561 6.84-6.843 4.559l-13.678-13.68"/>
                <path stroke="#F48266" stroke-linecap="round" stroke-linejoin="round" stroke-width="1.417" d="M849.165 295.61c-13.683 0-15.965 6.839-4.562 18.24l29.642 29.639s4.559 6.845 11.398 6.845h29.643v-6.845h-25.081c-4.562 0-7.412-2.277-9.121-4.56v-25.078c0-6.84 4.559-9.121 9.12-9.121h25.082v-9.12h-66.121m4.559 15.959c-4.56-4.558-2.282-6.84 0-6.84h13.678c6.103 0 6.76.418 6.833 6.84.01.775.01 8.38.01 9.12 0 9.122-4.561 6.84-6.843 4.559l-13.678-13.68"/>
            </g>
            <g mask="url(#b)">
                <path fill="#FFF" d="M985.97 313.85c11.401-11.403 9.121-18.242-4.564-18.242h-66.12v9.12h25.08c4.564 0 9.122 2.282 9.122 9.121v25.081c-1.708 2.281-4.558 4.563-9.121 4.563h-25.081v6.838h29.644c6.839 0 11.396-6.838 11.396-6.838l29.645-29.644m-9.12-9.12c2.28 0 4.556 2.281 0 6.84-4.56 4.56-11.404 11.401-13.68 13.682-2.282 2.276-6.846 4.558-6.846-4.563 0-.739 0-8.343.011-9.12.073-6.423.73-6.84 6.835-6.84h13.68"/>
                <path stroke="#F48266" stroke-linecap="round" stroke-linejoin="round" stroke-width="1.417" d="M985.97 313.85c11.401-11.403 9.121-18.242-4.564-18.242h-66.12v9.12h25.08c4.564 0 9.122 2.282 9.122 9.121v25.081c-1.708 2.281-4.558 4.563-9.121 4.563h-25.081v6.838h29.644c6.839 0 11.396-6.838 11.396-6.838l29.645-29.644m-9.12-9.12c2.28 0 4.556 2.281 0 6.84-4.56 4.56-11.404 11.401-13.68 13.682-2.282 2.276-6.846 4.558-6.846-4.563 0-.739 0-8.343.011-9.12.073-6.423.73-6.84 6.835-6.84h13.68"/>
            </g>
            <path fill="#FFF" d="M988.25 332.09a4.56 4.56 0 0 0 4.559 4.558h18.24a4.56 4.56 0 0 0 4.562-4.558v-18.24a4.557 4.557 0 0 0-4.561-4.56h-18.241a4.556 4.556 0 0 0-4.56 4.56v18.24z" mask="url(#b)"/>
            <path stroke="#F48266" stroke-linecap="round" stroke-linejoin="round" stroke-width="1.417" d="M988.25 332.09a4.56 4.56 0 0 0 4.559 4.558h18.24a4.56 4.56 0 0 0 4.562-4.558v-18.24a4.557 4.557 0 0 0-4.561-4.56h-18.241a4.556 4.556 0 0 0-4.56 4.56v18.24z" mask="url(#b)"/>
            <path stroke="#F48266" stroke-linecap="round" stroke-linejoin="round" stroke-width="1.417" d="M997.37 322.97a4.56 4.56 0 1 0 9.12 0 4.557 4.557 0 0 0-4.561-4.559 4.556 4.556 0 0 0-4.558 4.558" mask="url(#b)"/>
            <path stroke="#F48266" stroke-linecap="round" stroke-linejoin="round" stroke-width="1.417" d="M992.81 322.97a9.121 9.121 0 1 0 18.242-.003 9.121 9.121 0 0 0-18.243.002" mask="url(#b)"/>
            <path stroke="#F48266" stroke-linecap="round" stroke-linejoin="round" stroke-width="1.417" d="M990.53 322.97c0 6.296 5.104 11.401 11.402 11.401 6.298 0 11.397-5.105 11.397-11.402 0-6.298-5.099-11.4-11.397-11.4s-11.402 5.102-11.402 11.4M840.042 322.97c0 6.296-5.104 11.401-11.402 11.401-6.297 0-11.397-5.105-11.397-11.402 0-6.298 5.1-11.4 11.397-11.4 6.298 0 11.402 5.102 11.402 11.4" mask="url(#b)"/>
            <path fill="#FFF" d="M814.962 332.09a4.559 4.559 0 0 0 4.557 4.558h18.242a4.561 4.561 0 0 0 4.562-4.558v-18.24a4.558 4.558 0 0 0-4.562-4.56h-18.242a4.555 4.555 0 0 0-4.557 4.56v18.24z" mask="url(#b)"/>
            <path stroke="#F48266" stroke-linecap="round" stroke-linejoin="round" stroke-width="1.417" d="M814.962 332.09a4.559 4.559 0 0 0 4.557 4.558h18.242a4.561 4.561 0 0 0 4.562-4.558v-18.24a4.558 4.558 0 0 0-4.562-4.56h-18.242a4.555 4.555 0 0 0-4.557 4.56v18.24z" mask="url(#b)"/>
            <path stroke="#F48266" stroke-linecap="round" stroke-linejoin="round" stroke-width="1.417" d="M833.202 322.97a4.56 4.56 0 1 1-9.121 0 4.558 4.558 0 0 1 4.563-4.559 4.556 4.556 0 0 1 4.558 4.558" mask="url(#b)"/>
            <path stroke="#F48266" stroke-linecap="round" stroke-linejoin="round" stroke-width="1.417" d="M837.761 322.97c0 5.035-4.083 9.12-9.118 9.12a9.121 9.121 0 0 1 0-18.242c5.034 0 9.118 4.084 9.118 9.121" mask="url(#b)"/>
            <path fill="#FFF" d="M917.566 197.385c0 5.135 4.375 9.298 9.772 9.298h48.858c5.396 0 9.773-4.163 9.773-9.298V97.418c0-5.137-4.377-9.299-9.773-9.299h-48.858c-5.397 0-9.772 4.162-9.772 9.3v99.966z" mask="url(#b)"/>
            <path stroke="#F48266" stroke-linecap="round" stroke-linejoin="round" stroke-width="1.417" d="M917.566 197.385c0 5.135 4.375 9.298 9.772 9.298h48.858c5.396 0 9.773-4.163 9.773-9.298V97.418c0-5.137-4.377-9.299-9.773-9.299h-48.858c-5.397 0-9.772 4.162-9.772 9.3v99.966z" mask="url(#b)"/>
            <path stroke="#F48266" stroke-linecap="round" stroke-linejoin="round" stroke-width="1.417" d="M926.688 172.483h50.162v-2.281h-50.162zM926.688 165.643h50.162v-2.281h-50.162zM926.688 163.362h50.162v-2.282h-50.162zM926.688 156.523h50.162v-2.283h-50.162zM926.688 154.24h50.162v-2.281h-50.162zM926.688 147.401h50.162v-2.282h-50.162z" mask="url(#b)"/>
            <path stroke="#F48266" stroke-linecap="round" stroke-linejoin="round" stroke-width="1.417" d="M926.688 145.12h50.162v-2.281h-50.162zM926.688 138.281h50.162V136h-50.162zM926.688 135.999h50.162v-2.281h-50.162zM926.688 129.16h50.162v-2.281h-50.162zM926.688 126.878h50.162v-2.281h-50.162zM926.688 120.039h50.162v-2.281h-50.162zM926.688 117.758h50.162v-2.281h-50.162zM926.688 110.919h50.162v-2.281h-50.162z" mask="url(#b)"/>
            <path stroke="#F48266" stroke-linecap="round" stroke-linejoin="round" stroke-width="1.417" d="M926.688 108.638h50.162v-2.281h-50.162zM926.688 101.798h50.162v-2.281h-50.162z" mask="url(#b)"/>
            <path stroke="#F48266" stroke-linecap="round" stroke-linejoin="round" stroke-width="1.417" d="M926.688 99.518h50.162v-2.283h-50.162zM926.688 174.764h50.162v-2.281h-50.162zM926.688 193.005h2.283v-18.241h-2.283zM974.569 193.005h2.28v-18.241h-2.28z" mask="url(#b)"/>
            <path stroke="#F48266" stroke-linecap="round" stroke-linejoin="round" stroke-width="1.417" d="M928.965 88.12h45.604c5.037 0 9.12 4.084 9.12 9.115v98.051c0 5.032-4.083 9.116-9.12 9.116h-45.604c-5.035 0-9.115-4.084-9.115-9.116v-98.05c0-5.032 4.08-9.116 9.115-9.116" mask="url(#b)"/>
            <path fill="#FFF" d="M1156.98 300.168a4.56 4.56 0 0 1-4.56 4.558h-15.964a4.56 4.56 0 0 1-4.558-4.558l11.402-20.523v-4.558h9.12a4.557 4.557 0 0 1 4.56 4.558v20.523z" mask="url(#b)"/>
            <path stroke="#F48266" stroke-linecap="round" stroke-linejoin="round" stroke-width="1.417" d="M1156.98 300.168a4.56 4.56 0 0 1-4.56 4.558h-15.964a4.56 4.56 0 0 1-4.558-4.558l11.402-20.523v-4.558h9.12a4.557 4.557 0 0 1 4.56 4.558v20.523zM817.242 322.97c0 6.297 5.104 11.4 11.403 11.4 6.297 0 11.396-5.103 11.396-11.4 0-6.298-5.099-11.402-11.396-11.402-6.299 0-11.403 5.104-11.403 11.402" mask="url(#b)"/>
        </g>
    </g>
</svg>
