<?xml version="1.0" encoding="UTF-8"?>
<svg width="1158px" height="367px" viewBox="0 0 1158 367" version="1.1" xmlns="http://www.w3.org/2000/svg" xmlns:xlink="http://www.w3.org/1999/xlink">
    <!-- Generator: sketchtool 46.2 (44496) - http://www.bohemiancoding.com/sketch -->
    <title>ADD5B8FC-DDAF-4F01-BB63-90640FBB0C7F</title>
    <desc>Created with sketchtool.</desc>
    <defs>
        <polygon id="path-1" points="0 367 1157.688 367 1157.688 0.76 0 0.76"></polygon>
    </defs>
    <g id="Page-1" stroke="none" stroke-width="1" fill="none" fill-rule="evenodd">
        <g id="MainPage-vagon-5" transform="translate(-142.000000, -195.000000)">
            <g id="Wireframe" transform="translate(142.000000, 194.000000)">
                <polygon id="Stroke-1" stroke="#F48266" stroke-width="1.417" stroke-linecap="round" stroke-linejoin="round" points="342.728 302.684 525.137 302.684 525.137 289.006 342.728 289.006"></polygon>
                <polyline id="Stroke-2" stroke="#F48266" stroke-width="1.417" stroke-linecap="round" stroke-linejoin="round" points="595.2508 291.2824 57.7128 291.2824 57.7128 275.3234 595.2508 275.3234"></polyline>
                <polygon id="Stroke-3" stroke="#F48266" stroke-width="1.417" stroke-linecap="round" stroke-linejoin="round" points="18.948 298.128 158.035 298.128 158.035 282.167 18.948 282.167"></polygon>
                <polyline id="Stroke-4" stroke="#F48266" stroke-width="1.417" stroke-linecap="round" stroke-linejoin="round" points="595.2508 54.1511 41.7518 54.1511 41.7518 51.8701 595.2508 51.8701"></polyline>
                <polyline id="Stroke-5" stroke="#F48266" stroke-width="1.417" stroke-linecap="round" stroke-linejoin="round" points="595.2508 51.8742 41.7518 51.8742 41.7518 49.5932 595.2508 49.5932"></polyline>
                <polyline id="Stroke-6" stroke="#F48266" stroke-width="1.417" stroke-linecap="round" stroke-linejoin="round" points="595.2508 49.593 41.7518 49.593 41.7518 45.035 595.2508 45.035"></polyline>
                <polyline id="Stroke-7" stroke="#F48266" stroke-width="1.417" stroke-linecap="round" stroke-linejoin="round" points="595.2508 79.237 41.7518 79.237 41.7518 76.956 595.2508 76.956"></polyline>
                <polyline id="Stroke-8" stroke="#F48266" stroke-width="1.417" stroke-linecap="round" stroke-linejoin="round" points="595.2508 106.5939 41.7518 106.5939 41.7518 104.3119 595.2508 104.3119"></polyline>
                <polyline id="Stroke-9" stroke="#F48266" stroke-width="1.417" stroke-linecap="round" stroke-linejoin="round" points="595.2508 136.2365 41.7518 136.2365 41.7518 133.9555 595.2508 133.9555"></polyline>
                <polyline id="Stroke-10" stroke="#F48266" stroke-width="1.417" stroke-linecap="round" stroke-linejoin="round" points="595.2508 165.8806 41.7518 165.8806 41.7518 163.5996 595.2508 163.5996"></polyline>
                <polyline id="Stroke-11" stroke="#F48266" stroke-width="1.417" stroke-linecap="round" stroke-linejoin="round" points="595.2508 163.5993 41.7518 163.5993 41.7518 159.0423 595.2508 159.0423"></polyline>
                <polyline id="Stroke-12" stroke="#F48266" stroke-width="1.417" stroke-linecap="round" stroke-linejoin="round" points="595.2508 261.6447 41.7518 261.6447 41.7518 259.3637 595.2508 259.3637"></polyline>
                <polyline id="Stroke-13" stroke="#F48266" stroke-width="1.417" stroke-linecap="round" stroke-linejoin="round" points="595.2508 259.3635 41.7518 259.3635 41.7518 254.8055 595.2508 254.8055"></polyline>
                <polyline id="Stroke-14" stroke="#F48266" stroke-width="1.417" stroke-linecap="round" stroke-linejoin="round" points="595.2508 227.4436 41.7518 227.4436 41.7518 225.1616 595.2508 225.1616"></polyline>
                <polyline id="Stroke-15" stroke="#F48266" stroke-width="1.417" stroke-linecap="round" stroke-linejoin="round" points="595.2508 225.1613 41.7518 225.1613 41.7518 220.6053 595.2508 220.6053"></polyline>
                <polyline id="Stroke-16" stroke="#F48266" stroke-width="1.417" stroke-linecap="round" stroke-linejoin="round" points="595.2508 195.5187 41.7518 195.5187 41.7518 193.2377 595.2508 193.2377"></polyline>
                <polyline id="Stroke-17" stroke="#F48266" stroke-width="1.417" stroke-linecap="round" stroke-linejoin="round" points="595.2508 193.2419 41.7518 193.2419 41.7518 188.6839 595.2508 188.6839"></polyline>
                <polyline id="Stroke-18" stroke="#F48266" stroke-width="1.417" stroke-linecap="round" stroke-linejoin="round" points="595.2508 76.9558 41.7518 76.9558 41.7518 72.3988 595.2508 72.3988"></polyline>
                <polyline id="Stroke-19" stroke="#F48266" stroke-width="1.417" stroke-linecap="round" stroke-linejoin="round" points="595.2508 104.3171 41.7518 104.3171 41.7518 99.7591 595.2508 99.7591"></polyline>
                <polyline id="Stroke-20" stroke="#F48266" stroke-width="1.417" stroke-linecap="round" stroke-linejoin="round" points="595.2508 133.9553 41.7518 133.9553 41.7518 129.3973 595.2508 129.3973"></polyline>
                <g id="Group-25" transform="translate(39.000000, 1.240000)" stroke-linecap="round" stroke-width="1.417" stroke="#F48266" stroke-linejoin="round">
                    <polyline id="Stroke-21" points="556.2508 5.0317 0.4698 5.0317 0.4698 0.4737 556.2508 0.4737"></polyline>
                    <polyline id="Stroke-23" points="556.2508 274.0834 0.4698 274.0834 0.4698 0.4684 556.2508 0.4684"></polyline>
                </g>
                <polygon id="Stroke-26" stroke="#F48266" stroke-width="1.417" stroke-linecap="round" stroke-linejoin="round" points="561.618 300.403 568.457 300.403 568.457 289.001 561.618 289.001"></polygon>
                <polygon id="Stroke-27" stroke="#F48266" stroke-width="1.417" stroke-linecap="round" stroke-linejoin="round" points="550.217 309.524 570.739 309.524 570.739 304.965 550.217 304.965"></polygon>
                <polygon id="Stroke-28" stroke="#F48266" stroke-width="1.417" stroke-linecap="round" stroke-linejoin="round" points="461.292 311.805 570.739 311.805 570.739 309.524 461.292 309.524"></polygon>
                <polygon id="Stroke-29" stroke="#F48266" stroke-width="1.417" stroke-linecap="round" stroke-linejoin="round" points="495.492 314.087 497.773 314.087 497.773 289.005 495.492 289.005"></polygon>
                <polygon id="Stroke-30" stroke="#F48266" stroke-width="1.417" stroke-linecap="round" stroke-linejoin="round" points="563.895 314.087 566.176 314.087 566.176 289.005 563.895 289.005"></polygon>
                <polygon id="Stroke-31" stroke="#F48266" stroke-width="1.417" stroke-linecap="round" stroke-linejoin="round" points="468.136 314.087 474.975 314.087 474.975 295.845 468.136 295.845"></polygon>
                <polygon id="Fill-32" fill="#FFFFFF" points="167.1575 302.6857 204.5205 302.9327 205.9245 345.7807 278.1945 345.3247 280.5585 303.1117 315.3645 304.9667 315.3645 284.4447 167.1575 284.4447"></polygon>
                <polygon id="Stroke-33" stroke="#F48266" stroke-width="1.417" stroke-linecap="round" stroke-linejoin="round" points="167.1575 302.6857 204.5205 302.9327 205.9245 345.7807 278.1945 345.3247 280.5585 303.1117 315.3645 304.9667 315.3645 284.4447 167.1575 284.4447"></polygon>
                <g id="Group-278" transform="translate(0.000000, 0.240000)">
                    <path d="M194.5189,322.9662 C194.5189,344.3742 177.1629,361.7312 155.7539,361.7312 C134.3509,361.7312 116.9959,344.3742 116.9959,322.9662 C116.9959,301.5592 134.3509,284.2012 155.7539,284.2012 C177.1629,284.2012 194.5189,301.5592 194.5189,322.9662 Z" id="Stroke-34" stroke="#F48266" stroke-width="1.417" stroke-linecap="round" stroke-linejoin="round"></path>
                    <g id="Group-39" transform="translate(112.000000, 279.000000)">
                        <path d="M87.0789,43.9662 C87.0789,67.8902 67.6819,87.2882 43.7579,87.2882 C19.8279,87.2882 0.4349,67.8902 0.4349,43.9662 C0.4349,20.0362 19.8279,0.6462 43.7579,0.6462 C67.6819,0.6462 87.0789,20.0362 87.0789,43.9662" id="Fill-36" fill="#FFFFFF"></path>
                        <path d="M87.0789,43.9662 C87.0789,67.8902 67.6819,87.2882 43.7579,87.2882 C19.8279,87.2882 0.4349,67.8902 0.4349,43.9662 C0.4349,20.0362 19.8279,0.6462 43.7579,0.6462 C67.6819,0.6462 87.0789,20.0362 87.0789,43.9662" id="Stroke-38" stroke="#F48266" stroke-width="1.417" stroke-linecap="round" stroke-linejoin="round"></path>
                    </g>
                    <g id="Group-43" transform="translate(285.000000, 279.000000)">
                        <path d="M0.7234,43.9662 C0.7234,67.8902 20.1214,87.2882 44.0454,87.2882 C67.9744,87.2882 87.3664,67.8902 87.3664,43.9662 C87.3664,20.0362 67.9744,0.6462 44.0454,0.6462 C20.1214,0.6462 0.7234,20.0362 0.7234,43.9662" id="Fill-40" fill="#FFFFFF"></path>
                        <path d="M0.7234,43.9662 C0.7234,67.8902 20.1214,87.2882 44.0454,87.2882 C67.9744,87.2882 87.3664,67.8902 87.3664,43.9662 C87.3664,20.0362 67.9744,0.6462 44.0454,0.6462 C20.1214,0.6462 0.7234,20.0362 0.7234,43.9662" id="Stroke-42" stroke="#F48266" stroke-width="1.417" stroke-linecap="round" stroke-linejoin="round"></path>
                    </g>
                    <mask id="mask-2" fill="white">
                        <use xlink:href="#path-1"></use>
                    </mask>
                    <g id="Clip-45"></g>
                    <polygon id="Stroke-44" stroke="#F48266" stroke-width="1.417" stroke-linecap="round" stroke-linejoin="round" mask="url(#mask-2)" points="69.108 297.888 107.872 297.888 107.872 284.208 69.108 284.208"></polygon>
                    <polygon id="Stroke-46" stroke="#F48266" stroke-width="1.417" stroke-linecap="round" stroke-linejoin="round" mask="url(#mask-2)" points="9.827 300.163 12.108 300.163 12.108 284.203 9.827 284.203"></polygon>
                    <polygon id="Stroke-47" stroke="#F48266" stroke-width="1.417" stroke-linecap="round" stroke-linejoin="round" mask="url(#mask-2)" points="12.109 288.766 28.069 288.766 28.069 286.485 12.109 286.485"></polygon>
                    <polygon id="Stroke-48" stroke="#F48266" stroke-width="1.417" stroke-linecap="round" stroke-linejoin="round" mask="url(#mask-2)" points="9.827 291.042 32.626 291.042 32.626 288.761 9.827 288.761"></polygon>
                    <polygon id="Stroke-49" stroke="#F48266" stroke-width="1.417" stroke-linecap="round" stroke-linejoin="round" mask="url(#mask-2)" points="9.827 293.324 32.626 293.324 32.626 288.766 9.827 288.766"></polygon>
                    <polygon id="Stroke-50" stroke="#F48266" stroke-width="1.417" stroke-linecap="round" stroke-linejoin="round" mask="url(#mask-2)" points="25.791 300.163 28.072 300.163 28.072 281.922 25.791 281.922"></polygon>
                    <polygon id="Stroke-51" stroke="#F48266" stroke-width="1.417" stroke-linecap="round" stroke-linejoin="round" mask="url(#mask-2)" points="5.269 300.163 7.55 300.163 7.55 281.922 5.269 281.922"></polygon>
                    <polygon id="Stroke-52" stroke="#F48266" stroke-width="1.417" stroke-linecap="round" stroke-linejoin="round" mask="url(#mask-2)" points="5.269 281.926 28.068 281.926 28.068 279.646 5.269 279.646"></polygon>
                    <polygon id="Stroke-53" stroke="#F48266" stroke-width="1.417" stroke-linecap="round" stroke-linejoin="round" mask="url(#mask-2)" points="5.269 304.725 28.068 304.725 28.068 277.365 5.269 277.365"></polygon>
                    <polygon id="Stroke-54" stroke="#F48266" stroke-width="1.417" stroke-linecap="round" stroke-linejoin="round" mask="url(#mask-2)" points="39.47 293.324 55.43 293.324 55.43 284.204 39.47 284.204"></polygon>
                    <polygon id="Stroke-55" stroke="#F48266" stroke-width="1.417" stroke-linecap="round" stroke-linejoin="round" mask="url(#mask-2)" points="9.827 304.725 32.626 304.725 32.626 277.365 9.827 277.365"></polygon>
                    <path d="M178.5579,309.2866 L153.4779,309.2866 C146.6389,309.2866 148.9139,325.2456 148.9139,325.2456 C148.9139,325.2456 135.2369,325.2456 135.2369,311.5676 C135.2369,302.4466 144.3569,300.1656 148.9139,300.1656 L178.5579,300.1656 L178.5579,309.2866 Z" id="Stroke-56" stroke="#F48266" stroke-width="1.417" stroke-linecap="round" stroke-linejoin="round" mask="url(#mask-2)"></path>
                    <path d="M189.9598,322.9662 C189.9598,341.8542 174.6458,357.1672 155.7578,357.1672 C136.8658,357.1672 121.5578,341.8542 121.5578,322.9662 C121.5578,304.0742 136.8658,288.7662 155.7578,288.7662 C174.6458,288.7662 189.9598,304.0742 189.9598,322.9662" id="Stroke-57" stroke="#F48266" stroke-width="1.417" stroke-linecap="round" stroke-linejoin="round" mask="url(#mask-2)"></path>
                    <path d="M306.2454,309.2866 L331.3254,309.2866 C338.1644,309.2866 335.8884,325.2456 335.8884,325.2456 C335.8884,325.2456 349.5664,325.2456 349.5664,311.5676 C349.5664,302.4466 340.4464,300.1656 335.8884,300.1656 L306.2454,300.1656 L306.2454,309.2866 Z" id="Stroke-58" stroke="#F48266" stroke-width="1.417" stroke-linecap="round" stroke-linejoin="round" mask="url(#mask-2)"></path>
                    <path d="M294.8441,322.9662 C294.8441,341.8542 310.1581,357.1672 329.0461,357.1672 C347.9381,357.1672 363.2461,341.8542 363.2461,322.9662 C363.2461,304.0742 347.9381,288.7662 329.0461,288.7662 C310.1581,288.7662 294.8441,304.0742 294.8441,322.9662" id="Stroke-59" stroke="#F48266" stroke-width="1.417" stroke-linecap="round" stroke-linejoin="round" mask="url(#mask-2)"></path>
                    <path d="M290.2845,322.9662 C290.2845,344.3742 307.6395,361.7312 329.0475,361.7312 C350.4515,361.7312 367.8075,344.3742 367.8075,322.9662 C367.8075,301.5592 350.4515,284.2012 329.0475,284.2012 C307.6395,284.2012 290.2845,301.5592 290.2845,322.9662" id="Stroke-60" stroke="#F48266" stroke-width="1.417" stroke-linecap="round" stroke-linejoin="round" mask="url(#mask-2)"></path>
                    <polygon id="Stroke-61" stroke="#F48266" stroke-width="1.417" stroke-linecap="round" stroke-linejoin="round" mask="url(#mask-2)" points="208.201 288.766 233.281 288.766 233.281 286.485 208.201 286.485"></polygon>
                    <polygon id="Stroke-62" stroke="#F48266" stroke-width="1.417" stroke-linecap="round" stroke-linejoin="round" mask="url(#mask-2)" points="251.522 288.766 276.602 288.766 276.602 286.485 251.522 286.485"></polygon>
                    <path d="M267.4827,299.0258 C267.4827,299.6558 266.9737,300.1668 266.3427,300.1668 L218.4627,300.1668 C217.8317,300.1668 217.3227,299.6558 217.3227,299.0258 C217.3227,298.3958 217.8317,297.8848 218.4627,297.8848 L266.3427,297.8848 C266.9737,297.8848 267.4827,298.3958 267.4827,299.0258" id="Stroke-63" stroke="#F48266" stroke-width="1.417" stroke-linecap="round" stroke-linejoin="round" mask="url(#mask-2)"></path>
                    <path d="M274.3235,296.7455 C274.3235,298.6315 272.7925,300.1675 270.9005,300.1675 L211.6205,300.1675 C209.7285,300.1675 208.2025,298.6315 208.2025,296.7455 C208.2025,294.8595 209.7285,293.3215 211.6205,293.3215 L270.9005,293.3215 C272.7925,293.3215 274.3235,294.8595 274.3235,296.7455" id="Stroke-64" stroke="#F48266" stroke-width="1.417" stroke-linecap="round" stroke-linejoin="round" mask="url(#mask-2)"></path>
                    <polygon id="Stroke-65" stroke="#F48266" stroke-width="1.417" stroke-linecap="round" stroke-linejoin="round" mask="url(#mask-2)" points="219.602 311.565 228.722 311.565 228.722 309.284 219.602 309.284"></polygon>
                    <polygon id="Stroke-66" stroke="#F48266" stroke-width="1.417" stroke-linecap="round" stroke-linejoin="round" mask="url(#mask-2)" points="210.482 311.565 233.281 311.565 233.281 309.284 210.482 309.284"></polygon>
                    <polygon id="Stroke-67" stroke="#F48266" stroke-width="1.417" stroke-linecap="round" stroke-linejoin="round" mask="url(#mask-2)" points="219.602 313.847 228.722 313.847 228.722 311.565 219.602 311.565"></polygon>
                    <polygon id="Stroke-68" stroke="#F48266" stroke-width="1.417" stroke-linecap="round" stroke-linejoin="round" mask="url(#mask-2)" points="210.482 313.847 233.281 313.847 233.281 311.565 210.482 311.565"></polygon>
                    <polygon id="Stroke-69" stroke="#F48266" stroke-width="1.417" stroke-linecap="round" stroke-linejoin="round" mask="url(#mask-2)" points="219.602 318.404 228.722 318.404 228.722 316.124 219.602 316.124"></polygon>
                    <polygon id="Stroke-70" stroke="#F48266" stroke-width="1.417" stroke-linecap="round" stroke-linejoin="round" mask="url(#mask-2)" points="210.482 318.404 233.281 318.404 233.281 316.124 210.482 316.124"></polygon>
                    <polygon id="Stroke-71" stroke="#F48266" stroke-width="1.417" stroke-linecap="round" stroke-linejoin="round" mask="url(#mask-2)" points="219.602 320.687 228.722 320.687 228.722 318.404 219.602 318.404"></polygon>
                    <polygon id="Stroke-72" stroke="#F48266" stroke-width="1.417" stroke-linecap="round" stroke-linejoin="round" mask="url(#mask-2)" points="219.602 332.088 228.722 332.088 228.722 329.808 219.602 329.808"></polygon>
                    <polygon id="Stroke-73" stroke="#F48266" stroke-width="1.417" stroke-linecap="round" stroke-linejoin="round" mask="url(#mask-2)" points="219.602 334.37 228.722 334.37 228.722 332.09 219.602 332.09"></polygon>
                    <polygon id="Stroke-74" stroke="#F48266" stroke-width="1.417" stroke-linecap="round" stroke-linejoin="round" mask="url(#mask-2)" points="210.482 332.088 233.281 332.088 233.281 329.808 210.482 329.808"></polygon>
                    <polygon id="Stroke-75" stroke="#F48266" stroke-width="1.417" stroke-linecap="round" stroke-linejoin="round" mask="url(#mask-2)" points="210.482 334.37 233.281 334.37 233.281 332.09 210.482 332.09"></polygon>
                    <polygon id="Stroke-76" stroke="#F48266" stroke-width="1.417" stroke-linecap="round" stroke-linejoin="round" mask="url(#mask-2)" points="219.602 325.249 228.722 325.249 228.722 322.968 219.602 322.968"></polygon>
                    <polygon id="Stroke-77" stroke="#F48266" stroke-width="1.417" stroke-linecap="round" stroke-linejoin="round" mask="url(#mask-2)" points="219.602 327.526 228.722 327.526 228.722 325.244 219.602 325.244"></polygon>
                    <polygon id="Stroke-78" stroke="#F48266" stroke-width="1.417" stroke-linecap="round" stroke-linejoin="round" mask="url(#mask-2)" points="210.482 320.687 233.281 320.687 233.281 318.404 210.482 318.404"></polygon>
                    <polygon id="Stroke-79" stroke="#F48266" stroke-width="1.417" stroke-linecap="round" stroke-linejoin="round" mask="url(#mask-2)" points="210.482 325.249 233.281 325.249 233.281 322.968 210.482 322.968"></polygon>
                    <polygon id="Stroke-80" stroke="#F48266" stroke-width="1.417" stroke-linecap="round" stroke-linejoin="round" mask="url(#mask-2)" points="210.482 327.526 233.281 327.526 233.281 325.244 210.482 325.244"></polygon>
                    <polygon id="Stroke-81" stroke="#F48266" stroke-width="1.417" stroke-linecap="round" stroke-linejoin="round" mask="url(#mask-2)" points="237.843 327.526 242.401 327.526 242.401 304.725 237.843 304.725"></polygon>
                    <polygon id="Stroke-82" stroke="#F48266" stroke-width="1.417" stroke-linecap="round" stroke-linejoin="round" mask="url(#mask-2)" points="237.843 341.208 246.964 341.208 246.964 334.369 237.843 334.369"></polygon>
                    <polygon id="Stroke-83" stroke="#F48266" stroke-width="1.417" stroke-linecap="round" stroke-linejoin="round" mask="url(#mask-2)" points="242.406 327.526 246.964 327.526 246.964 304.725 242.406 304.725"></polygon>
                    <polygon id="Stroke-84" stroke="#F48266" stroke-width="1.417" stroke-linecap="round" stroke-linejoin="round" mask="url(#mask-2)" points="256.084 311.565 265.206 311.565 265.206 309.284 256.084 309.284"></polygon>
                    <polygon id="Stroke-85" stroke="#F48266" stroke-width="1.417" stroke-linecap="round" stroke-linejoin="round" mask="url(#mask-2)" points="251.522 311.565 274.321 311.565 274.321 309.284 251.522 309.284"></polygon>
                    <polygon id="Stroke-86" stroke="#F48266" stroke-width="1.417" stroke-linecap="round" stroke-linejoin="round" mask="url(#mask-2)" points="256.084 313.847 265.206 313.847 265.206 311.565 256.084 311.565"></polygon>
                    <polygon id="Stroke-87" stroke="#F48266" stroke-width="1.417" stroke-linecap="round" stroke-linejoin="round" mask="url(#mask-2)" points="251.522 313.847 274.321 313.847 274.321 311.565 251.522 311.565"></polygon>
                    <polygon id="Stroke-88" stroke="#F48266" stroke-width="1.417" stroke-linecap="round" stroke-linejoin="round" mask="url(#mask-2)" points="256.084 318.404 265.206 318.404 265.206 316.124 256.084 316.124"></polygon>
                    <polygon id="Stroke-89" stroke="#F48266" stroke-width="1.417" stroke-linecap="round" stroke-linejoin="round" mask="url(#mask-2)" points="251.522 318.404 274.321 318.404 274.321 316.124 251.522 316.124"></polygon>
                    <polygon id="Stroke-90" stroke="#F48266" stroke-width="1.417" stroke-linecap="round" stroke-linejoin="round" mask="url(#mask-2)" points="256.084 320.687 265.206 320.687 265.206 318.404 256.084 318.404"></polygon>
                    <polygon id="Stroke-91" stroke="#F48266" stroke-width="1.417" stroke-linecap="round" stroke-linejoin="round" mask="url(#mask-2)" points="256.084 332.088 265.206 332.088 265.206 329.808 256.084 329.808"></polygon>
                    <polygon id="Stroke-92" stroke="#F48266" stroke-width="1.417" stroke-linecap="round" stroke-linejoin="round" mask="url(#mask-2)" points="256.084 334.37 265.206 334.37 265.206 332.09 256.084 332.09"></polygon>
                    <polygon id="Stroke-93" stroke="#F48266" stroke-width="1.417" stroke-linecap="round" stroke-linejoin="round" mask="url(#mask-2)" points="251.522 332.088 274.321 332.088 274.321 329.808 251.522 329.808"></polygon>
                    <polygon id="Stroke-94" stroke="#F48266" stroke-width="1.417" stroke-linecap="round" stroke-linejoin="round" mask="url(#mask-2)" points="251.522 334.37 274.321 334.37 274.321 332.09 251.522 332.09"></polygon>
                    <polygon id="Stroke-95" stroke="#F48266" stroke-width="1.417" stroke-linecap="round" stroke-linejoin="round" mask="url(#mask-2)" points="256.084 325.249 265.206 325.249 265.206 322.968 256.084 322.968"></polygon>
                    <polygon id="Stroke-96" stroke="#F48266" stroke-width="1.417" stroke-linecap="round" stroke-linejoin="round" mask="url(#mask-2)" points="256.084 327.526 265.206 327.526 265.206 325.244 256.084 325.244"></polygon>
                    <polygon id="Stroke-97" stroke="#F48266" stroke-width="1.417" stroke-linecap="round" stroke-linejoin="round" mask="url(#mask-2)" points="251.522 320.687 274.321 320.687 274.321 318.404 251.522 318.404"></polygon>
                    <polygon id="Stroke-98" stroke="#F48266" stroke-width="1.417" stroke-linecap="round" stroke-linejoin="round" mask="url(#mask-2)" points="251.522 325.249 274.321 325.249 274.321 322.968 251.522 322.968"></polygon>
                    <polygon id="Stroke-99" stroke="#F48266" stroke-width="1.417" stroke-linecap="round" stroke-linejoin="round" mask="url(#mask-2)" points="251.522 327.526 274.321 327.526 274.321 325.244 251.522 325.244"></polygon>
                    <path d="M116.9954,322.9672 C116.9954,344.3752 134.3504,361.7322 155.7584,361.7322 C177.1614,361.7322 194.5184,344.3752 194.5184,322.9672 C194.5184,301.5592 177.1614,284.2022 155.7584,284.2022 C134.3504,284.2022 116.9954,301.5592 116.9954,322.9672" id="Stroke-100" stroke="#F48266" stroke-width="1.417" stroke-linecap="round" stroke-linejoin="round" mask="url(#mask-2)"></path>
                    <g id="Group-103" mask="url(#mask-2)">
                        <g transform="translate(242.000000, 295.000000)">
                            <path d="M66.5223,0.6069 L0.4013,0.6069 L0.4013,9.7269 L25.4823,9.7269 C30.0453,9.7269 34.6033,12.0079 34.6033,18.8479 L34.6033,43.9279 C32.8943,46.2089 30.0453,48.4859 25.4823,48.4859 L0.4013,48.4859 L0.4013,55.3309 L30.0453,55.3309 C36.8843,55.3309 41.4423,48.4859 41.4423,48.4859 C41.4423,48.4859 59.6833,30.2449 71.0853,18.8479 C82.4873,7.4459 80.2053,0.6069 66.5223,0.6069 M61.9643,16.5659 C57.4063,21.1239 50.5623,27.9679 48.2853,30.2449 C46.0043,32.5259 41.4423,34.8079 41.4423,25.6869 C41.4423,24.9469 41.4423,17.3419 41.4523,16.5659 C41.5253,10.1439 42.1823,9.7269 48.2853,9.7269 L61.9643,9.7269 C64.2453,9.7269 66.5223,12.0079 61.9643,16.5659" id="Fill-101" stroke="none" fill="#FFFFFF" fill-rule="evenodd"></path>
                            <path d="M66.5223,0.6069 L0.4013,0.6069 L0.4013,9.7269 L25.4823,9.7269 C30.0453,9.7269 34.6033,12.0079 34.6033,18.8479 L34.6033,43.9279 C32.8943,46.2089 30.0453,48.4859 25.4823,48.4859 L0.4013,48.4859 L0.4013,55.3309 L30.0453,55.3309 C36.8843,55.3309 41.4423,48.4859 41.4423,48.4859 C41.4423,48.4859 59.6833,30.2449 71.0853,18.8479 C82.4873,7.4459 80.2053,0.6069 66.5223,0.6069 M61.9643,16.5659 C57.4063,21.1239 50.5623,27.9679 48.2853,30.2449 C46.0043,32.5259 41.4423,34.8079 41.4423,25.6869 C41.4423,24.9469 41.4423,17.3419 41.4523,16.5659 C41.5253,10.1439 42.1823,9.7269 48.2853,9.7269 L61.9643,9.7269 C64.2453,9.7269 66.5223,12.0079 61.9643,16.5659" id="Stroke-102" stroke="#F48266" stroke-width="1.417" fill="none" stroke-linecap="round" stroke-linejoin="round"></path>
                        </g>
                    </g>
                    <g id="Group-106" mask="url(#mask-2)">
                        <g transform="translate(164.000000, 295.000000)">
                            <path d="M7.7171,18.8461 C19.1201,30.2481 37.3611,48.4901 37.3611,48.4901 C37.3611,48.4901 41.9191,55.3281 48.7581,55.3281 L78.4011,55.3281 L78.4011,48.4901 L53.3211,48.4901 C48.7581,48.4901 45.9081,46.2091 44.2001,43.9271 L44.2001,18.8461 C44.2001,12.0071 48.7581,9.7251 53.3211,9.7251 L78.4011,9.7251 L78.4011,0.6051 L12.2811,0.6051 C-1.4039,0.6051 -3.6849,7.4441 7.7171,18.8461 M16.8371,9.7251 L30.5161,9.7251 C36.6211,9.7251 37.2771,10.1421 37.3511,16.5651 C37.3611,17.3421 37.3611,24.9461 37.3611,25.6851 C37.3611,34.8061 32.7981,32.5241 30.5161,30.2481 C28.2411,27.9671 21.3951,21.1271 16.8371,16.5651 C12.2811,12.0071 14.5561,9.7251 16.8371,9.7251" id="Fill-104" stroke="none" fill="#FFFFFF" fill-rule="evenodd"></path>
                            <path d="M7.7171,18.8461 C19.1201,30.2481 37.3611,48.4901 37.3611,48.4901 C37.3611,48.4901 41.9191,55.3281 48.7581,55.3281 L78.4011,55.3281 L78.4011,48.4901 L53.3211,48.4901 C48.7581,48.4901 45.9081,46.2091 44.2001,43.9271 L44.2001,18.8461 C44.2001,12.0071 48.7581,9.7251 53.3211,9.7251 L78.4011,9.7251 L78.4011,0.6051 L12.2811,0.6051 C-1.4039,0.6051 -3.6849,7.4441 7.7171,18.8461 M16.8371,9.7251 L30.5161,9.7251 C36.6211,9.7251 37.2771,10.1421 37.3511,16.5651 C37.3611,17.3421 37.3611,24.9461 37.3611,25.6851 C37.3611,34.8061 32.7981,32.5241 30.5161,30.2481 C28.2411,27.9671 21.3951,21.1271 16.8371,16.5651 C12.2811,12.0071 14.5561,9.7251 16.8371,9.7251" id="Stroke-105" stroke="#F48266" stroke-width="1.417" fill="none" stroke-linecap="round" stroke-linejoin="round"></path>
                        </g>
                    </g>
                    <path d="M169.4373,332.0873 C169.4373,334.6033 167.3953,336.6453 164.8793,336.6453 L146.6383,336.6453 C144.1183,336.6453 142.0763,334.6033 142.0763,332.0873 L142.0763,313.8463 C142.0763,311.3233 144.1183,309.2883 146.6383,309.2883 L164.8793,309.2883 C167.3953,309.2883 169.4373,311.3233 169.4373,313.8463 L169.4373,332.0873 Z" id="Fill-107" fill="#FFFFFF" mask="url(#mask-2)"></path>
                    <path d="M169.4373,332.0873 C169.4373,334.6033 167.3953,336.6453 164.8793,336.6453 L146.6383,336.6453 C144.1183,336.6453 142.0763,334.6033 142.0763,332.0873 L142.0763,313.8463 C142.0763,311.3233 144.1183,309.2883 146.6383,309.2883 L164.8793,309.2883 C167.3953,309.2883 169.4373,311.3233 169.4373,313.8463 L169.4373,332.0873 Z" id="Stroke-108" stroke="#F48266" stroke-width="1.417" stroke-linecap="round" stroke-linejoin="round" mask="url(#mask-2)"></path>
                    <path d="M160.3167,322.9662 C160.3167,325.4832 158.2747,327.5242 155.7587,327.5242 C153.2387,327.5242 151.1967,325.4832 151.1967,322.9662 C151.1967,320.4452 153.2387,318.4082 155.7587,318.4082 C158.2747,318.4082 160.3167,320.4452 160.3167,322.9662" id="Stroke-109" stroke="#F48266" stroke-width="1.417" stroke-linecap="round" stroke-linejoin="round" mask="url(#mask-2)"></path>
                    <path d="M164.8782,322.9662 C164.8782,328.0022 160.7942,332.0862 155.7582,332.0862 C150.7192,332.0862 146.6362,328.0022 146.6362,322.9662 C146.6362,317.9302 150.7192,313.8462 155.7582,313.8462 C160.7942,313.8462 164.8782,317.9302 164.8782,322.9662" id="Stroke-110" stroke="#F48266" stroke-width="1.417" stroke-linecap="round" stroke-linejoin="round" mask="url(#mask-2)"></path>
                    <path d="M167.1575,322.9662 C167.1575,329.2642 162.0535,334.3682 155.7545,334.3682 C149.4575,334.3682 144.3585,329.2642 144.3585,322.9662 C144.3585,316.6682 149.4575,311.5652 155.7545,311.5652 C162.0535,311.5652 167.1575,316.6682 167.1575,322.9662" id="Stroke-111" stroke="#F48266" stroke-width="1.417" stroke-linecap="round" stroke-linejoin="round" mask="url(#mask-2)"></path>
                    <path d="M317.6458,322.9662 C317.6458,329.2642 322.7498,334.3682 329.0478,334.3682 C335.3448,334.3682 340.4448,329.2642 340.4448,322.9662 C340.4448,316.6682 335.3448,311.5652 329.0478,311.5652 C322.7498,311.5652 317.6458,316.6682 317.6458,322.9662" id="Stroke-112" stroke="#F48266" stroke-width="1.417" stroke-linecap="round" stroke-linejoin="round" mask="url(#mask-2)"></path>
                    <path d="M342.7259,332.0873 C342.7259,334.6033 340.6849,336.6453 338.1689,336.6453 L319.9269,336.6453 C317.4069,336.6453 315.3649,334.6033 315.3649,332.0873 L315.3649,313.8463 C315.3649,311.3233 317.4069,309.2883 319.9269,309.2883 L338.1689,309.2883 C340.6849,309.2883 342.7259,311.3233 342.7259,313.8463 L342.7259,332.0873 Z" id="Fill-113" fill="#FFFFFF" mask="url(#mask-2)"></path>
                    <path d="M342.7259,332.0873 C342.7259,334.6033 340.6849,336.6453 338.1689,336.6453 L319.9269,336.6453 C317.4069,336.6453 315.3649,334.6033 315.3649,332.0873 L315.3649,313.8463 C315.3649,311.3233 317.4069,309.2883 319.9269,309.2883 L338.1689,309.2883 C340.6849,309.2883 342.7259,311.3233 342.7259,313.8463 L342.7259,332.0873 Z" id="Stroke-114" stroke="#F48266" stroke-width="1.417" stroke-linecap="round" stroke-linejoin="round" mask="url(#mask-2)"></path>
                    <path d="M324.4852,322.9662 C324.4852,325.4832 326.5272,327.5242 329.0432,327.5242 C331.5652,327.5242 333.6072,325.4832 333.6072,322.9662 C333.6072,320.4452 331.5652,318.4082 329.0432,318.4082 C326.5272,318.4082 324.4852,320.4452 324.4852,322.9662" id="Stroke-115" stroke="#F48266" stroke-width="1.417" stroke-linecap="round" stroke-linejoin="round" mask="url(#mask-2)"></path>
                    <path d="M319.9256,322.9662 C319.9256,328.0022 324.0096,332.0862 329.0456,332.0862 C334.0826,332.0862 338.1666,328.0022 338.1666,322.9662 C338.1666,317.9302 334.0826,313.8462 329.0456,313.8462 C324.0096,313.8462 319.9256,317.9302 319.9256,322.9662" id="Stroke-116" stroke="#F48266" stroke-width="1.417" stroke-linecap="round" stroke-linejoin="round" mask="url(#mask-2)"></path>
                    <path d="M240.1214,197.3823 C240.1214,202.5173 235.7464,206.6803 230.3494,206.6803 L181.4914,206.6803 C176.0954,206.6803 171.7184,202.5173 171.7184,197.3823 L171.7184,97.4153 C171.7184,92.2783 176.0954,88.1163 181.4914,88.1163 L230.3494,88.1163 C235.7464,88.1163 240.1214,92.2783 240.1214,97.4153 L240.1214,197.3823 Z" id="Fill-117" fill="#FFFFFF" mask="url(#mask-2)"></path>
                    <path d="M240.1214,197.3823 C240.1214,202.5173 235.7464,206.6803 230.3494,206.6803 L181.4914,206.6803 C176.0954,206.6803 171.7184,202.5173 171.7184,197.3823 L171.7184,97.4153 C171.7184,92.2783 176.0954,88.1163 181.4914,88.1163 L230.3494,88.1163 C235.7464,88.1163 240.1214,92.2783 240.1214,97.4153 L240.1214,197.3823 Z" id="Stroke-118" stroke="#F48266" stroke-width="1.417" stroke-linecap="round" stroke-linejoin="round" mask="url(#mask-2)"></path>
                    <polygon id="Stroke-119" stroke="#F48266" stroke-width="1.417" stroke-linecap="round" stroke-linejoin="round" mask="url(#mask-2)" points="180.837 172.48 230.999 172.48 230.999 170.199 180.837 170.199"></polygon>
                    <polygon id="Stroke-120" stroke="#F48266" stroke-width="1.417" stroke-linecap="round" stroke-linejoin="round" mask="url(#mask-2)" points="180.837 165.641 230.999 165.641 230.999 163.36 180.837 163.36"></polygon>
                    <polygon id="Stroke-121" stroke="#F48266" stroke-width="1.417" stroke-linecap="round" stroke-linejoin="round" mask="url(#mask-2)" points="180.837 163.359 230.999 163.359 230.999 161.077 180.837 161.077"></polygon>
                    <polygon id="Stroke-122" stroke="#F48266" stroke-width="1.417" stroke-linecap="round" stroke-linejoin="round" mask="url(#mask-2)" points="180.837 156.52 230.999 156.52 230.999 154.237 180.837 154.237"></polygon>
                    <polygon id="Stroke-123" stroke="#F48266" stroke-width="1.417" stroke-linecap="round" stroke-linejoin="round" mask="url(#mask-2)" points="180.837 154.237 230.999 154.237 230.999 151.956 180.837 151.956"></polygon>
                    <polygon id="Stroke-124" stroke="#F48266" stroke-width="1.417" stroke-linecap="round" stroke-linejoin="round" mask="url(#mask-2)" points="180.837 147.398 230.999 147.398 230.999 145.116 180.837 145.116"></polygon>
                    <polygon id="Stroke-125" stroke="#F48266" stroke-width="1.417" stroke-linecap="round" stroke-linejoin="round" mask="url(#mask-2)" points="180.837 145.117 230.999 145.117 230.999 142.836 180.837 142.836"></polygon>
                    <polygon id="Stroke-126" stroke="#F48266" stroke-width="1.417" stroke-linecap="round" stroke-linejoin="round" mask="url(#mask-2)" points="180.837 138.278 230.999 138.278 230.999 135.997 180.837 135.997"></polygon>
                    <polygon id="Stroke-127" stroke="#F48266" stroke-width="1.417" stroke-linecap="round" stroke-linejoin="round" mask="url(#mask-2)" points="180.837 135.997 230.999 135.997 230.999 133.716 180.837 133.716"></polygon>
                    <polygon id="Stroke-128" stroke="#F48266" stroke-width="1.417" stroke-linecap="round" stroke-linejoin="round" mask="url(#mask-2)" points="180.837 129.157 230.999 129.157 230.999 126.876 180.837 126.876"></polygon>
                    <polygon id="Stroke-129" stroke="#F48266" stroke-width="1.417" stroke-linecap="round" stroke-linejoin="round" mask="url(#mask-2)" points="180.837 126.876 230.999 126.876 230.999 124.595 180.837 124.595"></polygon>
                    <polygon id="Stroke-130" stroke="#F48266" stroke-width="1.417" stroke-linecap="round" stroke-linejoin="round" mask="url(#mask-2)" points="180.837 120.037 230.999 120.037 230.999 117.756 180.837 117.756"></polygon>
                    <polygon id="Stroke-131" stroke="#F48266" stroke-width="1.417" stroke-linecap="round" stroke-linejoin="round" mask="url(#mask-2)" points="180.837 117.756 230.999 117.756 230.999 115.475 180.837 115.475"></polygon>
                    <polygon id="Stroke-132" stroke="#F48266" stroke-width="1.417" stroke-linecap="round" stroke-linejoin="round" mask="url(#mask-2)" points="180.837 110.916 230.999 110.916 230.999 108.635 180.837 108.635"></polygon>
                    <polygon id="Stroke-133" stroke="#F48266" stroke-width="1.417" stroke-linecap="round" stroke-linejoin="round" mask="url(#mask-2)" points="180.837 108.635 230.999 108.635 230.999 106.354 180.837 106.354"></polygon>
                    <polygon id="Stroke-134" stroke="#F48266" stroke-width="1.417" stroke-linecap="round" stroke-linejoin="round" mask="url(#mask-2)" points="180.837 101.796 230.999 101.796 230.999 99.515 180.837 99.515"></polygon>
                    <polygon id="Stroke-135" stroke="#F48266" stroke-width="1.417" stroke-linecap="round" stroke-linejoin="round" mask="url(#mask-2)" points="180.837 99.515 230.999 99.515 230.999 97.232 180.837 97.232"></polygon>
                    <polygon id="Stroke-136" stroke="#F48266" stroke-width="1.417" stroke-linecap="round" stroke-linejoin="round" mask="url(#mask-2)" points="180.837 174.761 230.999 174.761 230.999 172.48 180.837 172.48"></polygon>
                    <polygon id="Stroke-137" stroke="#F48266" stroke-width="1.417" stroke-linecap="round" stroke-linejoin="round" mask="url(#mask-2)" points="228.716 193.002 230.999 193.002 230.999 174.761 228.716 174.761"></polygon>
                    <polygon id="Stroke-138" stroke="#F48266" stroke-width="1.417" stroke-linecap="round" stroke-linejoin="round" mask="url(#mask-2)" points="180.838 193.002 183.119 193.002 183.119 174.761 180.838 174.761"></polygon>
                    <path d="M228.7225,88.1176 L183.1185,88.1176 C178.0825,88.1176 173.9985,92.2016 173.9985,97.2326 L173.9985,195.2836 C173.9985,200.3156 178.0825,204.3996 183.1185,204.3996 L228.7225,204.3996 C233.7585,204.3996 237.8385,200.3156 237.8385,195.2836 L237.8385,97.2326 C237.8385,92.2016 233.7585,88.1176 228.7225,88.1176" id="Stroke-139" stroke="#F48266" stroke-width="1.417" stroke-linecap="round" stroke-linejoin="round" mask="url(#mask-2)"></path>
                    <path d="M0.7083,300.1655 C0.7083,302.6815 2.7503,304.7235 5.2663,304.7235 L21.2313,304.7235 C23.7473,304.7235 25.7893,302.6815 25.7893,300.1655 L14.3863,279.6425 L14.3863,275.0855 L5.2663,275.0855 C2.7503,275.0855 0.7083,277.1215 0.7083,279.6425 L0.7083,300.1655 Z" id="Fill-140" fill="#FFFFFF" mask="url(#mask-2)"></path>
                    <path d="M0.7083,300.1655 C0.7083,302.6815 2.7503,304.7235 5.2663,304.7235 L21.2313,304.7235 C23.7473,304.7235 25.7893,302.6815 25.7893,300.1655 L14.3863,279.6425 L14.3863,275.0855 L5.2663,275.0855 C2.7503,275.0855 0.7083,277.1215 0.7083,279.6425 L0.7083,300.1655 Z" id="Stroke-141" stroke="#F48266" stroke-width="1.417" stroke-linecap="round" stroke-linejoin="round" mask="url(#mask-2)"></path>
                    <path d="M340.4456,322.9672 C340.4456,329.2642 335.3416,334.3672 329.0426,334.3672 C322.7456,334.3672 317.6466,329.2642 317.6466,322.9672 C317.6466,316.6692 322.7456,311.5652 329.0426,311.5652 C335.3416,311.5652 340.4456,316.6692 340.4456,322.9672" id="Stroke-142" stroke="#F48266" stroke-width="1.417" stroke-linecap="round" stroke-linejoin="round" mask="url(#mask-2)"></path>
                    <polygon id="Stroke-143" stroke="#F48266" stroke-width="1.417" stroke-linecap="round" stroke-linejoin="round" mask="url(#mask-2)" points="632.552 302.447 814.96 302.447 814.96 288.769 632.552 288.769"></polygon>
                    <polyline id="Stroke-144" stroke="#F48266" stroke-width="1.417" stroke-linecap="round" stroke-linejoin="round" mask="url(#mask-2)" points="562.4368 291.0453 1099.9748 291.0453 1099.9748 275.0863 562.4368 275.0863"></polyline>
                    <polygon id="Stroke-145" stroke="#F48266" stroke-width="1.417" stroke-linecap="round" stroke-linejoin="round" mask="url(#mask-2)" points="999.653 297.89 1138.74 297.89 1138.74 281.929 999.653 281.929"></polygon>
                    <polyline id="Stroke-146" stroke="#F48266" stroke-width="1.417" stroke-linecap="round" stroke-linejoin="round" mask="url(#mask-2)" points="562.4368 53.914 1115.9368 53.914 1115.9368 51.633 562.4368 51.633"></polyline>
                    <polyline id="Stroke-147" stroke="#F48266" stroke-width="1.417" stroke-linecap="round" stroke-linejoin="round" mask="url(#mask-2)" points="562.4368 51.6367 1115.9368 51.6367 1115.9368 49.3557 562.4368 49.3557"></polyline>
                    <polyline id="Stroke-148" stroke="#F48266" stroke-width="1.417" stroke-linecap="round" stroke-linejoin="round" mask="url(#mask-2)" points="562.4368 49.3559 1115.9368 49.3559 1115.9368 44.7979 562.4368 44.7979"></polyline>
                    <polyline id="Stroke-149" stroke="#F48266" stroke-width="1.417" stroke-linecap="round" stroke-linejoin="round" mask="url(#mask-2)" points="562.4368 78.9995 1115.9368 78.9995 1115.9368 76.7185 562.4368 76.7185"></polyline>
                    <polyline id="Stroke-150" stroke="#F48266" stroke-width="1.417" stroke-linecap="round" stroke-linejoin="round" mask="url(#mask-2)" points="562.4368 106.3564 1115.9368 106.3564 1115.9368 104.0744 562.4368 104.0744"></polyline>
                    <polyline id="Stroke-151" stroke="#F48266" stroke-width="1.417" stroke-linecap="round" stroke-linejoin="round" mask="url(#mask-2)" points="562.4368 135.9995 1115.9368 135.9995 1115.9368 133.7185 562.4368 133.7185"></polyline>
                    <polyline id="Stroke-152" stroke="#F48266" stroke-width="1.417" stroke-linecap="round" stroke-linejoin="round" mask="url(#mask-2)" points="562.4368 165.643 1115.9368 165.643 1115.9368 163.362 562.4368 163.362"></polyline>
                    <polyline id="Stroke-153" stroke="#F48266" stroke-width="1.417" stroke-linecap="round" stroke-linejoin="round" mask="url(#mask-2)" points="562.4368 163.3618 1115.9368 163.3618 1115.9368 158.8048 562.4368 158.8048"></polyline>
                    <polyline id="Stroke-154" stroke="#F48266" stroke-width="1.417" stroke-linecap="round" stroke-linejoin="round" mask="url(#mask-2)" points="562.4368 261.4076 1115.9368 261.4076 1115.9368 259.1266 562.4368 259.1266"></polyline>
                    <polyline id="Stroke-155" stroke="#F48266" stroke-width="1.417" stroke-linecap="round" stroke-linejoin="round" mask="url(#mask-2)" points="562.4368 259.1264 1115.9368 259.1264 1115.9368 254.5674 562.4368 254.5674"></polyline>
                    <polyline id="Stroke-156" stroke="#F48266" stroke-width="1.417" stroke-linecap="round" stroke-linejoin="round" mask="url(#mask-2)" points="562.4368 227.2065 1115.9368 227.2065 1115.9368 224.9245 562.4368 224.9245"></polyline>
                    <polyline id="Stroke-157" stroke="#F48266" stroke-width="1.417" stroke-linecap="round" stroke-linejoin="round" mask="url(#mask-2)" points="562.4368 224.9243 1115.9368 224.9243 1115.9368 220.3683 562.4368 220.3683"></polyline>
                    <polyline id="Stroke-158" stroke="#F48266" stroke-width="1.417" stroke-linecap="round" stroke-linejoin="round" mask="url(#mask-2)" points="562.4368 195.2812 1115.9368 195.2812 1115.9368 193.0002 562.4368 193.0002"></polyline>
                    <polyline id="Stroke-159" stroke="#F48266" stroke-width="1.417" stroke-linecap="round" stroke-linejoin="round" mask="url(#mask-2)" points="562.4368 193.0043 1115.9368 193.0043 1115.9368 188.4463 562.4368 188.4463"></polyline>
                    <polyline id="Stroke-160" stroke="#F48266" stroke-width="1.417" stroke-linecap="round" stroke-linejoin="round" mask="url(#mask-2)" points="562.4368 76.7182 1115.9368 76.7182 1115.9368 72.1612 562.4368 72.1612"></polyline>
                    <polyline id="Stroke-161" stroke="#F48266" stroke-width="1.417" stroke-linecap="round" stroke-linejoin="round" mask="url(#mask-2)" points="562.4368 104.08 1115.9368 104.08 1115.9368 99.522 562.4368 99.522"></polyline>
                    <polyline id="Stroke-162" stroke="#F48266" stroke-width="1.417" stroke-linecap="round" stroke-linejoin="round" mask="url(#mask-2)" points="562.4368 133.7182 1115.9368 133.7182 1115.9368 129.1602 562.4368 129.1602"></polyline>
                    <polyline id="Stroke-163" stroke="#F48266" stroke-width="1.417" stroke-linecap="round" stroke-linejoin="round" mask="url(#mask-2)" points="562.4368 6.0346 1118.2178 6.0346 1118.2178 1.4766 562.4368 1.4766"></polyline>
                    <polyline id="Stroke-164" stroke="#F48266" stroke-width="1.417" stroke-linecap="round" stroke-linejoin="round" mask="url(#mask-2)" points="562.4368 275.0863 1118.2178 275.0863 1118.2178 1.4713 562.4368 1.4713"></polyline>
                    <polygon id="Stroke-165" stroke="#F48266" stroke-width="1.417" stroke-linecap="round" stroke-linejoin="round" mask="url(#mask-2)" points="589.23 300.166 596.069 300.166 596.069 288.764 589.23 288.764"></polygon>
                    <polygon id="Stroke-166" stroke="#F48266" stroke-width="1.417" stroke-linecap="round" stroke-linejoin="round" mask="url(#mask-2)" points="586.949 309.287 607.47 309.287 607.47 304.728 586.949 304.728"></polygon>
                    <polygon id="Stroke-167" stroke="#F48266" stroke-width="1.417" stroke-linecap="round" stroke-linejoin="round" mask="url(#mask-2)" points="586.949 311.568 696.396 311.568 696.396 309.287 586.949 309.287"></polygon>
                    <polygon id="Stroke-168" stroke="#F48266" stroke-width="1.417" stroke-linecap="round" stroke-linejoin="round" mask="url(#mask-2)" points="659.914 313.85 662.195 313.85 662.195 288.768 659.914 288.768"></polygon>
                    <polygon id="Stroke-169" stroke="#F48266" stroke-width="1.417" stroke-linecap="round" stroke-linejoin="round" mask="url(#mask-2)" points="591.512 313.85 593.793 313.85 593.793 288.768 591.512 288.768"></polygon>
                    <polygon id="Stroke-170" stroke="#F48266" stroke-width="1.417" stroke-linecap="round" stroke-linejoin="round" mask="url(#mask-2)" points="682.713 313.85 689.552 313.85 689.552 295.608 682.713 295.608"></polygon>
                    <polygon id="Fill-171" fill="#FFFFFF" mask="url(#mask-2)" points="990.5301 302.4487 953.1671 302.6957 951.7621 345.5437 879.4931 345.0877 877.1291 302.8747 842.3231 304.7297 842.3231 284.2077 990.5301 284.2077"></polygon>
                    <polygon id="Stroke-172" stroke="#F48266" stroke-width="1.417" stroke-linecap="round" stroke-linejoin="round" mask="url(#mask-2)" points="990.5301 302.4487 953.1671 302.6957 951.7621 345.5437 879.4931 345.0877 877.1291 302.8747 842.3231 304.7297 842.3231 284.2077 990.5301 284.2077"></polygon>
                    <path d="M963.1688,322.9692 C963.1688,344.3772 980.5238,361.7342 1001.9338,361.7342 C1023.3368,361.7342 1040.6918,344.3772 1040.6918,322.9692 C1040.6918,301.5622 1023.3368,284.2042 1001.9338,284.2042 C980.5238,284.2042 963.1688,301.5622 963.1688,322.9692" id="Stroke-173" stroke="#F48266" stroke-width="1.417" stroke-linecap="round" stroke-linejoin="round" mask="url(#mask-2)"></path>
                    <g id="Group-176" mask="url(#mask-2)">
                        <g transform="translate(958.000000, 279.000000)">
                            <path d="M0.6092,43.9692 C0.6092,67.8922 20.0052,87.2912 43.9292,87.2912 C67.8602,87.2912 87.2532,67.8922 87.2532,43.9692 C87.2532,20.0392 67.8602,0.6492 43.9292,0.6492 C20.0052,0.6492 0.6092,20.0392 0.6092,43.9692" id="Fill-174" stroke="none" fill="#FFFFFF" fill-rule="evenodd"></path>
                            <path d="M0.6092,43.9692 C0.6092,67.8922 20.0052,87.2912 43.9292,87.2912 C67.8602,87.2912 87.2532,67.8922 87.2532,43.9692 C87.2532,20.0392 67.8602,0.6492 43.9292,0.6492 C20.0052,0.6492 0.6092,20.0392 0.6092,43.9692" id="Stroke-175" stroke="#F48266" stroke-width="1.417" fill="none" stroke-linecap="round" stroke-linejoin="round"></path>
                        </g>
                    </g>
                    <g id="Group-179" mask="url(#mask-2)">
                        <g transform="translate(785.000000, 279.000000)">
                            <path d="M86.9637,43.9692 C86.9637,67.8922 67.5667,87.2912 43.6427,87.2912 C19.7127,87.2912 0.3207,67.8922 0.3207,43.9692 C0.3207,20.0392 19.7127,0.6492 43.6427,0.6492 C67.5667,0.6492 86.9637,20.0392 86.9637,43.9692" id="Fill-177" stroke="none" fill="#FFFFFF" fill-rule="evenodd"></path>
                            <path d="M86.9637,43.9692 C86.9637,67.8922 67.5667,87.2912 43.6427,87.2912 C19.7127,87.2912 0.3207,67.8922 0.3207,43.9692 C0.3207,20.0392 19.7127,0.6492 43.6427,0.6492 C67.5667,0.6492 86.9637,20.0392 86.9637,43.9692" id="Stroke-178" stroke="#F48266" stroke-width="1.417" fill="none" stroke-linecap="round" stroke-linejoin="round"></path>
                        </g>
                    </g>
                    <polygon id="Stroke-180" stroke="#F48266" stroke-width="1.417" stroke-linecap="round" stroke-linejoin="round" mask="url(#mask-2)" points="1049.815 297.89 1088.579 297.89 1088.579 284.211 1049.815 284.211"></polygon>
                    <polygon id="Stroke-181" stroke="#F48266" stroke-width="1.417" stroke-linecap="round" stroke-linejoin="round" mask="url(#mask-2)" points="1145.579 300.166 1147.86 300.166 1147.86 284.206 1145.579 284.206"></polygon>
                    <polygon id="Stroke-182" stroke="#F48266" stroke-width="1.417" stroke-linecap="round" stroke-linejoin="round" mask="url(#mask-2)" points="1129.619 288.769 1145.579 288.769 1145.579 286.488 1129.619 286.488"></polygon>
                    <polygon id="Stroke-183" stroke="#F48266" stroke-width="1.417" stroke-linecap="round" stroke-linejoin="round" mask="url(#mask-2)" points="1125.061 291.045 1147.86 291.045 1147.86 288.764 1125.061 288.764"></polygon>
                    <polygon id="Stroke-184" stroke="#F48266" stroke-width="1.417" stroke-linecap="round" stroke-linejoin="round" mask="url(#mask-2)" points="1125.061 293.327 1147.86 293.327 1147.86 288.768 1125.061 288.768"></polygon>
                    <polygon id="Stroke-185" stroke="#F48266" stroke-width="1.417" stroke-linecap="round" stroke-linejoin="round" mask="url(#mask-2)" points="1129.615 300.166 1131.896 300.166 1131.896 281.925 1129.615 281.925"></polygon>
                    <polygon id="Stroke-186" stroke="#F48266" stroke-width="1.417" stroke-linecap="round" stroke-linejoin="round" mask="url(#mask-2)" points="1150.138 300.166 1152.418 300.166 1152.418 281.925 1150.138 281.925"></polygon>
                    <polygon id="Stroke-187" stroke="#F48266" stroke-width="1.417" stroke-linecap="round" stroke-linejoin="round" mask="url(#mask-2)" points="1129.619 281.929 1152.418 281.929 1152.418 279.649 1129.619 279.649"></polygon>
                    <polygon id="Stroke-188" stroke="#F48266" stroke-width="1.417" stroke-linecap="round" stroke-linejoin="round" mask="url(#mask-2)" points="1129.619 304.728 1152.418 304.728 1152.418 277.368 1129.619 277.368"></polygon>
                    <polygon id="Stroke-189" stroke="#F48266" stroke-width="1.417" stroke-linecap="round" stroke-linejoin="round" mask="url(#mask-2)" points="1102.258 293.327 1118.218 293.327 1118.218 284.207 1102.258 284.207"></polygon>
                    <polygon id="Stroke-190" stroke="#F48266" stroke-width="1.417" stroke-linecap="round" stroke-linejoin="round" mask="url(#mask-2)" points="1125.061 304.728 1147.86 304.728 1147.86 277.368 1125.061 277.368"></polygon>
                    <path d="M979.1297,309.2895 L1004.2097,309.2895 C1011.0487,309.2895 1008.7747,325.2485 1008.7747,325.2485 C1008.7747,325.2485 1022.4507,325.2485 1022.4507,311.5705 C1022.4507,302.4495 1013.3307,300.1685 1008.7747,300.1685 L979.1297,300.1685 L979.1297,309.2895 Z" id="Stroke-191" stroke="#F48266" stroke-width="1.417" stroke-linecap="round" stroke-linejoin="round" mask="url(#mask-2)"></path>
                    <path d="M967.7283,322.9692 C967.7283,341.8572 983.0413,357.1702 1001.9293,357.1702 C1020.8223,357.1702 1036.1293,341.8572 1036.1293,322.9692 C1036.1293,304.0772 1020.8223,288.7692 1001.9293,288.7692 C983.0413,288.7692 967.7283,304.0772 967.7283,322.9692" id="Stroke-192" stroke="#F48266" stroke-width="1.417" stroke-linecap="round" stroke-linejoin="round" mask="url(#mask-2)"></path>
                    <path d="M851.4422,309.2895 L826.3622,309.2895 C819.5232,309.2895 821.7982,325.2485 821.7982,325.2485 C821.7982,325.2485 808.1212,325.2485 808.1212,311.5705 C808.1212,302.4495 817.2412,300.1685 821.7982,300.1685 L851.4422,300.1685 L851.4422,309.2895 Z" id="Stroke-193" stroke="#F48266" stroke-width="1.417" stroke-linecap="round" stroke-linejoin="round" mask="url(#mask-2)"></path>
                    <path d="M862.8436,322.9692 C862.8436,341.8572 847.5296,357.1702 828.6416,357.1702 C809.7496,357.1702 794.4416,341.8572 794.4416,322.9692 C794.4416,304.0772 809.7496,288.7692 828.6416,288.7692 C847.5296,288.7692 862.8436,304.0772 862.8436,322.9692" id="Stroke-194" stroke="#F48266" stroke-width="1.417" stroke-linecap="round" stroke-linejoin="round" mask="url(#mask-2)"></path>
                    <path d="M867.4031,322.9692 C867.4031,344.3772 850.0481,361.7342 828.6401,361.7342 C807.2361,361.7342 789.8801,344.3772 789.8801,322.9692 C789.8801,301.5622 807.2361,284.2042 828.6401,284.2042 C850.0481,284.2042 867.4031,301.5622 867.4031,322.9692" id="Stroke-195" stroke="#F48266" stroke-width="1.417" stroke-linecap="round" stroke-linejoin="round" mask="url(#mask-2)"></path>
                    <polygon id="Stroke-196" stroke="#F48266" stroke-width="1.417" stroke-linecap="round" stroke-linejoin="round" mask="url(#mask-2)" points="924.407 288.769 949.487 288.769 949.487 286.488 924.407 286.488"></polygon>
                    <polygon id="Stroke-197" stroke="#F48266" stroke-width="1.417" stroke-linecap="round" stroke-linejoin="round" mask="url(#mask-2)" points="881.086 288.769 906.166 288.769 906.166 286.488 881.086 286.488"></polygon>
                    <path d="M890.2049,299.0287 C890.2049,299.6587 890.7139,300.1697 891.3449,300.1697 L939.2259,300.1697 C939.8559,300.1697 940.3649,299.6587 940.3649,299.0287 C940.3649,298.3987 939.8559,297.8877 939.2259,297.8877 L891.3449,297.8877 C890.7139,297.8877 890.2049,298.3987 890.2049,299.0287" id="Stroke-198" stroke="#F48266" stroke-width="1.417" stroke-linecap="round" stroke-linejoin="round" mask="url(#mask-2)"></path>
                    <path d="M883.3641,296.7475 C883.3641,298.6345 884.8951,300.1705 886.7871,300.1705 L946.0671,300.1705 C947.9591,300.1705 949.4851,298.6345 949.4851,296.7475 C949.4851,294.8625 947.9591,293.3245 946.0671,293.3245 L886.7871,293.3245 C884.8951,293.3245 883.3641,294.8625 883.3641,296.7475" id="Stroke-199" stroke="#F48266" stroke-width="1.417" stroke-linecap="round" stroke-linejoin="round" mask="url(#mask-2)"></path>
                    <polygon id="Stroke-200" stroke="#F48266" stroke-width="1.417" stroke-linecap="round" stroke-linejoin="round" mask="url(#mask-2)" points="928.965 311.568 938.085 311.568 938.085 309.287 928.965 309.287"></polygon>
                    <polygon id="Stroke-201" stroke="#F48266" stroke-width="1.417" stroke-linecap="round" stroke-linejoin="round" mask="url(#mask-2)" points="924.407 311.568 947.206 311.568 947.206 309.287 924.407 309.287"></polygon>
                    <polygon id="Stroke-202" stroke="#F48266" stroke-width="1.417" stroke-linecap="round" stroke-linejoin="round" mask="url(#mask-2)" points="928.965 313.85 938.085 313.85 938.085 311.568 928.965 311.568"></polygon>
                    <polygon id="Stroke-203" stroke="#F48266" stroke-width="1.417" stroke-linecap="round" stroke-linejoin="round" mask="url(#mask-2)" points="924.407 313.85 947.206 313.85 947.206 311.568 924.407 311.568"></polygon>
                    <polygon id="Stroke-204" stroke="#F48266" stroke-width="1.417" stroke-linecap="round" stroke-linejoin="round" mask="url(#mask-2)" points="928.965 318.407 938.085 318.407 938.085 316.126 928.965 316.126"></polygon>
                    <polygon id="Stroke-205" stroke="#F48266" stroke-width="1.417" stroke-linecap="round" stroke-linejoin="round" mask="url(#mask-2)" points="924.407 318.407 947.206 318.407 947.206 316.126 924.407 316.126"></polygon>
                    <polygon id="Stroke-206" stroke="#F48266" stroke-width="1.417" stroke-linecap="round" stroke-linejoin="round" mask="url(#mask-2)" points="928.965 320.69 938.085 320.69 938.085 318.407 928.965 318.407"></polygon>
                    <polygon id="Stroke-207" stroke="#F48266" stroke-width="1.417" stroke-linecap="round" stroke-linejoin="round" mask="url(#mask-2)" points="928.965 332.091 938.085 332.091 938.085 329.81 928.965 329.81"></polygon>
                    <polygon id="Stroke-208" stroke="#F48266" stroke-width="1.417" stroke-linecap="round" stroke-linejoin="round" mask="url(#mask-2)" points="928.965 334.372 938.085 334.372 938.085 332.091 928.965 332.091"></polygon>
                    <polygon id="Stroke-209" stroke="#F48266" stroke-width="1.417" stroke-linecap="round" stroke-linejoin="round" mask="url(#mask-2)" points="924.407 332.091 947.206 332.091 947.206 329.81 924.407 329.81"></polygon>
                    <polygon id="Stroke-210" stroke="#F48266" stroke-width="1.417" stroke-linecap="round" stroke-linejoin="round" mask="url(#mask-2)" points="924.407 334.372 947.206 334.372 947.206 332.091 924.407 332.091"></polygon>
                    <polygon id="Stroke-211" stroke="#F48266" stroke-width="1.417" stroke-linecap="round" stroke-linejoin="round" mask="url(#mask-2)" points="928.965 325.252 938.085 325.252 938.085 322.971 928.965 322.971"></polygon>
                    <polygon id="Stroke-212" stroke="#F48266" stroke-width="1.417" stroke-linecap="round" stroke-linejoin="round" mask="url(#mask-2)" points="928.965 327.529 938.085 327.529 938.085 325.247 928.965 325.247"></polygon>
                    <polygon id="Stroke-213" stroke="#F48266" stroke-width="1.417" stroke-linecap="round" stroke-linejoin="round" mask="url(#mask-2)" points="924.407 320.69 947.206 320.69 947.206 318.407 924.407 318.407"></polygon>
                    <polygon id="Stroke-214" stroke="#F48266" stroke-width="1.417" stroke-linecap="round" stroke-linejoin="round" mask="url(#mask-2)" points="924.407 325.252 947.206 325.252 947.206 322.971 924.407 322.971"></polygon>
                    <polygon id="Stroke-215" stroke="#F48266" stroke-width="1.417" stroke-linecap="round" stroke-linejoin="round" mask="url(#mask-2)" points="924.407 327.529 947.206 327.529 947.206 325.247 924.407 325.247"></polygon>
                    <polygon id="Stroke-216" stroke="#F48266" stroke-width="1.417" stroke-linecap="round" stroke-linejoin="round" mask="url(#mask-2)" points="915.287 327.529 919.845 327.529 919.845 304.728 915.287 304.728"></polygon>
                    <polygon id="Stroke-217" stroke="#F48266" stroke-width="1.417" stroke-linecap="round" stroke-linejoin="round" mask="url(#mask-2)" points="910.724 341.211 919.845 341.211 919.845 334.372 910.724 334.372"></polygon>
                    <polygon id="Stroke-218" stroke="#F48266" stroke-width="1.417" stroke-linecap="round" stroke-linejoin="round" mask="url(#mask-2)" points="910.724 327.529 915.282 327.529 915.282 304.728 910.724 304.728"></polygon>
                    <polygon id="Stroke-219" stroke="#F48266" stroke-width="1.417" stroke-linecap="round" stroke-linejoin="round" mask="url(#mask-2)" points="892.481 311.568 901.603 311.568 901.603 309.287 892.481 309.287"></polygon>
                    <polygon id="Stroke-220" stroke="#F48266" stroke-width="1.417" stroke-linecap="round" stroke-linejoin="round" mask="url(#mask-2)" points="883.367 311.568 906.166 311.568 906.166 309.287 883.367 309.287"></polygon>
                    <polygon id="Stroke-221" stroke="#F48266" stroke-width="1.417" stroke-linecap="round" stroke-linejoin="round" mask="url(#mask-2)" points="892.481 313.85 901.603 313.85 901.603 311.568 892.481 311.568"></polygon>
                    <polygon id="Stroke-222" stroke="#F48266" stroke-width="1.417" stroke-linecap="round" stroke-linejoin="round" mask="url(#mask-2)" points="883.367 313.85 906.166 313.85 906.166 311.568 883.367 311.568"></polygon>
                    <polygon id="Stroke-223" stroke="#F48266" stroke-width="1.417" stroke-linecap="round" stroke-linejoin="round" mask="url(#mask-2)" points="892.481 318.407 901.603 318.407 901.603 316.126 892.481 316.126"></polygon>
                    <polygon id="Stroke-224" stroke="#F48266" stroke-width="1.417" stroke-linecap="round" stroke-linejoin="round" mask="url(#mask-2)" points="883.367 318.407 906.166 318.407 906.166 316.126 883.367 316.126"></polygon>
                    <polygon id="Stroke-225" stroke="#F48266" stroke-width="1.417" stroke-linecap="round" stroke-linejoin="round" mask="url(#mask-2)" points="892.481 320.69 901.603 320.69 901.603 318.407 892.481 318.407"></polygon>
                    <polygon id="Stroke-226" stroke="#F48266" stroke-width="1.417" stroke-linecap="round" stroke-linejoin="round" mask="url(#mask-2)" points="892.481 332.091 901.603 332.091 901.603 329.81 892.481 329.81"></polygon>
                    <polygon id="Stroke-227" stroke="#F48266" stroke-width="1.417" stroke-linecap="round" stroke-linejoin="round" mask="url(#mask-2)" points="892.481 334.372 901.603 334.372 901.603 332.091 892.481 332.091"></polygon>
                    <polygon id="Stroke-228" stroke="#F48266" stroke-width="1.417" stroke-linecap="round" stroke-linejoin="round" mask="url(#mask-2)" points="883.367 332.091 906.166 332.091 906.166 329.81 883.367 329.81"></polygon>
                    <polygon id="Stroke-229" stroke="#F48266" stroke-width="1.417" stroke-linecap="round" stroke-linejoin="round" mask="url(#mask-2)" points="883.367 334.372 906.166 334.372 906.166 332.091 883.367 332.091"></polygon>
                    <polygon id="Stroke-230" stroke="#F48266" stroke-width="1.417" stroke-linecap="round" stroke-linejoin="round" mask="url(#mask-2)" points="892.481 325.252 901.603 325.252 901.603 322.971 892.481 322.971"></polygon>
                    <polygon id="Stroke-231" stroke="#F48266" stroke-width="1.417" stroke-linecap="round" stroke-linejoin="round" mask="url(#mask-2)" points="892.481 327.529 901.603 327.529 901.603 325.247 892.481 325.247"></polygon>
                    <polygon id="Stroke-232" stroke="#F48266" stroke-width="1.417" stroke-linecap="round" stroke-linejoin="round" mask="url(#mask-2)" points="883.367 320.69 906.166 320.69 906.166 318.407 883.367 318.407"></polygon>
                    <polygon id="Stroke-233" stroke="#F48266" stroke-width="1.417" stroke-linecap="round" stroke-linejoin="round" mask="url(#mask-2)" points="883.367 325.252 906.166 325.252 906.166 322.971 883.367 322.971"></polygon>
                    <polygon id="Stroke-234" stroke="#F48266" stroke-width="1.417" stroke-linecap="round" stroke-linejoin="round" mask="url(#mask-2)" points="883.367 327.529 906.166 327.529 906.166 325.247 883.367 325.247"></polygon>
                    <path d="M1040.6923,322.9702 C1040.6923,344.3782 1023.3373,361.7352 1001.9293,361.7352 C980.5263,361.7352 963.1693,344.3782 963.1693,322.9702 C963.1693,301.5622 980.5263,284.2052 1001.9293,284.2052 C1023.3373,284.2052 1040.6923,301.5622 1040.6923,322.9702" id="Stroke-235" stroke="#F48266" stroke-width="1.417" stroke-linecap="round" stroke-linejoin="round" mask="url(#mask-2)"></path>
                    <g id="Group-238" mask="url(#mask-2)">
                        <g transform="translate(837.000000, 295.000000)">
                            <path d="M12.1649,0.6098 C-1.5181,0.6098 -3.8001,7.4488 7.6029,18.8508 C19.0039,30.2478 37.2449,48.4888 37.2449,48.4888 C37.2449,48.4888 41.8039,55.3338 48.6429,55.3338 L78.2859,55.3338 L78.2859,48.4888 L53.2049,48.4888 C48.6429,48.4888 45.7929,46.2118 44.0839,43.9298 L44.0839,18.8508 C44.0839,12.0108 48.6429,9.7298 53.2049,9.7298 L78.2859,9.7298 L78.2859,0.6098 L12.1649,0.6098 M16.7239,16.5688 C12.1649,12.0108 14.4419,9.7298 16.7239,9.7298 L30.4019,9.7298 C36.5049,9.7298 37.1619,10.1468 37.2349,16.5688 C37.2449,17.3438 37.2449,24.9498 37.2449,25.6898 C37.2449,34.8108 32.6839,32.5288 30.4019,30.2478 L16.7239,16.5688" id="Fill-236" stroke="none" fill="#FFFFFF" fill-rule="evenodd"></path>
                            <path d="M12.1649,0.6098 C-1.5181,0.6098 -3.8001,7.4488 7.6029,18.8508 C19.0039,30.2478 37.2449,48.4888 37.2449,48.4888 C37.2449,48.4888 41.8039,55.3338 48.6429,55.3338 L78.2859,55.3338 L78.2859,48.4888 L53.2049,48.4888 C48.6429,48.4888 45.7929,46.2118 44.0839,43.9298 L44.0839,18.8508 C44.0839,12.0108 48.6429,9.7298 53.2049,9.7298 L78.2859,9.7298 L78.2859,0.6098 L12.1649,0.6098 M16.7239,16.5688 C12.1649,12.0108 14.4419,9.7298 16.7239,9.7298 L30.4019,9.7298 C36.5049,9.7298 37.1619,10.1468 37.2349,16.5688 C37.2449,17.3438 37.2449,24.9498 37.2449,25.6898 C37.2449,34.8108 32.6839,32.5288 30.4019,30.2478 L16.7239,16.5688" id="Stroke-237" stroke="#F48266" stroke-width="1.417" fill="none" stroke-linecap="round" stroke-linejoin="round"></path>
                        </g>
                    </g>
                    <g id="Group-241" mask="url(#mask-2)">
                        <g transform="translate(915.000000, 295.000000)">
                            <path d="M70.9705,18.8491 C82.3715,7.4471 80.0915,0.6081 66.4065,0.6081 L0.2855,0.6081 L0.2855,9.7281 L25.3665,9.7281 C29.9295,9.7281 34.4875,12.0101 34.4875,18.8491 L34.4875,43.9301 C32.7795,46.2111 29.9295,48.4931 25.3665,48.4931 L0.2855,48.4931 L0.2855,55.3311 L29.9295,55.3311 C36.7685,55.3311 41.3255,48.4931 41.3255,48.4931 C41.3255,48.4931 59.5675,30.2511 70.9705,18.8491 M61.8505,9.7281 C64.1315,9.7281 66.4065,12.0101 61.8505,16.5681 C57.2915,21.1291 50.4465,27.9701 48.1715,30.2511 C45.8895,32.5271 41.3255,34.8091 41.3255,25.6881 C41.3255,24.9491 41.3255,17.3451 41.3365,16.5681 C41.4095,10.1451 42.0665,9.7281 48.1715,9.7281 L61.8505,9.7281" id="Fill-239" stroke="none" fill="#FFFFFF" fill-rule="evenodd"></path>
                            <path d="M70.9705,18.8491 C82.3715,7.4471 80.0915,0.6081 66.4065,0.6081 L0.2855,0.6081 L0.2855,9.7281 L25.3665,9.7281 C29.9295,9.7281 34.4875,12.0101 34.4875,18.8491 L34.4875,43.9301 C32.7795,46.2111 29.9295,48.4931 25.3665,48.4931 L0.2855,48.4931 L0.2855,55.3311 L29.9295,55.3311 C36.7685,55.3311 41.3255,48.4931 41.3255,48.4931 C41.3255,48.4931 59.5675,30.2511 70.9705,18.8491 M61.8505,9.7281 C64.1315,9.7281 66.4065,12.0101 61.8505,16.5681 C57.2915,21.1291 50.4465,27.9701 48.1715,30.2511 C45.8895,32.5271 41.3255,34.8091 41.3255,25.6881 C41.3255,24.9491 41.3255,17.3451 41.3365,16.5681 C41.4095,10.1451 42.0665,9.7281 48.1715,9.7281 L61.8505,9.7281" id="Stroke-240" stroke="#F48266" stroke-width="1.417" fill="none" stroke-linecap="round" stroke-linejoin="round"></path>
                        </g>
                    </g>
                    <path d="M988.2498,332.0903 C988.2498,334.6063 990.2918,336.6483 992.8088,336.6483 L1011.0498,336.6483 C1013.5688,336.6483 1015.6108,334.6063 1015.6108,332.0903 L1015.6108,313.8493 C1015.6108,311.3263 1013.5688,309.2903 1011.0498,309.2903 L992.8088,309.2903 C990.2918,309.2903 988.2498,311.3263 988.2498,313.8493 L988.2498,332.0903 Z" id="Fill-242" fill="#FFFFFF" mask="url(#mask-2)"></path>
                    <path d="M988.2498,332.0903 C988.2498,334.6063 990.2918,336.6483 992.8088,336.6483 L1011.0498,336.6483 C1013.5688,336.6483 1015.6108,334.6063 1015.6108,332.0903 L1015.6108,313.8493 C1015.6108,311.3263 1013.5688,309.2903 1011.0498,309.2903 L992.8088,309.2903 C990.2918,309.2903 988.2498,311.3263 988.2498,313.8493 L988.2498,332.0903 Z" id="Stroke-243" stroke="#F48266" stroke-width="1.417" stroke-linecap="round" stroke-linejoin="round" mask="url(#mask-2)"></path>
                    <path d="M997.3709,322.9692 C997.3709,325.4862 999.4129,327.5272 1001.9289,327.5272 C1004.4489,327.5272 1006.4909,325.4862 1006.4909,322.9692 C1006.4909,320.4482 1004.4489,318.4112 1001.9289,318.4112 C999.4129,318.4112 997.3709,320.4482 997.3709,322.9692" id="Stroke-244" stroke="#F48266" stroke-width="1.417" stroke-linecap="round" stroke-linejoin="round" mask="url(#mask-2)"></path>
                    <path d="M992.8094,322.9692 C992.8094,328.0052 996.8934,332.0892 1001.9294,332.0892 C1006.9684,332.0892 1011.0514,328.0052 1011.0514,322.9692 C1011.0514,317.9322 1006.9684,313.8482 1001.9294,313.8482 C996.8934,313.8482 992.8094,317.9322 992.8094,322.9692" id="Stroke-245" stroke="#F48266" stroke-width="1.417" stroke-linecap="round" stroke-linejoin="round" mask="url(#mask-2)"></path>
                    <path d="M990.5301,322.9692 C990.5301,329.2662 995.6341,334.3712 1001.9321,334.3712 C1008.2301,334.3712 1013.3291,329.2662 1013.3291,322.9692 C1013.3291,316.6712 1008.2301,311.5682 1001.9321,311.5682 C995.6341,311.5682 990.5301,316.6712 990.5301,322.9692" id="Stroke-246" stroke="#F48266" stroke-width="1.417" stroke-linecap="round" stroke-linejoin="round" mask="url(#mask-2)"></path>
                    <path d="M840.0418,322.9692 C840.0418,329.2662 834.9378,334.3712 828.6398,334.3712 C822.3428,334.3712 817.2428,329.2662 817.2428,322.9692 C817.2428,316.6712 822.3428,311.5682 828.6398,311.5682 C834.9378,311.5682 840.0418,316.6712 840.0418,322.9692" id="Stroke-247" stroke="#F48266" stroke-width="1.417" stroke-linecap="round" stroke-linejoin="round" mask="url(#mask-2)"></path>
                    <path d="M814.9617,332.0903 C814.9617,334.6063 817.0027,336.6483 819.5187,336.6483 L837.7607,336.6483 C840.2797,336.6483 842.3227,334.6063 842.3227,332.0903 L842.3227,313.8493 C842.3227,311.3263 840.2797,309.2903 837.7607,309.2903 L819.5187,309.2903 C817.0027,309.2903 814.9617,311.3263 814.9617,313.8493 L814.9617,332.0903 Z" id="Fill-248" fill="#FFFFFF" mask="url(#mask-2)"></path>
                    <path d="M814.9617,332.0903 C814.9617,334.6063 817.0027,336.6483 819.5187,336.6483 L837.7607,336.6483 C840.2797,336.6483 842.3227,334.6063 842.3227,332.0903 L842.3227,313.8493 C842.3227,311.3263 840.2797,309.2903 837.7607,309.2903 L819.5187,309.2903 C817.0027,309.2903 814.9617,311.3263 814.9617,313.8493 L814.9617,332.0903 Z" id="Stroke-249" stroke="#F48266" stroke-width="1.417" stroke-linecap="round" stroke-linejoin="round" mask="url(#mask-2)"></path>
                    <path d="M833.202,322.9692 C833.202,325.4862 831.16,327.5272 828.644,327.5272 C826.123,327.5272 824.081,325.4862 824.081,322.9692 C824.081,320.4482 826.123,318.4112 828.644,318.4112 C831.16,318.4112 833.202,320.4482 833.202,322.9692" id="Stroke-250" stroke="#F48266" stroke-width="1.417" stroke-linecap="round" stroke-linejoin="round" mask="url(#mask-2)"></path>
                    <path d="M837.7615,322.9692 C837.7615,328.0052 833.6775,332.0892 828.6425,332.0892 C823.6055,332.0892 819.5215,328.0052 819.5215,322.9692 C819.5215,317.9322 823.6055,313.8482 828.6425,313.8482 C833.6775,313.8482 837.7615,317.9322 837.7615,322.9692" id="Stroke-251" stroke="#F48266" stroke-width="1.417" stroke-linecap="round" stroke-linejoin="round" mask="url(#mask-2)"></path>
                    <path d="M917.5662,197.3852 C917.5662,202.5202 921.9412,206.6832 927.3382,206.6832 L976.1962,206.6832 C981.5922,206.6832 985.9692,202.5202 985.9692,197.3852 L985.9692,97.4182 C985.9692,92.2812 981.5922,88.1192 976.1962,88.1192 L927.3382,88.1192 C921.9412,88.1192 917.5662,92.2812 917.5662,97.4182 L917.5662,197.3852 Z" id="Fill-252" fill="#FFFFFF" mask="url(#mask-2)"></path>
                    <path d="M917.5662,197.3852 C917.5662,202.5202 921.9412,206.6832 927.3382,206.6832 L976.1962,206.6832 C981.5922,206.6832 985.9692,202.5202 985.9692,197.3852 L985.9692,97.4182 C985.9692,92.2812 981.5922,88.1192 976.1962,88.1192 L927.3382,88.1192 C921.9412,88.1192 917.5662,92.2812 917.5662,97.4182 L917.5662,197.3852 Z" id="Stroke-253" stroke="#F48266" stroke-width="1.417" stroke-linecap="round" stroke-linejoin="round" mask="url(#mask-2)"></path>
                    <polygon id="Stroke-254" stroke="#F48266" stroke-width="1.417" stroke-linecap="round" stroke-linejoin="round" mask="url(#mask-2)" points="926.688 172.483 976.85 172.483 976.85 170.202 926.688 170.202"></polygon>
                    <polygon id="Stroke-255" stroke="#F48266" stroke-width="1.417" stroke-linecap="round" stroke-linejoin="round" mask="url(#mask-2)" points="926.688 165.643 976.85 165.643 976.85 163.362 926.688 163.362"></polygon>
                    <polygon id="Stroke-256" stroke="#F48266" stroke-width="1.417" stroke-linecap="round" stroke-linejoin="round" mask="url(#mask-2)" points="926.688 163.362 976.85 163.362 976.85 161.08 926.688 161.08"></polygon>
                    <polygon id="Stroke-257" stroke="#F48266" stroke-width="1.417" stroke-linecap="round" stroke-linejoin="round" mask="url(#mask-2)" points="926.688 156.523 976.85 156.523 976.85 154.24 926.688 154.24"></polygon>
                    <polygon id="Stroke-258" stroke="#F48266" stroke-width="1.417" stroke-linecap="round" stroke-linejoin="round" mask="url(#mask-2)" points="926.688 154.24 976.85 154.24 976.85 151.959 926.688 151.959"></polygon>
                    <polygon id="Stroke-259" stroke="#F48266" stroke-width="1.417" stroke-linecap="round" stroke-linejoin="round" mask="url(#mask-2)" points="926.688 147.401 976.85 147.401 976.85 145.119 926.688 145.119"></polygon>
                    <polygon id="Stroke-260" stroke="#F48266" stroke-width="1.417" stroke-linecap="round" stroke-linejoin="round" mask="url(#mask-2)" points="926.688 145.12 976.85 145.12 976.85 142.839 926.688 142.839"></polygon>
                    <polygon id="Stroke-261" stroke="#F48266" stroke-width="1.417" stroke-linecap="round" stroke-linejoin="round" mask="url(#mask-2)" points="926.688 138.281 976.85 138.281 976.85 136 926.688 136"></polygon>
                    <polygon id="Stroke-262" stroke="#F48266" stroke-width="1.417" stroke-linecap="round" stroke-linejoin="round" mask="url(#mask-2)" points="926.688 135.999 976.85 135.999 976.85 133.718 926.688 133.718"></polygon>
                    <polygon id="Stroke-263" stroke="#F48266" stroke-width="1.417" stroke-linecap="round" stroke-linejoin="round" mask="url(#mask-2)" points="926.688 129.16 976.85 129.16 976.85 126.879 926.688 126.879"></polygon>
                    <polygon id="Stroke-264" stroke="#F48266" stroke-width="1.417" stroke-linecap="round" stroke-linejoin="round" mask="url(#mask-2)" points="926.688 126.878 976.85 126.878 976.85 124.597 926.688 124.597"></polygon>
                    <polygon id="Stroke-265" stroke="#F48266" stroke-width="1.417" stroke-linecap="round" stroke-linejoin="round" mask="url(#mask-2)" points="926.688 120.039 976.85 120.039 976.85 117.758 926.688 117.758"></polygon>
                    <polygon id="Stroke-266" stroke="#F48266" stroke-width="1.417" stroke-linecap="round" stroke-linejoin="round" mask="url(#mask-2)" points="926.688 117.758 976.85 117.758 976.85 115.477 926.688 115.477"></polygon>
                    <polygon id="Stroke-267" stroke="#F48266" stroke-width="1.417" stroke-linecap="round" stroke-linejoin="round" mask="url(#mask-2)" points="926.688 110.919 976.85 110.919 976.85 108.638 926.688 108.638"></polygon>
                    <polygon id="Stroke-268" stroke="#F48266" stroke-width="1.417" stroke-linecap="round" stroke-linejoin="round" mask="url(#mask-2)" points="926.688 108.638 976.85 108.638 976.85 106.357 926.688 106.357"></polygon>
                    <polygon id="Stroke-269" stroke="#F48266" stroke-width="1.417" stroke-linecap="round" stroke-linejoin="round" mask="url(#mask-2)" points="926.688 101.798 976.85 101.798 976.85 99.517 926.688 99.517"></polygon>
                    <polygon id="Stroke-270" stroke="#F48266" stroke-width="1.417" stroke-linecap="round" stroke-linejoin="round" mask="url(#mask-2)" points="926.688 99.518 976.85 99.518 976.85 97.235 926.688 97.235"></polygon>
                    <polygon id="Stroke-271" stroke="#F48266" stroke-width="1.417" stroke-linecap="round" stroke-linejoin="round" mask="url(#mask-2)" points="926.688 174.764 976.85 174.764 976.85 172.483 926.688 172.483"></polygon>
                    <polygon id="Stroke-272" stroke="#F48266" stroke-width="1.417" stroke-linecap="round" stroke-linejoin="round" mask="url(#mask-2)" points="926.688 193.005 928.971 193.005 928.971 174.764 926.688 174.764"></polygon>
                    <polygon id="Stroke-273" stroke="#F48266" stroke-width="1.417" stroke-linecap="round" stroke-linejoin="round" mask="url(#mask-2)" points="974.569 193.005 976.849 193.005 976.849 174.764 974.569 174.764"></polygon>
                    <path d="M928.9647,88.1201 L974.5687,88.1201 C979.6057,88.1201 983.6897,92.2041 983.6897,97.2351 L983.6897,195.2861 C983.6897,200.3181 979.6057,204.4021 974.5687,204.4021 L928.9647,204.4021 C923.9297,204.4021 919.8497,200.3181 919.8497,195.2861 L919.8497,97.2351 C919.8497,92.2041 923.9297,88.1201 928.9647,88.1201" id="Stroke-274" stroke="#F48266" stroke-width="1.417" stroke-linecap="round" stroke-linejoin="round" mask="url(#mask-2)"></path>
                    <path d="M1156.9794,300.1684 C1156.9794,302.6844 1154.9374,304.7264 1152.4204,304.7264 L1136.4564,304.7264 C1133.9404,304.7264 1131.8984,302.6844 1131.8984,300.1684 L1143.3004,279.6454 L1143.3004,275.0874 L1152.4204,275.0874 C1154.9374,275.0874 1156.9794,277.1244 1156.9794,279.6454 L1156.9794,300.1684 Z" id="Fill-275" fill="#FFFFFF" mask="url(#mask-2)"></path>
                    <path d="M1156.9794,300.1684 C1156.9794,302.6844 1154.9374,304.7264 1152.4204,304.7264 L1136.4564,304.7264 C1133.9404,304.7264 1131.8984,302.6844 1131.8984,300.1684 L1143.3004,279.6454 L1143.3004,275.0874 L1152.4204,275.0874 C1154.9374,275.0874 1156.9794,277.1244 1156.9794,279.6454 L1156.9794,300.1684 Z" id="Stroke-276" stroke="#F48266" stroke-width="1.417" stroke-linecap="round" stroke-linejoin="round" mask="url(#mask-2)"></path>
                    <path d="M817.242,322.9702 C817.242,329.2672 822.346,334.3702 828.645,334.3702 C834.942,334.3702 840.041,329.2672 840.041,322.9702 C840.041,316.6722 834.942,311.5682 828.645,311.5682 C822.346,311.5682 817.242,316.6722 817.242,322.9702" id="Stroke-277" stroke="#F48266" stroke-width="1.417" stroke-linecap="round" stroke-linejoin="round" mask="url(#mask-2)"></path>
                </g>
            </g>
        </g>
    </g>
</svg>