<?xml version="1.0" encoding="UTF-8"?>
<svg width="568px" height="360px" viewBox="0 0 568 360" version="1.1" xmlns="http://www.w3.org/2000/svg" xmlns:xlink="http://www.w3.org/1999/xlink">
    <!-- Generator: sketchtool 46.2 (44496) - http://www.bohemiancoding.com/sketch -->
    <title>E8CA6CE2-57FD-4DD8-A83D-082AB9E209D6</title>
    <desc>Created with sketchtool.</desc>
    <defs>
        <polygon id="path-1" points="27.376 32.3773 27.376 0.7873 0.6435 0.7873 0.6435 32.3773 27.376 32.3773"></polygon>
        <polygon id="path-3" points="0 360 567.376 360 567.376 0.307 0 0.307"></polygon>
        <polygon id="path-5" points="0 360 567.376 360 567.376 0.307 0 0.307"></polygon>
    </defs>
    <g id="Page-1" stroke="none" stroke-width="1" fill="none" fill-rule="evenodd">
        <g id="MainPage-vagon-4" transform="translate(-722.000000, -176.000000)">
            <g id="Color" transform="translate(722.000000, 175.000000)">
                <polygon id="Fill-1" fill="#6E6E71" points="44.853 3.431 47.282 3.431 47.282 1.001 44.853 1.001"></polygon>
                <polygon id="Fill-2" fill="#6E6E71" points="115.332 3.431 117.763 3.431 117.763 1.001 115.332 1.001"></polygon>
                <polygon id="Fill-3" fill="#7F8183" points="25.412 3.431 27.843 3.431 27.843 1.001 25.412 1.001"></polygon>
                <polygon id="Fill-4" fill="#7F8183" points="49.716 3.431 52.146 3.431 52.146 1.001 49.716 1.001"></polygon>
                <polygon id="Fill-5" fill="#7F8183" points="37.564 3.431 39.993 3.431 39.993 1.001 37.564 1.001"></polygon>
                <polygon id="Fill-6" fill="#7F8183" points="44.853 5.86 47.283 5.86 47.283 3.43 44.853 3.43"></polygon>
                <polygon id="Fill-7" fill="#221F20" points="81.307 3.431 83.737 3.431 83.737 1.001 81.307 1.001"></polygon>
                <polygon id="Fill-8" fill="#221F20" points="66.727 8.294 69.157 8.294 69.157 5.864 66.727 5.864"></polygon>
                <polygon id="Fill-9" fill="#221F20" points="74.02 3.431 76.45 3.431 76.45 1.001 74.02 1.001"></polygon>
                <polygon id="Fill-10" fill="#221F20" points="61.867 3.431 64.298 3.431 64.298 1.001 61.867 1.001"></polygon>
                <polygon id="Fill-11" fill="#221F20" points="52.147 3.431 54.575 3.431 54.575 1.001 52.147 1.001"></polygon>
                <polygon id="Fill-12" fill="#221F20" points="57.004 5.86 59.434 5.86 59.434 3.43 57.004 3.43"></polygon>
                <polygon id="Fill-13" fill="#221F20" points="105.61 3.431 108.04 3.431 108.04 1.001 105.61 1.001"></polygon>
                <polygon id="Fill-14" fill="#221F20" points="93.46 3.431 95.89 3.431 95.89 1.001 93.46 1.001"></polygon>
                <polygon id="Fill-15" fill="#221F20" points="100.753 5.86 103.183 5.86 103.183 3.43 100.753 3.43"></polygon>
                <polygon id="Fill-16" fill="#1F2D3D" points="533.352 295.072 557.655 295.072 557.655 265.91 533.352 265.91"></polygon>
                <polygon id="Fill-17" fill="#000000" points="433.708 287.785 547.933 287.785 547.933 270.773 433.708 270.773"></polygon>
                <polygon id="Fill-18" fill="#000000" points="521.2 307.223 526.059 307.223 526.059 273.198 521.2 273.198"></polygon>
                <polygon id="Fill-19" fill="#65605E" points="509.049 282.92 526.059 282.92 526.059 273.197 509.049 273.197"></polygon>
                <g id="Group-96" transform="translate(0.000000, 0.693000)">
                    <g id="Group-22" transform="translate(540.000000, 262.000000)">
                        <mask id="mask-2" fill="white">
                            <use xlink:href="#path-1"></use>
                        </mask>
                        <g id="Clip-21"></g>
                        <path d="M27.3765,27.5193 C27.3765,30.2033 25.2015,32.3773 22.5185,32.3773 L5.5025,32.3773 C2.8205,32.3773 0.6435,30.2033 0.6435,27.5193 L12.7955,5.6443 L12.7955,0.7873 L22.5185,0.7873 C25.2015,0.7873 27.3765,2.9613 27.3765,5.6443 L27.3765,27.5193 Z" id="Fill-20" fill="#494C55" mask="url(#mask-2)"></path>
                    </g>
                    <mask id="mask-4" fill="white">
                        <use xlink:href="#path-3"></use>
                    </mask>
                    <g id="Clip-24"></g>
                    <polygon id="Fill-23" fill="#65605E" mask="url(#mask-4)" points="538.21 294.379 562.513 294.379 562.513 265.217 538.21 265.217"></polygon>
                    <polygon id="Fill-25" fill="#837F7D" mask="url(#mask-4)" points="538.21 270.075 562.513 270.075 562.513 267.645 538.21 267.645"></polygon>
                    <polygon id="Fill-26" fill="#837F7D" mask="url(#mask-4)" points="560.085 289.519 562.513 289.519 562.513 270.075 560.085 270.075"></polygon>
                    <polygon id="Fill-27" fill="#989495" mask="url(#mask-4)" points="538.215 289.519 540.645 289.519 540.645 270.075 538.215 270.075"></polygon>
                    <polygon id="Fill-28" fill="#1F2D3D" mask="url(#mask-4)" points="533.352 282.227 557.655 282.227 557.655 277.368 533.352 277.368"></polygon>
                    <polygon id="Fill-29" fill="#000000" mask="url(#mask-4)" points="533.352 279.798 557.655 279.798 557.655 277.368 533.352 277.368"></polygon>
                    <polygon id="Fill-30" fill="#837F7D" mask="url(#mask-4)" points="538.215 277.368 555.225 277.368 555.225 274.938 538.215 274.938"></polygon>
                    <polygon id="Fill-31" fill="#1F2D3D" mask="url(#mask-4)" points="555.226 289.519 557.655 289.519 557.655 272.509 555.226 272.509"></polygon>
                    <polygon id="Fill-32" fill="#000000" mask="url(#mask-4)" points="-0.001 279.798 509.048 279.798 509.048 262.788 -0.001 262.788"></polygon>
                    <polygon id="Fill-33" fill="#000000" mask="url(#mask-4)" points="290.3169 291.949 336.4959 338.126 404.5429 338.126 448.2919 294.379 448.2919 272.504 290.3169 272.504"></polygon>
                    <path d="M416.6958,313.823 C416.6958,339.322 437.3718,360 462.8728,360 C488.3788,360 509.0498,339.322 509.0498,313.823 C509.0498,288.322 488.3788,267.644 462.8728,267.644 C437.3718,267.644 416.6958,288.322 416.6958,313.823" id="Fill-34" fill="#192239" mask="url(#mask-4)"></path>
                    <path d="M421.5562,313.823 C421.5562,336.64 440.0512,355.136 462.8702,355.136 C485.6872,355.136 504.1902,336.64 504.1902,313.823 C504.1902,291.004 485.6872,272.508 462.8702,272.508 C440.0512,272.508 421.5562,291.004 421.5562,313.823" id="Fill-35" fill="#7C7C7D" mask="url(#mask-4)"></path>
                    <path d="M426.4175,313.823 C426.4175,333.957 442.7435,350.277 462.8705,350.277 C483.0075,350.277 499.3275,333.957 499.3275,313.823 C499.3275,293.687 483.0075,277.367 462.8705,277.367 C442.7435,277.367 426.4175,293.687 426.4175,313.823" id="Fill-36" fill="#000000" mask="url(#mask-4)"></path>
                    <path d="M438.5679,299.24 L465.3009,299.24 C472.5939,299.24 470.1659,316.251 470.1659,316.251 C470.1659,316.251 484.7479,316.251 484.7479,301.669 C484.7479,291.948 475.0239,289.517 470.1659,289.517 L438.5679,289.517 L438.5679,299.24 Z" id="Fill-37" fill="#59595A" mask="url(#mask-4)"></path>
                    <polygon id="Fill-38" fill="#59595A" mask="url(#mask-4)" points="370.521 318.681 375.38 318.681 375.38 294.378 370.521 294.378"></polygon>
                    <polygon id="Fill-39" fill="#59595A" mask="url(#mask-4)" points="365.656 333.263 375.38 333.263 375.38 325.97 365.656 325.97"></polygon>
                    <polygon id="Fill-40" fill="#7C7C7D" mask="url(#mask-4)" points="380.243 318.681 404.547 318.681 404.547 316.251 380.243 316.251"></polygon>
                    <polygon id="Fill-41" fill="#1B243A" mask="url(#mask-4)" points="380.243 316.253 404.547 316.253 404.547 313.824 380.243 313.824"></polygon>
                    <polygon id="Fill-42" fill="#7C7C7D" mask="url(#mask-4)" points="380.243 311.388 404.547 311.388 404.547 308.958 380.243 308.958"></polygon>
                    <polygon id="Fill-43" fill="#9E9D9C" mask="url(#mask-4)" points="385.101 318.681 394.823 318.681 394.823 316.251 385.101 316.251"></polygon>
                    <polygon id="Fill-44" fill="#59595A" mask="url(#mask-4)" points="385.101 316.253 394.823 316.253 394.823 313.824 385.101 313.824"></polygon>
                    <polygon id="Fill-45" fill="#7C7C7D" mask="url(#mask-4)" points="380.243 325.975 404.547 325.975 404.547 323.545 380.243 323.545"></polygon>
                    <polygon id="Fill-46" fill="#1B243A" mask="url(#mask-4)" points="380.243 323.542 404.547 323.542 404.547 321.111 380.243 321.111"></polygon>
                    <polygon id="Fill-47" fill="#9E9D9C" mask="url(#mask-4)" points="385.101 325.975 394.823 325.975 394.823 323.545 385.101 323.545"></polygon>
                    <polygon id="Fill-48" fill="#59595A" mask="url(#mask-4)" points="385.101 323.542 394.823 323.542 394.823 321.111 385.101 321.111"></polygon>
                    <polygon id="Fill-49" fill="#9E9D9C" mask="url(#mask-4)" points="385.101 311.388 394.823 311.388 394.823 308.958 385.101 308.958"></polygon>
                    <polygon id="Fill-50" fill="#1B243A" mask="url(#mask-4)" points="380.243 308.96 404.547 308.96 404.547 306.531 380.243 306.531"></polygon>
                    <polygon id="Fill-51" fill="#59595A" mask="url(#mask-4)" points="385.101 308.96 394.823 308.96 394.823 306.531 385.101 306.531"></polygon>
                    <polygon id="Fill-52" fill="#7C7C7D" mask="url(#mask-4)" points="380.243 304.101 404.547 304.101 404.547 301.672 380.243 301.672"></polygon>
                    <polygon id="Fill-53" fill="#9E9D9C" mask="url(#mask-4)" points="385.101 304.101 394.823 304.101 394.823 301.672 385.101 301.672"></polygon>
                    <polygon id="Fill-54" fill="#1B243A" mask="url(#mask-4)" points="380.243 301.673 404.547 301.673 404.547 299.242 380.243 299.242"></polygon>
                    <polygon id="Fill-55" fill="#59595A" mask="url(#mask-4)" points="385.101 301.673 394.823 301.673 394.823 299.242 385.101 299.242"></polygon>
                    <path d="M436.1382,301.6707 L421.5562,316.2507 C419.1262,318.6807 414.2632,321.1147 414.2632,311.3937 C414.2632,310.6007 414.2632,302.4967 414.2742,301.6707 C414.3492,294.8237 415.0552,294.3777 421.5562,294.3777 L436.1382,294.3777 C438.5672,294.3777 440.9962,296.8117 436.1382,301.6707 M440.9962,284.6607 L370.5212,284.6607 L370.5212,294.3777 L397.2532,294.3777 C402.1132,294.3777 406.9752,296.8117 406.9752,304.0997 L406.9752,330.8377 C405.1512,333.2667 402.1132,335.6967 397.2532,335.6967 L370.5212,335.6967 L370.5212,342.9837 L402.1132,342.9837 C409.4062,342.9837 414.2632,335.6967 414.2632,335.6967 C414.2632,335.6967 433.7082,316.2507 445.8602,304.0997 C458.0122,291.9477 455.5822,284.6607 440.9962,284.6607" id="Fill-56" fill="#59595A" mask="url(#mask-4)"></path>
                    <path d="M477.4536,323.5437 C477.4536,326.2267 475.2786,328.4017 472.5956,328.4017 L453.1506,328.4017 C450.4676,328.4017 448.2926,326.2267 448.2926,323.5437 L448.2926,304.0987 C448.2926,301.4157 450.4676,299.2397 453.1506,299.2397 L472.5956,299.2397 C475.2786,299.2397 477.4536,301.4157 477.4536,304.0987 L477.4536,323.5437 Z" id="Fill-57" fill="#7C7C7D" mask="url(#mask-4)"></path>
                    <path d="M450.7202,313.823 C450.7202,320.532 456.1612,325.974 462.8712,325.974 C469.5822,325.974 475.0242,320.532 475.0242,313.823 C475.0242,307.112 469.5822,301.671 462.8712,301.671 C456.1612,301.671 450.7202,307.112 450.7202,313.823" id="Fill-58" fill="#000000" mask="url(#mask-4)"></path>
                    <path d="M453.1499,313.823 C453.1499,319.192 457.5029,323.544 462.8729,323.544 C468.2379,323.544 472.5959,319.192 472.5959,313.823 C472.5959,308.452 468.2379,304.1 462.8729,304.1 C457.5029,304.1 453.1499,308.452 453.1499,313.823" id="Fill-59" fill="#59595A" mask="url(#mask-4)"></path>
                    <path d="M458.0112,313.823 C458.0112,316.506 460.1922,318.681 462.8692,318.681 C465.5582,318.681 467.7342,316.506 467.7342,313.823 C467.7342,311.139 465.5582,308.964 462.8692,308.964 C460.1922,308.964 458.0112,311.139 458.0112,313.823" id="Fill-60" fill="#7C7C7D" mask="url(#mask-4)"></path>
                    <path d="M324.3423,313.823 C324.3423,339.322 303.6653,360 278.1643,360 C252.6593,360 231.9883,339.322 231.9883,313.823 C231.9883,288.322 252.6593,267.644 278.1643,267.644 C303.6653,267.644 324.3423,288.322 324.3423,313.823" id="Fill-61" fill="#192239" mask="url(#mask-4)"></path>
                    <path d="M319.481,313.823 C319.481,336.64 300.986,355.136 278.168,355.136 C255.351,355.136 236.848,336.64 236.848,313.823 C236.848,291.004 255.351,272.508 278.168,272.508 C300.986,272.508 319.481,291.004 319.481,313.823" id="Fill-62" fill="#7C7C7D" mask="url(#mask-4)"></path>
                    <path d="M314.6206,313.823 C314.6206,333.957 298.2966,350.277 278.1666,350.277 C258.0316,350.277 241.7106,333.957 241.7106,313.823 C241.7106,293.687 258.0316,277.367 278.1666,277.367 C298.2966,277.367 314.6206,293.687 314.6206,313.823" id="Fill-63" fill="#000000" mask="url(#mask-4)"></path>
                    <path d="M302.4692,299.24 L275.7372,299.24 C268.4442,299.24 270.8732,316.251 270.8732,316.251 C270.8732,316.251 256.2912,316.251 256.2912,301.669 C256.2912,291.948 266.0132,289.517 270.8732,289.517 L302.4692,289.517 L302.4692,299.24 Z" id="Fill-64" fill="#59595A" mask="url(#mask-4)"></path>
                    <polygon id="Fill-65" fill="#59595A" mask="url(#mask-4)" points="365.657 318.681 370.515 318.681 370.515 294.378 365.657 294.378"></polygon>
                    <polygon id="Fill-66" fill="#7C7C7D" mask="url(#mask-4)" points="336.494 318.681 360.798 318.681 360.798 316.251 336.494 316.251"></polygon>
                    <polygon id="Fill-67" fill="#1B243A" mask="url(#mask-4)" points="336.494 316.253 360.798 316.253 360.798 313.824 336.494 313.824"></polygon>
                    <polygon id="Fill-68" fill="#7C7C7D" mask="url(#mask-4)" points="336.494 311.388 360.798 311.388 360.798 308.958 336.494 308.958"></polygon>
                    <polygon id="Fill-69" fill="#9E9D9C" mask="url(#mask-4)" points="346.217 318.681 355.94 318.681 355.94 316.251 346.217 316.251"></polygon>
                    <polygon id="Fill-70" fill="#59595A" mask="url(#mask-4)" points="346.217 316.253 355.94 316.253 355.94 313.824 346.217 313.824"></polygon>
                    <polygon id="Fill-71" fill="#7C7C7D" mask="url(#mask-4)" points="336.494 325.975 360.798 325.975 360.798 323.545 336.494 323.545"></polygon>
                    <polygon id="Fill-72" fill="#1B243A" mask="url(#mask-4)" points="336.494 323.542 360.798 323.542 360.798 321.111 336.494 321.111"></polygon>
                    <polygon id="Fill-73" fill="#9E9D9C" mask="url(#mask-4)" points="346.217 325.975 355.94 325.975 355.94 323.545 346.217 323.545"></polygon>
                    <polygon id="Fill-74" fill="#59595A" mask="url(#mask-4)" points="346.217 323.542 355.94 323.542 355.94 321.111 346.217 321.111"></polygon>
                    <polygon id="Fill-75" fill="#9E9D9C" mask="url(#mask-4)" points="346.217 311.388 355.94 311.388 355.94 308.958 346.217 308.958"></polygon>
                    <polygon id="Fill-76" fill="#1B243A" mask="url(#mask-4)" points="336.494 308.96 360.798 308.96 360.798 306.531 336.494 306.531"></polygon>
                    <polygon id="Fill-77" fill="#59595A" mask="url(#mask-4)" points="346.217 308.96 355.94 308.96 355.94 306.531 346.217 306.531"></polygon>
                    <polygon id="Fill-78" fill="#7C7C7D" mask="url(#mask-4)" points="336.494 304.101 360.798 304.101 360.798 301.672 336.494 301.672"></polygon>
                    <polygon id="Fill-79" fill="#9E9D9C" mask="url(#mask-4)" points="346.217 304.101 355.94 304.101 355.94 301.672 346.217 301.672"></polygon>
                    <polygon id="Fill-80" fill="#1B243A" mask="url(#mask-4)" points="336.494 301.673 360.798 301.673 360.798 299.242 336.494 299.242"></polygon>
                    <polygon id="Fill-81" fill="#59595A" mask="url(#mask-4)" points="346.217 301.673 355.94 301.673 355.94 299.242 346.217 299.242"></polygon>
                    <path d="M304.8989,294.3787 L319.4809,294.3787 C325.9819,294.3787 326.6879,294.8247 326.7639,301.6727 C326.7739,302.4987 326.7739,310.6037 326.7739,311.3907 C326.7739,321.1107 321.9119,318.6837 319.4809,316.2547 C317.0509,313.8237 309.7579,306.5297 304.8989,301.6727 C300.0419,296.8087 302.4709,294.3787 304.8989,294.3787 M295.1779,304.1017 C307.3299,316.2547 326.7739,335.6927 326.7739,335.6927 C326.7739,335.6927 331.6319,342.9857 338.9249,342.9857 L370.5169,342.9857 L370.5169,335.6927 L343.7849,335.6927 C338.9249,335.6927 335.8869,333.2637 334.0619,330.8347 L334.0619,304.1017 C334.0619,296.8087 338.9249,294.3787 343.7849,294.3787 L370.5169,294.3787 L370.5169,284.6567 L300.0419,284.6567 C285.4559,284.6567 283.0249,291.9497 295.1779,304.1017" id="Fill-82" fill="#59595A" mask="url(#mask-4)"></path>
                    <path d="M404.5435,285.8738 C404.5435,287.8868 402.9105,289.5198 400.8975,289.5198 L337.7095,289.5198 C335.6945,289.5198 334.0625,287.8868 334.0625,285.8738 C334.0625,283.8588 335.6945,282.2268 337.7095,282.2268 L400.8975,282.2268 C402.9105,282.2268 404.5435,283.8588 404.5435,285.8738" id="Fill-83" fill="#59595A" mask="url(#mask-4)"></path>
                    <path d="M397.2515,288.3035 C397.2515,288.9735 396.7095,289.5215 396.0355,289.5215 L344.9995,289.5215 C344.3295,289.5215 343.7875,288.9735 343.7875,288.3035 C343.7875,287.6335 344.3295,287.0845 344.9995,287.0845 L396.0355,287.0845 C396.7095,287.0845 397.2515,287.6335 397.2515,288.3035" id="Fill-84" fill="#000000" mask="url(#mask-4)"></path>
                    <polygon id="Fill-85" fill="#59595A" mask="url(#mask-4)" points="334.065 277.368 360.798 277.368 360.798 274.938 334.065 274.938"></polygon>
                    <polygon id="Fill-86" fill="#59595A" mask="url(#mask-4)" points="380.243 277.368 406.976 277.368 406.976 274.938 380.243 274.938"></polygon>
                    <path d="M292.7485,323.5437 C292.7485,326.2267 290.5715,328.4017 287.8895,328.4017 L268.4445,328.4017 C265.7625,328.4017 263.5855,326.2267 263.5855,323.5437 L263.5855,304.0987 C263.5855,301.4157 265.7625,299.2397 268.4445,299.2397 L287.8895,299.2397 C290.5715,299.2397 292.7485,301.4157 292.7485,304.0987 L292.7485,323.5437 Z" id="Fill-87" fill="#7C7C7D" mask="url(#mask-4)"></path>
                    <path d="M290.3169,313.823 C290.3169,320.532 284.8769,325.974 278.1669,325.974 C271.4579,325.974 266.0139,320.532 266.0139,313.823 C266.0139,307.112 271.4579,301.671 278.1669,301.671 C284.8769,301.671 290.3169,307.112 290.3169,313.823" id="Fill-88" fill="#000000" mask="url(#mask-4)"></path>
                    <path d="M287.8882,313.823 C287.8882,319.192 283.5352,323.544 278.1642,323.544 C272.7992,323.544 268.4422,319.192 268.4422,313.823 C268.4422,308.452 272.7992,304.1 278.1642,304.1 C283.5352,304.1 287.8882,308.452 287.8882,313.823" id="Fill-89" fill="#59595A" mask="url(#mask-4)"></path>
                    <path d="M283.0269,313.823 C283.0269,316.506 280.8459,318.681 278.1689,318.681 C275.4789,318.681 273.3039,316.506 273.3039,313.823 C273.3039,311.139 275.4789,308.964 278.1689,308.964 C280.8459,308.964 283.0269,311.139 283.0269,313.823" id="Fill-90" fill="#7C7C7D" mask="url(#mask-4)"></path>
                    <polygon id="Fill-91" fill="#D1D1D3" mask="url(#mask-4)" points="0.001 262.781 521.199 262.781 521.199 2.738 0.001 2.738"></polygon>
                    <polygon id="Fill-92" fill="#BABDBF" mask="url(#mask-4)" points="0.002 262.788 513.906 262.788 513.906 221.473 0.002 221.473"></polygon>
                    <polygon id="Fill-93" fill="#919497" mask="url(#mask-4)" points="0.001 250.629 506.618 250.629 506.618 14.888 0.001 14.888"></polygon>
                    <polygon id="Fill-94" fill="#C4C5BD" mask="url(#mask-4)" points="0.001 250.629 501.76 250.629 501.76 14.888 0.001 14.888"></polygon>
                    <path d="M0.0005,183.9969 C50.1675,183.4279 107.4965,181.6149 173.6615,177.7229 C421.5555,163.1429 501.7595,177.7229 501.7595,177.7229 L501.7595,250.6349 L0.0005,250.6349 L0.0005,183.9969 Z" id="Fill-95" fill="#B1B0A8" mask="url(#mask-4)"></path>
                </g>
                <path d="M433.708,241.606 C420.749,241.606 283.024,219.731 283.024,219.731 L283.024,219.731 C253.608,234.44 254.516,240.353 176.092,241.606 L176.092,241.606 C175.332,241.621 174.542,240.389 173.76,239.156 L173.76,239.156 C172.892,237.792 172.03,236.427 171.229,236.749 L171.229,236.749 C159.081,241.606 126.258,241.606 112.9,241.606 L112.9,241.606 C95.712,241.606 78.402,233.183 61.862,231.882 L61.862,231.882 C61.051,231.823 60.24,233.654 59.434,235.485 L59.434,235.485 C58.622,237.32 57.811,239.152 57.01,239.08 L57.01,239.08 C35.95,237.303 16.314,234.82 0.002,232.41 L0.002,232.41 L0.002,251.329 L501.756,251.329 L501.756,200.287 C501.756,200.287 470.163,241.606 433.708,241.606" id="Fill-97"></path>
                <polygon id="Fill-99" fill="#919497" points="0.002 151.681 501.76 151.681 501.76 149.251 0.002 149.251"></polygon>
                <polygon id="Fill-100" fill="#D1D1D3" points="0.002 149.251 501.76 149.251 501.76 146.823 0.002 146.823"></polygon>
                <polygon id="Fill-101" fill="#919497" points="0.002 15.583 528.488 15.583 528.488 1.002 0.002 1.002"></polygon>
                <polygon id="Fill-102" fill="#E6E6E7" points="0.002 5.862 528.488 5.862 528.488 1.002 0.002 1.002"></polygon>
                <polygon id="Fill-103" fill="#221F20" points="0.002 20.441 521.2 20.441 521.2 15.582 0.002 15.582"></polygon>
                <polygon id="Fill-104" fill="#D1D1D3" points="506.618 265.91 516.342 265.91 516.342 8.295 506.618 8.295"></polygon>
                <polygon id="Fill-105" fill="#E6E6E7" points="513.911 265.91 516.342 265.91 516.342 10.725 513.911 10.725"></polygon>
                <polygon id="Fill-106" fill="#919497" points="504.189 251.33 506.619 251.33 506.619 20.447 504.189 20.447"></polygon>
                <polygon id="Fill-107" fill="#919497" points="538.21 137.1 540.639 137.1 540.639 25.305 538.21 25.305"></polygon>
                <polygon id="Fill-108" fill="#919497" points="521.199 127.376 538.21 127.376 538.21 124.946 521.199 124.946"></polygon>
                <polygon id="Fill-109" fill="#919497" points="521.199 137.1 538.21 137.1 538.21 134.67 521.199 134.67"></polygon>
                <polygon id="Fill-110" fill="#919497" points="521.199 83.634 538.21 83.634 538.21 81.204 521.199 81.204"></polygon>
                <polygon id="Fill-111" fill="#919497" points="521.199 44.749 538.21 44.749 538.21 42.32 521.199 42.32"></polygon>
                <polygon id="Fill-112" fill="#919497" points="538.9243 27.0224 524.4663 12.5644 526.1853 10.8444 540.6433 25.3034"></polygon>
                <polygon id="Fill-113" fill="#919497" points="521.198 248.894 523.628 248.894 523.628 239.171 521.198 239.171"></polygon>
                <polygon id="Fill-114" fill="#919497" points="518.769 251.33 521.199 251.33 521.199 20.447 518.769 20.447"></polygon>
                <polygon id="Fill-115" fill="#919497" points="504.189 263.481 506.619 263.481 506.619 251.329 504.189 251.329"></polygon>
                <polygon id="Fill-116" fill="#919497" points="516.342 263.481 518.77 263.481 518.77 251.329 516.342 251.329"></polygon>
                <g id="Group-314" transform="translate(0.000000, 0.693000)">
                    <path d="M479.8843,34.3333 C479.8843,35.6713 478.2513,39.1923 476.2383,39.1923 L430.0603,39.1923 C428.0513,39.1923 426.4183,35.6713 426.4183,34.3333 L430.0603,34.3333 L476.2383,34.3333 L479.8843,34.3333 Z" id="Fill-117" fill="#919497"></path>
                    <path d="M479.8843,34.3333 C479.8843,35.6713 478.2513,36.7623 476.2383,36.7623 L430.0603,36.7623 C428.0513,36.7623 426.4183,35.6713 426.4183,34.3333 C426.4183,32.9943 428.0513,31.9033 430.0603,31.9033 L476.2383,31.9033 C478.2513,31.9033 479.8843,32.9943 479.8843,34.3333" id="Fill-119" fill="#D1D1D3"></path>
                    <path d="M479.8843,78.0789 C479.8843,79.4189 478.2513,82.9379 476.2383,82.9379 L430.0603,82.9379 C428.0513,82.9379 426.4183,79.4189 426.4183,78.0789 L430.0603,78.0789 L476.2383,78.0789 L479.8843,78.0789 Z" id="Fill-121" fill="#919497"></path>
                    <path d="M479.8843,78.0789 C479.8843,79.4189 478.2513,80.5089 476.2383,80.5089 L430.0603,80.5089 C428.0513,80.5089 426.4183,79.4189 426.4183,78.0789 C426.4183,76.7409 428.0513,75.6489 430.0603,75.6489 L476.2383,75.6489 C478.2513,75.6489 479.8843,76.7409 479.8843,78.0789" id="Fill-123" fill="#D1D1D3"></path>
                    <path d="M479.8843,124.2561 C479.8843,125.5951 478.2513,129.1151 476.2383,129.1151 L430.0603,129.1151 C428.0513,129.1151 426.4183,125.5951 426.4183,124.2561 L430.0603,124.2561 L476.2383,124.2561 L479.8843,124.2561 Z" id="Fill-125" fill="#919497"></path>
                    <path d="M479.8843,124.2561 C479.8843,125.5951 478.2513,126.6851 476.2383,126.6851 L430.0603,126.6851 C428.0513,126.6851 426.4183,125.5951 426.4183,124.2561 C426.4183,122.9171 428.0513,121.8261 430.0603,121.8261 L476.2383,121.8261 C478.2513,121.8261 479.8843,122.9171 479.8843,124.2561" id="Fill-127" fill="#D1D1D3"></path>
                    <path d="M479.8843,177.7229 C479.8843,179.0629 478.2513,182.5829 476.2383,182.5829 L430.0603,182.5829 C428.0513,182.5829 426.4183,179.0629 426.4183,177.7229 L430.0603,177.7229 L476.2383,177.7229 L479.8843,177.7229 Z" id="Fill-129" fill="#919497"></path>
                    <path d="M479.8843,177.7229 C479.8843,179.0629 478.2513,180.1529 476.2383,180.1529 L430.0603,180.1529 C428.0513,180.1529 426.4183,179.0629 426.4183,177.7229 C426.4183,176.3849 428.0513,175.2939 430.0603,175.2939 L476.2383,175.2939 C478.2513,175.2939 479.8843,176.3849 479.8843,177.7229" id="Fill-131" fill="#D1D1D3"></path>
                    <path d="M479.8843,221.4685 C479.8843,222.8085 478.2513,226.3275 476.2383,226.3275 L430.0603,226.3275 C428.0513,226.3275 426.4183,222.8085 426.4183,221.4685 L430.0603,221.4685 L476.2383,221.4685 L479.8843,221.4685 Z" id="Fill-133" fill="#919497"></path>
                    <path d="M479.8843,221.4685 C479.8843,222.8085 478.2513,223.8985 476.2383,223.8985 L430.0603,223.8985 C428.0513,223.8985 426.4183,222.8085 426.4183,221.4685 C426.4183,220.1305 428.0513,219.0405 430.0603,219.0405 L476.2383,219.0405 C478.2513,219.0405 479.8843,220.1305 479.8843,221.4685" id="Fill-135" fill="#D1D1D3"></path>
                    <mask id="mask-6" fill="white">
                        <use xlink:href="#path-5"></use>
                    </mask>
                    <g id="Clip-138"></g>
                    <polygon id="Fill-137" fill="#D1D1D3" mask="url(#mask-6)" points="394.822 265.217 404.546 265.217 404.546 7.602 394.822 7.602"></polygon>
                    <polygon id="Fill-139" fill="#E6E6E7" mask="url(#mask-6)" points="402.115 265.217 404.546 265.217 404.546 10.032 402.115 10.032"></polygon>
                    <polygon id="Fill-140" fill="#919497" mask="url(#mask-6)" points="392.394 250.637 394.824 250.637 394.824 19.754 392.394 19.754"></polygon>
                    <polygon id="Fill-141" fill="#919497" mask="url(#mask-6)" points="392.394 262.788 394.824 262.788 394.824 250.636 392.394 250.636"></polygon>
                    <polygon id="Fill-142" fill="#919497" mask="url(#mask-6)" points="404.546 262.788 406.976 262.788 406.976 250.636 404.546 250.636"></polygon>
                    <path d="M368.0874,34.3333 C368.0874,35.6713 366.4544,39.1923 364.4414,39.1923 L318.2644,39.1923 C316.2504,39.1923 314.6234,35.6713 314.6234,34.3333 L318.2644,34.3333 L364.4414,34.3333 L368.0874,34.3333 Z" id="Fill-143" fill="#919497" mask="url(#mask-6)"></path>
                    <path d="M368.0874,34.3333 C368.0874,35.6713 366.4544,36.7623 364.4414,36.7623 L318.2644,36.7623 C316.2504,36.7623 314.6234,35.6713 314.6234,34.3333 C314.6234,32.9943 316.2504,31.9033 318.2644,31.9033 L364.4414,31.9033 C366.4544,31.9033 368.0874,32.9943 368.0874,34.3333" id="Fill-144" fill="#D1D1D3" mask="url(#mask-6)"></path>
                    <path d="M368.0874,78.0789 C368.0874,79.4189 366.4544,82.9379 364.4414,82.9379 L318.2644,82.9379 C316.2504,82.9379 314.6234,79.4189 314.6234,78.0789 L318.2644,78.0789 L364.4414,78.0789 L368.0874,78.0789 Z" id="Fill-145" fill="#919497" mask="url(#mask-6)"></path>
                    <path d="M368.0874,78.0789 C368.0874,79.4189 366.4544,80.5089 364.4414,80.5089 L318.2644,80.5089 C316.2504,80.5089 314.6234,79.4189 314.6234,78.0789 C314.6234,76.7409 316.2504,75.6489 318.2644,75.6489 L364.4414,75.6489 C366.4544,75.6489 368.0874,76.7409 368.0874,78.0789" id="Fill-146" fill="#D1D1D3" mask="url(#mask-6)"></path>
                    <path d="M368.0874,124.2561 C368.0874,125.5951 366.4544,129.1151 364.4414,129.1151 L318.2644,129.1151 C316.2504,129.1151 314.6234,125.5951 314.6234,124.2561 L318.2644,124.2561 L364.4414,124.2561 L368.0874,124.2561 Z" id="Fill-147" fill="#919497" mask="url(#mask-6)"></path>
                    <path d="M368.0874,124.2561 C368.0874,125.5951 366.4544,126.6851 364.4414,126.6851 L318.2644,126.6851 C316.2504,126.6851 314.6234,125.5951 314.6234,124.2561 C314.6234,122.9171 316.2504,121.8261 318.2644,121.8261 L364.4414,121.8261 C366.4544,121.8261 368.0874,122.9171 368.0874,124.2561" id="Fill-148" fill="#D1D1D3" mask="url(#mask-6)"></path>
                    <path d="M368.0874,177.7229 C368.0874,179.0629 366.4544,182.5829 364.4414,182.5829 L318.2644,182.5829 C316.2504,182.5829 314.6234,179.0629 314.6234,177.7229 L318.2644,177.7229 L364.4414,177.7229 L368.0874,177.7229 Z" id="Fill-149" fill="#919497" mask="url(#mask-6)"></path>
                    <path d="M368.0874,177.7229 C368.0874,179.0629 366.4544,180.1529 364.4414,180.1529 L318.2644,180.1529 C316.2504,180.1529 314.6234,179.0629 314.6234,177.7229 C314.6234,176.3849 316.2504,175.2939 318.2644,175.2939 L364.4414,175.2939 C366.4544,175.2939 368.0874,176.3849 368.0874,177.7229" id="Fill-150" fill="#D1D1D3" mask="url(#mask-6)"></path>
                    <path d="M368.0874,221.4685 C368.0874,222.8085 366.4544,226.3275 364.4414,226.3275 L318.2644,226.3275 C316.2504,226.3275 314.6234,222.8085 314.6234,221.4685 L318.2644,221.4685 L364.4414,221.4685 L368.0874,221.4685 Z" id="Fill-151" fill="#919497" mask="url(#mask-6)"></path>
                    <path d="M368.0874,221.4685 C368.0874,222.8085 366.4544,223.8985 364.4414,223.8985 L318.2644,223.8985 C316.2504,223.8985 314.6234,222.8085 314.6234,221.4685 C314.6234,220.1305 316.2504,219.0405 318.2644,219.0405 L364.4414,219.0405 C366.4544,219.0405 368.0874,220.1305 368.0874,221.4685" id="Fill-152" fill="#D1D1D3" mask="url(#mask-6)"></path>
                    <polygon id="Fill-153" fill="#D1D1D3" mask="url(#mask-6)" points="280.594 265.217 290.317 265.217 290.317 7.602 280.594 7.602"></polygon>
                    <polygon id="Fill-154" fill="#E6E6E7" mask="url(#mask-6)" points="287.887 265.217 290.317 265.217 290.317 10.032 287.887 10.032"></polygon>
                    <polygon id="Fill-155" fill="#919497" mask="url(#mask-6)" points="278.164 250.637 280.595 250.637 280.595 19.754 278.164 19.754"></polygon>
                    <polygon id="Fill-156" fill="#919497" mask="url(#mask-6)" points="278.164 262.788 280.595 262.788 280.595 250.636 278.164 250.636"></polygon>
                    <polygon id="Fill-157" fill="#919497" mask="url(#mask-6)" points="290.318 262.788 292.746 262.788 292.746 250.636 290.318 250.636"></polygon>
                    <path d="M253.8628,34.3333 C253.8628,35.6713 252.2298,39.1923 250.2168,39.1923 L204.0398,39.1923 C202.0298,39.1923 200.3968,35.6713 200.3968,34.3333 L204.0398,34.3333 L250.2168,34.3333 L253.8628,34.3333 Z" id="Fill-158" fill="#919497" mask="url(#mask-6)"></path>
                    <path d="M253.8628,34.3333 C253.8628,35.6713 252.2298,36.7623 250.2168,36.7623 L204.0398,36.7623 C202.0298,36.7623 200.3968,35.6713 200.3968,34.3333 C200.3968,32.9943 202.0298,31.9033 204.0398,31.9033 L250.2168,31.9033 C252.2298,31.9033 253.8628,32.9943 253.8628,34.3333" id="Fill-159" fill="#D1D1D3" mask="url(#mask-6)"></path>
                    <path d="M253.8628,78.0789 C253.8628,79.4189 252.2298,82.9379 250.2168,82.9379 L204.0398,82.9379 C202.0298,82.9379 200.3968,79.4189 200.3968,78.0789 L204.0398,78.0789 L250.2168,78.0789 L253.8628,78.0789 Z" id="Fill-160" fill="#919497" mask="url(#mask-6)"></path>
                    <path d="M253.8628,78.0789 C253.8628,79.4189 252.2298,80.5089 250.2168,80.5089 L204.0398,80.5089 C202.0298,80.5089 200.3968,79.4189 200.3968,78.0789 C200.3968,76.7409 202.0298,75.6489 204.0398,75.6489 L250.2168,75.6489 C252.2298,75.6489 253.8628,76.7409 253.8628,78.0789" id="Fill-161" fill="#D1D1D3" mask="url(#mask-6)"></path>
                    <path d="M253.8628,124.2561 C253.8628,125.5951 252.2298,129.1151 250.2168,129.1151 L204.0398,129.1151 C202.0298,129.1151 200.3968,125.5951 200.3968,124.2561 L204.0398,124.2561 L250.2168,124.2561 L253.8628,124.2561 Z" id="Fill-162" fill="#919497" mask="url(#mask-6)"></path>
                    <path d="M253.8628,124.2561 C253.8628,125.5951 252.2298,126.6851 250.2168,126.6851 L204.0398,126.6851 C202.0298,126.6851 200.3968,125.5951 200.3968,124.2561 C200.3968,122.9171 202.0298,121.8261 204.0398,121.8261 L250.2168,121.8261 C252.2298,121.8261 253.8628,122.9171 253.8628,124.2561" id="Fill-163" fill="#D1D1D3" mask="url(#mask-6)"></path>
                    <path d="M253.8628,177.7229 C253.8628,179.0629 252.2298,182.5829 250.2168,182.5829 L204.0398,182.5829 C202.0298,182.5829 200.3968,179.0629 200.3968,177.7229 L204.0398,177.7229 L250.2168,177.7229 L253.8628,177.7229 Z" id="Fill-164" fill="#919497" mask="url(#mask-6)"></path>
                    <path d="M253.8628,177.7229 C253.8628,179.0629 252.2298,180.1529 250.2168,180.1529 L204.0398,180.1529 C202.0298,180.1529 200.3968,179.0629 200.3968,177.7229 C200.3968,176.3849 202.0298,175.2939 204.0398,175.2939 L250.2168,175.2939 C252.2298,175.2939 253.8628,176.3849 253.8628,177.7229" id="Fill-165" fill="#D1D1D3" mask="url(#mask-6)"></path>
                    <path d="M253.8628,221.4685 C253.8628,222.8085 252.2298,226.3275 250.2168,226.3275 L204.0398,226.3275 C202.0298,226.3275 200.3968,222.8085 200.3968,221.4685 L204.0398,221.4685 L250.2168,221.4685 L253.8628,221.4685 Z" id="Fill-166" fill="#919497" mask="url(#mask-6)"></path>
                    <path d="M253.8628,221.4685 C253.8628,222.8085 252.2298,223.8985 250.2168,223.8985 L204.0398,223.8985 C202.0298,223.8985 200.3968,222.8085 200.3968,221.4685 C200.3968,220.1305 202.0298,219.0405 204.0398,219.0405 L250.2168,219.0405 C252.2298,219.0405 253.8628,220.1305 253.8628,221.4685" id="Fill-167" fill="#D1D1D3" mask="url(#mask-6)"></path>
                    <polygon id="Fill-168" fill="#D1D1D3" mask="url(#mask-6)" points="168.799 265.217 178.522 265.217 178.522 7.602 168.799 7.602"></polygon>
                    <polygon id="Fill-169" fill="#E6E6E7" mask="url(#mask-6)" points="176.092 265.217 178.522 265.217 178.522 10.032 176.092 10.032"></polygon>
                    <polygon id="Fill-170" fill="#919497" mask="url(#mask-6)" points="166.368 250.637 168.799 250.637 168.799 19.754 166.368 19.754"></polygon>
                    <polygon id="Fill-171" fill="#919497" mask="url(#mask-6)" points="166.368 262.788 168.799 262.788 168.799 250.636 166.368 250.636"></polygon>
                    <polygon id="Fill-172" fill="#919497" mask="url(#mask-6)" points="178.522 262.788 180.952 262.788 180.952 250.636 178.522 250.636"></polygon>
                    <path d="M142.0679,34.3333 C142.0679,35.6713 140.4349,39.1923 138.4209,39.1923 L92.2439,39.1923 C90.2289,39.1923 88.6019,35.6713 88.6019,34.3333 L92.2439,34.3333 L138.4209,34.3333 L142.0679,34.3333 Z" id="Fill-173" fill="#919497" mask="url(#mask-6)"></path>
                    <path d="M142.0679,34.3333 C142.0679,35.6713 140.4349,36.7623 138.4209,36.7623 L92.2439,36.7623 C90.2289,36.7623 88.6019,35.6713 88.6019,34.3333 C88.6019,32.9943 90.2289,31.9033 92.2439,31.9033 L138.4209,31.9033 C140.4349,31.9033 142.0679,32.9943 142.0679,34.3333" id="Fill-174" fill="#D1D1D3" mask="url(#mask-6)"></path>
                    <path d="M142.0679,78.0789 C142.0679,79.4189 140.4349,82.9379 138.4209,82.9379 L92.2439,82.9379 C90.2289,82.9379 88.6019,79.4189 88.6019,78.0789 L92.2439,78.0789 L138.4209,78.0789 L142.0679,78.0789 Z" id="Fill-175" fill="#919497" mask="url(#mask-6)"></path>
                    <path d="M142.0679,78.0789 C142.0679,79.4189 140.4349,80.5089 138.4209,80.5089 L92.2439,80.5089 C90.2289,80.5089 88.6019,79.4189 88.6019,78.0789 C88.6019,76.7409 90.2289,75.6489 92.2439,75.6489 L138.4209,75.6489 C140.4349,75.6489 142.0679,76.7409 142.0679,78.0789" id="Fill-176" fill="#D1D1D3" mask="url(#mask-6)"></path>
                    <path d="M142.0679,124.2561 C142.0679,125.5951 140.4349,129.1151 138.4209,129.1151 L92.2439,129.1151 C90.2289,129.1151 88.6019,125.5951 88.6019,124.2561 L92.2439,124.2561 L138.4209,124.2561 L142.0679,124.2561 Z" id="Fill-177" fill="#919497" mask="url(#mask-6)"></path>
                    <path d="M142.0679,124.2561 C142.0679,125.5951 140.4349,126.6851 138.4209,126.6851 L92.2439,126.6851 C90.2289,126.6851 88.6019,125.5951 88.6019,124.2561 C88.6019,122.9171 90.2289,121.8261 92.2439,121.8261 L138.4209,121.8261 C140.4349,121.8261 142.0679,122.9171 142.0679,124.2561" id="Fill-178" fill="#D1D1D3" mask="url(#mask-6)"></path>
                    <path d="M142.0679,177.7229 C142.0679,179.0629 140.4349,182.5829 138.4209,182.5829 L92.2439,182.5829 C90.2289,182.5829 88.6019,179.0629 88.6019,177.7229 L92.2439,177.7229 L138.4209,177.7229 L142.0679,177.7229 Z" id="Fill-179" fill="#919497" mask="url(#mask-6)"></path>
                    <path d="M142.0679,177.7229 C142.0679,179.0629 140.4349,180.1529 138.4209,180.1529 L92.2439,180.1529 C90.2289,180.1529 88.6019,179.0629 88.6019,177.7229 C88.6019,176.3849 90.2289,175.2939 92.2439,175.2939 L138.4209,175.2939 C140.4349,175.2939 142.0679,176.3849 142.0679,177.7229" id="Fill-180" fill="#D1D1D3" mask="url(#mask-6)"></path>
                    <path d="M142.0679,221.4685 C142.0679,222.8085 140.4349,226.3275 138.4209,226.3275 L92.2439,226.3275 C90.2289,226.3275 88.6019,222.8085 88.6019,221.4685 L92.2439,221.4685 L138.4209,221.4685 L142.0679,221.4685 Z" id="Fill-181" fill="#919497" mask="url(#mask-6)"></path>
                    <path d="M142.0679,221.4685 C142.0679,222.8085 140.4349,223.8985 138.4209,223.8985 L92.2439,223.8985 C90.2289,223.8985 88.6019,222.8085 88.6019,221.4685 C88.6019,220.1305 90.2289,219.0405 92.2439,219.0405 L138.4209,219.0405 C140.4349,219.0405 142.0679,220.1305 142.0679,221.4685" id="Fill-182" fill="#D1D1D3" mask="url(#mask-6)"></path>
                    <polygon id="Fill-183" fill="#D1D1D3" mask="url(#mask-6)" points="57.004 265.217 66.727 265.217 66.727 7.602 57.004 7.602"></polygon>
                    <polygon id="Fill-184" fill="#E6E6E7" mask="url(#mask-6)" points="64.297 265.217 66.727 265.217 66.727 10.032 64.297 10.032"></polygon>
                    <polygon id="Fill-185" fill="#919497" mask="url(#mask-6)" points="54.573 250.637 57.004 250.637 57.004 19.754 54.573 19.754"></polygon>
                    <polygon id="Fill-186" fill="#919497" mask="url(#mask-6)" points="54.573 262.788 57.004 262.788 57.004 250.636 54.573 250.636"></polygon>
                    <polygon id="Fill-187" fill="#919497" mask="url(#mask-6)" points="66.727 262.788 69.157 262.788 69.157 250.636 66.727 250.636"></polygon>
                    <path d="M30.271,34.3333 C30.271,35.6713 28.638,39.1923 26.625,39.1923 L0.001,39.1923 L0.001,34.3333 L26.625,34.3333 L30.271,34.3333 Z" id="Fill-188" fill="#919497" mask="url(#mask-6)"></path>
                    <path d="M30.271,34.3333 C30.271,35.6713 28.638,36.7623 26.625,36.7623 L0.001,36.7623 L0.001,31.9033 L26.625,31.9033 C28.638,31.9033 30.271,32.9943 30.271,34.3333" id="Fill-189" fill="#D1D1D3" mask="url(#mask-6)"></path>
                    <path d="M30.271,78.0789 C30.271,79.4189 28.638,82.9379 26.625,82.9379 L0.001,82.9379 L0.001,78.0789 L26.625,78.0789 L30.271,78.0789 Z" id="Fill-190" fill="#919497" mask="url(#mask-6)"></path>
                    <path d="M30.271,78.0789 C30.271,79.4189 28.638,80.5089 26.625,80.5089 L0.001,80.5089 L0.001,75.6489 L26.625,75.6489 C28.638,75.6489 30.271,76.7409 30.271,78.0789" id="Fill-191" fill="#D1D1D3" mask="url(#mask-6)"></path>
                    <path d="M30.271,124.2561 C30.271,125.5951 28.638,129.1151 26.625,129.1151 L0.001,129.1151 L0.001,124.2561 L26.625,124.2561 L30.271,124.2561 Z" id="Fill-192" fill="#919497" mask="url(#mask-6)"></path>
                    <path d="M30.271,124.2561 C30.271,125.5951 28.638,126.6851 26.625,126.6851 L0.001,126.6851 L0.001,121.8261 L26.625,121.8261 C28.638,121.8261 30.271,122.9171 30.271,124.2561" id="Fill-193" fill="#D1D1D3" mask="url(#mask-6)"></path>
                    <path d="M30.271,177.7229 C30.271,179.0629 28.638,182.5829 26.625,182.5829 L0.001,182.5829 L0.001,177.7229 L26.625,177.7229 L30.271,177.7229 Z" id="Fill-194" fill="#919497" mask="url(#mask-6)"></path>
                    <path d="M30.271,177.7229 C30.271,179.0629 28.638,180.1529 26.625,180.1529 L0.001,180.1529 L0.001,175.2939 L26.625,175.2939 C28.638,175.2939 30.271,176.3849 30.271,177.7229" id="Fill-195" fill="#D1D1D3" mask="url(#mask-6)"></path>
                    <path d="M30.271,221.4685 C30.271,222.8085 28.638,226.3275 26.625,226.3275 L0.001,226.3275 L0.001,221.4685 L26.625,221.4685 L30.271,221.4685 Z" id="Fill-196" fill="#919497" mask="url(#mask-6)"></path>
                    <path d="M30.271,221.4685 C30.271,222.8085 28.638,223.8985 26.625,223.8985 L0.001,223.8985 L0.001,219.0405 L26.625,219.0405 C28.638,219.0405 30.271,220.1305 30.271,221.4685" id="Fill-197" fill="#D1D1D3" mask="url(#mask-6)"></path>
                    <polygon id="Fill-198" fill="#D1D1D3" mask="url(#mask-6)" points="404.541 46.485 448.29 46.485 448.29 17.324 404.541 17.324"></polygon>
                    <polygon id="Fill-199" fill="#E6E6E7" mask="url(#mask-6)" points="445.86 46.485 448.29 46.485 448.29 17.324 445.86 17.324"></polygon>
                    <polygon id="Fill-200" fill="#919497" mask="url(#mask-6)" points="404.541 48.914 448.29 48.914 448.29 46.485 404.541 46.485"></polygon>
                    <polygon id="Fill-201" fill="#A76B3A" mask="url(#mask-6)" points="197.967 228.762 202.825 228.762 202.825 223.903 197.967 223.903"></polygon>
                    <polygon id="Fill-202" fill="#A76B3A" mask="url(#mask-6)" points="205.261 228.762 210.119 228.762 210.119 223.903 205.261 223.903"></polygon>
                    <polygon id="Fill-203" fill="#A76B3A" mask="url(#mask-6)" points="224.699 228.762 229.558 228.762 229.558 223.903 224.699 223.903"></polygon>
                    <polygon id="Fill-204" fill="#A76B3A" mask="url(#mask-6)" points="214.978 228.762 217.406 228.762 217.406 223.903 214.978 223.903"></polygon>
                    <polygon id="Fill-205" fill="#A76B3A" mask="url(#mask-6)" points="219.841 228.762 222.269 228.762 222.269 223.903 219.841 223.903"></polygon>
                    <polygon id="Fill-206" fill="#A76B3A" mask="url(#mask-6)" points="231.991 228.762 234.422 228.762 234.422 223.903 231.991 223.903"></polygon>
                    <polygon id="Fill-207" fill="#A76B3A" mask="url(#mask-6)" points="239.281 228.762 244.139 228.762 244.139 223.903 239.281 223.903"></polygon>
                    <polygon id="Fill-208" fill="#A76B3A" mask="url(#mask-6)" points="246.573 228.762 249.001 228.762 249.001 223.903 246.573 223.903"></polygon>
                    <polygon id="Fill-209" fill="#A76B3A" mask="url(#mask-6)" points="253.866 228.762 258.725 228.762 258.725 223.903 253.866 223.903"></polygon>
                    <polygon id="Fill-210" fill="#A76B3A" mask="url(#mask-6)" points="261.153 228.762 263.583 228.762 263.583 223.903 261.153 223.903"></polygon>
                    <polygon id="Fill-211" fill="#A76B3A" mask="url(#mask-6)" points="258.721 233.619 263.578 233.619 263.578 231.189 258.721 231.189"></polygon>
                    <polygon id="Fill-212" fill="#A76B3A" mask="url(#mask-6)" points="251.432 233.619 256.29 233.619 256.29 231.189 251.432 231.189"></polygon>
                    <polygon id="Fill-213" fill="#A76B3A" mask="url(#mask-6)" points="231.988 233.619 236.846 233.619 236.846 231.189 231.988 231.189"></polygon>
                    <polygon id="Fill-214" fill="#A76B3A" mask="url(#mask-6)" points="244.139 233.619 246.569 233.619 246.569 231.189 244.139 231.189"></polygon>
                    <polygon id="Fill-215" fill="#A76B3A" mask="url(#mask-6)" points="239.281 233.619 241.709 233.619 241.709 231.189 239.281 231.189"></polygon>
                    <polygon id="Fill-216" fill="#A76B3A" mask="url(#mask-6)" points="227.129 233.619 229.559 233.619 229.559 231.189 227.129 231.189"></polygon>
                    <polygon id="Fill-217" fill="#A76B3A" mask="url(#mask-6)" points="217.406 233.619 222.265 233.619 222.265 231.189 217.406 231.189"></polygon>
                    <polygon id="Fill-218" fill="#A76B3A" mask="url(#mask-6)" points="212.548 233.619 214.976 233.619 214.976 231.189 212.548 231.189"></polygon>
                    <polygon id="Fill-219" fill="#A76B3A" mask="url(#mask-6)" points="202.825 233.619 207.684 233.619 207.684 231.189 202.825 231.189"></polygon>
                    <polygon id="Fill-220" fill="#A76B3A" mask="url(#mask-6)" points="197.966 233.619 200.396 233.619 200.396 231.189 197.966 231.189"></polygon>
                    <polygon id="Fill-221" fill="#A76B3A" mask="url(#mask-6)" points="197.967 238.479 202.825 238.479 202.825 236.05 197.967 236.05"></polygon>
                    <polygon id="Fill-222" fill="#A76B3A" mask="url(#mask-6)" points="205.256 238.479 210.113 238.479 210.113 236.05 205.256 236.05"></polygon>
                    <polygon id="Fill-223" fill="#A76B3A" mask="url(#mask-6)" points="224.699 238.479 229.558 238.479 229.558 236.05 224.699 236.05"></polygon>
                    <polygon id="Fill-224" fill="#A76B3A" mask="url(#mask-6)" points="214.978 238.479 217.406 238.479 217.406 236.05 214.978 236.05"></polygon>
                    <polygon id="Fill-225" fill="#A76B3A" mask="url(#mask-6)" points="219.835 238.479 222.265 238.479 222.265 236.05 219.835 236.05"></polygon>
                    <polygon id="Fill-226" fill="#A76B3A" mask="url(#mask-6)" points="231.988 238.479 234.416 238.479 234.416 236.05 231.988 236.05"></polygon>
                    <polygon id="Fill-227" fill="#A76B3A" mask="url(#mask-6)" points="239.281 238.479 244.139 238.479 244.139 236.05 239.281 236.05"></polygon>
                    <polygon id="Fill-228" fill="#A76B3A" mask="url(#mask-6)" points="246.568 238.479 248.998 238.479 248.998 236.05 246.568 236.05"></polygon>
                    <polygon id="Fill-229" fill="#A76B3A" mask="url(#mask-6)" points="197.962 219.038 219.835 219.038 219.835 214.179 197.962 214.179"></polygon>
                    <polygon id="Fill-230" fill="#A76B3A" mask="url(#mask-6)" points="200.395 219.039 202.825 219.039 202.825 216.609 200.395 216.609"></polygon>
                    <polygon id="Fill-231" fill="#A76B3A" mask="url(#mask-6)" points="212.548 219.039 214.978 219.039 214.978 216.609 212.548 216.609"></polygon>
                    <polygon id="Fill-232" fill="#A76B3A" mask="url(#mask-6)" points="224.699 219.038 234.422 219.038 234.422 214.179 224.699 214.179"></polygon>
                    <polygon id="Fill-233" fill="#A76B3A" mask="url(#mask-6)" points="236.851 219.038 241.708 219.038 241.708 214.179 236.851 214.179"></polygon>
                    <polygon id="Fill-234" fill="#A76B3A" mask="url(#mask-6)" points="246.568 219.038 256.291 219.038 256.291 214.179 246.568 214.179"></polygon>
                    <polygon id="Fill-235" fill="#A76B3A" mask="url(#mask-6)" points="197.966 206.887 200.396 206.887 200.396 192.307 197.966 192.307"></polygon>
                    <polygon id="Fill-236" fill="#A76B3A" mask="url(#mask-6)" points="205.255 206.887 207.685 206.887 207.685 192.307 205.255 192.307"></polygon>
                    <polygon id="Fill-237" fill="#A76B3A" mask="url(#mask-6)" points="212.548 206.887 214.978 206.887 214.978 192.307 212.548 192.307"></polygon>
                    <polygon id="Fill-238" fill="#A76B3A" mask="url(#mask-6)" points="207.689 194.737 212.548 194.737 212.548 192.307 207.689 192.307"></polygon>
                    <polygon id="Fill-239" fill="#A76B3A" mask="url(#mask-6)" points="207.689 206.887 212.548 206.887 212.548 204.459 207.689 204.459"></polygon>
                    <polygon id="Fill-240" fill="#000000" mask="url(#mask-6)" points="234.4204 272.5066 205.2574 338.1236 205.2574 272.5066"></polygon>
                    <polygon id="Fill-241" fill="#59595A" mask="url(#mask-6)" points="0.001 338.128 205.255 338.128 205.255 272.509 0.001 272.509"></polygon>
                    <polygon id="Fill-242" fill="#6E6E71" mask="url(#mask-6)" points="0.001 296.808 205.255 296.808 205.255 277.362 0.001 277.362"></polygon>
                    <polygon id="Fill-243" fill="#919497" mask="url(#mask-6)" points="0.001 291.948 205.255 291.948 205.255 287.091 0.001 287.091"></polygon>
                    <polygon id="Fill-244" fill="#000000" mask="url(#mask-6)" points="0.001 335.692 205.255 335.692 205.255 323.542 0.001 323.542"></polygon>
                    <polygon id="Fill-245" fill="#59595A" mask="url(#mask-6)" points="202.824 304.101 205.255 304.101 205.255 272.505 202.824 272.505"></polygon>
                    <polygon id="Fill-246" fill="#000000" mask="url(#mask-6)" points="202.824 338.128 205.255 338.128 205.255 304.102 202.824 304.102"></polygon>
                    <polygon id="Fill-247" fill="#59595A" mask="url(#mask-6)" points="95.889 313.824 98.319 313.824 98.319 279.798 95.889 279.798"></polygon>
                    <polygon id="Fill-248" fill="#59595A" mask="url(#mask-6)" points="137.208 313.824 139.637 313.824 139.637 279.798 137.208 279.798"></polygon>
                    <polygon id="Fill-249" fill="#59595A" mask="url(#mask-6)" points="144.495 313.824 146.926 313.824 146.926 279.798 144.495 279.798"></polygon>
                    <polygon id="Fill-250" fill="#59595A" mask="url(#mask-6)" points="190.673 313.824 193.103 313.824 193.103 279.798 190.673 279.798"></polygon>
                    <polygon id="Fill-251" fill="#59595A" mask="url(#mask-6)" points="115.334 282.227 120.193 282.227 120.193 279.797 115.334 279.797"></polygon>
                    <polygon id="Fill-252" fill="#59595A" mask="url(#mask-6)" points="166.37 282.227 171.229 282.227 171.229 279.797 166.37 279.797"></polygon>
                    <path d="M117.313,316.2527 L117.744,318.6827 C117.927,316.6127 118.17,314.0707 118.456,311.3937 L116.46,311.3937 L117.313,316.2527 Z" id="Fill-253" fill="#000000" mask="url(#mask-6)"></path>
                    <polygon id="Fill-254" fill="#000000" mask="url(#mask-6)" points="22.5083 333.2654 20.7993 323.5414 19.9423 318.6834 21.4583 318.6834 19.1713 316.8534 19.7943 324.7604"></polygon>
                    <polygon id="Fill-255" fill="#000000" mask="url(#mask-6)" points="29.6655 329.2137 27.9565 319.4907 27.1005 314.6317 27.2775 314.6317 26.3185 312.7157 26.9525 320.7087"></polygon>
                    <polygon id="Fill-256" fill="#000000" mask="url(#mask-6)" points="40.7925 328.5545 39.0835 318.8315 39.0015 318.3695 38.6875 318.6855 37.8105 316.6355 38.0785 320.0495"></polygon>
                    <polygon id="Fill-257" fill="#000000" mask="url(#mask-6)" points="44.5396 328.5369 42.8296 318.8149 42.1916 315.1829 41.4956 315.8729 41.8266 320.0319"></polygon>
                    <polygon id="Fill-258" fill="#000000" mask="url(#mask-6)" points="55.7808 328.489 54.0718 318.766 53.9738 318.244 52.7738 316.232 53.0728 319.984"></polygon>
                    <polygon id="Fill-259" fill="#000000" mask="url(#mask-6)" points="67.0229 328.4392 65.3129 318.7172 64.8329 316.0002 63.7929 313.3972 64.3099 319.9342"></polygon>
                    <polygon id="Fill-260" fill="#000000" mask="url(#mask-6)" points="69.604 321.7918 68.887 322.5118 70.769 328.4208"></polygon>
                    <polygon id="Fill-261" fill="#000000" mask="url(#mask-6)" points="74.519 328.409 72.81 318.687 72.793 318.6 71.78 319.615 71.805 319.904"></polygon>
                    <polygon id="Fill-262" fill="#000000" mask="url(#mask-6)" points="78.2651 328.3914 76.5561 318.6684 75.9831 315.4134 75.2571 316.1384 75.5521 319.8864"></polygon>
                    <polygon id="Fill-263" fill="#000000" mask="url(#mask-6)" points="93.1938 327.9793 93.1638 328.0553 93.2558 328.3293"></polygon>
                    <polygon id="Fill-264" fill="#000000" mask="url(#mask-6)" points="95.7202 321.0281 95.1662 322.5551 97.0012 328.3111"></polygon>
                    <polygon id="Fill-265" fill="#000000" mask="url(#mask-6)" points="100.7485 328.2957 99.0395 318.5727 98.2485 314.0777 97.7045 315.5747 98.0355 319.7897"></polygon>
                    <polygon id="Fill-266" fill="#000000" mask="url(#mask-6)" points="111.9907 328.2478 110.4597 319.5548 109.0657 317.0388 109.2777 319.7428"></polygon>
                    <path d="M114.4546,320.9392 C114.3686,321.9142 114.2926,322.7702 114.2316,323.5012 L115.7366,328.2322 L114.4546,320.9392 Z" id="Fill-267" fill="#000000" mask="url(#mask-6)"></path>
                    <path d="M134.4741,328.1502 L132.7651,318.4272 L131.9081,313.5682 L131.9541,313.5682 C131.7151,313.1482 131.4561,312.7012 131.1731,312.2102 L131.7611,319.6452 L134.4741,328.1502 Z" id="Fill-268" fill="#000000" mask="url(#mask-6)"></path>
                    <polygon id="Fill-269" fill="#000000" mask="url(#mask-6)" points="141.9702 328.1199 140.2612 318.3969 139.4042 313.5389 138.6572 312.0439 139.2562 319.6149"></polygon>
                    <polygon id="Fill-270" fill="#000000" mask="url(#mask-6)" points="144.0024 318.3816 143.9794 318.2296 143.3284 320.6116 145.7184 328.1046"></polygon>
                    <polygon id="Fill-271" fill="#000000" mask="url(#mask-6)" points="169.9263 321.1131 170.6913 320.8541 170.2393 318.2881"></polygon>
                    <polygon id="Fill-272" fill="#000000" mask="url(#mask-6)" points="175.6958 327.9744 174.2358 319.6764 173.1638 320.0324"></polygon>
                    <polygon id="Fill-273" fill="#000000" mask="url(#mask-6)" points="179.4419 327.9578 177.7789 318.4938 176.6829 318.8578 176.7289 319.4528"></polygon>
                    <polygon id="Fill-274" fill="#000000" mask="url(#mask-6)" points="180.4771 319.4353 183.1851 327.9403 181.4761 318.2173 181.3201 317.3143 180.3361 317.6453"></polygon>
                    <polygon id="Fill-275" fill="#000000" mask="url(#mask-6)" points="190.6831 327.909 188.9741 318.186 188.1171 313.327 189.7701 313.327 187.3401 311.435 187.9751 319.402"></polygon>
                    <polygon id="Fill-276" fill="#000000" mask="url(#mask-6)" points="194.4312 327.8943 192.7212 318.1713 192.2002 315.2133 191.3312 314.5403 191.7172 319.3893"></polygon>
                    <polygon id="Fill-277" fill="#000000" mask="url(#mask-6)" points="198.1772 327.8767 196.5442 318.5917 195.3282 317.6477 195.4642 319.3717"></polygon>
                    <polygon id="Fill-278" fill="#979BA6" mask="url(#mask-6)" points="86.172 282.227 100.753 282.227 100.753 274.934 86.172 274.934"></polygon>
                    <polygon id="Fill-279" fill="#919497" mask="url(#mask-6)" points="465.306 255.494 467.734 255.494 467.734 24.611 465.306 24.611"></polygon>
                    <polygon id="Fill-280" fill="#919497" mask="url(#mask-6)" points="496.896 255.494 499.326 255.494 499.326 24.611 496.896 24.611"></polygon>
                    <polygon id="Fill-281" fill="#919497" mask="url(#mask-6)" points="467.733 182.584 496.896 182.584 496.896 180.154 467.733 180.154"></polygon>
                    <polygon id="Fill-282" fill="#919497" mask="url(#mask-6)" points="467.733 204.458 496.896 204.458 496.896 202.028 467.733 202.028"></polygon>
                    <polygon id="Fill-283" fill="#919497" mask="url(#mask-6)" points="467.733 228.762 496.896 228.762 496.896 226.332 467.733 226.332"></polygon>
                    <polygon id="Fill-284" fill="#919497" mask="url(#mask-6)" points="467.733 114.533 496.896 114.533 496.896 112.103 467.733 112.103"></polygon>
                    <polygon id="Fill-285" fill="#919497" mask="url(#mask-6)" points="467.733 136.407 496.896 136.407 496.896 133.977 467.733 133.977"></polygon>
                    <polygon id="Fill-286" fill="#919497" mask="url(#mask-6)" points="467.733 160.71 496.896 160.71 496.896 158.28 467.733 158.28"></polygon>
                    <polygon id="Fill-287" fill="#919497" mask="url(#mask-6)" points="467.733 46.485 496.896 46.485 496.896 44.056 467.733 44.056"></polygon>
                    <polygon id="Fill-288" fill="#919497" mask="url(#mask-6)" points="467.733 68.36 496.896 68.36 496.896 65.931 467.733 65.931"></polygon>
                    <polygon id="Fill-289" fill="#919497" mask="url(#mask-6)" points="467.733 92.663 496.896 92.663 496.896 90.234 467.733 90.234"></polygon>
                    <polygon id="Fill-290" fill="#E6E6E7" mask="url(#mask-6)" points="465.306 253.065 467.734 253.065 467.734 22.182 465.306 22.182"></polygon>
                    <polygon id="Fill-291" fill="#E6E6E7" mask="url(#mask-6)" points="496.896 253.065 499.326 253.065 499.326 22.182 496.896 22.182"></polygon>
                    <polygon id="Fill-292" fill="#E6E6E7" mask="url(#mask-6)" points="467.733 180.155 496.896 180.155 496.896 177.727 467.733 177.727"></polygon>
                    <polygon id="Fill-293" fill="#E6E6E7" mask="url(#mask-6)" points="467.733 202.03 496.896 202.03 496.896 199.6 467.733 199.6"></polygon>
                    <polygon id="Fill-294" fill="#E6E6E7" mask="url(#mask-6)" points="467.733 226.333 496.896 226.333 496.896 223.903 467.733 223.903"></polygon>
                    <polygon id="Fill-295" fill="#E6E6E7" mask="url(#mask-6)" points="467.733 112.103 496.896 112.103 496.896 109.674 467.733 109.674"></polygon>
                    <polygon id="Fill-296" fill="#E6E6E7" mask="url(#mask-6)" points="467.733 133.977 496.896 133.977 496.896 131.547 467.733 131.547"></polygon>
                    <polygon id="Fill-297" fill="#E6E6E7" mask="url(#mask-6)" points="467.733 158.281 496.896 158.281 496.896 155.851 467.733 155.851"></polygon>
                    <polygon id="Fill-298" fill="#E6E6E7" mask="url(#mask-6)" points="467.733 44.056 496.896 44.056 496.896 41.627 467.733 41.627"></polygon>
                    <polygon id="Fill-299" fill="#E6E6E7" mask="url(#mask-6)" points="467.733 65.926 496.896 65.926 496.896 63.498 467.733 63.498"></polygon>
                    <polygon id="Fill-300" fill="#E6E6E7" mask="url(#mask-6)" points="467.733 90.228 496.896 90.228 496.896 87.8 467.733 87.8"></polygon>
                    <polygon id="Fill-301" fill="#FFFFFF" mask="url(#mask-6)" points="472.594 180.155 492.037 180.155 492.037 177.727 472.594 177.727"></polygon>
                    <polygon id="Fill-302" fill="#FFFFFF" mask="url(#mask-6)" points="472.594 202.03 492.037 202.03 492.037 199.6 472.594 199.6"></polygon>
                    <polygon id="Fill-303" fill="#FFFFFF" mask="url(#mask-6)" points="472.594 226.333 492.037 226.333 492.037 223.903 472.594 223.903"></polygon>
                    <polygon id="Fill-304" fill="#FFFFFF" mask="url(#mask-6)" points="472.594 112.103 492.037 112.103 492.037 109.674 472.594 109.674"></polygon>
                    <polygon id="Fill-305" fill="#FFFFFF" mask="url(#mask-6)" points="472.594 133.977 492.037 133.977 492.037 131.547 472.594 131.547"></polygon>
                    <polygon id="Fill-306" fill="#FFFFFF" mask="url(#mask-6)" points="472.594 158.281 492.037 158.281 492.037 155.851 472.594 155.851"></polygon>
                    <polygon id="Fill-307" fill="#FFFFFF" mask="url(#mask-6)" points="472.594 44.056 492.037 44.056 492.037 41.627 472.594 41.627"></polygon>
                    <polygon id="Fill-308" fill="#FFFFFF" mask="url(#mask-6)" points="472.594 65.926 492.037 65.926 492.037 63.498 472.594 63.498"></polygon>
                    <polygon id="Fill-309" fill="#FFFFFF" mask="url(#mask-6)" points="472.594 90.228 492.037 90.228 492.037 87.8 472.594 87.8"></polygon>
                    <polygon id="Fill-310" fill="#A76B3A" mask="url(#mask-6)" points="217.725 206.887 220.155 206.887 220.155 192.307 217.725 192.307"></polygon>
                    <polygon id="Fill-311" fill="#A76B3A" mask="url(#mask-6)" points="225.018 206.887 227.448 206.887 227.448 192.307 225.018 192.307"></polygon>
                    <polygon id="Fill-312" fill="#A76B3A" mask="url(#mask-6)" points="220.159 194.737 225.018 194.737 225.018 192.307 220.159 192.307"></polygon>
                    <polygon id="Fill-313" fill="#A76B3A" mask="url(#mask-6)" points="220.159 206.887 225.018 206.887 225.018 204.459 220.159 204.459"></polygon>
                </g>
            </g>
        </g>
    </g>
</svg>