<svg xmlns="http://www.w3.org/2000/svg" xmlns:xlink="http://www.w3.org/1999/xlink" width="568" height="360" viewBox="0 0 568 360">
    <defs>
        <path id="a" d="M27.376 32.377V.787H.643v31.59h26.733z"/>
        <path id="c" d="M0 360h567.376V.307H0z"/>
        <path id="e" d="M0 360h567.376V.307H0z"/>
    </defs>
    <g fill="none" fill-rule="evenodd">
        <path fill="#6E6E71" d="M44.853 2.431h2.429V.001h-2.429zM115.332 2.431h2.431V.001h-2.431z"/>
        <path fill="#7F8183" d="M25.412 2.431h2.431V.001h-2.431zM49.716 2.431h2.43V.001h-2.43zM37.564 2.431h2.429V.001h-2.429zM44.853 4.86h2.43V2.43h-2.43z"/>
        <path fill="#221F20" d="M81.307 2.431h2.43V.001h-2.43zM66.727 7.294h2.43v-2.43h-2.43zM74.02 2.431h2.43V.001h-2.43zM61.867 2.431h2.431V.001h-2.431zM52.147 2.431h2.428V.001h-2.428zM57.004 4.86h2.43V2.43h-2.43zM105.61 2.431h2.43V.001h-2.43zM93.46 2.431h2.43V.001h-2.43zM100.753 4.86h2.43V2.43h-2.43z"/>
        <path fill="#1F2D3D" d="M533.352 294.072h24.303V264.91h-24.303z"/>
        <path fill="#000" d="M433.708 286.785h114.225v-17.012H433.708z"/>
        <path fill="#000" d="M521.2 306.223h4.859v-34.025H521.2z"/>
        <path fill="#65605E" d="M509.049 281.92h17.01v-9.723h-17.01z"/>
        <g transform="translate(0 -.307)">
            <g transform="translate(540 262)">
                <mask id="b" fill="#fff">
                    <use xlink:href="#a"/>
                </mask>
                <path fill="#494C55" d="M27.377 27.52a4.857 4.857 0 0 1-4.858 4.857H5.503a4.859 4.859 0 0 1-4.86-4.858L12.795 5.644V.787h9.723a4.857 4.857 0 0 1 4.858 4.857V27.52z" mask="url(#b)"/>
            </g>
            <mask id="d" fill="#fff">
                <use xlink:href="#c"/>
            </mask>
            <path fill="#65605E" d="M538.21 294.379h24.303v-29.162H538.21z" mask="url(#d)"/>
            <path fill="#837F7D" d="M538.21 270.075h24.303v-2.43H538.21zM560.085 289.519h2.428v-19.444h-2.428z" mask="url(#d)"/>
            <path fill="#989495" d="M538.215 289.519h2.43v-19.444h-2.43z" mask="url(#d)"/>
            <path fill="#1F2D3D" d="M533.352 282.227h24.303v-4.859h-24.303z" mask="url(#d)"/>
            <path fill="#000" d="M533.352 279.798h24.303v-2.43h-24.303z" mask="url(#d)"/>
            <path fill="#837F7D" d="M538.215 277.368h17.01v-2.43h-17.01z" mask="url(#d)"/>
            <path fill="#1F2D3D" d="M555.226 289.519h2.429v-17.01h-2.429z" mask="url(#d)"/>
            <path fill="#000" d="M-.001 279.798h509.049v-17.01H-.001z" mask="url(#d)"/>
            <path fill="#000" d="M290.317 291.949l46.179 46.177h68.047l43.749-43.747v-21.875H290.317z" mask="url(#d)"/>
            <path fill="#192239" d="M416.696 313.823c0 25.499 20.676 46.177 46.177 46.177 25.506 0 46.177-20.678 46.177-46.177 0-25.501-20.671-46.179-46.177-46.179-25.501 0-46.177 20.678-46.177 46.179" mask="url(#d)"/>
            <path fill="#7C7C7D" d="M421.556 313.823c0 22.817 18.495 41.313 41.314 41.313 22.817 0 41.32-18.496 41.32-41.313 0-22.819-18.503-41.315-41.32-41.315-22.819 0-41.314 18.496-41.314 41.315" mask="url(#d)"/>
            <path fill="#000" d="M426.418 313.823c0 20.134 16.325 36.454 36.452 36.454 20.137 0 36.457-16.32 36.457-36.454 0-20.136-16.32-36.456-36.457-36.456-20.127 0-36.452 16.32-36.452 36.456" mask="url(#d)"/>
            <path fill="#59595A" d="M438.568 299.24H465.3c7.293 0 4.865 17.011 4.865 17.011s14.582 0 14.582-14.582c0-9.721-9.724-12.152-14.582-12.152h-31.598v9.723zM370.521 318.681h4.859v-24.303h-4.859zM365.656 333.263h9.724v-7.293h-9.724z" mask="url(#d)"/>
            <path fill="#7C7C7D" d="M380.243 318.681h24.304v-2.43h-24.304z" mask="url(#d)"/>
            <path fill="#1B243A" d="M380.243 316.253h24.304v-2.429h-24.304z" mask="url(#d)"/>
            <path fill="#7C7C7D" d="M380.243 311.388h24.304v-2.43h-24.304z" mask="url(#d)"/>
            <path fill="#9E9D9C" d="M385.101 318.681h9.722v-2.43h-9.722z" mask="url(#d)"/>
            <path fill="#59595A" d="M385.101 316.253h9.722v-2.429h-9.722z" mask="url(#d)"/>
            <path fill="#7C7C7D" d="M380.243 325.975h24.304v-2.43h-24.304z" mask="url(#d)"/>
            <path fill="#1B243A" d="M380.243 323.542h24.304v-2.431h-24.304z" mask="url(#d)"/>
            <path fill="#9E9D9C" d="M385.101 325.975h9.722v-2.43h-9.722z" mask="url(#d)"/>
            <path fill="#59595A" d="M385.101 323.542h9.722v-2.431h-9.722z" mask="url(#d)"/>
            <path fill="#9E9D9C" d="M385.101 311.388h9.722v-2.43h-9.722z" mask="url(#d)"/>
            <path fill="#1B243A" d="M380.243 308.96h24.304v-2.429h-24.304z" mask="url(#d)"/>
            <path fill="#59595A" d="M385.101 308.96h9.722v-2.429h-9.722z" mask="url(#d)"/>
            <path fill="#7C7C7D" d="M380.243 304.101h24.304v-2.429h-24.304z" mask="url(#d)"/>
            <path fill="#9E9D9C" d="M385.101 304.101h9.722v-2.429h-9.722z" mask="url(#d)"/>
            <path fill="#1B243A" d="M380.243 301.673h24.304v-2.431h-24.304z" mask="url(#d)"/>
            <path fill="#59595A" d="M385.101 301.673h9.722v-2.431h-9.722z" mask="url(#d)"/>
            <path fill="#59595A" d="M436.138 301.67l-14.582 14.58c-2.43 2.43-7.293 4.865-7.293-4.856 0-.793 0-8.897.011-9.723.075-6.847.781-7.293 7.282-7.293h14.582c2.43 0 4.858 2.434 0 7.293m4.858-17.01h-70.475v9.717h26.732c4.86 0 9.722 2.434 9.722 9.722v26.738c-1.824 2.429-4.862 4.859-9.722 4.859h-26.732v7.287h31.592c7.293 0 12.15-7.287 12.15-7.287L445.86 304.1c12.152-12.152 9.722-19.44-4.864-19.44" mask="url(#d)"/>
            <path fill="#7C7C7D" d="M477.454 323.544a4.858 4.858 0 0 1-4.858 4.858H453.15a4.858 4.858 0 0 1-4.858-4.858v-19.445a4.859 4.859 0 0 1 4.858-4.86h19.445a4.859 4.859 0 0 1 4.858 4.86v19.445z" mask="url(#d)"/>
            <path fill="#000" d="M450.72 313.823c0 6.709 5.441 12.151 12.151 12.151 6.711 0 12.153-5.442 12.153-12.151 0-6.711-5.442-12.152-12.153-12.152-6.71 0-12.15 5.441-12.15 12.152" mask="url(#d)"/>
            <path fill="#59595A" d="M453.15 313.823c0 5.369 4.353 9.721 9.723 9.721 5.365 0 9.723-4.352 9.723-9.721 0-5.371-4.358-9.723-9.723-9.723a9.722 9.722 0 0 0-9.723 9.723" mask="url(#d)"/>
            <path fill="#7C7C7D" d="M458.011 313.823a4.862 4.862 0 0 0 9.723 0 4.862 4.862 0 0 0-9.723 0" mask="url(#d)"/>
            <path fill="#192239" d="M324.342 313.823c0 25.499-20.677 46.177-46.178 46.177-25.505 0-46.176-20.678-46.176-46.177 0-25.501 20.671-46.179 46.176-46.179 25.501 0 46.178 20.678 46.178 46.179" mask="url(#d)"/>
            <path fill="#7C7C7D" d="M319.481 313.823c0 22.817-18.495 41.313-41.313 41.313-22.817 0-41.32-18.496-41.32-41.313 0-22.819 18.503-41.315 41.32-41.315 22.818 0 41.313 18.496 41.313 41.315" mask="url(#d)"/>
            <path fill="#000" d="M314.62 313.823c0 20.134-16.323 36.454-36.453 36.454-20.135 0-36.456-16.32-36.456-36.454 0-20.136 16.32-36.456 36.456-36.456 20.13 0 36.454 16.32 36.454 36.456" mask="url(#d)"/>
            <path fill="#59595A" d="M302.47 299.24h-26.733c-7.293 0-4.864 17.011-4.864 17.011s-14.582 0-14.582-14.582c0-9.721 9.722-12.152 14.582-12.152h31.596v9.723zM365.657 318.681h4.858v-24.303h-4.858z" mask="url(#d)"/>
            <path fill="#7C7C7D" d="M336.494 318.681h24.304v-2.43h-24.304z" mask="url(#d)"/>
            <path fill="#1B243A" d="M336.494 316.253h24.304v-2.429h-24.304z" mask="url(#d)"/>
            <path fill="#7C7C7D" d="M336.494 311.388h24.304v-2.43h-24.304z" mask="url(#d)"/>
            <path fill="#9E9D9C" d="M346.217 318.681h9.723v-2.43h-9.723z" mask="url(#d)"/>
            <path fill="#59595A" d="M346.217 316.253h9.723v-2.429h-9.723z" mask="url(#d)"/>
            <path fill="#7C7C7D" d="M336.494 325.975h24.304v-2.43h-24.304z" mask="url(#d)"/>
            <path fill="#1B243A" d="M336.494 323.542h24.304v-2.431h-24.304z" mask="url(#d)"/>
            <path fill="#9E9D9C" d="M346.217 325.975h9.723v-2.43h-9.723z" mask="url(#d)"/>
            <path fill="#59595A" d="M346.217 323.542h9.723v-2.431h-9.723z" mask="url(#d)"/>
            <path fill="#9E9D9C" d="M346.217 311.388h9.723v-2.43h-9.723z" mask="url(#d)"/>
            <path fill="#1B243A" d="M336.494 308.96h24.304v-2.429h-24.304z" mask="url(#d)"/>
            <path fill="#59595A" d="M346.217 308.96h9.723v-2.429h-9.723z" mask="url(#d)"/>
            <path fill="#7C7C7D" d="M336.494 304.101h24.304v-2.429h-24.304z" mask="url(#d)"/>
            <path fill="#9E9D9C" d="M346.217 304.101h9.723v-2.429h-9.723z" mask="url(#d)"/>
            <path fill="#1B243A" d="M336.494 301.673h24.304v-2.431h-24.304z" mask="url(#d)"/>
            <path fill="#59595A" d="M346.217 301.673h9.723v-2.431h-9.723z" mask="url(#d)"/>
            <path fill="#59595A" d="M304.899 294.379h14.582c6.5 0 7.207.446 7.283 7.294.01.826.01 8.93.01 9.718 0 9.72-4.862 7.293-7.293 4.864-2.43-2.431-9.723-9.725-14.582-14.582-4.857-4.864-2.428-7.294 0-7.294m-9.721 9.723c12.152 12.153 31.596 31.59 31.596 31.59s4.858 7.294 12.15 7.294h31.593v-7.293h-26.732c-4.86 0-7.898-2.43-9.723-4.858v-26.733c0-7.293 4.863-9.723 9.723-9.723h26.732v-9.722h-70.475c-14.586 0-17.017 7.293-4.864 19.445" mask="url(#d)"/>
            <path fill="#59595A" d="M404.543 285.874a3.647 3.647 0 0 1-3.646 3.646H337.71a3.646 3.646 0 1 1 0-7.293h63.188a3.646 3.646 0 0 1 3.647 3.647" mask="url(#d)"/>
            <path fill="#000" d="M397.252 288.303c0 .67-.543 1.219-1.216 1.219H345c-.67 0-1.212-.548-1.212-1.219 0-.67.541-1.219 1.212-1.219h51.036c.673 0 1.216.55 1.216 1.22" mask="url(#d)"/>
            <path fill="#59595A" d="M334.065 277.368h26.733v-2.43h-26.733zM380.243 277.368h26.733v-2.43h-26.733z" mask="url(#d)"/>
            <path fill="#7C7C7D" d="M292.748 323.544a4.86 4.86 0 0 1-4.858 4.858h-19.445a4.86 4.86 0 0 1-4.86-4.858v-19.445a4.86 4.86 0 0 1 4.86-4.86h19.445a4.86 4.86 0 0 1 4.858 4.86v19.445z" mask="url(#d)"/>
            <path fill="#000" d="M290.317 313.823c0 6.709-5.44 12.151-12.15 12.151s-12.153-5.442-12.153-12.151c0-6.711 5.444-12.152 12.153-12.152 6.71 0 12.15 5.441 12.15 12.152" mask="url(#d)"/>
            <path fill="#59595A" d="M287.888 313.823c0 5.369-4.353 9.721-9.724 9.721-5.365 0-9.722-4.352-9.722-9.721 0-5.371 4.357-9.723 9.722-9.723 5.371 0 9.724 4.352 9.724 9.723" mask="url(#d)"/>
            <path fill="#7C7C7D" d="M283.027 313.823a4.862 4.862 0 0 1-9.723 0 4.862 4.862 0 0 1 9.723 0" mask="url(#d)"/>
            <path fill="#D1D1D3" d="M.001 262.781h521.198V2.738H.001z" mask="url(#d)"/>
            <path fill="#BABDBF" d="M.002 262.788h513.904v-41.315H.002z" mask="url(#d)"/>
            <path fill="#919497" d="M.001 250.629h506.617V14.888H.001z" mask="url(#d)"/>
            <path fill="#C4C5BD" d="M.001 250.629H501.76V14.888H.001z" mask="url(#d)"/>
            <path fill="#B1B0A8" d="M0 183.997c50.167-.57 107.496-2.382 173.661-6.274 247.894-14.58 328.099 0 328.099 0v72.912H0v-66.638z" mask="url(#d)"/>
        </g>
        <path d="M433.708 240.606c-12.959 0-150.684-21.875-150.684-21.875-29.416 14.709-28.508 20.622-106.932 21.875-.76.015-1.55-1.217-2.332-2.45-.868-1.364-1.73-2.729-2.531-2.407-12.148 4.857-44.971 4.857-58.329 4.857-17.188 0-34.498-8.423-51.038-9.724-.811-.059-1.622 1.772-2.428 3.603-.812 1.835-1.623 3.667-2.424 3.595-21.06-1.777-40.696-4.26-57.008-6.67v18.919h501.754v-51.042s-31.593 41.319-68.048 41.319"/>
        <path fill="#919497" d="M.002 150.681H501.76v-2.43H.002z"/>
        <path fill="#D1D1D3" d="M.002 148.251H501.76v-2.428H.002z"/>
        <path fill="#919497" d="M.002 14.583h528.486V.002H.002z"/>
        <path fill="#E6E6E7" d="M.002 4.862h528.486V.002H.002z"/>
        <path fill="#221F20" d="M.002 19.441H521.2v-4.859H.002z"/>
        <path fill="#D1D1D3" d="M506.618 264.91h9.724V7.295h-9.724z"/>
        <path fill="#E6E6E7" d="M513.911 264.91h2.431V9.725h-2.431z"/>
        <path fill="#919497" d="M504.189 250.33h2.43V19.447h-2.43zM538.21 136.1h2.429V24.305h-2.429zM521.199 126.376h17.011v-2.43h-17.011zM521.199 136.1h17.011v-2.43h-17.011zM521.199 82.634h17.011v-2.43h-17.011zM521.199 43.749h17.011V41.32h-17.011z"/>
        <path fill="#919497" d="M538.924 26.022l-14.458-14.458 1.72-1.72 14.457 14.46zM521.198 247.894h2.43v-9.723h-2.43z"/>
        <path fill="#919497" d="M518.769 250.33h2.43V19.447h-2.43zM504.189 262.481h2.43v-12.152h-2.43z"/>
        <path fill="#919497" d="M516.342 262.481h2.428v-12.152h-2.428z"/>
        <g transform="translate(0 -.307)">
            <path fill="#919497" d="M479.884 34.333c0 1.338-1.633 4.86-3.646 4.86H430.06c-2.009 0-3.642-3.522-3.642-4.86h53.466z"/>
            <path fill="#D1D1D3" d="M479.884 34.333c0 1.338-1.633 2.43-3.646 2.43H430.06c-2.009 0-3.642-1.092-3.642-2.43 0-1.339 1.633-2.43 3.642-2.43h46.178c2.013 0 3.646 1.091 3.646 2.43"/>
            <path fill="#919497" d="M479.884 78.079c0 1.34-1.633 4.859-3.646 4.859H430.06c-2.009 0-3.642-3.52-3.642-4.86h53.466z"/>
            <path fill="#D1D1D3" d="M479.884 78.079c0 1.34-1.633 2.43-3.646 2.43H430.06c-2.009 0-3.642-1.09-3.642-2.43 0-1.338 1.633-2.43 3.642-2.43h46.178c2.013 0 3.646 1.092 3.646 2.43"/>
            <path fill="#919497" d="M479.884 124.256c0 1.34-1.633 4.86-3.646 4.86H430.06c-2.009 0-3.642-3.52-3.642-4.86h53.466z"/>
            <path fill="#D1D1D3" d="M479.884 124.256c0 1.34-1.633 2.43-3.646 2.43H430.06c-2.009 0-3.642-1.09-3.642-2.43 0-1.339 1.633-2.43 3.642-2.43h46.178c2.013 0 3.646 1.091 3.646 2.43"/>
            <path fill="#919497" d="M479.884 177.723c0 1.34-1.633 4.86-3.646 4.86H430.06c-2.009 0-3.642-3.52-3.642-4.86h53.466z"/>
            <path fill="#D1D1D3" d="M479.884 177.723c0 1.34-1.633 2.43-3.646 2.43H430.06c-2.009 0-3.642-1.09-3.642-2.43 0-1.338 1.633-2.43 3.642-2.43h46.178c2.013 0 3.646 1.092 3.646 2.43"/>
            <path fill="#919497" d="M479.884 221.469c0 1.34-1.633 4.858-3.646 4.858H430.06c-2.009 0-3.642-3.518-3.642-4.858h53.466z"/>
            <path fill="#D1D1D3" d="M479.884 221.469c0 1.34-1.633 2.43-3.646 2.43H430.06c-2.009 0-3.642-1.09-3.642-2.43 0-1.338 1.633-2.428 3.642-2.428h46.178c2.013 0 3.646 1.09 3.646 2.428"/>
            <mask id="f" fill="#fff">
                <use xlink:href="#e"/>
            </mask>
            <path fill="#D1D1D3" d="M394.822 265.217h9.724V7.602h-9.724z" mask="url(#f)"/>
            <path fill="#E6E6E7" d="M402.115 265.217h2.431V10.032h-2.431z" mask="url(#f)"/>
            <path fill="#919497" d="M392.394 250.637h2.43V19.754h-2.43z" mask="url(#f)"/>
            <path fill="#919497" d="M392.394 262.788h2.43v-12.152h-2.43zM404.546 262.788h2.43v-12.152h-2.43zM368.087 34.333c0 1.338-1.633 4.86-3.646 4.86h-46.177c-2.014 0-3.64-3.522-3.64-4.86h53.463z" mask="url(#f)"/>
            <path fill="#D1D1D3" d="M368.087 34.333c0 1.338-1.633 2.43-3.646 2.43h-46.177c-2.014 0-3.64-1.092-3.64-2.43 0-1.339 1.626-2.43 3.64-2.43h46.177c2.013 0 3.646 1.091 3.646 2.43" mask="url(#f)"/>
            <path fill="#919497" d="M368.087 78.079c0 1.34-1.633 4.859-3.646 4.859h-46.177c-2.014 0-3.64-3.52-3.64-4.86h53.463z" mask="url(#f)"/>
            <path fill="#D1D1D3" d="M368.087 78.079c0 1.34-1.633 2.43-3.646 2.43h-46.177c-2.014 0-3.64-1.09-3.64-2.43 0-1.338 1.626-2.43 3.64-2.43h46.177c2.013 0 3.646 1.092 3.646 2.43" mask="url(#f)"/>
            <path fill="#919497" d="M368.087 124.256c0 1.34-1.633 4.86-3.646 4.86h-46.177c-2.014 0-3.64-3.52-3.64-4.86h53.463z" mask="url(#f)"/>
            <path fill="#D1D1D3" d="M368.087 124.256c0 1.34-1.633 2.43-3.646 2.43h-46.177c-2.014 0-3.64-1.09-3.64-2.43 0-1.339 1.626-2.43 3.64-2.43h46.177c2.013 0 3.646 1.091 3.646 2.43" mask="url(#f)"/>
            <path fill="#919497" d="M368.087 177.723c0 1.34-1.633 4.86-3.646 4.86h-46.177c-2.014 0-3.64-3.52-3.64-4.86h53.463z" mask="url(#f)"/>
            <path fill="#D1D1D3" d="M368.087 177.723c0 1.34-1.633 2.43-3.646 2.43h-46.177c-2.014 0-3.64-1.09-3.64-2.43 0-1.338 1.626-2.43 3.64-2.43h46.177c2.013 0 3.646 1.092 3.646 2.43" mask="url(#f)"/>
            <path fill="#919497" d="M368.087 221.469c0 1.34-1.633 4.858-3.646 4.858h-46.177c-2.014 0-3.64-3.518-3.64-4.858h53.463z" mask="url(#f)"/>
            <path fill="#D1D1D3" d="M368.087 221.469c0 1.34-1.633 2.43-3.646 2.43h-46.177c-2.014 0-3.64-1.09-3.64-2.43 0-1.338 1.626-2.428 3.64-2.428h46.177c2.013 0 3.646 1.09 3.646 2.428M280.594 265.217h9.723V7.602h-9.723z" mask="url(#f)"/>
            <path fill="#E6E6E7" d="M287.887 265.217h2.43V10.032h-2.43z" mask="url(#f)"/>
            <path fill="#919497" d="M278.164 250.637h2.431V19.754h-2.431z" mask="url(#f)"/>
            <path fill="#919497" d="M278.164 262.788h2.431v-12.152h-2.431zM290.318 262.788h2.428v-12.152h-2.428zM253.863 34.333c0 1.338-1.633 4.86-3.646 4.86H204.04c-2.01 0-3.643-3.522-3.643-4.86h53.466z" mask="url(#f)"/>
            <path fill="#D1D1D3" d="M253.863 34.333c0 1.338-1.633 2.43-3.646 2.43H204.04c-2.01 0-3.643-1.092-3.643-2.43 0-1.339 1.633-2.43 3.643-2.43h46.177c2.013 0 3.646 1.091 3.646 2.43" mask="url(#f)"/>
            <path fill="#919497" d="M253.863 78.079c0 1.34-1.633 4.859-3.646 4.859H204.04c-2.01 0-3.643-3.52-3.643-4.86h53.466z" mask="url(#f)"/>
            <path fill="#D1D1D3" d="M253.863 78.079c0 1.34-1.633 2.43-3.646 2.43H204.04c-2.01 0-3.643-1.09-3.643-2.43 0-1.338 1.633-2.43 3.643-2.43h46.177c2.013 0 3.646 1.092 3.646 2.43" mask="url(#f)"/>
            <path fill="#919497" d="M253.863 124.256c0 1.34-1.633 4.86-3.646 4.86H204.04c-2.01 0-3.643-3.52-3.643-4.86h53.466z" mask="url(#f)"/>
            <path fill="#D1D1D3" d="M253.863 124.256c0 1.34-1.633 2.43-3.646 2.43H204.04c-2.01 0-3.643-1.09-3.643-2.43 0-1.339 1.633-2.43 3.643-2.43h46.177c2.013 0 3.646 1.091 3.646 2.43" mask="url(#f)"/>
            <path fill="#919497" d="M253.863 177.723c0 1.34-1.633 4.86-3.646 4.86H204.04c-2.01 0-3.643-3.52-3.643-4.86h53.466z" mask="url(#f)"/>
            <path fill="#D1D1D3" d="M253.863 177.723c0 1.34-1.633 2.43-3.646 2.43H204.04c-2.01 0-3.643-1.09-3.643-2.43 0-1.338 1.633-2.43 3.643-2.43h46.177c2.013 0 3.646 1.092 3.646 2.43" mask="url(#f)"/>
            <path fill="#919497" d="M253.863 221.469c0 1.34-1.633 4.858-3.646 4.858H204.04c-2.01 0-3.643-3.518-3.643-4.858h53.466z" mask="url(#f)"/>
            <path fill="#D1D1D3" d="M253.863 221.469c0 1.34-1.633 2.43-3.646 2.43H204.04c-2.01 0-3.643-1.09-3.643-2.43 0-1.338 1.633-2.428 3.643-2.428h46.177c2.013 0 3.646 1.09 3.646 2.428M168.799 265.217h9.723V7.602h-9.723z" mask="url(#f)"/>
            <path fill="#E6E6E7" d="M176.092 265.217h2.43V10.032h-2.43z" mask="url(#f)"/>
            <path fill="#919497" d="M166.368 250.637h2.431V19.754h-2.431z" mask="url(#f)"/>
            <path fill="#919497" d="M166.368 262.788h2.431v-12.152h-2.431zM178.522 262.788h2.43v-12.152h-2.43zM142.068 34.333c0 1.338-1.633 4.86-3.647 4.86H92.244c-2.015 0-3.642-3.522-3.642-4.86h53.466z" mask="url(#f)"/>
            <path fill="#D1D1D3" d="M142.068 34.333c0 1.338-1.633 2.43-3.647 2.43H92.244c-2.015 0-3.642-1.092-3.642-2.43 0-1.339 1.627-2.43 3.642-2.43h46.177c2.014 0 3.647 1.091 3.647 2.43" mask="url(#f)"/>
            <path fill="#919497" d="M142.068 78.079c0 1.34-1.633 4.859-3.647 4.859H92.244c-2.015 0-3.642-3.52-3.642-4.86h53.466z" mask="url(#f)"/>
            <path fill="#D1D1D3" d="M142.068 78.079c0 1.34-1.633 2.43-3.647 2.43H92.244c-2.015 0-3.642-1.09-3.642-2.43 0-1.338 1.627-2.43 3.642-2.43h46.177c2.014 0 3.647 1.092 3.647 2.43" mask="url(#f)"/>
            <path fill="#919497" d="M142.068 124.256c0 1.34-1.633 4.86-3.647 4.86H92.244c-2.015 0-3.642-3.52-3.642-4.86h53.466z" mask="url(#f)"/>
            <path fill="#D1D1D3" d="M142.068 124.256c0 1.34-1.633 2.43-3.647 2.43H92.244c-2.015 0-3.642-1.09-3.642-2.43 0-1.339 1.627-2.43 3.642-2.43h46.177c2.014 0 3.647 1.091 3.647 2.43" mask="url(#f)"/>
            <path fill="#919497" d="M142.068 177.723c0 1.34-1.633 4.86-3.647 4.86H92.244c-2.015 0-3.642-3.52-3.642-4.86h53.466z" mask="url(#f)"/>
            <path fill="#D1D1D3" d="M142.068 177.723c0 1.34-1.633 2.43-3.647 2.43H92.244c-2.015 0-3.642-1.09-3.642-2.43 0-1.338 1.627-2.43 3.642-2.43h46.177c2.014 0 3.647 1.092 3.647 2.43" mask="url(#f)"/>
            <path fill="#919497" d="M142.068 221.469c0 1.34-1.633 4.858-3.647 4.858H92.244c-2.015 0-3.642-3.518-3.642-4.858h53.466z" mask="url(#f)"/>
            <path fill="#D1D1D3" d="M142.068 221.469c0 1.34-1.633 2.43-3.647 2.43H92.244c-2.015 0-3.642-1.09-3.642-2.43 0-1.338 1.627-2.428 3.642-2.428h46.177c2.014 0 3.647 1.09 3.647 2.428M57.004 265.217h9.723V7.602h-9.723z" mask="url(#f)"/>
            <path fill="#E6E6E7" d="M64.297 265.217h2.43V10.032h-2.43z" mask="url(#f)"/>
            <path fill="#919497" d="M54.573 250.637h2.431V19.754h-2.431z" mask="url(#f)"/>
            <path fill="#919497" d="M54.573 262.788h2.431v-12.152h-2.431zM66.727 262.788h2.43v-12.152h-2.43zM30.271 34.333c0 1.338-1.633 4.86-3.646 4.86H.001v-4.86h30.27z" mask="url(#f)"/>
            <path fill="#D1D1D3" d="M30.271 34.333c0 1.338-1.633 2.43-3.646 2.43H.001v-4.86h26.624c2.013 0 3.646 1.091 3.646 2.43" mask="url(#f)"/>
            <path fill="#919497" d="M30.271 78.079c0 1.34-1.633 4.859-3.646 4.859H.001v-4.86h30.27z" mask="url(#f)"/>
            <path fill="#D1D1D3" d="M30.271 78.079c0 1.34-1.633 2.43-3.646 2.43H.001v-4.86h26.624c2.013 0 3.646 1.092 3.646 2.43" mask="url(#f)"/>
            <path fill="#919497" d="M30.271 124.256c0 1.34-1.633 4.86-3.646 4.86H.001v-4.86h30.27z" mask="url(#f)"/>
            <path fill="#D1D1D3" d="M30.271 124.256c0 1.34-1.633 2.43-3.646 2.43H.001v-4.86h26.624c2.013 0 3.646 1.091 3.646 2.43" mask="url(#f)"/>
            <path fill="#919497" d="M30.271 177.723c0 1.34-1.633 4.86-3.646 4.86H.001v-4.86h30.27z" mask="url(#f)"/>
            <path fill="#D1D1D3" d="M30.271 177.723c0 1.34-1.633 2.43-3.646 2.43H.001v-4.86h26.624c2.013 0 3.646 1.092 3.646 2.43" mask="url(#f)"/>
            <path fill="#919497" d="M30.271 221.469c0 1.34-1.633 4.858-3.646 4.858H.001v-4.858h30.27z" mask="url(#f)"/>
            <path fill="#D1D1D3" d="M30.271 221.469c0 1.34-1.633 2.43-3.646 2.43H.001v-4.858h26.624c2.013 0 3.646 1.09 3.646 2.428M404.541 46.485h43.749V17.324h-43.749z" mask="url(#f)"/>
            <path fill="#E6E6E7" d="M445.86 46.485h2.43V17.324h-2.43z" mask="url(#f)"/>
            <path fill="#919497" d="M404.541 48.914h43.749v-2.429h-43.749z" mask="url(#f)"/>
            <path fill="#A76B3A" d="M197.967 228.762h4.858v-4.859h-4.858zM205.261 228.762h4.858v-4.859h-4.858zM224.699 228.762h4.859v-4.859h-4.859zM214.978 228.762h2.428v-4.859h-2.428zM219.841 228.762h2.428v-4.859h-2.428zM231.991 228.762h2.431v-4.859h-2.431zM239.281 228.762h4.858v-4.859h-4.858zM246.573 228.762h2.428v-4.859h-2.428zM253.866 228.762h4.859v-4.859h-4.859zM261.153 228.762h2.43v-4.859h-2.43zM258.721 233.619h4.857v-2.43h-4.857zM251.432 233.619h4.858v-2.43h-4.858zM231.988 233.619h4.858v-2.43h-4.858zM244.139 233.619h2.43v-2.43h-2.43zM239.281 233.619h2.428v-2.43h-2.428zM227.129 233.619h2.43v-2.43h-2.43zM217.406 233.619h4.859v-2.43h-4.859zM212.548 233.619h2.428v-2.43h-2.428zM202.825 233.619h4.859v-2.43h-4.859zM197.966 233.619h2.43v-2.43h-2.43zM197.967 238.479h4.858v-2.429h-4.858zM205.256 238.479h4.857v-2.429h-4.857zM224.699 238.479h4.859v-2.429h-4.859zM214.978 238.479h2.428v-2.429h-2.428zM219.835 238.479h2.43v-2.429h-2.43zM231.988 238.479h2.428v-2.429h-2.428zM239.281 238.479h4.858v-2.429h-4.858zM246.568 238.479h2.43v-2.429h-2.43zM197.962 219.038h21.873v-4.859h-21.873z" mask="url(#f)"/>
            <path fill="#A76B3A" d="M200.395 219.039h2.43v-2.43h-2.43zM212.548 219.039h2.43v-2.43h-2.43zM224.699 219.038h9.723v-4.859h-9.723zM236.851 219.038h4.857v-4.859h-4.857zM246.568 219.038h9.723v-4.859h-9.723zM197.966 206.887h2.43v-14.58h-2.43zM205.255 206.887h2.43v-14.58h-2.43zM212.548 206.887h2.43v-14.58h-2.43zM207.689 194.737h4.859v-2.43h-4.859zM207.689 206.887h4.859v-2.428h-4.859z" mask="url(#f)"/>
            <path fill="#000" d="M234.42 272.507l-29.163 65.617v-65.617z" mask="url(#f)"/>
            <path fill="#59595A" d="M.001 338.128h205.254v-65.619H.001z" mask="url(#f)"/>
            <path fill="#6E6E71" d="M.001 296.808h205.254v-19.446H.001z" mask="url(#f)"/>
            <path fill="#919497" d="M.001 291.948h205.254v-4.857H.001z" mask="url(#f)"/>
            <path fill="#000" d="M.001 335.692h205.254v-12.15H.001z" mask="url(#f)"/>
            <path fill="#59595A" d="M202.824 304.101h2.431v-31.596h-2.431z" mask="url(#f)"/>
            <path fill="#000" d="M202.824 338.128h2.431v-34.026h-2.431z" mask="url(#f)"/>
            <path fill="#59595A" d="M95.889 313.824h2.43v-34.026h-2.43zM137.208 313.824h2.429v-34.026h-2.429zM144.495 313.824h2.431v-34.026h-2.431zM190.673 313.824h2.43v-34.026h-2.43zM115.334 282.227h4.859v-2.43h-4.859zM166.37 282.227h4.859v-2.43h-4.859z" mask="url(#f)"/>
            <path fill="#000" d="M117.313 316.253l.431 2.43c.183-2.07.426-4.612.712-7.29h-1.996l.853 4.86zM22.508 333.265l-1.709-9.724-.857-4.858h1.516l-2.287-1.83.623 7.907zM29.666 329.214l-1.71-9.723-.855-4.86h.177l-.96-1.915.634 7.993zM40.792 328.555l-1.709-9.724-.081-.462-.315.316-.877-2.05.268 3.415zM44.54 328.537l-1.71-9.722-.638-3.632-.696.69.33 4.159zM55.78 328.489l-1.708-9.723-.098-.522-1.2-2.012.299 3.752zM67.023 328.44l-1.71-9.723-.48-2.717-1.04-2.603.517 6.537zM69.604 321.792l-.717.72 1.882 5.909zM74.519 328.409l-1.709-9.722-.017-.087-1.013 1.015.025.289zM78.265 328.391l-1.709-9.723-.573-3.255-.726.725.295 3.748zM93.194 327.98l-.03.075.092.274zM95.72 321.028l-.554 1.527 1.835 5.756zM100.749 328.296l-1.71-9.723-.79-4.495-.544 1.497.33 4.215zM111.99 328.248l-1.53-8.693-1.394-2.516.212 2.704zM114.455 320.94c-.086.974-.162 1.83-.223 2.561l1.505 4.731-1.282-7.293zM134.474 328.15l-1.709-9.723-.857-4.859h.046c-.239-.42-.498-.867-.78-1.358l.587 7.435 2.713 8.505zM141.97 328.12l-1.709-9.723-.857-4.858-.747-1.495.6 7.57zM144.002 318.382l-.023-.152-.65 2.382 2.39 7.493zM169.926 321.113l.765-.259-.452-2.566zM175.696 327.974l-1.46-8.298-1.072.356zM179.442 327.958l-1.663-9.464-1.096.364.046.595zM180.477 319.435l2.708 8.505-1.709-9.723-.156-.903-.984.331zM190.683 327.909l-1.709-9.723-.857-4.859h1.653l-2.43-1.892.635 7.967zM194.431 327.894l-1.71-9.723-.52-2.958-.87-.673.386 4.85zM198.177 327.877l-1.633-9.285-1.216-.944.136 1.724z" mask="url(#f)"/>
            <path fill="#979BA6" d="M86.172 282.227h14.581v-7.293H86.172z" mask="url(#f)"/>
            <path fill="#919497" d="M465.306 255.494h2.428V24.611h-2.428zM496.896 255.494h2.43V24.611h-2.43z" mask="url(#f)"/>
            <path fill="#919497" d="M467.733 182.584h29.163v-2.43h-29.163zM467.733 204.458h29.163v-2.43h-29.163zM467.733 228.762h29.163v-2.43h-29.163zM467.733 114.533h29.163v-2.43h-29.163zM467.733 136.407h29.163v-2.43h-29.163zM467.733 160.71h29.163v-2.43h-29.163zM467.733 46.485h29.163v-2.429h-29.163zM467.733 68.36h29.163v-2.429h-29.163zM467.733 92.663h29.163v-2.429h-29.163z" mask="url(#f)"/>
            <path fill="#E6E6E7" d="M465.306 253.065h2.428V22.182h-2.428zM496.896 253.065h2.43V22.182h-2.43z" mask="url(#f)"/>
            <path fill="#E6E6E7" d="M467.733 180.155h29.163v-2.428h-29.163zM467.733 202.03h29.163v-2.43h-29.163zM467.733 226.333h29.163v-2.43h-29.163zM467.733 112.103h29.163v-2.429h-29.163zM467.733 133.977h29.163v-2.43h-29.163zM467.733 158.281h29.163v-2.43h-29.163zM467.733 44.056h29.163v-2.429h-29.163zM467.733 65.926h29.163v-2.428h-29.163zM467.733 90.228h29.163V87.8h-29.163z" mask="url(#f)"/>
            <path fill="#FFF" d="M472.594 180.155h19.443v-2.428h-19.443zM472.594 202.03h19.443v-2.43h-19.443zM472.594 226.333h19.443v-2.43h-19.443zM472.594 112.103h19.443v-2.429h-19.443zM472.594 133.977h19.443v-2.43h-19.443zM472.594 158.281h19.443v-2.43h-19.443zM472.594 44.056h19.443v-2.429h-19.443zM472.594 65.926h19.443v-2.428h-19.443zM472.594 90.228h19.443V87.8h-19.443z" mask="url(#f)"/>
            <path fill="#A76B3A" d="M217.725 206.887h2.43v-14.58h-2.43zM225.018 206.887h2.43v-14.58h-2.43zM220.159 194.737h4.859v-2.43h-4.859zM220.159 206.887h4.859v-2.428h-4.859z" mask="url(#f)"/>
        </g>
    </g>
</svg>
