<svg id="Слой_1" data-name="Слой 1" xmlns="http://www.w3.org/2000/svg" xmlns:xlink="http://www.w3.org/1999/xlink" viewBox="0 0 15.56 13.47"><defs><style>.cls-1,.cls-3,.cls-5{fill:none;}.cls-2{clip-path:url(#clip-path);}.cls-3{stroke:#5b5b5d;stroke-width:0.25px;}.cls-4{fill:#fff;}.cls-5{stroke:#bc815b;}.cls-6{clip-path:url(#clip-path-2);}</style><clipPath id="clip-path" transform="translate(-0.02 0.04)"><polyline class="cls-1" points="-154.77 -489.01 -154.77 352.88 1035.78 352.88 1035.78 -489.01"/></clipPath><clipPath id="clip-path-2" transform="translate(-0.02 0.04)"><polyline class="cls-1" points="-154.77 -489.01 -154.77 352.88 1035.78 352.88 1035.78 -489.01"/></clipPath></defs><title>fscrew</title><g class="cls-2"><path class="cls-3" d="M-69.72-521.61" transform="translate(-0.02 0.04)"/><path class="cls-3" d="M950.73-521.61" transform="translate(-0.02 0.04)"/></g><polygon class="cls-4" points="11.38 0.5 4.18 0.5 0.58 6.74 4.18 12.97 11.38 12.97 14.98 6.74 11.38 0.5"/><polygon class="cls-5" points="11.38 0.5 4.18 0.5 0.58 6.74 4.18 12.97 11.38 12.97 14.98 6.74 11.38 0.5"/><g class="cls-6"><path class="cls-4" d="M7.8,9.6a2.91,2.91,0,1,0-2.91-2.9A2.91,2.91,0,0,0,7.8,9.6" transform="translate(-0.02 0.04)"/><circle class="cls-5" cx="7.78" cy="6.74" r="2.91"/></g></svg>