<svg id="Слой_1" data-name="Слой 1" xmlns="http://www.w3.org/2000/svg" xmlns:xlink="http://www.w3.org/1999/xlink" viewBox="0 0 372.09 255.33"><defs><style>.cls-1,.cls-12,.cls-13,.cls-15,.cls-3,.cls-7{fill:none;}.cls-2{clip-path:url(#clip-path);}.cls-15,.cls-3{stroke:#5b5b5d;}.cls-3{stroke-width:0.25px;}.cls-4{font-size:7px;fill:#5b5b5d;font-family:Geometria-Bold, Geometria Bold;font-weight:700;}.cls-5{letter-spacing:-0.05em;}.cls-6{letter-spacing:-0.13em;}.cls-7{stroke:#535fa5;}.cls-12,.cls-13,.cls-7{stroke-width:2px;}.cls-8{clip-path:url(#clip-path-2);}.cls-9{fill:#fff;}.cls-10{letter-spacing:-0.02em;}.cls-11{letter-spacing:-0.01em;}.cls-12{stroke:#a54525;}.cls-13{stroke:#cca483;}.cls-14{font-size:9px;font-family:Geometria-Medium, Geometria Medium;}.cls-14,.cls-16,.cls-20{fill:#191818;}.cls-15{stroke-width:0.5px;}.cls-16{font-size:8px;font-family:Geometria, Geometria;}.cls-17{letter-spacing:-0.01em;}.cls-18{letter-spacing:-0.04em;}.cls-19{letter-spacing:-0.1em;}.cls-21{letter-spacing:-0.01em;}.cls-22{letter-spacing:-0.07em;}.cls-23{letter-spacing:-0.01em;}.cls-24{letter-spacing:-0.01em;}</style><clipPath id="clip-path" transform="translate(0 0.54)"><rect class="cls-1" x="-708.59" y="-482.89" width="1190.55" height="841.89"/></clipPath><clipPath id="clip-path-2" transform="translate(0 0.54)"><rect class="cls-1" x="-708.59" y="-482.89" width="1190.55" height="841.89"/></clipPath></defs><title>graf-3</title><g class="cls-2"><path class="cls-3" d="M-623.54-515.49" transform="translate(0 0.54)"/><path class="cls-3" d="M396.91-515.49" transform="translate(0 0.54)"/></g><text class="cls-4" transform="translate(344.1 7.11)">1<tspan class="cls-5" x="4.38" y="0">9</tspan><tspan x="8.37" y="0">,2</tspan></text><text class="cls-4" transform="translate(261.77 8.52)">1<tspan class="cls-5" x="4.38" y="0">9</tspan><tspan x="8.37" y="0">,1</tspan></text><text class="cls-4" transform="translate(179.71 16.32)">18,2</text><text class="cls-4" transform="translate(97.96 21.99)">1<tspan class="cls-6" x="4.38" y="0">7</tspan><tspan x="7.85" y="0">,5</tspan></text><text class="cls-4" transform="translate(14.77 27.66)">1<tspan class="cls-6" x="4.38" y="0">7</tspan><tspan x="7.85" y="0">,0</tspan></text><line class="cls-7" x1="350.57" y1="13.65" x2="268.51" y2="14.14"/><line class="cls-7" x1="268.51" y1="13.86" x2="186.31" y2="22.36"/><line class="cls-7" x1="186.31" y1="22.36" x2="104.1" y2="28.32"/><line class="cls-7" x1="104.1" y1="28.6" x2="21.9" y2="33.42"/><g class="cls-8"><path class="cls-9" d="M350.57,15.08a2.33,2.33,0,1,1,2.33-2.33,2.33,2.33,0,0,1-2.33,2.33" transform="translate(0 0.54)"/><circle class="cls-7" cx="350.57" cy="13.29" r="2.33"/><path class="cls-9" d="M268.37,15.89a2.33,2.33,0,1,1,2.33-2.33,2.33,2.33,0,0,1-2.33,2.33" transform="translate(0 0.54)"/><circle class="cls-7" cx="268.37" cy="14.1" r="2.33"/><path class="cls-9" d="M186.59,24.15a2.33,2.33,0,1,1,2.33-2.33,2.34,2.34,0,0,1-2.33,2.33" transform="translate(0 0.54)"/><circle class="cls-7" cx="186.59" cy="22.36" r="2.33"/><path class="cls-9" d="M104,30.39a2.33,2.33,0,1,1,2.33-2.33A2.33,2.33,0,0,1,104,30.39" transform="translate(0 0.54)"/><circle class="cls-7" cx="103.96" cy="28.6" r="2.33"/><path class="cls-9" d="M22,34.92a2.33,2.33,0,1,1,2.33-2.33A2.33,2.33,0,0,1,22,34.92" transform="translate(0 0.54)"/><circle class="cls-7" cx="22.04" cy="33.14" r="2.33"/></g><text class="cls-4" transform="translate(344.61 56.15)">1<tspan class="cls-6" x="4.38" y="0">7</tspan><tspan x="7.85" y="0">,3</tspan></text><text class="cls-4" transform="translate(261.63 58.28)">1<tspan class="cls-6" x="4.38" y="0">7</tspan><tspan x="7.85" y="0">,2</tspan></text><text class="cls-4" transform="translate(178.85 65.36)">1<tspan class="cls-10" x="4.38" y="0">6</tspan><tspan x="8.62" y="0">,4</tspan></text><text class="cls-4" transform="translate(97.55 71.03)">1<tspan class="cls-11" x="4.38" y="0">5</tspan><tspan x="8.69" y="0">,7</tspan></text><text class="cls-4" transform="translate(14.73 75.28)">1<tspan class="cls-11" x="4.38" y="0">5</tspan><tspan x="8.69" y="0">,3</tspan></text><line class="cls-12" x1="350.15" y1="62.9" x2="268.51" y2="64.03"/><line class="cls-12" x1="268.51" y1="64.03" x2="186.31" y2="70.55"/><line class="cls-12" x1="186.31" y1="70.41" x2="104.1" y2="77.21"/><line class="cls-12" x1="104.1" y1="77.5" x2="21.9" y2="80.47"/><rect class="cls-9" x="348.24" y="60.71" width="4.67" height="4.67"/><rect class="cls-12" x="348.24" y="60.71" width="4.67" height="4.67"/><rect class="cls-9" x="266.04" y="61.84" width="4.67" height="4.67"/><rect class="cls-12" x="266.04" y="61.84" width="4.67" height="4.67"/><rect class="cls-9" x="183.83" y="68.08" width="4.67" height="4.67"/><rect class="cls-12" x="183.83" y="68.08" width="4.67" height="4.67"/><rect class="cls-9" x="101.63" y="75.02" width="4.67" height="4.67"/><rect class="cls-12" x="101.63" y="75.02" width="4.67" height="4.67"/><rect class="cls-9" x="19.71" y="78.28" width="4.67" height="4.67"/><rect class="cls-12" x="19.71" y="78.28" width="4.67" height="4.67"/><text class="cls-4" transform="translate(344.7 106.18)">1<tspan class="cls-11" x="4.38" y="0">5</tspan><tspan x="8.69" y="0">,1</tspan></text><text class="cls-4" transform="translate(260.63 108.31)">14,8</text><text class="cls-4" transform="translate(178.92 113.27)">14,2</text><text class="cls-4" transform="translate(97.22 119.65)">13,6</text><text class="cls-4" transform="translate(14.66 122.48)">13,3</text><line class="cls-13" x1="350.15" y1="111.8" x2="268.51" y2="114.63"/><line class="cls-13" x1="186.17" y1="120.3" x2="104.1" y2="125.12"/><line class="cls-13" x1="268.51" y1="114.77" x2="186.17" y2="120.02"/><line class="cls-13" x1="104.1" y1="125.26" x2="21.9" y2="128.1"/><polygon class="cls-9" points="349.16 109.46 351.85 109.46 353.2 111.8 351.85 114.13 349.16 114.13 347.81 111.8 349.16 109.46"/><polygon class="cls-13" points="349.16 109.46 351.85 109.46 353.2 111.8 351.85 114.13 349.16 114.13 347.81 111.8 349.16 109.46"/><polygon class="cls-9" points="266.95 112.44 269.65 112.44 271 114.77 269.65 117.11 266.95 117.11 265.6 114.77 266.95 112.44"/><polygon class="cls-13" points="266.95 112.44 269.65 112.44 271 114.77 269.65 117.11 266.95 117.11 265.6 114.77 266.95 112.44"/><polygon class="cls-9" points="184.75 117.83 187.44 117.83 188.79 120.16 187.44 122.49 184.75 122.49 183.4 120.16 184.75 117.83"/><polygon class="cls-13" points="184.75 117.83 187.44 117.83 188.79 120.16 187.44 122.49 184.75 122.49 183.4 120.16 184.75 117.83"/><polygon class="cls-9" points="102.54 122.93 105.24 122.93 106.59 125.26 105.24 127.6 102.54 127.6 101.19 125.26 102.54 122.93"/><polygon class="cls-13" points="102.54 122.93 105.24 122.93 106.59 125.26 105.24 127.6 102.54 127.6 101.19 125.26 102.54 122.93"/><polygon class="cls-9" points="20.62 125.76 23.32 125.76 24.66 128.1 23.32 130.43 20.62 130.43 19.27 128.1 20.62 125.76"/><polygon class="cls-13" points="20.62 125.76 23.32 125.76 24.66 128.1 23.32 130.43 20.62 130.43 19.27 128.1 20.62 125.76"/><text class="cls-14" transform="translate(11.91 225.37)">2016</text><text class="cls-14" transform="translate(94.18 225.37)">2017</text><text class="cls-14" transform="translate(176.29 225.37)">2018</text><text class="cls-14" transform="translate(258.09 225.37)">2019</text><text class="cls-14" transform="translate(339.26 225.37)">2020</text><line class="cls-15" x1="2.83" y1="212.46" x2="369.64" y2="212.46"/><line class="cls-15" x1="104.1" y1="212.59" x2="104.1" y2="139.63"/><line class="cls-15" x1="186.24" y1="212.59" x2="186.24" y2="130.81"/><line class="cls-15" x1="268.38" y1="212.59" x2="268.38" y2="124.5"/><line class="cls-15" x1="350.52" y1="212.59" x2="350.52" y2="120.3"/><line class="cls-15" x1="21.96" y1="212.59" x2="21.96" y2="179.26"/><line class="cls-15" x1="21.96" y1="212.36" x2="21.96" y2="216.11"/><line class="cls-15" x1="63.03" y1="212.36" x2="63.03" y2="216.11"/><line class="cls-15" x1="104.1" y1="212.36" x2="104.1" y2="216.11"/><line class="cls-15" x1="145.17" y1="212.36" x2="145.17" y2="216.11"/><line class="cls-15" x1="186.24" y1="212.36" x2="186.24" y2="216.11"/><line class="cls-15" x1="227.31" y1="212.36" x2="227.31" y2="216.11"/><line class="cls-15" x1="268.38" y1="212.36" x2="268.38" y2="216.11"/><line class="cls-15" x1="309.45" y1="212.36" x2="309.45" y2="216.11"/><line class="cls-15" x1="350.52" y1="212.36" x2="350.52" y2="216.11"/><text class="cls-16" transform="translate(320.17 252.93)">Фа<tspan class="cls-17" x="13.75" y="0">к</tspan><tspan class="cls-18" x="18.03" y="0">т</tspan><tspan x="21.47" y="0" xml:space="preserve"> 2016 </tspan><tspan class="cls-19" x="46.47" y="0">г</tspan><tspan x="49.42" y="0">.</tspan></text><polygon class="cls-20" points="313.89 253.57 311.71 251.39 313.91 249.19 313.2 248.48 311 250.68 308.81 248.49 308.12 249.18 310.31 251.37 308.11 253.57 308.82 254.28 311.02 252.08 313.2 254.26 313.89 253.57"/><text class="cls-16" transform="translate(20.76 252.93)">Оптими<tspan class="cls-21" x="30.63" y="0">с</tspan><tspan x="34.95" y="0">тичный</tspan></text><line class="cls-7" y1="250.8" x2="17.57" y2="250.8"/><g class="cls-8"><path class="cls-9" d="M8.79,252.59a2.33,2.33,0,1,0-2.34-2.33,2.33,2.33,0,0,0,2.34,2.33" transform="translate(0 0.54)"/><circle class="cls-7" cx="8.79" cy="250.8" r="2.33"/></g><text class="cls-16" transform="translate(127.84 252.93)"><tspan class="cls-22">У</tspan><tspan x="5.07" y="0">меренный</tspan></text><line class="cls-12" x1="106.29" y1="250.8" x2="123.87" y2="250.8"/><rect class="cls-9" x="112.75" y="248.47" width="4.67" height="4.67"/><rect class="cls-12" x="112.75" y="248.47" width="4.67" height="4.67"/><text class="cls-16" transform="translate(217.97 252.93)">Пе<tspan class="cls-23" x="11.25" y="0">с</tspan><tspan x="15.55" y="0">сими</tspan><tspan class="cls-24" x="35.55" y="0">с</tspan><tspan x="39.87" y="0">тичный</tspan></text><line class="cls-13" x1="195.65" y1="250.8" x2="213.23" y2="250.8"/><polygon class="cls-9" points="205.79 248.47 203.09 248.47 201.74 250.8 203.09 253.14 205.79 253.14 207.13 250.8 205.79 248.47"/><polygon class="cls-13" points="205.79 248.47 203.09 248.47 201.74 250.8 203.09 253.14 205.79 253.14 207.13 250.8 205.79 248.47"/><text class="cls-4" transform="translate(16.2 165.99)">11,7</text><polygon class="cls-20" points="24.78 172.95 22.6 170.77 24.8 168.57 24.09 167.86 21.89 170.06 19.7 167.87 19.01 168.56 21.2 170.75 19 172.95 19.71 173.66 21.91 171.46 24.09 173.63 24.78 172.95"/></svg>