<?xml version="1.0" encoding="utf-8"?>
<!-- Generator: Adobe Illustrator 21.0.1, SVG Export Plug-In . SVG Version: 6.00 Build 0)  -->
<svg version="1.1" id="Слой_1" xmlns="http://www.w3.org/2000/svg" xmlns:xlink="http://www.w3.org/1999/xlink" x="0px" y="0px"
	 viewBox="0 0 357.7 220" style="enable-background:new 0 0 357.7 220;" xml:space="preserve">
<style type="text/css">
	.st0{clip-path:url(#SVGID_3_);}
	.st1{clip-path:url(#SVGID_4_);fill:none;stroke:#5B5B5D;stroke-width:0.25;}
	.st2{clip-path:url(#SVGID_7_);}
	.st3{clip-path:url(#SVGID_11_);}
	.st4{clip-path:url(#SVGID_15_);}
	.st5{clip-path:url(#SVGID_19_);}
	.st6{clip-path:url(#SVGID_23_);}
	.st7{fill:#5B5B5D;}
	.st8{font-family:'Geometria-Bold';}
	.st9{font-size:7px;}
	.st10{fill:#191818;}
	.st11{font-family:'Geometria-Medium';}
	.st12{font-size:9px;}
	.st13{fill:none;stroke:#5B5B5D;stroke-width:0.5;}
	.st14{fill:none;stroke:#535FA5;stroke-width:2;}
	.st15{fill:#FFFFFF;}
</style>
<g>
	<defs>
		<line id="SVGID_1_" x1="1068.5" y1="-519.2" x2="-122" y2="-519.2"/>
	</defs>
	<defs>
		<line id="SVGID_2_" x1="-122" y1="322.7" x2="1068.5" y2="322.7"/>
	</defs>
	<clipPath id="SVGID_3_">
		<use xlink:href="#SVGID_1_"  style="overflow:visible;"/>
	</clipPath>
	<clipPath id="SVGID_4_" class="st0">
		<use xlink:href="#SVGID_2_"  style="overflow:visible;"/>
	</clipPath>
	<path class="st1" d="M-37-551.8"/>
	<path class="st1" d="M983.5-551.8"/>
</g>
<g>
	<defs>
		<line id="SVGID_5_" x1="1068.5" y1="-519.2" x2="-122" y2="-519.2"/>
	</defs>
	<defs>
		<line id="SVGID_6_" x1="-122" y1="322.7" x2="1068.5" y2="322.7"/>
	</defs>
	<clipPath id="SVGID_7_">
		<use xlink:href="#SVGID_5_"  style="overflow:visible;"/>
	</clipPath>
	<clipPath id="SVGID_8_" class="st2">
		<use xlink:href="#SVGID_6_"  style="overflow:visible;"/>
	</clipPath>
</g>
<g>
	<defs>
		<line id="SVGID_9_" x1="1068.5" y1="-519.2" x2="-122" y2="-519.2"/>
	</defs>
	<defs>
		<line id="SVGID_10_" x1="-122" y1="322.7" x2="1068.5" y2="322.7"/>
	</defs>
	<clipPath id="SVGID_11_">
		<use xlink:href="#SVGID_9_"  style="overflow:visible;"/>
	</clipPath>
	<clipPath id="SVGID_12_" class="st3">
		<use xlink:href="#SVGID_10_"  style="overflow:visible;"/>
	</clipPath>
</g>
<g>
	<defs>
		<line id="SVGID_13_" x1="1068.5" y1="-519.2" x2="-122" y2="-519.2"/>
	</defs>
	<defs>
		<line id="SVGID_14_" x1="-122" y1="322.7" x2="1068.5" y2="322.7"/>
	</defs>
	<clipPath id="SVGID_15_">
		<use xlink:href="#SVGID_13_"  style="overflow:visible;"/>
	</clipPath>
	<clipPath id="SVGID_16_" class="st4">
		<use xlink:href="#SVGID_14_"  style="overflow:visible;"/>
	</clipPath>
</g>
<g>
	<defs>
		<line id="SVGID_17_" x1="1068.5" y1="-519.2" x2="-122" y2="-519.2"/>
	</defs>
	<defs>
		<line id="SVGID_18_" x1="-122" y1="322.7" x2="1068.5" y2="322.7"/>
	</defs>
	<clipPath id="SVGID_19_">
		<use xlink:href="#SVGID_17_"  style="overflow:visible;"/>
	</clipPath>
	<clipPath id="SVGID_20_" class="st5">
		<use xlink:href="#SVGID_18_"  style="overflow:visible;"/>
	</clipPath>
</g>
<g>
	<defs>
		<line id="SVGID_21_" x1="1068.5" y1="-519.2" x2="-122" y2="-519.2"/>
	</defs>
	<defs>
		<line id="SVGID_22_" x1="-122" y1="322.7" x2="1068.5" y2="322.7"/>
	</defs>
	<clipPath id="SVGID_23_">
		<use xlink:href="#SVGID_21_"  style="overflow:visible;"/>
	</clipPath>
	<clipPath id="SVGID_24_" class="st6">
		<use xlink:href="#SVGID_22_"  style="overflow:visible;"/>
	</clipPath>
</g>
<text transform="matrix(1 0 0 1 94.521 128.6288)"><tspan x="0" y="0" class="st7 st8 st9">1 </tspan><tspan x="6.6" y="0" class="st7 st8 st9">0</tspan><tspan x="10.9" y="0" class="st7 st8 st9">7</tspan><tspan x="15.1" y="0" class="st7 st8 st9">0</tspan></text>
<text transform="matrix(1 0 0 1 164.9829 143.8183)" class="st7 st8 st9">1 064</text>
<text transform="matrix(1 0 0 1 248.395 128.0331)"><tspan x="0" y="0" class="st7 st8 st9">1 </tspan><tspan x="6.6" y="0" class="st7 st8 st9">0</tspan><tspan x="10.9" y="0" class="st7 st8 st9">7</tspan><tspan x="15.4" y="0" class="st7 st8 st9">1</tspan></text>
<text transform="matrix(1 0 0 1 329.0142 110.1279)"><tspan x="0" y="0" class="st7 st8 st9">1 </tspan><tspan x="6.6" y="0" class="st7 st8 st9">07</tspan><tspan x="15.2" y="0" class="st7 st8 st9">9</tspan></text>
<text transform="matrix(1 0 0 1 0 216.9833)" class="st10 st11 st12">2016</text>
<text transform="matrix(1 0 0 1 82.269 216.9833)" class="st10 st11 st12">2017</text>
<text transform="matrix(1 0 0 1 164.3853 216.9833)" class="st10 st11 st12">2018</text>
<text transform="matrix(1 0 0 1 246.186 216.9833)" class="st10 st11 st12">2019</text>
<text transform="matrix(1 0 0 1 327.3569 216.9833)" class="st10 st11 st12">2020</text>
<line class="st13" x1="-9.1" y1="203.5" x2="357.7" y2="203.5"/>
<line class="st13" x1="92.2" y1="203.6" x2="92.2" y2="143.7"/>
<line class="st13" x1="174.3" y1="203.6" x2="174.3" y2="156.8"/>
<line class="st13" x1="256.5" y1="203.6" x2="256.5" y2="140.5"/>
<line class="st13" x1="338.6" y1="203.6" x2="338.6" y2="121.2"/>
<line class="st13" x1="10" y1="203.6" x2="10" y2="4.2"/>
<line class="st13" x1="10" y1="203.3" x2="10" y2="207.5"/>
<line class="st13" x1="51.1" y1="203.3" x2="51.1" y2="207.5"/>
<line class="st13" x1="92.2" y1="203.3" x2="92.2" y2="207.5"/>
<line class="st13" x1="133.3" y1="203.3" x2="133.3" y2="207.5"/>
<line class="st13" x1="174.3" y1="203.3" x2="174.3" y2="207.5"/>
<line class="st13" x1="215.4" y1="203.3" x2="215.4" y2="207.5"/>
<line class="st13" x1="256.5" y1="203.3" x2="256.5" y2="207.5"/>
<line class="st13" x1="297.5" y1="203.3" x2="297.5" y2="207.5"/>
<line class="st13" x1="338.6" y1="203.3" x2="338.6" y2="207.5"/>
<line class="st14" x1="10.1" y1="2.9" x2="92.8" y2="141.3"/>
<line class="st14" x1="176.1" y1="155.2" x2="93.3" y2="141.2"/>
<line class="st14" x1="176.3" y1="155.2" x2="258.3" y2="138.2"/>
<line class="st14" x1="339.5" y1="119.3" x2="258.5" y2="138.6"/>
<polygon class="st15" points="93.8,138 91.1,138 89.7,140.3 91.1,142.6 93.8,142.6 95.1,140.3 "/>
<polygon class="st14" points="93.8,138 91.1,138 89.7,140.3 91.1,142.6 93.8,142.6 95.1,140.3 "/>
<polygon class="st15" points="11.3,1.2 8.6,1.2 7.2,3.5 8.6,5.9 11.3,5.9 12.6,3.5 "/>
<polygon class="st14" points="11.3,1.2 8.6,1.2 7.2,3.5 8.6,5.9 11.3,5.9 12.6,3.5 "/>
<polygon class="st15" points="175.5,152.4 172.8,152.4 171.5,154.7 172.8,157 175.5,157 176.9,154.7 "/>
<polygon class="st14" points="175.5,152.4 172.8,152.4 171.5,154.7 172.8,157 175.5,157 176.9,154.7 "/>
<polygon class="st15" points="257.9,135.3 255.2,135.3 253.8,137.7 255.2,140 257.9,140 259.2,137.7 "/>
<polygon class="st14" points="257.9,135.3 255.2,135.3 253.8,137.7 255.2,140 257.9,140 259.2,137.7 "/>
<polygon class="st15" points="339.9,116.5 337.2,116.5 335.9,118.9 337.2,121.2 339.9,121.2 341.3,118.9 "/>
<polygon class="st14" points="339.9,116.5 337.2,116.5 335.9,118.9 337.2,121.2 339.9,121.2 341.3,118.9 "/>
</svg>
