<svg id="Слой_1" data-name="Слой 1" xmlns="http://www.w3.org/2000/svg" xmlns:xlink="http://www.w3.org/1999/xlink" viewBox="0 0 372.09 224.15"><defs><style>.cls-1,.cls-10,.cls-15,.cls-16,.cls-3,.cls-5{fill:none;}.cls-2{clip-path:url(#clip-path);}.cls-3,.cls-5{stroke:#5b5b5d;}.cls-3{stroke-width:0.25px;}.cls-4{font-size:9px;font-family:Geometria-Medium, Geometria Medium;}.cls-17,.cls-18,.cls-4{fill:#191818;}.cls-5{stroke-width:0.5px;}.cls-6{font-size:7px;fill:#5b5b5d;font-family:Geometria-Bold, Geometria Bold;font-weight:700;}.cls-7{letter-spacing:-0.01em;}.cls-8{letter-spacing:-0.04em;}.cls-9{letter-spacing:-0.13em;}.cls-10{stroke:#535fa5;}.cls-10,.cls-15,.cls-16{stroke-width:2px;}.cls-11{clip-path:url(#clip-path-2);}.cls-12{fill:#fff;}.cls-13{letter-spacing:-0.02em;}.cls-14{letter-spacing:-0.05em;}.cls-15{stroke:#a54525;}.cls-16{stroke:#cca483;}.cls-18{font-size:8px;font-family:Geometria, Geometria;}.cls-19{letter-spacing:-0.01em;}.cls-20{letter-spacing:-0.1em;}.cls-21{letter-spacing:-0.01em;}.cls-22{letter-spacing:-0.07em;}.cls-23{letter-spacing:-0.01em;}.cls-24{letter-spacing:-0.01em;}</style><clipPath id="clip-path" transform="translate(0 0.81)"><rect class="cls-1" x="-713.83" y="-169.89" width="1190.55" height="841.89"/></clipPath><clipPath id="clip-path-2" transform="translate(0 0.81)"><rect class="cls-1" x="-711.99" y="-169.89" width="1190.55" height="841.89"/></clipPath></defs><title>graf-2</title><g class="cls-2"><path class="cls-3" d="M-628.78-202.49" transform="translate(0 0.81)"/><path class="cls-3" d="M391.67-202.49" transform="translate(0 0.81)"/></g><text class="cls-4" transform="translate(9.07 189.94)">2016</text><text class="cls-4" transform="translate(91.34 189.94)">2017</text><text class="cls-4" transform="translate(173.46 189.94)">2018</text><text class="cls-4" transform="translate(255.26 189.94)">2019</text><text class="cls-4" transform="translate(336.43 189.94)">2020</text><line class="cls-5" y1="177.03" x2="366.8" y2="177.03"/><line class="cls-5" x1="101.26" y1="177.16" x2="101.26" y2="124.48"/><line class="cls-5" x1="183.4" y1="177.16" x2="183.4" y2="130.51"/><line class="cls-5" x1="265.54" y1="177.16" x2="265.54" y2="132.63"/><line class="cls-5" x1="347.68" y1="177.16" x2="347.68" y2="143.26"/><line class="cls-5" x1="19.12" y1="177.16" x2="19.12" y2="112.79"/><line class="cls-5" x1="19.12" y1="176.92" x2="19.12" y2="180.68"/><line class="cls-5" x1="60.19" y1="176.92" x2="60.19" y2="180.68"/><line class="cls-5" x1="101.26" y1="176.92" x2="101.26" y2="180.68"/><line class="cls-5" x1="142.33" y1="176.92" x2="142.33" y2="180.68"/><line class="cls-5" x1="183.4" y1="176.92" x2="183.4" y2="180.68"/><line class="cls-5" x1="224.47" y1="176.92" x2="224.47" y2="180.68"/><line class="cls-5" x1="265.54" y1="176.92" x2="265.54" y2="180.68"/><line class="cls-5" x1="306.61" y1="176.92" x2="306.61" y2="180.68"/><line class="cls-5" x1="347.68" y1="176.92" x2="347.68" y2="180.68"/><text class="cls-6" transform="translate(11.45 12.07)">111,0</text><text class="cls-6" transform="translate(94.26 7.11)">113,7</text><text class="cls-6" transform="translate(174.6 17.74)">10<tspan class="cls-7" x="8.75" y="0">5</tspan><tspan x="13.06" y="0">,0</tspan></text><text class="cls-6" transform="translate(256 24.83)">10<tspan class="cls-8" x="8.75" y="0">0</tspan><tspan x="12.85" y="0">,0</tspan></text><text class="cls-6" transform="translate(339.61 14.34)">1<tspan class="cls-7" x="4.38" y="0">0</tspan><tspan class="cls-9" x="8.69" y="0">7</tspan><tspan x="12.16" y="0">,0</tspan></text><line class="cls-10" x1="18.92" y1="18.61" x2="101.13" y2="13.29"/><line class="cls-10" x1="101.13" y1="13.29" x2="182.9" y2="25.63"/><line class="cls-10" x1="182.91" y1="25.63" x2="265.54" y2="31.86"/><line class="cls-10" x1="265.54" y1="31.86" x2="347.03" y2="21.66"/><g class="cls-11"><path class="cls-12" d="M18.92,20.49a2.33,2.33,0,1,0-2.34-2.33,2.33,2.33,0,0,0,2.34,2.33" transform="translate(0 0.81)"/><circle class="cls-10" cx="18.92" cy="18.96" r="2.33"/><path class="cls-12" d="M101.55,15.1a2.33,2.33,0,1,0-2.34-2.33,2.33,2.33,0,0,0,2.34,2.33" transform="translate(0 0.81)"/><circle class="cls-10" cx="101.55" cy="13.58" r="2.33"/><path class="cls-12" d="M183.33,26.87A2.33,2.33,0,1,0,181,24.53a2.33,2.33,0,0,0,2.34,2.33" transform="translate(0 0.81)"/><circle class="cls-10" cx="183.33" cy="25.34" r="2.33"/><path class="cls-12" d="M265.54,33a2.33,2.33,0,1,0-2.34-2.33A2.33,2.33,0,0,0,265.54,33" transform="translate(0 0.81)"/><circle class="cls-10" cx="265.54" cy="31.44" r="2.33"/><path class="cls-12" d="M347.46,22.76a2.33,2.33,0,1,0-2.34-2.33,2.33,2.33,0,0,0,2.34,2.33" transform="translate(0 0.81)"/><circle class="cls-10" cx="347.46" cy="21.23" r="2.33"/></g><text class="cls-6" transform="translate(9.69 49.06)">103,0</text><text class="cls-6" transform="translate(94.58 61.11)">9<tspan class="cls-13" x="4.38" y="0">6</tspan><tspan x="8.62" y="0">,3</tspan></text><text class="cls-6" transform="translate(175.98 66.07)">94,0</text><text class="cls-6" transform="translate(259.01 68.91)">92,1</text><text class="cls-6" transform="translate(340.67 74.58)">8<tspan class="cls-14" x="4.38" y="0">9</tspan><tspan x="8.37" y="0">,0</tspan></text><line class="cls-15" x1="18.92" y1="57.37" x2="101.13" y2="69"/><line class="cls-15" x1="101.13" y1="69" x2="183.33" y2="72.96"/><line class="cls-15" x1="183.33" y1="72.96" x2="265.54" y2="77.5"/><line class="cls-15" x1="265.54" y1="77.5" x2="347.46" y2="82.89"/><rect class="cls-12" x="16.59" y="55.04" width="4.67" height="4.67"/><rect class="cls-15" x="16.59" y="55.04" width="4.67" height="4.67"/><rect class="cls-12" x="98.79" y="66.8" width="4.67" height="4.67"/><rect class="cls-15" x="98.79" y="66.8" width="4.67" height="4.67"/><rect class="cls-12" x="181" y="70.91" width="4.67" height="4.67"/><rect class="cls-15" x="181" y="70.91" width="4.67" height="4.67"/><rect class="cls-12" x="263.2" y="75.02" width="4.67" height="4.67"/><rect class="cls-15" x="263.2" y="75.02" width="4.67" height="4.67"/><rect class="cls-12" x="345.12" y="80.41" width="4.67" height="4.67"/><rect class="cls-15" x="345.12" y="80.41" width="4.67" height="4.67"/><text class="cls-6" transform="translate(13.05 109.02)">91,1</text><text class="cls-6" transform="translate(95.38 120.36)">8<tspan class="cls-7" x="4.38" y="0">5</tspan><tspan x="8.69" y="0">,1</tspan></text><text class="cls-6" transform="translate(177.3 126.73)">83,1</text><text class="cls-6" transform="translate(258.79 128.15)">81,4</text><text class="cls-6" transform="translate(341.41 138.07)"><tspan class="cls-7">75</tspan><tspan x="8.62" y="0">,2</tspan></text><line class="cls-16" x1="18.92" y1="97.91" x2="101.13" y2="107.83"/><line class="cls-16" x1="183.33" y1="111.51" x2="265.54" y2="114.35"/><line class="cls-16" x1="101.13" y1="107.55" x2="183.33" y2="111.8"/><line class="cls-16" x1="265.53" y1="114.28" x2="347.46" y2="125.4"/><polygon class="cls-12" points="20.27 95.29 17.57 95.29 16.23 97.63 17.57 99.96 20.27 99.96 21.62 97.63 20.27 95.29"/><polygon class="cls-16" points="20.27 95.29 17.57 95.29 16.23 97.63 17.57 99.96 20.27 99.96 21.62 97.63 20.27 95.29"/><polygon class="cls-12" points="102.47 106.06 99.78 106.06 98.43 108.4 99.78 110.73 102.47 110.73 103.82 108.4 102.47 106.06"/><polygon class="cls-16" points="102.47 106.06 99.78 106.06 98.43 108.4 99.78 110.73 102.47 110.73 103.82 108.4 102.47 106.06"/><polygon class="cls-12" points="184.68 110.03 181.98 110.03 180.63 112.36 181.98 114.7 184.68 114.7 186.03 112.36 184.68 110.03"/><polygon class="cls-16" points="184.68 110.03 181.98 110.03 180.63 112.36 181.98 114.7 184.68 114.7 186.03 112.36 184.68 110.03"/><polygon class="cls-12" points="266.88 112.3 264.19 112.3 262.84 114.63 264.19 116.97 266.88 116.97 268.23 114.63 266.88 112.3"/><polygon class="cls-16" points="266.88 112.3 264.19 112.3 262.84 114.63 264.19 116.97 266.88 116.97 268.23 114.63 266.88 112.3"/><polygon class="cls-12" points="348.81 123.64 346.11 123.64 344.76 125.97 346.11 128.31 348.81 128.31 350.15 125.97 348.81 123.64"/><polygon class="cls-16" points="348.81 123.64 346.11 123.64 344.76 125.97 346.11 128.31 348.81 128.31 350.15 125.97 348.81 123.64"/><text class="cls-6" transform="translate(7.86 86.62)">92,186</text><polygon class="cls-17" points="21.8 93.58 19.62 91.4 21.82 89.2 21.11 88.49 18.91 90.69 16.72 88.5 16.03 89.19 18.22 91.38 16.02 93.58 16.73 94.29 18.93 92.09 21.11 94.27 21.8 93.58"/><text class="cls-18" transform="translate(320.17 221.75)">Фа<tspan class="cls-19" x="13.75" y="0">к</tspan><tspan class="cls-8" x="18.03" y="0">т</tspan><tspan x="21.47" y="0" xml:space="preserve"> 2016 </tspan><tspan class="cls-20" x="46.47" y="0">г</tspan><tspan x="49.42" y="0">.</tspan></text><polygon class="cls-17" points="313.89 222.39 311.71 220.22 313.91 218.01 313.2 217.31 311 219.5 308.81 217.31 308.12 218 310.31 220.19 308.11 222.39 308.82 223.1 311.02 220.9 313.2 223.08 313.89 222.39"/><text class="cls-18" transform="translate(20.76 221.75)">Оптими<tspan class="cls-21" x="30.63" y="0">с</tspan><tspan x="34.95" y="0">тичный</tspan></text><line class="cls-10" y1="219.62" x2="17.57" y2="219.62"/><g class="cls-11"><path class="cls-12" d="M8.79,221.15a2.33,2.33,0,1,0-2.34-2.33,2.33,2.33,0,0,0,2.34,2.33" transform="translate(0 0.81)"/><circle class="cls-10" cx="8.79" cy="219.62" r="2.33"/></g><text class="cls-18" transform="translate(127.84 221.75)"><tspan class="cls-22">У</tspan><tspan x="5.07" y="0">меренный</tspan></text><line class="cls-15" x1="106.29" y1="219.62" x2="123.87" y2="219.62"/><rect class="cls-12" x="112.75" y="217.29" width="4.67" height="4.67"/><rect class="cls-15" x="112.75" y="217.29" width="4.67" height="4.67"/><text class="cls-18" transform="translate(217.97 221.75)">Пе<tspan class="cls-23" x="11.25" y="0">с</tspan><tspan x="15.55" y="0">сими</tspan><tspan class="cls-24" x="35.55" y="0">с</tspan><tspan x="39.87" y="0">тичный</tspan></text><line class="cls-16" x1="195.65" y1="219.62" x2="213.23" y2="219.62"/><polygon class="cls-12" points="205.79 217.29 203.09 217.29 201.74 219.62 203.09 221.96 205.79 221.96 207.13 219.62 205.79 217.29"/><polygon class="cls-16" points="205.79 217.29 203.09 217.29 201.74 219.62 203.09 221.96 205.79 221.96 207.13 219.62 205.79 217.29"/></svg>