<svg id="Слой_1" data-name="Слой 1" xmlns="http://www.w3.org/2000/svg" viewBox="0 0 360.65 222.42"><defs><style>.cls-1{fill:#535fa5;}.cls-2{fill:#cca483;}.cls-3{fill:#8a3b51;}.cls-4{font-size:7px;fill:#5b5b5d;}.cls-4,.cls-7{font-family:Geometria-Bold, Geometria Bold;font-weight:700;}.cls-5{letter-spacing:-0.01em;}.cls-11,.cls-6{font-size:8px;}.cls-11,.cls-6,.cls-7,.cls-9{fill:#191818;}.cls-6,.cls-9{font-family:Geometria-Medium, Geometria Medium;}.cls-7{font-size:10px;}.cls-8{letter-spacing:-0.01em;}.cls-9{font-size:9px;}.cls-10{letter-spacing:-0.1em;}.cls-11{font-family:Geometria, Geometria;}.cls-12{letter-spacing:-0.05em;}.cls-13{letter-spacing:-0.04em;}.cls-14{letter-spacing:-0.02em;}.cls-15{letter-spacing:-0.01em;}.cls-16{letter-spacing:-0.01em;}.cls-17{letter-spacing:-0.02em;}.cls-18{letter-spacing:-0.02em;}.cls-19{fill:#afb0b2;}.cls-20{letter-spacing:-0.01em;}</style></defs><title>Монтажная область 1</title><path class="cls-1" d="M104.2,122.58v-87a85.47,85.47,0,0,1,23.11,3.11,87.13,87.13,0,0,1,60.75,60.75,85.47,85.47,0,0,1,3.11,23.11,87.55,87.55,0,0,1-1.07,13.76,82.2,82.2,0,0,1-3.2,13.09Z"/><path class="cls-2" d="M104.2,122.58l82.7,26.86a86.54,86.54,0,0,1-43.21,50.64,87,87,0,0,1-43.42,9.41,85.29,85.29,0,0,1-22.93-4.2,86.22,86.22,0,0,1-15.5-6.76,87.68,87.68,0,0,1-13.52-9.32A85.2,85.2,0,0,1,37,177.72a87.5,87.5,0,0,1-8.92-13.25Z"/><path class="cls-3" d="M28,164.48a84.36,84.36,0,0,1-8.4-21.71,88,88,0,0,1-2.31-22.44A87.26,87.26,0,0,1,43.54,60.25,85.08,85.08,0,0,1,62.3,46.39a83.86,83.86,0,0,1,15.29-6.61,91.1,91.1,0,0,1,15.77-3.5l10.84,86.3Z"/><text class="cls-4" transform="translate(110.19 222.42)">3<tspan class="cls-5" x="4.38" y="0">5</tspan><tspan x="8.69" y="0">,5%</tspan></text><text class="cls-4" transform="translate(0 80.47)">31,0%</text><text class="cls-4" transform="translate(175.1 62.39)">28,0%</text><text class="cls-4" transform="translate(92.18 27.31)"><tspan class="cls-5">5</tspan><tspan x="4.31" y="0">,5%</tspan></text><text class="cls-6" transform="translate(88.87 112.41)">СПРОС:</text><text class="cls-7" transform="translate(83.85 126.25)">327 000 </text><text class="cls-6" transform="translate(87.94 137.25)">ва<tspan class="cls-8" x="10" y="0">г</tspan><tspan x="13.65" y="0">онов</tspan></text><text class="cls-9" transform="translate(90.16 9.02)">2020 <tspan class="cls-10" x="25.31" y="0">г</tspan><tspan x="28.64" y="0">.</tspan></text><text class="cls-11" transform="translate(215.9 103.2)"><tspan class="cls-12">А</tspan><tspan x="4.61" y="0">О «ВРК</tspan></text><text class="cls-11" transform="translate(250.71 103.2)">-</text><text class="cls-11" transform="translate(254.4 103.2)">1»</text><rect class="cls-1" x="208.86" y="98.41" width="4.33" height="4.33"/><text class="cls-11" transform="translate(215.9 115.16)"><tspan class="cls-13">О</tspan><tspan class="cls-12" x="5.91" y="0">А</tspan><tspan x="10.52" y="0">О</tspan></text><text class="cls-11" transform="translate(234.7 115.16)"> </text><text class="cls-11" transform="translate(236.82 115.16)">«<tspan class="cls-14" x="4.38" y="0">Р</tspan><tspan x="9.86" y="0">ЖД» и</tspan></text><text class="cls-11" transform="translate(271.95 115.16)"> </text><text class="cls-11" transform="translate(274.06 115.16)">дочерние <tspan class="cls-15" x="43.75" y="0">с</tspan><tspan x="48.07" y="0">т</tspan><tspan class="cls-16" x="51.82" y="0">р</tspan><tspan x="56.72" y="0">у</tspan><tspan class="cls-8" x="61.72" y="0">к</tspan><tspan x="66" y="0">туры</tspan></text><rect class="cls-2" x="208.86" y="110.37" width="4.33" height="4.33"/><text class="cls-11" transform="translate(215.9 127.12)">Ва<tspan class="cls-17" x="11.25" y="0">г</tspan><tspan x="14.84" y="0">оноремонтные зав</tspan><tspan class="cls-18" x="92.96" y="0">о</tspan><tspan x="97.83" y="0">ды</tspan></text><rect class="cls-19" x="208.86" y="134.29" width="4.33" height="4.33"/><text class="cls-11" transform="translate(215.9 139.08)">Ча<tspan class="cls-20" x="10" y="0">с</tspan><tspan x="14.33" y="0">тные предприятия</tspan></text><rect class="cls-3" x="208.86" y="122.2" width="4.33" height="4.33"/></svg>