<svg id="Слой_1" data-name="Слой 1" xmlns="http://www.w3.org/2000/svg" xmlns:xlink="http://www.w3.org/1999/xlink" viewBox="0 0 272.13 272.13"><defs><style>.cls-1,.cls-10,.cls-11,.cls-3,.cls-4,.cls-6,.cls-8{fill:none;}.cls-2{clip-path:url(#clip-path);}.cls-3{stroke:#5b5b5d;stroke-width:0.25px;}.cls-4,.cls-6,.cls-8{stroke:#d4d5d6;}.cls-4{stroke-width:0.75px;stroke-dasharray:2.25 1.5;}.cls-5{clip-path:url(#clip-path-2);}.cls-6{stroke-width:2px;}.cls-7{fill:#d4d5d6;}.cls-9{fill:#cca483;}.cls-10{stroke:#bc815b;}.cls-11{stroke:#afb0b2;}</style><clipPath id="clip-path" transform="translate(0 -0.28)"><polyline class="cls-1" points="433.42 841.89 433.42 0 -757.13 0 -757.13 841.89"/></clipPath><clipPath id="clip-path-2" transform="translate(0 -0.28)"><polyline class="cls-1" points="433.42 841.89 433.42 0 -757.13 0 -757.13 841.89"/></clipPath></defs><title>targetBg</title><g class="cls-2"><path class="cls-3" d="M-672.09-32.6" transform="translate(0 -0.28)"/><path class="cls-3" d="M348.37-32.6" transform="translate(0 -0.28)"/><path class="cls-3" d="M348.37,59.53" transform="translate(0 -0.28)"/></g><line class="cls-4" y1="136.06" x2="272.13" y2="136.06"/><g class="cls-5"><line class="cls-4" x1="136.06" x2="136.06" y2="272.13"/><circle class="cls-6" cx="136.06" cy="136.06" r="120.57"/><path class="cls-7" d="M136.06,128a8.35,8.35,0,1,1-8.35,8.35,8.35,8.35,0,0,1,8.35-8.35" transform="translate(0 -0.28)"/><circle class="cls-8" cx="136.06" cy="136.06" r="104.28"/><line class="cls-6" x1="136.06" x2="136.06" y2="49.41"/></g><line class="cls-6" x1="136.06" y1="222.71" x2="136.06" y2="272.12"/><line class="cls-6" y1="136.06" x2="49.41" y2="136.06"/><line class="cls-6" x1="222.72" y1="136.06" x2="272.13" y2="136.06"/><g class="cls-5"><path class="cls-9" d="M-67.3,279.38" transform="translate(0 -0.28)"/><path class="cls-9" d="M49.83,245" transform="translate(0 -0.28)"/><path class="cls-9" d="M61.83,233" transform="translate(0 -0.28)"/><path class="cls-9" d="M92.6,233" transform="translate(0 -0.28)"/><path class="cls-9" d="M104.6,245" transform="translate(0 -0.28)"/></g><path class="cls-10" d="M-79.92,59.17" transform="translate(0 -0.28)"/><path class="cls-10" d="M-79.92,43.23" transform="translate(0 -0.28)"/><path class="cls-11" d="M170.45,59.17" transform="translate(0 -0.28)"/><path class="cls-11" d="M170.45,43.23" transform="translate(0 -0.28)"/><path class="cls-11" d="M249.81,59.17" transform="translate(0 -0.28)"/><path class="cls-11" d="M249.81,43.23" transform="translate(0 -0.28)"/><path class="cls-10" d="M56,59.17" transform="translate(0 -0.28)"/><path class="cls-10" d="M56,43.23" transform="translate(0 -0.28)"/></svg>