<?xml version="1.0" encoding="UTF-8"?>
<svg width="568px" height="312px" viewBox="0 0 568 312" version="1.1" xmlns="http://www.w3.org/2000/svg" xmlns:xlink="http://www.w3.org/1999/xlink">
    <!-- Generator: sketchtool 46.2 (44496) - http://www.bohemiancoding.com/sketch -->
    <title>6747EA67-38F6-431E-94F3-B2BFC2E0EE06</title>
    <desc>Created with sketchtool.</desc>
    <defs>
        <polygon id="path-1" points="0 314 567.019 314 567.019 0.998 0 0.998"></polygon>
    </defs>
    <g id="Page-1" stroke="none" stroke-width="1" fill="none" fill-rule="evenodd">
        <g id="MainPage-vagon-7" transform="translate(-721.000000, -205.000000)">
            <g id="Color" transform="translate(721.000000, 203.000000)">
                <polygon id="Fill-1" fill="#1F2D3D" points="540.937 263.699 559.568 263.699 559.568 241.343 540.937 241.343"></polygon>
                <polygon id="Fill-2" fill="#000100" points="464.551 258.111 552.115 258.111 552.115 245.069 464.551 245.069"></polygon>
                <polygon id="Fill-3" fill="#000100" points="531.622 273.015 535.348 273.015 535.348 246.93 531.622 246.93"></polygon>
                <polygon id="Fill-4" fill="#65605E" points="522.306 254.383 535.348 254.383 535.348 246.93 522.306 246.93"></polygon>
                <g id="Group-91" transform="translate(0.000000, 0.002000)">
                    <path d="M567.019,259.9711 C567.019,262.0291 565.352,263.6971 563.293,263.6971 L550.252,263.6971 C548.195,263.6971 546.526,262.0291 546.526,259.9711 L555.84,243.2021 L555.84,239.4761 L563.293,239.4761 C565.352,239.4761 567.019,241.1451 567.019,243.2021 L567.019,259.9711 Z" id="Fill-5" fill="#494C55"></path>
                    <mask id="mask-2" fill="white">
                        <use xlink:href="#path-1"></use>
                    </mask>
                    <g id="Clip-8"></g>
                    <polygon id="Fill-7" fill="#65605E" mask="url(#mask-2)" points="544.662 263.697 563.294 263.697 563.294 241.341 544.662 241.341"></polygon>
                    <polygon id="Fill-9" fill="#837F7D" mask="url(#mask-2)" points="544.662 245.066 563.294 245.066 563.294 243.202 544.662 243.202"></polygon>
                    <polygon id="Fill-10" fill="#837F7D" mask="url(#mask-2)" points="561.431 259.971 563.294 259.971 563.294 245.066 561.431 245.066"></polygon>
                    <polygon id="Fill-11" fill="#969696" mask="url(#mask-2)" points="544.663 259.971 546.526 259.971 546.526 245.066 544.663 245.066"></polygon>
                    <polygon id="Fill-12" fill="#1F2D3D" mask="url(#mask-2)" points="540.937 254.381 559.568 254.381 559.568 250.653 540.937 250.653"></polygon>
                    <polygon id="Fill-13" fill="#000100" mask="url(#mask-2)" points="540.937 252.518 559.568 252.518 559.568 250.655 540.937 250.655"></polygon>
                    <polygon id="Fill-14" fill="#837F7D" mask="url(#mask-2)" points="544.662 250.655 557.704 250.655 557.704 248.793 544.662 248.793"></polygon>
                    <polygon id="Fill-15" fill="#1F2D3D" mask="url(#mask-2)" points="557.705 259.971 559.568 259.971 559.568 246.928 557.705 246.928"></polygon>
                    <polygon id="Fill-16" fill="#000100" mask="url(#mask-2)" points="0 252.518 522.305 252.518 522.305 239.476 0 239.476"></polygon>
                    <polygon id="Fill-17" fill="#000100" mask="url(#mask-2)" points="177.63 261.833 326.679 261.833 326.679 250.653 177.63 250.653"></polygon>
                    <polygon id="Fill-18" fill="#000100" mask="url(#mask-2)" points="186.945 261.833 213.029 261.833 213.029 250.653 186.945 250.653"></polygon>
                    <polygon id="Fill-19" fill="#000100" mask="url(#mask-2)" points="209.303 282.328 227.934 282.328 227.934 252.518 209.303 252.518"></polygon>
                    <polygon id="Fill-20" fill="#000100" mask="url(#mask-2)" points="199.987 274.875 216.755 274.875 216.755 271.148 199.987 271.148"></polygon>
                    <polygon id="Fill-21" fill="#000100" mask="url(#mask-2)" points="226.072 276.74 239.113 276.74 239.113 263.697 226.072 263.697"></polygon>
                    <polygon id="Fill-22" fill="#000100" mask="url(#mask-2)" points="248.428 276.74 254.017 276.74 254.017 254.383 248.428 254.383"></polygon>
                    <polygon id="Fill-23" fill="#000100" mask="url(#mask-2)" points="254.017 284.192 255.881 284.192 255.881 273.013 254.017 273.013"></polygon>
                    <polygon id="Fill-24" fill="#000100" mask="url(#mask-2)" points="317.3637 261.8344 352.7617 297.2324 404.9287 297.2324 438.4667 263.6974 438.4667 246.9284 317.3637 246.9284"></polygon>
                    <path d="M414.2455,278.6019 C414.2455,298.1519 430.0955,313.9999 449.6435,313.9999 C469.1955,313.9999 485.0425,298.1519 485.0425,278.6019 C485.0425,259.0509 469.1955,243.2019 449.6435,243.2019 C430.0955,243.2019 414.2455,259.0509 414.2455,278.6019" id="Fill-25" fill="#192239" mask="url(#mask-2)"></path>
                    <path d="M417.9711,278.6019 C417.9711,296.0949 432.1521,310.2739 449.6441,310.2739 C467.1361,310.2739 481.3171,296.0949 481.3171,278.6019 C481.3171,261.1089 467.1361,246.9279 449.6441,246.9279 C432.1521,246.9279 417.9711,261.1089 417.9711,278.6019" id="Fill-26" fill="#6C6C75" mask="url(#mask-2)"></path>
                    <path d="M421.6977,278.6019 C421.6977,294.0359 434.2117,306.5479 449.6447,306.5479 C465.0807,306.5479 477.5907,294.0359 477.5907,278.6019 C477.5907,263.1679 465.0807,250.6549 449.6447,250.6549 C434.2117,250.6549 421.6977,263.1679 421.6977,278.6019" id="Fill-27" fill="#000100" mask="url(#mask-2)"></path>
                    <path d="M431.0131,267.4232 L451.5071,267.4232 C457.0971,267.4232 455.2341,280.4652 455.2341,280.4652 C455.2341,280.4652 466.4111,280.4652 466.4111,269.2872 C466.4111,261.8342 458.9591,259.9702 455.2341,259.9702 L431.0131,259.9702 L431.0131,267.4232 Z" id="Fill-28" fill="#363F51" mask="url(#mask-2)"></path>
                    <polygon id="Fill-29" fill="#363F51" mask="url(#mask-2)" points="378.846 282.328 382.572 282.328 382.572 263.697 378.846 263.697"></polygon>
                    <polygon id="Fill-30" fill="#363F51" mask="url(#mask-2)" points="375.119 293.507 382.572 293.507 382.572 287.917 375.119 287.917"></polygon>
                    <polygon id="Fill-31" fill="#6C6C75" mask="url(#mask-2)" points="386.298 282.328 404.929 282.328 404.929 280.467 386.298 280.467"></polygon>
                    <polygon id="Fill-32" fill="#19253B" mask="url(#mask-2)" points="386.298 280.466 404.929 280.466 404.929 278.602 386.298 278.602"></polygon>
                    <polygon id="Fill-33" fill="#6C6C75" mask="url(#mask-2)" points="386.298 276.74 404.929 276.74 404.929 274.876 386.298 274.876"></polygon>
                    <polygon id="Fill-34" fill="#A69F9C" mask="url(#mask-2)" points="390.025 282.328 397.477 282.328 397.477 280.467 390.025 280.467"></polygon>
                    <polygon id="Fill-35" fill="#363F51" mask="url(#mask-2)" points="390.025 280.466 397.477 280.466 397.477 278.602 390.025 278.602"></polygon>
                    <polygon id="Fill-36" fill="#6C6C75" mask="url(#mask-2)" points="386.298 287.917 404.929 287.917 404.929 286.054 386.298 286.054"></polygon>
                    <polygon id="Fill-37" fill="#19253B" mask="url(#mask-2)" points="386.298 286.054 404.929 286.054 404.929 284.191 386.298 284.191"></polygon>
                    <polygon id="Fill-38" fill="#A69F9C" mask="url(#mask-2)" points="390.025 287.917 397.477 287.917 397.477 286.054 390.025 286.054"></polygon>
                    <polygon id="Fill-39" fill="#363F51" mask="url(#mask-2)" points="390.025 286.054 397.477 286.054 397.477 284.191 390.025 284.191"></polygon>
                    <polygon id="Fill-40" fill="#A69F9C" mask="url(#mask-2)" points="390.025 276.74 397.477 276.74 397.477 274.876 390.025 274.876"></polygon>
                    <polygon id="Fill-41" fill="#19253B" mask="url(#mask-2)" points="386.298 274.875 404.929 274.875 404.929 273.013 386.298 273.013"></polygon>
                    <polygon id="Fill-42" fill="#363F51" mask="url(#mask-2)" points="390.025 274.875 397.477 274.875 397.477 273.013 390.025 273.013"></polygon>
                    <polygon id="Fill-43" fill="#6C6C75" mask="url(#mask-2)" points="386.298 271.149 404.929 271.149 404.929 269.287 386.298 269.287"></polygon>
                    <polygon id="Fill-44" fill="#A69F9C" mask="url(#mask-2)" points="390.025 271.149 397.477 271.149 397.477 269.287 390.025 269.287"></polygon>
                    <polygon id="Fill-45" fill="#19253B" mask="url(#mask-2)" points="386.298 269.286 404.929 269.286 404.929 267.423 386.298 267.423"></polygon>
                    <polygon id="Fill-46" fill="#363F51" mask="url(#mask-2)" points="390.025 269.286 397.477 269.286 397.477 267.423 390.025 267.423"></polygon>
                    <path d="M432.8764,256.2445 L378.8464,256.2445 L378.8464,263.6965 L399.3404,263.6965 C403.0654,263.6965 406.7924,265.5605 406.7924,271.1495 L406.7924,291.6445 C405.3954,293.5065 403.0654,295.3685 399.3404,295.3685 L378.8464,295.3685 L378.8464,300.9585 L403.0654,300.9585 C408.6554,300.9585 412.3814,295.3685 412.3814,295.3685 C412.3814,295.3685 427.2874,280.4655 436.6024,271.1495 C445.9184,261.8345 444.0554,256.2445 432.8764,256.2445 M429.1494,269.2875 L429.1494,269.2875 C425.4244,273.0135 419.8344,278.6015 417.9714,280.4655 C416.1064,282.3275 412.3814,284.1915 412.3814,276.7395 C412.3814,276.1335 412.3814,269.9215 412.3894,269.2875 C412.4474,264.0385 412.9844,263.6965 417.9714,263.6965 L429.1494,263.6965 C431.0134,263.6965 432.8764,265.5605 429.1494,269.2875" id="Fill-47" fill="#363F51" mask="url(#mask-2)"></path>
                    <path d="M460.8227,286.0541 C460.8227,288.1131 459.1547,289.7811 457.0967,289.7811 L442.1917,289.7811 C440.1337,289.7811 438.4667,288.1131 438.4667,286.0541 L438.4667,271.1491 C438.4667,269.0911 440.1337,267.4231 442.1917,267.4231 L457.0967,267.4231 C459.1547,267.4231 460.8227,269.0911 460.8227,271.1491 L460.8227,286.0541 Z" id="Fill-48" fill="#6C6C75" mask="url(#mask-2)"></path>
                    <path d="M440.3286,278.6019 C440.3286,283.7479 444.4996,287.9179 449.6446,287.9179 C454.7886,287.9179 458.9596,283.7479 458.9596,278.6019 C458.9596,273.4559 454.7886,269.2879 449.6446,269.2879 C444.4996,269.2879 440.3286,273.4559 440.3286,278.6019" id="Fill-49" fill="#000100" mask="url(#mask-2)"></path>
                    <path d="M442.1918,278.6019 C442.1918,282.7169 445.5278,286.0539 449.6438,286.0539 C453.7598,286.0539 457.0968,282.7169 457.0968,278.6019 C457.0968,274.4869 453.7598,271.1489 449.6438,271.1489 C445.5278,271.1489 442.1918,274.4869 442.1918,278.6019" id="Fill-50" fill="#363F51" mask="url(#mask-2)"></path>
                    <path d="M445.9184,278.6019 C445.9184,280.6599 447.5884,282.3289 449.6444,282.3289 C451.7034,282.3289 453.3704,280.6599 453.3704,278.6019 C453.3704,276.5439 451.7034,274.8759 449.6444,274.8759 C447.5884,274.8759 445.9184,276.5439 445.9184,278.6019" id="Fill-51" fill="#6C6C75" mask="url(#mask-2)"></path>
                    <path d="M343.4477,278.6019 C343.4477,298.1519 327.5947,313.9999 308.0477,313.9999 C288.4967,313.9999 272.6477,298.1519 272.6477,278.6019 C272.6477,259.0509 288.4967,243.2019 308.0477,243.2019 C327.5947,243.2019 343.4477,259.0509 343.4477,278.6019" id="Fill-52" fill="#192239" mask="url(#mask-2)"></path>
                    <path d="M339.7202,278.6019 C339.7202,296.0949 325.5392,310.2739 308.0482,310.2739 C290.5552,310.2739 276.3732,296.0949 276.3732,278.6019 C276.3732,261.1089 290.5552,246.9279 308.0482,246.9279 C325.5392,246.9279 339.7202,261.1089 339.7202,278.6019" id="Fill-53" fill="#6C6C75" mask="url(#mask-2)"></path>
                    <path d="M335.9936,278.6019 C335.9936,294.0359 323.4806,306.5479 308.0486,306.5479 C292.6116,306.5479 280.1006,294.0359 280.1006,278.6019 C280.1006,263.1679 292.6116,250.6549 308.0486,250.6549 C323.4806,250.6549 335.9936,263.1679 335.9936,278.6019" id="Fill-54" fill="#000100" mask="url(#mask-2)"></path>
                    <path d="M326.6791,267.4232 L306.1861,267.4232 C300.5951,267.4232 302.4581,280.4652 302.4581,280.4652 C302.4581,280.4652 291.2811,280.4652 291.2811,269.2872 C291.2811,261.8342 298.7331,259.9702 302.4581,259.9702 L326.6791,259.9702 L326.6791,267.4232 Z" id="Fill-55" fill="#363F51" mask="url(#mask-2)"></path>
                    <polygon id="Fill-56" fill="#363F51" mask="url(#mask-2)" points="375.119 282.328 378.847 282.328 378.847 263.697 375.119 263.697"></polygon>
                    <polygon id="Fill-57" fill="#6C6C75" mask="url(#mask-2)" points="352.763 282.328 371.394 282.328 371.394 280.467 352.763 280.467"></polygon>
                    <polygon id="Fill-58" fill="#19253B" mask="url(#mask-2)" points="352.763 280.466 371.394 280.466 371.394 278.602 352.763 278.602"></polygon>
                    <polygon id="Fill-59" fill="#6C6C75" mask="url(#mask-2)" points="352.763 276.74 371.394 276.74 371.394 274.876 352.763 274.876"></polygon>
                    <polygon id="Fill-60" fill="#A69F9C" mask="url(#mask-2)" points="360.215 282.328 367.667 282.328 367.667 280.467 360.215 280.467"></polygon>
                    <polygon id="Fill-61" fill="#363F51" mask="url(#mask-2)" points="360.215 280.466 367.667 280.466 367.667 278.602 360.215 278.602"></polygon>
                    <polygon id="Fill-62" fill="#6C6C75" mask="url(#mask-2)" points="352.763 287.917 371.394 287.917 371.394 286.054 352.763 286.054"></polygon>
                    <polygon id="Fill-63" fill="#19253B" mask="url(#mask-2)" points="352.763 286.054 371.394 286.054 371.394 284.191 352.763 284.191"></polygon>
                    <polygon id="Fill-64" fill="#A69F9C" mask="url(#mask-2)" points="360.215 287.917 367.667 287.917 367.667 286.054 360.215 286.054"></polygon>
                    <polygon id="Fill-65" fill="#363F51" mask="url(#mask-2)" points="360.215 286.054 367.667 286.054 367.667 284.191 360.215 284.191"></polygon>
                    <polygon id="Fill-66" fill="#A69F9C" mask="url(#mask-2)" points="360.215 276.74 367.667 276.74 367.667 274.876 360.215 274.876"></polygon>
                    <polygon id="Fill-67" fill="#19253B" mask="url(#mask-2)" points="352.763 274.875 371.394 274.875 371.394 273.013 352.763 273.013"></polygon>
                    <polygon id="Fill-68" fill="#363F51" mask="url(#mask-2)" points="360.215 274.875 367.667 274.875 367.667 273.013 360.215 273.013"></polygon>
                    <polygon id="Fill-69" fill="#6C6C75" mask="url(#mask-2)" points="352.763 271.149 371.394 271.149 371.394 269.287 352.763 269.287"></polygon>
                    <polygon id="Fill-70" fill="#A69F9C" mask="url(#mask-2)" points="360.215 271.149 367.667 271.149 367.667 269.287 360.215 269.287"></polygon>
                    <polygon id="Fill-71" fill="#19253B" mask="url(#mask-2)" points="352.763 269.286 371.394 269.286 371.394 267.423 352.763 267.423"></polygon>
                    <polygon id="Fill-72" fill="#363F51" mask="url(#mask-2)" points="360.215 269.286 367.667 269.286 367.667 267.423 360.215 267.423"></polygon>
                    <path d="M321.0903,271.1488 C330.4043,280.4648 345.3103,295.3698 345.3103,295.3698 C345.3103,295.3698 349.0353,300.9598 354.6253,300.9598 L378.8463,300.9598 L378.8463,295.3698 L358.3523,295.3698 C354.6253,295.3698 352.2963,293.5058 350.9003,291.6448 L350.9003,271.1488 C350.9003,265.5598 354.6253,263.6968 358.3523,263.6968 L378.8463,263.6968 L378.8463,256.2448 L324.8153,256.2448 C313.6383,256.2448 311.7743,261.8348 321.0903,271.1488 M328.5413,263.6968 L328.5413,263.6968 L339.7203,263.6968 C344.7053,263.6968 345.2443,264.0388 345.3043,269.2878 C345.3103,269.9208 345.3103,276.1338 345.3103,276.7388 C345.3103,284.1908 341.5833,282.3288 339.7203,280.4648 C337.8573,278.6018 332.2673,273.0128 328.5413,269.2878 C324.8153,265.5598 326.6793,263.6968 328.5413,263.6968" id="Fill-73" fill="#363F51" mask="url(#mask-2)"></path>
                    <path d="M404.9291,257.1761 C404.9291,258.7191 403.6771,259.9711 402.1351,259.9711 L353.6941,259.9711 C352.1521,259.9711 350.9001,258.7191 350.9001,257.1761 C350.9001,255.6331 352.1521,254.3801 353.6941,254.3801 L402.1351,254.3801 C403.6771,254.3801 404.9291,255.6331 404.9291,257.1761" id="Fill-74" fill="#363F51" mask="url(#mask-2)"></path>
                    <path d="M399.3403,259.0394 C399.3403,259.5544 398.9233,259.9704 398.4093,259.9704 L359.2833,259.9704 C358.7683,259.9704 358.3523,259.5544 358.3523,259.0394 C358.3523,258.5224 358.7683,258.1074 359.2833,258.1074 L398.4093,258.1074 C398.9233,258.1074 399.3403,258.5224 399.3403,259.0394" id="Fill-75" fill="#000100" mask="url(#mask-2)"></path>
                    <polygon id="Fill-76" fill="#363F51" mask="url(#mask-2)" points="350.9 250.655 371.394 250.655 371.394 248.793 350.9 248.793"></polygon>
                    <polygon id="Fill-77" fill="#363F51" mask="url(#mask-2)" points="386.298 250.655 406.792 250.655 406.792 248.793 386.298 248.793"></polygon>
                    <path d="M319.226,286.0541 C319.226,288.1131 317.558,289.7811 315.499,289.7811 L300.595,289.7811 C298.539,289.7811 296.87,288.1131 296.87,286.0541 L296.87,271.1491 C296.87,269.0911 298.539,267.4231 300.595,267.4231 L315.499,267.4231 C317.558,267.4231 319.226,269.0911 319.226,271.1491 L319.226,286.0541 Z" id="Fill-78" fill="#6C6C75" mask="url(#mask-2)"></path>
                    <path d="M317.3637,278.6019 C317.3637,283.7479 313.1907,287.9179 308.0487,287.9179 C302.9017,287.9179 298.7327,283.7479 298.7327,278.6019 C298.7327,273.4559 302.9017,269.2879 308.0487,269.2879 C313.1907,269.2879 317.3637,273.4559 317.3637,278.6019" id="Fill-79" fill="#000100" mask="url(#mask-2)"></path>
                    <path d="M315.4995,278.6019 C315.4995,282.7169 312.1625,286.0539 308.0485,286.0539 C303.9335,286.0539 300.5965,282.7169 300.5965,278.6019 C300.5965,274.4869 303.9335,271.1489 308.0485,271.1489 C312.1625,271.1489 315.4995,274.4869 315.4995,278.6019" id="Fill-80" fill="#363F51" mask="url(#mask-2)"></path>
                    <path d="M311.7739,278.6019 C311.7739,280.6599 310.1029,282.3289 308.0469,282.3289 C305.9879,282.3289 304.3219,280.6599 304.3219,278.6019 C304.3219,276.5439 305.9879,274.8759 308.0469,274.8759 C310.1029,274.8759 311.7739,276.5439 311.7739,278.6019" id="Fill-81" fill="#6C6C75" mask="url(#mask-2)"></path>
                    <polygon id="Fill-82" fill="#363F51" mask="url(#mask-2)" points="216.755 273.013 237.249 273.013 237.249 269.286 216.755 269.286"></polygon>
                    <path d="M0.0004,282.3275 L119.8754,282.3275 C213.0294,282.3275 257.7434,239.4755 302.4584,239.4755 L527.8944,239.4755 L527.8944,228.2965 L0.0004,228.2965 L0.0004,282.3275 Z" id="Fill-83" fill="#000100" mask="url(#mask-2)"></path>
                    <path d="M0.0004,280.4652 L119.8754,280.4652 C213.0294,280.4652 257.7434,237.6132 302.4584,237.6132 L527.8944,237.6132 L527.8944,226.4322 L0.0004,226.4322 L0.0004,280.4652 Z" id="Fill-84" fill="#6C6C75" mask="url(#mask-2)"></path>
                    <path d="M0.0004,274.8773 L119.8754,274.8773 C213.0294,274.8773 257.7434,232.0253 302.4584,232.0253 L527.8944,232.0253 L527.8944,213.3923 L0.0004,213.3923 L0.0004,274.8773 Z" id="Fill-85" fill="#192239" mask="url(#mask-2)"></path>
                    <path d="M0.0004,271.1508 L119.8754,271.1508 C213.0294,271.1508 257.7434,228.2998 302.4584,228.2998 L527.8944,228.2998 L527.8944,217.1188 L0.0004,217.1188 L0.0004,271.1508 Z" id="Fill-86" fill="#363F51" mask="url(#mask-2)"></path>
                    <polygon id="Fill-87" fill="#192239" mask="url(#mask-2)" points="0.001 224.572 527.895 224.572 527.895 218.983 0.001 218.983"></polygon>
                    <polygon id="Fill-88" fill="#6C6C75" mask="url(#mask-2)" points="0.001 220.845 527.895 220.845 527.895 215.256 0.001 215.256"></polygon>
                    <polygon id="Fill-89" fill="#6C6C75" mask="url(#mask-2)" points="524.169 233.887 527.895 233.887 527.895 217.119 524.169 217.119"></polygon>
                    <polygon id="Fill-90" fill="#192239" mask="url(#mask-2)" points="119.875 271.149 121.737 271.149 121.737 224.571 119.875 224.571"></polygon>
                </g>
                <polygon id="Fill-92" points="30.445 213.395 427.286 213.395 427.286 1 30.445 1"></polygon>
                <g id="Group-99" transform="translate(30.000000, 2.002000)">
                    <polygon id="Fill-94" fill="#4883C3" points="0.445 211.393 397.288 211.393 397.288 0.862 0.445 0.862"></polygon>
                    <polygon id="Fill-96" fill="#172D57" points="6.035 211.393 391.698 211.393 391.698 209.53 6.035 209.53"></polygon>
                    <polygon id="Fill-97" fill="#0C4E8E" points="6.035 202.078 391.698 202.078 391.698 6.451 6.035 6.451"></polygon>
                    <polygon id="Fill-98" fill="#1863AD" points="9.761 200.214 387.971 200.214 387.971 12.04 9.761 12.04"></polygon>
                </g>
                <polygon id="Fill-100" points="49.075 202.216 56.53 202.216 56.53 10.316 49.075 10.316"></polygon>
                <polygon id="Fill-102" points="54.665 202.216 58.393 202.216 58.393 10.316 54.665 10.316"></polygon>
                <polygon id="Fill-104" fill="#0C4E8E" points="45.35 202.216 49.076 202.216 49.076 10.316 45.35 10.316"></polygon>
                <polygon id="Fill-106" points="67.709 202.216 75.16 202.216 75.16 10.316 67.709 10.316"></polygon>
                <polygon id="Fill-108" points="73.297 202.216 77.024 202.216 77.024 10.316 73.297 10.316"></polygon>
                <polygon id="Fill-110" fill="#0C4E8E" points="63.981 202.216 67.708 202.216 67.708 10.316 63.981 10.316"></polygon>
                <polygon id="Fill-112" points="86.34 202.216 93.791 202.216 93.791 10.316 86.34 10.316"></polygon>
                <polygon id="Fill-114" points="91.927 202.216 95.654 202.216 95.654 10.316 91.927 10.316"></polygon>
                <polygon id="Fill-116" fill="#0C4E8E" points="82.612 202.216 86.339 202.216 86.339 10.316 82.612 10.316"></polygon>
                <polygon id="Fill-118" points="104.971 202.216 112.424 202.216 112.424 10.316 104.971 10.316"></polygon>
                <polygon id="Fill-120" points="110.559 202.216 114.285 202.216 114.285 10.316 110.559 10.316"></polygon>
                <polygon id="Fill-122" fill="#0C4E8E" points="101.243 202.216 104.97 202.216 104.97 10.316 101.243 10.316"></polygon>
                <polygon id="Fill-124" points="123.601 202.216 131.055 202.216 131.055 10.316 123.601 10.316"></polygon>
                <polygon id="Fill-126" points="129.19 202.216 132.916 202.216 132.916 10.316 129.19 10.316"></polygon>
                <polygon id="Fill-128" fill="#0C4E8E" points="119.874 202.216 123.601 202.216 123.601 10.316 119.874 10.316"></polygon>
                <polygon id="Fill-130" points="142.231 202.216 149.685 202.216 149.685 10.316 142.231 10.316"></polygon>
                <polygon id="Fill-132" points="147.821 202.216 151.548 202.216 151.548 10.316 147.821 10.316"></polygon>
                <polygon id="Fill-134" fill="#0C4E8E" points="138.506 202.216 142.232 202.216 142.232 10.316 138.506 10.316"></polygon>
                <polygon id="Fill-136" points="160.861 202.216 168.313 202.216 168.313 10.316 160.861 10.316"></polygon>
                <polygon id="Fill-138" points="166.451 202.216 170.178 202.216 170.178 10.316 166.451 10.316"></polygon>
                <polygon id="Fill-140" fill="#0C4E8E" points="157.135 202.216 160.862 202.216 160.862 10.316 157.135 10.316"></polygon>
                <polygon id="Fill-142" points="179.492 202.216 186.945 202.216 186.945 10.316 179.492 10.316"></polygon>
                <polygon id="Fill-144" points="185.081 202.216 188.808 202.216 188.808 10.316 185.081 10.316"></polygon>
                <polygon id="Fill-146" fill="#0C4E8E" points="175.767 202.216 179.493 202.216 179.493 10.316 175.767 10.316"></polygon>
                <polygon id="Fill-148" points="198.124 202.216 205.576 202.216 205.576 10.316 198.124 10.316"></polygon>
                <polygon id="Fill-150" points="203.715 202.216 207.441 202.216 207.441 10.316 203.715 10.316"></polygon>
                <polygon id="Fill-152" fill="#0C4E8E" points="194.397 202.216 198.124 202.216 198.124 10.316 194.397 10.316"></polygon>
                <polygon id="Fill-154" points="216.755 202.216 224.207 202.216 224.207 10.316 216.755 10.316"></polygon>
                <polygon id="Fill-156" points="222.345 202.216 226.071 202.216 226.071 10.316 222.345 10.316"></polygon>
                <polygon id="Fill-158" fill="#0C4E8E" points="213.028 202.216 216.755 202.216 216.755 10.316 213.028 10.316"></polygon>
                <polygon id="Fill-160" points="235.386 202.216 242.839 202.216 242.839 10.316 235.386 10.316"></polygon>
                <polygon id="Fill-162" points="240.976 202.216 244.702 202.216 244.702 10.316 240.976 10.316"></polygon>
                <polygon id="Fill-164" fill="#0C4E8E" points="231.659 202.216 235.386 202.216 235.386 10.316 231.659 10.316"></polygon>
                <polygon id="Fill-166" points="254.017 202.216 261.47 202.216 261.47 10.316 254.017 10.316"></polygon>
                <polygon id="Fill-168" points="259.607 202.216 263.334 202.216 263.334 10.316 259.607 10.316"></polygon>
                <polygon id="Fill-170" fill="#0C4E8E" points="250.29 202.216 254.017 202.216 254.017 10.316 250.29 10.316"></polygon>
                <polygon id="Fill-172" points="272.648 202.216 280.101 202.216 280.101 10.316 272.648 10.316"></polygon>
                <polygon id="Fill-174" points="278.238 202.216 281.965 202.216 281.965 10.316 278.238 10.316"></polygon>
                <polygon id="Fill-176" fill="#0C4E8E" points="268.922 202.216 272.648 202.216 272.648 10.316 268.922 10.316"></polygon>
                <polygon id="Fill-178" points="291.28 202.216 298.733 202.216 298.733 10.316 291.28 10.316"></polygon>
                <polygon id="Fill-180" points="296.869 202.216 300.596 202.216 300.596 10.316 296.869 10.316"></polygon>
                <polygon id="Fill-182" fill="#0C4E8E" points="287.554 202.216 291.28 202.216 291.28 10.316 287.554 10.316"></polygon>
                <polygon id="Fill-184" points="309.91 202.216 317.363 202.216 317.363 10.316 309.91 10.316"></polygon>
                <polygon id="Fill-186" points="315.499 202.216 319.226 202.216 319.226 10.316 315.499 10.316"></polygon>
                <polygon id="Fill-188" fill="#0C4E8E" points="306.185 202.216 309.911 202.216 309.911 10.316 306.185 10.316"></polygon>
                <polygon id="Fill-190" points="328.542 202.216 335.993 202.216 335.993 10.316 328.542 10.316"></polygon>
                <polygon id="Fill-192" points="334.132 202.216 337.857 202.216 337.857 10.316 334.132 10.316"></polygon>
                <polygon id="Fill-194" fill="#0C4E8E" points="324.814 202.216 328.542 202.216 328.542 10.316 324.814 10.316"></polygon>
                <polygon id="Fill-196" points="347.174 202.216 354.626 202.216 354.626 10.316 347.174 10.316"></polygon>
                <polygon id="Fill-198" points="352.763 202.216 356.489 202.216 356.489 10.316 352.763 10.316"></polygon>
                <polygon id="Fill-200" fill="#0C4E8E" points="343.447 202.216 347.174 202.216 347.174 10.316 343.447 10.316"></polygon>
                <polygon id="Fill-202" points="365.805 202.216 373.258 202.216 373.258 10.316 365.805 10.316"></polygon>
                <polygon id="Fill-204" points="371.394 202.216 375.12 202.216 375.12 10.316 371.394 10.316"></polygon>
                <polygon id="Fill-206" fill="#0C4E8E" points="362.078 202.216 365.805 202.216 365.805 10.316 362.078 10.316"></polygon>
                <polygon id="Fill-208" points="384.435 202.216 391.888 202.216 391.888 10.316 384.435 10.316"></polygon>
                <polygon id="Fill-210" points="390.024 202.216 393.749 202.216 393.749 10.316 390.024 10.316"></polygon>
                <polygon id="Fill-212" fill="#0C4E8E" points="380.71 202.216 384.436 202.216 384.436 10.316 380.71 10.316"></polygon>
                <polygon id="Fill-214" points="403.066 202.216 410.519 202.216 410.519 10.316 403.066 10.316"></polygon>
                <polygon id="Fill-216" points="408.655 202.216 412.381 202.216 412.381 10.316 408.655 10.316"></polygon>
                <polygon id="Fill-218" fill="#0C4E8E" points="399.34 202.216 403.067 202.216 403.067 10.316 399.34 10.316"></polygon>
                <polygon id="Fill-220" points="412.381 14.042 431.013 14.042 431.013 1 412.381 1"></polygon>
                <g id="Group-225" transform="translate(412.000000, 2.002000)">
                    <polygon id="Fill-222" fill="#4883C3" points="0.382 12.04 17.15 12.04 17.15 0.861 0.382 0.861"></polygon>
                    <polygon id="Fill-224" fill="#172D57" points="7.833 8.314 13.424 8.314 13.424 4.588 7.833 4.588"></polygon>
                </g>
                <polygon id="Fill-226" points="26.719 14.042 45.35 14.042 45.35 1 26.719 1"></polygon>
                <g id="Group-284" transform="translate(28.000000, 2.002000)">
                    <polygon id="Fill-228" fill="#4883C3" points="0.583 12.04 17.35 12.04 17.35 0.861 0.583 0.861"></polygon>
                    <polygon id="Fill-230" fill="#172D57" points="4.308 8.314 9.898 8.314 9.898 4.588 4.308 4.588"></polygon>
                    <polygon id="Fill-231" fill="#1863AD" points="399.288 49.302 401.15 49.302 401.15 12.04 399.288 12.04"></polygon>
                    <polygon id="Fill-232" fill="#1863AD" points="399.288 92.154 401.15 92.154 401.15 54.892 399.288 54.892"></polygon>
                    <polygon id="Fill-233" fill="#1863AD" points="399.288 135.005 401.15 135.005 401.15 97.743 399.288 97.743"></polygon>
                    <polygon id="Fill-234" fill="#1863AD" points="399.288 177.857 401.15 177.857 401.15 140.595 399.288 140.595"></polygon>
                    <polygon id="Fill-235" fill="#1863AD" points="399.288 211.393 401.15 211.393 401.15 183.447 399.288 183.447"></polygon>
                    <polygon id="Fill-236" fill="#1863AD" points="0.584 49.302 2.445 49.302 2.445 12.04 0.584 12.04"></polygon>
                    <polygon id="Fill-237" fill="#1863AD" points="0.584 92.154 2.445 92.154 2.445 54.892 0.584 54.892"></polygon>
                    <polygon id="Fill-238" fill="#1863AD" points="0.584 135.005 2.445 135.005 2.445 97.743 0.584 97.743"></polygon>
                    <polygon id="Fill-239" fill="#1863AD" points="0.584 177.857 2.445 177.857 2.445 140.595 0.584 140.595"></polygon>
                    <polygon id="Fill-240" fill="#1863AD" points="0.584 211.393 2.445 211.393 2.445 183.447 0.584 183.447"></polygon>
                    <polygon id="Fill-241" fill="#A6AAB2" points="104.915 246.791 108.643 246.791 108.643 243.065 104.915 243.065"></polygon>
                    <polygon id="Fill-242" fill="#A6AAB2" points="110.506 246.791 114.232 246.791 114.232 243.065 110.506 243.065"></polygon>
                    <polygon id="Fill-243" fill="#A6AAB2" points="125.41 246.791 129.136 246.791 129.136 243.065 125.41 243.065"></polygon>
                    <polygon id="Fill-244" fill="#A6AAB2" points="117.959 246.791 119.822 246.791 119.822 243.065 117.959 243.065"></polygon>
                    <polygon id="Fill-245" fill="#A6AAB2" points="121.685 246.791 123.548 246.791 123.548 243.065 121.685 243.065"></polygon>
                    <polygon id="Fill-246" fill="#A6AAB2" points="131 246.791 132.862 246.791 132.862 243.065 131 243.065"></polygon>
                    <polygon id="Fill-247" fill="#A6AAB2" points="136.588 246.791 140.314 246.791 140.314 243.065 136.588 243.065"></polygon>
                    <polygon id="Fill-248" fill="#A6AAB2" points="142.178 246.791 144.04 246.791 144.04 243.065 142.178 243.065"></polygon>
                    <polygon id="Fill-249" fill="#A6AAB2" points="147.767 246.791 151.493 246.791 151.493 243.065 147.767 243.065"></polygon>
                    <polygon id="Fill-250" fill="#A6AAB2" points="153.356 246.791 155.22 246.791 155.22 243.065 153.356 243.065"></polygon>
                    <polygon id="Fill-251" fill="#A6AAB2" points="151.491 250.518 155.219 250.518 155.219 248.655 151.491 248.655"></polygon>
                    <polygon id="Fill-252" fill="#A6AAB2" points="145.903 250.518 149.631 250.518 149.631 248.655 145.903 248.655"></polygon>
                    <polygon id="Fill-253" fill="#A6AAB2" points="130.999 250.518 134.724 250.518 134.724 248.655 130.999 248.655"></polygon>
                    <polygon id="Fill-254" fill="#A6AAB2" points="140.314 250.518 142.177 250.518 142.177 248.655 140.314 248.655"></polygon>
                    <polygon id="Fill-255" fill="#A6AAB2" points="136.589 250.518 138.45 250.518 138.45 248.655 136.589 248.655"></polygon>
                    <polygon id="Fill-256" fill="#A6AAB2" points="127.274 250.518 129.135 250.518 129.135 248.655 127.274 248.655"></polygon>
                    <polygon id="Fill-257" fill="#A6AAB2" points="119.822 250.518 123.549 250.518 123.549 248.655 119.822 248.655"></polygon>
                    <polygon id="Fill-258" fill="#A6AAB2" points="116.096 250.518 117.958 250.518 117.958 248.655 116.096 248.655"></polygon>
                    <polygon id="Fill-259" fill="#A6AAB2" points="108.643 250.518 112.37 250.518 112.37 248.655 108.643 248.655"></polygon>
                    <polygon id="Fill-260" fill="#A6AAB2" points="104.915 250.518 106.779 250.518 106.779 248.655 104.915 248.655"></polygon>
                    <polygon id="Fill-261" fill="#A6AAB2" points="104.915 254.243 108.643 254.243 108.643 252.381 104.915 252.381"></polygon>
                    <polygon id="Fill-262" fill="#A6AAB2" points="110.504 254.243 114.23 254.243 114.23 252.381 110.504 252.381"></polygon>
                    <polygon id="Fill-263" fill="#A6AAB2" points="125.408 254.243 129.134 254.243 129.134 252.381 125.408 252.381"></polygon>
                    <polygon id="Fill-264" fill="#A6AAB2" points="117.957 254.243 119.82 254.243 119.82 252.381 117.957 252.381"></polygon>
                    <polygon id="Fill-265" fill="#A6AAB2" points="121.682 254.243 123.546 254.243 123.546 252.381 121.682 252.381"></polygon>
                    <polygon id="Fill-266" fill="#A6AAB2" points="130.997 254.243 132.86 254.243 132.86 252.381 130.997 252.381"></polygon>
                    <polygon id="Fill-267" fill="#A6AAB2" points="136.585 254.243 140.312 254.243 140.312 252.381 136.585 252.381"></polygon>
                    <polygon id="Fill-268" fill="#A6AAB2" points="142.177 254.243 144.039 254.243 144.039 252.381 142.177 252.381"></polygon>
                    <polygon id="Fill-269" fill="#A6AAB2" points="104.915 239.34 121.685 239.34 121.685 235.613 104.915 235.613"></polygon>
                    <polygon id="Fill-270" fill="#A6AAB2" points="106.78 239.34 108.643 239.34 108.643 237.476 106.78 237.476"></polygon>
                    <polygon id="Fill-271" fill="#A6AAB2" points="116.096 239.34 117.958 239.34 117.958 237.476 116.096 237.476"></polygon>
                    <polygon id="Fill-272" fill="#A6AAB2" points="125.41 239.34 132.862 239.34 132.862 235.613 125.41 235.613"></polygon>
                    <polygon id="Fill-273" fill="#A6AAB2" points="134.725 239.34 138.451 239.34 138.451 235.613 134.725 235.613"></polygon>
                    <polygon id="Fill-274" fill="#A6AAB2" points="142.178 239.34 149.63 239.34 149.63 235.613 142.178 235.613"></polygon>
                    <polygon id="Fill-275" fill="#A6AAB2" points="52.749 254.245 54.613 254.245 54.613 243.067 52.749 243.067"></polygon>
                    <polygon id="Fill-276" fill="#A6AAB2" points="58.34 254.245 60.202 254.245 60.202 243.067 58.34 243.067"></polygon>
                    <polygon id="Fill-277" fill="#A6AAB2" points="63.927 254.245 65.79 254.245 65.79 243.067 63.927 243.067"></polygon>
                    <polygon id="Fill-278" fill="#A6AAB2" points="60.201 254.245 63.928 254.245 63.928 252.383 60.201 252.383"></polygon>
                    <polygon id="Fill-279" fill="#A6AAB2" points="60.201 244.928 63.928 244.928 63.928 243.066 60.201 243.066"></polygon>
                    <polygon id="Fill-280" fill="#A6AAB2" points="68.039 254.245 69.902 254.245 69.902 243.067 68.039 243.067"></polygon>
                    <polygon id="Fill-281" fill="#A6AAB2" points="73.629 254.245 75.491 254.245 75.491 243.067 73.629 243.067"></polygon>
                    <polygon id="Fill-282" fill="#A6AAB2" points="69.9 254.245 73.627 254.245 73.627 252.383 69.9 252.383"></polygon>
                    <polygon id="Fill-283" fill="#A6AAB2" points="69.9 244.928 73.627 244.928 73.627 243.066 69.9 243.066"></polygon>
                </g>
            </g>
        </g>
    </g>
</svg>