<?xml version="1.0" encoding="UTF-8"?>
<svg width="1440px" height="24px" viewBox="0 0 1440 24" version="1.1" xmlns="http://www.w3.org/2000/svg" xmlns:xlink="http://www.w3.org/1999/xlink">
    <!-- Generator: sketchtool 46.2 (44496) - http://www.bohemiancoding.com/sketch -->
    <title>DD73F383-FD2F-4001-A25B-4F7939C789B0</title>
    <desc>Created with sketchtool.</desc>
    <defs></defs>
    <g id="Page-1" stroke="none" stroke-width="1" fill="none" fill-rule="evenodd">
        <g id="MainPage-vagon-7" transform="translate(0.000000, -518.000000)" fill="#F48266">
            <g id="Rails" transform="translate(-499.000000, 518.000000)">
                <polygon id="Page-1" points="0 0 0 12.363 23.629 12.363 23.629 23.004 52.308 23.004 52.308 12.363 100.052 12.363 100.052 23.004 128.748 23.004 128.748 12.363 176.489 12.363 176.489 23.004 205.183 23.004 205.183 12.363 252.935 12.363 252.935 23.004 281.62 23.004 281.62 12.363 329.345 12.363 329.345 23.004 358.03 23.004 358.03 12.363 405.783 12.363 405.783 23.004 434.466 23.004 434.466 12.363 482.22 12.363 482.22 23.004 510.904 23.004 510.904 12.363 558.634 12.363 558.634 23.004 587.326 23.004 587.326 12.363 635.068 12.363 635.068 23.004 663.764 23.004 663.764 12.363 711.503 12.363 711.503 23.004 740.201 23.004 740.201 12.363 787.927 12.363 787.927 23.004 816.633 23.004 816.633 12.363 864.34 12.363 864.34 23.004 893.04 23.004 893.04 12.363 940.791 12.363 940.791 23.004 969.482 23.004 969.482 12.363 1017.215 12.363 1017.215 23.004 1045.925 23.004 1045.925 12.363 1093.663 12.363 1093.663 23.004 1122.331 23.004 1122.331 12.363 1170.085 12.363 1170.085 23.004 1198.769 23.004 1198.769 12.363 1218.897 12.363 1218.897 0"></polygon>
                <polygon id="Page-1-Copy" points="1219 0 1219 12.363 1242.629 12.363 1242.629 23.004 1271.308 23.004 1271.308 12.363 1319.052 12.363 1319.052 23.004 1347.748 23.004 1347.748 12.363 1395.489 12.363 1395.489 23.004 1424.183 23.004 1424.183 12.363 1471.935 12.363 1471.935 23.004 1500.62 23.004 1500.62 12.363 1548.345 12.363 1548.345 23.004 1577.03 23.004 1577.03 12.363 1624.783 12.363 1624.783 23.004 1653.466 23.004 1653.466 12.363 1701.22 12.363 1701.22 23.004 1729.904 23.004 1729.904 12.363 1777.634 12.363 1777.634 23.004 1806.326 23.004 1806.326 12.363 1854.068 12.363 1854.068 23.004 1882.764 23.004 1882.764 12.363 1930.503 12.363 1930.503 23.004 1959.201 23.004 1959.201 12.363 2006.927 12.363 2006.927 23.004 2035.633 23.004 2035.633 12.363 2083.34 12.363 2083.34 23.004 2112.04 23.004 2112.04 12.363 2159.791 12.363 2159.791 23.004 2188.482 23.004 2188.482 12.363 2236.215 12.363 2236.215 23.004 2264.925 23.004 2264.925 12.363 2312.663 12.363 2312.663 23.004 2341.331 23.004 2341.331 12.363 2389.085 12.363 2389.085 23.004 2417.769 23.004 2417.769 12.363 2437.897 12.363 2437.897 0"></polygon>
            </g>
        </g>
    </g>
</svg>