<?xml version="1.0" encoding="UTF-8"?>
<svg width="1144px" height="272px" viewBox="0 0 1144 272" version="1.1" xmlns="http://www.w3.org/2000/svg" xmlns:xlink="http://www.w3.org/1999/xlink">
    <!-- Generator: sketchtool 46.2 (44496) - http://www.bohemiancoding.com/sketch -->
    <title>8AE05193-B92B-4A49-B0DB-5E2C7F582F08</title>
    <desc>Created with sketchtool.</desc>
    <defs>
        <polygon id="path-1" points="0 271.509 1143.357 271.509 1143.357 0 0 0"></polygon>
    </defs>
    <g id="Page-1" stroke="none" stroke-width="1" fill="none" fill-rule="evenodd">
        <g id="MainPage-vagon" transform="translate(-148.000000, -124.000000)">
            <g id="Cran" transform="translate(148.000000, 124.000000)">
                <path d="M251.8817,99.227 L220.9087,99.227 L220.9237,99.257 C221.1127,99.447 221.2717,99.693 221.3917,99.934 C221.4327,99.986 221.4697,100.04 221.5027,100.097 C221.6777,100.282 221.7287,100.433 221.8437,100.644 L251.8817,100.644 L251.8817,99.227 Z M216.4177,99.227 L201.9577,99.227 C201.8977,99.429 201.8747,99.664 201.8087,99.872 C201.8087,100.112 201.8167,100.303 201.7387,100.539 L201.7267,100.644 L217.7987,100.644 C217.7477,100.579 217.7027,100.509 217.6647,100.436 L217.5687,100.393 C216.9787,100.289 216.5147,99.819 216.4177,99.227 Z M196.8467,99.227 L181.7897,99.227 C181.7487,99.579 181.4207,100.356 181.1877,100.644 L196.9047,100.644 C196.8857,100.347 196.9017,100.01 196.9017,99.709 C196.9017,99.646 196.9057,99.584 196.9137,99.523 C196.8817,99.428 196.8587,99.329 196.8467,99.227 Z M177.9237,99.227 L145.5857,99.227 C145.6697,99.498 145.6777,100.358 145.6197,100.644 L176.9487,100.644 C177.0057,100.444 177.1067,100.261 177.2387,100.107 C177.2917,100 177.3587,99.9 177.4367,99.81 C177.5827,99.517 177.7337,99.447 177.9237,99.227 Z M141.7967,99.227 L120.1117,99.227 C120.2047,99.383 120.3527,99.538 120.4527,99.708 C120.6797,99.949 120.8197,100.313 120.8847,100.644 L141.6517,100.644 C141.6307,100.321 141.6437,99.98 141.7847,99.684 L141.7127,99.828 C141.7127,99.608 141.7197,99.44 141.7967,99.227 Z M115.3197,99.227 L98.5567,99.227 L98.5557,100.644 L116.2307,100.644 C116.1907,100.592 116.1557,100.538 116.1187,100.484 L116.1317,100.496 C115.9567,100.314 115.6177,99.783 115.5457,99.558 C115.4547,99.43 115.4337,99.344 115.3197,99.227 Z M95.6527,99.204 L73.8237,99.227 L73.8237,100.644 L95.5877,100.644 C95.6387,100.544 95.6527,100.379 95.6527,100.204 L95.6527,99.204 Z" id="Fill-1" fill="#F48266"></path>
                <path d="M1042.7567,79.9594 C1045.8267,79.9594 1048.6107,81.2054 1050.6227,83.2194 L1050.6247,83.2194 C1052.6397,85.2334 1053.8857,88.0164 1053.8857,91.0884 C1053.8857,94.1614 1052.6397,96.9444 1050.6247,98.9584 C1048.6107,100.9724 1045.8287,102.2174 1042.7567,102.2174 C1039.6837,102.2174 1036.9017,100.9724 1034.8857,98.9584 L1034.8857,98.9564 C1032.8727,96.9424 1031.6267,94.1604 1031.6267,91.0884 C1031.6267,88.0174 1032.8727,85.2344 1034.8857,83.2214 L1034.8887,83.2194 C1036.9027,81.2054 1039.6847,79.9594 1042.7567,79.9594 L1042.7567,79.9594 Z M1050.0067,83.8374 C1048.1527,81.9834 1045.5877,80.8354 1042.7567,80.8354 C1039.9247,80.8354 1037.3607,81.9834 1035.5047,83.8374 C1033.6507,85.6934 1032.5027,88.2564 1032.5027,91.0884 C1032.5027,93.9204 1033.6507,96.4844 1035.5047,98.3394 L1035.5067,98.3394 C1037.3607,100.1944 1039.9247,101.3414 1042.7567,101.3414 C1045.5867,101.3414 1048.1517,100.1944 1050.0067,98.3394 C1051.8607,96.4844 1053.0087,93.9204 1053.0087,91.0884 C1053.0087,88.2574 1051.8607,85.6934 1050.0067,83.8384 L1050.0067,83.8374 Z" id="Fill-3" fill="#F48266"></path>
                <path d="M301.827,77.8857 C302.729,76.1817 305.06,73.9217 302.322,73.9217 L256.727,73.9217 L256.727,140.8277 C266.365,140.8277 262.473,140.3307 262.343,138.8437 L262.343,91.2667 C262.343,88.5767 261.308,77.3907 263.665,77.3907 C269.335,77.3907 298.686,76.7777 301.827,77.8857" id="Fill-5" fill="#F48266"></path>
                <path d="M147.8807,140.3315 L146.7027,140.3315 L146.7027,138.8445 C154.9747,134.7855 154.6127,134.1435 147.8807,140.3315 L147.8807,140.3315 Z M146.7027,130.4195 L149.1807,130.4195 L149.1807,111.0905 L146.7027,111.0905 L146.7027,130.4195 Z M173.9657,103.6575 C173.2547,104.8215 172.9057,105.5685 172.1077,106.7595 C171.2827,107.9895 170.8607,108.5115 170.4927,110.1015 L147.1967,110.1015 C147.1967,107.3395 146.6047,102.5295 147.6907,100.6845 L175.9407,100.6865 C174.9387,102.6305 175.6797,102.0975 173.9657,103.6575 L173.9657,103.6575 Z M146.7027,77.3905 L148.1907,77.3905 C149.2787,77.9665 149.1817,77.1125 149.1817,79.3725 L149.1817,100.1875 L146.7027,100.1875 L146.7027,77.3905 Z M177.4317,99.1975 C174.7237,101.0165 154.7467,100.0815 154.7417,100.0795 C152.2857,99.1115 153.2777,81.4335 153.8057,77.4015 L190.3797,77.4075 L189.8217,79.3735 C190.3637,78.9755 192.7287,75.7015 192.8737,75.0095 C192.9847,74.4745 192.7827,74.1645 192.3757,73.9915 C176.9847,73.9915 161.6597,73.9175 146.2077,73.9205 L146.2067,140.8935 L152.1547,140.8275 C152.9927,137.6905 154.7677,138.0475 153.9827,135.8025 C153.2657,133.7515 153.6417,114.1985 153.6417,111.0905 C156.9457,111.0905 160.2547,111.1085 163.5587,111.0885 C164.7267,111.0815 167.3977,110.9205 168.3767,111.2285 C170.5227,111.9045 168.8077,113.1375 169.9837,111.6725 C170.8587,110.5825 177.1187,100.4475 177.4317,99.1975 L177.4317,99.1975 Z" id="Fill-7" fill="#F48266"></path>
                <path d="M913.8973,111.0918 L915.8783,111.0918 L915.8783,128.9328 C915.8783,130.4318 915.2953,130.3028 913.8973,130.4198 L913.8973,111.0918 Z M901.5123,100.6848 L901.9973,100.6848 L915.2283,100.6378 L915.3813,102.6718 L915.3833,110.0998 L892.1613,110.0598 L887.3603,102.4068 C886.4653,100.9538 886.5903,102.1578 886.1773,100.5188 L901.5123,100.6848 Z M913.8973,77.3908 C915.2953,77.5058 915.8783,77.3788 915.8783,78.8778 L915.8783,98.7008 C915.8783,100.1998 915.2953,100.0718 913.8973,100.1878 L913.8973,77.3908 Z M908.4443,136.8628 L910.4273,140.8648 L916.3743,140.8278 L916.3743,73.9218 L876.2303,73.9208 C868.1433,73.8968 868.5603,72.7558 871.2753,77.8858 C873.3993,77.2298 905.1583,76.9928 909.2713,77.5558 C909.7383,80.9718 909.4363,86.1668 909.4363,89.7808 C909.4363,97.8338 910.5873,99.8398 907.5023,100.2378 C904.8193,100.5828 898.1843,100.1878 895.0643,100.1878 C887.5243,100.1878 887.3313,101.1458 884.4993,98.9498 L892.5853,111.5878 C892.6633,111.6148 906.1513,111.0918 909.4363,111.0918 L909.4423,131.9158 C909.4653,134.5488 910.1803,137.5408 908.4443,136.8628 L908.4443,136.8628 Z" id="Fill-9" fill="#F48266"></path>
                <path d="M232.9384,111.0918 L251.7714,111.0918 L251.3564,140.5918 L232.9384,111.0918 Z M225.4984,100.6848 L251.5574,100.4468 L251.2754,102.1708 C251.2754,111.1108 254.1074,110.1148 244.3364,110.0998 C239.2164,110.0928 234.0944,110.0998 228.9734,110.0998 C227.6794,109.4788 225.5374,105.5578 225.0084,104.1548 C223.9434,103.4058 224.3564,104.0748 224.0224,102.6618 L222.6934,100.8308 L225.4984,100.6848 Z M226.9914,100.1908 C225.0824,100.1908 220.2734,91.0488 219.0994,89.2248 C217.7174,87.0778 212.5974,79.4378 212.1214,77.3878 L251.7734,77.3878 L251.7404,100.1908 L226.9914,100.1908 Z M205.1844,73.9218 C208.3224,79.8918 212.1464,85.1548 215.5664,90.7968 L246.8154,140.7988 L252.2664,140.9928 L252.2664,73.9218 L205.1844,73.9218 Z" id="Fill-11" fill="#F48266"></path>
                <path d="M810.8104,111.0918 L830.1394,111.0918 C827.5504,115.9838 823.9144,121.0758 820.8454,126.0748 C819.2274,128.7108 813.3444,139.8628 810.8104,140.3318 L810.8104,111.0918 Z M838.0654,103.1588 L834.1044,110.0998 L810.8584,110.0998 L810.8104,107.1268 L810.8134,100.6868 L817.2594,100.6848 L817.7444,100.6848 L839.5534,100.6868 C839.1314,102.4938 839.2844,102.2718 838.0654,103.1588 L838.0654,103.1588 Z M810.8104,77.3878 L850.9564,77.3878 C850.3514,79.9948 837.6904,100.1908 836.0944,100.1908 L810.8084,100.1908 L810.8104,77.3878 Z M856.9024,73.9218 L810.2164,73.9218 L810.3154,140.8278 L815.7564,140.8218 L856.9024,73.9218 Z" id="Fill-13" fill="#F48266"></path>
                <path d="M921.3309,122.4902 L921.3309,111.0912 L928.7649,111.0912 C926.8309,113.9792 923.4359,120.4832 921.3309,122.4902 L921.3309,122.4902 Z M934.5479,110.0682 L921.3309,110.1002 L921.3329,103.1672 L921.3339,100.6272 L933.7269,100.6442 L934.7069,100.6842 L940.1609,100.6862 C938.7099,103.4972 936.2139,107.3562 934.5479,110.0682 L934.5479,110.0682 Z M921.3309,77.3902 L949.5809,77.3902 C949.0469,79.4762 944.0829,86.6022 942.5199,89.1482 C941.3499,91.0592 936.4199,100.1882 934.7129,100.1882 L921.3309,100.1882 L921.3309,77.3902 Z M923.8089,127.9422 L922.9549,127.6962 L923.8089,126.9502 C925.5339,126.5002 949.2099,88.9572 952.7609,82.0662 C958.9069,72.1252 960.2469,73.9212 945.6149,73.9212 L920.8359,73.9212 L920.8359,128.6012 L923.8089,127.9422 Z" id="Fill-15" fill="#F48266"></path>
                <path d="M859.6278,112.6674 C859.7018,111.4124 859.5738,111.8644 860.3718,111.0914 L859.8758,145.7844 L859.6278,112.6674 Z M844.0178,102.1764 C844.1808,102.0214 844.4988,101.6864 844.7148,101.3824 C845.7818,99.8794 844.2318,102.7664 845.0108,100.6804 L859.8958,100.6864 L859.8728,103.6674 L860.2078,110.0784 L839.5558,110.1004 C840.1828,107.4094 843.0328,105.0374 844.0178,102.1764 L844.0178,102.1764 Z M859.6348,84.3784 C859.6368,83.1714 859.6438,83.5474 860.3718,82.8424 L859.8758,100.1874 L859.8548,86.2984 C859.7738,84.7454 859.6338,85.3994 859.6348,84.3784 L859.6348,84.3784 Z M845.5038,99.1964 L838.0688,111.0914 L854.9198,111.0914 L854.9188,145.5964 L816.4628,145.5964 L815.5518,146.3634 L861.4298,146.3624 L860.8668,79.3724 C857.2368,79.3724 857.6588,79.2004 856.0788,81.5414 C854.3758,84.0624 854.6258,83.4114 854.8408,86.3154 C855.1608,90.6334 854.9198,95.7774 854.9198,100.1874 L845.5038,99.1964 Z" id="Fill-17" fill="#F48266"></path>
                <path d="M134.3129,111.0918 L141.2519,111.0918 L141.2519,121.4998 C139.7209,120.3768 135.7609,113.2538 134.3129,111.0918 L134.3129,111.0918 Z M124.3969,100.6848 L136.7909,100.6848 L137.2919,100.6828 L140.7529,100.6368 L140.7579,104.1468 L140.7629,110.1028 L128.0329,110.0688 C126.9679,108.7048 123.3109,102.5808 122.4169,100.6818 L124.3969,100.6848 Z M113.4979,77.3908 L127.8709,77.3908 C130.7109,77.3908 141.2519,76.2728 141.2519,78.8778 L141.2519,100.1878 L128.3659,100.1878 C126.4609,100.1878 114.8909,80.2138 113.4979,77.3908 L113.4979,77.3908 Z M108.0459,78.8778 L107.7629,77.4558 L108.3119,77.2228 L122.2349,99.3128 L120.7839,100.3398 L128.3659,111.5878 L129.8389,111.0218 L140.0929,127.7788 L138.2789,127.4468 C138.9409,129.0878 139.1689,128.4378 141.7469,128.4378 L141.7469,73.9218 L105.0729,73.9218 L108.0459,78.8778 Z" id="Fill-19" fill="#F48266"></path>
                <mask id="mask-2" fill="white">
                    <use xlink:href="#path-1"></use>
                </mask>
                <g id="Clip-22"></g>
                <path d="M202.212,145.784 L203.203,145.784 L203.203,111.092 L202.212,111.092 L202.212,145.784 Z M202.212,109.109 L202.214,100.68 L208.165,100.685 L209.143,100.685 L217.817,100.441 C217.98,101.801 218.042,101.808 218.565,102.672 C219.631,104.871 222.151,107.775 223.026,110.1 L212.124,110.1 C209.915,110.1 202.974,111.094 202.212,109.109 L202.212,109.109 Z M202.212,100.188 L203.203,100.188 L203.203,82.842 L202.212,82.842 L202.212,100.188 Z M245.328,144.791 L245.328,145.784 L208.159,145.784 L208.159,111.092 C213.111,111.092 221.813,109.942 225.009,112.083 L217.398,99.426 C216.265,98.302 217.325,99.089 216.922,99.336 C213.812,101.242 218.783,98.833 216.256,99.934 C214.529,100.686 210.297,100.188 208.159,100.188 C208.159,95.577 208.086,91.003 208.364,86.479 C208.502,84.233 207.907,84.203 206.568,81.952 C205.028,79.361 205.579,79.373 201.716,79.373 L201.716,146.28 L246.32,146.331 L245.328,144.791 Z" id="Fill-21" fill="#F48266" mask="url(#mask-2)"></path>
                <path d="M360.8041,140.3315 C358.7311,140.3315 342.7081,113.2505 340.2971,109.2815 C337.0871,103.9945 321.3411,80.3155 320.6601,77.3905 L362.2911,77.3905 L362.2911,140.3315 L360.8041,140.3315 Z M315.8231,74.1545 L357.3351,140.8275 L362.9131,140.8275 L362.7861,73.9215 L315.8231,74.1545 Z" id="Fill-23" fill="#F48266" mask="url(#mask-2)"></path>
                <path d="M356.3436,145.2885 L316.6956,145.7845 L316.6946,89.2835 C316.6846,86.6335 315.9276,82.6505 317.6866,83.3385 C316.9436,80.1495 315.9336,79.3735 312.2346,79.3735 L312.2346,146.3455 L357.4586,146.3375 L356.3436,145.2885 Z" id="Fill-24" fill="#F48266" mask="url(#mask-2)"></path>
                <path d="M160.7465,145.6176 C164.3595,140.6466 168.2065,133.6926 171.6905,128.1546 C184.5885,107.6536 178.7555,111.0916 196.2645,111.0916 L196.2645,145.7836 C189.2985,145.7896 165.9415,146.1096 160.7465,145.6176 L160.7465,145.6176 Z M179.9085,103.2426 C180.3965,101.3016 180.4025,102.5536 180.9035,100.6866 C184.5405,100.5026 188.1745,100.7236 191.8085,100.6066 C197.7225,100.4156 196.2565,101.1296 196.2625,107.1326 L196.0985,110.0886 L175.6125,109.9356 C176.4225,108.3776 178.7825,104.0956 179.9085,103.2426 L179.9085,103.2426 Z M189.4885,100.0256 C190.6455,98.2036 191.4515,96.7106 192.7295,94.6916 L196.2645,89.2846 L196.2645,100.1876 L189.4885,100.0256 Z M193.2905,80.3636 L196.2645,80.3636 C196.2645,84.7126 193.3625,87.7686 191.4045,90.8646 C189.3985,94.0386 187.3335,97.2056 185.3605,100.1876 L181.4225,100.1986 L181.8915,98.7006 L173.4665,112.2476 C175.3645,110.6336 175.1245,111.0916 178.5995,111.2016 L159.0945,142.3146 L155.1565,142.3246 L155.6245,140.8276 L152.1545,146.4016 L197.1415,146.2786 L196.7595,79.3726 C194.1805,79.3726 193.9525,78.7216 193.2905,80.3636 L193.2905,80.3636 Z" id="Fill-25" fill="#F48266" mask="url(#mask-2)"></path>
                <path d="M269.2802,145.6206 C275.7292,136.6826 281.6222,125.7566 288.0972,115.7126 C291.0332,111.1586 304.7902,87.2086 307.2802,86.3086 L307.2782,145.7856 L271.0962,145.8186 L269.2802,145.6206 Z M303.3132,81.3546 L306.4982,80.4956 L267.6212,142.3836 L262.6742,146.3306 L307.7742,146.2796 C307.7742,126.8586 307.3682,103.0176 307.8032,83.8036 C307.9182,78.7216 308.4782,79.3726 303.8702,79.3916 L303.3132,81.3546 Z" id="Fill-26" fill="#F48266" mask="url(#mask-2)"></path>
                <path d="M865.8231,111.0918 C884.5551,111.0918 878.3861,107.5548 891.3901,128.1548 C894.8361,133.6148 898.6801,140.5898 902.3331,145.6198 C898.0701,145.6058 872.2551,145.6028 865.8231,145.5968 L865.8231,111.0918 Z M866.3201,104.1598 L866.3221,100.6638 L878.7181,100.6868 L880.6851,100.6848 L881.6261,100.7038 L887.1341,110.0998 L866.3121,110.0998 L866.3201,104.1598 Z M873.7531,100.1878 C867.0371,100.1878 866.0761,101.1218 865.7721,98.2558 C865.5941,96.5718 865.7541,90.1778 865.9881,88.4588 C867.8521,89.8128 872.2371,97.7008 873.7531,100.1878 L873.7531,100.1878 Z M907.9751,142.3408 C906.7721,142.4068 905.9561,142.3148 903.9841,142.3148 C901.3611,137.7858 885.2091,113.1458 884.7221,111.3238 L888.6421,111.3668 L881.1871,99.6928 C879.8151,100.0158 879.6191,99.8708 877.7181,100.1878 C875.1431,96.2968 866.7231,84.2278 865.8231,80.3638 C868.7111,80.3638 868.0401,80.1848 869.7871,81.3548 L869.2311,79.3918 C864.5771,79.3728 865.2061,78.7308 865.3071,83.8128 C865.6981,103.3298 865.3271,126.6768 865.3271,146.3638 L910.4271,146.3378 L907.9751,142.3408 Z" id="Fill-27" fill="#F48266" mask="url(#mask-2)"></path>
                <path d="M483.7133,140.3315 L479.7483,140.3315 L479.7483,77.3905 L522.3703,77.3905 L522.3703,78.3815 C523.1333,77.8225 525.0663,74.9585 525.3443,73.9215 L478.2613,73.9215 L478.2613,140.8275 C480.3923,140.6655 482.4503,141.0535 483.7133,140.3315" id="Fill-28" fill="#F48266" mask="url(#mask-2)"></path>
                <path d="M486.6874,145.7837 C487.2324,143.7447 503.7254,118.2967 506.3884,113.9477 C509.7424,108.4667 512.9744,103.3977 516.3274,98.1137 C518.1174,95.2907 519.5554,93.1657 521.3194,90.2267 C524.6384,84.7017 524.7824,82.8427 528.3174,82.8427 L528.3174,145.7837 L486.6874,145.7837 Z M528.8124,79.3727 C524.9274,79.3727 525.5174,79.3857 523.9404,81.9357 L515.9524,94.7607 C512.8584,99.8837 485.0864,143.6457 484.0434,146.3287 L528.8124,146.2787 L528.8124,79.3727 Z" id="Fill-29" fill="#F48266" mask="url(#mask-2)"></path>
                <path d="M466.7816,138.4301 L467.8626,140.8241 L473.8006,140.8271 L473.8676,76.8221 C473.8616,73.2031 473.7306,73.8061 469.8726,73.8871 L426.7196,73.9211 L428.5176,77.4991 C431.6746,76.5831 451.7556,77.3901 456.9516,77.3901 C476.9666,77.3901 472.8496,74.3311 473.1376,88.7661 L473.1416,140.1671 C467.0646,140.9921 469.3306,139.8611 466.7816,138.4301" id="Fill-30" fill="#F48266" mask="url(#mask-2)"></path>
                <path d="M466.3676,144.2973 L466.8636,145.7843 L425.2326,145.7843 L425.2326,82.8423 C427.7156,82.8423 427.2466,82.8583 428.7016,83.8333 C428.2116,81.9973 427.2156,81.5023 426.7196,79.3733 L422.7546,79.3733 L422.7546,146.3433 L467.9386,146.2233 L466.3676,144.2973 Z" id="Fill-31" fill="#F48266" mask="url(#mask-2)"></path>
                <path d="M153.0306,164.0639 L166.8476,168.2039 C168.7006,168.7399 170.0556,169.2479 171.8146,169.6789 L176.6896,187.6729 C177.6566,191.0869 178.1636,193.7469 179.1236,197.1209 C179.8456,199.6579 181.3366,204.1109 181.3956,206.7429 C175.7706,206.7429 170.1926,205.8259 164.5666,205.7349 C163.1406,205.7109 161.5836,205.5649 160.1826,205.4509 C150.1776,204.6419 152.9876,205.7399 153.0286,199.8059 C153.1116,187.7569 153.0306,176.1159 153.0306,164.0639 L153.0306,164.0639 Z M152.0396,204.2639 C152.0396,206.3329 152.8116,205.7469 154.9826,205.7809 C157.5716,205.8209 159.8736,206.1119 162.5716,206.2389 C169.1946,206.5539 175.8796,207.3699 182.3866,207.7339 C182.3156,204.5269 172.7426,172.2339 172.4756,169.0199 C168.7576,168.1539 165.0026,166.9769 161.2226,165.9059 C156.2056,164.4839 152.0396,161.9999 152.0396,164.5589 L152.0396,204.2639 Z" id="Fill-32" fill="#F48266" mask="url(#mask-2)"></path>
                <path d="M153.0306,208.2299 L177.5886,209.5399 C183.4966,209.4749 181.5386,211.0539 182.4196,209.2609 C175.1566,209.0989 166.9526,208.2219 159.6016,207.7209 C148.3016,207.7159 152.8586,205.2889 152.2006,213.7639 L152.0276,233.5229 C152.1446,238.1409 151.8716,258.2909 152.5356,260.2679 L157.1106,260.2679 L162.7316,248.5409 C165.2666,243.6209 163.9416,245.4049 163.7396,244.9969 L156.6146,259.2769 L153.0306,259.2769 L153.0306,208.2299 Z" id="Fill-33" fill="#F48266" mask="url(#mask-2)"></path>
                <path d="M77.8368,119.5385 C76.6728,119.5315 75.5108,119.5165 74.3458,119.5165 C74.3458,118.5545 74.2068,116.2695 74.3008,115.4815 C74.5528,113.3565 73.7308,114.1155 75.8328,114.5605 C75.0588,113.5055 75.7948,113.9165 74.3458,113.5695 L74.3458,106.1345 C78.3968,106.1345 81.9718,106.0705 85.3308,106.5485 L94.6648,106.1345 L94.6648,110.1005 C93.5138,110.1005 91.3408,110.2605 90.3278,109.9765 C88.3388,108.0905 88.4368,108.2205 87.7268,108.6135 C88.7058,110.0755 93.1028,113.5145 94.6648,114.5605 L94.6648,119.5165 C89.7558,119.6465 82.2148,119.0665 77.8368,119.5385 L77.8368,119.5385 Z M73.8498,120.5075 L94.1688,120.5075 C95.3108,120.5075 95.6568,120.1625 95.6568,119.0205 L95.6568,106.6315 C95.6568,105.4885 95.3108,105.1435 94.1688,105.1435 L73.8498,105.1435 L73.8498,120.5075 Z" id="Fill-34" fill="#F48266" mask="url(#mask-2)"></path>
                <path d="M80.293,160.157 L94.665,160.157 L94.665,148.262 L80.293,148.262 L80.293,160.157 Z M74.346,154.705 L79.797,154.705 L79.797,159.165 C79.797,160.308 79.452,160.652 78.309,160.652 L74.346,160.652 L74.346,154.705 Z M74.347,153.224 C74.35,150.594 74.371,150.297 74.844,148.265 L79.299,148.265 L79.299,150.253 L79.301,154.208 L74.345,154.208 L74.347,153.224 Z M74.346,147.766 L94.666,147.766 L94.666,146.775 L74.346,146.775 L74.346,147.766 Z M73.864,161.147 L95.657,161.147 L95.657,146.28 L73.602,146.28 L73.864,161.147 Z" id="Fill-35" fill="#F48266" mask="url(#mask-2)"></path>
                <path d="M74.3456,85.8154 L94.6656,85.8154 L94.6656,99.1974 L81.7796,99.1974 C80.5726,99.1974 74.9456,94.5034 74.3456,93.2494 L74.3456,92.2594 L74.3456,85.8154 Z M73.8496,99.6924 L95.6566,99.6924 L95.6566,86.3114 C95.6566,84.9584 95.5216,84.8244 94.1696,84.8244 L73.8496,84.8244 L73.8496,99.6924 Z" id="Fill-36" fill="#F48266" mask="url(#mask-2)"></path>
                <path d="M80.293,221.611 L94.665,221.611 L94.665,208.23 L80.293,208.23 L80.293,221.611 Z M74.508,207.897 C79.93,207.908 79.891,206.8 79.809,212.182 C79.764,215.318 79.797,218.474 79.797,221.611 L74.33,221.611 L74.508,207.897 Z M73.849,222.107 L95.657,222.107 L95.657,208.726 C95.657,207.374 95.52,207.238 94.17,207.238 L73.849,207.238 L73.849,222.107 Z" id="Fill-37" fill="#F48266" mask="url(#mask-2)"></path>
                <path d="M80.2928,187.9096 L94.6648,187.9096 L94.6648,201.2906 L82.2718,201.3236 L80.4148,201.1326 L80.2928,199.3096 L80.2928,187.9096 Z M74.3458,201.2906 L79.7968,201.2906 L79.7968,187.4146 L74.3458,187.4146 L74.3458,201.2906 Z M73.8498,201.7866 L95.6568,201.7866 L95.6568,186.9186 L73.8498,186.9186 L73.8498,201.7866 Z" id="Fill-38" fill="#F48266" mask="url(#mask-2)"></path>
                <path d="M94.1693,129.4292 C95.2743,131.7312 94.6653,136.6652 94.6653,139.8362 L74.3453,139.8362 L74.3453,126.4552 L94.6653,126.4552 C94.6653,128.1352 94.8203,128.4032 94.1693,129.4292 L94.1693,129.4292 Z M73.8493,140.8272 L94.1693,140.8272 C96.0863,140.8272 95.6723,140.2532 95.7033,138.4052 C95.7253,137.1212 95.6573,135.6962 95.6563,134.3852 C95.6543,131.5762 95.6563,128.7682 95.6563,125.9602 L73.8493,125.7962 L73.8493,140.8272 Z" id="Fill-39" fill="#F48266" mask="url(#mask-2)"></path>
                <path d="M74.346,180.972 L79.797,180.972 L79.797,167.095 L74.346,167.095 L74.346,180.972 Z M94.501,180.807 C92.652,180.991 81.65,181.279 80.766,180.483 C80.026,179.816 80.244,178.989 80.256,177.54 L80.457,167.162 L94.68,167.095 L94.501,180.807 Z M73.849,181.467 L95.656,181.467 L95.656,166.599 L73.849,166.599 L73.849,181.467 Z" id="Fill-40" fill="#F48266" mask="url(#mask-2)"></path>
                <path d="M111.021,212.691 L118.455,212.691 L118.455,211.699 L111.021,211.699 L111.021,212.691 Z M110.03,212.195 C110.03,214.616 112.866,213.351 114.49,213.351 C118.125,213.351 118.95,215.343 118.95,210.707 C111.922,210.707 110.03,209.884 110.03,212.195 L110.03,212.195 Z" id="Fill-41" fill="#F48266" mask="url(#mask-2)"></path>
                <path d="M165.9501,240.8569 C166.4541,240.4089 166.1691,240.8299 166.6851,240.1049 C168.7931,237.1399 178.9171,215.3079 179.0011,214.7549 L165.9501,240.8569 Z" id="Fill-42" fill="#F48266" mask="url(#mask-2)"></path>
                <path d="M87.7264,108.6132 C87.5784,107.6242 88.6624,108.3582 86.9154,107.1432 C85.6634,105.8862 86.1724,106.7412 85.3304,106.5482 C86.0964,107.6432 86.0604,107.4022 87.7264,108.6132" id="Fill-43" fill="#F48266" mask="url(#mask-2)"></path>
                <path d="M53.0345,96.2231 C52.1655,94.9251 52.7835,95.1991 51.0515,94.7361 C51.9215,96.0351 51.3025,95.7611 53.0345,96.2231" id="Fill-44" fill="#F48266" mask="url(#mask-2)"></path>
                <path d="M179.0004,214.7553 C179.2214,214.5553 179.6674,214.5013 179.8264,213.6463 C180.1574,211.8703 179.2284,213.1853 179.0004,214.7553" id="Fill-45" fill="#F48266" mask="url(#mask-2)"></path>
                <path d="M127.3749,156.1919 C126.6379,155.1069 127.2809,155.5779 125.8879,155.0379 C126.6169,156.3169 125.8709,155.7759 127.3749,156.1919" id="Fill-46" fill="#F48266" mask="url(#mask-2)"></path>
                <path d="M881.1874,99.6928 C880.8764,98.3588 881.0934,98.8328 880.1964,98.0418 C880.5374,99.7028 880.0254,98.8268 881.1874,99.6928" id="Fill-47" fill="#F48266" mask="url(#mask-2)"></path>
                <path d="M356.3436,145.2885 C356.0046,143.8745 356.4186,144.5425 355.3526,143.8015 C355.6916,145.2155 355.2766,144.5465 356.3436,145.2885" id="Fill-48" fill="#F48266" mask="url(#mask-2)"></path>
                <path d="M908.4442,136.8628 C908.1062,135.4498 908.5202,136.1178 907.4542,135.3768 C907.8012,136.8248 907.3892,136.0908 908.4442,136.8628" id="Fill-49" fill="#F48266" mask="url(#mask-2)"></path>
                <path d="M939.1727,111.5874 C938.1067,112.3284 938.5197,111.6594 938.1807,113.0734 C939.2767,112.3124 938.7977,112.9924 939.1727,111.5874" id="Fill-50" fill="#F48266" mask="url(#mask-2)"></path>
                <polygon id="Fill-51" fill="#F48266" mask="url(#mask-2)" points="962.87 74.6342 921.235 140.8222 920.206 140.8222 962.13 74.1692"></polygon>
                <polygon id="Fill-52" fill="#F48266" mask="url(#mask-2)" points="871.3358 76.7495 911.4048 140.6455 910.3588 140.8645 869.5938 74.9395"></polygon>
                <polygon id="Fill-53" fill="#F48266" mask="url(#mask-2)" points="868.9091 79.2392 911.1881 146.3492 909.6171 146.3192 868.1661 79.7012"></polygon>
                <polygon id="Fill-54" fill="#F48266" mask="url(#mask-2)" points="1007.8055 98.9897 946.7455 147.5707 944.9825 147.9317 1007.6345 97.4107"></polygon>
                <path d="M19.0917,79.7851 C16.0207,79.7851 13.2377,81.0311 11.2237,83.0451 L11.2217,83.0451 C9.2087,85.0591 7.9627,87.8411 7.9627,90.9141 C7.9627,93.9871 9.2087,96.7691 11.2217,98.7831 C13.2367,100.7981 16.0197,102.0431 19.0917,102.0431 C22.1637,102.0431 24.9477,100.7981 26.9607,98.7831 L26.9607,98.7821 C28.9747,96.7681 30.2207,93.9851 30.2207,90.9141 C30.2207,87.8431 28.9747,85.0601 26.9607,83.0461 L26.9597,83.0451 C24.9457,81.0311 22.1637,79.7851 19.0917,79.7851 L19.0917,79.7851 Z M11.8407,83.6631 C13.6957,81.8091 16.2597,80.6611 19.0917,80.6611 C21.9237,80.6611 24.4877,81.8091 26.3427,83.6631 C28.1967,85.5181 29.3447,88.0821 29.3447,90.9141 C29.3447,93.7461 28.1967,96.3101 26.3427,98.1651 L26.3417,98.1641 C24.4867,100.0191 21.9237,101.1671 19.0917,101.1671 C16.2607,101.1671 13.6967,100.0191 11.8417,98.1641 C9.9867,96.3091 8.8387,93.7451 8.8387,90.9141 C8.8387,88.0831 9.9867,85.5191 11.8417,83.6641 L11.8407,83.6631 Z" id="Fill-55" fill="#F48266" mask="url(#mask-2)"></path>
                <polygon id="Fill-56" fill="#F48266" mask="url(#mask-2)" points="859.251 145.596 861.44 145.596 861.44 79.723 859.251 79.723"></polygon>
                <polygon id="Fill-57" fill="#F48266" mask="url(#mask-2)" points="857.8885 80.1909 816.6095 146.3639 814.9485 146.3639 856.9635 79.6099"></polygon>
                <polygon id="Fill-58" fill="#F48266" mask="url(#mask-2)" points="855.5126 76.4946 815.8066 140.7656 813.3096 140.8726 854.5886 75.9136"></polygon>
                <polygon id="Fill-59" fill="#F48266" mask="url(#mask-2)" points="865.564 111.331 880.696 111.331 880.696 110.537 865.564 110.537"></polygon>
                <polygon id="Fill-60" fill="#F48266" mask="url(#mask-2)" points="865.564 100.473 880.696 100.473 880.696 99.678 865.564 99.678"></polygon>
                <polygon id="Fill-61" fill="#F48266" mask="url(#mask-2)" points="885.562 100.473 915.724 100.473 915.724 99.678 885.562 99.678"></polygon>
                <polygon id="Fill-62" fill="#F48266" mask="url(#mask-2)" points="885.9618 99.0991 915.8298 99.0991 916.2618 99.0991 916.2618 99.5371 916.2618 100.1991 916.2618 100.6371 915.8298 100.6371 885.9618 100.6371 885.5288 100.6371 885.5288 100.1991 885.5288 99.5371 884.9668 99.0991"></polygon>
                <polygon id="Fill-63" fill="#F48266" mask="url(#mask-2)" points="938.2147 154.1626 938.2727 239.2286 936.0837 239.2286 936.0837 156.3776 935.6767 155.7896"></polygon>
                <polygon id="Fill-64" fill="#F48266" mask="url(#mask-2)" points="938.842 154.8 1007.694 154.8 1007.694 152.611 938.842 152.611"></polygon>
                <polygon id="Fill-65" fill="#F48266" mask="url(#mask-2)" points="1000.954 148.7661 944.129 148.7661 945.989 147.0331 1000.954 147.0901"></polygon>
                <polygon id="Fill-66" fill="#F48266" mask="url(#mask-2)" points="800.7294 74.1206 805.0874 74.5566 805.0874 141.0256 800.7294 141.0256"></polygon>
                <polygon id="Fill-67" fill="#F48266" mask="url(#mask-2)" points="428.413 77.499 472.148 77.499 472.148 74.12 428.413 74.12"></polygon>
                <polygon id="Fill-68" fill="#F48266" mask="url(#mask-2)" points="317.1732 82.1137 357.6222 146.3627 355.6372 146.3627 315.7832 81.9547 316.3312 82.1397"></polygon>
                <path d="M423.8719,82.8423 C427.8919,82.8423 426.8799,83.1343 431.3699,90.2313 L446.2689,113.9713 C449.7629,119.4753 452.7459,124.2153 456.2089,129.8043 C457.6829,132.1823 465.5489,144.1033 465.9969,145.7843 L423.8719,145.7843 L423.8719,82.8423 Z M422.8799,146.2793 L468.4179,146.3293 C466.7749,142.0203 427.6559,82.5493 426.8449,79.3733 C421.6029,79.3733 422.8799,78.1393 422.8799,92.7543 L422.8799,146.2793 Z" id="Fill-69" fill="#F48266" mask="url(#mask-2)"></path>
                <polygon id="Fill-70" fill="#F48266" mask="url(#mask-2)" points="523.6459 76.6015 483.4689 140.8255 481.8069 140.8255 522.7219 76.0205"></polygon>
                <polygon id="Fill-71" fill="#F48266" mask="url(#mask-2)" points="478.2723 139.518 483.9633 139.518 483.2093 140.825 478.2723 140.825"></polygon>
                <polygon id="Fill-72" fill="#F48266" mask="url(#mask-2)" points="467.98 140.825 473.671 140.825 473.671 139.518 467.98 139.518"></polygon>
                <polygon id="Fill-73" fill="#F48266" mask="url(#mask-2)" points="412.6776 77.499 378.6466 131.286 378.6466 128.746 411.6466 76.567"></polygon>
                <polygon id="Fill-74" fill="#F48266" mask="url(#mask-2)" points="367.308 140.824 372.862 140.824 372.862 139.291 367.308 139.291"></polygon>
                <polygon id="Fill-75" fill="#F48266" mask="url(#mask-2)" points="358.118 140.824 362.854 140.824 362.854 139.291 358.118 139.291"></polygon>
                <polygon id="Fill-76" fill="#F48266" mask="url(#mask-2)" points="427.3285 73.9087 469.0005 140.8247 467.8195 140.8247 426.4845 74.0227 426.4865 73.9347"></polygon>
                <polygon id="Fill-77" fill="#F48266" mask="url(#mask-2)" points="373.831 146.363 385.727 146.363 385.727 145.774 373.831 145.774"></polygon>
                <polygon id="Fill-78" fill="#F48266" mask="url(#mask-2)" points="302.0941 77.499 262.3831 140.825 262.3831 138.288 301.0621 76.567"></polygon>
                <polygon id="Fill-79" fill="#F48266" mask="url(#mask-2)" points="306.769 145.774 307.864 145.774 307.864 80.683 306.769 80.683"></polygon>
                <polygon id="Fill-80" fill="#F48266" mask="url(#mask-2)" points="361.81 140.825 362.904 140.825 362.904 74 361.81 74"></polygon>
                <polygon id="Fill-81" fill="#F48266" mask="url(#mask-2)" points="417.105 146.363 418.199 146.363 418.199 79.538 417.105 79.538"></polygon>
                <polygon id="Fill-82" fill="#F48266" mask="url(#mask-2)" points="378.747 146.363 379.842 146.363 379.842 0 378.747 0"></polygon>
                <polygon id="Fill-83" fill="#F48266" mask="url(#mask-2)" points="379.841 77.499 389.335 77.499 389.335 74.167 379.841 74.167"></polygon>
                <polygon id="Fill-84" fill="#F48266" mask="url(#mask-2)" points="304.9335 80.8403 263.3735 145.7733 263.3735 143.2353 303.9025 79.9083"></polygon>
                <polygon id="Fill-85" fill="#F48266" mask="url(#mask-2)" points="251.054 140.825 252.149 140.825 252.149 74.669 251.054 74.669"></polygon>
                <polygon id="Fill-86" fill="#F48266" mask="url(#mask-2)" points="206.4237 82.1137 246.8717 146.3627 244.8867 146.3627 205.0337 81.9547 205.5817 82.1397"></polygon>
                <polygon id="Fill-87" fill="#F48266" mask="url(#mask-2)" points="193.8768 73.9726 151.9678 140.8246 151.9678 138.2866 192.3758 73.9906"></polygon>
                <polygon id="Fill-88" fill="#F48266" mask="url(#mask-2)" points="195.0775 79.9277 153.3445 146.3627 151.7595 146.3627 193.6795 79.7277"></polygon>
                <polygon id="Fill-89" fill="#F48266" mask="url(#mask-2)" points="112.795 77.499 140.733 77.499 140.733 73.991 112.795 73.991"></polygon>
                <polygon id="Fill-90" fill="#F48266" mask="url(#mask-2)" points="140.185 127.795 141.28 127.795 141.28 73.991 140.185 73.991"></polygon>
                <polygon id="Fill-91" fill="#F48266" mask="url(#mask-2)" points="145.454 140.825 146.548 140.825 146.548 73.991 145.454 73.991"></polygon>
                <polygon id="Fill-92" fill="#F48266" mask="url(#mask-2)" points="206.9564 74.1508 247.4044 138.3988 245.4194 138.3988 205.5664 73.9918 206.1144 74.1768"></polygon>
                <polygon id="Fill-93" fill="#F48266" mask="url(#mask-2)" points="106.0394 74.1508 146.4874 138.3988 145.8084 140.4038 104.6504 73.9918 105.1984 74.1768"></polygon>
                <polygon id="Fill-94" fill="#F48266" mask="url(#mask-2)" points="99.8969 74.1508 141.8369 140.8248 139.8519 140.8248 98.5069 73.9918 99.0549 74.1768"></polygon>
                <polygon id="Fill-95" fill="#F48266" mask="url(#mask-2)" points="140.9432 140.7055 138.9572 140.7055 138.9572 145.7735 138.0812 145.7735 138.0812 140.2685 138.0812 139.8295 138.5192 139.8295 140.9432 139.8295"></polygon>
                <polygon id="Fill-96" fill="#F48266" mask="url(#mask-2)" points="989.102 147.405 995.011 147.405 995.011 0.431 989.102 0.431"></polygon>
                <polygon id="Fill-97" fill="#F48266" mask="url(#mask-2)" points="1049.419 60.255 1053.605 60.255 1053.605 0.431 1049.419 0.431"></polygon>
                <path d="M1042.9716,106.7241 C1046.2176,106.7241 1049.1576,108.0391 1051.2846,110.1641 C1053.4116,112.2891 1054.7286,115.2271 1054.7286,118.4701 C1054.7286,118.7091 1054.7216,118.9471 1054.7066,119.1821 L1053.8286,119.1821 C1053.8446,118.9471 1053.8526,118.7091 1053.8526,118.4701 C1053.8526,115.4681 1052.6346,112.7501 1050.6646,110.7831 C1048.6966,108.8161 1045.9766,107.5991 1042.9716,107.5991 C1039.9676,107.5991 1037.2456,108.8161 1035.2776,110.7831 C1033.3096,112.7501 1032.0906,115.4681 1032.0906,118.4701 C1032.0906,118.7091 1032.0986,118.9471 1032.1136,119.1821 L1031.2366,119.1821 C1031.2216,118.9471 1031.2136,118.7091 1031.2136,118.4701 C1031.2136,115.2271 1032.5316,112.2891 1034.6586,110.1641 C1036.7846,108.0391 1039.7256,106.7241 1042.9716,106.7241" id="Fill-98" fill="#F48266" mask="url(#mask-2)"></path>
                <polygon id="Fill-99" fill="#F48266" mask="url(#mask-2)" points="13.9 13.427 65.105 13.427 65.105 11.237 13.9 11.237"></polygon>
                <path d="M38.7616,84.3344 L65.2066,105.4124 L65.2066,107.0934 L37.9396,85.3554 L38.7616,84.3344 Z M98.5776,132.3394 L119.5786,149.1934 L118.7566,150.2144 L98.5776,134.0204 L98.5776,132.3394 Z" id="Fill-100" fill="#F48266" mask="url(#mask-2)"></path>
                <polygon id="Fill-101" fill="#F48266" mask="url(#mask-2)" points="184.7006 211.4155 157.9436 266.2735 157.4966 262.8385 184.5396 209.1865"></polygon>
                <path d="M18.8763,106.5493 C15.6303,106.5493 12.6903,107.8653 10.5633,109.9923 C8.4363,112.1193 7.1193,115.0593 7.1193,118.3063 C7.1193,118.5453 7.1263,118.7833 7.1413,119.0193 L8.0183,119.0193 C8.0033,118.7833 7.9953,118.5453 7.9953,118.3063 C7.9953,115.3013 9.2143,112.5803 11.1823,110.6123 C13.1513,108.6433 15.8723,107.4253 18.8763,107.4253 C21.8813,107.4253 24.6013,108.6433 26.5703,110.6123 C28.5393,112.5803 29.7573,115.3013 29.7573,118.3063 C29.7573,118.5453 29.7493,118.7833 29.7343,119.0193 L30.6113,119.0193 C30.6263,118.7833 30.6333,118.5453 30.6333,118.3063 C30.6333,115.0593 29.3163,112.1193 27.1893,109.9923 C25.0623,107.8653 22.1223,106.5493 18.8763,106.5493" id="Fill-102" fill="#F48266" mask="url(#mask-2)"></path>
                <path d="M6.8641,129.5698 C17.0741,129.5718 19.2361,129.5718 24.6701,129.5718 L36.9721,129.5718 C37.1671,129.5718 37.3251,129.7298 37.3251,129.9238 L37.3251,129.9338 L37.2371,171.8958 C37.2371,172.0268 37.1641,172.1408 37.0581,172.2028 L7.0061,189.3108 C6.8371,189.4068 6.6211,189.3478 6.5251,189.1778 C6.4941,189.1228 6.4791,189.0628 6.4791,189.0048 L6.4781,189.0048 L6.4781,129.9238 C6.4781,129.7268 6.6361,129.5688 6.8321,129.5688 L6.8641,129.5698 Z M24.6701,130.2778 C19.2941,130.2778 17.1201,130.2778 7.1861,130.2758 L7.1861,188.3958 L36.5311,171.6898 L36.6191,130.2768 L24.6701,130.2778 Z" id="Fill-103" fill="#F48266" mask="url(#mask-2)"></path>
                <path d="M13.3558,128.4292 L25.5798,128.4092 L25.4978,127.0632 C20.3968,126.9662 20.4088,126.3702 20.4968,122.1992 C20.5078,121.6622 20.5208,121.0562 20.5208,120.2732 C20.5208,120.0772 20.6798,119.9192 20.8758,119.9192 L20.8848,119.9192 L23.4948,119.9192 L23.4948,115.6712 L15.7778,115.6712 L15.7778,119.9192 L18.3978,119.9192 C18.5928,119.9192 18.7508,120.0772 18.7508,120.2732 L18.7508,120.2822 C18.7508,127.0642 18.5228,127.0642 13.7758,127.0572 L13.6198,127.0572 L13.3558,128.4292 Z M25.9558,129.1142 L12.9538,129.1362 C12.9238,129.1382 12.8928,129.1372 12.8618,129.1302 C12.6698,129.0942 12.5438,128.9082 12.5808,128.7172 L12.9798,126.6372 L12.9808,126.6372 C13.0118,126.4742 13.1558,126.3512 13.3278,126.3512 L13.7758,126.3512 C17.7678,126.3582 18.0338,126.3572 18.0428,120.6272 L15.4328,120.6272 L15.4238,120.6272 C15.2278,120.6272 15.0688,120.4682 15.0688,120.2732 L15.0688,115.3252 L15.0688,115.3162 C15.0688,115.1212 15.2278,114.9622 15.4238,114.9622 L23.8398,114.9622 L23.8488,114.9622 C24.0448,114.9622 24.2038,115.1212 24.2038,115.3162 L24.2038,120.2642 L24.2038,120.2732 C24.2038,120.4682 24.0448,120.6272 23.8488,120.6272 L21.2288,120.6272 C21.2248,121.1732 21.2128,121.7192 21.2028,122.2132 C21.1268,125.8372 21.1168,126.2932 25.8188,126.3632 C26.0098,126.3562 26.1728,126.5032 26.1838,126.6952 L26.3088,128.7412 L26.3068,128.7412 L26.3088,128.7612 C26.3088,128.9552 26.1498,129.1142 25.9558,129.1142 L25.9558,129.1142 Z" id="Fill-104" fill="#F48266" mask="url(#mask-2)"></path>
                <polygon id="Fill-105" fill="#F48266" mask="url(#mask-2)" points="182.4647 209.3667 157.0667 260.2947 155.4307 260.2347 180.2657 209.5257"></polygon>
                <path d="M117.9633,170.6411 L134.2763,170.6411 C135.4693,170.6411 136.5563,171.1301 137.3443,171.9181 L137.3453,171.9191 L137.3463,171.9201 C138.1333,172.7071 138.6233,173.7941 138.6233,174.9891 L138.6233,201.4121 C138.6233,202.6061 138.1333,203.6921 137.3463,204.4801 L137.3453,204.4811 L137.3443,204.4821 C136.5563,205.2701 135.4693,205.7581 134.2763,205.7581 L117.9633,205.7581 C116.7693,205.7581 115.6833,205.2701 114.8943,204.4821 L114.8943,204.4811 L114.8933,204.4801 C114.1063,203.6921 113.6163,202.6061 113.6163,201.4121 L113.6163,174.9891 C113.6163,173.7941 114.1063,172.7071 114.8933,171.9201 L114.8943,171.9191 L114.8943,171.9181 C115.6833,171.1301 116.7693,170.6411 117.9633,170.6411 M134.2763,171.5171 L117.9633,171.5171 C117.0083,171.5171 116.1393,171.9091 115.5123,172.5361 L115.5103,172.5371 C114.8823,173.1651 114.4923,174.0341 114.4923,174.9891 L114.4923,201.4121 C114.4923,202.3681 114.8823,203.2361 115.5103,203.8631 L115.5123,203.8651 C116.1393,204.4941 117.0083,204.8821 117.9633,204.8821 L134.2763,204.8821 C135.2313,204.8821 136.0993,204.4941 136.7273,203.8651 L136.7293,203.8631 C137.3563,203.2361 137.7473,202.3681 137.7473,201.4121 L137.7473,174.9891 C137.7473,174.0341 137.3563,173.1651 136.7293,172.5371 L136.7273,172.5361 C136.0993,171.9091 135.2313,171.5171 134.2763,171.5171" id="Fill-106" fill="#F48266" mask="url(#mask-2)"></path>
                <path d="M1055.9501,129.5698 C1045.7381,129.5718 1043.5771,129.5718 1038.1421,129.5718 L1025.8421,129.5718 C1025.6461,129.5718 1025.4881,129.7298 1025.4881,129.9238 L1025.4881,129.9338 L1025.5771,171.8958 C1025.5771,172.0268 1025.6481,172.1408 1025.7561,172.2028 L1025.7551,172.2028 L1055.8061,189.3108 C1055.9761,189.4068 1056.1921,189.3478 1056.2891,189.1778 C1056.3191,189.1228 1056.3351,189.0628 1056.3351,189.0048 L1056.3361,189.0048 L1056.3361,129.9238 C1056.3361,129.7268 1056.1771,129.5688 1055.9801,129.5688 L1055.9501,129.5698 Z M1038.1421,130.2778 C1043.5191,130.2778 1045.6931,130.2778 1055.6271,130.2758 L1055.6271,188.3958 L1026.2811,171.6898 L1026.1941,130.2768 L1038.1421,130.2778 Z" id="Fill-107" fill="#F48266" mask="url(#mask-2)"></path>
                <path d="M1049.4579,128.4292 L1037.2329,128.4092 L1037.3149,127.0632 C1042.4149,126.9662 1042.4029,126.3702 1042.3159,122.1992 C1042.3059,121.6622 1042.2919,121.0562 1042.2919,120.2732 C1042.2919,120.0772 1042.1339,119.9192 1041.9369,119.9192 L1041.9289,119.9192 L1039.3179,119.9192 L1039.3179,115.6712 L1047.0349,115.6712 L1047.0349,119.9192 L1044.4169,119.9192 C1044.2209,119.9192 1044.0619,120.0772 1044.0619,120.2732 L1044.0619,120.2822 C1044.0619,127.0642 1044.2899,127.0642 1049.0369,127.0572 L1049.1929,127.0572 L1049.4579,128.4292 Z M1036.8579,129.1142 L1049.8589,129.1362 C1049.8909,129.1382 1049.9209,129.1372 1049.9509,129.1302 C1050.1439,129.0942 1050.2699,128.9082 1050.2329,128.7172 L1049.8329,126.6372 C1049.8019,126.4742 1049.6569,126.3512 1049.4849,126.3512 L1049.0369,126.3512 C1045.0459,126.3582 1044.7789,126.3572 1044.7709,120.6272 L1047.3809,120.6272 L1047.3899,120.6272 C1047.5849,120.6272 1047.7429,120.4682 1047.7429,120.2732 L1047.7429,115.3252 L1047.7429,115.3162 C1047.7429,115.1212 1047.5849,114.9622 1047.3899,114.9622 L1038.9739,114.9622 L1038.9649,114.9622 C1038.7689,114.9622 1038.6089,115.1212 1038.6089,115.3162 L1038.6089,120.2642 L1038.6089,120.2732 C1038.6089,120.4682 1038.7689,120.6272 1038.9649,120.6272 L1041.5849,120.6272 C1041.5889,121.1732 1041.6009,121.7192 1041.6099,122.2132 C1041.6869,125.8372 1041.6959,126.2932 1036.9939,126.3632 C1036.8039,126.3562 1036.6409,126.5032 1036.6299,126.6952 L1036.5049,128.7412 L1036.5059,128.7412 L1036.5049,128.7612 C1036.5049,128.9552 1036.6619,129.1142 1036.8579,129.1142 L1036.8579,129.1142 Z" id="Fill-108" fill="#F48266" mask="url(#mask-2)"></path>
                <polygon id="Fill-109" fill="#F48266" mask="url(#mask-2)" points="74.016 112.7031 82.671 119.6861 81.515 120.3421 74.016 114.3831"></polygon>
                <path d="M71.1976,12.4277 L372.0626,12.4277" id="Stroke-110" stroke="#F48266" stroke-width="1.417" mask="url(#mask-2)"></path>
                <path d="M644.7841,145.7837 L644.7841,82.8417 C647.2111,83.5127 660.7911,106.8567 663.1321,110.5827 C663.8921,111.7927 680.8911,137.2757 686.3801,146.0547 C687.1171,146.0297 687.8551,146.0267 688.5941,146.0417 C689.0301,145.9997 689.4661,145.9567 689.9021,145.9157 C689.8481,145.8297 689.7931,145.7397 689.7421,145.6577 L650.6741,84.3747 C648.5021,80.8517 648.9211,79.3727 644.2881,79.3727 L644.2881,146.2797 L685.9861,146.1477 C685.9641,145.9677 685.9721,145.9667 685.9671,145.7837 L644.7841,145.7837 Z" id="Fill-111" fill="#F48266" mask="url(#mask-2)"></path>
                <path d="M647.7577,73.9209 L650.1437,77.4989 L690.0327,77.4239 C689.8457,76.9049 689.7477,76.3519 689.7757,75.7779 C689.8037,75.1809 689.8207,74.5549 689.8267,73.9209 L647.7577,73.9209 Z" id="Fill-112" fill="#F48266" mask="url(#mask-2)"></path>
                <path d="M1024.4159,71.4438 L1024.9059,62.5238 L1036.8159,62.5248 L1037.3019,62.5228 L1046.7179,62.5228 L1047.2079,62.5238 L1062.0789,62.0298 L1062.0819,63.5138 L1062.0829,71.4438 L1024.4159,71.4438 Z M1023.4249,52.1138 L1023.4249,61.5308 L995.1749,61.5308 L995.1749,12.4658 L1049.1969,12.4658 L1049.1969,50.6278 L1024.9119,50.6278 C1023.7689,50.6278 1023.4249,50.9728 1023.4249,52.1138 L1023.4249,52.1138 Z M1018.0089,69.1028 C1014.6009,69.1538 1014.0909,69.9988 1014.0109,66.9858 L1023.6689,66.8308 C1023.3369,69.5538 1023.8999,69.0148 1018.0089,69.1028 L1018.0089,69.1028 Z M1023.4329,90.7618 L1023.4249,109.6048 C1021.2149,108.1248 1018.8989,105.2968 1016.8569,103.2868 C1012.8789,99.3748 1014.0079,100.0898 1014.0079,92.7538 C1015.9509,91.8358 1021.4649,87.6538 1022.5159,85.8978 L1012.5599,93.2968 L1013.0979,100.1848 L1007.5659,100.1878 L1007.5659,97.7108 L1001.5359,102.5838 C1004.1709,101.8878 1004.1799,100.1828 1006.5709,99.1998 L1006.5769,104.6588 L1006.5739,106.6308 L1006.5739,109.1088 L1007.0139,154.0458 L1001.1239,154.2348 L1001.1249,123.4908 C1001.1249,118.7018 1000.4139,105.8108 1001.5359,102.5838 L999.0599,104.5678 L1000.3739,104.4148 L1000.1299,105.6458 L1000.1309,110.0998 L995.1749,110.0998 C995.3539,107.1658 995.7549,108.5438 996.6619,106.6308 L995.2399,106.9138 L995.1749,92.7538 L1015.6989,76.1068 C1014.0819,76.1858 1015.1879,75.8268 1014.0129,76.3948 L1014.0119,74.9168 C1016.6469,75.1328 1014.8849,74.4678 1015.6989,76.1068 L1017.7299,74.1418 L995.1749,73.9208 L995.1749,69.9568 L1023.4249,69.9568 C1023.4249,74.9708 1024.2279,82.5248 1022.5159,85.8978 C1023.7009,86.1438 1023.5159,84.6938 1023.4329,90.7618 L1023.4329,90.7618 Z M1007.5659,110.0998 L1007.5659,102.1708 L1007.5689,100.6868 L1013.5129,100.6278 L1014.9939,102.7528 C1016.9279,104.5058 1021.1509,108.1848 1022.4349,110.0998 L1007.5659,110.0998 Z M995.1749,147.7658 L1000.6269,147.7658 L1000.6269,111.0908 L995.1749,111.0908 L995.1749,147.7658 Z M1007.2749,79.0868 L998.9389,85.6318 C997.4649,86.7818 996.8699,87.8418 995.1749,88.2938 L995.1749,77.3908 L1008.5569,77.3908 C1007.9379,79.1738 1009.0879,77.4688 1007.2749,79.0868 L1007.2749,79.0868 Z M995.1729,62.0248 L1023.4249,62.0248 L1023.4269,65.9928 L1021.4429,65.9928 L995.3409,66.4328 L995.1399,64.5068 L995.1729,62.0248 Z M994.5159,147.6038 L992.6999,147.7978 L989.2279,147.7658 L989.2279,0.5718 L992.6979,0.5718 L994.5189,0.6958 L994.5159,147.6038 Z M1049.6919,51.6188 L1049.6919,40.7158 L1051.6739,40.7158 L1054.1519,40.7658 L1054.1519,30.3078 L1062.0819,30.3078 L1062.0819,61.5308 L1024.4159,61.5308 L1024.4169,51.6188 L1049.6919,51.6188 Z M1049.6919,40.2198 L1053.1609,40.2198 L1053.1609,0.5718 L1049.6919,0.5718 L1049.6919,40.2198 Z M981.6559,102.5288 C980.1679,103.2088 975.8939,107.1078 974.5599,108.3168 C971.5399,111.0528 969.7299,110.1018 964.4479,110.0998 C956.5189,110.0988 948.5889,110.0998 940.6589,110.0998 L945.1229,102.6758 C945.9019,101.5028 945.7209,102.1488 946.1159,100.6878 L968.4129,100.6838 L968.9029,100.6848 L983.7729,100.6018 C982.3789,101.6688 982.6009,101.6838 981.6559,102.5288 L981.6559,102.5288 Z M670.4249,70.7248 L987.8949,70.2908 L987.8949,74.0898 L961.7929,74.2618 L958.7119,78.9838 C961.4459,76.8568 964.6449,77.7218 969.2269,77.7228 C989.0539,77.7248 988.2109,75.7908 988.0799,82.6588 C988.0149,86.0068 988.9899,92.1158 987.4509,94.4628 C987.2699,94.7378 981.5089,99.4968 980.9349,99.8368 C978.2129,101.4438 946.6259,100.6238 945.2719,100.0258 L938.4989,111.9198 L966.0879,111.4108 L923.2349,145.7478 L923.1359,140.6648 L921.1519,139.6728 L920.1239,141.1388 L922.5879,141.1578 L922.6399,146.6128 C929.6479,147.0898 930.9909,143.9088 939.1559,137.3558 L967.7719,114.4228 C971.3489,111.6028 979.7339,105.4508 982.4539,102.7318 C985.6329,100.5218 987.8349,95.5468 987.9379,101.4208 C988.0069,105.2898 988.5179,111.2848 987.0929,113.8528 C987.3559,113.5948 987.7359,113.6738 988.0199,115.3868 L988.0599,148.0978 L945.4369,147.6028 L944.4499,148.5958 C958.0439,148.5878 980.0629,148.1138 993.3429,148.8128 C994.3279,148.8668 997.0439,148.5968 999.4559,148.5968 L999.4569,150.5828 L999.4579,154.5418 C993.1159,154.5418 939.9769,154.8798 938.4649,154.3598 L939.0749,152.5868 L718.6529,153.0778 C718.6449,153.4048 718.5509,154.0278 718.5509,154.0278 L937.5079,153.5498 L935.0289,156.0288 C937.4639,155.3788 935.9379,155.0058 939.9529,155.0048 C949.2709,155.0008 980.4949,154.6008 984.9209,155.2008 L985.0879,252.1748 L988.0599,249.6978 L988.0599,155.0378 L1006.8929,155.0378 L1006.8929,111.4228 L1022.7519,111.4228 L1022.7519,119.4828 L1031.0199,119.4468 L1030.3539,118.9708 L1023.7429,118.9858 L1023.7429,72.7668 L1061.4089,72.7668 L1061.4089,118.9858 L1053.8009,118.7008 L1053.7759,119.4698 L1061.9029,119.4828 L1061.9029,30.1458 C1050.5339,30.1458 1052.9819,31.6168 1052.9829,19.7358 L1052.9829,0.4078 L1048.5229,0.4078 L1048.5229,12.3028 L994.5019,12.3028 L994.5019,0.4078 L988.0599,0.4078 L988.0599,12.3028 L602.7499,12.3008 C602.7639,12.4668 602.7699,12.6318 602.7689,12.7978 L988.0599,12.7978 L988.0599,61.8628 L689.6449,62.1698 L685.1869,62.8598 L987.8969,62.4838 C987.8949,68.6048 988.4129,66.4988 970.2179,66.6808 L903.3109,66.6548 C873.3999,66.6548 843.4419,66.6598 813.6059,66.6558 L670.4009,67.1598 L670.4249,70.7248 Z" id="Fill-113" fill="#F48266" mask="url(#mask-2)"></path>
                <path d="M149.6771,162.476 L149.6771,227.4 L144.3841,227.278 L144.3891,165.946 L108.0461,165.946 L108.0461,227.4 L99.1251,227.4 L99.1251,163.467 C99.1251,160.993 107.8151,161.98 110.5241,161.981 L149.6771,162.476 Z M146.7051,237.314 L144.3851,237.204 C144.3891,235.814 144.2831,234.103 144.3461,232.827 C144.4541,230.662 144.5911,230.931 146.7051,230.868 L146.7051,237.314 Z M146.7031,260.11 L117.4631,260.11 L117.4631,256.641 L144.3911,256.641 L144.3891,242.268 C144.3891,240.533 145.0611,240.83 146.7031,240.781 L146.7031,260.11 Z M108.5421,227.4 L143.7301,227.4 L143.7301,166.441 L108.5421,166.441 L108.5421,227.4 Z M117.4631,256.145 L143.7301,256.145 L143.7301,240.781 L117.4631,240.781 L117.4631,256.145 Z M117.4631,237.313 L143.7301,237.313 L143.7301,230.87 L117.4631,230.87 L117.4631,237.313 Z M114.4901,237.312 L108.5421,237.312 L108.5421,230.87 L113.0021,230.87 C114.1451,230.87 114.4901,231.214 114.4901,232.356 L114.4901,237.312 Z M108.5421,256.145 L114.4901,256.145 L114.4901,240.781 L108.5421,240.781 L108.5421,256.145 Z M99.1231,232.356 C99.1231,230.505 102.2151,230.868 104.0811,230.868 L108.0481,230.868 L108.0481,237.314 L99.1331,237.314 L99.1231,232.356 Z M114.4901,260.11 L99.1251,260.11 L99.1251,240.781 L108.0461,240.781 L108.0461,256.641 L114.4901,256.641 L114.4901,260.11 Z M99.1251,161.486 L114.4891,161.486 L114.4891,149.095 L99.1251,149.095 L99.1251,161.486 Z M98.4861,237.149 L95.6581,237.346 L95.6561,231.365 L98.6301,231.365 L98.4861,237.149 Z M95.6541,260.112 L95.6541,249.209 C90.9871,248.656 87.2291,250.076 87.2291,247.72 C87.2291,240.569 88.7131,244.402 95.6541,243.258 L95.6541,240.78 L98.4701,240.88 L98.6001,260.115 L95.6541,260.112 Z M87.2311,260.11 L94.6651,260.11 L94.6651,249.703 L87.2311,249.703 L87.2311,260.11 Z M84.2591,247.72 C84.2591,248.859 83.8121,249.044 82.7711,249.044 L73.8511,249.044 L73.8511,260.112 L70.8761,260.112 L70.8741,240.78 L73.8581,240.78 L73.8511,243.425 C85.8241,243.422 84.2591,242.289 84.2591,247.72 L84.2591,247.72 Z M80.2931,260.11 L84.2581,260.11 L84.2581,249.703 L80.2931,249.703 L80.2931,260.11 Z M74.3381,260.112 L74.3431,249.701 L79.7971,249.701 L79.7981,260.112 L74.3381,260.112 Z M69.8861,68.312 L69.8861,148.599 L65.4251,148.599 L65.4251,40.062 L70.8761,39.566 L70.8521,65.314 C70.5121,68.248 69.8861,66.47 69.8861,68.312 L69.8861,68.312 Z M61.9561,155.042 L61.9561,150.582 L61.9541,149.095 C62.5281,149.095 68.7641,149.257 68.7671,149.258 C70.0051,149.596 69.5061,149.566 69.8861,150.576 L69.8951,155.042 L61.9561,155.042 Z M61.3731,154.878 L55.5131,155.069 L55.5141,120.356 L55.5181,100.035 L56.8991,100.628 C56.9881,100.681 57.1161,100.759 57.2051,100.818 L61.2071,105.565 C60.9561,107.521 61.2201,107.041 61.3731,108.474 C61.4111,108.832 61.3351,109.292 61.3231,109.524 C60.5071,124.184 61.2321,140.062 61.3731,154.878 L61.3731,154.878 Z M61.9561,148.599 L64.9291,148.599 L64.9291,111.924 L61.9561,111.924 L61.9561,148.599 Z M61.9561,110.933 L61.9561,106.968 L62.0791,105.147 C63.7861,106.49 62.8361,105.925 64.9291,106.968 L64.9291,110.933 L61.9561,110.933 Z M64.9291,78.224 L64.9291,87.144 C63.2531,86.022 61.5001,84.356 59.6921,82.963 L54.8721,78.874 C54.8011,78.771 54.6161,78.359 54.5211,78.224 L64.9291,78.224 Z M49.0701,101.021 C49.0701,97.692 48.4761,95.722 50.0611,94.083 L48.4921,93.67 L48.5761,101.518 L54.5161,101.532 L54.5201,103.01 L54.5401,110.933 C36.2581,110.935 39.1571,113.926 39.1571,99.039 C39.1571,94.919 39.2931,90.745 39.1571,86.649 L41.1401,87.64 C38.7321,84.045 39.0971,86.558 39.1531,80.211 C39.1801,77.074 39.1571,73.928 39.1571,70.79 L64.9291,70.79 L64.9291,74.754 L44.6091,74.754 C49.8151,79.096 54.5441,83.329 59.9731,87.64 C62.3141,89.499 64.8651,90.317 64.9751,94.037 C65.0891,97.883 64.9291,102.083 64.9291,105.977 L53.7301,97.304 L55.3661,100.844 L49.0701,101.021 Z M39.1621,68.808 C39.7131,67.355 37.6951,67.702 44.1151,67.783 C49.7011,67.853 48.5131,67.09 48.5691,69.794 C46.8461,69.806 45.3251,69.878 43.6181,69.874 C36.4851,69.855 40.2241,70.286 39.1621,68.808 L39.1621,68.808 Z M64.9291,62.86 L64.8521,67.158 L39.3201,67.157 L39.1271,62.861 L64.9291,62.86 Z M65.4251,1.405 L70.8761,1.405 L70.8761,37.088 C69.7641,37.348 69.7371,37.584 68.3981,37.584 L65.4251,37.584 L65.4251,1.405 Z M73.8491,232.356 L73.8491,237.312 L70.8761,237.312 L70.8761,232.852 L71.0001,231.03 C72.6841,231.034 73.8491,230.73 73.8491,232.356 L73.8491,232.356 Z M74.3451,242.763 L79.7971,242.763 L79.7971,240.781 L74.3451,240.781 L74.3451,242.763 Z M74.5081,237.646 L74.3131,235.829 L74.3451,230.87 L79.7971,230.87 L79.7971,236.321 C79.7971,238.319 76.6401,237.643 74.5081,237.646 L74.5081,237.646 Z M80.2931,242.763 L84.2581,242.763 L84.2581,240.781 L80.2931,240.781 L80.2931,242.763 Z M84.2571,237.312 L80.2931,237.312 L80.2931,232.852 L80.4151,231.029 L84.0931,231.034 L84.2911,232.849 L84.2571,237.312 Z M87.2311,242.763 L94.6651,242.763 L94.6651,240.781 L87.2311,240.781 L87.2311,242.763 Z M87.2311,237.312 L94.6651,237.312 L94.6651,231.365 L87.2311,231.365 L87.2311,237.312 Z M73.8491,67.817 L73.8491,80.206 L95.6561,80.206 L95.6561,67.817 L98.4671,67.975 L98.5181,227.234 C94.1831,227.696 76.5051,227.408 70.8761,227.4 L70.8761,67.817 L73.8491,67.817 Z M74.3451,79.711 L94.6651,79.711 L94.6651,78.224 L74.3451,78.224 L74.3451,79.711 Z M74.3451,74.755 L94.6651,74.755 L94.6651,70.79 L74.3451,70.79 L74.3451,74.755 Z M71.3721,62.86 L372.6991,62.86 L372.6991,65.338 L372.5741,67.158 L364.2731,67.18 L336.0241,67.156 L199.7331,67.16 L184.8651,67.156 L71.3711,67.083 L71.3721,62.86 Z M69.8301,237.644 L55.1821,237.644 L54.9931,230.87 L69.8861,230.87 L69.8301,237.644 Z M55.0171,260.109 L69.8861,260.109 L69.8861,240.781 L55.0171,240.781 L55.0171,260.109 Z M38.1691,62.366 L0.6241,62.366 L0.4991,31.14 L8.4301,31.14 L8.4321,42.042 C14.3351,41.302 12.7141,41.592 12.8921,52.45 L38.2281,52.45 L38.1691,62.366 Z M0.5011,72.277 L0.5021,65.344 L0.2931,63.109 C3.6311,63.135 36.4921,63.198 38.1621,62.865 L38.1651,64.848 L38.1751,72.276 L0.5011,72.277 Z M9.4211,1.405 L12.7301,1.529 L12.7261,9.83 C8.7311,12.864 9.5651,13.707 12.7261,16.438 L12.7261,40.889 L9.4211,41.053 L9.4211,1.405 Z M373.3581,1.569 L378.6461,1.405 L378.6461,146.617 C376.1941,146.617 373.3511,147.091 373.3581,145.625 C373.4481,128.809 373.9821,3.492 373.3581,1.569 L373.3581,1.569 Z M397.8461,114.774 C400.2961,110.839 415.9231,85.027 417.7981,83.675 L417.7981,146.617 L379.1411,146.617 C379.2371,142.312 394.9781,119.383 397.8461,114.774 L397.8461,114.774 Z M372.6991,141.165 C370.8411,141.105 371.1251,141.074 371.0881,139.169 L371.0791,135.716 L371.0861,78.224 L372.6991,78.224 L372.6991,141.165 Z M99.1281,101.52 L114.0321,101.401 C116.3421,101.514 116.5091,101.742 116.9641,103.585 C118.7111,105.934 119.9921,108.362 121.7611,110.771 L99.2501,110.923 L99.1271,107.47 L99.1281,101.52 Z M125.3931,154.051 L728.0101,154.051 C727.9481,153.731 727.9131,153.406 727.9061,153.079 L122.9141,153.06 L123.4441,154.86 L115.4811,155.042 L115.5431,149.258 L117.8761,149.672 L116.4021,147.668 C113.3661,148.638 118.5291,148.259 114.0271,148.611 L99.1251,148.599 L99.1401,119.359 C103.6951,121.777 113.1321,130.327 117.9751,134.2 C121.0751,136.679 124.2381,139.231 127.3151,141.72 C129.4131,143.417 132.0191,145.908 134.2201,147.196 L138.4921,147.196 C138.7221,147.159 138.9791,147.13 139.2691,147.113 L139.2691,141.661 C144.0901,141.74 136.7721,137.446 138.7731,145.625 C136.9141,144.926 109.0571,122.279 103.0151,117.463 C100.6431,115.571 99.1251,115.546 99.1251,111.924 L122.9151,111.924 L115.7011,99.73 C114.9071,101.542 115.6581,101.029 112.5751,101.102 L99.1251,101.021 L99.1251,78.224 L102.5951,79.215 C102.2781,78.029 101.2471,76.346 100.4581,75.404 C98.7521,73.368 99.1251,74.943 99.1251,70.79 L372.6991,70.789 L372.6991,74.754 C366.0781,74.757 367.2471,72.386 367.2471,87.144 L367.2471,141.661 L372.6991,141.661 C372.6991,144.879 372.4391,146.469 373.0661,147.196 L386.3121,147.196 C388.0021,147.159 389.8971,147.146 392.0271,147.174 C400.7811,147.288 409.5041,147.113 418.2941,147.113 L418.2941,80.206 C413.4801,80.206 413.8411,81.766 411.8211,85.134 C407.0191,93.141 380.8741,135.303 379.6371,136.21 C379.7311,133.278 379.0241,130.212 380.6281,129.038 C379.8151,126.276 381.1451,129.694 379.1721,128.856 C379.1721,114.979 379.1421,102.013 379.1411,88.136 C379.1411,75.707 377.2591,78.224 390.0441,78.224 L410.8601,78.224 C412.6421,78.814 410.5011,81.251 412.5271,78.536 C413.4941,77.239 414.0931,76.188 414.3291,74.754 L379.6371,74.754 L379.6371,70.79 L670.7411,70.789 L670.4011,67.16 L379.7991,67.16 L379.6071,62.861 L690.3011,62.86 C690.2481,62.623 690.2081,62.383 690.1861,62.14 C684.7821,62.488 658.1261,62.364 649.2391,62.364 L649.2721,62.316 L631.3701,62.316 L631.4031,62.364 L379.1411,62.364 L379.1411,36.098 C379.5491,36.206 380.4981,36.902 381.8481,37.661 C381.5231,36.763 381.3331,35.814 381.2661,34.854 C381.2651,34.849 381.2651,34.845 381.2651,34.84 C381.2511,34.631 381.2351,34.423 381.2331,34.214 C379.9761,33.014 379.1411,31.599 379.1411,30.15 L379.1411,13.299 L380.5981,13.299 C380.5871,13.134 380.5821,12.969 380.5781,12.804 L379.1411,12.804 L379.1411,0.909 L372.6991,0.909 C372.6991,5.318 372.7551,7.755 372.7261,9.08 C372.9831,14.113 372.6921,19.137 372.4021,24.163 C373.4101,36.09 372.6991,56.286 372.6991,62.364 L71.3721,62.364 L71.3721,39.071 C71.7901,38.967 72.1941,38.834 72.5851,38.676 C72.5371,37.766 72.6071,36.851 72.7921,35.961 C72.3251,36.246 71.8501,36.467 71.3691,36.595 L71.3721,13.297 L71.9021,13.297 C71.9041,13.135 71.9121,12.974 71.9221,12.812 C71.7251,12.808 71.5401,12.804 71.3721,12.804 L71.3721,0.909 L64.9291,0.909 L64.9291,12.804 L60.1971,12.804 C60.1381,12.963 60.0791,13.128 60.0191,13.299 L64.9291,13.299 L64.9291,37.584 C64.5071,37.486 64.0951,37.362 63.6941,37.214 C63.5171,38.018 63.2401,38.808 62.8721,39.567 C63.5271,39.772 64.2061,39.947 64.9291,40.062 L64.9291,62.364 L38.6621,62.364 L38.6621,51.461 L13.3871,51.461 L13.3871,22.621 C13.3651,22.163 13.3531,21.706 13.3571,21.252 C13.3591,21.064 13.3801,20.887 13.3871,20.702 L13.3871,20.237 C13.3941,20.249 13.4021,20.267 13.4101,20.279 C13.5941,17.333 14.4811,14.809 15.9121,12.804 L15.8641,12.804 C12.7271,8.826 13.6951,10.522 13.3871,0.909 L8.4301,0.909 L8.4301,30.646 L0.0051,30.646 L0.0001,119.854 L7.4881,119.854 L7.4881,119.286 L0.5011,119.36 L0.4991,73.266 L38.1661,73.266 L38.1681,119.36 L30.7311,119.36 L29.2441,115.395 L30.4281,119.803 L38.6621,119.854 L38.6621,111.924 L55.0171,111.924 L55.0171,155.538 L69.8861,155.538 L69.8861,227.896 L51.0521,227.896 L51.0521,263.083 L46.5911,263.083 L46.5911,271.509 L157.7711,271.509 C157.6021,261.408 160.3781,259.904 163.8281,253.008 C165.1041,250.457 176.5831,228.924 176.5061,227.147 L157.8701,262.997 L150.6681,263.083 L150.0571,162.477 C153.7481,162.555 165.6081,166.34 170.3461,167.564 C173.1051,168.276 173.6431,168.094 174.3491,170.899 L178.4091,186.159 C180.0711,192.708 181.8581,199.722 183.8581,206.515 C185.8591,213.313 178.9491,219.521 177.2191,226.214 C178.8651,223.609 182.7721,215.05 184.2931,212.055 C186.2051,208.292 183.1921,201.821 182.0721,197.371 C181.1081,193.545 174.6621,168.799 173.8971,167.847 C173.1641,166.938 153.5081,162.288 151.6681,161.737 C146.9731,160.332 124.0881,161.485 115.4811,161.485 L115.4811,155.538 C117.6581,155.538 119.8351,155.566 122.0091,155.575 C129.3031,155.6 122.1521,155.125 125.3931,154.051 L125.3931,154.051 Z" id="Fill-114" fill="#F48266" mask="url(#mask-2)"></path>
                <path d="M729.9374,156.2983 C729.7434,156.1633 729.5594,156.0183 729.3924,155.8573 L127.3754,156.1923 C127.9734,156.5693 126.7714,157.3253 133.0544,157.3253 C239.6794,157.3253 654.4844,157.1973 730.7444,157.1783 C730.4334,156.9193 730.1644,156.6233 729.9374,156.2983" id="Fill-115" fill="#F48266" mask="url(#mask-2)"></path>
                <path d="M936.6923,208.727 C936.9113,206.273 936.7413,206.686 939.6073,206.684 L962.4663,206.741 C968.4823,206.731 969.1693,205.93 969.4193,208.727 L936.6923,208.727 Z M938.1813,232.019 L964.9433,232.019 C966.6063,232.079 966.1853,236.823 966.2723,238.835 L936.6943,238.957 L936.6943,233.506 C936.6943,232.364 937.0393,232.019 938.1813,232.019 L938.1813,232.019 Z M936.6943,227.559 L936.6943,209.717 L965.9353,209.717 L965.9353,229.045 L938.1813,229.045 C937.0393,229.045 936.6943,228.701 936.6943,227.559 L936.6943,227.559 Z M966.9253,229.541 L966.9253,209.717 L969.4033,209.717 L969.4033,231.523 L936.6943,231.523 L936.6943,229.541 L966.9253,229.541 Z M969.3913,241.627 L931.2133,241.627 C926.7043,241.623 923.5173,241.632 919.2123,241.632 L920.7183,239.466 L934.7103,239.451 L934.7103,232.512 L936.2003,232.512 L936.1913,239.451 L966.9243,239.451 L966.9243,232.512 L969.4063,232.512 L969.3913,241.627 Z M902.6553,156.752 C904.7783,157.071 903.7983,158.231 905.4713,160.157 L905.3673,159.562 L920.4753,195.342 C920.4443,195.982 920.7903,196.578 921.2313,197.133 L922.1953,199.416 L922.3163,199.937 L922.4143,199.936 L935.3693,230.618 L935.7033,231.523 L934.3633,231.453 L902.6553,156.752 Z M932.1653,157.326 L933.7203,156.687 L933.7203,196.335 C930.4813,196.335 923.8933,196.114 921.3533,195.179 L905.3633,157.307 L932.1653,157.326 Z M933.7203,199.804 L933.5563,224.079 L923.3573,199.925 L933.7203,199.804 Z M933.5583,198.899 L922.8893,198.817 L922.0873,196.914 C922.1843,196.683 922.4653,196.805 924.2543,196.781 L933.7553,196.832 L933.5583,198.899 Z M934.7103,222.108 L934.7133,156.687 L936.1983,156.687 L936.1983,230.036 C936.1303,229.937 936.0513,229.792 936.0133,229.726 L935.7473,229.272 L934.9193,227.305 C934.4873,225.693 934.7013,224.275 934.7103,222.108 L934.7103,222.108 Z M936.6943,200.796 C936.6943,199.261 936.7153,199.567 938.4383,199.765 C939.2463,199.858 940.9603,199.768 942.2483,199.745 C944.9933,199.697 964.2533,199.712 965.8793,199.811 L965.9353,206.247 L936.6943,206.247 L936.6943,200.796 Z M936.6943,196.831 L969.4033,196.831 L969.4033,206.247 L966.9253,206.247 L966.9253,198.813 L936.6943,198.813 L936.6943,196.831 Z M936.6943,196.335 L936.6943,175.52 C936.6943,170.807 938.3823,158.237 935.7033,155.696 L717.9173,155.83 C717.7263,156.017 717.5153,156.185 717.2883,156.337 L717.2323,156.375 C717.0113,156.518 716.7743,156.642 716.5203,156.747 C716.4883,156.76 716.4563,156.772 716.4233,156.785 C716.2453,156.853 716.0493,156.899 715.8563,156.948 C715.7103,157.036 715.5563,157.116 715.3953,157.188 L900.7063,157.326 L902.0033,156.687 C902.2253,156.701 902.4233,156.72 902.6013,156.745 L901.8403,157.065 L933.4403,232.096 L933.4573,238.957 L920.9253,238.965 L918.6943,242.093 L969.8993,242.095 L969.8993,196.335 L936.6943,196.335 Z" id="Fill-116" fill="#F48266" mask="url(#mask-2)"></path>
                <path d="M945.4716,147.9155 C944.0766,148.7265 944.5326,148.8665 942.5786,149.1895 L718.5646,149.2095 C718.7906,149.5645 718.9716,149.9475 719.1046,150.3505 C725.8846,150.3265 732.6656,150.3015 739.4446,150.2505 C774.0366,149.9915 808.5156,150.6135 843.0256,150.3065 L920.3386,150.2455 C924.6566,150.2165 928.9386,150.3155 933.2256,150.3085 C940.9026,150.2965 942.5536,151.0135 945.8226,148.6695 L945.4716,147.9155 Z" id="Fill-117" fill="#F48266" mask="url(#mask-2)"></path>
                <path d="M727.7743,149.2133 L221.0443,149.2523 C211.1643,149.2523 125.4123,149.9123 117.8763,148.8393 C118.1723,149.2463 118.4493,149.7063 118.7853,150.2443 C187.8243,150.2443 256.6303,149.9963 325.6163,150.2703 C394.5563,150.5463 463.8923,150.7833 532.7783,150.2503 C579.3853,149.8913 681.5103,150.2463 728.1813,150.3583 C728.2483,150.1553 728.3263,149.9593 728.4163,149.7693 C728.1813,149.6033 727.9673,149.4163 727.7743,149.2133" id="Fill-118" fill="#F48266" mask="url(#mask-2)"></path>
                <path d="M704.5624,138.4028 L704.5634,138.4018 C703.5534,140.1518 703.2994,140.3318 700.2914,140.3318 L700.2914,77.3908 L710.3034,77.3908 C710.3044,77.3888 710.3044,77.3798 710.3044,77.3798 C710.3044,77.3798 735.6594,77.3908 742.6954,77.5648 L704.5624,138.4028 Z M744.8964,73.9218 L699.2994,73.9218 L699.2834,141.0258 L705.1454,141.0258 C708.3004,135.0618 712.3874,129.3388 715.8124,123.6378 L742.0504,81.4968 C743.1514,79.7218 747.9734,73.9218 744.8964,73.9218 L744.8964,73.9218 Z" id="Fill-119" fill="#F48266" mask="url(#mask-2)"></path>
                <path d="M758.7723,73.9214 C762.1703,81.1774 761.0013,77.9374 762.3763,77.5244 L780.0843,77.3904 C804.8333,77.3904 800.7983,75.5144 800.7363,84.8234 C800.6873,92.3704 802.0583,138.2984 799.9073,140.8274 L805.5403,140.8274 L805.3593,73.9214 L758.7723,73.9214 Z" id="Fill-120" fill="#F48266" mask="url(#mask-2)"></path>
                <path d="M755.5067,84.6938 L793.4657,145.7858 L755.3017,145.7858 L755.5067,84.6938 Z M796.4397,141.3238 L795.4467,142.3138 C783.1727,123.9828 770.2147,100.7688 758.0587,82.9638 C755.8507,79.7288 757.3817,81.5278 758.4417,79.3728 L754.8307,79.4538 L754.8307,146.3628 L800.0277,146.3628 L796.4397,141.3238 Z" id="Fill-121" fill="#F48266" mask="url(#mask-2)"></path>
                <polygon id="Fill-122" fill="#F48266" mask="url(#mask-2)" points="744.1542 83.8315 746.3842 82.8405 746.3832 145.7855 708.6762 145.7805 709.2122 140.3315 705.2002 146.3625 750.3472 146.3625 750.3472 79.3725 746.5872 79.4875"></polygon>
                <path d="M540.7079,79.373 L540.1509,77.41 L583.3289,77.391 L583.3289,140.331 L578.3739,139.836 C578.9909,141.501 576.8369,140.828 584.3199,140.828 L584.3199,73.921 L542.6829,73.915 C540.2699,73.891 537.2339,73.299 537.6379,75.008 C537.8059,75.721 540.1619,78.973 540.7079,79.373" id="Fill-123" fill="#F48266" mask="url(#mask-2)"></path>
                <path d="M534.2655,82.8423 C538.2855,82.8423 537.2735,83.1343 541.7635,90.2313 L556.6615,113.9713 C560.1565,119.4753 563.1395,124.2153 566.6025,129.8043 C568.0765,132.1823 575.9425,144.1033 576.3915,145.7843 L534.2655,145.7843 L534.2655,82.8423 Z M533.2735,146.2793 L578.3735,146.3293 C576.7305,142.0203 538.0485,82.5493 537.2385,79.3733 C531.9955,79.3733 533.2735,78.1393 533.2735,92.7543 L533.2735,146.2793 Z" id="Fill-124" fill="#F48266" mask="url(#mask-2)"></path>
                <path d="M594.7284,139.8364 L589.2824,140.4224 L589.2844,77.5544 L632.8904,77.3854 L632.3954,79.3724 C632.9714,78.9494 635.0124,76.0584 635.3444,75.2844 C636.2194,73.2534 633.6034,73.8754 630.9214,73.9084 L588.7814,73.9214 L588.7814,140.8274 L594.7284,139.8364 Z" id="Fill-125" fill="#F48266" mask="url(#mask-2)"></path>
                <path d="M634.4598,82.9248 L637.8458,82.8418 L637.8458,145.7838 L599.6498,145.8128 C595.8318,145.8748 596.1608,145.8698 595.8008,144.8738 L594.7278,146.3298 L639.8278,146.2798 L639.8278,92.7538 C639.8278,78.1128 641.1108,79.3628 635.9688,79.4278 L634.4598,82.9248 Z" id="Fill-126" fill="#F48266" mask="url(#mask-2)"></path>
                <polygon id="Fill-127" fill="#F48266" mask="url(#mask-2)" points="747.7587 80.1909 707.1917 146.3639 705.5297 146.3639 746.8277 79.6099"></polygon>
                <polygon id="Fill-128" fill="#F48266" mask="url(#mask-2)" points="759.0887 73.9087 800.7847 140.6447 799.7387 140.8647 758.2437 74.0227 758.2457 73.9347"></polygon>
                <path d="M687.0643,146.0395 L645.9343,82.2355 L645.0913,82.2615 L645.0893,82.3495 L685.9963,146.0705 C686.3513,146.0565 686.7083,146.0475 687.0643,146.0395" id="Fill-129" fill="#F48266" mask="url(#mask-2)"></path>
                <path d="M690.3007,145.8764 L648.2417,80.5364 L647.3997,80.5624 L647.3977,80.6504 L689.2557,145.9784 C689.6037,145.9444 689.9517,145.9094 690.3007,145.8764" id="Fill-130" fill="#F48266" mask="url(#mask-2)"></path>
                <path d="M690.6952,140.3237 C690.7392,140.3247 690.7772,140.3367 690.8202,140.3377 L648.5072,73.9087 L647.6652,73.9347 L647.6632,74.0227 L689.7802,140.4187 C690.0872,140.3537 690.3942,140.3207 690.6952,140.3237" id="Fill-131" fill="#F48266" mask="url(#mask-2)"></path>
                <polygon id="Fill-132" fill="#F48266" mask="url(#mask-2)" points="637.4325 80.1909 596.1535 146.3639 594.4925 146.3639 636.5085 79.6099"></polygon>
                <polygon id="Fill-133" fill="#F48266" mask="url(#mask-2)" points="633.3534 78.0805 593.9404 141.0215 592.2784 141.0215 633.4634 76.0505"></polygon>
                <polygon id="Fill-134" fill="#F48266" mask="url(#mask-2)" points="595.621 145.3657 639.844 145.3657 639.844 146.2417 595.556 146.3627"></polygon>
                <polygon id="Fill-135" fill="#F48266" mask="url(#mask-2)" points="588.93 141.025 594.083 141.025 594.083 139.718 588.93 139.718"></polygon>
                <polygon id="Fill-136" fill="#F48266" mask="url(#mask-2)" points="578.624 141.025 584.314 141.025 584.314 139.718 578.624 139.718"></polygon>
                <polygon id="Fill-137" fill="#F48266" mask="url(#mask-2)" points="771.307 77.499 804.871 77.499 804.871 74.12 771.307 74.12"></polygon>
                <polygon id="Fill-138" fill="#F48266" mask="url(#mask-2)" points="538.0087 73.9087 579.8057 141.0247 578.6237 141.0247 537.1647 74.0227 537.1667 73.9347"></polygon>
                <path d="M380.1322,12.4277 C455.1332,12.7777 529.1332,12.7777 603.7662,12.4277" id="Stroke-139" stroke="#F48266" stroke-width="1.417" mask="url(#mask-2)"></path>
                <path d="M698.7411,26.4414 C786.0791,26.7914 1056.7661,26.7914 1143.3531,26.4414" id="Stroke-140" stroke="#F48266" stroke-width="1.417" mask="url(#mask-2)"></path>
                <polygon id="Fill-141" fill="#F48266" mask="url(#mask-2)" points="921.0477 238.9653 918.9917 242.0923 918.4257 242.0923 920.4807 238.9653"></polygon>
                <path d="M810.4618,99.227 L841.4348,99.227 L841.4198,99.257 C841.2318,99.447 841.0718,99.693 840.9508,99.934 C840.9098,99.986 840.8738,100.04 840.8418,100.097 C840.6658,100.282 840.6148,100.433 840.4998,100.644 L810.4618,100.644 L810.4618,99.227 Z M845.9268,99.227 L860.3868,99.227 C860.4458,99.429 860.4698,99.664 860.5338,99.872 C860.5338,100.112 860.5268,100.303 860.6048,100.539 L860.6168,100.644 L844.5448,100.644 C844.5968,100.579 844.6408,100.509 844.6798,100.436 L844.7748,100.393 C845.3648,100.289 845.8288,99.819 845.9268,99.227 L845.9268,99.227 Z M865.4968,99.227 L880.9848,99.227 C881.0368,99.416 881.1478,99.633 881.2808,99.781 C881.3368,99.949 881.7278,100.347 881.9008,100.501 C881.9168,100.55 881.9388,100.597 881.9598,100.644 L865.4398,100.644 C865.4578,100.347 865.4418,100.01 865.4418,99.709 C865.4418,99.646 865.4388,99.584 865.4298,99.523 C865.4618,99.428 865.4848,99.329 865.4968,99.227 L865.4968,99.227 Z M884.7308,99.227 L916.1908,99.227 C916.1078,99.498 916.0988,100.358 916.1568,100.644 L885.3638,100.644 C885.3258,100.539 885.2488,100.444 885.2488,100.332 L885.2478,100.332 C885.2478,99.875 885.0568,99.536 884.7348,99.231 L884.7308,99.227 Z M920.8298,99.227 L942.2328,99.227 C942.1398,99.383 941.9898,99.538 941.8918,99.708 C941.6638,99.949 941.5238,100.313 941.4578,100.644 L920.9768,100.644 C920.9968,100.321 920.9828,99.98 920.8428,99.684 L920.9138,99.828 C920.9138,99.608 920.9068,99.44 920.8298,99.227 L920.8298,99.227 Z M947.0238,99.227 L983.8018,99.227 L983.8028,100.644 L946.1128,100.644 C946.1528,100.592 946.1888,100.538 946.2258,100.484 L946.2118,100.496 C946.3868,100.314 946.7268,99.783 946.7988,99.558 C946.8898,99.43 946.9098,99.344 947.0238,99.227 L947.0238,99.227 Z M1007.2378,99.227 L1013.5628,99.227 L1013.5628,100.644 L1007.1788,100.644 C1007.2188,100.517 1007.2378,100.379 1007.2378,100.228 L1007.2378,99.227 Z" id="Fill-142" fill="#F48266" mask="url(#mask-2)"></path>
                <polygon id="Fill-143" fill="#F48266" mask="url(#mask-2)" points="987.8788 234.0141 988.7328 234.0141 988.7328 235.4881 1002.8358 235.5581 1001.6188 239.9481 995.1748 239.9481 995.1748 237.9661 988.7328 237.9661 988.7328 240.9891 987.8788 240.9891"></polygon>
                <polygon id="Fill-144" fill="#F48266" mask="url(#mask-2)" points="987.8788 218.6391 988.7328 218.6391 988.7328 220.1131 1002.8358 220.1831 1001.6188 224.5731 995.1748 224.5731 995.1748 222.5901 988.7328 222.5901 988.7328 225.6141 987.8788 225.6141"></polygon>
                <polygon id="Fill-145" fill="#F48266" mask="url(#mask-2)" points="987.8788 247.9116 988.7328 247.9116 988.7328 249.3866 1002.8358 249.4556 1001.6188 253.8466 995.1748 253.8466 995.1748 251.8636 985.7608 251.8636 985.7608 251.8436"></polygon>
                <polygon id="Fill-146" fill="#F48266" mask="url(#mask-2)" points="689.827 139.718 692.384 139.718 692.384 73.921 689.827 73.921"></polygon>
            </g>
        </g>
    </g>
</svg>