<?xml version="1.0" encoding="UTF-8"?>
<svg width="234px" height="66px" viewBox="0 0 234 66" version="1.1" xmlns="http://www.w3.org/2000/svg" xmlns:xlink="http://www.w3.org/1999/xlink">
    <!-- Generator: sketchtool 46.2 (44496) - http://www.bohemiancoding.com/sketch -->
    <title>A89447B2-692A-493A-8D10-8733C914CF77</title>
    <desc>Created with sketchtool.</desc>
    <defs></defs>
    <g id="Page-1" stroke="none" stroke-width="1" fill="none" fill-rule="evenodd">
        <g id="MainPage-vagon" transform="translate(-868.000000, -507.000000)" fill="#DCDDD8">
            <g id="Numbers" transform="translate(868.000000, 507.000000)">
                <path d="M84.675,11.816 L113.991,11.816 L113.991,2.395 L84.675,2.395 L84.675,11.816 Z M83.959,0.965 L115.421,0.965 L115.421,13.248 L83.243,13.248 L83.243,0.965 L83.959,0.965 L83.959,0.965 Z" id="Fill-509"></path>
                <path d="M92.962,10.774 L86.715,10.774 L86.715,3.689 L93.48,3.689 L93.48,10.774 L92.962,10.774 Z M87.75,9.74 L92.444,9.74 L92.444,4.725 L87.75,4.725 L87.75,9.74 Z" id="Fill-510"></path>
                <polygon id="Fill-511" points="95.193 6.085 102.21 6.085 102.21 3.712 95.193 3.712"></polygon>
                <polygon id="Fill-512" points="95.197 10.24 111.994 10.24 111.994 7.867 95.197 7.867"></polygon>
                <path d="M15.686,12.95 L8.64,12.95 L8.64,4.964 L16.27,4.964 L16.27,12.95 L15.686,12.95 Z M9.808,11.784 L15.103,11.784 L15.103,6.131 L9.808,6.131 L9.808,11.784 Z" id="Fill-513"></path>
                <polygon id="Fill-514" points="10.897 10.325 13.756 10.325 13.756 7.765 10.897 7.765"></polygon>
                <polygon id="Fill-515" points="17.877 12.526 22.146 12.526 22.146 6.478 17.877 6.478"></polygon>
                <polygon id="Fill-516" points="23.086 12.526 27.355 12.526 27.355 6.478 23.086 6.478"></polygon>
                <polygon id="Fill-517" points="28.199 12.526 36.633 12.526 36.633 6.478 28.199 6.478"></polygon>
                <path d="M11.617,36.615 C11.617,37.551 11.465,38.418 11.168,39.217 C10.871,40.017 10.449,40.705 9.912,41.282 C9.366,41.873 8.69,42.338 7.877,42.676 C7.065,43.015 6.16,43.183 5.152,43.183 C4.223,43.183 3.313,43.08 2.416,42.876 C1.519,42.672 0.738,42.405 0.081,42.072 L0.081,39.319 L0.263,39.319 C0.461,39.47 0.746,39.64 1.12,39.83 C1.492,40.017 1.906,40.194 2.359,40.363 C2.869,40.549 3.334,40.692 3.762,40.793 C4.188,40.896 4.663,40.944 5.191,40.944 C5.715,40.944 6.222,40.851 6.714,40.665 C7.211,40.478 7.633,40.176 7.989,39.759 C8.313,39.377 8.557,38.933 8.726,38.418 C8.895,37.907 8.979,37.303 8.979,36.61 C8.979,35.922 8.885,35.358 8.7,34.918 C8.513,34.475 8.242,34.111 7.887,33.822 C7.514,33.493 7.057,33.262 6.515,33.125 C5.973,32.991 5.369,32.925 4.703,32.925 C4.001,32.925 3.295,32.978 2.584,33.089 C1.87,33.2 1.306,33.308 0.879,33.405 L0.879,23.413 L11.509,23.413 L11.509,25.678 L3.383,25.678 L3.383,30.842 C3.695,30.811 4.005,30.785 4.308,30.767 C4.61,30.749 4.89,30.74 5.138,30.74 C6.128,30.74 6.962,30.825 7.652,30.989 C8.335,31.153 8.992,31.474 9.627,31.948 C10.267,32.436 10.759,33.04 11.102,33.768 C11.444,34.497 11.617,35.447 11.617,36.615" id="Fill-630"></path>
                <path d="M93.83,36.615 C93.83,37.551 93.679,38.418 93.38,39.217 C93.083,40.017 92.662,40.705 92.124,41.282 C91.578,41.873 90.903,42.338 90.09,42.676 C89.278,43.015 88.372,43.183 87.364,43.183 C86.436,43.183 85.526,43.08 84.628,42.876 C83.732,42.672 82.951,42.405 82.292,42.072 L82.292,39.319 L82.475,39.319 C82.674,39.47 82.958,39.64 83.332,39.83 C83.705,40.017 84.119,40.194 84.571,40.363 C85.082,40.549 85.547,40.692 85.975,40.793 C86.401,40.896 86.875,40.944 87.404,40.944 C87.928,40.944 88.434,40.851 88.927,40.665 C89.424,40.478 89.847,40.176 90.202,39.759 C90.526,39.377 90.77,38.933 90.939,38.418 C91.108,37.907 91.192,37.303 91.192,36.61 C91.192,35.922 91.099,35.358 90.913,34.918 C90.726,34.475 90.455,34.111 90.1,33.822 C89.727,33.493 89.269,33.262 88.727,33.125 C88.186,32.991 87.582,32.925 86.916,32.925 C86.213,32.925 85.508,32.978 84.797,33.089 C84.083,33.2 83.519,33.308 83.092,33.405 L83.092,23.413 L93.723,23.413 L93.723,25.678 L85.597,25.678 L85.597,30.842 C85.908,30.811 86.219,30.785 86.521,30.767 C86.822,30.749 87.102,30.74 87.351,30.74 C88.34,30.74 89.176,30.825 89.865,30.989 C90.547,31.153 91.205,31.474 91.839,31.948 C92.48,32.436 92.973,33.04 93.314,33.768 C93.657,34.497 93.83,35.447 93.83,36.615" id="Fill-631"></path>
                <path d="M14.902,37.694 L17.859,37.694 L17.859,37.85 C17.859,38.728 18.156,39.426 18.756,39.95 C19.356,40.469 20.168,40.732 21.194,40.732 C22.348,40.732 23.241,40.443 23.867,39.866 C24.498,39.288 24.813,38.458 24.813,37.375 C24.813,36.238 24.489,35.38 23.845,34.804 C23.196,34.225 22.228,33.938 20.945,33.938 C20.883,33.938 20.79,33.942 20.661,33.951 C20.528,33.96 20.43,33.964 20.359,33.964 L20.359,31.46 C20.421,31.46 20.515,31.464 20.639,31.473 C20.767,31.482 20.861,31.487 20.919,31.487 C22.051,31.487 22.899,31.251 23.472,30.776 C24.045,30.305 24.333,29.608 24.333,28.689 C24.333,27.876 24.076,27.227 23.556,26.748 C23.042,26.264 22.348,26.025 21.482,26.025 C20.55,26.025 19.826,26.246 19.298,26.695 C18.774,27.142 18.499,27.774 18.472,28.582 L15.679,28.582 C15.768,26.961 16.318,25.713 17.335,24.847 C18.348,23.982 19.759,23.546 21.563,23.546 C23.308,23.546 24.689,23.999 25.71,24.91 C26.727,25.82 27.237,27.05 27.237,28.604 C27.237,29.772 26.949,30.736 26.372,31.482 C25.794,32.232 24.995,32.684 23.969,32.841 C25.173,33.058 26.092,33.587 26.722,34.43 C27.348,35.269 27.664,36.384 27.664,37.774 C27.664,39.466 27.073,40.807 25.888,41.801 C24.706,42.792 23.103,43.289 21.083,43.289 C19.253,43.289 17.775,42.783 16.656,41.775 C15.542,40.763 14.955,39.404 14.902,37.694" id="Fill-632"></path>
                <path d="M31.65,37.694 L34.607,37.694 L34.607,37.85 C34.607,38.728 34.905,39.426 35.503,39.95 C36.104,40.469 36.916,40.732 37.942,40.732 C39.096,40.732 39.989,40.443 40.615,39.866 C41.246,39.288 41.561,38.458 41.561,37.375 C41.561,36.238 41.237,35.38 40.592,34.804 C39.945,34.225 38.977,33.938 37.694,33.938 C37.63,33.938 37.538,33.942 37.409,33.951 C37.276,33.96 37.177,33.964 37.108,33.964 L37.108,31.46 C37.169,31.46 37.262,31.464 37.387,31.473 C37.516,31.482 37.609,31.487 37.667,31.487 C38.798,31.487 39.647,31.251 40.219,30.776 C40.792,30.305 41.082,29.608 41.082,28.689 C41.082,27.876 40.824,27.227 40.305,26.748 C39.789,26.264 39.096,26.025 38.231,26.025 C37.297,26.025 36.575,26.246 36.045,26.695 C35.522,27.142 35.247,27.774 35.219,28.582 L32.426,28.582 C32.516,26.961 33.067,25.713 34.083,24.847 C35.096,23.982 36.507,23.546 38.311,23.546 C40.055,23.546 41.437,23.999 42.458,24.91 C43.475,25.82 43.986,27.05 43.986,28.604 C43.986,29.772 43.697,30.736 43.12,31.482 C42.542,32.232 41.744,32.684 40.717,32.841 C41.92,33.058 42.839,33.587 43.469,34.43 C44.096,35.269 44.412,36.384 44.412,37.774 C44.412,39.466 43.821,40.807 42.635,41.801 C41.455,42.792 39.851,43.289 37.831,43.289 C36.001,43.289 34.523,42.783 33.404,41.775 C32.289,40.763 31.703,39.404 31.65,37.694" id="Fill-633"></path>
                <path d="M60.494,40.305 L60.494,42.783 L47.732,42.783 L54.854,34.262 C55.738,33.196 56.381,32.259 56.79,31.451 C57.199,30.647 57.403,29.914 57.403,29.253 C57.403,28.31 57.124,27.565 56.564,27.023 C56.003,26.482 55.236,26.211 54.268,26.211 C53.398,26.211 52.683,26.482 52.119,27.023 C51.555,27.569 51.239,28.28 51.168,29.169 L48.185,29.169 C48.185,27.459 48.756,26.095 49.903,25.074 C51.049,24.057 52.584,23.546 54.521,23.546 C56.359,23.546 57.812,24.017 58.873,24.963 C59.934,25.909 60.467,27.197 60.467,28.826 C60.467,29.985 60.161,31.158 59.552,32.343 C58.939,33.525 57.647,35.243 55.67,37.499 L53.25,40.305 L60.494,40.305" id="Fill-634"></path>
                <polyline id="Fill-635" points="70.954 42.783 70.954 26.371 67.011 26.371 68.209 23.92 73.778 23.92 73.778 42.783 70.954 42.783"></polyline>
                <path d="M110.783,33.613 C110.783,36.637 110.174,39.009 108.953,40.723 C107.737,42.432 106.063,43.289 103.931,43.289 C101.769,43.289 100.089,42.423 98.891,40.696 C97.687,38.964 97.087,36.535 97.087,33.405 C97.087,30.3 97.697,27.881 98.909,26.148 C100.121,24.412 101.808,23.546 103.967,23.546 C106.151,23.546 107.833,24.417 109.015,26.153 C110.192,27.893 110.783,30.381 110.783,33.613 M103.877,40.625 C105.143,40.625 106.098,40.02 106.733,38.808 C107.373,37.6 107.692,35.789 107.692,33.378 C107.692,31.038 107.376,29.253 106.746,28.027 C106.12,26.797 105.201,26.183 103.993,26.183 C102.737,26.183 101.786,26.797 101.142,28.017 C100.499,29.244 100.179,31.047 100.179,33.431 C100.179,35.745 100.499,37.525 101.138,38.764 C101.773,40.003 102.688,40.625 103.877,40.625" id="Fill-636"></path>
                <path d="M113.863,37.694 L116.82,37.694 L116.82,37.85 C116.82,38.728 117.118,39.426 117.717,39.95 C118.317,40.469 119.129,40.732 120.155,40.732 C121.31,40.732 122.202,40.443 122.828,39.866 C123.458,39.288 123.774,38.458 123.774,37.375 C123.774,36.238 123.45,35.38 122.806,34.804 C122.157,34.225 121.19,33.938 119.906,33.938 C119.844,33.938 119.75,33.942 119.622,33.951 C119.489,33.96 119.391,33.964 119.32,33.964 L119.32,31.46 C119.382,31.46 119.476,31.464 119.6,31.473 C119.728,31.482 119.822,31.487 119.88,31.487 C121.012,31.487 121.86,31.251 122.433,30.776 C123.006,30.305 123.293,29.608 123.293,28.689 C123.293,27.876 123.037,27.227 122.517,26.748 C122.002,26.264 121.31,26.025 120.443,26.025 C119.511,26.025 118.787,26.246 118.259,26.695 C117.735,27.142 117.459,27.774 117.433,28.582 L114.64,28.582 C114.729,26.961 115.279,25.713 116.296,24.847 C117.309,23.982 118.72,23.546 120.523,23.546 C122.269,23.546 123.65,23.999 124.671,24.91 C125.688,25.82 126.198,27.05 126.198,28.604 C126.198,29.772 125.91,30.736 125.333,31.482 C124.755,32.232 123.956,32.684 122.93,32.841 C124.134,33.058 125.053,33.587 125.683,34.43 C126.309,35.269 126.625,36.384 126.625,37.774 C126.625,39.466 126.034,40.807 124.848,41.801 C123.667,42.792 122.064,43.289 120.043,43.289 C118.214,43.289 116.736,42.783 115.617,41.775 C114.502,40.763 113.916,39.404 113.863,37.694" id="Fill-637"></path>
                <polyline id="Fill-638" points="37.972 65.317 37.972 54.432 35.357 54.432 36.152 52.806 39.845 52.806 39.845 65.317 37.972 65.317"></polyline>
                <path d="M51.159,63.674 L51.159,65.318 L42.693,65.318 L47.417,59.666 C48.004,58.958 48.431,58.337 48.702,57.801 C48.972,57.268 49.108,56.782 49.108,56.343 C49.108,55.719 48.923,55.224 48.552,54.865 C48.18,54.505 47.671,54.326 47.03,54.326 C46.453,54.326 45.977,54.505 45.603,54.865 C45.229,55.227 45.02,55.698 44.973,56.287 L42.995,56.287 C42.995,55.153 43.374,54.249 44.134,53.572 C44.894,52.897 45.913,52.559 47.198,52.559 C48.417,52.559 49.379,52.871 50.083,53.498 C50.788,54.125 51.141,54.979 51.141,56.061 C51.141,56.829 50.937,57.607 50.535,58.393 C50.127,59.176 49.27,60.316 47.959,61.813 L46.354,63.674 L51.159,63.674" id="Fill-639"></path>
                <polyline id="Fill-641" points="231.4 56.674 231.4 45.788 228.785 45.788 229.581 44.162 233.273 44.162 233.273 56.674 231.4 56.674"></polyline>
            </g>
        </g>
    </g>
</svg>