<?xml version="1.0" encoding="UTF-8"?>
<svg width="1221px" height="25px" viewBox="0 0 1221 25" version="1.1" xmlns="http://www.w3.org/2000/svg" xmlns:xlink="http://www.w3.org/1999/xlink">
    <!-- Generator: sketchtool 46.2 (44496) - http://www.bohemiancoding.com/sketch -->
    <title>B41142AC-15B1-4D9A-891A-EBD1363C668C</title>
    <desc>Created with sketchtool.</desc>
    <defs></defs>
    <g id="Page-1" stroke="none" stroke-width="1" fill="none" fill-rule="evenodd" stroke-linecap="round" stroke-linejoin="round">
        <g id="MainPage-vagon" transform="translate(-109.000000, -765.000000)" stroke="#F48266" stroke-width="1.417">
            <path d="M1328.897,778.359 L1308.769,778.359 L1308.769,789 L1280.085,789 L1280.085,778.359 L1232.331,778.359 L1232.331,789 L1203.663,789 L1203.663,778.359 L1155.924,778.359 L1155.924,789 L1127.214,789 L1127.214,778.359 L1079.481,778.359 L1079.481,789 L1050.791,789 L1050.791,778.359 L1003.04,778.359 L1003.04,789 L974.339,789 L974.339,778.359 L926.632,778.359 L926.632,789 L897.926,789 L897.926,778.359 L850.201,778.359 L850.201,789 L821.502,789 L821.502,778.359 L773.764,778.359 L773.764,789 L745.068,789 L745.068,778.359 L697.326,778.359 L697.326,789 L668.633,789 L668.633,778.359 L620.903,778.359 L620.903,789 L592.219,789 L592.219,778.359 L544.465,778.359 L544.465,789 L515.783,789 L515.783,778.359 L468.029,778.359 L468.029,789 L439.344,789 L439.344,778.359 L391.62,778.359 L391.62,789 L362.935,789 L362.935,778.359 L315.183,778.359 L315.183,789 L286.489,789 L286.489,778.359 L238.748,778.359 L238.748,789 L210.051,789 L210.051,778.359 L162.308,778.359 L162.308,789 L133.628,789 L133.628,778.359 L110,778.359 M110,765.996 L1328.897,765.996" id="rails"></path>
        </g>
    </g>
</svg>