<?xml version="1.0" encoding="UTF-8"?>
<svg width="755px" height="256px" viewBox="0 0 755 256" version="1.1" xmlns="http://www.w3.org/2000/svg" xmlns:xlink="http://www.w3.org/1999/xlink">
    <!-- Generator: sketchtool 46.2 (44496) - http://www.bohemiancoding.com/sketch -->
    <title>7467E1B0-25E0-458F-B91F-D145BF855284</title>
    <desc>Created with sketchtool.</desc>
    <defs>
        <polygon id="path-1" points="0 255.487 754.071 255.487 754.071 0 0 0"></polygon>
    </defs>
    <g id="Page-1" stroke="none" stroke-width="1" fill="none" fill-rule="evenodd">
        <g id="MainPage-vagon" transform="translate(-158.000000, -112.000000)">
            <g id="Telegka" transform="translate(158.000000, 112.000000)">
                <path d="M655.1678,50.0555 C655.3148,49.9675 655.4708,49.8935 655.6218,49.8135 C655.6068,49.7695 655.5858,49.7325 655.5728,49.6875 C655.5618,49.6465 655.5618,49.6025 655.5528,49.5605 L648.0118,49.5605 L648.0118,71.3675 L648.9648,71.3675 C649.1088,71.1765 649.2648,70.9935 649.4388,70.8265 C648.7428,70.7085 648.5078,70.3115 648.5078,69.3845 L648.5078,50.0555 L655.1678,50.0555 Z" id="Fill-1" fill="#F48266"></path>
                <path d="M753.0809,51.0496 C753.0039,50.9606 752.8939,50.8406 752.8509,50.7826 C752.8079,50.7246 752.6729,50.5876 752.6219,50.5136 L750.1029,46.0886 L753.0809,46.0886 L753.0809,51.0496 Z M745.6579,54.5086 C744.1159,51.6586 742.9439,48.7186 741.1849,46.0916 L746.1419,46.0916 C747.1519,50.4296 753.0799,56.8416 753.0799,61.9506 C748.6319,61.9506 750.1379,62.7876 745.6579,54.5086 L745.6579,54.5086 Z M741.1849,61.9506 C739.3419,57.2406 735.8509,52.0206 734.0629,48.2576 C733.6379,47.3626 733.5289,46.7056 733.2559,46.0916 C737.5279,46.0916 736.6449,45.2646 741.0189,53.6866 C742.2589,56.0726 744.2369,59.4286 745.1499,61.9506 L741.1849,61.9506 Z M733.2559,61.9506 L725.3249,46.0916 L728.7949,46.0916 L736.7249,61.9506 L733.2559,61.9506 Z M703.5179,31.7186 L753.0789,31.7186 L753.0789,26.2666 L703.5179,26.2666 L703.5179,31.7186 Z M750.1059,40.1446 L752.5849,40.1446 L752.5849,32.2146 L750.1059,32.2146 L750.1059,40.1446 Z M738.2119,40.4756 L703.5179,40.1436 L703.5179,33.7016 C707.8309,33.3426 705.1519,31.7616 713.8429,32.3306 L749.6099,32.2146 C749.6099,42.4896 751.2299,40.4756 738.2119,40.4756 L738.2119,40.4756 Z M693.1109,11.8946 L662.8799,11.8946 L662.8799,5.4516 L720.3679,5.4516 L720.3699,11.8946 C710.3679,11.4176 702.3859,11.8946 693.1109,11.8946 L693.1109,11.8946 Z M702.5279,25.7726 L696.5799,25.7716 L696.5799,12.8856 L698.0669,12.8856 C700.0789,12.8856 700.3049,12.8536 702.5279,12.8856 L702.5279,25.7726 Z M696.5799,44.6046 L702.5269,44.6046 L702.5269,26.2666 L696.5799,26.2666 L696.5799,44.6046 Z M696.0849,17.8426 L664.3659,17.8426 L664.3659,13.3816 C656.2149,13.3816 657.4289,12.3686 657.4289,17.8426 L653.4639,17.8426 L653.4639,12.8856 L687.2289,12.7616 C697.6269,12.8856 696.0849,11.3406 696.0849,17.8426 L696.0849,17.8426 Z M681.2179,25.6076 C675.6539,25.6076 670.0929,25.6056 664.4249,25.6106 L664.3759,19.3876 C673.4179,18.2606 686.5689,18.8336 696.0849,18.8336 C696.0849,27.4696 696.9449,25.6076 681.2179,25.6076 L681.2179,25.6076 Z M664.3659,31.7186 L696.0859,31.7186 L696.0859,26.2666 L664.3659,26.2666 L664.3659,31.7186 Z M657.2639,25.6076 L653.5889,25.6096 L653.4639,23.7896 L653.4639,22.3026 C654.4059,21.8496 656.1079,21.4206 657.4289,21.3106 L657.4609,23.7916 L657.2639,25.6076 Z M653.4639,31.7186 L657.4289,31.7186 L657.4289,26.2666 L653.4639,26.2666 L653.4639,31.7186 Z M653.4639,40.1446 L654.9489,40.1446 L654.9489,34.6926 L653.4639,34.6926 L653.4639,40.1446 Z M661.8899,9.4146 L661.8899,11.4006 C660.8049,10.8656 661.7149,11.2526 660.3969,10.9086 C661.1009,8.8066 660.5219,10.8566 661.8899,9.4146 L661.8899,9.4146 Z M720.8619,22.7956 L720.8619,19.8236 C720.8619,17.6696 729.4129,18.6726 733.7879,18.5316 C736.7239,18.4356 739.7289,18.5056 742.6729,18.4996 C744.7559,18.4966 749.6119,17.6576 749.6119,19.8236 C749.6119,27.0416 750.3009,25.7936 742.6719,25.7746 L717.8899,25.7736 C717.8439,23.6646 717.4699,23.7276 716.4029,22.7956 L720.8619,22.7956 Z M715.9089,23.2936 C713.6119,24.7956 709.9069,24.5836 703.6269,24.0596 L703.5179,18.8336 L714.4229,18.8336 C714.8669,20.7456 715.5499,21.0066 715.9089,23.2936 L715.9089,23.2936 Z M714.9179,18.8336 L720.3699,18.8336 L720.3699,21.8066 L717.3959,21.8066 L716.4249,21.7956 L714.9179,18.8336 Z M752.6159,23.7916 L752.4199,25.6076 L750.2289,25.6106 L750.1059,23.7896 L750.1059,18.8336 L752.5849,18.8336 L752.6159,23.7916 Z M753.0799,12.8856 L753.0799,17.8426 L703.5179,17.8426 L703.5179,12.8626 L753.0799,12.8856 Z M750.1059,11.8946 L752.5849,11.8946 L752.5849,0.9916 L750.1059,0.9916 L750.1059,11.8946 Z M652.4729,25.7716 L646.5239,25.7716 L646.5239,12.8856 C649.2409,12.8856 650.1079,12.8516 652.4729,12.8856 L652.4729,25.7716 Z M646.5249,44.6046 L652.4729,44.6046 L652.4729,26.2666 L646.5249,26.2666 L646.5249,44.6046 Z M644.7969,25.8176 C644.7819,25.7076 622.0059,25.7716 618.7709,25.7716 C602.2569,25.7716 602.2269,27.4986 602.4899,21.2746 C602.6079,18.4836 602.6079,18.4916 605.3879,18.5336 L639.3809,18.5766 C648.2759,18.3346 645.5329,17.7146 645.5329,24.0376 C646.2719,25.7596 646.6059,24.6256 644.7969,25.8176 L644.7969,25.8176 Z M644.5429,31.7186 L595.9739,31.7186 L595.9739,26.2666 L644.5429,26.2666 C646.5949,26.2666 646.5929,31.7186 644.5429,31.7186 L644.5429,31.7186 Z M614.3099,40.1436 L614.3099,34.6926 L644.0509,34.6596 L645.9439,34.8536 L646.0289,40.1436 L614.3099,40.1436 Z M603.9019,40.4766 C601.6649,40.4766 602.5799,34.5726 602.5799,32.2266 L640.9859,32.1916 L640.5769,34.1966 L613.8149,34.1966 C613.8149,42.0246 615.6889,40.4746 603.9019,40.4766 L603.9019,40.4766 Z M606.2179,53.8566 C607.4979,51.2796 608.5799,48.9836 609.8489,46.5846 L614.3119,46.5846 C613.7349,48.8486 607.4609,59.1286 606.8779,61.4566 L602.9089,61.4566 C602.9749,58.5746 605.0189,56.2686 606.2179,53.8566 L606.2179,53.8566 Z M602.9109,46.5866 L605.3899,46.5866 L603.5689,50.7146 C602.7519,52.0446 603.6239,50.7226 602.9109,51.5426 L602.9109,46.5866 Z M622.2419,46.5846 C621.7069,48.8896 616.2149,58.7986 614.8089,61.4566 L610.8399,61.4566 C613.4729,56.4606 616.1389,51.5616 618.7689,46.5846 L622.2419,46.5846 Z M630.1699,46.5866 C629.6969,48.6166 624.1779,57.7726 622.7349,61.4546 L619.2679,61.4546 C619.8529,58.9366 625.0249,50.8676 626.7009,46.5866 L630.1699,46.5866 Z M592.0059,40.1456 L595.4789,40.1456 L595.4789,26.2646 L592.0059,26.2646 L592.0059,40.1456 Z M592.0089,0.4956 L595.4769,0.4956 L595.4769,10.4076 C595.4769,15.7036 595.2229,20.1846 595.4769,25.7726 L592.0089,25.7716 L592.0089,0.4956 Z M595.9739,12.8856 L644.0509,12.8526 L645.8649,13.0496 L645.8699,17.7196 L644.0469,17.8426 L595.9739,17.8426 L595.9739,12.8856 Z M753.7709,25.7696 L753.2409,25.7696 C752.5169,20.1826 754.1689,17.5106 753.8919,13.8846 C753.7399,11.9046 753.0389,11.6066 753.0569,7.9536 C753.0679,5.4676 753.0799,2.9836 753.0799,0.4956 L749.6099,0.4956 L749.5719,11.7286 L720.8639,11.9026 L720.8649,4.9566 L706.9879,4.4606 L662.3849,4.9326 C662.3849,10.2426 662.4389,8.3826 657.9099,9.4036 C654.9879,10.0626 653.8709,11.7126 651.0079,11.9166 C643.6839,12.4396 605.3099,11.8946 595.9739,11.8946 L595.9739,0.0006 L591.5129,0.0006 L591.3469,24.5996 C591.6639,25.6516 591.6659,26.8096 591.3519,27.8626 L591.3799,39.9226 L588.5409,40.1456 L588.5389,62.4466 L602.9109,62.4466 C602.9109,65.5926 602.7389,65.4196 605.8859,65.4196 L605.8859,65.4816 L628.2169,65.4816 L628.1869,65.4196 C632.8619,65.4196 629.3609,65.2826 631.1609,62.4466 L626.9129,61.3156 L634.6299,46.5246 L657.3379,46.2536 L657.3449,46.5006 C657.3599,46.4966 657.3749,46.4876 657.3919,46.4846 C657.7439,46.4186 658.0819,46.3716 658.4179,46.3406 L658.4179,45.6626 C658.0879,45.6476 657.7579,45.6126 657.4289,45.5596 L657.4289,45.5976 L602.9089,45.5976 L602.9109,41.1336 L646.0599,41.1346 L645.8589,45.0986 L653.4619,45.0986 L653.4619,41.6286 L657.4309,41.6286 L657.4309,41.7726 C657.5799,41.7316 657.7379,41.7026 657.9169,41.7036 C658.0839,41.7046 658.2509,41.7116 658.4179,41.7136 L658.4179,41.6256 C658.0639,41.5096 657.7329,41.3476 657.4269,41.1376 L655.9389,41.1376 L655.9389,35.1866 L657.4309,35.1866 L657.4309,35.2556 C657.7499,35.1466 658.0779,35.0516 658.4179,34.9786 L658.4179,14.3716 L663.3799,14.3716 L663.3789,34.6086 C663.8059,34.6486 664.2219,34.7326 664.6079,34.8746 C665.0799,33.8686 666.3589,34.3666 669.7409,34.0636 C675.0259,33.5886 676.6549,33.5996 682.3259,32.8276 C688.2029,32.0266 690.5099,32.2126 696.0869,32.2126 L696.0849,40.6416 L664.3639,41.1366 L664.3639,41.0466 C664.0459,41.0316 663.7159,41.0606 663.3789,41.1216 L663.3789,41.8066 C663.7079,41.8146 664.0369,41.8186 664.3659,41.8256 L664.3659,41.6306 L696.0849,41.6306 L696.0849,45.0996 L703.5179,45.0996 L703.5179,41.1346 L753.0799,41.1346 L753.0799,45.5956 L656.0549,45.5956 L656.0549,45.2416 C655.7969,45.2366 655.5389,45.2326 655.2809,45.2266 C655.2139,45.2966 655.1429,45.3606 655.0669,45.4176 L655.0669,46.2046 C655.4219,46.2846 655.7739,46.3896 656.1309,46.4846 C656.1419,46.4876 656.1489,46.4926 656.1599,46.4956 L656.1769,46.2496 L719.8739,46.0916 C721.2689,46.0916 728.3359,59.9766 728.7949,61.9506 L715.4129,62.4466 L715.4129,64.9236 L743.1629,64.8626 L743.1679,62.4466 L754.0709,62.4466 L754.0709,27.4306 C753.8879,26.8996 753.7899,26.3366 753.7709,25.7696 L753.7709,25.7696 Z" id="Fill-3" fill="#F48266"></path>
                <path d="M653.6668,50.0555 L698.5628,50.0555 L698.5628,68.8885 L698.4388,70.7095 L696.5828,70.9045 L690.1428,70.8475 L648.5538,70.8655 C648.5428,71.0345 648.5208,71.2005 648.4998,71.3675 L699.0588,71.3675 L699.0588,49.5605 L653.8318,49.5605 C653.7908,49.7295 653.7368,49.8955 653.6668,50.0555" id="Fill-5" fill="#F48266"></path>
                <path d="M668.0887,248.2132 C669.6877,248.8842 668.3007,248.0242 669.6927,249.0792 C670.6237,249.7852 669.9797,249.4372 670.6737,250.0522 C672.9917,252.1112 675.8127,251.8312 677.6347,249.8282 C678.2767,249.1222 678.7377,247.6952 678.7377,246.4732 C678.7377,242.5402 675.7517,243.7562 675.2727,240.5282 C676.5687,241.2192 677.6197,241.4642 678.6297,242.6172 C685.4367,250.3922 670.3297,258.0612 668.0887,248.2132 M670.9737,237.2212 C674.7807,237.2182 674.3397,237.5542 677.0877,238.3782 C674.6607,239.0172 672.3947,238.9882 670.9737,237.2212 M669.8177,221.6922 L669.8177,227.1442 C668.4187,227.0282 667.8357,227.1552 667.8357,225.6582 L667.8357,216.7362 L675.7657,216.7362 C675.7657,225.2192 676.6867,226.5012 674.2787,227.1442 L674.2787,221.6922 C671.2977,221.9402 672.7987,221.9402 669.8177,221.6922 M665.6907,248.2922 C665.1417,246.8352 664.6127,245.7102 665.3577,244.0782 C665.8237,244.4772 665.5427,243.7662 666.1907,245.1342 C667.2087,247.2802 666.2107,247.7242 665.6907,248.2922 M667.1757,226.4842 C665.4277,226.5472 664.7767,226.9232 663.4577,226.1522 C664.1137,225.6292 662.5507,225.3302 665.6537,225.3722 C667.7547,225.4002 667.0817,224.8262 667.1757,226.4842 M680.0607,224.8302 C679.9407,227.0092 678.8897,226.0332 676.4227,225.9912 C676.6117,223.8222 677.0017,225.7102 680.0607,224.8302 M674.9687,236.0462 L675.2697,230.6132 C677.5317,232.1282 679.4507,232.1282 681.7127,230.6132 C682.1247,229.7532 680.9567,218.6982 681.2447,214.7472 C681.7647,207.6222 680.4637,212.0912 679.7867,208.2392 C679.5017,206.6162 683.4747,178.1522 684.4197,169.5412 C683.6657,169.5462 682.9117,169.5562 682.1597,169.5762 C681.2607,179.9062 679.1287,194.0192 677.9497,205.0322 C677.5737,208.5522 678.3807,207.9242 676.3677,209.9552 C673.8427,212.4992 675.0107,210.9372 675.7657,213.7632 L667.8357,213.7632 C668.7377,211.2722 669.6037,213.1352 667.7617,210.4462 C666.3547,208.3922 666.8597,209.0492 666.8347,205.8432 C666.5687,195.0872 664.9727,182.2222 664.4327,171.0782 C663.6607,171.2412 662.8867,171.3952 662.1077,171.5372 L664.6767,209.4982 L662.3207,211.2882 C662.3007,214.0042 661.8077,230.3142 662.3927,231.5622 L668.3317,231.1092 C668.3317,233.1602 668.5457,234.5992 668.7597,235.9052 C669.0217,237.5042 669.8987,239.4712 671.3067,240.5232 L672.7287,241.5852 C674.3437,242.5732 677.9157,244.9682 674.5387,247.7242 C671.0247,250.5942 668.3087,246.3862 667.2837,244.4172 C666.3627,242.9222 665.0107,240.6362 662.8797,241.5172 C662.4657,242.3792 663.9217,242.8272 663.7207,244.6832 C663.3097,248.4702 664.8007,251.6442 666.2737,252.9902 C672.9787,259.1202 685.4207,253.1622 682.9337,243.7902 C681.5177,238.4532 676.8457,238.4192 674.9687,236.0462" id="Fill-7" fill="#F48266"></path>
                <path d="M606.4901,61.3255 C608.3491,61.3255 610.0361,62.0805 611.2541,63.2995 C612.4721,64.5175 613.2271,66.2035 613.2271,68.0635 C613.2271,69.9245 612.4721,71.6095 611.2541,72.8285 C610.0361,74.0475 608.3491,74.8015 606.4901,74.8015 C604.6291,74.8015 602.9441,74.0475 601.7241,72.8285 C600.5061,71.6095 599.7521,69.9245 599.7521,68.0635 C599.7521,66.2035 600.5061,64.5175 601.7241,63.2995 C602.9441,62.0805 604.6291,61.3255 606.4901,61.3255 M609.7061,64.8475 C608.8831,64.0245 607.7451,63.5155 606.4901,63.5155 C605.2331,63.5155 604.0961,64.0245 603.2721,64.8475 C602.4511,65.6705 601.9401,66.8075 601.9401,68.0635 C601.9401,69.3195 602.4511,70.4575 603.2721,71.2795 C604.0961,72.1025 605.2331,72.6125 606.4901,72.6125 C607.7451,72.6125 608.8831,72.1025 609.7061,71.2795 C610.5291,70.4575 611.0381,69.3185 611.0381,68.0635 C611.0381,66.8075 610.5291,65.6705 609.7061,64.8475" id="Fill-9" fill="#F48266"></path>
                <path d="M624.7557,61.3255 C626.6157,61.3255 628.3007,62.0805 629.5207,63.2995 C630.7387,64.5175 631.4937,66.2035 631.4937,68.0635 C631.4937,69.9245 630.7387,71.6095 629.5207,72.8285 C628.3007,74.0475 626.6157,74.8015 624.7557,74.8015 C622.8967,74.8015 621.2097,74.0475 619.9907,72.8285 C618.7737,71.6095 618.0187,69.9245 618.0187,68.0635 C618.0187,66.2035 618.7737,64.5175 619.9907,63.2995 C621.2097,62.0805 622.8967,61.3255 624.7557,61.3255 M627.9717,64.8475 C627.1497,64.0245 626.0107,63.5155 624.7557,63.5155 C623.5007,63.5155 622.3627,64.0245 621.5397,64.8475 C620.7167,65.6705 620.2077,66.8075 620.2077,68.0635 C620.2077,69.3195 620.7167,70.4575 621.5397,71.2795 C622.3627,72.1025 623.5007,72.6125 624.7557,72.6125 C626.0107,72.6125 627.1497,72.1025 627.9717,71.2795 C628.7947,70.4575 629.3037,69.3185 629.3037,68.0635 C629.3037,66.8075 628.7947,65.6705 627.9717,64.8475" id="Fill-11" fill="#F48266"></path>
                <mask id="mask-2" fill="white">
                    <use xlink:href="#path-1"></use>
                </mask>
                <g id="Clip-14"></g>
                <polygon id="Fill-13" fill="#F48266" mask="url(#mask-2)" points="715.493 64.796 743.412 64.796 743.412 61.232 715.493 61.232"></polygon>
                <path d="M719.2059,61.3255 C721.0659,61.3255 722.7509,62.0805 723.9699,63.2995 C725.1889,64.5175 725.9429,66.2035 725.9429,68.0635 C725.9429,69.9245 725.1889,71.6095 723.9699,72.8285 C722.7509,74.0475 721.0659,74.8015 719.2059,74.8015 C717.3459,74.8015 715.6599,74.0475 714.4409,72.8285 C713.2219,71.6095 712.4679,69.9245 712.4679,68.0635 C712.4679,66.2035 713.2219,64.5175 714.4409,63.2995 C715.6599,62.0805 717.3459,61.3255 719.2059,61.3255 M722.4219,64.8475 C721.5989,64.0245 720.4609,63.5155 719.2059,63.5155 C717.9499,63.5155 716.8129,64.0245 715.9899,64.8475 C715.1669,65.6705 714.6569,66.8075 714.6569,68.0635 C714.6569,69.3195 715.1669,70.4575 715.9899,71.2795 C716.8129,72.1025 717.9499,72.6125 719.2059,72.6125 C720.4609,72.6125 721.5989,72.1025 722.4219,71.2795 C723.2449,70.4575 723.7539,69.3185 723.7539,68.0635 C723.7539,66.8075 723.2449,65.6705 722.4219,64.8475" id="Fill-15" fill="#F48266" mask="url(#mask-2)"></path>
                <path d="M737.4725,61.3255 C739.3315,61.3255 741.0185,62.0805 742.2365,63.2995 C743.4545,64.5175 744.2095,66.2035 744.2095,68.0635 C744.2095,69.9245 743.4545,71.6095 742.2365,72.8285 C741.0185,74.0475 739.3315,74.8015 737.4725,74.8015 C735.6125,74.8015 733.9265,74.0475 732.7065,72.8285 C731.4885,71.6095 730.7345,69.9245 730.7345,68.0635 C730.7345,66.2035 731.4885,64.5175 732.7065,63.2995 C733.9265,62.0805 735.6125,61.3255 737.4725,61.3255 M740.6885,64.8475 C739.8655,64.0245 738.7285,63.5155 737.4725,63.5155 C736.2175,63.5155 735.0785,64.0245 734.2555,64.8475 C733.4335,65.6705 732.9235,66.8075 732.9235,68.0635 C732.9235,69.3195 733.4335,70.4575 734.2555,71.2795 C735.0785,72.1025 736.2175,72.6125 737.4725,72.6125 C738.7285,72.6125 739.8655,72.1025 740.6885,71.2795 C741.5115,70.4575 742.0205,69.3185 742.0205,68.0635 C742.0205,66.8075 741.5115,65.6705 740.6885,64.8475" id="Fill-16" fill="#F48266" mask="url(#mask-2)"></path>
                <polygon id="Fill-17" fill="#F48266" mask="url(#mask-2)" points="627.0399 59.5701 648.9389 69.4901 648.3099 70.4991 626.7169 60.7681"></polygon>
                <polygon id="Fill-18" fill="#F48266" mask="url(#mask-2)" points="715.4813 61.2327 698.2913 69.5417 698.8503 70.4987 716.0423 62.1897"></polygon>
                <polygon id="Fill-19" fill="#F48266" mask="url(#mask-2)" points="630.2147 61.2327 628.7267 61.2327 628.7267 64.7967 631.0877 64.7967 631.0877 61.8827"></polygon>
                <path d="M583.4315,41.5047 C582.0265,39.1637 580.8825,35.9227 579.9865,33.0577 C579.4015,31.1877 579.2445,30.0757 578.8095,28.2217 C578.1605,25.4617 578.1565,26.7467 578.7445,24.3857 L579.1855,24.3887 C579.1625,24.2287 579.1435,24.0677 579.1265,23.9057 L578.7445,23.9087 C578.1465,21.6607 576.2975,20.8147 574.8755,21.5877 C575.1065,22.4217 575.2575,23.2887 575.2975,24.1807 C575.3835,26.1007 574.8295,27.9197 573.8595,29.4937 C573.6805,30.2037 573.3925,31.1207 572.9795,32.5087 C572.1705,35.2237 571.3405,37.7697 570.1715,40.1077 C568.1605,44.1257 564.3075,49.2267 558.4975,49.0087 C552.7735,48.7937 549.1605,44.0817 546.9505,39.8367 C545.2195,36.5107 542.1375,28.3577 543.0625,24.3957 L544.7195,24.3957 C544.7145,24.3237 544.7025,24.2537 544.7005,24.1807 C544.6965,24.0867 544.7055,23.9947 544.7035,23.9007 L543.0625,23.9007 C542.4195,21.4977 540.3075,20.7917 538.8865,21.7527 C539.1145,22.5677 539.2615,23.3857 539.2975,24.1807 C539.3685,25.7707 538.8865,27.4937 538.0945,29.0147 C536.7475,36.3697 531.8605,48.6807 522.7425,48.6807 C513.4375,48.6807 509.2835,36.4227 507.3705,28.3027 C506.7495,25.6637 506.6845,24.7577 507.9495,24.4687 C507.9185,24.2407 507.9015,24.0117 507.8835,23.7827 C506.2735,23.4487 507.8875,22.5917 504.9005,21.4227 C504.4215,21.4627 504.0295,21.5167 503.7055,21.5827 C504.0935,23.8757 503.5705,26.2947 502.4015,28.3567 C501.8615,35.1207 495.0455,48.1847 487.5545,48.1847 C479.4435,48.1847 473.2035,37.6067 471.6035,28.6337 C470.8375,26.8237 470.6315,24.7227 470.8995,22.7797 C469.6615,19.3467 466.5815,22.7267 465.7955,23.3387 C465.8055,23.7047 465.7905,24.0667 465.7555,24.4247 C466.0775,25.7877 466.2435,25.2517 466.2435,26.3787 C466.2435,29.2937 462.9175,38.2047 461.7785,40.2537 C458.5055,46.1347 455.7145,48.1847 449.3925,48.1847 C442.0235,48.1847 435.0195,33.7787 435.0195,26.3787 C435.0195,25.3307 435.1985,25.7247 435.5155,24.3957 L436.1445,24.3957 C436.1015,24.2317 436.0595,24.0677 436.0235,23.9007 L435.5155,23.9007 C434.6255,20.5647 430.9615,20.3057 430.0635,23.9007 C429.8655,23.9007 429.5675,23.9027 429.1935,23.9067 C429.1935,24.0697 429.2015,24.2327 429.1945,24.3957 L430.0635,24.3957 C431.8675,32.1367 423.9225,48.1847 415.1965,48.1847 C405.7995,48.1847 399.3365,33.5227 399.3365,25.8827 C399.3365,25.2517 400.0305,24.8387 401.1185,24.5747 C401.0555,24.3027 401.0085,24.0287 400.9645,23.7537 C400.5695,23.7027 400.2805,23.6457 400.1485,23.5797 C399.8155,23.4117 394.9405,18.2797 394.3805,23.9007 L394.2525,23.9007 C394.2385,24.0677 394.2255,24.2337 394.2055,24.3957 L394.3805,24.3957 C395.0805,32.8147 388.6035,48.6807 379.0175,48.6807 C374.9415,48.6807 369.1045,45.0807 369.1045,41.2467 L369.1045,40.8777 C368.9345,40.6987 368.7695,40.5137 368.6105,40.3197 L368.6105,42.9217 C362.6865,36.2467 362.6925,24.7907 362.6925,24.7907 C362.9575,24.4707 363.2475,24.2187 363.5535,24.0257 C363.5525,23.8627 363.5515,23.6857 363.5495,23.5257 C363.2415,22.8867 362.8775,22.2547 362.4395,21.6317 C362.1265,21.8527 361.4555,21.1327 360.0515,21.7487 C357.1235,23.0317 360.3705,23.0757 357.1525,23.8407 L355.6005,23.8437 C355.6335,24.0867 355.6535,24.3297 355.6685,24.5727 C357.5335,24.7527 358.7005,25.0127 358.7005,25.3867 C358.7005,33.7967 352.5165,49.1787 342.8375,49.1787 C334.6665,49.1787 330.2845,39.1027 328.3765,32.4147 C326.5905,26.1537 326.9135,26.2767 327.3975,25.8627 C327.2935,25.3137 327.2255,24.7507 327.2005,24.1767 C327.1715,23.5297 327.2225,22.8927 327.3315,22.2697 C325.7775,19.6067 323.3545,22.8027 322.5035,23.3857 C322.3205,23.5107 321.8955,23.6157 321.2915,23.7047 C321.2875,23.9347 321.2725,24.1647 321.2535,24.3957 L322.5175,24.3957 C324.6355,33.4807 315.5665,48.6807 309.1375,48.6807 L306.6595,48.6807 C298.5135,48.6807 291.7905,34.5257 291.7905,26.3787 C291.7905,25.3307 291.9685,25.7247 292.2865,24.3957 L293.7205,24.3957 C293.7155,24.3217 293.7035,24.2507 293.7005,24.1767 C293.6965,24.0907 293.7065,24.0037 293.7065,23.9167 C293.0775,23.9067 292.5905,23.9007 292.2865,23.9007 C291.4205,20.6567 287.7015,20.1817 286.8345,23.9007 L286.2595,23.9007 C286.2435,24.0667 286.2185,24.2307 286.1935,24.3947 L286.8345,24.3957 C288.5135,31.6027 280.9945,48.6807 272.9575,48.6807 L270.4805,48.6807 C262.3565,48.6807 257.3505,35.6107 255.9875,27.9067 C255.5575,25.4757 255.8855,24.6837 257.4255,24.4457 C257.3785,24.2107 257.3285,23.9767 257.2955,23.7367 C257.1575,23.6907 257.0315,23.6387 256.9195,23.5817 C256.1785,23.2007 252.4785,18.2027 251.1525,23.9007 L249.6615,23.9007 C249.6535,24.0647 249.6405,24.2287 249.6245,24.3917 C250.1335,24.3927 250.6265,24.3957 251.1525,24.3957 C252.3015,38.1997 238.5905,59.4797 226.0745,43.0317 C224.0205,40.3337 222.6675,36.6257 221.5635,33.1607 C220.1155,28.6137 219.2485,26.2977 220.7815,25.1527 C220.7495,24.7377 220.7335,24.3197 220.7355,23.9007 L220.4235,23.9007 C220.2535,22.3407 219.5675,21.4447 217.9325,21.4217 C215.7595,21.3907 216.1225,22.5887 214.9565,23.3877 C214.7235,23.5467 214.1085,23.6737 213.2105,23.7747 C213.2295,23.9477 213.2305,24.1217 213.2405,24.2957 C215.4295,24.5187 215.9955,25.3457 215.5565,27.8567 C214.2325,35.4037 209.2595,48.1847 201.0965,48.1847 L199.6085,48.1847 C190.4165,48.1847 184.0475,32.7307 184.7415,24.3957 L184.8205,24.3957 C184.7935,24.2337 184.7805,24.0667 184.7625,23.9007 L184.7415,23.9007 C183.9185,20.8187 180.9445,20.5037 179.6685,22.9357 C179.7305,23.3457 179.7785,23.7597 179.7975,24.1807 C179.8325,24.9727 179.7515,25.7457 179.5865,26.4947 C180.2005,35.8147 172.1065,48.6807 164.4205,48.6807 C155.2285,48.6807 148.5615,33.8977 148.5615,26.3787 C148.5615,25.3307 148.7395,25.7247 149.0575,24.3957 L149.8665,24.3957 C149.8515,24.2307 149.8295,24.0657 149.8225,23.9007 L149.0575,23.9007 C148.1915,20.6587 144.4725,20.1817 143.6055,23.9007 L143.1585,23.9007 C143.1675,24.0667 143.1665,24.2307 143.1685,24.3947 L143.6055,24.3957 C145.1025,30.8197 139.0565,48.6807 128.2425,48.6807 C118.9735,48.6807 114.7175,36.1217 112.9565,28.2067 C112.7495,27.2727 112.6295,26.5637 112.6335,26.0237 C112.3865,25.0917 112.2425,24.1307 112.2005,23.1807 C112.1825,22.7947 112.2065,22.3997 112.2505,22.0017 C111.9205,21.7787 111.3695,21.5767 110.4005,21.4217 L108.1335,23.1367 C108.2145,23.6507 108.2745,24.1667 108.2975,24.6807 C108.3345,25.4997 108.2115,26.3547 107.9895,27.1997 C107.7695,35.1647 100.7605,48.6807 94.5405,48.6807 L92.0625,48.6807 C83.0575,48.6807 76.4475,33.3887 77.1955,24.3887 L78.3785,24.3957 C78.3625,24.2317 78.3395,24.0687 78.3295,23.9037 L77.1955,23.9007 C77.0295,22.2337 76.3395,21.4717 74.6845,21.4397 C72.5235,21.3977 72.9175,22.5557 71.7635,23.3747 C71.7445,23.8137 71.7055,24.2397 71.6415,24.6477 C73.9775,26.2797 70.2765,35.3437 69.4745,37.4777 C68.1045,41.1187 64.8735,46.7497 61.3325,47.6917 L61.3325,46.7227 C61.1695,46.8077 61.0085,46.8947 60.8395,46.9707 L60.8395,48.1847 C59.7275,48.4447 59.7015,48.6807 58.3625,48.6807 L55.3895,48.6807 L55.3895,48.0297 C55.2235,48.0257 55.0575,48.0237 54.8925,48.0137 L54.8925,48.6807 C53.8065,48.4277 52.7895,47.9967 51.8355,47.4367 C48.7835,46.4547 46.2825,44.2587 45.6485,40.8457 C42.5245,35.6207 41.0155,29.2797 41.0155,26.3787 C41.0155,25.3307 41.1945,25.7247 41.5125,24.3957 L42.5245,24.3957 C42.5245,24.2307 42.5275,24.0657 42.5315,23.9007 L41.5125,23.9007 C40.5925,20.4567 36.9795,20.4567 36.0595,23.9007 L34.2515,23.9007 C34.2345,24.0667 34.2075,24.2307 34.1825,24.3957 L36.0595,24.3957 C37.7065,31.4657 29.5565,48.6807 22.6795,48.6807 L20.2005,48.6807 C12.1395,48.6807 8.0505,38.4177 6.1395,32.0137 C5.0105,28.2257 4.8765,27.9767 5.4275,25.8817 C5.2265,25.0147 5.1635,24.0847 5.2275,23.1427 C4.3045,21.9757 3.8505,21.3737 3.6335,20.5737 C3.5315,20.5867 3.4295,20.6077 3.3265,20.6177 C3.2395,20.6717 3.1615,20.7367 3.0735,20.7887 C2.9235,20.8527 2.7735,20.9157 2.6235,20.9787 C-1.2905,23.9687 -0.4525,24.8197 2.6895,27.5347 L2.6895,31.1567 C2.9505,31.6567 3.1785,32.1847 3.3505,32.7567 L3.3505,31.3337 C4.9065,33.7867 7.0145,51.1587 21.1915,51.1587 C32.3625,51.1587 36.3795,36.5767 38.7015,27.0367 C39.8665,29.7407 41.0555,46.9777 52.8105,50.6607 C54.6745,50.1227 56.6735,50.0387 58.5535,50.5087 C58.9075,50.5967 59.2615,50.6857 59.6145,50.7747 L60.8395,50.6627 L60.8395,51.0807 C61.0055,51.1217 61.1705,51.1627 61.3355,51.2047 L61.3355,50.1677 C71.0795,47.7347 73.1885,30.2747 74.7175,27.8657 C77.0815,38.0157 80.6575,51.1587 93.0545,51.1587 C103.9505,51.1587 108.2665,37.0247 110.4005,27.8657 C111.5955,29.7477 111.3265,35.3737 115.6925,42.8927 C117.9745,46.8207 122.2485,50.8697 127.8065,51.0707 C142.7725,51.6137 144.2055,30.5957 146.5785,28.8567 C146.5785,36.8957 153.5375,51.1587 164.9165,51.1587 C178.0105,51.1587 181.0785,29.5917 182.7595,28.3607 C182.7595,36.7167 189.9195,50.6627 199.6085,50.6627 C214.6595,50.6627 216.7445,29.7597 217.9465,27.8657 C218.6815,36.6937 225.3985,51.1587 234.3015,51.1587 L236.7795,51.1587 C245.5135,51.1587 253.1345,36.9597 253.1345,28.3607 C255.2535,29.4817 256.2965,51.1587 271.4715,51.1587 C283.4055,51.1587 287.0095,37.7537 289.3125,27.8657 C290.5835,29.8677 292.6475,51.1587 307.1555,51.1587 C313.3465,51.1587 316.8905,47.4317 319.4625,43.6397 C323.1545,38.1997 322.7335,34.4127 325.1605,29.0207 C326.1045,31.2277 329.0065,51.1587 341.3505,51.1587 L344.3255,51.1587 C352.3075,51.1587 358.7335,39.4237 360.3085,30.4037 C360.6965,35.0227 362.4305,41.7017 368.6105,46.7137 C371.0345,48.6807 372.1935,49.2917 372.6385,49.1937 C376.3285,51.0707 382.3005,52.7217 388.5745,46.3427 C391.0395,43.8357 392.4315,41.3367 393.8855,37.7847 C394.4825,36.3257 396.1715,27.9927 397.3545,27.3697 C397.3515,36.9127 404.5305,50.2607 414.7015,50.2607 C425.5115,50.2607 431.7395,37.0317 432.5415,27.3697 C433.3885,28.7047 434.0595,33.2417 434.6735,35.1607 C443.7245,63.4737 467.9175,48.0837 468.2255,26.8747 L469.2165,26.8747 C469.9795,36.0427 476.2425,50.1677 485.5725,50.1677 C502.3635,50.1677 501.2785,33.0787 504.9005,27.3697 C506.5015,37.4097 511.2665,50.6637 522.3205,50.9207 C537.6655,51.2777 538.8525,29.5387 541.0785,28.3607 C541.0785,36.4937 547.2955,48.6717 555.0575,50.8247 C557.9375,50.6047 560.8175,50.3907 563.6975,50.1797 C570.8885,46.8277 575.6245,35.5797 576.2685,27.8657 C577.4435,29.7187 578.2455,42.6347 586.1335,48.6397 C587.7535,48.5357 589.3735,48.4307 590.9945,48.3317 C587.6505,47.0257 585.3875,44.7607 583.4315,41.5047" id="Fill-20" fill="#F48266" mask="url(#mask-2)"></path>
            </g>
        </g>
    </g>
</svg>