<?xml version="1.0" encoding="UTF-8"?>
<svg width="589px" height="399px" viewBox="0 0 589 399" version="1.1" xmlns="http://www.w3.org/2000/svg" xmlns:xlink="http://www.w3.org/1999/xlink">
    <!-- Generator: sketchtool 46.2 (44496) - http://www.bohemiancoding.com/sketch -->
    <title>1EFB2A71-2D87-4337-A6D1-B34095F5FF0B</title>
    <desc>Created with sketchtool.</desc>
    <defs>
        <linearGradient x1="49.9967634%" y1="-0.0154939636%" x2="49.9967634%" y2="99.9086283%" id="linearGradient-1">
            <stop stop-color="#932524" offset="0%"></stop>
            <stop stop-color="#862623" offset="25.13%"></stop>
            <stop stop-color="#642721" offset="100%"></stop>
        </linearGradient>
    </defs>
    <g id="Page-1" stroke="none" stroke-width="1" fill="none" fill-rule="evenodd">
        <g id="MainPage-vagon-3" transform="translate(-757.000000, -263.000000)" fill-rule="nonzero">
            <g id="Layer_1" transform="translate(757.000000, 263.000000)">
                <g id="Group">
                    <rect id="Rectangle-path" fill="#AA5958" x="558.515712" y="14.7858311" width="2.39519409" height="180.039237"></rect>
                    <rect id="Rectangle-path" fill="#AA5958" x="544.471165" y="171.450409" width="14.0445471" height="2.39182561"></rect>
                    <rect id="Rectangle-path" fill="#AA5958" x="544.471165" y="129.376022" width="14.0445471" height="2.39182561"></rect>
                    <rect id="Rectangle-path" fill="#AA5958" x="544.471165" y="91.9765668" width="14.0445471" height="2.39182561"></rect>
                    <rect id="Rectangle-path" fill="#AA5958" x="544.471165" y="42.8354223" width="14.0445471" height="2.39182561"></rect>
                    <rect id="Rectangle-path" fill="#AA5958" transform="translate(553.101424, 8.581696) rotate(-44.995949) translate(-553.101424, -8.581696) " x="551.903754" y="-1.25800587" width="2.39534049" height="19.6794044"></rect>
                    <rect id="Rectangle-path" fill="#AA5958" x="467.171719" y="0.761035422" width="79.5857671" height="2.39182561"></rect>
                    <rect id="Rectangle-path" fill="#AA5958" x="490.579298" y="3.15286104" width="2.39519409" height="23.3746594"></rect>
                    <rect id="Rectangle-path" fill="#AA5958" x="528.031423" y="3.15286104" width="2.39519409" height="23.3746594"></rect>
                    <rect id="Rectangle-path" fill="#1F2D3D" x="556.120518" y="307.132153" width="23.4075786" height="28.0495913"></rect>
                    <rect id="Rectangle-path" fill="#000100" x="460.095009" y="311.807084" width="110.070055" height="16.4166213"></rect>
                    <rect id="Rectangle-path" fill="#000100" x="544.471165" y="314.090191" width="4.68151571" height="32.7245232"></rect>
                    <rect id="Rectangle-path" fill="#65605E" x="532.712939" y="314.090191" width="16.4397412" height="9.34986376"></rect>
                    <path d="M588.891128,330.506812 C588.891128,333.116076 586.822551,335.181744 584.209612,335.181744 L567.769871,335.181744 C565.156932,335.181744 563.088355,333.116076 563.088355,330.506812 L574.84658,309.415259 L574.84658,304.740327 L584.209612,304.740327 C586.822551,304.740327 588.891128,306.805995 588.891128,309.415259 L588.891128,330.506812 Z" id="Shape" fill="#494C55"></path>
                    <rect id="Rectangle-path" fill="#65605E" x="560.802033" y="307.132153" width="23.4075786" height="28.0495913"></rect>
                    <rect id="Rectangle-path" fill="#837F7D" x="560.802033" y="309.415259" width="23.4075786" height="2.28310627"></rect>
                    <rect id="Rectangle-path" fill="#837F7D" x="581.92329" y="311.807084" width="2.39519409" height="18.6997275"></rect>
                    <rect id="Rectangle-path" fill="#969696" x="560.802033" y="311.807084" width="2.39519409" height="18.6997275"></rect>
                    <rect id="Rectangle-path" fill="#1F2D3D" x="556.120518" y="318.765123" width="23.4075786" height="4.67493188"></rect>
                    <rect id="Rectangle-path" fill="#000100" x="556.120518" y="318.765123" width="23.4075786" height="2.28310627"></rect>
                    <rect id="Rectangle-path" fill="#837F7D" x="560.802033" y="316.482016" width="16.4397412" height="2.39182561"></rect>
                    <rect id="Rectangle-path" fill="#1F2D3D" x="577.241774" y="314.090191" width="2.39519409" height="16.4166213"></rect>
                    <rect id="Rectangle-path" fill="#000100" x="0.217744917" y="304.740327" width="532.495194" height="16.4166213"></rect>
                    <rect id="Rectangle-path" fill="#000100" x="99.509427" y="318.765123" width="187.369501" height="14.0247956"></rect>
                    <rect id="Rectangle-path" fill="#000100" x="127.598521" y="323.440054" width="32.77061" height="14.0247956"></rect>
                    <polygon id="Shape" fill="#000100" points="275.120702 332.789918 319.649538 377.256131 385.190758 377.256131 427.324399 335.181744 427.324399 314.090191 275.120702 314.090191"></polygon>
                    <path d="M396.948983,353.881471 C396.948983,378.452044 416.872643,398.347684 441.477819,398.347684 C466.082994,398.347684 486.006654,378.452044 486.006654,353.881471 C486.006654,329.310899 466.082994,309.415259 441.477819,309.415259 C416.872643,309.415259 396.948983,329.310899 396.948983,353.881471" id="Shape" fill="#6E7281"></path>
                    <path d="M401.630499,353.881471 C401.630499,375.842779 419.485582,393.672752 441.477819,393.672752 C463.470055,393.672752 481.325139,375.842779 481.325139,353.881471 C481.325139,331.920163 463.470055,314.090191 441.477819,314.090191 C419.37671,314.090191 401.630499,331.920163 401.630499,353.881471" id="Shape" fill="#76797D"></path>
                    <path d="M406.312015,353.881471 C406.312015,373.233515 421.989649,388.99782 441.477819,388.99782 C460.857116,388.99782 476.643623,373.342234 476.643623,353.881471 C476.643623,334.529428 460.965989,318.765123 441.477819,318.765123 C421.989649,318.765123 406.312015,334.529428 406.312015,353.881471" id="Shape" fill="#000100"></path>
                    <path d="M417.961368,339.856676 L443.76414,339.856676 C450.84085,339.856676 448.445656,356.273297 448.445656,356.273297 C448.445656,356.273297 462.490203,356.273297 462.490203,342.248501 C462.490203,332.898638 453.127172,330.506812 448.445656,330.506812 L417.961368,330.506812 L417.961368,339.856676 Z" id="Shape" fill="#363F51"></path>
                    <rect id="Rectangle-path" fill="#363F51" x="352.420148" y="335.181744" width="4.68151571" height="23.3746594"></rect>
                    <rect id="Rectangle-path" fill="#363F51" x="347.738632" y="365.514441" width="9.36303142" height="7.06675749"></rect>
                    <rect id="Rectangle-path" fill="#76797D" x="361.783179" y="356.164578" width="23.4075786" height="2.39182561"></rect>
                    <rect id="Rectangle-path" fill="#19253B" x="361.783179" y="353.881471" width="23.4075786" height="2.28310627"></rect>
                    <rect id="Rectangle-path" fill="#76797D" x="361.783179" y="349.20654" width="23.4075786" height="2.28310627"></rect>
                    <rect id="Rectangle-path" fill="#A2A8AE" x="366.464695" y="356.164578" width="9.36303142" height="2.39182561"></rect>
                    <rect id="Rectangle-path" fill="#363F51" x="366.464695" y="353.881471" width="9.36303142" height="2.28310627"></rect>
                    <rect id="Rectangle-path" fill="#76797D" x="361.783179" y="363.231335" width="23.4075786" height="2.28310627"></rect>
                    <rect id="Rectangle-path" fill="#19253B" x="361.783179" y="360.83951" width="23.4075786" height="2.39182561"></rect>
                    <rect id="Rectangle-path" fill="#A2A8AE" x="366.464695" y="363.231335" width="9.36303142" height="2.28310627"></rect>
                    <rect id="Rectangle-path" fill="#363F51" x="366.464695" y="360.83951" width="9.36303142" height="2.39182561"></rect>
                    <rect id="Rectangle-path" fill="#A2A8AE" x="366.464695" y="349.20654" width="9.36303142" height="2.28310627"></rect>
                    <rect id="Rectangle-path" fill="#19253B" x="361.783179" y="346.814714" width="23.4075786" height="2.39182561"></rect>
                    <rect id="Rectangle-path" fill="#363F51" x="366.464695" y="346.814714" width="9.36303142" height="2.39182561"></rect>
                    <rect id="Rectangle-path" fill="#76797D" x="361.783179" y="342.139782" width="23.4075786" height="2.28310627"></rect>
                    <rect id="Rectangle-path" fill="#A2A8AE" x="366.464695" y="342.139782" width="9.36303142" height="2.28310627"></rect>
                    <rect id="Rectangle-path" fill="#19253B" x="361.783179" y="339.856676" width="23.4075786" height="2.39182561"></rect>
                    <rect id="Rectangle-path" fill="#363F51" x="366.464695" y="339.856676" width="9.36303142" height="2.39182561"></rect>
                    <path d="M415.675046,342.139782 L415.675046,342.139782 C410.99353,346.814714 403.916821,353.881471 401.630499,356.164578 C399.235305,358.556403 394.553789,360.83951 394.553789,351.489646 C394.553789,350.72861 394.553789,342.900817 394.553789,342.139782 C394.662662,335.507902 395.315896,335.073025 401.521627,335.073025 L415.566174,335.073025 C417.961368,335.181744 420.356562,337.46485 415.675046,342.139782 M420.356562,325.83188 L352.420148,325.83188 L352.420148,335.181744 L378.222921,335.181744 C382.904436,335.181744 387.585952,337.573569 387.585952,344.531608 L387.585952,370.298093 C385.843993,372.581199 382.904436,374.973025 378.222921,374.973025 L352.420148,374.973025 L352.420148,382.039782 L382.904436,382.039782 C389.981146,382.039782 394.662662,374.973025 394.662662,374.973025 C394.662662,374.973025 413.388725,356.273297 425.14695,344.531608 C436.687431,332.789918 434.401109,325.83188 420.356562,325.83188" id="Shape" fill="#363F51"></path>
                    <path d="M455.413494,363.231335 C455.413494,365.840599 453.344917,367.906267 450.731978,367.906267 L432.005915,367.906267 C429.392976,367.906267 427.324399,365.840599 427.324399,363.231335 L427.324399,344.531608 C427.324399,341.922343 429.392976,339.856676 432.005915,339.856676 L450.731978,339.856676 C453.344917,339.856676 455.413494,341.922343 455.413494,344.531608 L455.413494,363.231335 Z" id="Shape" fill="#76797D"></path>
                    <path d="M429.719593,353.881471 C429.719593,360.295913 434.945471,365.623161 441.477819,365.623161 C447.901294,365.623161 453.236044,360.404632 453.236044,353.881471 C453.236044,347.46703 448.010166,342.139782 441.477819,342.139782 C434.945471,342.139782 429.719593,347.358311 429.719593,353.881471" id="Shape" fill="#000100"></path>
                    <path d="M432.005915,353.881471 C432.005915,359.1 436.251941,363.231335 441.368946,363.231335 C446.594824,363.231335 450.731978,358.991281 450.731978,353.881471 C450.731978,348.662943 446.485952,344.531608 441.368946,344.531608 C436.251941,344.531608 432.005915,348.662943 432.005915,353.881471" id="Shape" fill="#363F51"></path>
                    <path d="M436.687431,353.881471 C436.687431,356.490736 438.756007,358.556403 441.368946,358.556403 C443.981885,358.556403 446.050462,356.490736 446.050462,353.881471 C446.050462,351.272207 443.981885,349.20654 441.368946,349.20654 C438.86488,349.20654 436.687431,351.272207 436.687431,353.881471" id="Shape" fill="#76797D"></path>
                    <path d="M307.891312,353.881471 C307.891312,378.452044 287.967652,398.347684 263.362477,398.347684 C238.757301,398.347684 218.833641,378.452044 218.833641,353.881471 C218.833641,329.310899 238.757301,309.415259 263.362477,309.415259 C287.967652,309.415259 307.891312,329.310899 307.891312,353.881471" id="Shape" fill="#6E7281"></path>
                    <path d="M303.209797,353.881471 C303.209797,375.842779 285.354713,393.672752 263.362477,393.672752 C241.37024,393.672752 223.515157,375.842779 223.515157,353.881471 C223.515157,331.920163 241.37024,314.090191 263.362477,314.090191 C285.463586,314.090191 303.209797,331.920163 303.209797,353.881471" id="Shape" fill="#76797D"></path>
                    <path d="M298.528281,353.881471 C298.528281,373.233515 282.850647,388.99782 263.362477,388.99782 C243.983179,388.99782 228.196673,373.342234 228.196673,353.881471 C228.196673,334.529428 243.874307,318.765123 263.362477,318.765123 C282.850647,318.765123 298.528281,334.529428 298.528281,353.881471" id="Shape" fill="#000100"></path>
                    <path d="M286.878928,339.856676 L261.076155,339.856676 C253.999445,339.856676 256.39464,356.273297 256.39464,356.273297 C256.39464,356.273297 242.350092,356.273297 242.350092,342.248501 C242.350092,332.898638 251.713124,330.506812 256.39464,330.506812 L286.878928,330.506812 L286.878928,339.856676 Z" id="Shape" fill="#363F51"></path>
                    <rect id="Rectangle-path" fill="#363F51" x="347.738632" y="335.181744" width="4.68151571" height="23.3746594"></rect>
                    <rect id="Rectangle-path" fill="#76797D" x="319.649538" y="356.164578" width="23.4075786" height="2.39182561"></rect>
                    <rect id="Rectangle-path" fill="#19253B" x="319.649538" y="353.881471" width="23.4075786" height="2.28310627"></rect>
                    <rect id="Rectangle-path" fill="#76797D" x="319.649538" y="349.20654" width="23.4075786" height="2.28310627"></rect>
                    <rect id="Rectangle-path" fill="#A2A8AE" x="329.012569" y="356.164578" width="9.36303142" height="2.39182561"></rect>
                    <rect id="Rectangle-path" fill="#363F51" x="329.012569" y="353.881471" width="9.36303142" height="2.28310627"></rect>
                    <rect id="Rectangle-path" fill="#76797D" x="319.649538" y="363.231335" width="23.4075786" height="2.28310627"></rect>
                    <rect id="Rectangle-path" fill="#19253B" x="319.649538" y="360.83951" width="23.4075786" height="2.39182561"></rect>
                    <rect id="Rectangle-path" fill="#A2A8AE" x="329.012569" y="363.231335" width="9.36303142" height="2.28310627"></rect>
                    <rect id="Rectangle-path" fill="#363F51" x="329.012569" y="360.83951" width="9.36303142" height="2.39182561"></rect>
                    <rect id="Rectangle-path" fill="#A2A8AE" x="329.012569" y="349.20654" width="9.36303142" height="2.28310627"></rect>
                    <rect id="Rectangle-path" fill="#19253B" x="319.649538" y="346.814714" width="23.4075786" height="2.39182561"></rect>
                    <rect id="Rectangle-path" fill="#363F51" x="329.012569" y="346.814714" width="9.36303142" height="2.39182561"></rect>
                    <rect id="Rectangle-path" fill="#76797D" x="319.649538" y="342.139782" width="23.4075786" height="2.28310627"></rect>
                    <rect id="Rectangle-path" fill="#A2A8AE" x="329.012569" y="342.139782" width="9.36303142" height="2.28310627"></rect>
                    <rect id="Rectangle-path" fill="#19253B" x="319.649538" y="339.856676" width="23.4075786" height="2.39182561"></rect>
                    <rect id="Rectangle-path" fill="#363F51" x="329.012569" y="339.856676" width="9.36303142" height="2.39182561"></rect>
                    <path d="M289.16525,335.181744 L289.16525,335.181744 L303.209797,335.181744 C309.524399,335.181744 310.177634,335.616621 310.177634,342.248501 C310.177634,343.009537 310.177634,350.83733 310.177634,351.598365 C310.177634,360.948229 305.496118,358.665123 303.100924,356.273297 C300.70573,353.881471 293.737893,346.923433 289.056377,342.248501 C284.483734,337.46485 286.878928,335.181744 289.16525,335.181744 M279.802218,344.531608 C291.560444,356.273297 310.286506,374.973025 310.286506,374.973025 C310.286506,374.973025 314.968022,382.039782 322.044732,382.039782 L352.52902,382.039782 L352.52902,374.973025 L326.617375,374.973025 C321.93586,374.973025 318.996303,372.581199 317.254344,370.298093 L317.254344,344.531608 C317.254344,337.46485 321.93586,335.181744 326.617375,335.181744 L352.420148,335.181744 L352.420148,325.83188 L284.483734,325.83188 C270.439187,325.83188 268.152865,332.789918 279.802218,344.531608" id="Shape" fill="#363F51"></path>
                    <path d="M385.190758,326.919074 C385.190758,328.876022 383.666543,330.398093 381.706839,330.398093 L320.847135,330.398093 C318.887431,330.398093 317.363216,328.876022 317.363216,326.919074 C317.363216,324.962125 318.887431,323.440054 320.847135,323.440054 L381.706839,323.440054 C383.666543,323.440054 385.190758,325.070845 385.190758,326.919074" id="Shape" fill="#363F51"></path>
                    <path d="M378.222921,329.310899 C378.222921,329.963215 377.678558,330.506812 377.025323,330.506812 L327.814972,330.506812 C327.161738,330.506812 326.617375,329.963215 326.617375,329.310899 C326.617375,328.658583 327.161738,328.114986 327.814972,328.114986 L377.025323,328.114986 C377.678558,328.114986 378.222921,328.658583 378.222921,329.310899" id="Shape" fill="#000100"></path>
                    <rect id="Rectangle-path" fill="#363F51" x="317.254344" y="316.482016" width="25.8027726" height="2.39182561"></rect>
                    <rect id="Rectangle-path" fill="#363F51" x="361.783179" y="316.482016" width="25.8027726" height="2.39182561"></rect>
                    <path d="M277.515896,363.231335 C277.515896,365.840599 275.44732,367.906267 272.834381,367.906267 L254.108318,367.906267 C251.495379,367.906267 249.426802,365.840599 249.426802,363.231335 L249.426802,344.531608 C249.426802,341.922343 251.495379,339.856676 254.108318,339.856676 L272.834381,339.856676 C275.44732,339.856676 277.515896,341.922343 277.515896,344.531608 L277.515896,363.231335 Z" id="Shape" fill="#76797D"></path>
                    <path d="M275.120702,353.881471 C275.120702,360.295913 269.894824,365.623161 263.362477,365.623161 C256.939002,365.623161 251.604251,360.404632 251.604251,353.881471 C251.604251,347.46703 256.830129,342.139782 263.362477,342.139782 C269.894824,342.139782 275.120702,347.358311 275.120702,353.881471" id="Shape" fill="#000100"></path>
                    <path d="M272.834381,353.881471 C272.834381,359.1 268.588355,363.231335 263.471349,363.231335 C258.245471,363.231335 254.108318,358.991281 254.108318,353.881471 C254.108318,348.662943 258.354344,344.531608 263.471349,344.531608 C268.588355,344.531608 272.834381,348.662943 272.834381,353.881471" id="Shape" fill="#363F51"></path>
                    <path d="M268.152865,353.881471 C268.152865,356.490736 266.084288,358.556403 263.471349,358.556403 C260.85841,358.556403 258.789834,356.490736 258.789834,353.881471 C258.789834,351.272207 260.85841,349.20654 263.471349,349.20654 C266.084288,349.20654 268.152865,351.272207 268.152865,353.881471" id="Shape" fill="#76797D"></path>
                    <rect id="Rectangle-path" fill="#A14342" x="0.217744917" y="54.5771117" width="544.25342" height="250.163215"></rect>
                    <rect id="Rectangle-path" fill="#9A3434" x="0.217744917" y="265.057766" width="537.17671" height="39.7912807"></rect>
                    <rect id="Rectangle-path" fill="#5D1C1A" x="0.217744917" y="66.2100817" width="530.208872" height="226.788556"></rect>
                    <rect id="Rectangle-path" fill="#9A3434" x="0.217744917" y="66.2100817" width="525.527357" height="226.788556"></rect>
                    <path d="M0.217744917,229.071662 C66.738817,228.745504 137.72366,227.114714 209.579482,222.874659 C448.445656,208.849864 525.745102,222.874659 525.745102,222.874659 L525.745102,292.998638 L0.217744917,292.998638 L0.217744917,229.071662 Z" id="Shape" fill="#932524"></path>
                    <rect id="Rectangle-path" fill="#932524" x="64.4524954" y="89.5847411" width="7.0767098" height="203.413896"></rect>
                    <rect id="Rectangle-path" fill="url(#linearGradient-1)" x="0.217744917" y="243.966213" width="525.527357" height="49.1411444"></rect>
                    <rect id="Rectangle-path" fill="#5D1C1A" x="0.217744917" y="194.825068" width="525.527357" height="2.39182561"></rect>
                    <rect id="Rectangle-path" fill="#A14342" x="0.217744917" y="192.541962" width="525.527357" height="2.28310627"></rect>
                    <rect id="Rectangle-path" fill="#5D1C1A" x="0.217744917" y="52.1852861" width="551.221257" height="14.0247956"></rect>
                    <rect id="Rectangle-path" fill="#AA5958" x="0.217744917" y="52.1852861" width="551.221257" height="4.67493188"></rect>
                    <rect id="Rectangle-path" fill="#2D1111" x="0.217744917" y="66.2100817" width="544.25342" height="4.67493188"></rect>
                    <rect id="Rectangle-path" fill="#A14342" x="530.426617" y="59.2520436" width="9.36303142" height="247.880109"></rect>
                    <rect id="Rectangle-path" fill="#AA5958" x="537.394455" y="61.5351499" width="2.39519409" height="245.488283"></rect>
                    <rect id="Rectangle-path" fill="#5D1C1A" x="528.031423" y="70.8850136" width="2.39519409" height="222.113624"></rect>
                    <rect id="Rectangle-path" fill="#5D1C1A" x="544.471165" y="281.365668" width="2.39519409" height="9.34986376"></rect>
                    <rect id="Rectangle-path" fill="#5D1C1A" x="542.07597" y="70.8850136" width="2.39519409" height="222.113624"></rect>
                    <rect id="Rectangle-path" fill="#5D1C1A" x="528.031423" y="293.107357" width="2.39519409" height="11.7416894"></rect>
                    <rect id="Rectangle-path" fill="#5D1C1A" x="539.789649" y="293.107357" width="2.39519409" height="11.7416894"></rect>
                    <path d="M504.623845,84.9098093 C504.623845,86.2144414 503.09963,89.5847411 501.139926,89.5847411 L456.611091,89.5847411 C454.651386,89.5847411 453.127172,86.2144414 453.127172,84.9098093 L456.611091,84.9098093 L501.139926,84.9098093 L504.623845,84.9098093" id="Shape" fill="#5D1C1A"></path>
                    <path d="M504.623845,84.9098093 C504.623845,86.2144414 503.09963,87.3016349 501.139926,87.3016349 L456.611091,87.3016349 C454.651386,87.3016349 453.127172,86.2144414 453.127172,84.9098093 C453.127172,83.6051771 454.651386,82.626703 456.611091,82.626703 L501.139926,82.626703 C503.09963,82.626703 504.623845,83.7138965 504.623845,84.9098093" id="Shape" fill="#A14342"></path>
                    <path d="M504.623845,127.092916 C504.623845,128.397548 503.09963,131.767847 501.139926,131.767847 L456.611091,131.767847 C454.651386,131.767847 453.127172,128.397548 453.127172,127.092916 L456.611091,127.092916 L501.139926,127.092916 L504.623845,127.092916" id="Shape" fill="#5D1C1A"></path>
                    <path d="M504.623845,127.092916 C504.623845,128.397548 503.09963,129.484741 501.139926,129.484741 L456.611091,129.484741 C454.651386,129.484741 453.127172,128.397548 453.127172,127.092916 C453.127172,125.788283 454.651386,124.809809 456.611091,124.809809 L501.139926,124.809809 C503.09963,124.70109 504.623845,125.788283 504.623845,127.092916" id="Shape" fill="#A14342"></path>
                    <path d="M504.623845,171.450409 C504.623845,172.755041 503.09963,176.125341 501.139926,176.125341 L456.611091,176.125341 C454.651386,176.125341 453.127172,172.755041 453.127172,171.450409 L456.611091,171.450409 L501.139926,171.450409 L504.623845,171.450409" id="Shape" fill="#5D1C1A"></path>
                    <path d="M504.623845,171.450409 C504.623845,172.755041 503.09963,173.842234 501.139926,173.842234 L456.611091,173.842234 C454.651386,173.842234 453.127172,172.755041 453.127172,171.450409 C453.127172,170.145777 454.651386,169.167302 456.611091,169.167302 L501.139926,169.167302 C503.09963,169.167302 504.623845,170.145777 504.623845,171.450409" id="Shape" fill="#A14342"></path>
                    <path d="M504.623845,222.874659 C504.623845,224.179292 503.09963,227.549591 501.139926,227.549591 L456.611091,227.549591 C454.651386,227.549591 453.127172,224.179292 453.127172,222.874659 L456.611091,222.874659 L501.139926,222.874659 L504.623845,222.874659" id="Shape" fill="#5D1C1A"></path>
                    <path d="M504.623845,222.874659 C504.623845,224.179292 503.09963,225.266485 501.139926,225.266485 L456.611091,225.266485 C454.651386,225.266485 453.127172,224.179292 453.127172,222.874659 C453.127172,221.570027 454.651386,220.591553 456.611091,220.591553 L501.139926,220.591553 C503.09963,220.591553 504.623845,221.570027 504.623845,222.874659" id="Shape" fill="#A14342"></path>
                    <path d="M504.623845,264.949046 C504.623845,266.253678 503.09963,269.623978 501.139926,269.623978 L456.611091,269.623978 C454.651386,269.623978 453.127172,266.253678 453.127172,264.949046 L456.611091,264.949046 L501.139926,264.949046 L504.623845,264.949046" id="Shape" fill="#5D1C1A"></path>
                    <path d="M504.623845,264.949046 C504.623845,266.253678 503.09963,267.340872 501.139926,267.340872 L456.611091,267.340872 C454.651386,267.340872 453.127172,266.253678 453.127172,264.949046 C453.127172,263.644414 454.651386,262.66594 456.611091,262.66594 L501.139926,262.66594 C503.09963,262.66594 504.623845,263.753134 504.623845,264.949046" id="Shape" fill="#A14342"></path>
                    <rect id="Rectangle-path" fill="#A14342" x="422.642884" y="59.2520436" width="9.36303142" height="247.880109"></rect>
                    <rect id="Rectangle-path" fill="#AA5958" x="429.719593" y="61.5351499" width="2.39519409" height="245.488283"></rect>
                    <rect id="Rectangle-path" fill="#5D1C1A" x="420.356562" y="70.8850136" width="2.39519409" height="222.113624"></rect>
                    <rect id="Rectangle-path" fill="#5D1C1A" x="420.356562" y="293.107357" width="2.39519409" height="11.7416894"></rect>
                    <rect id="Rectangle-path" fill="#5D1C1A" x="432.005915" y="293.107357" width="2.39519409" height="11.7416894"></rect>
                    <path d="M396.948983,84.9098093 C396.948983,86.2144414 395.424769,89.5847411 393.465065,89.5847411 L348.936229,89.5847411 C346.976525,89.5847411 345.452311,86.2144414 345.452311,84.9098093 L348.936229,84.9098093 L393.465065,84.9098093 L396.948983,84.9098093" id="Shape" fill="#5D1C1A"></path>
                    <path d="M396.948983,84.9098093 C396.948983,86.2144414 395.424769,87.3016349 393.465065,87.3016349 L348.936229,87.3016349 C346.976525,87.3016349 345.452311,86.2144414 345.452311,84.9098093 C345.452311,83.6051771 346.976525,82.626703 348.936229,82.626703 L393.465065,82.626703 C395.315896,82.626703 396.948983,83.7138965 396.948983,84.9098093" id="Shape" fill="#A14342"></path>
                    <path d="M396.948983,127.092916 C396.948983,128.397548 395.424769,131.767847 393.465065,131.767847 L348.936229,131.767847 C346.976525,131.767847 345.452311,128.397548 345.452311,127.092916 L348.936229,127.092916 L393.465065,127.092916 L396.948983,127.092916" id="Shape" fill="#5D1C1A"></path>
                    <path d="M396.948983,127.092916 C396.948983,128.397548 395.424769,129.484741 393.465065,129.484741 L348.936229,129.484741 C346.976525,129.484741 345.452311,128.397548 345.452311,127.092916 C345.452311,125.788283 346.976525,124.809809 348.936229,124.809809 L393.465065,124.809809 C395.315896,124.70109 396.948983,125.788283 396.948983,127.092916" id="Shape" fill="#A14342"></path>
                    <path d="M396.948983,171.450409 C396.948983,172.755041 395.424769,176.125341 393.465065,176.125341 L348.936229,176.125341 C346.976525,176.125341 345.452311,172.755041 345.452311,171.450409 L348.936229,171.450409 L393.465065,171.450409 L396.948983,171.450409" id="Shape" fill="#5D1C1A"></path>
                    <path d="M396.948983,171.450409 C396.948983,172.755041 395.424769,173.842234 393.465065,173.842234 L348.936229,173.842234 C346.976525,173.842234 345.452311,172.755041 345.452311,171.450409 C345.452311,170.145777 346.976525,169.167302 348.936229,169.167302 L393.465065,169.167302 C395.315896,169.167302 396.948983,170.145777 396.948983,171.450409" id="Shape" fill="#A14342"></path>
                    <path d="M396.948983,222.874659 C396.948983,224.179292 395.424769,227.549591 393.465065,227.549591 L348.936229,227.549591 C346.976525,227.549591 345.452311,224.179292 345.452311,222.874659 L348.936229,222.874659 L393.465065,222.874659 L396.948983,222.874659" id="Shape" fill="#5D1C1A"></path>
                    <path d="M396.948983,222.874659 C396.948983,224.179292 395.424769,225.266485 393.465065,225.266485 L348.936229,225.266485 C346.976525,225.266485 345.452311,224.179292 345.452311,222.874659 C345.452311,221.570027 346.976525,220.591553 348.936229,220.591553 L393.465065,220.591553 C395.315896,220.591553 396.948983,221.570027 396.948983,222.874659" id="Shape" fill="#A14342"></path>
                    <path d="M396.948983,264.949046 C396.948983,266.253678 395.424769,269.623978 393.465065,269.623978 L348.936229,269.623978 C346.976525,269.623978 345.452311,266.253678 345.452311,264.949046 L348.936229,264.949046 L393.465065,264.949046 L396.948983,264.949046" id="Shape" fill="#5D1C1A"></path>
                    <path d="M396.948983,264.949046 C396.948983,266.253678 395.424769,267.340872 393.465065,267.340872 L348.936229,267.340872 C346.976525,267.340872 345.452311,266.253678 345.452311,264.949046 C345.452311,263.644414 346.976525,262.66594 348.936229,262.66594 L393.465065,262.66594 C395.315896,262.66594 396.948983,263.753134 396.948983,264.949046" id="Shape" fill="#A14342"></path>
                    <rect id="Rectangle-path" fill="#A14342" x="312.572828" y="59.2520436" width="9.36303142" height="247.880109"></rect>
                    <rect id="Rectangle-path" fill="#AA5958" x="319.649538" y="61.5351499" width="2.39519409" height="245.488283"></rect>
                    <rect id="Rectangle-path" fill="#5D1C1A" x="310.286506" y="70.8850136" width="2.39519409" height="222.113624"></rect>
                    <rect id="Rectangle-path" fill="#5D1C1A" x="310.286506" y="293.107357" width="2.39519409" height="11.7416894"></rect>
                    <rect id="Rectangle-path" fill="#5D1C1A" x="321.93586" y="293.107357" width="2.39519409" height="11.7416894"></rect>
                    <path d="M286.878928,84.9098093 C286.878928,86.2144414 285.354713,89.5847411 283.395009,89.5847411 L238.866174,89.5847411 C236.90647,89.5847411 235.382255,86.2144414 235.382255,84.9098093 L238.866174,84.9098093 L283.395009,84.9098093 L286.878928,84.9098093" id="Shape" fill="#5D1C1A"></path>
                    <path d="M286.878928,84.9098093 C286.878928,86.2144414 285.354713,87.3016349 283.395009,87.3016349 L238.866174,87.3016349 C236.90647,87.3016349 235.382255,86.2144414 235.382255,84.9098093 C235.382255,83.6051771 236.90647,82.626703 238.866174,82.626703 L283.395009,82.626703 C285.245841,82.626703 286.878928,83.7138965 286.878928,84.9098093" id="Shape" fill="#A14342"></path>
                    <path d="M286.878928,127.092916 C286.878928,128.397548 285.354713,131.767847 283.395009,131.767847 L238.866174,131.767847 C236.90647,131.767847 235.382255,128.397548 235.382255,127.092916 L238.866174,127.092916 L283.395009,127.092916 L286.878928,127.092916" id="Shape" fill="#5D1C1A"></path>
                    <path d="M286.878928,127.092916 C286.878928,128.397548 285.354713,129.484741 283.395009,129.484741 L238.866174,129.484741 C236.90647,129.484741 235.382255,128.397548 235.382255,127.092916 C235.382255,125.788283 236.90647,124.809809 238.866174,124.809809 L283.395009,124.809809 C285.245841,124.70109 286.878928,125.788283 286.878928,127.092916" id="Shape" fill="#A14342"></path>
                    <path d="M286.878928,171.450409 C286.878928,172.755041 285.354713,176.125341 283.395009,176.125341 L238.866174,176.125341 C236.90647,176.125341 235.382255,172.755041 235.382255,171.450409 L238.866174,171.450409 L283.395009,171.450409 L286.878928,171.450409" id="Shape" fill="#5D1C1A"></path>
                    <path d="M286.878928,171.450409 C286.878928,172.755041 285.354713,173.842234 283.395009,173.842234 L238.866174,173.842234 C236.90647,173.842234 235.382255,172.755041 235.382255,171.450409 C235.382255,170.145777 236.90647,169.167302 238.866174,169.167302 L283.395009,169.167302 C285.245841,169.167302 286.878928,170.145777 286.878928,171.450409" id="Shape" fill="#A14342"></path>
                    <path d="M286.878928,222.874659 C286.878928,224.179292 285.354713,227.549591 283.395009,227.549591 L238.866174,227.549591 C236.90647,227.549591 235.382255,224.179292 235.382255,222.874659 L238.866174,222.874659 L283.395009,222.874659 L286.878928,222.874659" id="Shape" fill="#5D1C1A"></path>
                    <path d="M286.878928,222.874659 C286.878928,224.179292 285.354713,225.266485 283.395009,225.266485 L238.866174,225.266485 C236.90647,225.266485 235.382255,224.179292 235.382255,222.874659 C235.382255,221.570027 236.90647,220.591553 238.866174,220.591553 L283.395009,220.591553 C285.245841,220.591553 286.878928,221.570027 286.878928,222.874659" id="Shape" fill="#A14342"></path>
                    <path d="M286.878928,264.949046 C286.878928,266.253678 285.354713,269.623978 283.395009,269.623978 L238.866174,269.623978 C236.90647,269.623978 235.382255,266.253678 235.382255,264.949046 L238.866174,264.949046 L283.395009,264.949046 L286.878928,264.949046" id="Shape" fill="#5D1C1A"></path>
                    <path d="M286.878928,264.949046 C286.878928,266.253678 285.354713,267.340872 283.395009,267.340872 L238.866174,267.340872 C236.90647,267.340872 235.382255,266.253678 235.382255,264.949046 C235.382255,263.644414 236.90647,262.66594 238.866174,262.66594 L283.395009,262.66594 C285.245841,262.66594 286.878928,263.753134 286.878928,264.949046" id="Shape" fill="#A14342"></path>
                    <rect id="Rectangle-path" fill="#A14342" x="204.897967" y="59.2520436" width="9.36303142" height="247.880109"></rect>
                    <rect id="Rectangle-path" fill="#AA5958" x="211.974677" y="61.5351499" width="2.39519409" height="245.488283"></rect>
                    <rect id="Rectangle-path" fill="#5D1C1A" x="202.611645" y="70.8850136" width="2.39519409" height="222.113624"></rect>
                    <rect id="Rectangle-path" fill="#5D1C1A" x="202.611645" y="293.107357" width="2.39519409" height="11.7416894"></rect>
                    <rect id="Rectangle-path" fill="#5D1C1A" x="214.260998" y="293.107357" width="2.39519409" height="11.7416894"></rect>
                    <path d="M179.095194,84.9098093 C179.095194,86.2144414 177.57098,89.5847411 175.611275,89.5847411 L131.08244,89.5847411 C129.122736,89.5847411 127.598521,86.2144414 127.598521,84.9098093 L131.08244,84.9098093 L175.611275,84.9098093 L179.095194,84.9098093" id="Shape" fill="#5D1C1A"></path>
                    <path d="M179.095194,84.9098093 C179.095194,86.2144414 177.57098,87.3016349 175.611275,87.3016349 L131.08244,87.3016349 C129.122736,87.3016349 127.598521,86.2144414 127.598521,84.9098093 C127.598521,83.6051771 129.122736,82.626703 131.08244,82.626703 L175.611275,82.626703 C177.57098,82.626703 179.095194,83.7138965 179.095194,84.9098093" id="Shape" fill="#A14342"></path>
                    <path d="M179.095194,127.092916 C179.095194,128.397548 177.57098,131.767847 175.611275,131.767847 L131.08244,131.767847 C129.122736,131.767847 127.598521,128.397548 127.598521,127.092916 L131.08244,127.092916 L175.611275,127.092916 L179.095194,127.092916" id="Shape" fill="#5D1C1A"></path>
                    <path d="M179.095194,127.092916 C179.095194,128.397548 177.57098,129.484741 175.611275,129.484741 L131.08244,129.484741 C129.122736,129.484741 127.598521,128.397548 127.598521,127.092916 C127.598521,125.788283 129.122736,124.809809 131.08244,124.809809 L175.611275,124.809809 C177.57098,124.70109 179.095194,125.788283 179.095194,127.092916" id="Shape" fill="#A14342"></path>
                    <path d="M179.095194,171.450409 C179.095194,172.755041 177.57098,176.125341 175.611275,176.125341 L131.08244,176.125341 C129.122736,176.125341 127.598521,172.755041 127.598521,171.450409 L131.08244,171.450409 L175.611275,171.450409 L179.095194,171.450409" id="Shape" fill="#5D1C1A"></path>
                    <path d="M179.095194,171.450409 C179.095194,172.755041 177.57098,173.842234 175.611275,173.842234 L131.08244,173.842234 C129.122736,173.842234 127.598521,172.755041 127.598521,171.450409 C127.598521,170.145777 129.122736,169.167302 131.08244,169.167302 L175.611275,169.167302 C177.57098,169.167302 179.095194,170.145777 179.095194,171.450409" id="Shape" fill="#A14342"></path>
                    <path d="M179.095194,222.874659 C179.095194,224.179292 177.57098,227.549591 175.611275,227.549591 L131.08244,227.549591 C129.122736,227.549591 127.598521,224.179292 127.598521,222.874659 L131.08244,222.874659 L175.611275,222.874659 L179.095194,222.874659" id="Shape" fill="#5D1C1A"></path>
                    <path d="M179.095194,222.874659 C179.095194,224.179292 177.57098,225.266485 175.611275,225.266485 L131.08244,225.266485 C129.122736,225.266485 127.598521,224.179292 127.598521,222.874659 C127.598521,221.570027 129.122736,220.591553 131.08244,220.591553 L175.611275,220.591553 C177.57098,220.591553 179.095194,221.570027 179.095194,222.874659" id="Shape" fill="#A14342"></path>
                    <path d="M179.095194,264.949046 C179.095194,266.253678 177.57098,269.623978 175.611275,269.623978 L131.08244,269.623978 C129.122736,269.623978 127.598521,266.253678 127.598521,264.949046 L131.08244,264.949046 L175.611275,264.949046 L179.095194,264.949046" id="Shape" fill="#5D1C1A"></path>
                    <path d="M179.095194,264.949046 C179.095194,266.253678 177.57098,267.340872 175.611275,267.340872 L131.08244,267.340872 C129.122736,267.340872 127.598521,266.253678 127.598521,264.949046 C127.598521,263.644414 129.122736,262.66594 131.08244,262.66594 L175.611275,262.66594 C177.57098,262.66594 179.095194,263.753134 179.095194,264.949046" id="Shape" fill="#A14342"></path>
                    <rect id="Rectangle-path" fill="#A14342" x="97.2231054" y="59.2520436" width="9.36303142" height="247.880109"></rect>
                    <rect id="Rectangle-path" fill="#AA5958" x="104.190943" y="61.5351499" width="2.39519409" height="245.488283"></rect>
                    <rect id="Rectangle-path" fill="#5D1C1A" x="94.8279113" y="70.8850136" width="2.39519409" height="222.113624"></rect>
                    <rect id="Rectangle-path" fill="#5D1C1A" x="94.8279113" y="293.107357" width="2.39519409" height="11.7416894"></rect>
                    <rect id="Rectangle-path" fill="#5D1C1A" x="106.586137" y="293.107357" width="2.39519409" height="11.7416894"></rect>
                    <path d="M71.4203327,84.9098093 C71.4203327,86.2144414 69.8961183,89.5847411 67.936414,89.5847411 L23.4075786,89.5847411 C21.4478743,89.5847411 19.9236599,86.2144414 19.9236599,84.9098093 L23.4075786,84.9098093 L67.936414,84.9098093 L71.4203327,84.9098093" id="Shape" fill="#5D1C1A"></path>
                    <path d="M71.4203327,84.9098093 C71.4203327,86.2144414 69.8961183,87.3016349 67.936414,87.3016349 L23.4075786,87.3016349 C21.4478743,87.3016349 19.9236599,86.2144414 19.9236599,84.9098093 C19.9236599,83.6051771 21.4478743,82.626703 23.4075786,82.626703 L67.936414,82.626703 C69.8961183,82.626703 71.4203327,83.7138965 71.4203327,84.9098093" id="Shape" fill="#A14342"></path>
                    <path d="M71.4203327,127.092916 C71.4203327,128.397548 69.8961183,131.767847 67.936414,131.767847 L23.4075786,131.767847 C21.4478743,131.767847 19.9236599,128.397548 19.9236599,127.092916 L23.4075786,127.092916 L67.936414,127.092916 L71.4203327,127.092916" id="Shape" fill="#5D1C1A"></path>
                    <path d="M71.4203327,127.092916 C71.4203327,128.397548 69.8961183,129.484741 67.936414,129.484741 L23.4075786,129.484741 C21.4478743,129.484741 19.9236599,128.397548 19.9236599,127.092916 C19.9236599,125.788283 21.4478743,124.809809 23.4075786,124.809809 L67.936414,124.809809 C69.8961183,124.70109 71.4203327,125.788283 71.4203327,127.092916" id="Shape" fill="#A14342"></path>
                    <path d="M71.4203327,171.450409 C71.4203327,172.755041 69.8961183,176.125341 67.936414,176.125341 L23.4075786,176.125341 C21.4478743,176.125341 19.9236599,172.755041 19.9236599,171.450409 L23.4075786,171.450409 L67.936414,171.450409 L71.4203327,171.450409" id="Shape" fill="#5D1C1A"></path>
                    <path d="M71.4203327,171.450409 C71.4203327,172.755041 69.8961183,173.842234 67.936414,173.842234 L23.4075786,173.842234 C21.4478743,173.842234 19.9236599,172.755041 19.9236599,171.450409 C19.9236599,170.145777 21.4478743,169.167302 23.4075786,169.167302 L67.936414,169.167302 C69.8961183,169.167302 71.4203327,170.145777 71.4203327,171.450409" id="Shape" fill="#A14342"></path>
                    <path d="M71.4203327,222.874659 C71.4203327,224.179292 69.8961183,227.549591 67.936414,227.549591 L23.4075786,227.549591 C21.4478743,227.549591 19.9236599,224.179292 19.9236599,222.874659 L23.4075786,222.874659 L67.936414,222.874659 L71.4203327,222.874659" id="Shape" fill="#5D1C1A"></path>
                    <path d="M71.4203327,222.874659 C71.4203327,224.179292 69.8961183,225.266485 67.936414,225.266485 L23.4075786,225.266485 C21.4478743,225.266485 19.9236599,224.179292 19.9236599,222.874659 C19.9236599,221.570027 21.4478743,220.591553 23.4075786,220.591553 L67.936414,220.591553 C69.8961183,220.591553 71.4203327,221.570027 71.4203327,222.874659" id="Shape" fill="#A14342"></path>
                    <path d="M71.4203327,264.949046 C71.4203327,266.253678 69.8961183,269.623978 67.936414,269.623978 L23.4075786,269.623978 C21.4478743,269.623978 19.9236599,266.253678 19.9236599,264.949046 L23.4075786,264.949046 L67.936414,264.949046 L71.4203327,264.949046" id="Shape" fill="#5D1C1A"></path>
                    <path d="M71.4203327,264.949046 C71.4203327,266.253678 69.8961183,267.340872 67.936414,267.340872 L23.4075786,267.340872 C21.4478743,267.340872 19.9236599,266.253678 19.9236599,264.949046 C19.9236599,263.644414 21.4478743,262.66594 23.4075786,262.66594 L67.936414,262.66594 C69.8961183,262.66594 71.4203327,263.753134 71.4203327,264.949046" id="Shape" fill="#A14342"></path>
                    <rect id="Rectangle-path" fill="#A14342" x="432.005915" y="68.6019074" width="42.1336414" height="28.0495913"></rect>
                    <rect id="Rectangle-path" fill="#AA5958" x="471.853235" y="68.6019074" width="2.39519409" height="28.0495913"></rect>
                    <rect id="Rectangle-path" fill="#5D1C1A" x="432.005915" y="96.6514986" width="42.1336414" height="2.39182561"></rect>
                    <rect id="Rectangle-path" fill="#5D1C1A" x="0.217744917" y="295.390463" width="202.3939" height="2.28310627"></rect>
                    <rect id="Rectangle-path" fill="#AA5958" x="0.217744917" y="293.107357" width="202.3939" height="2.39182561"></rect>
                    <rect id="Rectangle-path" fill="#381213" x="62.0573013" y="89.5847411" width="2.39519409" height="201.13079"></rect>
                    <rect id="Rectangle-path" fill="#381213" x="38.6497227" y="106.001362" width="163.961922" height="2.39182561"></rect>
                    <rect id="Rectangle-path" fill="#AA5958" x="64.4524954" y="101.326431" width="138.15915" height="2.39182561"></rect>
                    <rect id="Rectangle-path" fill="#5D1C1A" x="64.4524954" y="103.609537" width="138.15915" height="2.39182561"></rect>
                    <rect id="Rectangle-path" fill="#5D1C1A" x="190.85342" y="281.365668" width="11.7582255" height="9.34986376"></rect>
                    <rect id="Rectangle-path" fill="#5D1C1A" x="193.248614" y="108.284469" width="11.7582255" height="9.34986376"></rect>
                    <rect id="Rectangle-path" fill="#5D1C1A" x="190.85342" y="91.9765668" width="11.7582255" height="9.34986376"></rect>
                    <rect id="Rectangle-path" fill="#AA5958" x="195.534935" y="103.609537" width="7.0767098" height="14.0247956"></rect>
                    <rect id="Rectangle-path" fill="#AA5958" x="197.930129" y="283.757493" width="4.68151571" height="7.06675749"></rect>
                    <rect id="Rectangle-path" fill="#381213" x="0.217744917" y="75.5599455" width="202.3939" height="9.34986376"></rect>
                    <rect id="Rectangle-path" fill="#5D1C1A" x="36.3634011" y="84.9098093" width="166.248244" height="4.67493188"></rect>
                    <rect id="Rectangle-path" fill="#381213" x="36.3634011" y="84.9098093" width="166.248244" height="2.39182561"></rect>
                    <rect id="Rectangle-path" fill="#AA5958" x="0.217744917" y="80.2348774" width="202.3939" height="4.67493188"></rect>
                    <rect id="Rectangle-path" fill="#9A3434" x="0.217744917" y="87.3016349" width="61.7306839" height="201.13079"></rect>
                    <rect id="Rectangle-path" fill="#5D1C1A" x="0.217744917" y="87.3016349" width="50.1902033" height="4.67493188"></rect>
                    <polygon id="Shape" fill="#932524" points="0.217744917 234.507629 50.4079482 232.224523 50.4079482 286.040599 0.217744917 286.040599"></polygon>
                    <rect id="Rectangle-path" fill="#5D1C1A" x="0.217744917" y="269.732698" width="50.1902033" height="2.39182561"></rect>
                    <rect id="Rectangle-path" fill="#A14342" x="0.217744917" y="267.340872" width="50.1902033" height="2.28310627"></rect>
                    <rect id="Rectangle-path" fill="#5D1C1A" x="0.217744917" y="232.224523" width="50.1902033" height="2.39182561"></rect>
                    <rect id="Rectangle-path" fill="#A14342" x="0.217744917" y="229.941417" width="50.1902033" height="2.28310627"></rect>
                    <rect id="Rectangle-path" fill="#5D1C1A" x="0.217744917" y="250.924251" width="50.1902033" height="2.39182561"></rect>
                    <rect id="Rectangle-path" fill="#A14342" x="0.217744917" y="248.641144" width="50.1902033" height="2.28310627"></rect>
                    <rect id="Rectangle-path" fill="#5D1C1A" x="0.217744917" y="145.792643" width="50.1902033" height="2.39182561"></rect>
                    <rect id="Rectangle-path" fill="#A14342" x="0.217744917" y="143.400817" width="50.1902033" height="2.28310627"></rect>
                    <rect id="Rectangle-path" fill="#5D1C1A" x="0.217744917" y="108.284469" width="50.1902033" height="2.39182561"></rect>
                    <rect id="Rectangle-path" fill="#A14342" x="0.217744917" y="106.001362" width="50.1902033" height="2.39182561"></rect>
                    <rect id="Rectangle-path" fill="#5D1C1A" x="0.217744917" y="127.092916" width="50.1902033" height="2.39182561"></rect>
                    <rect id="Rectangle-path" fill="#A14342" x="0.217744917" y="124.70109" width="50.1902033" height="2.28310627"></rect>
                    <rect id="Rectangle-path" fill="#5D1C1A" x="0.217744917" y="199.5" width="50.1902033" height="2.39182561"></rect>
                    <rect id="Rectangle-path" fill="#A14342" x="0.217744917" y="197.216894" width="50.1902033" height="2.28310627"></rect>
                    <rect id="Rectangle-path" fill="#5D1C1A" x="0.217744917" y="162.100545" width="50.1902033" height="2.28310627"></rect>
                    <rect id="Rectangle-path" fill="#A14342" x="0.217744917" y="159.817439" width="50.1902033" height="2.39182561"></rect>
                    <rect id="Rectangle-path" fill="#5D1C1A" x="0.217744917" y="180.800272" width="50.1902033" height="2.39182561"></rect>
                    <rect id="Rectangle-path" fill="#A14342" x="0.217744917" y="178.517166" width="50.1902033" height="2.28310627"></rect>
                    <rect id="Rectangle-path" fill="#5D1C1A" x="0.217744917" y="215.916621" width="50.1902033" height="2.28310627"></rect>
                    <rect id="Rectangle-path" fill="#A14342" x="0.217744917" y="213.524796" width="50.1902033" height="2.39182561"></rect>
                    <rect id="Rectangle-path" fill="#A14342" x="52.6942699" y="87.3016349" width="9.36303142" height="201.13079"></rect>
                    <rect id="Rectangle-path" fill="#AA5958" x="59.7709797" y="87.3016349" width="2.39519409" height="201.13079"></rect>
                    <rect id="Rectangle-path" fill="#5D1C1A" x="50.4079482" y="87.3016349" width="2.39519409" height="201.13079"></rect>
                    <rect id="Rectangle-path" fill="#A14342" x="0.217744917" y="87.3016349" width="8.05656192" height="201.13079"></rect>
                    <rect id="Rectangle-path" fill="#AA5958" x="5.87911275" y="87.3016349" width="2.39519409" height="201.13079"></rect>
                    <rect id="Rectangle-path" fill="#5D1C1A" x="0.217744917" y="288.432425" width="61.8395564" height="4.67493188"></rect>
                    <rect id="Rectangle-path" fill="#381213" x="0.217744917" y="288.432425" width="61.8395564" height="2.39182561"></rect>
                    <rect id="Rectangle-path" fill="#AA5958" x="0.217744917" y="283.757493" width="52.476525" height="2.39182561"></rect>
                    <rect id="Rectangle-path" fill="#A14342" x="0.217744917" y="286.040599" width="52.476525" height="2.28310627"></rect>
                    <rect id="Rectangle-path" fill="#381213" x="0.217744917" y="84.9098093" width="54.871719" height="2.39182561"></rect>
                    <rect id="Rectangle-path" fill="#2D1111" x="300.923475" y="17.1776567" width="88.9487985" height="7.06675749"></rect>
                    <rect id="Rectangle-path" fill="#AA5958" x="298.528281" y="17.1776567" width="93.6303142" height="2.39182561"></rect>
                    <rect id="Rectangle-path" fill="#5D1C1A" x="300.923475" y="21.8525886" width="88.9487985" height="2.39182561"></rect>
                    <rect id="Rectangle-path" fill="#5D1C1A" x="373.541405" y="14.7858311" width="4.68151571" height="2.39182561"></rect>
                    <rect id="Rectangle-path" fill="#5D1C1A" x="310.286506" y="14.7858311" width="4.68151571" height="2.39182561"></rect>
                    <rect id="Rectangle-path" fill="#A14342" x="0.217744917" y="24.1356948" width="551.221257" height="28.0495913"></rect>
                    <rect id="Rectangle-path" fill="#AA5958" x="0.217744917" y="26.5275204" width="551.221257" height="10.2196185"></rect>
                    <rect id="Rectangle-path" fill="#AA5958" x="118.23549" y="21.8525886" width="2.39519409" height="30.4414169"></rect>
                    <rect id="Rectangle-path" fill="#5D1C1A" x="115.949168" y="21.8525886" width="2.39519409" height="30.4414169"></rect>
                    <rect id="Rectangle-path" fill="#AA5958" x="268.152865" y="21.8525886" width="2.39519409" height="30.4414169"></rect>
                    <rect id="Rectangle-path" fill="#5D1C1A" x="265.757671" y="21.8525886" width="2.39519409" height="30.4414169"></rect>
                    <rect id="Rectangle-path" fill="#AA5958" x="420.356562" y="21.8525886" width="2.39519409" height="30.4414169"></rect>
                    <rect id="Rectangle-path" fill="#5D1C1A" x="417.961368" y="21.8525886" width="2.39519409" height="30.4414169"></rect>
                    <rect id="Rectangle-path" fill="#AA5958" x="549.15268" y="21.8525886" width="2.39519409" height="30.4414169"></rect>
                    <rect id="Rectangle-path" fill="#5D1C1A" x="546.757486" y="21.8525886" width="2.39519409" height="30.4414169"></rect>
                    <path d="M406.312015,108.284469 C406.312015,110.893733 404.243438,112.959401 401.630499,112.959401 L343.057116,112.959401 C340.444177,112.959401 338.375601,110.893733 338.375601,108.284469 L338.375601,87.1929155 C338.375601,84.5836512 340.444177,82.5179837 343.057116,82.5179837 L401.630499,82.5179837 C404.243438,82.5179837 406.312015,84.5836512 406.312015,87.1929155 L406.312015,108.284469 Z" id="Shape" fill="#AA5958"></path>
                    <path d="M406.312015,108.284469 C406.312015,110.893733 404.243438,112.959401 401.630499,112.959401 L343.057116,112.959401 C340.444177,112.959401 338.375601,110.893733 338.375601,108.284469 L338.375601,89.5847411 C338.375601,86.9754768 340.444177,84.9098093 343.057116,84.9098093 L401.630499,84.9098093 C404.243438,84.9098093 406.312015,86.9754768 406.312015,89.5847411 L406.312015,108.284469 Z" id="Shape" fill="#5D1C1A"></path>
                    <path d="M403.916821,106.762398 C403.916821,108.936785 401.957116,110.676294 399.561922,110.676294 L345.125693,110.676294 C342.730499,110.676294 340.770795,108.936785 340.770795,106.762398 L340.770795,88.9324251 C340.770795,86.7580381 342.730499,85.0185286 345.125693,85.0185286 L399.561922,85.0185286 C401.957116,85.0185286 403.916821,86.7580381 403.916821,88.9324251 L403.916821,106.762398 Z" id="Shape" fill="#A14342"></path>
                    <path d="M389.872274,96.6514986 C389.872274,100.565395 382.033457,103.718256 372.343808,103.718256 C362.654159,103.718256 354.815342,100.565395 354.815342,96.6514986 C354.815342,92.7376022 362.654159,89.5847411 372.343808,89.5847411 C382.033457,89.5847411 389.872274,92.7376022 389.872274,96.6514986" id="Shape" fill="#5D1C1A"></path>
                    <path d="M389.872274,97.8474114 C389.872274,101.108992 382.033457,103.718256 372.343808,103.718256 C362.654159,103.718256 354.815342,101.108992 354.815342,97.8474114 C354.815342,94.5858311 362.654159,91.9765668 372.343808,91.9765668 C382.033457,91.9765668 389.872274,94.5858311 389.872274,97.8474114" id="Shape" fill="#A14342"></path>
                    <rect id="Rectangle-path" fill="#5D1C1A" x="350.133826" y="108.284469" width="2.39519409" height="7.06675749"></rect>
                    <rect id="Rectangle-path" fill="#A14342" x="352.420148" y="108.284469" width="2.39519409" height="7.06675749"></rect>
                    <rect id="Rectangle-path" fill="#5D1C1A" x="389.872274" y="108.284469" width="2.39519409" height="7.06675749"></rect>
                    <rect id="Rectangle-path" fill="#A14342" x="392.267468" y="108.284469" width="2.39519409" height="7.06675749"></rect>
                    <path d="M296.241959,108.284469 C296.241959,110.893733 294.173383,112.959401 291.560444,112.959401 L232.987061,112.959401 C230.374122,112.959401 228.305545,110.893733 228.305545,108.284469 L228.305545,87.1929155 C228.305545,84.5836512 230.374122,82.5179837 232.987061,82.5179837 L291.560444,82.5179837 C294.173383,82.5179837 296.241959,84.5836512 296.241959,87.1929155 L296.241959,108.284469 L296.241959,108.284469 Z" id="Shape" fill="#AA5958"></path>
                    <path d="M296.241959,108.284469 C296.241959,110.893733 294.173383,112.959401 291.560444,112.959401 L232.987061,112.959401 C230.374122,112.959401 228.305545,110.893733 228.305545,108.284469 L228.305545,89.5847411 C228.305545,86.9754768 230.374122,84.9098093 232.987061,84.9098093 L291.560444,84.9098093 C294.173383,84.9098093 296.241959,86.9754768 296.241959,89.5847411 L296.241959,108.284469 L296.241959,108.284469 Z" id="Shape" fill="#5D1C1A"></path>
                    <path d="M293.846765,106.762398 C293.846765,108.936785 291.887061,110.676294 289.491867,110.676294 L234.946765,110.676294 C232.551571,110.676294 230.591867,108.936785 230.591867,106.762398 L230.591867,88.9324251 C230.591867,86.7580381 232.551571,85.0185286 234.946765,85.0185286 L289.491867,85.0185286 C291.887061,85.0185286 293.846765,86.7580381 293.846765,88.9324251 L293.846765,106.762398 Z" id="Shape" fill="#A14342"></path>
                    <path d="M279.802218,96.6514986 C279.802218,100.565395 271.963401,103.718256 262.273752,103.718256 C252.584104,103.718256 244.745287,100.565395 244.745287,96.6514986 C244.745287,92.7376022 252.584104,89.5847411 262.273752,89.5847411 C271.963401,89.5847411 279.802218,92.7376022 279.802218,96.6514986" id="Shape" fill="#5D1C1A"></path>
                    <path d="M279.802218,97.8474114 C279.802218,101.108992 271.963401,103.718256 262.273752,103.718256 C252.584104,103.718256 244.745287,101.108992 244.745287,97.8474114 C244.745287,94.5858311 252.584104,91.9765668 262.273752,91.9765668 C271.963401,91.9765668 279.802218,94.5858311 279.802218,97.8474114" id="Shape" fill="#A14342"></path>
                    <rect id="Rectangle-path" fill="#5D1C1A" x="240.063771" y="108.284469" width="2.39519409" height="7.06675749"></rect>
                    <rect id="Rectangle-path" fill="#A14342" x="242.350092" y="108.284469" width="2.39519409" height="7.06675749"></rect>
                    <rect id="Rectangle-path" fill="#5D1C1A" x="279.802218" y="108.284469" width="2.39519409" height="7.06675749"></rect>
                    <rect id="Rectangle-path" fill="#A14342" x="282.197412" y="108.284469" width="2.39519409" height="7.06675749"></rect>
                    <rect id="Rectangle-path" fill="#CEA59C" x="232.987061" y="267.340872" width="4.68151571" height="4.67493188"></rect>
                    <rect id="Rectangle-path" fill="#CEA59C" x="240.063771" y="267.340872" width="4.68151571" height="4.67493188"></rect>
                    <rect id="Rectangle-path" fill="#CEA59C" x="258.789834" y="267.340872" width="4.68151571" height="4.67493188"></rect>
                    <rect id="Rectangle-path" fill="#CEA59C" x="249.426802" y="267.340872" width="2.39519409" height="4.67493188"></rect>
                    <rect id="Rectangle-path" fill="#CEA59C" x="254.108318" y="267.340872" width="2.39519409" height="4.67493188"></rect>
                    <rect id="Rectangle-path" fill="#CEA59C" x="265.757671" y="267.340872" width="2.39519409" height="4.67493188"></rect>
                    <rect id="Rectangle-path" fill="#CEA59C" x="272.834381" y="267.340872" width="4.68151571" height="4.67493188"></rect>
                    <rect id="Rectangle-path" fill="#CEA59C" x="279.802218" y="267.340872" width="2.39519409" height="4.67493188"></rect>
                    <rect id="Rectangle-path" fill="#CEA59C" x="286.878928" y="267.340872" width="4.68151571" height="4.67493188"></rect>
                    <rect id="Rectangle-path" fill="#CEA59C" x="293.846765" y="267.340872" width="2.39519409" height="4.67493188"></rect>
                    <rect id="Rectangle-path" fill="#CEA59C" x="291.560444" y="274.407629" width="4.68151571" height="2.39182561"></rect>
                    <rect id="Rectangle-path" fill="#CEA59C" x="284.483734" y="274.407629" width="4.68151571" height="2.39182561"></rect>
                    <rect id="Rectangle-path" fill="#CEA59C" x="265.757671" y="274.407629" width="4.68151571" height="2.39182561"></rect>
                    <rect id="Rectangle-path" fill="#CEA59C" x="277.515896" y="274.407629" width="2.39519409" height="2.39182561"></rect>
                    <rect id="Rectangle-path" fill="#CEA59C" x="272.834381" y="274.407629" width="2.39519409" height="2.39182561"></rect>
                    <rect id="Rectangle-path" fill="#CEA59C" x="261.076155" y="274.407629" width="2.39519409" height="2.39182561"></rect>
                    <rect id="Rectangle-path" fill="#CEA59C" x="251.713124" y="274.407629" width="4.68151571" height="2.39182561"></rect>
                    <rect id="Rectangle-path" fill="#CEA59C" x="247.031608" y="274.407629" width="2.39519409" height="2.39182561"></rect>
                    <rect id="Rectangle-path" fill="#CEA59C" x="237.668577" y="274.407629" width="4.68151571" height="2.39182561"></rect>
                    <rect id="Rectangle-path" fill="#CEA59C" x="232.987061" y="274.407629" width="2.39519409" height="2.39182561"></rect>
                    <rect id="Rectangle-path" fill="#CEA59C" x="232.987061" y="279.082561" width="4.68151571" height="2.39182561"></rect>
                    <rect id="Rectangle-path" fill="#CEA59C" x="240.063771" y="279.082561" width="4.68151571" height="2.39182561"></rect>
                    <rect id="Rectangle-path" fill="#CEA59C" x="258.789834" y="279.082561" width="4.68151571" height="2.39182561"></rect>
                    <rect id="Rectangle-path" fill="#CEA59C" x="249.426802" y="279.082561" width="2.39519409" height="2.39182561"></rect>
                    <rect id="Rectangle-path" fill="#CEA59C" x="254.108318" y="279.082561" width="2.39519409" height="2.39182561"></rect>
                    <rect id="Rectangle-path" fill="#CEA59C" x="265.757671" y="279.082561" width="2.39519409" height="2.39182561"></rect>
                    <rect id="Rectangle-path" fill="#CEA59C" x="272.834381" y="279.082561" width="4.68151571" height="2.39182561"></rect>
                    <rect id="Rectangle-path" fill="#CEA59C" x="279.802218" y="279.082561" width="2.39519409" height="2.39182561"></rect>
                    <rect id="Rectangle-path" fill="#CEA59C" x="232.987061" y="257.991008" width="21.1212569" height="4.67493188"></rect>
                    <rect id="Rectangle-path" fill="#CEA59C" x="235.382255" y="260.274114" width="2.39519409" height="2.39182561"></rect>
                    <rect id="Rectangle-path" fill="#CEA59C" x="247.031608" y="260.274114" width="2.39519409" height="2.39182561"></rect>
                    <rect id="Rectangle-path" fill="#CEA59C" x="258.789834" y="257.991008" width="9.36303142" height="4.67493188"></rect>
                    <rect id="Rectangle-path" fill="#CEA59C" x="270.439187" y="257.991008" width="4.68151571" height="4.67493188"></rect>
                    <rect id="Rectangle-path" fill="#CEA59C" x="279.802218" y="257.991008" width="9.36303142" height="4.67493188"></rect>
                    <rect id="Rectangle-path" fill="#CEA59C" x="232.987061" y="236.899455" width="2.39519409" height="14.0247956"></rect>
                    <rect id="Rectangle-path" fill="#CEA59C" x="240.063771" y="236.899455" width="2.39519409" height="14.0247956"></rect>
                    <rect id="Rectangle-path" fill="#CEA59C" x="247.031608" y="236.899455" width="2.39519409" height="14.0247956"></rect>
                    <rect id="Rectangle-path" fill="#CEA59C" x="242.350092" y="236.899455" width="4.68151571" height="2.28310627"></rect>
                    <rect id="Rectangle-path" fill="#CEA59C" x="242.350092" y="248.641144" width="4.68151571" height="2.28310627"></rect>
                    <rect id="Rectangle-path" fill="#CEA59C" x="251.930869" y="236.899455" width="2.39519409" height="14.0247956"></rect>
                    <rect id="Rectangle-path" fill="#CEA59C" x="259.007579" y="236.899455" width="2.39519409" height="14.0247956"></rect>
                    <rect id="Rectangle-path" fill="#CEA59C" x="254.326063" y="236.899455" width="4.68151571" height="2.28310627"></rect>
                    <rect id="Rectangle-path" fill="#CEA59C" x="254.326063" y="248.641144" width="4.68151571" height="2.28310627"></rect>
                </g>
            </g>
        </g>
    </g>
</svg>