<?xml version="1.0" encoding="UTF-8"?>
<svg width="575px" height="369px" viewBox="0 0 575 369" version="1.1" xmlns="http://www.w3.org/2000/svg" xmlns:xlink="http://www.w3.org/1999/xlink">
    <!-- Generator: sketchtool 46.2 (44496) - http://www.bohemiancoding.com/sketch -->
    <title>A1C68036-9160-4897-9398-AD8E55FD88AF</title>
    <desc>Created with sketchtool.</desc>
    <defs>
        <linearGradient x1="50%" y1="0%" x2="50%" y2="100%" id="linearGradient-1">
            <stop stop-color="#8A331E" offset="0%"></stop>
            <stop stop-color="#5C2010" offset="100%"></stop>
        </linearGradient>
    </defs>
    <g id="Page-1" stroke="none" stroke-width="1" fill="none" fill-rule="evenodd">
        <g id="MainPage-vagon-6" transform="translate(-721.000000, -187.000000)" fill-rule="nonzero">
            <g id="Color" transform="translate(721.000000, 187.000000)">
                <g id="Untitled-4">
                    <g id="Group" transform="translate(0.000000, 65.000000)">
                        <rect id="Rectangle-path" fill="#020303" x="0.2" y="214.1" width="520.4" height="15.7"></rect>
                        <rect id="Rectangle-path" fill="#020303" x="127.4" y="227.6" width="179.8" height="13.5"></rect>
                        <rect id="Rectangle-path" fill="#020303" x="0.2" y="193.9" width="80" height="58.4"></rect>
                        <rect id="Rectangle-path" fill="#020303" x="154.4" y="232.1" width="31.5" height="13.5"></rect>
                        <rect id="Rectangle-path" fill="#020303" x="15.1" y="225.3" width="22.5" height="36"></rect>
                        <rect id="Rectangle-path" fill="#020303" x="53.3" y="225.3" width="2.2" height="36"></rect>
                        <rect id="Rectangle-path" fill="#020303" x="96" y="229.8" width="6.7" height="27"></rect>
                        <rect id="Rectangle-path" fill="#020303" x="102.7" y="252.3" width="2.2" height="13.5"></rect>
                        <path d="M275.7,196.1 C275.7,203.5 281.7,209.6 289.2,209.6 C296.6,209.6 302.7,203.6 302.7,196.1 C302.7,188.7 296.7,182.6 289.2,182.6 C281.8,182.6 275.7,188.7 275.7,196.1" id="Shape" fill="#020303"></path>
                        <rect id="Rectangle-path" fill="#020303" x="435.3" y="200.6" width="15.7" height="15.7"></rect>
                        <rect id="Rectangle-path" fill="#020303" x="304.9" y="200.6" width="15.7" height="15.7"></rect>
                        <rect id="Rectangle-path" fill="#020303" x="370.1" y="196.1" width="87.6" height="4.5"></rect>
                        <rect id="Rectangle-path" fill="#020303" x="296" y="191.6" width="78.6" height="13.5"></rect>
                        <rect id="Rectangle-path" fill="#5C2010" x="338.6" y="36.6" width="6.7" height="179.8"></rect>
                        <rect id="Rectangle-path" fill="#83291A" x="343.1" y="36.6" width="2.2" height="179.8"></rect>
                        <rect id="Rectangle-path" fill="#5C2010" transform="translate(266.237830, 136.875700) rotate(-45.008103) translate(-266.237830, -136.875700) " x="262.887862" y="46.9765612" width="6.69993581" height="179.798278"></rect>
                        <rect id="Rectangle-path" fill="#83291A" transform="translate(267.793510, 135.324450) rotate(-45.000000) translate(-267.793510, -135.324450) " x="266.693521" y="45.4253121" width="2.1999789" height="179.798276"></rect>
                        <rect id="Rectangle-path" fill="#5C2010" x="320.7" y="196.1" width="31.5" height="11.2"></rect>
                        <polygon id="Shape" fill="url(#linearGradient-1)" points="0.2 0.6 403.8 0.6 212.8 256.8 42 202.8 30.8 202.8 0.2 202.8"></polygon>
                    </g>
                    <g id="Group">
                        <path d="M388.1,65.6 C388.1,65.6 300.5,189.2 262.3,220.6 C224.1,252.1 183.7,290.3 116.2,281.3 C48.8,272.3 172.4,306 172.4,306 L257.8,263.3 L392.6,65.6 L388.1,65.6 Z" id="Shape" fill="#903522"></path>
                        <path d="M228.5,239.8 C136.4,296 35.3,245.4 26.3,245.4 C23.1,245.4 13.6,243.9 0.2,242.8 L0.2,267.9 L21.8,267.9 L93.7,346.5 L201.6,346.5 L325.2,166.7 C287,209.4 248,227.9 228.5,239.8" id="Shape" fill="#5C2010"></path>
                        <rect id="Rectangle-path" fill="#5C2010" x="0.2" y="173.5" width="325" height="2.2"></rect>
                        <rect id="Rectangle-path" fill="#984233" x="0.2" y="171.2" width="325" height="2.2"></rect>
                        <rect id="Rectangle-path" fill="#5C2010" x="0.2" y="52.1" width="403.6" height="13.5"></rect>
                        <rect id="Rectangle-path" fill="#A75E4E" x="0.2" y="52.1" width="403.6" height="4.5"></rect>
                        <rect id="Rectangle-path" fill="#2D1212" x="0.2" y="56.6" width="396.9" height="4.5"></rect>
                        <rect id="Rectangle-path" fill="#984233" x="228.5" y="43.1" width="9" height="195.5"></rect>
                        <rect id="Rectangle-path" fill="#A75E4E" x="235.3" y="45.4" width="2.2" height="193.2"></rect>
                        <rect id="Rectangle-path" fill="#5C2010" x="226.3" y="54.4" width="2.2" height="170.8"></rect>
                        <rect id="Rectangle-path" fill="#5C2010" x="226.3" y="225.1" width="2.2" height="11.2"></rect>
                        <polygon id="Shape" fill="#5C2010" points="219.6 236.4 226.3 236.4 226.3 204.9"></polygon>
                        <rect id="Rectangle-path" fill="#984233" x="145.4" y="43.1" width="9" height="195.5"></rect>
                        <rect id="Rectangle-path" fill="#A75E4E" x="152.1" y="45.4" width="2.2" height="193.2"></rect>
                        <rect id="Rectangle-path" fill="#5C2010" x="143.2" y="54.4" width="2.2" height="170.8"></rect>
                        <rect id="Rectangle-path" fill="#5C2010" x="143.2" y="225.1" width="2.2" height="11.2"></rect>
                        <polygon id="Shape" fill="#5C2010" points="136.4 236.4 143.2 236.4 143.2 204.9"></polygon>
                        <rect id="Rectangle-path" fill="#984233" x="64.5" y="40.9" width="9" height="195.5"></rect>
                        <rect id="Rectangle-path" fill="#A75E4E" x="71.3" y="43.1" width="2.2" height="193.2"></rect>
                        <rect id="Rectangle-path" fill="#5C2010" x="62.3" y="52.1" width="2.2" height="184.3"></rect>
                        <polygon id="Shape" fill="#5C2010" points="55.5 236.4 62.3 236.4 62.3 204.9"></polygon>
                        <rect id="Rectangle-path" fill="#984233" transform="translate(289.891920, 163.185610) rotate(-26.442061) translate(-289.891920, -163.185610) " x="285.391845" y="29.3833856" width="9.00014962" height="267.604449"></rect>
                        <rect id="Rectangle-path" fill="#A75E4E" transform="translate(284.797590, 165.735860) rotate(-26.390815) translate(-284.797590, -165.735860) " x="283.697569" y="31.9333252" width="2.20004168" height="267.60507"></rect>
                        <rect id="Rectangle-path" fill="#5C2010" transform="translate(294.894920, 160.712160) rotate(-26.403626) translate(-294.894920, -160.712160) " x="293.7949" y="26.9097128" width="2.20004024" height="267.604894"></rect>
                        <rect id="Rectangle-path" fill="#2D1212" x="0.2" y="2.7" width="336.2" height="6.7"></rect>
                        <rect id="Rectangle-path" fill="#A75E4E" x="0.2" y="2.7" width="338.4" height="2.2"></rect>
                        <rect id="Rectangle-path" fill="#5C2010" x="0.2" y="7.2" width="336.2" height="2.2"></rect>
                        <rect id="Rectangle-path" fill="#5C2010" x="320.7" y="0.5" width="4.5" height="2.2"></rect>
                        <rect id="Rectangle-path" fill="#984233" x="0.2" y="9.4" width="403.6" height="42.7"></rect>
                        <rect id="Rectangle-path" fill="#A75E4E" x="0.2" y="36.4" width="403.6" height="9"></rect>
                        <rect id="Rectangle-path" fill="#B07566" x="0.2" y="22.9" width="403.6" height="4.5"></rect>
                        <rect id="Rectangle-path" fill="#A75E4E" x="66.8" y="7.2" width="2.2" height="29.2"></rect>
                        <rect id="Rectangle-path" fill="#5C2010" x="64.5" y="7.2" width="2.2" height="29.2"></rect>
                        <rect id="Rectangle-path" fill="#A75E4E" x="145.4" y="7.2" width="2.2" height="29.2"></rect>
                        <rect id="Rectangle-path" fill="#5C2010" x="143.2" y="7.2" width="2.2" height="29.2"></rect>
                        <rect id="Rectangle-path" fill="#A75E4E" x="289.2" y="7.2" width="2.2" height="29.2"></rect>
                        <rect id="Rectangle-path" fill="#5C2010" x="287" y="7.2" width="2.2" height="29.2"></rect>
                        <rect id="Rectangle-path" fill="#A75E4E" x="401.6" y="7.2" width="2.2" height="44.9"></rect>
                        <rect id="Rectangle-path" fill="#5C2010" x="399.3" y="7.2" width="2.2" height="44.9"></rect>
                        <rect id="Rectangle-path" fill="#CEA69D" x="84.7" y="128.5" width="4.5" height="4.5"></rect>
                        <rect id="Rectangle-path" fill="#CEA69D" x="91.5" y="128.5" width="4.5" height="4.5"></rect>
                        <rect id="Rectangle-path" fill="#CEA69D" x="109.5" y="128.5" width="4.5" height="4.5"></rect>
                        <rect id="Rectangle-path" fill="#CEA69D" x="100.5" y="128.5" width="2.2" height="4.5"></rect>
                        <rect id="Rectangle-path" fill="#CEA69D" x="105" y="128.5" width="2.2" height="4.5"></rect>
                        <rect id="Rectangle-path" fill="#CEA69D" x="116.2" y="128.5" width="2.2" height="4.5"></rect>
                        <rect id="Rectangle-path" fill="#CEA69D" x="122.9" y="128.5" width="4.5" height="4.5"></rect>
                        <rect id="Rectangle-path" fill="#CEA69D" x="129.7" y="128.5" width="2.2" height="4.5"></rect>
                        <rect id="Rectangle-path" fill="#CEA69D" x="116.2" y="135.3" width="4.5" height="2.2"></rect>
                        <rect id="Rectangle-path" fill="#CEA69D" x="127.4" y="135.3" width="2.2" height="2.2"></rect>
                        <rect id="Rectangle-path" fill="#CEA69D" x="122.9" y="135.3" width="2.2" height="2.2"></rect>
                        <rect id="Rectangle-path" fill="#CEA69D" x="111.7" y="135.3" width="2.2" height="2.2"></rect>
                        <rect id="Rectangle-path" fill="#CEA69D" x="102.7" y="135.3" width="4.5" height="2.2"></rect>
                        <rect id="Rectangle-path" fill="#CEA69D" x="98.2" y="135.3" width="2.2" height="2.2"></rect>
                        <rect id="Rectangle-path" fill="#CEA69D" x="89.2" y="135.3" width="4.5" height="2.2"></rect>
                        <rect id="Rectangle-path" fill="#CEA69D" x="84.7" y="135.3" width="2.2" height="2.2"></rect>
                        <rect id="Rectangle-path" fill="#CEA69D" x="84.7" y="139.8" width="4.5" height="2.2"></rect>
                        <rect id="Rectangle-path" fill="#CEA69D" x="91.5" y="139.8" width="4.5" height="2.2"></rect>
                        <rect id="Rectangle-path" fill="#CEA69D" x="109.5" y="139.8" width="4.5" height="2.2"></rect>
                        <rect id="Rectangle-path" fill="#CEA69D" x="100.5" y="139.8" width="2.2" height="2.2"></rect>
                        <rect id="Rectangle-path" fill="#CEA69D" x="105" y="139.8" width="2.2" height="2.2"></rect>
                        <rect id="Rectangle-path" fill="#CEA69D" x="116.2" y="139.8" width="2.2" height="2.2"></rect>
                        <rect id="Rectangle-path" fill="#CEA69D" x="122.9" y="139.8" width="4.5" height="2.2"></rect>
                        <rect id="Rectangle-path" fill="#CEA69D" x="129.7" y="139.8" width="2.2" height="2.2"></rect>
                        <rect id="Rectangle-path" fill="#CEA69D" x="84.7" y="119.5" width="20.2" height="4.5"></rect>
                        <rect id="Rectangle-path" fill="#CEA69D" x="87" y="121.8" width="2.2" height="2.2"></rect>
                        <rect id="Rectangle-path" fill="#CEA69D" x="98.2" y="121.8" width="2.2" height="2.2"></rect>
                        <rect id="Rectangle-path" fill="#CEA69D" x="109.5" y="119.5" width="9" height="4.5"></rect>
                        <rect id="Rectangle-path" fill="#CEA69D" x="120.7" y="119.5" width="4.5" height="4.5"></rect>
                        <rect id="Rectangle-path" fill="#CEA69D" x="84.7" y="99.3" width="2.2" height="13.5"></rect>
                        <rect id="Rectangle-path" fill="#CEA69D" x="91.5" y="99.3" width="2.2" height="13.5"></rect>
                        <rect id="Rectangle-path" fill="#CEA69D" x="98.2" y="99.3" width="2.2" height="13.5"></rect>
                        <rect id="Rectangle-path" fill="#CEA69D" x="93.7" y="99.3" width="4.5" height="2.2"></rect>
                        <rect id="Rectangle-path" fill="#CEA69D" x="93.7" y="110.6" width="4.5" height="2.2"></rect>
                        <rect id="Rectangle-path" fill="#984233" x="0.2" y="238.6" width="333.9" height="11.2"></rect>
                        <rect id="Rectangle-path" fill="#5C2010" x="0.2" y="247.6" width="333.9" height="4.5"></rect>
                        <rect id="Rectangle-path" fill="#A75E4E" x="0.2" y="236.4" width="333.9" height="2.2"></rect>
                        <rect id="Rectangle-path" fill="#702B14" transform="translate(115.211610, 301.500020) rotate(-16.911070) translate(-115.211610, -301.500020) " x="114.111561" y="267.79852" width="2.20009795" height="67.4030009"></rect>
                        <rect id="Rectangle-path" fill="#702B14" transform="translate(182.540230, 301.539160) rotate(-70.378166) translate(-182.540230, -301.539160) " x="148.841287" y="300.439195" width="67.3978853" height="2.19993097"></rect>
                        <rect id="Rectangle-path" fill="#702B14" x="102.8" y="267.8" width="94.3" height="2.2"></rect>
                        <rect id="Rectangle-path" fill="#7E2B16" x="116.3" y="281.3" width="65.2" height="6.7"></rect>
                        <rect id="Rectangle-path" fill="#702B14" x="125.3" y="312.8" width="47.2" height="6.7"></rect>
                        <rect id="Rectangle-path" fill="#421E13" x="125.3" y="319.5" width="47.2" height="2.2"></rect>
                        <rect id="Rectangle-path" fill="#421E13" x="116.3" y="288.1" width="65.2" height="2.2"></rect>
                        <rect id="Rectangle-path" fill="#421E13" x="136.5" y="294.8" width="24.7" height="6.7"></rect>
                        <rect id="Rectangle-path" fill="#202E3E" x="543.1" y="281.3" width="22.5" height="27"></rect>
                        <rect id="Rectangle-path" fill="#020303" x="473.5" y="285.8" width="83.1" height="15.7"></rect>
                        <rect id="Rectangle-path" fill="#020303" x="531.9" y="288.1" width="4.5" height="31.5"></rect>
                        <rect id="Rectangle-path" fill="#66615F" x="520.7" y="288.1" width="15.7" height="9"></rect>
                        <path d="M574.6,303.8 C574.6,306.3 572.6,308.3 570.1,308.3 L554.4,308.3 C551.9,308.3 549.9,306.3 549.9,303.8 L561.1,283.6 L561.1,279.1 L570.1,279.1 C572.6,279.1 574.6,281.1 574.6,283.6 L574.6,303.8 Z" id="Shape" fill="#494D56"></path>
                        <rect id="Rectangle-path" fill="#66615F" x="547.6" y="281.3" width="22.5" height="27"></rect>
                        <rect id="Rectangle-path" fill="#83807E" x="547.6" y="283.6" width="22.5" height="2.2"></rect>
                        <rect id="Rectangle-path" fill="#83807E" x="567.8" y="285.8" width="2.2" height="18"></rect>
                        <rect id="Rectangle-path" fill="#979797" x="547.6" y="285.8" width="2.2" height="18"></rect>
                        <rect id="Rectangle-path" fill="#202E3E" x="543.1" y="292.6" width="22.5" height="4.5"></rect>
                        <rect id="Rectangle-path" fill="#020303" x="543.1" y="292.6" width="22.5" height="2.2"></rect>
                        <rect id="Rectangle-path" fill="#83807E" x="547.6" y="290.3" width="15.7" height="2.2"></rect>
                        <rect id="Rectangle-path" fill="#202E3E" x="563.3" y="288.1" width="2.2" height="15.7"></rect>
                        <polygon id="Shape" fill="#020303" points="287 306 329.7 348.7 392.6 348.7 433 308.3 433 288.1 287 288.1"></polygon>
                        <path d="M403.8,326.3 C403.8,349.9 422.9,369 446.5,369 C470.1,369 489.2,349.9 489.2,326.3 C489.2,302.7 470.1,283.6 446.5,283.6 C422.9,283.6 403.8,302.7 403.8,326.3" id="Shape" fill="#192238"></path>
                        <path d="M408.3,326.3 C408.3,347.4 425.4,364.5 446.5,364.5 C467.6,364.5 484.7,347.4 484.7,326.3 C484.7,305.2 467.6,288.1 446.5,288.1 C425.4,288.1 408.3,305.2 408.3,326.3" id="Shape" fill="#919497"></path>
                        <path d="M412.8,326.3 C412.8,344.9 427.9,360 446.5,360 C465.1,360 480.2,344.9 480.2,326.3 C480.2,307.7 465.1,292.6 446.5,292.6 C427.9,292.6 412.8,307.6 412.8,326.3" id="Shape" fill="#020303"></path>
                        <path d="M424,312.8 L448.7,312.8 C455.4,312.8 453.2,328.5 453.2,328.5 C453.2,328.5 466.7,328.5 466.7,315 C466.7,306 457.7,303.8 453.2,303.8 L424,303.8 L424,312.8 Z" id="Shape" fill="#373F51"></path>
                        <rect id="Rectangle-path" fill="#373F51" x="361.1" y="308.3" width="4.5" height="22.5"></rect>
                        <rect id="Rectangle-path" fill="#1A253B" x="370.1" y="326.3" width="22.5" height="2.2"></rect>
                        <rect id="Rectangle-path" fill="#919497" x="370.1" y="321.8" width="22.5" height="2.2"></rect>
                        <rect id="Rectangle-path" fill="#373F51" x="374.6" y="326.3" width="9" height="2.2"></rect>
                        <rect id="Rectangle-path" fill="#6E6A69" x="374.6" y="321.8" width="9" height="2.2"></rect>
                        <rect id="Rectangle-path" fill="#1A253B" x="370.1" y="319.5" width="22.5" height="2.2"></rect>
                        <rect id="Rectangle-path" fill="#373F51" x="374.6" y="319.5" width="9" height="2.2"></rect>
                        <rect id="Rectangle-path" fill="#919497" x="370.1" y="315" width="22.5" height="2.2"></rect>
                        <rect id="Rectangle-path" fill="#6E6A69" x="374.6" y="315" width="9" height="2.2"></rect>
                        <rect id="Rectangle-path" fill="#1A253B" x="370.1" y="312.8" width="22.5" height="2.2"></rect>
                        <rect id="Rectangle-path" fill="#373F51" x="374.6" y="312.8" width="9" height="2.2"></rect>
                        <path d="M421.8,315 L421.8,315 C417.3,319.5 410.6,326.2 408.3,328.5 C406.1,330.7 401.6,333 401.6,324 C401.6,323.3 401.6,315.8 401.6,315 C401.7,308.7 402.3,308.3 408.3,308.3 L421.8,308.3 C424,308.3 426.3,310.5 421.8,315 M426.3,299.3 L361.1,299.3 L361.1,308.3 L385.8,308.3 C390.3,308.3 394.8,310.5 394.8,317.3 L394.8,342 C393.1,344.2 390.3,346.5 385.8,346.5 L361.1,346.5 L361.1,353.2 L390.3,353.2 C397,353.2 401.5,346.5 401.5,346.5 C401.5,346.5 419.5,328.5 430.7,317.3 C442,306 439.8,299.3 426.3,299.3" id="Shape" fill="#373F51"></path>
                        <path d="M460,335.2 C460,337.7 458,339.7 455.5,339.7 L437.5,339.7 C435,339.7 433,337.7 433,335.2 L433,317.2 C433,314.7 435,312.7 437.5,312.7 L455.5,312.7 C458,312.7 460,314.7 460,317.2 L460,335.2 Z" id="Shape" fill="#919497"></path>
                        <path d="M435.3,326.3 C435.3,332.5 440.3,337.5 446.5,337.5 C452.7,337.5 457.7,332.5 457.7,326.3 C457.7,320.1 452.7,315.1 446.5,315.1 C440.3,315 435.3,320.1 435.3,326.3" id="Shape" fill="#020303"></path>
                        <path d="M437.5,326.3 C437.5,331.3 441.5,335.3 446.5,335.3 C451.5,335.3 455.5,331.3 455.5,326.3 C455.5,321.3 451.5,317.3 446.5,317.3 C441.5,317.3 437.5,321.3 437.5,326.3" id="Shape" fill="#373F51"></path>
                        <path d="M442,326.3 C442,328.8 444,330.8 446.5,330.8 C449,330.8 451,328.8 451,326.3 C451,323.8 449,321.8 446.5,321.8 C444,321.8 442,323.8 442,326.3" id="Shape" fill="#919497"></path>
                        <path d="M318.4,326.3 C318.4,349.9 299.3,369 275.7,369 C252.1,369 233,349.9 233,326.3 C233,302.7 252.1,283.6 275.7,283.6 C299.3,283.6 318.4,302.7 318.4,326.3" id="Shape" fill="#192238"></path>
                        <path d="M313.9,326.3 C313.9,347.4 296.8,364.5 275.7,364.5 C254.6,364.5 237.5,347.4 237.5,326.3 C237.5,305.2 254.6,288.1 275.7,288.1 C296.8,288.1 313.9,305.2 313.9,326.3" id="Shape" fill="#919497"></path>
                        <path d="M309.4,326.3 C309.4,344.9 294.3,360 275.7,360 C257.1,360 242,344.9 242,326.3 C242,307.7 257.1,292.6 275.7,292.6 C294.3,292.6 309.4,307.6 309.4,326.3" id="Shape" fill="#020303"></path>
                        <path d="M298.2,312.8 L273.5,312.8 C266.8,312.8 269,328.5 269,328.5 C269,328.5 255.5,328.5 255.5,315 C255.5,306 264.5,303.8 269,303.8 L298.2,303.8 L298.2,312.8 Z" id="Shape" fill="#373F51"></path>
                        <rect id="Rectangle-path" fill="#373F51" x="356.6" y="308.3" width="4.5" height="22.5"></rect>
                        <rect id="Rectangle-path" fill="#1A253B" x="329.7" y="326.3" width="22.5" height="2.2"></rect>
                        <rect id="Rectangle-path" fill="#919497" x="329.7" y="321.8" width="22.5" height="2.2"></rect>
                        <rect id="Rectangle-path" fill="#373F51" x="338.6" y="326.3" width="9" height="2.2"></rect>
                        <rect id="Rectangle-path" fill="#6E6A69" x="338.6" y="321.8" width="9" height="2.2"></rect>
                        <rect id="Rectangle-path" fill="#1A253B" x="329.7" y="319.5" width="22.5" height="2.2"></rect>
                        <rect id="Rectangle-path" fill="#373F51" x="338.6" y="319.5" width="9" height="2.2"></rect>
                        <rect id="Rectangle-path" fill="#919497" x="329.7" y="315" width="22.5" height="2.2"></rect>
                        <rect id="Rectangle-path" fill="#6E6A69" x="338.6" y="315" width="9" height="2.2"></rect>
                        <rect id="Rectangle-path" fill="#1A253B" x="329.7" y="312.8" width="22.5" height="2.2"></rect>
                        <rect id="Rectangle-path" fill="#373F51" x="338.6" y="312.8" width="9" height="2.2"></rect>
                        <path d="M300.4,308.3 L300.4,308.3 L313.9,308.3 C319.9,308.3 320.6,308.7 320.6,315 C320.6,315.8 320.6,323.3 320.6,324 C320.6,333 316.1,330.7 313.9,328.5 C311.7,326.3 304.9,319.5 300.4,315 C296,310.5 298.2,308.3 300.4,308.3 M291.5,317.3 C302.7,328.5 320.7,346.5 320.7,346.5 C320.7,346.5 325.2,353.2 331.9,353.2 L361.1,353.2 L361.1,346.5 L336.4,346.5 C331.9,346.5 329.1,344.3 327.4,342 L327.4,317.3 C327.4,310.6 331.9,308.3 336.4,308.3 L361.1,308.3 L361.1,299.3 L296,299.3 C282.5,299.3 280.2,306 291.5,317.3" id="Shape" fill="#373F51"></path>
                        <path d="M392.6,300.4 C392.6,302.3 391.1,303.8 389.2,303.8 L330.8,303.8 C328.9,303.8 327.4,302.3 327.4,300.4 C327.4,298.5 328.9,297 330.8,297 L389.2,297 C391.1,297.1 392.6,298.6 392.6,300.4" id="Shape" fill="#373F51"></path>
                        <path d="M385.8,302.7 C385.8,303.3 385.3,303.8 384.7,303.8 L337.5,303.8 C336.9,303.8 336.4,303.3 336.4,302.7 C336.4,302.1 336.9,301.6 337.5,301.6 L384.7,301.6 C385.3,301.5 385.8,302 385.8,302.7" id="Shape" fill="#020303"></path>
                        <rect id="Rectangle-path" fill="#373F51" x="327.4" y="290.3" width="24.7" height="2.2"></rect>
                        <rect id="Rectangle-path" fill="#373F51" x="370.1" y="290.3" width="24.7" height="2.2"></rect>
                        <path d="M289.2,335.2 C289.2,337.7 287.2,339.7 284.7,339.7 L266.7,339.7 C264.2,339.7 262.2,337.7 262.2,335.2 L262.2,317.2 C262.2,314.7 264.2,312.7 266.7,312.7 L284.7,312.7 C287.2,312.7 289.2,314.7 289.2,317.2 L289.2,335.2 Z" id="Shape" fill="#919497"></path>
                        <path d="M287,326.3 C287,332.5 282,337.5 275.8,337.5 C269.6,337.5 264.6,332.5 264.6,326.3 C264.6,320.1 269.6,315.1 275.8,315.1 C281.9,315 287,320.1 287,326.3" id="Shape" fill="#020303"></path>
                        <path d="M284.7,326.3 C284.7,331.3 280.7,335.3 275.7,335.3 C270.7,335.3 266.7,331.3 266.7,326.3 C266.7,321.3 270.7,317.3 275.7,317.3 C280.7,317.3 284.7,321.3 284.7,326.3" id="Shape" fill="#373F51"></path>
                        <path d="M280.2,326.3 C280.2,328.8 278.2,330.8 275.7,330.8 C273.2,330.8 271.2,328.8 271.2,326.3 C271.2,323.8 273.2,321.8 275.7,321.8 C278.2,321.8 280.2,323.8 280.2,326.3" id="Shape" fill="#919497"></path>
                        <rect id="Rectangle-path" fill="#020303" x="293.7" y="279.1" width="80.9" height="6.7"></rect>
                        <path d="M26.3,317.3 L26.3,317.3 C20.1,317.3 15.1,312.3 15.1,306.1 C15.1,299.9 20.1,294.9 26.3,294.9 C32.5,294.9 37.5,299.9 37.5,306.1 C37.6,312.2 32.5,317.3 26.3,317.3 M26.3,290.3 C17.6,290.3 10.6,297.3 10.6,306 C10.6,314.7 17.6,321.7 26.3,321.7 C35,321.7 42,314.7 42,306 C42,297.3 35,290.3 26.3,290.3" id="Shape" fill="#495062"></path>
                        <rect id="Rectangle-path" fill="#495062" transform="translate(25.294650, 304.972990) rotate(-44.967588) translate(-25.294650, -304.972990) " x="10.9947848" y="303.873" width="28.5997303" height="2.19997925"></rect>
                        <rect id="Rectangle-path" fill="#495062" transform="translate(26.859505, 305.463865) rotate(-45.032412) translate(-26.859505, -305.463865) " x="25.7595154" y="291.213999" width="2.19997925" height="28.4997312"></rect>
                        <path d="M26.3,301.5 C23.8,301.5 21.8,303.5 21.8,306 C21.8,308.5 23.8,310.5 26.3,310.5 C28.8,310.5 30.8,308.5 30.8,306 C30.8,303.6 28.8,301.5 26.3,301.5" id="Shape" fill="#495062"></path>
                        <path d="M26.3,301.5 C24.4,301.5 22.9,303 22.9,304.9 C22.9,306.8 24.4,308.3 26.3,308.3 C28.2,308.3 29.7,306.8 29.7,304.9 C29.7,303.1 28.2,301.5 26.3,301.5" id="Shape" fill="#495062"></path>
                        <path d="M26.3,303.8 C25.1,303.8 24.1,304.8 24.1,306 C24.1,307.2 25.1,308.2 26.3,308.2 C27.5,308.2 28.5,307.2 28.5,306 C28.6,304.8 27.6,303.8 26.3,303.8" id="Shape" fill="#495062"></path>
                        <polygon id="Shape" fill="#984233" points="253.3 79.1 226.3 79.1 226.3 52.1 239.8 52.1"></polygon>
                        <rect id="Rectangle-path" fill="#A75E4E" x="246.5" y="72.4" width="2.2" height="2.2"></rect>
                        <rect id="Rectangle-path" fill="#5C2010" x="246.5" y="74.6" width="2.2" height="2.2"></rect>
                        <rect id="Rectangle-path" fill="#A75E4E" x="228.5" y="72.4" width="2.2" height="2.2"></rect>
                        <rect id="Rectangle-path" fill="#5C2010" x="228.5" y="74.6" width="2.2" height="2.2"></rect>
                        <rect id="Rectangle-path" fill="#A75E4E" x="228.5" y="56.6" width="2.2" height="2.2"></rect>
                        <rect id="Rectangle-path" fill="#5C2010" x="228.5" y="58.9" width="2.2" height="2.2"></rect>
                        <rect id="Rectangle-path" fill="#A75E4E" x="237.5" y="56.6" width="2.2" height="2.2"></rect>
                        <rect id="Rectangle-path" fill="#5C2010" x="237.5" y="58.9" width="2.2" height="2.2"></rect>
                        <rect id="Rectangle-path" fill="#A75E4E" x="242" y="63.4" width="2.2" height="2.2"></rect>
                        <rect id="Rectangle-path" fill="#5C2010" x="242" y="65.6" width="2.2" height="2.2"></rect>
                        <rect id="Rectangle-path" fill="#A75E4E" x="228.5" y="63.4" width="2.2" height="2.2"></rect>
                        <rect id="Rectangle-path" fill="#5C2010" x="228.5" y="65.6" width="2.2" height="2.2"></rect>
                        <rect id="Rectangle-path" fill="#5C2010" x="226.3" y="79.1" width="27" height="2.2"></rect>
                        <rect id="Rectangle-path" fill="#020303" x="518.4" y="267.8" width="2.2" height="85.4"></rect>
                        <rect id="Rectangle-path" fill="#020303" x="498.2" y="310.5" width="20.2" height="2.2"></rect>
                        <rect id="Rectangle-path" fill="#020303" x="498.2" y="292.6" width="20.2" height="2.2"></rect>
                        <rect id="Rectangle-path" fill="#020303" x="495.9" y="267.8" width="2.2" height="85.5"></rect>
                        <rect id="Rectangle-path" fill="#984233" x="127.4" y="292.6" width="2.2" height="15.7"></rect>
                        <rect id="Rectangle-path" fill="#984233" x="167.9" y="292.6" width="2.2" height="15.7"></rect>
                        <rect id="Rectangle-path" fill="#CEA69D" x="102.9" y="99.3" width="2.2" height="13.5"></rect>
                        <rect id="Rectangle-path" fill="#CEA69D" x="109.6" y="99.3" width="2.2" height="13.5"></rect>
                        <rect id="Rectangle-path" fill="#CEA69D" x="105.2" y="99.3" width="4.5" height="2.2"></rect>
                        <rect id="Rectangle-path" fill="#CEA69D" x="105.2" y="110.6" width="4.5" height="2.2"></rect>
                    </g>
                </g>
            </g>
        </g>
    </g>
</svg>