<?xml version="1.0" encoding="UTF-8"?>
<svg width="1440px" height="26px" viewBox="0 0 1440 26" version="1.1" xmlns="http://www.w3.org/2000/svg" xmlns:xlink="http://www.w3.org/1999/xlink">
    <!-- Generator: sketchtool 46.2 (44496) - http://www.bohemiancoding.com/sketch -->
    <title>DDDD7B34-F7C7-4C8A-8F20-67307640A5B2</title>
    <desc>Created with sketchtool.</desc>
    <defs></defs>
    <g id="Page-1" stroke="none" stroke-width="1" fill="none" fill-rule="evenodd" stroke-linecap="round" stroke-linejoin="round">
        <g id="MainPage-vagon-6" transform="translate(0.000000, -558.000000)" stroke="#F48266" stroke-width="1.417">
            <g id="Rails" transform="translate(-501.000000, 558.000000)">
                <path d="M1218.897,13.779 L1198.769,13.779 L1198.769,24.421 L1170.085,24.421 L1170.085,13.779 L1122.331,13.779 L1122.331,24.421 L1093.663,24.421 L1093.663,13.779 L1045.924,13.779 L1045.924,24.421 L1017.214,24.421 L1017.214,13.779 L969.481,13.779 L969.481,24.421 L940.791,24.421 L940.791,13.779 L893.04,13.779 L893.04,24.421 L864.339,24.421 L864.339,13.779 L816.631,13.779 L816.631,24.421 L787.926,24.421 L787.926,13.779 L740.201,13.779 L740.201,24.421 L711.502,24.421 L711.502,13.779 L663.764,13.779 L663.764,24.421 L635.067,24.421 L635.067,13.779 L587.326,13.779 L587.326,24.421 L558.633,24.421 L558.633,13.779 L510.902,13.779 L510.902,24.421 L482.219,24.421 L482.219,13.779 L434.464,13.779 L434.464,24.421 L405.783,24.421 L405.783,13.779 L358.029,13.779 L358.029,24.421 L329.344,24.421 L329.344,13.779 L281.62,13.779 L281.62,24.421 L252.935,24.421 L252.935,13.779 L205.183,13.779 L205.183,24.421 L176.489,24.421 L176.489,13.779 L128.748,13.779 L128.748,24.421 L100.051,24.421 L100.051,13.779 L52.308,13.779 L52.308,24.421 L23.628,24.421 L23.628,13.779 L0,13.779 M0,1.417 L1218.897,1.417" id="Page-1"></path>
                <path d="M2438.897,13.779 L2418.769,13.779 L2418.769,24.421 L2390.085,24.421 L2390.085,13.779 L2342.331,13.779 L2342.331,24.421 L2313.663,24.421 L2313.663,13.779 L2265.924,13.779 L2265.924,24.421 L2237.214,24.421 L2237.214,13.779 L2189.481,13.779 L2189.481,24.421 L2160.791,24.421 L2160.791,13.779 L2113.04,13.779 L2113.04,24.421 L2084.339,24.421 L2084.339,13.779 L2036.631,13.779 L2036.631,24.421 L2007.926,24.421 L2007.926,13.779 L1960.201,13.779 L1960.201,24.421 L1931.502,24.421 L1931.502,13.779 L1883.764,13.779 L1883.764,24.421 L1855.067,24.421 L1855.067,13.779 L1807.326,13.779 L1807.326,24.421 L1778.633,24.421 L1778.633,13.779 L1730.902,13.779 L1730.902,24.421 L1702.219,24.421 L1702.219,13.779 L1654.464,13.779 L1654.464,24.421 L1625.783,24.421 L1625.783,13.779 L1578.029,13.779 L1578.029,24.421 L1549.344,24.421 L1549.344,13.779 L1501.62,13.779 L1501.62,24.421 L1472.935,24.421 L1472.935,13.779 L1425.183,13.779 L1425.183,24.421 L1396.489,24.421 L1396.489,13.779 L1348.748,13.779 L1348.748,24.421 L1320.051,24.421 L1320.051,13.779 L1272.308,13.779 L1272.308,24.421 L1243.628,24.421 L1243.628,13.779 L1220,13.779 M1220,1.417 L2438.897,1.417" id="Page-1-Copy"></path>
            </g>
        </g>
    </g>
</svg>