<svg xmlns="http://www.w3.org/2000/svg" width="575" height="369" viewBox="0 0 575 369">
    <defs>
        <linearGradient id="a" x1="50%" x2="50%" y1="0%" y2="100%">
            <stop offset="0%" stop-color="#8A331E"/>
            <stop offset="100%" stop-color="#5C2010"/>
        </linearGradient>
    </defs>
    <g fill="none" fill-rule="nonzero">
        <path fill="#020303" d="M.2 279.1h520.4v15.7H.2z"/>
        <path fill="#020303" d="M127.4 292.6h179.8v13.5H127.4zM.2 258.9h80v58.4H.2z"/>
        <path fill="#020303" d="M154.4 297.1h31.5v13.5h-31.5zM15.1 290.3h22.5v36H15.1zM53.3 290.3h2.2v36h-2.2zM96 294.8h6.7v27H96zM102.7 317.3h2.2v13.5h-2.2zM275.7 261.1c0 7.4 6 13.5 13.5 13.5 7.4 0 13.5-6 13.5-13.5 0-7.4-6-13.5-13.5-13.5-7.4 0-13.5 6.1-13.5 13.5M435.3 265.6H451v15.7h-15.7zM304.9 265.6h15.7v15.7h-15.7zM370.1 261.1h87.6v4.5h-87.6z"/>
        <path fill="#020303" d="M296 256.6h78.6v13.5H296z"/>
        <path fill="#5C2010" d="M338.6 101.6h6.7v179.8h-6.7z"/>
        <path fill="#83291A" d="M343.1 101.6h2.2v179.8h-2.2z"/>
        <path fill="#5C2010" d="M200.293 140.686l4.736-4.739 127.155 127.119-4.737 4.738z"/>
        <path fill="#83291A" d="M203.448 137.533l1.555-1.555L332.14 263.114l-1.556 1.556z"/>
        <path fill="#5C2010" d="M320.7 261.1h31.5v11.2h-31.5z"/>
        <path fill="url(#a)" d="M.2.6h403.6l-191 256.2-170.8-54H.2z" transform="translate(0 65)"/>
        <g>
            <path fill="#903522" d="M388.1 65.6s-87.6 123.6-125.8 155c-38.2 31.5-78.6 69.7-146.1 60.7-67.4-9 56.2 24.7 56.2 24.7l85.4-42.7L392.6 65.6h-4.5z"/>
            <path fill="#5C2010" d="M228.5 239.8c-92.1 56.2-193.2 5.6-202.2 5.6-3.2 0-12.7-1.5-26.1-2.6v25.1h21.6l71.9 78.6h107.9l123.6-179.8c-38.2 42.7-77.2 61.2-96.7 73.1"/>
            <path fill="#5C2010" d="M.2 173.5h325v2.2H.2z"/>
            <path fill="#984233" d="M.2 171.2h325v2.2H.2z"/>
            <path fill="#5C2010" d="M.2 52.1h403.6v13.5H.2z"/>
            <path fill="#A75E4E" d="M.2 52.1h403.6v4.5H.2z"/>
            <path fill="#2D1212" d="M.2 56.6h396.9v4.5H.2z"/>
            <path fill="#984233" d="M228.5 43.1h9v195.5h-9z"/>
            <path fill="#A75E4E" d="M235.3 45.4h2.2v193.2h-2.2z"/>
            <path fill="#5C2010" d="M226.3 54.4h2.2v170.8h-2.2z"/>
            <path fill="#5C2010" d="M226.3 225.1h2.2v11.2h-2.2zM219.6 236.4h6.7v-31.5z"/>
            <path fill="#984233" d="M145.4 43.1h9v195.5h-9z"/>
            <path fill="#A75E4E" d="M152.1 45.4h2.2v193.2h-2.2z"/>
            <path fill="#5C2010" d="M143.2 54.4h2.2v170.8h-2.2z"/>
            <path fill="#5C2010" d="M143.2 225.1h2.2v11.2h-2.2z"/>
            <path fill="#5C2010" d="M136.4 236.4h6.8v-31.5z"/>
            <path fill="#984233" d="M64.5 40.9h9v195.5h-9z"/>
            <path fill="#A75E4E" d="M71.3 43.1h2.2v193.2h-2.2z"/>
            <path fill="#5C2010" d="M62.3 52.1h2.2v184.3h-2.2zM55.5 236.4h6.8v-31.5z"/>
            <path fill="#984233" d="M226.281 45.385l8.059-4.008 119.162 239.609-8.058 4.007z"/>
            <path fill="#A75E4E" d="M224.338 46.366l1.971-.978 118.948 239.716-1.97.978z"/>
            <path fill="#5C2010" d="M234.409 41.357l1.97-.978 119.002 239.689-1.97.978z"/>
            <path fill="#2D1212" d="M.2 2.7h336.2v6.7H.2z"/>
            <path fill="#A75E4E" d="M.2 2.7h338.4v2.2H.2z"/>
            <path fill="#5C2010" d="M.2 7.2h336.2v2.2H.2zM320.7.5h4.5v2.2h-4.5z"/>
            <path fill="#984233" d="M.2 9.4h403.6v42.7H.2z"/>
            <path fill="#A75E4E" d="M.2 36.4h403.6v9H.2z"/>
            <path fill="#B07566" d="M.2 22.9h403.6v4.5H.2z"/>
            <path fill="#A75E4E" d="M66.8 7.2H69v29.2h-2.2z"/>
            <path fill="#5C2010" d="M64.5 7.2h2.2v29.2h-2.2z"/>
            <path fill="#A75E4E" d="M145.4 7.2h2.2v29.2h-2.2z"/>
            <path fill="#5C2010" d="M143.2 7.2h2.2v29.2h-2.2z"/>
            <path fill="#A75E4E" d="M289.2 7.2h2.2v29.2h-2.2z"/>
            <path fill="#5C2010" d="M287 7.2h2.2v29.2H287z"/>
            <path fill="#A75E4E" d="M401.6 7.2h2.2v44.9h-2.2z"/>
            <path fill="#5C2010" d="M399.3 7.2h2.2v44.9h-2.2z"/>
            <path fill="#CEA69D" d="M84.7 128.5h4.5v4.5h-4.5zM91.5 128.5H96v4.5h-4.5zM109.5 128.5h4.5v4.5h-4.5zM100.5 128.5h2.2v4.5h-2.2zM105 128.5h2.2v4.5H105zM116.2 128.5h2.2v4.5h-2.2zM122.9 128.5h4.5v4.5h-4.5zM129.7 128.5h2.2v4.5h-2.2zM116.2 135.3h4.5v2.2h-4.5zM127.4 135.3h2.2v2.2h-2.2zM122.9 135.3h2.2v2.2h-2.2zM111.7 135.3h2.2v2.2h-2.2zM102.7 135.3h4.5v2.2h-4.5zM98.2 135.3h2.2v2.2h-2.2zM89.2 135.3h4.5v2.2h-4.5zM84.7 135.3h2.2v2.2h-2.2zM84.7 139.8h4.5v2.2h-4.5zM91.5 139.8H96v2.2h-4.5zM109.5 139.8h4.5v2.2h-4.5zM100.5 139.8h2.2v2.2h-2.2zM105 139.8h2.2v2.2H105zM116.2 139.8h2.2v2.2h-2.2zM122.9 139.8h4.5v2.2h-4.5zM129.7 139.8h2.2v2.2h-2.2zM84.7 119.5h20.2v4.5H84.7z"/>
            <path fill="#CEA69D" d="M87 121.8h2.2v2.2H87zM98.2 121.8h2.2v2.2h-2.2zM109.5 119.5h9v4.5h-9zM120.7 119.5h4.5v4.5h-4.5zM84.7 99.3h2.2v13.5h-2.2zM91.5 99.3h2.2v13.5h-2.2zM98.2 99.3h2.2v13.5h-2.2zM93.7 99.3h4.5v2.2h-4.5zM93.7 110.6h4.5v2.2h-4.5z"/>
            <path fill="#984233" d="M.2 238.6h333.9v11.2H.2z"/>
            <path fill="#5C2010" d="M.2 247.6h333.9v4.5H.2z"/>
            <path fill="#A75E4E" d="M.2 236.4h333.9v2.2H.2z"/>
            <path fill="#702B14" d="M104.356 269.576l2.105-.64 19.607 64.489-2.105.64zM170.187 332.912l22.633-63.484 2.073.739-22.633 63.484z"/>
            <path fill="#702B14" d="M102.8 267.8h94.3v2.2h-94.3z"/>
            <path fill="#7E2B16" d="M116.3 281.3h65.2v6.7h-65.2z"/>
            <path fill="#702B14" d="M125.3 312.8h47.2v6.7h-47.2z"/>
            <path fill="#421E13" d="M125.3 319.5h47.2v2.2h-47.2zM116.3 288.1h65.2v2.2h-65.2zM136.5 294.8h24.7v6.7h-24.7z"/>
            <path fill="#202E3E" d="M543.1 281.3h22.5v27h-22.5z"/>
            <path fill="#020303" d="M473.5 285.8h83.1v15.7h-83.1z"/>
            <path fill="#020303" d="M531.9 288.1h4.5v31.5h-4.5z"/>
            <path fill="#66615F" d="M520.7 288.1h15.7v9h-15.7z"/>
            <path fill="#494D56" d="M574.6 303.8c0 2.5-2 4.5-4.5 4.5h-15.7c-2.5 0-4.5-2-4.5-4.5l11.2-20.2v-4.5h9c2.5 0 4.5 2 4.5 4.5v20.2z"/>
            <path fill="#66615F" d="M547.6 281.3h22.5v27h-22.5z"/>
            <path fill="#83807E" d="M547.6 283.6h22.5v2.2h-22.5zM567.8 285.8h2.2v18h-2.2z"/>
            <path fill="#979797" d="M547.6 285.8h2.2v18h-2.2z"/>
            <path fill="#202E3E" d="M543.1 292.6h22.5v4.5h-22.5z"/>
            <path fill="#020303" d="M543.1 292.6h22.5v2.2h-22.5z"/>
            <path fill="#83807E" d="M547.6 290.3h15.7v2.2h-15.7z"/>
            <path fill="#202E3E" d="M563.3 288.1h2.2v15.7h-2.2z"/>
            <path fill="#020303" d="M287 306l42.7 42.7h62.9l40.4-40.4v-20.2H287z"/>
            <path fill="#192238" d="M403.8 326.3c0 23.6 19.1 42.7 42.7 42.7s42.7-19.1 42.7-42.7-19.1-42.7-42.7-42.7-42.7 19.1-42.7 42.7"/>
            <path fill="#919497" d="M408.3 326.3c0 21.1 17.1 38.2 38.2 38.2s38.2-17.1 38.2-38.2-17.1-38.2-38.2-38.2-38.2 17.1-38.2 38.2"/>
            <path fill="#020303" d="M412.8 326.3c0 18.6 15.1 33.7 33.7 33.7s33.7-15.1 33.7-33.7-15.1-33.7-33.7-33.7-33.7 15-33.7 33.7"/>
            <path fill="#373F51" d="M424 312.8h24.7c6.7 0 4.5 15.7 4.5 15.7s13.5 0 13.5-13.5c0-9-9-11.2-13.5-11.2H424v9zM361.1 308.3h4.5v22.5h-4.5z"/>
            <path fill="#1A253B" d="M370.1 326.3h22.5v2.2h-22.5z"/>
            <path fill="#919497" d="M370.1 321.8h22.5v2.2h-22.5z"/>
            <path fill="#373F51" d="M374.6 326.3h9v2.2h-9z"/>
            <path fill="#6E6A69" d="M374.6 321.8h9v2.2h-9z"/>
            <path fill="#1A253B" d="M370.1 319.5h22.5v2.2h-22.5z"/>
            <path fill="#373F51" d="M374.6 319.5h9v2.2h-9z"/>
            <path fill="#919497" d="M370.1 315h22.5v2.2h-22.5z"/>
            <path fill="#6E6A69" d="M374.6 315h9v2.2h-9z"/>
            <path fill="#1A253B" d="M370.1 312.8h22.5v2.2h-22.5z"/>
            <path fill="#373F51" d="M374.6 312.8h9v2.2h-9z"/>
            <path fill="#373F51" d="M421.8 315l-13.5 13.5c-2.2 2.2-6.7 4.5-6.7-4.5v-9c.1-6.3.7-6.7 6.7-6.7h13.5c2.2 0 4.5 2.2 0 6.7m4.5-15.7h-65.2v9h24.7c4.5 0 9 2.2 9 9V342c-1.7 2.2-4.5 4.5-9 4.5h-24.7v6.7h29.2c6.7 0 11.2-6.7 11.2-6.7l29.2-29.2c11.3-11.3 9.1-18-4.4-18"/>
            <path fill="#919497" d="M460 335.2c0 2.5-2 4.5-4.5 4.5h-18c-2.5 0-4.5-2-4.5-4.5v-18c0-2.5 2-4.5 4.5-4.5h18c2.5 0 4.5 2 4.5 4.5v18z"/>
            <path fill="#020303" d="M435.3 326.3c0 6.2 5 11.2 11.2 11.2 6.2 0 11.2-5 11.2-11.2 0-6.2-5-11.2-11.2-11.2-6.2-.1-11.2 5-11.2 11.2"/>
            <path fill="#373F51" d="M437.5 326.3c0 5 4 9 9 9s9-4 9-9-4-9-9-9-9 4-9 9"/>
            <path fill="#919497" d="M442 326.3c0 2.5 2 4.5 4.5 4.5s4.5-2 4.5-4.5-2-4.5-4.5-4.5-4.5 2-4.5 4.5"/>
            <path fill="#192238" d="M318.4 326.3c0 23.6-19.1 42.7-42.7 42.7S233 349.9 233 326.3s19.1-42.7 42.7-42.7 42.7 19.1 42.7 42.7"/>
            <path fill="#919497" d="M313.9 326.3c0 21.1-17.1 38.2-38.2 38.2s-38.2-17.1-38.2-38.2 17.1-38.2 38.2-38.2 38.2 17.1 38.2 38.2"/>
            <path fill="#020303" d="M309.4 326.3c0 18.6-15.1 33.7-33.7 33.7S242 344.9 242 326.3s15.1-33.7 33.7-33.7 33.7 15 33.7 33.7"/>
            <path fill="#373F51" d="M298.2 312.8h-24.7c-6.7 0-4.5 15.7-4.5 15.7s-13.5 0-13.5-13.5c0-9 9-11.2 13.5-11.2h29.2v9zM356.6 308.3h4.5v22.5h-4.5z"/>
            <path fill="#1A253B" d="M329.7 326.3h22.5v2.2h-22.5z"/>
            <path fill="#919497" d="M329.7 321.8h22.5v2.2h-22.5z"/>
            <path fill="#373F51" d="M338.6 326.3h9v2.2h-9z"/>
            <path fill="#6E6A69" d="M338.6 321.8h9v2.2h-9z"/>
            <path fill="#1A253B" d="M329.7 319.5h22.5v2.2h-22.5z"/>
            <path fill="#373F51" d="M338.6 319.5h9v2.2h-9z"/>
            <path fill="#919497" d="M329.7 315h22.5v2.2h-22.5z"/>
            <path fill="#6E6A69" d="M338.6 315h9v2.2h-9z"/>
            <path fill="#1A253B" d="M329.7 312.8h22.5v2.2h-22.5z"/>
            <path fill="#373F51" d="M338.6 312.8h9v2.2h-9z"/>
            <path fill="#373F51" d="M300.4 308.3h13.5c6 0 6.7.4 6.7 6.7v9c0 9-4.5 6.7-6.7 4.5L300.4 315c-4.4-4.5-2.2-6.7 0-6.7m-8.9 9l29.2 29.2s4.5 6.7 11.2 6.7h29.2v-6.7h-24.7c-4.5 0-7.3-2.2-9-4.5v-24.7c0-6.7 4.5-9 9-9h24.7v-9H296c-13.5 0-15.8 6.7-4.5 18"/>
            <path fill="#373F51" d="M392.6 300.4c0 1.9-1.5 3.4-3.4 3.4h-58.4c-1.9 0-3.4-1.5-3.4-3.4s1.5-3.4 3.4-3.4h58.4c1.9.1 3.4 1.6 3.4 3.4"/>
            <path fill="#020303" d="M385.8 302.7c0 .6-.5 1.1-1.1 1.1h-47.2c-.6 0-1.1-.5-1.1-1.1 0-.6.5-1.1 1.1-1.1h47.2c.6-.1 1.1.4 1.1 1.1"/>
            <path fill="#373F51" d="M327.4 290.3h24.7v2.2h-24.7zM370.1 290.3h24.7v2.2h-24.7z"/>
            <path fill="#919497" d="M289.2 335.2c0 2.5-2 4.5-4.5 4.5h-18c-2.5 0-4.5-2-4.5-4.5v-18c0-2.5 2-4.5 4.5-4.5h18c2.5 0 4.5 2 4.5 4.5v18z"/>
            <path fill="#020303" d="M287 326.3c0 6.2-5 11.2-11.2 11.2-6.2 0-11.2-5-11.2-11.2 0-6.2 5-11.2 11.2-11.2 6.1-.1 11.2 5 11.2 11.2"/>
            <path fill="#373F51" d="M284.7 326.3c0 5-4 9-9 9s-9-4-9-9 4-9 9-9 9 4 9 9"/>
            <path fill="#919497" d="M280.2 326.3c0 2.5-2 4.5-4.5 4.5s-4.5-2-4.5-4.5 2-4.5 4.5-4.5 4.5 2 4.5 4.5"/>
            <path fill="#020303" d="M293.7 279.1h80.9v6.7h-80.9z"/>
            <path fill="#495062" d="M26.3 317.3c-6.2 0-11.2-5-11.2-11.2 0-6.2 5-11.2 11.2-11.2 6.2 0 11.2 5 11.2 11.2.1 6.1-5 11.2-11.2 11.2m0-27c-8.7 0-15.7 7-15.7 15.7s7 15.7 15.7 15.7S42 314.7 42 306s-7-15.7-15.7-15.7"/>
            <path fill="#495062" d="M14.4 314.3l20.235-20.211 1.555 1.556-20.235 20.212z"/>
            <path fill="#495062" d="M16 296.171l1.555-1.556 20.164 20.14-1.554 1.557z"/>
            <path fill="#495062" d="M26.3 301.5c-2.5 0-4.5 2-4.5 4.5s2 4.5 4.5 4.5 4.5-2 4.5-4.5c0-2.4-2-4.5-4.5-4.5"/>
            <path fill="#495062" d="M26.3 301.5c-1.9 0-3.4 1.5-3.4 3.4s1.5 3.4 3.4 3.4 3.4-1.5 3.4-3.4c0-1.8-1.5-3.4-3.4-3.4"/>
            <path fill="#495062" d="M26.3 303.8c-1.2 0-2.2 1-2.2 2.2 0 1.2 1 2.2 2.2 2.2 1.2 0 2.2-1 2.2-2.2.1-1.2-.9-2.2-2.2-2.2"/>
            <path fill="#984233" d="M253.3 79.1h-27v-27h13.5z"/>
            <path fill="#A75E4E" d="M246.5 72.4h2.2v2.2h-2.2z"/>
            <path fill="#5C2010" d="M246.5 74.6h2.2v2.2h-2.2z"/>
            <path fill="#A75E4E" d="M228.5 72.4h2.2v2.2h-2.2z"/>
            <path fill="#5C2010" d="M228.5 74.6h2.2v2.2h-2.2z"/>
            <path fill="#A75E4E" d="M228.5 56.6h2.2v2.2h-2.2z"/>
            <path fill="#5C2010" d="M228.5 58.9h2.2v2.2h-2.2z"/>
            <path fill="#A75E4E" d="M237.5 56.6h2.2v2.2h-2.2z"/>
            <path fill="#5C2010" d="M237.5 58.9h2.2v2.2h-2.2z"/>
            <path fill="#A75E4E" d="M242 63.4h2.2v2.2H242z"/>
            <path fill="#5C2010" d="M242 65.6h2.2v2.2H242z"/>
            <path fill="#A75E4E" d="M228.5 63.4h2.2v2.2h-2.2z"/>
            <path fill="#5C2010" d="M228.5 65.6h2.2v2.2h-2.2zM226.3 79.1h27v2.2h-27z"/>
            <path fill="#020303" d="M518.4 267.8h2.2v85.4h-2.2zM498.2 310.5h20.2v2.2h-20.2zM498.2 292.6h20.2v2.2h-20.2zM495.9 267.8h2.2v85.5h-2.2z"/>
            <path fill="#984233" d="M127.4 292.6h2.2v15.7h-2.2zM167.9 292.6h2.2v15.7h-2.2z"/>
            <path fill="#CEA69D" d="M102.9 99.3h2.2v13.5h-2.2zM109.6 99.3h2.2v13.5h-2.2z"/>
            <path fill="#CEA69D" d="M105.2 99.3h4.5v2.2h-4.5zM105.2 110.6h4.5v2.2h-4.5z"/>
        </g>
    </g>
</svg>
