<svg xmlns="http://www.w3.org/2000/svg" width="1440" height="26" viewBox="0 0 1440 26">
    <g fill="none" fill-rule="evenodd" stroke="#F48266" stroke-linecap="round" stroke-linejoin="round" stroke-width="1.417">
        <path d="M717.897 13.779h-20.128v10.642h-28.684V13.779h-47.754v10.642h-28.668V13.779h-47.739v10.642h-28.71V13.779h-47.733v10.642h-28.69V13.779H392.04v10.642h-28.701V13.779h-47.708v10.642h-28.705V13.779h-47.725v10.642h-28.699V13.779h-47.738v10.642h-28.697V13.779H86.326v10.642H57.633V13.779H9.902v10.642h-28.683V13.779h-47.755v10.642h-28.681V13.779h-47.754v10.642h-28.685V13.779h-47.724v10.642h-28.685V13.779h-47.752v10.642h-28.694V13.779h-47.741v10.642h-28.697V13.779h-47.743v10.642h-28.68V13.779H-501m0-12.362H717.897M1937.897 13.779h-20.128v10.642h-28.684V13.779h-47.754v10.642h-28.668V13.779h-47.739v10.642h-28.71V13.779h-47.733v10.642h-28.69V13.779h-47.751v10.642h-28.701V13.779h-47.708v10.642h-28.705V13.779h-47.725v10.642h-28.699V13.779h-47.738v10.642h-28.697V13.779h-47.741v10.642h-28.693V13.779h-47.731v10.642h-28.683V13.779h-47.755v10.642h-28.681V13.779h-47.754v10.642h-28.685V13.779h-47.724v10.642h-28.685V13.779h-47.752v10.642h-28.694V13.779h-47.741v10.642h-28.697V13.779h-47.743v10.642h-28.68V13.779H719m0-12.362h1218.897"/>
    </g>
</svg>
