<svg xmlns="http://www.w3.org/2000/svg" xmlns:xlink="http://www.w3.org/1999/xlink" width="334" height="68" viewBox="0 0 334 68">
    <defs>
        <path id="a" d="M0 .498v54.983h27.488V.498H0z"/>
    </defs>
    <g fill="none" fill-rule="evenodd">
        <g transform="translate(0 12.172)">
            <mask id="b" fill="#fff">
                <use xlink:href="#a"/>
            </mask>
            <path fill="#C5C5C5" d="M5.942.498h18.02v35.864h3.526l-.913 19.12h-5.289l-1.11-12.59H7.247l-1.305 12.59H.848L0 36.361h3.07a170.772 170.772 0 0 0 1.763-13.687c.391-4.494.587-7.65.587-9.47L5.942.498zm10.772 5.523h-3.656l-.521 8.193-.196 3.623-.456 6.59c0 1.662-.132 3.483-.393 5.462-.261 1.98-.589 4.137-.98 6.473h6.202V6.02z" mask="url(#b)"/>
        </g>
        <path fill="#C5C5C5" d="M41.395 55.064V12.67h7.247c3.918 0 6.857.573 8.815 1.721 2.524 1.466 3.788 3.999 3.788 7.6 0 2.456-.458 4.514-1.371 6.177-1.045 1.86-2.634 3.145-4.766 3.86 2.349.433 4.166 1.522 5.45 3.264 1.285 1.741 1.927 4.216 1.927 7.422 0 5.343-1.785 8.946-5.354 10.807-1.958 1.028-4.79 1.543-8.49 1.543h-7.246zm7.247-5.522c1.48 0 2.678-.356 3.592-1.069 1.48-1.147 2.22-3.106 2.22-5.877 0-2.85-.523-4.93-1.568-6.235-.87-1.108-2.023-1.663-3.46-1.663h-.784v14.844zm0-19.95c1.175.12 2.177-.08 3.004-.593a4.367 4.367 0 0 0 1.37-1.327c.35-.534.556-1.078.622-1.653.065-.575.097-1.334.097-2.275 0-.99-.032-1.702-.097-2.157-.066-.456-.261-.97-.587-1.565-.328-.593-.752-1.05-1.275-1.355-.652-.436-1.415-.653-2.285-.653h-.85v11.578zM83.541 12.67h7.247v20.92l6.313-12.202.021-8.718h7.249v42.395h-7.249V33.57L90.788 46.1v8.966h-7.247zM139.282 55.064V35.292a7.843 7.843 0 0 0-.783-.06c-1.656 0-2.766.635-3.331 1.901-.392.87-.587 2.237-.587 4.098v7.302c0 1.623-.305 2.988-.915 4.097-.956 1.741-2.59 2.732-4.898 2.969-.26.038-.63.06-1.108.06-.61 0-1.198-.05-1.764-.15a12.96 12.96 0 0 1-1.762-.445l.587-3.383c.87 0 1.457-.298 1.762-.892.305-.595.458-1.485.458-2.672v-6.413c0-2.533.512-4.553 1.534-6.056 1.024-1.502 2.71-2.474 5.06-2.91-2.393-.474-4.027-1.464-4.897-2.968-.61-1.029-.913-2.454-.913-4.276V18.786c0-.832-.11-1.426-.327-1.78-.348-.556-1.001-.833-1.958-.833l-.719-3.563c.435-.118 1.066-.246 1.894-.386.827-.139 1.436-.207 1.827-.207 1.741 0 3.114.455 4.114 1.365 1.35 1.228 2.025 3.246 2.025 6.057v6.473c0 1.7.39 2.948 1.175 3.74.654.673 1.501 1.008 2.546 1.008h.98V12.67h6.986v17.872c.262.08.61.118 1.044.118 1.22 0 2.134-.416 2.744-1.245.608-.842.912-1.99.912-3.466v-6.49c0-2.781.675-4.78 2.025-6.017 1.045-.95 2.438-1.425 4.179-1.425.74 0 1.394.049 1.96.15.565.098 1.13.247 1.696.443l-.587 3.563c-.74 0-1.317.168-1.73.505-.413.335-.62 1.019-.62 2.049V25.494c0 1.94-.307 3.404-.916 4.396-.87 1.423-2.502 2.374-4.895 2.848 2.349.436 4.037 1.408 5.06 2.91 1.021 1.503 1.533 3.523 1.533 6.056v6.413c0 1.148.142 2.029.426 2.643.282.612.859.921 1.729.921l.654 3.383c-.524.159-1.068.298-1.634.415a9.51 9.51 0 0 1-1.957.18c-.435 0-.763-.022-.98-.06-2.308-.237-3.96-1.209-4.963-2.91-.652-1.147-.98-2.533-.98-4.156V41.23c0-2.376-.326-3.97-.978-4.781-.653-.811-1.633-1.218-2.938-1.218h-.784v19.832h-6.986zM186.898 12.67l4.19 19.95 3.82-19.95h7.64L193.415 48c-.61 2.415-1.773 4.295-3.493 5.64-1.72 1.346-3.688 2.018-5.91 2.018a9.347 9.347 0 0 1-3.33-.592l-.456-4.336c1.784 0 3.145-.275 4.081-.83.936-.554 1.6-1.565 1.992-3.029l1.043-3.385-8.03-30.815h7.585zM220.378 55.064V12.61h7.249v36.932h6.136V12.61h7.249v36.932h6.006V12.61h7.314l-.065 36.932h3.916l-1.175 16.327h-5.092l-.914-10.805zM293.514 12.67v5.523H283.26v12.052h7.707v5.64h-7.707v13.657h11.493v5.523h-18.74V12.67zM314.22.914l5.027.89c.218 1.978.62 3.304 1.21 3.978.586.672 1.38 1.01 2.382 1.01 1.218 0 2.111-.514 2.677-1.544.39-.713.674-1.861.849-3.443l5.093-.891c0 2.651-.61 4.868-1.828 6.65-1.523 2.217-3.787 3.324-6.79 3.324-2.96 0-5.202-1.107-6.726-3.324-1.263-1.822-1.894-4.038-1.894-6.65zm-1.632 11.756h7.247V33.6l6.355-12.192-.02-8.738h7.246v42.394h-7.247V33.571l-6.334 12.586v8.907h-7.247V12.67z"/>
    </g>
</svg>
