<svg xmlns="http://www.w3.org/2000/svg" width="332" height="126" viewBox="0 0 332 126">
    <path fill="#C5C5C5" fill-rule="evenodd" d="M0 63V45.443c0-12.967 2.199-23.41 6.6-31.328C11.83 4.706 19.739 0 30.32 0c10.347 0 18.136 4.648 23.367 13.943 4.519 8.033 6.778 18.533 6.778 31.5V80.557c0 12.51-2.14 22.78-6.422 30.812C48.812 121.124 40.906 126 30.321 126c-10.7 0-18.668-4.876-23.9-14.631C2.14 103.45 0 93.179 0 80.557V63zm21.583 0v12.738c0 10.212.475 17.901 1.427 23.065 1.425 7.803 3.922 11.705 7.49 11.705 2.616 0 4.697-2.61 6.242-7.832 1.547-5.22 2.32-14.373 2.32-27.455V50.78c0-10.444-.417-18.19-1.249-23.238-1.308-8.033-3.747-12.05-7.312-12.05-2.735 0-4.817 2.295-6.244 6.886-1.783 5.624-2.674 14.919-2.674 27.887V63zM126.61 1.55v16.007h-19.086v106.894H87.727V17.557H68.821V1.55h57.79zm52.14 66.098V1.549h19.798v122.902H178.75V81.418c-1.664.689-3.745 1.32-6.241 1.893-2.498.574-5.35.861-8.562.861-8.205 0-13.853-3.442-16.944-10.328-1.786-4.016-2.677-9.352-2.677-16.008V1.55h20.69v54.566c0 4.59.358 7.746 1.071 9.467 1.189 2.754 3.507 4.131 6.955 4.131a8.49 8.49 0 0 0 3.389-.688c1.07-.458 1.845-.918 2.32-1.377zm84.965-66.099v16.008H235.71V52.5h21.047v16.352H235.71v39.59h31.392v16.009h-51.189V1.549h47.802zm68.284 0v16.008h-19.085v106.894h-19.799V17.557h-18.905V1.55H332z"/>
</svg>
