<svg xmlns="http://www.w3.org/2000/svg" xmlns:xlink="http://www.w3.org/1999/xlink" width="332" height="137" viewBox="0 0 332 137">
    <defs>
        <path id="a" d="M0 .65v136.034h331.85V.65H0z"/>
    </defs>
    <g fill="none" fill-rule="evenodd">
        <mask id="b" fill="#fff">
            <use xlink:href="#a"/>
        </mask>
        <path fill="#C5C5C5" d="M30.639 24.613v11.255H13.233v75.16H-.001V24.614h30.64zm6.35 43.207V55.474c0-9.116 1.469-16.459 4.412-22.027 3.496-6.614 8.78-9.923 15.855-9.923 6.915 0 12.12 3.267 15.617 9.803 3.02 5.648 4.53 13.03 4.53 22.147v24.692c0 8.794-1.43 16.016-4.293 21.663-3.496 6.859-8.782 10.287-15.854 10.287-7.154 0-12.478-3.428-15.976-10.287-2.86-5.568-4.29-12.79-4.29-21.663V67.82zm14.426 0v8.957c0 7.18.316 12.585.952 16.218.955 5.485 2.623 8.229 5.008 8.229 1.75 0 3.138-1.835 4.172-5.506 1.034-3.672 1.55-10.107 1.55-19.303V59.227c0-7.342-.279-12.79-.834-16.338-.876-5.648-2.504-8.473-4.888-8.473-1.83 0-3.218 1.615-4.173 4.84-1.193 3.956-1.787 10.49-1.787 19.607v8.957zm44.022-43.207h32.905v73.1h6.437l-1.67 38.971h-9.656l-2.028-25.655H97.822l-2.385 25.655H86.14l-1.551-38.97h5.6a386.505 386.505 0 0 0 3.222-27.896c.714-9.158 1.072-15.592 1.072-19.305l.954-25.9zm19.671 11.255h-6.676l-.954 16.703-.36 7.383-.834 13.433c0 3.39-.238 7.101-.714 11.135a423.938 423.938 0 0 1-1.788 13.192h11.326V35.868zm27.24 31.952V55.474c0-9.116 1.47-16.459 4.41-22.027 3.497-6.614 8.782-9.923 15.856-9.923 6.915 0 12.12 3.267 15.616 9.803 3.022 5.648 4.532 13.03 4.532 22.147v24.692c0 8.794-1.432 16.016-4.292 21.663-3.496 6.859-8.784 10.287-15.856 10.287-7.152 0-12.478-3.428-15.974-10.287-2.86-5.568-4.292-12.79-4.292-21.663V67.82zm14.425 0v8.957c0 7.18.318 12.585.952 16.218.957 5.485 2.624 8.229 5.01 8.229 1.746 0 3.138-1.835 4.172-5.506 1.03-3.672 1.548-10.107 1.548-19.303V59.227c0-7.342-.278-12.79-.834-16.338-.873-5.648-2.503-8.473-4.886-8.473-1.83 0-3.22 1.615-4.174 4.84-1.192 3.956-1.788 10.49-1.788 19.607v8.957zm36.445 43.209V24.613h13.234c7.153 0 12.517 1.17 16.093 3.51 4.61 2.986 6.915 8.149 6.915 15.491 0 5.003-.835 9.198-2.504 12.587-1.907 3.793-4.807 6.415-8.703 7.866 4.292.888 7.61 3.108 9.955 6.658 2.345 3.55 3.517 8.593 3.517 15.129 0 10.892-3.26 18.235-9.775 22.027-3.578 2.099-8.743 3.148-15.498 3.148h-13.234zm13.234-11.257c2.7 0 4.888-.726 6.557-2.18 2.7-2.339 4.053-6.333 4.053-11.981 0-5.81-.953-10.046-2.862-12.706-1.59-2.262-3.693-3.39-6.318-3.39h-1.43v30.257zm0-40.666c2.146.243 3.973-.161 5.485-1.21a8.521 8.521 0 0 0 2.502-2.703c.634-1.09 1.013-2.198 1.132-3.369.12-1.169.18-2.723.18-4.639 0-2.017-.06-3.468-.18-4.398-.12-.928-.475-1.977-1.074-3.186-.596-1.21-1.37-2.14-2.324-2.764-1.191-.888-2.583-1.332-4.172-1.332h-1.55v23.6zm35.266 8.714V55.474c0-9.116 1.471-16.459 4.411-22.027 3.498-6.614 8.783-9.923 15.857-9.923 6.914 0 12.12 3.267 15.616 9.803 3.02 5.648 4.53 13.03 4.53 22.147v24.692c0 8.794-1.43 16.016-4.29 21.663-3.498 6.859-8.784 10.287-15.856 10.287-7.154 0-12.48-3.428-15.976-10.287-2.862-5.568-4.292-12.79-4.292-21.663V67.82zm14.425 0v8.957c0 7.18.32 12.585.954 16.218.955 5.485 2.623 8.229 5.008 8.229 1.748 0 3.138-1.835 4.17-5.506 1.035-3.672 1.552-10.107 1.552-19.303V59.227c0-7.342-.279-12.79-.834-16.338-.875-5.648-2.504-8.473-4.888-8.473-1.828 0-3.22 1.615-4.174 4.84-1.192 3.956-1.788 10.49-1.788 19.607v8.957zM296.803.65l9.178 1.816c.4 4.034 1.134 6.735 2.206 8.109 1.072 1.37 2.523 2.057 4.35 2.057 2.226 0 3.857-1.05 4.89-3.148.715-1.451 1.23-3.793 1.548-7.018l9.3-1.816c0 5.406-1.114 9.925-3.34 13.554-2.78 4.52-6.912 6.778-12.397 6.778-5.404 0-9.497-2.258-12.28-6.778-2.302-3.71-3.456-8.23-3.456-13.554zm-2.982 23.963h13.232v42.662l11.604-24.85-.038-17.812h13.232v86.416h-13.232V67.215l-11.566 25.657v18.157H293.82V24.613z" mask="url(#b)"/>
    </g>
</svg>
