<svg xmlns="http://www.w3.org/2000/svg" xmlns:xlink="http://www.w3.org/1999/xlink" width="367" height="68" viewBox="0 0 367 68">
    <defs>
        <path id="a" d="M18.92 42.592V.2H.183v42.392H18.92z"/>
    </defs>
    <g fill="none" fill-rule="evenodd">
        <g transform="translate(347.44 12.012)">
            <mask id="b" fill="#fff">
                <use xlink:href="#a"/>
            </mask>
            <path fill="#C5C5C5" d="M17.681.2v5.522H7.43v12.052h7.704v5.64H7.43v13.658h11.493v5.52H.182V.2z" mask="url(#b)"/>
        </g>
        <path fill="#C5C5C5" d="M309.588 12.212h7.248v20.919l6.311-12.201.022-8.718h7.248v42.393h-7.248V33.11l-6.333 12.53v8.964h-7.248zM271.294 54.605V12.212h7.247c3.918 0 6.857.574 8.815 1.722 2.524 1.464 3.788 3.997 3.788 7.6 0 2.454-.458 4.512-1.373 6.175-1.043 1.86-2.632 3.147-4.766 3.86 2.35.435 4.168 1.523 5.452 3.264 1.283 1.743 1.925 4.217 1.925 7.424 0 5.342-1.783 8.944-5.352 10.805-1.96 1.03-4.79 1.543-8.49 1.543h-7.246zm7.247-5.522c1.48 0 2.678-.355 3.592-1.067 1.48-1.149 2.22-3.108 2.22-5.879 0-2.85-.523-4.928-1.568-6.235-.87-1.108-2.023-1.662-3.46-1.662h-.784v14.843zm0-19.95c1.175.12 2.176-.078 3.004-.593a4.385 4.385 0 0 0 1.37-1.326c.35-.535.556-1.079.622-1.654.065-.573.097-1.334.097-2.275 0-.99-.032-1.702-.097-2.157-.066-.455-.261-.97-.589-1.565-.326-.592-.751-1.048-1.273-1.355-.653-.434-1.415-.653-2.285-.653h-.85v11.578zM254.09 12.212v5.522h-6.986v36.87h-7.249v-36.87h-6.92v-5.522zM209.527 37.981l6.203.711c0 4.117-.5 7.501-1.5 10.154-1.569 4.196-4.224 6.293-7.966 6.293-3.179 0-5.594-1.247-7.249-3.739-1.305-1.98-2.197-4.95-2.676-8.907-.305-2.614-.458-6.057-.458-10.33 0-6.098.523-10.67 1.566-13.718 1.557-4.511 4.375-6.769 8.456-6.769 3.298 0 5.748 1.485 7.358 4.454 1.252 2.296 1.883 5.146 1.883 8.55v2.02l-6.334.83-.066-3.444-.523-3.621c0-.436-.044-.832-.13-1.187a2.079 2.079 0 0 0-.522-.95c-.435-.318-.805-.475-1.11-.475a.946.946 0 0 0-.62.089 2.499 2.499 0 0 0-.622.474c-.217.217-.38.496-.489.831a9.15 9.15 0 0 0-.293 1.278c0 .712-.056 1.375-.163 1.989-.11.613-.207 1.235-.295 1.87 0 1.464-.021 2.938-.065 4.423l-.13 4.423c0 .99.033 2.652.097 4.988.067 2.335.098 3.562.098 3.68l.458 3.029c0 .674.054 1.278.163 1.81.098.535.358 1.04.751 1.516.403.475.794.711 1.175.711.219.04.436-.01.664-.147.24-.14.49-.368.763-.683.27-.316.467-.84.575-1.575.098-.732.174-1.276.218-1.632 0-.713.066-1.406.196-2.078.13-.673.218-1.148.26-1.425l.327-3.443zM159.48.455l5.027.89c.219 1.98.621 3.306 1.21 3.98.587.672 1.38 1.009 2.383 1.009 1.217 0 2.11-.515 2.676-1.545.391-.711.675-1.861.85-3.443l5.093-.89c0 2.652-.61 4.869-1.829 6.649-1.522 2.217-3.788 3.324-6.79 3.324-2.96 0-5.201-1.107-6.725-3.324-1.264-1.82-1.894-4.038-1.894-6.65zm-1.631 11.757h7.247v20.93l6.355-12.193-.021-8.737h7.247v42.393h-7.247V33.112l-6.334 12.586v8.907h-7.247V12.212zM139.403 12.212v5.522H129.15v12.052h7.707v5.641h-7.707v13.657h11.493v5.52h-18.74V12.213zM83.154 12.212h18.02v35.861h3.526l-.913 19.12h-5.289l-1.112-12.588H84.46l-1.305 12.588H78.06l-.85-19.12h3.07c.784-4.63 1.37-9.192 1.764-13.684.39-4.494.586-7.65.586-9.472l.524-12.705zm10.772 5.522H90.27l-.522 8.193-.195 3.623-.458 6.59c0 1.661-.13 3.483-.391 5.462-.261 1.98-.589 4.136-.98 6.471h6.202V17.734zM37.873 33.409v-6.057c0-4.473.805-8.074 2.416-10.806 1.915-3.246 4.81-4.869 8.684-4.869 3.786 0 6.637 1.604 8.554 4.81 1.653 2.771 2.48 6.392 2.48 10.865V39.464c0 4.316-.783 7.858-2.35 10.629-1.916 3.365-4.81 5.046-8.684 5.046-3.918 0-6.834-1.68-8.75-5.046-1.568-2.73-2.35-6.274-2.35-10.629V33.41zm7.9 0v4.392c0 3.524.175 6.177.522 7.956.523 2.694 1.438 4.04 2.743 4.04.957 0 1.72-.901 2.285-2.702.566-1.8.85-4.959.85-9.47v-8.433c0-3.602-.154-6.274-.458-8.015-.478-2.77-1.371-4.157-2.677-4.157-1 0-1.762.794-2.285 2.376-.654 1.94-.98 5.145-.98 9.62v4.393zM14.466 37.981l6.202.711c0 4.117-.499 7.501-1.501 10.154-1.566 4.196-4.223 6.293-7.966 6.293-3.178 0-5.594-1.247-7.248-3.739-1.304-1.98-2.197-4.95-2.676-8.907-.305-2.614-.459-6.057-.459-10.33 0-6.098.524-10.67 1.569-13.718 1.554-4.511 4.374-6.769 8.454-6.769 3.3 0 5.747 1.485 7.358 4.454 1.252 2.296 1.882 5.146 1.882 8.55v2.02l-6.334.83-.065-3.444-.521-3.621c0-.436-.044-.832-.13-1.187a2.097 2.097 0 0 0-.524-.95c-.435-.318-.805-.475-1.11-.475a.941.941 0 0 0-.62.089 2.47 2.47 0 0 0-.62.474 2.037 2.037 0 0 0-.49.831c-.109.337-.206.763-.294 1.278 0 .712-.054 1.375-.163 1.989-.11.613-.207 1.235-.294 1.87 0 1.464-.021 2.938-.065 4.423-.044 1.483-.088 2.959-.13 4.423 0 .99.032 2.652.097 4.988.066 2.335.098 3.562.098 3.68l.457 3.029c0 .674.055 1.278.163 1.81.097.535.36 1.04.75 1.516.404.475.795.711 1.176.711.219.04.435-.01.664-.147.24-.14.49-.368.762-.683.273-.316.468-.84.577-1.575.098-.732.173-1.276.217-1.632 0-.713.065-1.406.196-2.078.13-.673.218-1.148.262-1.425l.326-3.443z"/>
    </g>
</svg>
