<svg xmlns="http://www.w3.org/2000/svg" xmlns:xlink="http://www.w3.org/1999/xlink" width="141" height="45" viewBox="0 0 141 45">
    <defs>
        <path id="a" d="M.082 42.954h24.42V.025H.082z"/>
        <path id="c" d="M.559 43.726h19.85V.263H.558z"/>
    </defs>
    <g fill="none" fill-rule="evenodd">
        <path fill="#C5C5C5" d="M122 1v42h19v-5.47h-11.653V24h7.812v-5.588h-7.812V6.472h10.394V1z"/>
        <g transform="translate(76.868 1.103)">
            <mask id="b" fill="#fff">
                <use xlink:href="#a"/>
            </mask>
            <path fill="#C5C5C5" d="M24.502.025V42.42h-7.248V6.082h-3.526l-1.175 24.166c0 3.563-.903 6.57-2.71 9.023-1.806 2.456-4.123 3.683-6.954 3.683-.608 0-1.217-.06-1.827-.178l-.98-4.097c2.004-.95 3.374-2.227 4.114-3.83.74-1.604 1.11-3.751 1.11-6.443L6.482.026h18.02z" mask="url(#b)"/>
        </g>
        <path fill="#C5C5C5" d="M38.526 1.128h7.248v20.92l6.311-12.202.023-8.718h7.247v42.395h-7.247V22.029l-6.334 12.529v8.965h-7.248z"/>
        <g transform="translate(.26 .331)">
            <mask id="d" fill="#fff">
                <use xlink:href="#c"/>
            </mask>
            <path fill="#C5C5C5" d="M14.206 26.567l6.202.712c0 4.117-.499 7.502-1.501 10.153-1.566 4.196-4.223 6.294-7.966 6.294-3.178 0-5.594-1.247-7.248-3.74-1.304-1.98-2.197-4.95-2.676-8.908-.305-2.612-.458-6.056-.458-10.33 0-6.096.523-10.668 1.568-13.717C3.682 2.519 6.5.263 10.58.263c3.3 0 5.747 1.484 7.358 4.454 1.252 2.294 1.882 5.145 1.882 8.55v2.018l-6.334.831-.065-3.443-.521-3.623c0-.435-.044-.83-.13-1.187a2.114 2.114 0 0 0-.524-.95c-.435-.318-.805-.475-1.11-.475a.951.951 0 0 0-.62.09 2.509 2.509 0 0 0-.62.474 2.043 2.043 0 0 0-.49.832c-.109.335-.206.761-.294 1.276 0 .713-.054 1.375-.163 1.989-.11.614-.207 1.237-.294 1.87 0 1.465-.021 2.938-.065 4.423-.044 1.485-.088 2.96-.13 4.425 0 .99.032 2.65.097 4.988.066 2.335.098 3.56.098 3.68l.457 3.03c0 .671.055 1.275.163 1.81.097.534.36 1.038.751 1.514.403.474.794.712 1.175.712.219.04.435-.01.664-.149.24-.139.49-.366.762-.681.273-.318.468-.842.577-1.574.098-.732.173-1.278.217-1.633 0-.712.065-1.407.196-2.08.13-.671.218-1.148.262-1.424l.326-3.443z" mask="url(#d)"/>
        </g>
    </g>
</svg>
