<svg xmlns="http://www.w3.org/2000/svg" xmlns:xlink="http://www.w3.org/1999/xlink" width="615" height="310" viewBox="0 0 615 310">
    <defs>
        <path id="a" d="M257.818 257H.274V.46h257.544V257z"/>
        <path id="c" d="M323.971 310H0V.023h323.971z"/>
    </defs>
    <g fill="none" fill-rule="evenodd">
        <g transform="translate(334 53)">
            <mask id="b" fill="#fff">
                <use xlink:href="#a"/>
            </mask>
            <path fill="#EF8162" d="M129.044 102.355c-14.618 0-26.471 11.807-26.471 26.375 0 14.56 11.853 26.367 26.47 26.367 14.623 0 26.476-11.806 26.476-26.367 0-14.568-11.853-26.375-26.475-26.375m128.774 26.375c0 70.842-57.656 128.27-128.774 128.27C57.924 257 .274 199.572.274 128.73.274 57.887 57.924.46 129.044.46c71.118 0 128.774 57.427 128.774 128.27" mask="url(#b)"/>
        </g>
        <g>
            <mask id="d" fill="#fff">
                <use xlink:href="#c"/>
            </mask>
            <path fill="#214294" d="M0 154.568V56.756L171.034.023c42.217.442 152.937 0 152.937 0V310H166.977L126 158.942 0 154.568z" mask="url(#d)"/>
        </g>
        <path fill="#EF8162" d="M535.833 103H361L440.173 2H615z"/>
    </g>
</svg>
