<svg xmlns="http://www.w3.org/2000/svg" xmlns:xlink="http://www.w3.org/1999/xlink" width="1144" height="272" viewBox="0 0 1144 272">
    <defs>
        <path id="a" d="M0 271.509h1143.357V0H0z"/>
    </defs>
    <g fill="none" fill-rule="evenodd">
        <path fill="#F48266" d="M251.882 99.227h-30.973l.015.03c.189.19.348.436.468.677.04.052.078.106.11.163.176.185.227.336.342.547h30.038v-1.417zm-35.464 0h-14.46c-.06.202-.083.437-.15.645 0 .24.009.431-.07.667l-.011.105h16.072a1.34 1.34 0 0 1-.134-.208l-.096-.043a1.42 1.42 0 0 1-1.151-1.166zm-19.571 0H181.79c-.041.352-.37 1.129-.602 1.417h15.717c-.02-.297-.003-.634-.003-.935 0-.063.004-.125.012-.186a1.462 1.462 0 0 1-.067-.296zm-18.923 0h-32.338c.084.271.092 1.131.034 1.417h31.329c.057-.2.158-.383.29-.537a1.41 1.41 0 0 1 .198-.297c.146-.293.297-.363.487-.583zm-36.127 0h-21.685c.093.156.24.311.34.481.228.241.368.605.433.936h20.767c-.021-.323-.008-.664.133-.96l-.072.144c0-.22.007-.388.084-.601zm-26.477 0H98.557l-.001 1.417h17.675c-.04-.052-.075-.106-.112-.16l.013.012c-.175-.182-.514-.713-.586-.938-.091-.128-.112-.214-.226-.331zm-19.667-.023l-21.83.023v1.417h21.765c.05-.1.065-.265.065-.44v-1zM1042.757 79.96c3.07 0 5.854 1.245 7.866 3.26h.002a11.092 11.092 0 0 1 3.26 7.868c0 3.073-1.245 5.856-3.26 7.87a11.092 11.092 0 0 1-7.868 3.26 11.101 11.101 0 0 1-7.871-3.26v-.002a11.097 11.097 0 0 1-3.26-7.868c0-3.07 1.247-5.854 3.26-7.867l.003-.002a11.093 11.093 0 0 1 7.868-3.26zm7.25 3.877a10.224 10.224 0 0 0-7.25-3.002 10.23 10.23 0 0 0-7.252 3.002 10.228 10.228 0 0 0-3.002 7.251c0 2.832 1.148 5.396 3.002 7.251h.002a10.218 10.218 0 0 0 7.25 3.002c2.83 0 5.395-1.147 7.25-3.002a10.226 10.226 0 0 0 3.002-7.25c0-2.832-1.148-5.396-3.002-7.25v-.002zM301.827 77.886c.902-1.704 3.233-3.964.495-3.964h-45.595v66.906c9.638 0 5.746-.497 5.616-1.984V91.267c0-2.69-1.035-13.876 1.322-13.876 5.67 0 35.021-.613 38.162.495"/>
        <path fill="#F48266" d="M147.88 140.332h-1.177v-1.487c8.272-4.06 7.91-4.702 1.178 1.487zm-1.177-9.912h2.478v-19.33h-2.478v19.33zm27.263-26.762c-.711 1.163-1.06 1.91-1.858 3.102-.825 1.23-1.247 1.751-1.615 3.341h-23.296c0-2.761-.592-7.572.494-9.416l28.25.001c-1.002 1.944-.261 1.411-1.975 2.971zM146.703 77.39h1.488c1.088.575.99-.279.99 1.981v20.816h-2.478V77.39zm30.729 21.806c-2.708 1.82-22.685.885-22.69.882-2.456-.967-1.464-18.645-.936-22.677l36.574.005-.558 1.967c.542-.398 2.907-3.672 3.052-4.364.11-.535-.091-.846-.498-1.019-15.391 0-30.716-.073-46.168-.07l-.001 66.972 5.948-.066c.838-3.137 2.613-2.78 1.828-5.024-.717-2.052-.341-21.605-.341-24.712 3.304 0 6.613.018 9.917-.002 1.168-.007 3.839-.168 4.818.14 2.146.675.43 1.909 1.607.444.875-1.09 7.135-11.225 7.448-12.475zM913.897 111.092h1.981v17.84c0 1.5-.583 1.37-1.98 1.488v-19.328zm-12.385-10.407h.485l13.231-.047.153 2.034.002 7.428-23.222-.04-4.8-7.653c-.896-1.453-.77-.25-1.184-1.888l15.335.166zm12.385-23.294c1.398.115 1.981-.012 1.981 1.487V98.7c0 1.499-.583 1.37-1.98 1.487V77.39zm-5.453 59.472l1.983 4.002 5.947-.037V73.922l-40.144-.001c-8.087-.024-7.67-1.165-4.955 3.965 2.124-.656 33.883-.893 37.996-.33.467 3.416.165 8.61.165 12.225 0 8.053 1.151 10.059-1.934 10.457-2.683.345-9.318-.05-12.438-.05-7.54 0-7.733.958-10.565-1.238l8.086 12.638c.078.027 13.566-.496 16.851-.496l.006 20.824c.023 2.633.738 5.625-.998 4.947zM232.938 111.092h18.833l-.415 29.5-18.418-29.5zm-7.44-10.407l26.06-.238-.283 1.724c0 8.94 2.832 7.944-6.939 7.929-5.12-.007-10.242 0-15.363 0-1.294-.621-3.436-4.542-3.965-5.945-1.065-.75-.652-.08-.986-1.493l-1.329-1.831 2.805-.146zm1.493-.494c-1.909 0-6.718-9.142-7.892-10.966-1.382-2.147-6.502-9.787-6.978-11.837h39.652l-.033 22.803h-24.749zm-21.807-26.27c3.138 5.97 6.962 11.234 10.382 16.876l31.25 50.002 5.45.194V73.922h-47.082zM810.81 111.092h19.33c-2.59 4.892-6.226 9.984-9.295 14.983-1.618 2.636-7.5 13.788-10.035 14.257v-29.24zm27.255-7.933l-3.96 6.94h-23.247l-.048-2.972.003-6.44 6.446-.002h.485l21.81.002c-.423 1.807-.27 1.585-1.489 2.472zM810.81 77.388h40.146c-.605 2.607-13.266 22.803-14.862 22.803h-25.286l.002-22.803zm46.092-3.466h-46.686l.1 66.906 5.44-.006 41.146-66.9zM921.33 122.49v-11.399h7.435c-1.934 2.888-5.33 9.392-7.434 11.4zm13.218-12.422l-13.217.032.002-6.933v-2.54l12.394.017.98.04 5.454.002c-1.451 2.811-3.947 6.67-5.613 9.382zM921.33 77.39h28.25c-.534 2.086-5.498 9.212-7.061 11.758-1.17 1.911-6.1 11.04-7.807 11.04H921.33V77.39zm2.478 50.552l-.854-.246.854-.746c1.725-.45 25.4-37.993 28.952-44.884 6.146-9.94 7.486-8.145-7.146-8.145h-24.78v54.68l2.974-.659zM859.628 112.667c.074-1.255-.054-.803.744-1.576l-.496 34.693-.248-33.117zm-15.61-10.49c.163-.156.48-.49.697-.795 1.067-1.503-.483 1.384.296-.702l14.885.006-.023 2.981.335 6.411-20.652.022c.627-2.69 3.477-5.063 4.462-7.924zm15.617-17.799c.002-1.207.009-.83.737-1.536l-.496 17.345-.021-13.889c-.081-1.553-.221-.899-.22-1.92zm-14.131 14.818l-7.435 11.895h16.85v34.505h-38.456l-.911.767h45.878l-.563-66.99c-3.63 0-3.208-.173-4.788 2.168-1.703 2.521-1.453 1.87-1.238 4.774.32 4.318.079 9.462.079 13.872l-9.416-.99zM134.313 111.092h6.939V121.5c-1.531-1.123-5.491-8.246-6.94-10.408zm-9.916-10.407h12.394l.5-.002 3.462-.046.005 3.51.005 5.956-12.73-.034c-1.065-1.364-4.722-7.488-5.616-9.387l1.98.003zm-10.9-23.294h14.374c2.84 0 13.38-1.118 13.38 1.487v21.31h-12.885c-1.905 0-13.475-19.974-14.868-22.797zm-5.451 1.487l-.283-1.422.549-.233 13.923 22.09-1.451 1.027 7.582 11.248 1.473-.566 10.254 16.757-1.814-.332c.662 1.64.89.99 3.468.99V73.923h-36.674l2.973 4.956z"/>
        <mask id="b" fill="#fff">
            <use xlink:href="#a"/>
        </mask>
        <path fill="#F48266" d="M202.212 145.784h.991v-34.692h-.991v34.692zm0-36.675l.002-8.429 5.951.005h.978l8.674-.244c.163 1.36.225 1.367.748 2.231 1.066 2.199 3.586 5.103 4.461 7.428h-10.902c-2.209 0-9.15.994-9.912-.991zm0-8.921h.991V82.842h-.991v17.346zm43.116 44.603v.993h-37.169v-34.692c4.952 0 13.654-1.15 16.85.991l-7.611-12.657c-1.133-1.124-.073-.337-.476-.09-3.11 1.906 1.861-.503-.666.598-1.727.752-5.959.254-8.097.254 0-4.611-.073-9.185.205-13.709.138-2.246-.457-2.276-1.796-4.527-1.54-2.591-.989-2.579-4.852-2.579v66.907l44.604.051-.992-1.54zM360.804 140.332c-2.073 0-18.096-27.081-20.507-31.05-3.21-5.287-18.956-28.966-19.637-31.891h41.631v62.94h-1.487zm-44.98-66.177l41.511 66.672h5.578l-.127-66.906-46.963.233zM356.344 145.288l-39.648.496-.001-56.5c-.01-2.65-.767-6.634.992-5.946-.743-3.188-1.753-3.964-5.452-3.964v66.971l45.224-.007-1.115-1.05zM160.746 145.618c3.613-4.971 7.46-11.925 10.944-17.463 12.899-20.501 7.066-17.063 24.575-17.063v34.692c-6.966.006-30.323.326-35.518-.166zm19.162-42.375c.489-1.941.495-.69.996-2.556 3.637-.184 7.27.037 10.905-.08 5.913-.191 4.447.523 4.453 6.526l-.163 2.956-20.486-.153c.81-1.558 3.17-5.84 4.296-6.693zm9.58-3.217c1.157-1.822 1.964-3.315 3.242-5.334l3.535-5.407v10.903l-6.776-.162zm3.803-19.662h2.974c0 4.349-2.902 7.405-4.86 10.5a536.06 536.06 0 0 1-6.044 9.324l-3.938.01.469-1.497-8.425 13.547c1.897-1.614 1.657-1.156 5.132-1.046l-19.504 31.113-3.939.01.469-1.497-3.47 5.574 44.987-.123-.382-66.906c-2.58 0-2.808-.651-3.47.99zM269.28 145.62c6.45-8.937 12.342-19.863 18.817-29.907 2.936-4.554 16.693-28.504 19.183-29.404l-.002 59.477-36.182.033-1.816-.198zm34.033-64.265l3.185-.86-38.877 61.889-4.947 3.947 45.1-.051c0-19.421-.406-43.262.03-62.476.114-5.082.674-4.431-3.934-4.412l-.557 1.963zM865.823 111.092c18.732 0 12.563-3.537 25.567 17.063 3.446 5.46 7.29 12.435 10.943 17.465-4.263-.014-30.078-.017-36.51-.023v-34.505zm.497-6.932l.002-3.496 12.396.023 1.967-.002.941.019 5.508 9.396h-20.822l.008-5.94zm7.433-3.972c-6.716 0-7.677.934-7.98-1.932-.179-1.684-.019-8.078.215-9.797 1.864 1.354 6.25 9.242 7.765 11.729zm34.222 42.153c-1.203.066-2.019-.026-3.99-.026-2.624-4.53-18.776-29.17-19.263-30.991l3.92.043-7.455-11.674c-1.372.323-1.568.178-3.469.495-2.575-3.891-10.995-15.96-11.895-19.824 2.888 0 2.217-.18 3.964.99l-.556-1.962c-4.654-.02-4.025-.661-3.924 4.42.391 19.518.02 42.865.02 62.552l45.1-.026-2.452-3.997zM483.713 140.332h-3.965V77.39h42.622v.99c.763-.558 2.696-3.422 2.974-4.46h-47.083v66.906c2.131-.161 4.19.227 5.452-.495M486.687 145.784c.545-2.04 17.038-27.487 19.701-31.836 3.354-5.481 6.586-10.55 9.94-15.834 1.79-2.823 3.227-4.948 4.991-7.887 3.32-5.525 3.463-7.384 6.998-7.384v62.94h-41.63zm42.125-66.411c-3.885 0-3.295.013-4.872 2.563l-7.988 12.825c-3.094 5.123-30.866 48.885-31.909 51.568l44.77-.05V79.373zM466.782 138.43l1.08 2.394 5.939.003.067-64.005c-.006-3.619-.137-3.016-3.995-2.935l-43.153.034 1.798 3.578c3.157-.916 23.238-.109 28.434-.109 20.015 0 15.898-3.059 16.186 11.376l.004 51.401c-6.077.825-3.811-.306-6.36-1.737M466.368 144.297l.496 1.487h-41.631V82.842c2.483 0 2.014.016 3.469.991-.49-1.836-1.486-2.33-1.982-4.46h-3.965v66.97l45.184-.12-1.571-1.926zM153.03 164.064l13.818 4.14c1.853.536 3.208 1.044 4.967 1.475l4.875 17.994c.967 3.414 1.474 6.074 2.434 9.448.722 2.537 2.213 6.99 2.272 9.622-5.625 0-11.203-.917-16.83-1.008-1.425-.024-2.982-.17-4.383-.284-10.005-.81-7.195.289-7.154-5.645.083-12.05.002-23.69.002-35.742zm-.99 40.2c0 2.069.772 1.483 2.943 1.517 2.589.04 4.89.33 7.589.458 6.623.315 13.308 1.13 19.815 1.495-.071-3.207-9.644-35.5-9.911-38.714-3.718-.866-7.473-2.043-11.253-3.114-5.017-1.422-9.183-3.906-9.183-1.347v39.705zM153.03 208.23l24.559 1.31c5.908-.065 3.95 1.514 4.83-.28-7.262-.161-15.466-1.038-22.817-1.54-11.3-.004-6.743-2.431-7.401 6.044l-.173 19.759c.117 4.618-.156 24.768.508 26.745h4.575l5.62-11.727c2.536-4.92 1.21-3.136 1.009-3.544l-7.125 14.28h-3.584V208.23zM77.837 119.538c-1.164-.007-2.326-.022-3.491-.022 0-.962-.14-3.247-.045-4.035.252-2.124-.57-1.365 1.532-.92-.774-1.056-.038-.645-1.487-.992v-7.434c4.05 0 7.626-.065 10.985.413l9.334-.413v3.965c-1.151 0-3.324.16-4.337-.123-1.99-1.886-1.891-1.757-2.601-1.364.979 1.463 5.376 4.901 6.938 5.948v4.955c-4.91.13-12.45-.45-16.828.022zm-3.987.97h20.319c1.142 0 1.488-.346 1.488-1.487v-12.39c0-1.142-.346-1.487-1.488-1.487h-20.32v15.363zM80.293 160.157h14.372v-11.895H80.293v11.895zm-5.947-5.452h5.451v4.46c0 1.143-.345 1.487-1.488 1.487h-3.963v-5.947zm.001-1.481c.003-2.63.024-2.927.497-4.959h4.455v1.988l.002 3.955h-4.956l.002-.984zm-.001-5.458h20.32v-.991h-20.32v.991zm-.482 13.381h21.793V146.28H73.602l.262 14.867zM74.346 85.815h20.32v13.382H81.78c-1.207 0-6.834-4.694-7.434-5.948v-7.434zm-.496 13.877h21.807v-13.38c0-1.354-.135-1.488-1.487-1.488H73.85v14.868zM80.293 221.611h14.372V208.23H80.293v13.381zm-5.785-13.714c5.422.011 5.383-1.097 5.301 4.285-.045 3.136-.012 6.292-.012 9.429H74.33l.178-13.714zm-.659 14.21h21.808v-13.381c0-1.352-.137-1.488-1.487-1.488H73.849v14.869zM80.293 187.91h14.372v13.38l-12.393.034-1.857-.191-.122-1.823v-11.4zm-5.947 13.38h5.45v-13.875h-5.45v13.876zm-.496.497h21.807v-14.868H73.85v14.868zM94.17 129.43c1.104 2.301.495 7.235.495 10.406h-20.32v-13.38h20.32c0 1.68.155 1.947-.496 2.973zm-20.32 11.397h20.32c1.916 0 1.502-.574 1.533-2.422.022-1.284-.046-2.709-.047-4.02-.002-2.809 0-5.617 0-8.425l-21.807-.164v15.031zM74.346 180.972h5.451v-13.877h-5.451v13.877zm20.155-.165c-1.849.184-12.851.472-13.735-.324-.74-.667-.522-1.494-.51-2.943l.201-10.378 14.223-.067-.179 13.712zm-20.652.66h21.807v-14.868H73.849v14.868zM111.021 212.691h7.434v-.992h-7.434v.992zm-.991-.496c0 2.421 2.836 1.156 4.46 1.156 3.635 0 4.46 1.992 4.46-2.644-7.028 0-8.92-.823-8.92 1.488z" mask="url(#b)"/>
        <path fill="#F48266" d="M165.95 240.857c.504-.448.22-.027.735-.752 2.108-2.965 12.232-24.797 12.316-25.35l-13.05 26.102zM87.726 108.613c-.148-.989.936-.255-.81-1.47-1.253-1.257-.744-.402-1.586-.595.766 1.095.73.854 2.396 2.065M53.035 96.223c-.87-1.298-.252-1.024-1.983-1.487.87 1.3.25 1.025 1.983 1.487" mask="url(#b)"/>
        <path fill="#F48266" d="M179 214.755c.221-.2.667-.254.826-1.109.331-1.776-.598-.46-.826 1.11M127.375 156.192c-.737-1.085-.094-.614-1.487-1.154.729 1.279-.017.738 1.487 1.154M881.187 99.693c-.31-1.334-.094-.86-.99-1.651.34 1.66-.172.785.99 1.65M356.344 145.288c-.34-1.413.075-.746-.991-1.487.339 1.415-.076.746.99 1.488M908.444 136.863c-.338-1.413.076-.745-.99-1.486.347 1.448-.065.714.99 1.486M939.173 111.587c-1.066.741-.653.072-.992 1.486 1.096-.76.617-.08.992-1.486" mask="url(#b)"/>
        <path fill="#F48266" d="M962.87 74.634l-41.635 66.188h-1.029L962.13 74.17zM871.336 76.75l40.069 63.895-1.046.22-40.765-65.926zM868.91 79.24l42.278 67.11-1.57-.03L868.165 79.7zM1007.806 98.99l-61.06 48.58-1.764.362 62.653-50.521zM19.092 79.785a11.095 11.095 0 0 0-7.868 3.26h-.002a11.097 11.097 0 0 0-3.26 7.87c0 3.072 1.247 5.854 3.26 7.868a11.096 11.096 0 0 0 7.87 3.26 11.09 11.09 0 0 0 7.869-3.26 11.095 11.095 0 0 0 3.26-7.869c0-3.07-1.246-5.854-3.26-7.868h-.001a11.093 11.093 0 0 0-7.868-3.26zm-7.251 3.878a10.226 10.226 0 0 1 7.25-3.002c2.833 0 5.397 1.148 7.252 3.002a10.226 10.226 0 0 1 3.002 7.251c0 2.832-1.148 5.396-3.002 7.251h-.001a10.22 10.22 0 0 1-7.25 3.002 10.222 10.222 0 0 1-7.25-3.003 10.222 10.222 0 0 1-3.003-7.25c0-2.83 1.148-5.395 3.003-7.25h-.001zM859.251 145.596h2.189V79.723h-2.189zM857.889 80.19l-41.28 66.174h-1.66l42.014-66.754zM855.513 76.495l-39.706 64.27-2.497.108 41.279-64.96zM865.564 111.331h15.132v-.794h-15.132z" mask="url(#b)"/>
        <path fill="#F48266" d="M865.564 100.473h15.132v-.795h-15.132zM885.562 100.473h30.162v-.795h-30.162z" mask="url(#b)"/>
        <path fill="#F48266" d="M885.962 99.1H916.262v1.537H885.529v-1.1l-.562-.438zM938.215 154.163l.058 85.066h-2.19v-82.851l-.406-.588zM938.842 154.8h68.852v-2.189h-68.852zM1000.954 148.766h-56.825l1.86-1.733 54.965.057zM800.73 74.12l4.357.437v66.469h-4.358zM428.413 77.499h43.735V74.12h-43.735zM317.173 82.114l40.45 64.249h-1.986l-39.854-64.408.548.185zM423.872 82.842c4.02 0 3.008.292 7.498 7.39l14.899 23.74a1630.464 1630.464 0 0 1 9.94 15.832c1.474 2.378 9.34 14.3 9.788 15.98h-42.125V82.842zm-.992 63.437l45.538.05c-1.643-4.309-40.762-63.78-41.573-66.956-5.242 0-3.965-1.234-3.965 13.381v53.525zM523.646 76.602l-40.177 64.224h-1.662l40.915-64.805z" mask="url(#b)"/>
        <path fill="#F48266" d="M478.272 139.518h5.691l-.754 1.307h-4.937zM467.98 140.825h5.691v-1.307h-5.691zM412.678 77.499l-34.031 53.787v-2.54l33-52.179zM367.308 140.824h5.554v-1.533h-5.554zM358.118 140.824h4.736v-1.533h-4.736z" mask="url(#b)"/>
        <path fill="#F48266" d="M427.329 73.909L469 140.825h-1.18l-41.335-66.802.001-.088zM373.831 146.363h11.896v-.589h-11.896zM302.094 77.499l-39.71 63.326v-2.537l38.678-61.721zM306.769 145.774h1.095V80.683h-1.095zM361.81 140.825h1.094V74h-1.094zM417.105 146.363h1.094V79.538h-1.094z" mask="url(#b)"/>
        <path fill="#F48266" d="M378.747 146.363h1.095V0h-1.095z" mask="url(#b)"/>
        <path fill="#F48266" d="M379.841 77.499h9.494v-3.332h-9.494zM304.933 80.84l-41.56 64.933v-2.538l40.53-63.327zM251.054 140.825h1.095V74.669h-1.095zM206.424 82.114l40.448 64.249h-1.985l-39.853-64.408.548.185zM193.877 73.973l-41.91 66.852v-2.538l40.409-64.296zM195.077 79.928l-41.732 66.435h-1.585l41.92-66.635zM112.795 77.499h27.938v-3.508h-27.938z" mask="url(#b)"/>
        <path fill="#F48266" d="M140.185 127.795h1.095V73.991h-1.095zM145.454 140.825h1.094V73.991h-1.094zM206.956 74.15l40.448 64.249h-1.985l-39.853-64.407.548.185z" mask="url(#b)"/>
        <path fill="#F48266" d="M106.04 74.15l40.447 64.249-.679 2.005-41.158-66.412.548.185zM99.897 74.15l41.94 66.675h-1.985L98.507 73.992l.548.185z" mask="url(#b)"/>
        <path fill="#F48266" d="M140.943 140.706h-1.986v5.068h-.876v-5.945h2.862zM989.102 147.405h5.909V.431h-5.909zM1049.419 60.255h4.186V.431h-4.186zM1042.972 106.724c3.246 0 6.186 1.315 8.313 3.44a11.707 11.707 0 0 1 3.422 9.018h-.878a10.829 10.829 0 0 0-3.164-8.399 10.848 10.848 0 0 0-7.693-3.184 10.852 10.852 0 0 0-7.694 3.184 10.836 10.836 0 0 0-3.164 8.4h-.877a11.708 11.708 0 0 1 3.422-9.018 11.725 11.725 0 0 1 8.313-3.44M13.9 13.427h51.205v-2.19H13.9zM38.762 84.334l26.445 21.078v1.681L37.94 85.355l.822-1.02zm59.816 48.005l21 16.854-.821 1.021-20.18-16.194v-1.68zM184.7 211.416l-26.756 54.858-.447-3.435 27.043-53.653zM18.876 106.55a11.721 11.721 0 0 0-8.313 3.442 11.723 11.723 0 0 0-3.422 9.027h.877a10.849 10.849 0 0 1 3.164-8.407 10.848 10.848 0 0 1 7.694-3.187c3.005 0 5.725 1.218 7.694 3.187a10.845 10.845 0 0 1 3.164 8.407h.877a11.723 11.723 0 0 0-3.422-9.027 11.721 11.721 0 0 0-8.313-3.443M6.864 129.57l17.806.002h12.302c.195 0 .353.158.353.352v.01l-.088 41.962a.357.357 0 0 1-.179.307L7.006 189.31a.353.353 0 0 1-.527-.306v-59.081c0-.197.157-.355.353-.355h.032zm17.806.708l-17.484-.002v58.12l29.345-16.706.088-41.413H24.67z" mask="url(#b)"/>
        <path fill="#F48266" d="M13.356 128.43l12.224-.02-.082-1.347c-5.101-.097-5.09-.693-5.001-4.864.01-.537.024-1.143.024-1.926 0-.196.159-.354.355-.354H23.495v-4.248h-7.717v4.248h2.62c.195 0 .353.158.353.354v.01c0 6.781-.228 6.781-4.975 6.774h-.156l-.264 1.372zm12.6.684l-13.002.022a.353.353 0 0 1-.373-.419l.399-2.08a.353.353 0 0 1 .348-.286h.448c3.992.007 4.258.006 4.267-5.724H15.423a.355.355 0 0 1-.354-.354V115.316c0-.195.159-.354.355-.354h8.425c.196 0 .355.16.355.354v4.958a.355.355 0 0 1-.355.353h-2.62c-.004.546-.016 1.092-.026 1.586-.076 3.624-.086 4.08 4.616 4.15a.353.353 0 0 1 .365.332l.125 2.046h-.002l.002.02a.354.354 0 0 1-.353.353zM182.465 209.367l-25.398 50.928-1.636-.06 24.835-50.71zM117.963 170.641h16.313c1.193 0 2.28.49 3.068 1.277l.001.001.001.001a4.334 4.334 0 0 1 1.277 3.07v26.422c0 1.194-.49 2.28-1.277 3.068v.001l-.002.001a4.332 4.332 0 0 1-3.068 1.276h-16.313a4.334 4.334 0 0 1-3.069-1.276v-.002a4.335 4.335 0 0 1-1.278-3.068V174.99c0-1.195.49-2.282 1.277-3.069h.001v-.002a4.335 4.335 0 0 1 3.07-1.277m16.312.876h-16.313c-.955 0-1.824.392-2.45 1.02h-.003a3.462 3.462 0 0 0-1.018 2.452v26.423c0 .956.39 1.824 1.018 2.451l.002.002a3.453 3.453 0 0 0 2.451 1.017h16.313c.955 0 1.823-.388 2.451-1.017l.002-.002a3.46 3.46 0 0 0 1.018-2.45v-26.424c0-.955-.39-1.824-1.018-2.452h-.002a3.465 3.465 0 0 0-2.45-1.02M1055.95 129.57l-17.808.002h-12.3a.353.353 0 0 0-.354.352v.01l.09 41.962c0 .13.07.245.178.307l30.05 17.108a.355.355 0 0 0 .53-.306v-59.081a.355.355 0 0 0-.356-.355h-.03zm-17.808.708l17.485-.002v58.12l-29.346-16.706-.087-41.413h11.948zM1049.458 128.43l-12.225-.02.082-1.347c5.1-.097 5.088-.693 5-4.864-.01-.537-.023-1.143-.023-1.926a.354.354 0 0 0-.355-.354h-2.619v-4.248h7.717v4.248h-2.618a.354.354 0 0 0-.355.354v.01c0 6.781.228 6.781 4.975 6.774h.156l.265 1.372zm-12.6.684l13 .022a.353.353 0 0 0 .374-.419l-.4-2.08a.354.354 0 0 0-.347-.286h-.448c-3.991.007-4.258.006-4.266-5.724H1047.39a.354.354 0 0 0 .353-.354V115.316a.354.354 0 0 0-.353-.354h-8.426a.356.356 0 0 0-.355.354v4.958c0 .194.16.353.356.353h2.62c.004.546.016 1.092.025 1.586.077 3.624.086 4.08-4.616 4.15a.352.352 0 0 0-.364.332l-.125 2.046v.02c0 .194.157.353.353.353zM74.016 112.703l8.655 6.983-1.156.656-7.499-5.959z" mask="url(#b)"/>
        <path stroke="#F48266" stroke-width="1.417" d="M71.198 12.428h300.865" mask="url(#b)"/>
        <path fill="#F48266" d="M644.784 145.784V82.842c2.427.67 16.007 24.015 18.348 27.74.76 1.21 17.76 26.694 23.248 35.473a40.846 40.846 0 0 1 2.214-.013l1.308-.126-.16-.258-39.068-61.283c-2.172-3.523-1.753-5.002-6.386-5.002v66.907l41.698-.132c-.022-.18-.014-.181-.019-.364h-41.183zM647.758 73.92l2.386 3.579 39.889-.075a4.229 4.229 0 0 1-.257-1.646c.028-.597.045-1.223.05-1.857h-42.068z" mask="url(#b)"/>
        <path fill="#F48266" d="M1024.416 71.444l.49-8.92h11.91l.486-.001h9.906l14.87-.493.004 1.484v7.93h-37.666zm-.991-19.33v9.417h-28.25V12.466h54.022v38.162h-24.285c-1.143 0-1.487.345-1.487 1.486zm-5.416 16.989c-3.408.05-3.918.896-3.998-2.117l9.658-.155c-.332 2.723.23 2.184-5.66 2.272zm5.424 21.659l-.008 18.843c-2.21-1.48-4.526-4.308-6.568-6.318-3.978-3.912-2.85-3.197-2.85-10.533 1.944-.918 7.458-5.1 8.509-6.856l-9.956 7.399.538 6.888-5.532.003V97.71l-6.03 4.873c2.635-.696 2.644-2.401 5.035-3.384l.006 5.459-.003 1.972v2.478l.44 44.937-5.89.189V123.49c0-4.79-.71-17.68.412-20.907l-2.476 1.984 1.314-.153-.244 1.23v4.455h-4.955c.179-2.934.58-1.556 1.487-3.47l-1.422.284-.065-14.16 20.524-16.647c-1.617.079-.511-.28-1.686.288l-.001-1.478c2.635.216.873-.45 1.687 1.19l2.03-1.965-22.554-.221v-3.964h28.25c0 5.014.803 12.568-.91 15.94 1.186.247 1-1.203.918 4.865zm-15.867 19.338v-7.93l.003-1.483 5.944-.06 1.48 2.126c1.935 1.753 6.158 5.432 7.442 7.347h-14.87zm-12.391 37.666h5.452V111.09h-5.452v36.675zm12.1-68.68l-8.336 6.546c-1.474 1.15-2.07 2.21-3.764 2.662V77.39h13.382c-.62 1.783.53.078-1.282 1.696zm-12.102-17.061h28.252l.002 3.968h-1.984l-26.102.44-.201-1.926.033-2.482zm-.657 85.579l-1.816.194-3.472-.032V.572h3.47l1.82.124-.002 146.908zm55.176-95.985V40.716h1.982l2.478.05V30.308h7.93V61.53h-37.666v-9.912h25.276zm0-11.4h3.469V.573h-3.47V40.22zm-68.036 62.31c-1.488.68-5.762 4.579-7.096 5.788-3.02 2.736-4.83 1.785-10.112 1.783h-23.79l4.465-7.424c.779-1.173.598-.527.993-1.988l22.297-.004h.49l14.87-.082c-1.394 1.067-1.172 1.082-2.117 1.927zM670.425 70.725l317.47-.434v3.799l-26.102.172-3.081 4.722c2.734-2.127 5.933-1.262 10.515-1.261 19.827.002 18.984-1.932 18.853 4.936-.065 3.348.91 9.457-.63 11.804-.18.275-5.941 5.034-6.515 5.374-2.722 1.607-34.31.787-35.663.189l-6.773 11.894 27.589-.51-42.853 34.338-.1-5.083-1.983-.992-1.028 1.466 2.464.019.052 5.455c7.008.477 8.35-2.704 16.516-9.257l28.616-22.933c3.577-2.82 11.962-8.972 14.682-11.691 3.179-2.21 5.38-7.185 5.484-1.311.069 3.869.58 9.864-.845 12.432.263-.258.643-.18.927 1.534l.04 32.71-42.623-.494-.987.993c13.594-.008 35.613-.482 48.893.217.985.054 3.7-.216 6.113-.216v1.986l.002 3.959c-6.342 0-59.481.338-60.993-.182l.61-1.773-220.422.49c-.008.328-.102.95-.102.95l218.957-.477-2.48 2.479c2.436-.65.91-1.023 4.925-1.024 9.318-.004 40.542-.404 44.968.196l.167 96.974 2.972-2.477v-94.66h18.833v-43.615h15.859v8.06l8.268-.036-.666-.476-6.611.015v-46.22h37.666v46.22l-7.608-.285-.025.769 8.127.013V30.146c-11.37 0-8.921 1.47-8.92-10.41V.408h-4.46v11.895h-54.021V.408h-6.442v11.895L602.75 12.3c.014.166.02.33.019.497h385.29v49.065l-298.414.307-4.458.69 302.71-.376c-.002 6.12.516 4.015-17.68 4.197l-66.906-.026c-29.911 0-59.87.005-89.705 0L670.4 67.16l.024 3.565z" mask="url(#b)"/>
        <path fill="#F48266" d="M149.677 162.476V227.4l-5.293-.122.005-61.332h-36.343V227.4h-8.92v-63.933c0-2.474 8.69-1.487 11.398-1.486l39.153.495zm-2.972 74.838l-2.32-.11c.004-1.39-.102-3.101-.039-4.377.108-2.165.245-1.896 2.36-1.959v6.446zm-.002 22.796h-29.24v-3.469h26.928l-.002-14.373c0-1.735.672-1.438 2.314-1.487v19.329zm-38.16-32.71h35.187v-60.959h-35.188V227.4zm8.92 28.745h26.267v-15.364h-26.267v15.364zm0-18.832h26.267v-6.443h-26.267v6.443zm-2.973-.001h-5.948v-6.442h4.46c1.143 0 1.488.344 1.488 1.486v4.956zm-5.948 18.833h5.948v-15.364h-5.948v15.364zm-9.419-23.789c0-1.851 3.092-1.488 4.958-1.488h3.967v6.446h-8.915l-.01-4.958zm15.367 27.754H99.125v-19.329h8.921v15.86h6.444v3.469zm-15.365-98.624h15.364v-12.391H99.125v12.391zm-.639 75.663l-2.828.197-.002-5.981h2.974l-.144 5.784zm-2.832 22.963v-10.903c-4.667-.553-8.425.867-8.425-1.489 0-7.151 1.484-3.318 8.425-4.462v-2.478l2.816.1.13 19.235-2.946-.003zm-8.423-.002h7.434v-10.407h-7.434v10.407zm-2.972-12.39c0 1.139-.447 1.324-1.488 1.324h-8.92v11.068h-2.975l-.002-19.332h2.984l-.007 2.645c11.973-.003 10.408-1.136 10.408 4.295zm-3.966 12.39h3.965v-10.407h-3.965v10.407zm-5.955.002l.005-10.411h5.454l.001 10.411h-5.46zm-4.452-191.8v80.287h-4.46V40.062l5.45-.496-.024 25.748c-.34 2.934-.966 1.156-.966 2.998zm-7.93 86.73v-4.46l-.002-1.487c.574 0 6.81.162 6.813.163 1.238.338.74.308 1.12 1.318l.008 4.466h-7.939zm-.583-.164l-5.86.191.001-34.713.004-20.321 1.381.593c.09.053.217.131.306.19l4.002 4.747c-.25 1.956.013 1.476.166 2.909.038.358-.038.818-.05 1.05-.816 14.66-.09 30.538.05 45.354zm.583-6.279h2.973v-36.675h-2.973v36.675zm0-37.666v-3.965l.123-1.821c1.707 1.343.757.778 2.85 1.821v3.965h-2.973zm2.973-32.709v8.92c-1.676-1.122-3.429-2.788-5.237-4.181l-4.82-4.089c-.07-.103-.256-.515-.35-.65h10.407zM49.07 101.021c0-3.329-.594-5.299.991-6.938l-1.569-.413.084 7.848 5.94.014.004 1.478.02 7.923c-18.282.002-15.383 2.993-15.383-11.894 0-4.12.136-8.294 0-12.39l1.983.991c-2.408-3.595-2.043-1.082-1.987-7.429.027-3.137.004-6.283.004-9.421H64.93v3.964H44.61c5.206 4.342 9.935 8.575 15.364 12.886 2.341 1.859 4.892 2.677 5.002 6.397.114 3.846-.046 8.046-.046 11.94L53.73 97.304l1.636 3.54-6.296.177zm-9.908-32.213c.551-1.453-1.467-1.106 4.953-1.025 5.586.07 4.398-.693 4.454 2.011-1.723.012-3.244.084-4.95.08-7.134-.019-3.395.412-4.457-1.066zM64.93 62.86l-.077 4.298-25.532-.001-.193-4.296 25.802-.001zm.496-61.455h5.451v35.683c-1.112.26-1.139.496-2.478.496h-2.973V1.405zm8.424 230.951v4.956h-2.973v-4.46L71 231.03c1.684.004 2.85-.3 2.85 1.326zm.496 10.407h5.452v-1.982h-5.452v1.982zm.163-5.117l-.195-1.817.032-4.959h5.452v5.451c0 1.998-3.157 1.322-5.289 1.325zm5.785 5.117h3.965v-1.982h-3.965v1.982zm3.964-5.451h-3.964v-4.46l.122-1.823 3.678.005.198 1.815-.034 4.463zm2.974 5.451h7.434v-1.982h-7.434v1.982zm0-5.451h7.434v-5.947h-7.434v5.947zM73.85 67.817v12.389h21.807V67.817l2.811.158.051 159.259c-4.335.462-22.013.174-27.642.166V67.817h2.973zm.496 11.894h20.32v-1.487h-20.32v1.487zm0-4.956h20.32V70.79h-20.32v3.965zM71.372 62.86H372.7v2.478l-.125 1.82-8.3.022-28.25-.024-136.29.004-14.869-.004-113.494-.073.001-4.223zM69.83 237.644H55.182l-.189-6.774h14.893l-.056 6.774zm-14.813 22.465h14.87v-19.328h-14.87v19.328zM38.17 62.366H.624L.5 31.14H8.43l.002 10.902c5.903-.74 4.282-.45 4.46 10.408h25.336l-.059 9.916zM.501 72.277l.001-6.933-.209-2.235c3.338.026 36.2.089 37.87-.244l.002 1.983.01 7.428-37.674.001zm8.92-70.872l3.31.124-.005 8.301c-3.995 3.034-3.16 3.877 0 6.608v24.451l-3.305.164V1.405zm363.937.164l5.288-.164v145.212c-2.452 0-5.295.474-5.288-.992.09-16.816.624-142.133 0-144.056zm24.488 113.205c2.45-3.935 18.077-29.747 19.952-31.099v62.942h-38.657c.096-4.305 15.837-27.234 18.705-31.843zM372.7 141.165c-1.858-.06-1.574-.091-1.61-1.996l-.01-3.453.007-57.492h1.613v62.941zM99.13 101.52l14.903-.119c2.31.113 2.477.341 2.932 2.184 1.747 2.349 3.028 4.777 4.797 7.186l-22.51.152-.124-3.453.001-5.95zm26.264 52.531H728.01a5.757 5.757 0 0 1-.104-.972l-604.992-.019.53 1.8-7.963.182.062-5.784 2.333.414-1.474-2.004c-3.036.97 2.127.591-2.375.943l-14.902-.012.015-29.24c4.555 2.418 13.992 10.968 18.835 14.841 3.1 2.479 6.263 5.031 9.34 7.52 2.098 1.697 4.704 4.188 6.905 5.476h4.272c.23-.037.487-.066.777-.083v-5.452c4.821.079-2.497-4.215-.496 3.964-1.859-.699-29.716-23.346-35.758-28.162-2.372-1.892-3.89-1.917-3.89-5.539h23.79l-7.214-12.194c-.794 1.812-.043 1.299-3.126 1.372l-13.45-.081V78.224l3.47.991c-.317-1.186-1.348-2.869-2.137-3.811-1.706-2.036-1.333-.461-1.333-4.614l273.574-.001v3.965c-6.62.003-5.452-2.368-5.452 12.39v54.517h5.452c0 3.218-.26 4.808.367 5.535h13.246c1.69-.037 3.585-.05 5.715-.022 8.754.114 17.477-.061 26.267-.061V80.206c-4.814 0-4.453 1.56-6.473 4.928-4.802 8.007-30.947 50.169-32.184 51.076.094-2.932-.613-5.998.991-7.172-.813-2.762.517.656-1.456-.182 0-13.877-.03-26.843-.03-40.72 0-12.429-1.883-9.912 10.902-9.912h20.816c1.782.59-.359 3.027 1.667.312.967-1.297 1.566-2.348 1.802-3.782h-34.692V70.79l291.104-.001-.34-3.629H379.8l-.192-4.299 310.694-.001a5.621 5.621 0 0 1-.115-.72c-5.404.348-32.06.224-40.947.224l.033-.048H631.37l.033.048H379.141V36.098c.408.108 1.357.804 2.707 1.563a10.378 10.378 0 0 1-.582-2.807v-.014c-.015-.209-.03-.417-.033-.626-1.257-1.2-2.092-2.615-2.092-4.064V13.299h1.457c-.01-.165-.016-.33-.02-.495h-1.437V.909H372.7c0 4.409.056 6.846.027 8.171.257 5.033-.034 10.057-.324 15.083 1.008 11.927.297 32.123.297 38.201H71.372V39.071a9.096 9.096 0 0 0 1.213-.395c-.048-.91.022-1.825.207-2.715a5.45 5.45 0 0 1-1.423.634l.003-23.298h.53c.002-.162.01-.323.02-.485-.197-.004-.382-.008-.55-.008V.909H64.93v11.895h-4.732a29.56 29.56 0 0 0-.178.495h4.91v24.285a10.285 10.285 0 0 1-1.235-.37 10.647 10.647 0 0 1-.822 2.353c.655.205 1.334.38 2.057.495v22.302H38.662V51.461H13.387v-28.84a24.131 24.131 0 0 1-.03-1.369c.002-.188.023-.365.03-.55v-.465c.007.012.015.03.023.042.184-2.946 1.071-5.47 2.502-7.475h-.048c-3.137-3.978-2.169-2.282-2.477-11.895H8.43v29.737H.005L0 119.854h7.488v-.568l-6.987.074L.5 73.266h37.667l.002 46.094h-7.437l-1.487-3.965 1.184 4.408 8.234.051v-7.93h16.355v43.614h14.87v72.358H51.051v35.187h-4.46v8.426h111.18c-.17-10.101 2.606-11.605 6.056-18.501 1.276-2.551 12.755-24.084 12.678-25.861l-18.636 35.85-7.202.086-.61-100.606c3.69.078 15.55 3.863 20.288 5.087 2.76.712 3.297.53 4.003 3.335l4.06 15.26c1.662 6.549 3.45 13.563 5.45 20.356 2 6.798-4.91 13.006-6.64 19.699 1.646-2.605 5.553-11.164 7.074-14.159 1.912-3.763-1.1-10.234-2.22-14.684-.965-3.826-7.41-28.572-8.176-29.524-.733-.909-20.389-5.559-22.229-6.11-4.695-1.405-27.58-.252-36.187-.252v-5.947c2.177 0 4.354.028 6.528.037 7.294.025.143-.45 3.384-1.524z" mask="url(#b)"/>
        <path fill="#F48266" d="M729.937 156.298a4.412 4.412 0 0 1-.545-.44l-602.017.334c.598.377-.604 1.133 5.68 1.133 106.624 0 521.43-.128 597.69-.147a4.481 4.481 0 0 1-.808-.88" mask="url(#b)"/>
        <path fill="#F48266" d="M936.692 208.727c.22-2.454.05-2.041 2.915-2.043l22.86.057c6.015-.01 6.702-.811 6.952 1.986h-32.727zm1.49 23.292h26.761c1.663.06 1.242 4.804 1.33 6.816l-29.579.122v-5.451c0-1.142.345-1.487 1.487-1.487zm-1.488-4.46v-17.842h29.241v19.328h-27.754c-1.142 0-1.487-.344-1.487-1.486zm30.231 1.982v-19.824h2.478v21.806h-32.709v-1.982h30.231zm2.466 12.086h-38.178c-4.509-.004-7.696.005-12 .005l1.505-2.166 13.992-.015v-6.939h1.49l-.009 6.939h30.733v-6.939h2.482l-.015 9.115zm-66.736-84.875c2.123.319 1.143 1.479 2.816 3.405l-.104-.595 15.108 35.78c-.03.64.315 1.236.756 1.791l.964 2.283.121.521.098-.001 12.955 30.682.334.905-1.34-.07-31.708-74.701zm29.51.574l1.555-.639v39.648c-3.239 0-9.827-.221-12.367-1.156l-15.99-37.872 26.802.019zm1.555 42.478l-.164 24.275-10.199-24.154 10.363-.121zm-.162-.905l-10.669-.082-.802-1.903c.097-.231.378-.109 2.167-.133l9.501.051-.197 2.067zm1.152 23.209l.003-65.421h1.485v73.349c-.068-.099-.147-.244-.185-.31l-.266-.454-.828-1.967c-.432-1.612-.218-3.03-.209-5.197zm1.984-21.312c0-1.535.021-1.229 1.744-1.031.808.093 2.522.003 3.81-.02 2.745-.048 22.005-.033 23.631.066l.056 6.436h-29.24v-5.451zm0-3.965h32.71v9.416h-2.479v-7.434h-30.23v-1.982zm0-.496V175.52c0-4.713 1.688-17.283-.99-19.824l-217.787.134a4.374 4.374 0 0 1-.629.507l-.056.038a4.402 4.402 0 0 1-.712.372l-.097.038c-.178.068-.374.114-.567.163-.146.088-.3.168-.46.24l185.31.138 1.297-.639c.222.014.42.033.598.058l-.76.32 31.6 75.031.016 6.861-12.532.008-2.23 3.128 51.204.002v-45.76h-33.205zM945.472 147.916c-1.395.81-.94.95-2.893 1.274l-224.014.02c.226.355.407.737.54 1.14 6.78-.023 13.56-.048 20.34-.1 34.592-.258 69.07.363 103.58.056l77.314-.06c4.318-.03 8.6.07 12.887.063 7.677-.012 9.328.704 12.597-1.64l-.351-.754z" mask="url(#b)"/>
        <path fill="#F48266" d="M727.774 149.213l-506.73.04c-9.88 0-95.632.66-103.168-.414.296.407.573.867.91 1.405 69.038 0 137.844-.248 206.83.026 68.94.276 138.276.513 207.162-.02 46.607-.359 148.732-.004 195.403.108.067-.203.145-.399.235-.589a4.345 4.345 0 0 1-.642-.556M704.562 138.403l.001-.001c-1.01 1.75-1.264 1.93-4.272 1.93V77.39h10.012l.001-.011s25.355.01 32.391.185l-38.133 60.838zm40.334-64.481H699.3l-.016 67.104h5.862c3.155-5.964 7.242-11.687 10.667-17.388l26.238-42.141c1.101-1.775 5.923-7.575 2.846-7.575zM758.772 73.921c3.398 7.256 2.23 4.016 3.604 3.603l17.708-.134c24.75 0 20.714-1.876 20.652 7.433-.049 7.547 1.322 53.475-.829 56.004h5.633l-.18-66.906h-46.588zM755.507 84.694l37.959 61.092h-38.164l.205-61.092zm40.933 56.63l-.993.99c-12.274-18.331-25.232-41.545-37.388-59.35-2.208-3.235-.677-1.436.383-3.591l-3.611.08v66.91h45.197l-3.588-5.04zM744.154 83.832l2.23-.991v62.945l-37.708-.006.536-5.448-4.012 6.03h45.147v-66.99l-3.76.115zM540.708 79.373l-.557-1.963 43.178-.019v62.94l-4.955-.495c.617 1.665-1.537.992 5.946.992V73.921l-41.637-.006c-2.413-.024-5.45-.616-5.045 1.093.168.713 2.524 3.965 3.07 4.365M534.265 82.842c4.02 0 3.009.292 7.499 7.39l14.898 23.74a1611.4 1611.4 0 0 1 9.94 15.832c1.475 2.378 9.34 14.3 9.79 15.98h-42.127V82.842zm-.991 63.437l45.1.05c-1.644-4.309-40.326-63.78-41.135-66.956-5.244 0-3.966-1.234-3.966 13.381v53.525zM594.728 139.836l-5.446.586.002-62.868 43.606-.169-.495 1.987c.576-.423 2.617-3.314 2.95-4.088.874-2.03-1.742-1.409-4.424-1.376l-42.14.013v66.906l5.947-.99zM634.46 82.925l3.386-.083v62.942l-38.196.029c-3.818.062-3.49.057-3.85-.94l-1.072 1.457 45.1-.05V92.754c0-14.641 1.283-13.391-3.86-13.326l-1.508 3.497z" mask="url(#b)"/>
        <path fill="#F48266" d="M747.759 80.19l-40.567 66.174h-1.662l41.298-66.754zM759.089 73.909l41.696 66.736-1.046.22-41.495-66.842.002-.088zM687.064 146.04l-41.13-63.804-.843.025-.002.089 40.907 63.72c.355-.013.712-.022 1.068-.03M690.3 145.876l-42.058-65.34-.842.026-.002.088 41.858 65.328c.348-.034.696-.069 1.045-.102M690.695 140.324c.044 0 .082.013.125.014l-42.313-66.43-.842.027-.002.088 42.117 66.396c.307-.065.614-.098.915-.095M637.433 80.19l-41.28 66.174h-1.66l42.015-66.754zM633.353 78.08l-39.413 62.942h-1.662l41.185-64.971z" mask="url(#b)"/>
        <path fill="#F48266" d="M595.621 145.366h44.223v.876l-44.288.12zM588.93 141.025h5.153v-1.307h-5.153zM578.624 141.025h5.69v-1.307h-5.69zM771.307 77.499h33.564V74.12h-33.564z" mask="url(#b)"/>
        <path fill="#F48266" d="M538.009 73.909l41.797 67.116h-1.182l-41.46-67.002.003-.088z" mask="url(#b)"/>
        <path stroke="#F48266" stroke-width="1.417" d="M380.132 12.428c75.001.35 149.001.35 223.634 0M698.741 26.441c87.338.35 358.025.35 444.612 0" mask="url(#b)"/>
        <path fill="#F48266" d="M921.048 238.965l-2.056 3.127h-.566l2.055-3.127zM810.462 99.227h30.973l-.015.03c-.188.19-.348.436-.47.677a1.251 1.251 0 0 0-.108.163c-.176.185-.227.336-.342.547h-30.038v-1.417zm35.465 0h14.46c.059.202.083.437.147.645 0 .24-.007.431.07.667l.013.105h-16.072c.052-.065.096-.135.135-.208l.095-.043a1.422 1.422 0 0 0 1.152-1.166zm19.57 0h15.488c.052.189.163.406.296.554.056.168.447.566.62.72.016.049.038.096.059.143h-16.52c.018-.297.002-.634.002-.935 0-.063-.003-.125-.012-.186.032-.095.055-.194.067-.296zm19.234 0h31.46c-.083.271-.092 1.131-.034 1.417h-30.793c-.038-.105-.115-.2-.115-.312h-.001c0-.457-.191-.796-.513-1.101l-.004-.004zm36.099 0h21.403c-.093.156-.243.311-.341.481-.228.241-.368.605-.434.936h-20.481c.02-.323.006-.664-.134-.96l.07.144c0-.22-.006-.388-.083-.601zm26.194 0h36.778v1.417h-37.69c.04-.052.077-.106.114-.16l-.014.012c.175-.182.515-.713.587-.938.09-.128.11-.214.225-.331zm60.214 0h6.325v1.417h-6.384c.04-.127.059-.265.059-.416v-1.001zM987.879 234.014h.854v1.474l14.103.07-1.217 4.39h-6.444v-1.982h-6.442v3.023h-.854zM987.879 218.64h.854v1.473l14.103.07-1.217 4.39h-6.444v-1.983h-6.442v3.024h-.854zM987.879 247.912h.854v1.475l14.103.069-1.217 4.39h-6.444v-1.982h-9.414v-.02zM689.827 139.718h2.557V73.921h-2.557z" mask="url(#b)"/>
    </g>
</svg>
