<svg xmlns="http://www.w3.org/2000/svg" width="665" height="399" viewBox="0 0 665 399">
    <g fill="none" fill-rule="evenodd">
        <path fill="#F38165" d="M306.923 2.827h-1.415c-2.72.217-6.421-.326-8.925.108-.435.11-.653.11-1.088 0-1.197-.326-.762-1.195-2.612-.108-.98.543-.98.217-1.85.326-.544.109-.436.217-1.089 0-.653-.218-.762 0-1.523 0-.327 0-.436-.109-.653-.109l-2.068.109c-1.415 0-1.524-.218-2.721.435-.762.435-3.265.217-4.463.217l-2.176.109c-.545 0-.871-.109-1.633 0l-3.592-.109c-.217-.76-.217-1.304-.98-1.522-.108 0-1.088-.109-1.088-.109-.217 0-.653.11-1.088.11-.98 0-1.415 0-1.632.869-.218.543 0 .435-.545.76-.87.544-.544 1.632-.544 2.828l.109 2.718c0 .76-.109 1.413-.109 1.957 0 .543.109 0 .109.652 0 .543-.218.652-.218 1.413l4.463 2.61c.435.217.544.326.98.543.543.217 1.196.87 1.196 1.74v32.29c-2.503 1.63-.98.652-2.068 2.5l-.98 1.848c-.217.326-.217 1.196-1.305 3.262l-.87 1.957c-.218.434-.436.76-.654 1.195-.218.544-.326.87-.544 1.305l-1.197 2.61c-.762 2.174-1.742 2.609-1.524 4.022.109 1.196 0 1.74 0 2.718l.109 2.718c0 .544-.109.544-.109.87l.109 1.848c0 .76-.544.543-.218 1.848.436 1.413 0 1.63.109 2.827 0 .326.218.76.218 1.087 0 .544-.11.217-.11.652l.11 9.024s-.327 1.087-.327 2.392c0 1.087.109 1.522.109 2.61 0 1.63-.109 6.848 0 8.262.218 1.63-.109 5.98-.109 7.828 0 1.087.109 1.63.109 2.609l-.109 10.654c0 .761.109 1.196.109 2.066 0 1.74.109 3.805 0 5.653 0 .435-.109.544-.109.979 0 .435.218.326.109.978-.326 2.175.109 4.24 0 5.545 0 .652-.218.761-.109 1.522.109.87 0 .761-.109 1.522 0 .653.11.87.11 1.631l-.11 5.219c0 1.739.11 19.786 0 21.091-.108.761-.108.87 0 1.74.11.87-.108 2.065-.108 3.261 0 .652.108.979.108 1.74l.11 10.98c0 .87.108 4.675-.11 5.328-.435.87-.217.543-.217 1.413.217 2.066 0 11.307 0 14.46v9.023c0 .761.109.979.109 1.74 0 1.196-.218 2.174-.218 3.479 0 1.74.109 3.044.109 4.783 0 .87-.218 1.305 0 2.175.109.652-.11.435-.11 1.087 0 .435.11.544.11 1.087 0 1.087-.11 1.74-.11 2.718l.11 2.718c0 1.522.109 3.153-.218 4.566 0 0 .109 9.133-.109 11.416-.109 1.63.109 3.588.109 4.784 0 1.413.109 3.587 0 5 0 .436-.109.11-.109.653l.109 1.522c0 .87-.109 3.697 0 4.349.109.652.109.543-.109 1.196l.109 8.915c0 .543.109.652.109 1.413v7.502c0 .652.218.87.109 1.304-.11.544-.327.761-.327 1.305.109 1.413 0 9.459-.109 11.742-.109.87-.109 7.936 0 8.915.11 1.087 0 6.305 0 7.719 0 .76.11 1.087.11 1.957 0 1.087.108 2.392-.219 3.479-.217.87.218.76.218.978 0 .653-.218.87-.218 1.522 0 .653.218.979.11 1.631-.11.87.108 1.957 0 2.935-.11.979 0 1.196 0 2.175 0 1.413-.11 1.957 0 3.696 0 .544 0 .11-.11.653 0 .543.11.652.11 1.304 0 1.087-.11 1.849-.11 3.044 0 2.936.436 8.915 0 11.633-.217 1.74 0 3.806.11 5.436v2.718c0 .653-.11.87-.11 1.305 0 .761.218.326 0 1.087-.217.652-.217 1.74-.108 2.61.326 1.956.108 7.501.108 9.675-.217.218-.544.327-.761.544v1.848c.761.544 1.741.544 2.72.544h3.375c.653 0 .761-.109 1.523-.109l10.993.109h1.524c.544 0 .762-.109 1.523-.109l12.3.109c.87.109.87-.109 1.632-.109 1.088 0 .87.109 1.959 0 1.415-.217 6.421 0 8.271 0 .762 0 .327 1.087.871 1.087s.544-.543.653-.978l6.204-.109c1.306 0 2.72.109 3.918-.109l3.81.11c.979.108 1.305-.218 2.394-.11 1.85.327 17.632.11 21.223.11.98 0 1.85 0 2.612-.11 1.198-.217 1.524.218 2.504.218s2.068 0 2.938-.218c.98-.326.653-.978.653-1.848 0-.326 0-.326-.217-.543-.11-.11-.327-.218-.545-.327l.11-3.044c0-.543-.327-.543-.327-.87 0-.652.326-.87.217-2.391 0-.979-.108-1.414 0-2.5.327-2.393-.326-11.525-.108-15.004 0-.544.108-.435.108-.979 0-.434-.108-.217-.108-.87.326-3.043-.218-8.697.108-10.98.218-1.848-.108-11.524 0-14.568v-1.849c0-2.718.11-5.653 0-8.371 0-.652-.217-1.196-.108-1.957.108-1.087 1.523-1.305.217-1.957 0-.978-.109-.978-.217-1.74-.11-1.304.108-2.717-.11-3.913-.108-.87.327-1.087.327-1.848 0-.544-.217-.435-.217-.762 0-.217.108-.434.217-.76v-7.937c-.109-1.087 0-2.718.11-3.805.108-.544-.11-1.196-.11-1.957V284.3c0-.87.218-1.413 0-2.61-.109-.978.11-14.568.11-16.96 0-.76-.11-1.304 0-2.065.108-.652.108-.544 0-1.196-.219-1.305 0-6.523 0-8.045 0-.979.108-1.522.108-2.5v-10.112c.109-2.283 0-4.566 0-6.849 0-.978-.109-1.63-.109-2.718 0-2.935.109-5.98-.109-8.915 0-.652 0-.109.11-.652l-.11-2.827c0-.544.218-.761.218-1.087 0-.326-.218-.652-.218-1.087 0-.327.11-.11.218-.544.326-.652.218-4.892.109-6.088-.11-1.414-.11-1.087 0-2.61.109-1.848 0-9.676-.11-11.632 0-.435.11-.544.11-1.088l.109-2.5c0-.544-.11-.544-.11-1.087v-24.68c0-.435-.108-.87-.108-1.087 0-1.63.326-3.261.218-4.892-.327-3.37-.218-9.241 0-12.503 0-.652-.218-.326-.11-1.087v-5.545c0-.652.11-.87.11-1.196v-4.24c0-.543-.218-.87-.11-1.304.218-.761.11-.327 0-1.196l.11-8.48c.108-.762-.11-.11-.11-.653l.11-3.044c0-.761-.11-.87-.11-1.63 0-1.849-.108-4.35 0-6.089 0-.435.11-.435.11-.87 0-.76-.218-.87-.11-1.848v-9.893c0-3.153.436-8.915 0-11.85-.217-1.197-.108-3.154.11-4.35.108-.76-.11-.978-.11-1.522l.11-4.131c0-.652-.11-.652-.11-1.413 0-1.305.218-8.154-.108-9.024-.109-.435-.327-.652-.544-.979-.11-.217-.11-.326-.218-.543-.98-2.827-.435-4.349-.653-6.523-1.306-.326-2.177.217-2.612-.544-.109-.217-.218-.435-.218-.761l-.762-1.522c-.108-.109-.108-.217-.108-.326l-.545-1.414c-.108-.217-.217-.326-.326-.543-.109-.326-.109-.326-.327-.652l-.653-1.305c-.217-.544-.109-.87-.544-1.413-.435-.544-.653-.544-1.197-.87V47.51c-.327-2.718.109-8.154-.109-10.11-.218-1.414.109-1.088.109-1.74l-.109-1.522c0-.435.109-.109.109-.652 0-.435-.109-.435-.109-.761 0-.762.327-1.414.218-2.392-.218-2.066 0-7.72 0-10.22 0-2.827.435-2.174 3.047-3.914l3.156-2.065c.762-.544.545-1.74.545-2.501v-1.74c-.11-.978.217-4.674.217-4.892-.217-.76-1.306-.544-1.523-1.413-.11-.435 0-.326-.218-.761h-3.374c-1.088 0-.653.76-1.306 1.196-.653.434-6.422 0-7.51.217l-3.7.109c-1.089-.109.108-.544-3.374-.544-.545 0-.762-.109-1.198-.109-.544-.108-.544.11-1.197.11-.326 0-.326-.218-.653-.218-.218 0-.544.108-.762.217l-1.632-.109c-.218 0-1.197 0-1.742-.108-1.197-.218-.435-1.305-2.285-.326-.653.434-3.7.108-4.571.217l-2.94.109c-1.85 0-1.958-.218-3.373-.218-.762 0-1.197.326-1.633.109-1.197-.652-.762-2.066-.762-2.5 0-.544-.108-.87-.544-.979.11.761 1.524 2.827-1.197 2.827zm-17.414 3.37c0-1.522-.544-1.196 1.96-1.196.652 0 .87-.109 1.632-.109h7.4c.436 0 .436.11.763.11.326 0 .87-.327 1.197.434.217.544.109 3.37.109 4.131 0 .761-.11.87-.11 1.631h-10.665c-1.198.218-.545 0-1.415 0h-.762V6.197h-.109zm19.155 3.696c0 .87.11.653-.544 1.196l-4.462-.108c-.435-.87-.109-.87-.109-1.74 0-.652-.109-.76-.109-1.413 0-.435.11-.544.11-1.305 0-.543-.219-.543-.11-1.087.11-.326.327-.435.436-.652.653 0 .761.108 1.415.108.653 0 .653-.108 1.088-.108.435 0 .326.217.98.108 1.85-.326 1.197 1.305 1.197 2.283 0 .327.108.327.108.87 0 .326-.217.326-.217.87 0 .435.217.435.217.978zm19.482-4.892c.436.87.218 3.37.218 4.784 0 .652-.109.76-.109 1.413H315.63c-.109-.87-.218.218-.218-2.718 0-.652.218-.87.218-1.305 0-.434-.218-.543-.218-1.087 0-.435.218-.87.327-1.087.544.109.653.326 1.306.218L320.092 5c.653-.109.98.109 1.524.109 1.96 0 4.571-.109 6.53-.109zm-44.405-.109c.544 0 .653-.326 1.741-.326 1.96 0 1.96-.326 1.96 2.5 0 .544.108 1.088.108 1.305 0 .218-.109.11-.109.653 0 .435.218 1.413-.326 1.848-.871.761-3.048.217-3.81.109-.762-.11-14.584 0-15.672 0-.11-.544-.218-.218-.218-.653 0-.543.218.218 0-1.522-.109-1.413.218-3.261.218-3.805h16.108v-.109zm26.23 6.197c-.98 0-.871-1.304-.871-1.848l.109-2.283c0-.87-.218-1.957.544-2.066l2.285-.108c1.742 0 1.415-.11 2.395.543 0 1.414.109 4.349-.109 5.436-.87.435-.653.109-1.633.109l-2.72.217zm20.57-6.523c1.306-.652 2.939.109 3.7.109h16.217v5.762l-7.4.109c-.545 0-.763 0-1.198.108-.326 0-1.197-.108-1.959-.108-1.85.217-.653 0-1.96 0-1.414 0-3.155 0-4.461.326-.871.217-.436 0-1.198 0s-.762.217-1.632-.109c-.218-1.087-.11-4.675-.11-6.197zm5.768 7.937c0-.979.545-.653 1.198-.653h6.748c.544.11.217.218.87.11l3.81.108c.761 0 1.306-.435 1.523.326-1.088.544-8.924 0-10.557.326-.435.109-2.068.109-2.503 0-.544-.217.217-.217-1.089-.217zm-54.745.217c-.762.218-.327.109-1.089-.109h-3.7c-.544 0-.544.11-1.088.11h-7.836c-.327 0-.327-.11-.327-.544.326 0 .762-.11 1.197-.218.435 0 .544.109 1.088.109.545 0 .436-.109.871-.109l5.442.109c.544 0 .544-.109.87-.109.327 0 .327.109.871.109.871 0 2.286-.326 3.7 0v.652zm6.204-.326c1.632 0 3.156-.326 3.156.544 0 .87-1.415.543-2.177.543-1.306-.109-1.741-1.087-.98-1.087zm16.325.109c.871-.544.653-.109 1.524-.109h.98c.761 0 1.414-.435 2.067.544l-.326.543-1.85-.109c-.871-.217-2.395.327-2.395-.87zm18.176.76h-1.741c-.98.11-3.374.11-4.68.11-.218-.218-.327-.327-.327-.762.544-.434.871-.434 1.85-.326h4.463c.98 0 1.85-.217 1.85.326 0 .87-.544.653-1.415.653zm4.68-.76c.653-.326 3.374-.544 3.374.217 0 .544-2.285.87-3.374.326v-.543zm-33.086.217c0-.652 2.067-.435 2.503-.435.87.109 1.197-.108 1.524-.108l3.265.108c.435 0 .87-.108.87.435 0 .652-.87.435-1.523.544-2.068.217-2.068 0-2.721 0-.11 0-.327.108-.653.108l-.98-.108c-.98 0-2.285.435-2.285-.544zm19.482-.543c.98 1.413 0 1.087-2.177 1.087-.544 0-.98.108-1.306.108-.544 0-.544-.217-.762-.652.653-.87 1.959-.543 4.245-.543zm-20.789 1.087c-.544 0-.435 0-.761-.109.108-.217 0-.435.435-.326.326 0 .326.109.326.435zm32.87 0c-.218-.109-.218 0-.327-.109 0-.217.109-.217.327-.217v.326zm11.319.978c.217-.217.435-.326.87-.326l2.286.109c.87.109 2.939-.435 4.245.217 0 .979-.218.653-.218 1.196 0 1.087.435 2.392.109 4.675-.109.87.218.435 0 2.5v6.85c0 .978.109 1.522.109 2.61l.109 9.784c0 .544-.11.87-.11 1.63v50.881h-.326v.761c-.653-.108-.435-.326-1.415-.652-.762-.217-4.244.218-5.877-.109-.218-2.174-.218-.543 0-2.826 0-.544-.218-.87 0-2.936v-3.37c0-1.413-.109-1.522-.109-2.066 0-.543.109-.76.109-.978 0-.326-.109-.326-.109-.87v-2.066c0-1.522.109-1.522.109-2.391 0-.435-.109-.979-.109-1.196 0-.218.109-.653.109-1.088V47.293c0-1.74-.218-1.74.762-1.74l2.394-.108c.98 0 1.415 0 1.96-.326 0-.544 0-.979.108-1.414.11-.76.11-.435.11-1.196v-5.762c0-.543.108-1.087.108-1.413 0-.326-.218-.761-.218-1.087 0-.87.98-2.501-1.415-2.501h-3.374c-.762-1.196-.544-.87-.326-1.957l.109-1.63c0-.653-.11-.11-.11-.762l.11-7.066c0-.762.109-1.088.109-1.631 0-.435-.11-.979-.11-1.631v-2.827zm-11.428 8.807c0-1.414 1.197-2.066 1.741-2.936l4.68-5.87c.218-.327.218-.327.544-.653.436-.435.871-.652.98-1.305.87 0 .544.326.87.87.218.544 0 .109.871.761 0 1.522-.217 1.305-.217 1.848 0 .544.108.653.108 1.196-.108.653 0 .435 0 1.196 0 .979-.326.87-.217 1.74l.217 7.175c0 .544-.108.652-.108.979 0 .543.108.217.108 1.413v1.305c-.108.87-.435.76-1.414.76h-10.122c0-1.087.87-.76 1.415-2.065.108-.435.435-.761.435-1.305.218-1.304 0-.76 0-1.522V23.05h.109zm-35.808-8.372c1.197-.435 1.197.218 1.197.87 0 .87-1.197.435-1.197-.87zm14.584.761c0-1.196.871-.76 1.524-.76 1.306 0 3.156-.653 2.721.869-.762 0-1.088-.109-1.524.326-.653.652-.653 1.413 0 2.174.653.761.327.761.11 1.522-.11.327 0 3.588-1.96 3.153-1.633-.326-.87-1.848-.87-1.957 0-.652-.218-.978-.11-1.522.327-1.522.11-.326.11-1.413v-2.392zm22.965-.76c.327-.11.544-.11.98-.11.108.327.108.327.108.653 0 .217-1.632 1.63-1.088-.544zm-34.066.869c-.218 1.957-.109.76 0 2.392 0 .543-.109.652-.109 1.087-1.306-.109-.762-1.848-.87-3.37-.11-.653-.218-.327.108-.979.435 0 .98 0 .87.87zm17.632 3.044c0-.217.98-1.413.98-1.413-.11-1.088-.327-.87-.763-1.522-.653 0-1.632.217-1.632-.544 0-.652.98-.652 1.632-.544 1.415.218 3.374-1.087 2.939 2.175l-.109 2.935c0 1.414.327 1.957-.218 3.153-.87.218-.762 0-1.741 0l-.327-.978c-.435-.761-.761-2.392-.761-3.262zm5.224-3.914c1.524 0 3.374.109 4.68-.109.544-.108 1.741-.108 2.394 0 1.415 0 .98 1.631.98 4.023 0 .761-.327.978-.327 1.413 0 .11.327.544.327.87 0 .109-.327.544-.327.979 0 1.087.762.108.762 3.587 0 .979.109 1.522-1.088 1.631-.436 0-.653-.109-.87-.109-.98-.108-1.96.11-3.048 0l-3.374.11c-.218-.327-.436-.544-.327-1.197.218-1.413-.218-.87 0-2.826v-5.871c-.109-1.414-.435-1.196.218-2.5zm8.925.761c0-.435.217-.652.326-.87.98.544.544.979.544 1.957 0 .761.327 0-.109 1.305-.217.87.11.652-.435 1.087-.435-.326-.326-.326-.326-1.522v-1.957zm-28.734-.543c.436 0 .653-.11 1.306-.11s.11.11.762.11c1.197-.11 2.721-.218 3.918 0 .545 1.087.218 2.391.218 3.696l.109 5.87c.109 2.501.435 2.61-2.068 2.61l-5.55.109c-1.09-.218-1.307-.435-1.307-1.522 0-1.414-.109-1.522.436-2.718.435-.761.326-2.392.326-3.48l-.109-2.826c0-.544 0-1.087.109-1.413.435-1.087 1.306-.326 1.85-.326zm-22.203-.761c2.286 0 4.136-.11 6.422-.11.435 0 .326.327.98.327l.108 16.308c0 .217-.109.435-.109.87-.762 0-.544.217-1.088.217l-1.85-.109c-.436 0-.436.109-.98.109-.653 0 .436-.217-1.197.109-.327 1.63.218 2.174.109 2.935 0 .653-.218 1.087-.218 1.848 0 1.631.218.435 0 2.175v5.98c.87.543.762.652 2.395.652l2.72.108c0 .544.218.653.11 1.305-.218 1.413 0 1.74 0 2.5 0 .218-.11.11-.11.544v2.827c.11.978.218 2.827.11 3.805-.218 1.74-.11.652 0 2.066v6.305c0 .544-.11.544-.11.87 0 .326.11.326.11.87s-.11.435-.11.87c-.108 1.522 0 11.633 0 13.916 0 .652.11.76.11 1.304-.327 2.066.108 5.98-.11 7.937-.108 1.413 0 .435 0 1.087l-.108 3.044h-6.095c-.871 0-.544 2.066-.544 2.066 0 .326-.11.217-.11.761 0 .435.218 0 0 .978-.108.435-.108.435 0 .87.11.544.11.87-.108 1.305l-.218.326c-.544-2.174-.109-.761-.109-2.392 0-.543-.217-.217-.109-.978v-7.067c0-.761.11-1.087.11-1.957l-.11-17.721c0-14.134-.544-31.529.11-45.771 0-1.087.217.109 0-1.522l.108-3.262c-.218-1.63-.435-4.783-.109-6.305zm13.496 1.956c.218.218.327.435.544.761 1.089 1.631 1.089 1.196 2.286 2.936.762.978.653.652 1.306 1.305.544.543.653.87.653 1.957 0 .652.109.76.109 1.195-.109 1.414-.435 4.458.326 5.545.11.218.11.109.327.435.544.87.98.544.98 1.196 0 .652-1.96.326-2.613.326-1.632 0-7.945.109-8.489 0 0-.544-.109-.544-.109-1.087v-5.436c0-.435.327-.326.327-.761 0-.979-.327-.326-.327-1.087v-.435c-.109-1.522.218 0 .109-1.522-.109-.544.109-.761.109-1.196v-1.414l-.109-3.913c0-.761.544-.87.653-1.088.435-.435 0-.543.653-1.087.653.326.327.109.762.652l.653.653c.327.435.327.435.653.76.327.327.218.436.544.762.218.109.436.217.653.543zm21.877 10.764c0-.653-.11-.326.217-.653.218.11.218 0 .218.327 0 .326-.218.217-.435.326zm-1.306-.435c0-.326.217-.435.544-.544.217.544.217.544.109 1.087-.545.11-.653-.108-.653-.543zm11.645 2.065c.11 0 .218-.217.762-.217.109 0 .653.217.762.217.435.11 1.088-.108 1.741-.108 2.177 0 .218 1.63-.217 1.848-1.306.652-4.027.326-5.116.217h-.544c-1.524.218-1.524 0-2.068.11l-9.686.108c-.871 0-1.306.109-1.96.109l-4.135-.11c-2.177 0-3.483.436-4.68-.76-1.633-1.631.217-1.305 1.415-1.305h4.244c1.524 0 1.198-.109 1.96-.109.652 0 .979.218 1.74.218h3.157c.544 0 .87-.218 1.306 0 .435.326.218.544.653.978.436-.326.327-.326.544-.87.545 0 .327-.108.762-.108.653 0 1.089.217 1.633.109 2.068-.218.217.326 3.156-.327.435-.108 1.197.11 1.85.11l2.286-.11c.218-.108-.109 0 .435 0zm10.449 4.458c.435 1.74-.327 2.283.326 2.935.87.979 1.524 1.305 2.721.87.109 0 .218-.109.436-.109.435-.108 1.306-.87 1.306.435 0 .544-.11.326-.327.761.218.979.218.653-.326 1.522-1.85 0-.762-.652-2.286-.326-.653.109-.98.326-1.306.87-.218.326-.327 1.087-.435 1.74-.436 1.848 1.959 1.848-2.286 1.848h-5.224c-1.306 0-1.415-.218-2.286.326-.653-.435-.544-.218-1.524-.326l-4.353.108c-.653 0-1.088-.108-1.633-.108-.544 0-.109.217-.653 0-.544-.109.11-.218-.544-.218-.87 0-.218.435-1.524.109-1.632-.435-.544-.217-1.306-.761-.326 1.196-1.306.761-2.285.761-1.306 0-6.748-.109-7.51 0-.98.109-2.395.217-3.374 0-.762-.109-.98 0-1.524 0-.435 0-.98-.217-1.415-.109-2.503.326-1.85.109-3.156.109-1.088 0-1.306.217-2.394 0 .108-.978.326-.544.326-2.827l-.98-.76c-2.285-1.958-3.482 1.63-3.7-.11-.109-.87-.109-3.044 0-3.478.544 0 .435 0 .762.326 1.197 1.087 1.306.652 2.177.435 1.306-.327 1.85-1.522 1.85-2.827 0-.326-.653-.87-.109-1.196.327-.109 7.728-.109 8.707-.109l2.503-.108c2.177.108 1.633.108 3.7 0 .436 0 .545.108 1.09.108.87 0 4.135-.108 4.68.109 1.088.435 0 1.196.652 2.718 1.089-.761-.435-1.196.653-2.718h16.761c1.633 0 2.613-.326 3.81 0zm5.877 2.5c0-.326-.435-2.283.762-2.609.87-.217.762 0 1.524.109.544.109.87-.217 1.414-.217 1.524 0 .871 3.261.871 4.24v4.675c.436 3.37-.762 2.174-1.306 2.174-1.959 0-.98.543-3.374 0-.218-.87 0-.87 0-1.848l-.109-.979c0-.326.11-.326.11-.87v-4.674h.108zm-4.571-1.195c0-.435.762-.979 1.088-.979.327 0 1.089.544 1.089.979 0 .652-1.307 1.957-1.96.87l-.217-.87zm-46.8-.544c1.197 0 1.088-.109 1.632.326 0 .544-.109 1.414-.762 1.522-.653.109-.762-.326-1.197-.543v-.979l.326-.326zm-7.51.326c0-.87.217-1.087 1.088-1.087 1.85 0 2.612-.217 3.483.326 0 .544 0 .979.109 1.413.109.544-.11.544-.11 1.196 0 .653.11.87.11 1.305 0 .544-.11.544-.11 1.087v5.001c0 .544-.108.653-.435.761l-.87.11c-3.918 0-3.265.76-3.265-4.024 0-.434.108-.434.108-.76 0-.544-.217-.98-.108-1.849.108-1.304 0-2.283 0-3.479zm7.074 7.72c0-.653.218-.762.544-1.088.544 0 .98-.109 1.306.326 1.198 1.522-1.85 2.718-1.85.761zm47.453-.11c0-1.522 2.613-1.739 2.613-.108 0 2.065-2.613 1.63-2.613.109zm-27.862 3.045h3.7c.871 0 1.089.217 1.089 1.087.653-.109.653-.435.653-.979.544 0 .435-.108.87-.108.218 0 .327.108.762.108.762 0 .762-.217 1.415-.108.544.108.98.108 1.524.108.218 1.088 0 1.522.109 2.718s.109 1.74 0 2.936v2.392c0 .217.109.108.109.543V67.19c0 1.304-.11.76 0 2.283.109 1.63-.11 3.153-.11 4.892v2.392c0 .76.219 1.196.11 1.74-.11.76-.11.652 0 1.521.217 1.305 0 9.024 0 10.655v5.001c-.11.544 0 1.087 0 1.74v3.37c.109 1.196-.11 2.066-.11 3.37 0 .761.219 1.087.11 1.848 0 .653-.11 1.088-.11 1.849l.11 2.718c0 .434-.11.543-.11 1.087v3.479c-.217 2.5 0 9.023 0 11.741v11.742c0 .544.11.326.11.761s-.11.979-.11 1.631v28.158c0 .435.11.326.11.544 0 .217-.11.109-.11.543v67.406c-.652 0-1.305 0-1.414.762 1.741 0 .87 1.63.98 2.718.108 1.087 0 1.195 0 1.739v5.653c0 .653.108.87.108 1.196 0 .326-.108.653-.108 1.196 0 .761.217.544 0 1.196-1.089.218-1.089.109-2.068.109-1.306 0-2.83.543-2.721-1.305.217-2.174.108-7.501.108-7.828.218-1.413-.326-3.044.11-4.566.435-.217.979-.108.979-.652 0-.652-1.415 0-1.089-1.305-.108-3.587.762-15.33 0-16.96-.98 0-.435 1.522-.544 2.066l-.109 14.35-.108 1.523c-.545 0-.98 0-1.415.326.217.87.762.217 1.523.652.327.761.11 5.654.11 6.958 0 1.196.108 2.066.108 3.37 0 1.305 0 2.066-.218 3.262-.435.109-1.414.326-1.959.218-1.088-.218-1.741.326-2.83-.327 0-.652.327-1.413.218-1.957 0-.326-.109-.326-.109-.87l-.108-9.675c0-.653 0-.979.544-1.196 0-.87-.11-.544-.544-1.087 0-34.03.217-68.276.217-102.631V44.683h.218zm11.32.76c0-.87 1.74-.652 2.611-.652 1.96 0 1.85.218 2.721-.326.98.653 1.742.218 3.483.218.653 0 .762.108 1.415.108.87 0 3.156-.108 3.7 0 .545.218.871.435 1.633.544 1.197.217 3.156-.326 4.136.109l.217 4.566c0 .326 0 .217-.108.543-1.524.327-3.483 0-5.225.218-.98.109-.544-.326-2.285 0-.762.109-1.524-.109-2.395-.109l-3.374.109c-.544 0-.653.109-.98.326-1.523-.76-3.482-.109-5.332-.544 0-.434-.11-.434-.11-.87v-4.24h-.108zm-27.21-.325c.435 0 .761-.327 1.306-.327l1.523-.108s.11.108.218.217c.435.435 0 .326.435.326 1.306 0 .545-.217 1.306-.326 1.198-.217 5.116.109 5.225.109.435 0 .326-.218.98-.109l2.176.109c.435 0 1.85-.544 1.85.76v4.567c0 .435-.109.109-.217.652h-19.591c0-.543-.218-.652-.218-1.087 0-.652.218-.87.218-1.63v-3.045h4.789v-.108zm27.427 7.501c.98 0 2.612.109 3.483 0 2.72-.435 1.959 0 2.938 0h7.619c1.088.109 3.81-.326 5.442 0 .326 1.196.109 2.718.109 4.023 0 2.174-.327 4.566-.11 6.74.11 1.631 0 .653 0 1.522 0 .435.11.218.11.761.108.979-.11 1.74-.11 2.284-1.414 0-8.38-.11-9.36.108-2.176.326-3.156-.326-4.353 0-.544.109-.109.109-.653 0-1.197-.108-4.789.218-5.115-.108-.327-.653-.11-6.415-.11-7.72 0-1.304-.217-6.958.11-7.61zM302.46 67.297c0 .435-.11.109-.218.653H282.87c0-.544-.109-.435-.109-.979v-5.11c0-.76-.109-1.087-.109-1.848 0-1.087-.109-3.044 0-4.131.109-.544.218-1.087 0-1.848-.217-1.414.109-.653.218-1.631 1.85 0 .544.217 2.394 0h16.87l.109.326v.109l.218.217c.326.326 0 12.503 0 14.242zm-32.87-10.654c.11-.326.218-.761.327-.979l.762-1.848c.109-.326.109-.652.544-.652.87 0 .11 2.174.11 2.609V66.21c0 2.5-1.416 1.848-4.028 1.848-1.959 0-1.741.218-2.72-.543l5.006-10.872zm76.296-5.001l2.177 4.892c.326.652.435.652.87 1.63.11.218.654 1.74-.217 1.74h-2.83v-8.262zm0 9.567l3.81.109 1.632 1.413c.326 1.196.109 4.566.109 5.98 0 .435-.109.76-.544.76-1.198 0-3.919.11-5.007-.108v-8.154zm-63.017 8.48h.218c0 .326.108.761.108.761 0 .435-.108.326-.326.326V69.69zm.218 1.74v.543c-.436-.217-.218.109-.218-.543h.218zm31.89 96.542c0-.76.217-1.413.108-1.957-.109-1.087-.109-5-.109-6.305 0-.87-.109-1.087-.109-1.957l.11-48.598c0-.543 0-.87.108-1.304.109-.544-.109-.544-.109-1.196l.109-1.957c0-.653-.109-.326-.109-1.631v-3.262V71.32v-1.087c0-.544.109-.435.109-.979h4.789c.544 0 .544-.108.87-.108.327 0 .327.108.871.108h11.428c0 .653.109.653.109 1.414l-.109 2.826c0 1.087.109 1.74.109 2.718v5.762c0 1.957-.109 3.588-.109 5.654v10.219c0 .653.109.87.109 1.196 0 .435-.109.653-.109 1.196l.109 1.631c0 .435-.109.544-.109 1.087 0 1.74.109 3.153.109 4.893 0 .978-.109 1.413-.109 2.391l.109 1.74c0 .217-.109.109-.109.544v28.593c0 .435.109.326.109.543 0 .218-.109.109-.109.544v9.458c0 .435.109.218.109.653 0 .543-.109.76-.109 1.522 0 .652.109-.109.109.435 0 .217-.109.108-.109.543 0 .87.218-.108 0 1.414v10.872c0 4.022-.217 8.48 0 12.502 0 .544.109.761.109 1.522v43.923c-2.068 0-1.088 1.74-1.088 3.588v1.522c0 1.63 0 1.087-.545 1.848h-2.176c-1.198 0-1.415.326-1.415-1.305v-.326c-.109-1.087 0-2.283 0-3.37-.436-.217-.544-.544-1.197-.544-2.177.11-1.633.218-1.633 3.48 0 2.5-6.421 1.848-7.945 1.848-.87 0-.98-.11-1.85-.11-.218-.325-.218-.76-.327-1.304l-.109-2.718c.327-19.134.11-40.987.11-59.687zm-32.108-93.39c0 .653.109.544-.218.87-.109-.326-.109-.326-.109-.652-.108-.218.11-.218.327-.218zm1.524-4.674c0-.435.108-.435.108-.87h17.741c0 .76.218.652.218 1.74-.327 41.204-.218 113.937-.327 158.838-.217 1.848-.217 1.196-1.85 1.414-.762.108-.87 0-1.415-.11-.435-.108-1.306.218-2.72.11-.654-.11-.98.108-1.307.108l-2.72-.217c-.11-.652 0-.87 0-1.413 0-.218-.11-.435-.11-.87 0-.544.436-.653 0-1.631-.326-.761-1.85-.544-2.72-.544-.654.87-.218 1.522-.218 2.5 0 .327-.11.436-.11.98 0 .76.218.978-.108 1.739-.762.217-1.85 0-2.503 0-.436 0-.762.109-1.415 0-.327-1.196-.109-2.935-.109-4.349 0-.435 0-.652-.109-1.087-.109-.761.218-.652-.218-1.305-.653-.978-.326-1.413-.326-2.391 0-.327-.109-.327-.109-.87v-5.654c0-1.087.109-1.848.109-3.044 0-2.065-.109-3.805-.109-5.98 0-1.304.327-3.37.109-4.24-.327-2.609.218-6.414-.109-9.132-.109-.978.327-1.304.218-1.957 0-.435-.218-.326-.11-.978 0-.326.11-.435.11-1.087l-.218-12.83v-6.631c0-1.631.109-.979 0-3.153-.109-1.413.218-2.066.218-2.718 0-.544-.11-.435-.11-.87 0-.217.11-.326.11-.76l-.11-11.199c.219-1.087-.217-2.392 0-3.37.11-.544.219-1.631.11-2.392-.327-2.283.109-6.632-.11-8.698 0-.652 0-.652.11-1.087.109-.543-.11-.76 0-1.087.109-3.153.217-20.222 0-22.505 0-.326.109-.435.109-.978V96.434c.108-.87 0-1.848 0-2.718v-23.81zm67.261.652c2.395 0 1.96-1.305 1.96 3.479l-.11 2.5c0 .979.218 1.631.11 2.501-.11 1.305-.327 3.588-.11 5.11.218 1.522.11 3.479.11 5.218l-.11 15.33c.218 1.63 0 3.261 0 5 0 1.849.11 3.262.11 5.11 0 1.74-.11 3.045-.11 4.784v1.305c0 .544-.108.544-.108.978 0 .544 0 .87.109 1.196.109.979-.11 2.175-.11 2.827 0 .87.11.87 0 1.522-.108.761.11.87.11 1.63 0 .436-.11.327-.11.762-.108.978.11 3.37 0 4.131v17.83c.219 1.196.11 6.306.11 7.937 0 1.413.109 2.392.109 3.914v4.131c0 .978-.11.87-.327 1.74l.109 13.59c-.109.326-.218.543-.218.76-.109 1.088.11 5.763.11 6.85v5.98c.108.652-.11.652-.11 1.195 0 .544.218.544.11 1.196-.219 2.283 0 4.023 0 6.523 0 3.588-.11 6.958-.11 10.763 0 .653.218.11.11.87 0 .326-.11.544-.11.979 0 .543.11.435.11.978.108 1.74-.219 1.522-.219 2.283 0 .544.11.653.11 1.414 0 .543-.218.76-.11 1.304.11.979 0 18.374 0 18.374-.217 1.522 0 1.413 0 1.957-.217 2.065-.217 8.806 0 10.22.218 1.195.11 6.088-.108 7.066-.545 0-.545.109-1.089.109h-5.115c-.762 0-1.742 0-1.742-.544l.11-20.548c.108-1.957-.11-8.48 0-9.676V210.59c0-.652.108-.87.108-1.63v-19.787c0-.435-.109-.218-.109-.544.109-1.63 0-.652-.109-1.63-.108-2.175.11-3.262.11-5.11l-.11-31.42c-.108-.761.11-.544 0-1.305l-.108-6.197c0-1.74 1.523-1.957 1.523-2.935V122.2c-.326-.218-.326-.218-.87-.218 0-1.63-.11-2.827-.11-4.457 0-1.522.11-2.718.11-4.35V91.325c0-.435-.11-.326-.11-.543l.11-1.74c0-.76-.218-2.174-.11-3.479.327-2.392.11-12.285.11-15.003h6.094zm-68.894 14.568c.327.218.218 0 .218.435 0 .652-.11.87 0 1.74v5.98c0 2.174.435 2.282-.218 2.5 0-1.196.109-2.718 0-3.914 0-.544-.109-.218 0-.761.109-.653-.109-2.283-.109-3.48l.109-2.5zm51.48 6.415c-.217-.544-.108-1.631-.108-2.392 0-.652-.545-1.63.544-1.74.217.979 0 .761 0 1.631-.11.761.544 2.283-.436 2.5zm-.108 1.522c0-.218 0-.218.108-.326.653.217.762.652 0 .87-.108-.436-.108.108-.108-.544zm9.795 3.37v3.914c0 .978-.218 1.522-.218 2.392h-.217c0-.435-.218-.653-.218-.87 0-.326.109-.435.109-.978v-3.153c0-.761-.436-1.849.544-2.066-.109.217 0 .326 0 .761zm-8.272-.652h6.313c0 .652.218.87.109 1.522-.11 1.196-.218 17.721-.11 19.243.11.87.219 2.175.11 3.262 0 .543-.11.87-.11 1.63v17.722c0 2.392-.108 4.24-.108 6.632v18.156c0 .76.109.87.109 1.522.109 4.349 0 8.915 0 13.372 0 8.698-.109 17.83 0 26.528 0 .76.109.652-.218 1.196-.109.108-.109.108-.109.217l-2.72 3.044c-1.307 1.088-.436.435-1.198 1.305-2.612 2.827-1.959 1.196-1.959-.87 0-.652-.109-.652-.109-1.413V166.449c0-1.413.11-1.848.11-2.5 0-.544.108-.87.108-1.087 0-.327-.109-.544-.109-1.088 0-.543.109-.543.109-.978 0-.326-.109-.435-.109-.979l.109-1.74c0-.217-.109-.434-.109-.76 0-.435.109-.218.109-.761l-.218-16.2V95.783zm-52.568 8.262h-.218v-.326h.218v.326zm-.436 1.849c0-.544.109-.653.544-.761.11.326.11-.11.11.326 0 .652.108.87-.11 1.196-.653.108-.544.108-.544-.761zm60.95 45.118h-.327c-.109-.435 0-.76-.109-1.304-.109-1.088.109-7.937-.109-8.807-.109-.87 0-.652 0-1.304 0-.544-.109-.218-.109-.87.218-1.74.11-8.045.11-10.22 0-.652-.11-1.087-.11-1.848 0-.87.11-1.196.11-1.848.108-3.914-.218-7.284.108-11.198.109-1.414-.218-.653 0-2.718v-2.827c0-.87-.326-4.349.327-4.892 0 .543.108.435.108.978v3.153c0 .761.11 1.087.11 1.957l-.11 9.241c0 .761.11 1.087.11 1.74.108 3.044-.218 10.545 0 12.611.326 2.174-.218 2.5-.11 3.262v9.458c0 .761.218 1.414.11 1.957 0 1.305.435 1.196-.11 3.48zM275.794 96c.545 0 .545-.109.871-.109.327 0 .327.11.87.11h1.633c1.306.108 2.395-.327 2.504.434l.109 11.416c0 .434-.11.108 0 .76.108 1.088 0 5.763 0 6.524-.11.978 0 2.718 0 3.805v50.01c0 4.132.108 9.46 0 13.482 0 .652-.11.979-.11 1.74l.11 18.808c0 1.087.217 2.61-.218 3.588v.108c-.218.653.109 1.196.109 1.849 0 .543-.218 1.196-.218 1.63 0 .11.109.544.109.762 0 .326-.109.326-.109.652s.435 1.087-.327 1.087c-.326 0-.761-.652-1.306-1.087-.108-.109-.217-.218-.326-.435-.544-.544-4.354-4.24-4.354-5.001l.11-33.268c0-1.196-.218-2.283 0-3.153.108-.761 0-2.61 0-3.48v-1.521c0-.544-.11-.761-.11-1.522v-18.591c.327-2.827.11-6.415.11-9.35v-6.415c0-.434-.11-.652-.11-.87 0-.543.11-.217 0-1.63l.11-30.55h.543v.217zm-2.068 5.545c.11-.218.11-.109.11-.218l.217 2.827v3.153c0 .652.109 4.892-.109 5.436-.326-.109-.109 0-.326-.217-.218-.327 0-.544-.11-1.196l-.108-6.741.326-3.044zm-.326 15.547c-.109-1.087-.218-1.196.218-2.392.217-.761 0-.326 0-.979 0-.217.217-.217.326-.217 0 1.196.109 1.196.109 1.63 0 .544-.109.436-.109.762 0 .109.109.326.109.652 0 1.63-.218 1.087 0 2.5v4.132c0 .544-.109.761-.109 1.087 0 .435.218.544.218.979 0 0-.218.435-.218.652h-.326c0-.544-.11-.217-.11-.761 0-.435.11-.435.11-.761 0-.435-.11-.979-.11-1.63l-.108-5.654zm-9.687 150.032c-.544 0-.217-.978-.217-1.195v-1.414c0-3.479.109-8.045-.11-11.198v-4.892c0-.653.11-.761.11-1.522 0-1.522-.11-7.176 0-8.046.109-.543.109-.978.109-1.522v-.87-.543c.108-1.957 0-4.458 0-6.523V125.57c0-4.349.108-8.372.108-12.829 0-13.916.11-28.376 0-42.183 0-1.957-.108-1.087 5.007-1.196.544 0 .87-.217 1.415-.109.544.109.87.109 1.524.109v51.968c-.653 0-.545 0-1.198.543v17.83c0 .435.11.11.218.653.544 0 .544 0 .87.108v96.978c-.652 0-.761 0-1.088.761.11.109.11.109.218.326.653.979.109 1.305.327 3.044.217 1.522.108 5.763.108 7.61 0 1.414.11 2.284.11 3.697v7.72c0 .869.108 1.195.108 1.848 0 .652 0 2.283-.109 2.826-.109.544-.109.326-.109.761.11.326.218.435.11.761-.11.326-.218.218-.218.653 0 2.065.217 1.63.217 1.957 0 .217-.217.434-.217.652-.327.76 0 0 0 .652s-.11-.109-.11.435l.11 6.85c0 .543-.11.543-.11.87 0 .543.654 1.195-1.197 1.304-1.306 0-.326.108-1.414-.109 0-.326-.11-.978-.327-1.196-.218-.326-.435-.435-.544-.978-.109-.653 0-2.066 0-2.827 0-.544-.218-.761-.109-1.305.109-.435.109-.652.109-1.304 0-1.631.653-4.35-.87-5.436-1.09-1.087-2.504.108-2.83.108zm9.687-123.396c-.109-1.413.326-5.219.218-5.653-.218-1.196-.11-7.067-.11-8.59 0-.543.218-.543.218-.869 0-.217-.108-.217-.217-.544-.327-1.087-.109-1.087 0-1.74.762.544.109 1.74.326 2.719.436 2.718.218 5.762.218 8.589 0 1.848.218 1.74-.109 3.044-.109.326.109 2.61.109 3.261 0 2.827-.109 5.763.109 8.59 0 .652-.109.76-.109 1.521 0 .653.218.761.109 1.522-.109.544-.218.653-.218 1.414v.978c0 .326-.109.544 0 .87.218 2.174.109 4.784 0 7.067 0 .435.109.108.109.652 0 .761-.218.761-.109 1.413.218 1.305-.218.979 0 2.936v2.5c0 1.631-.109 1.196-.109 2.283 0 .979.218 1.305.11 2.284 0 .543-.219 1.63-.219 2.174 0 .326.11 1.522.11 2.174v5.98c.217 2.174.108.544 0 2.174-.11 2.066 0 4.675.108 6.74v8.264c0 1.63.436 3.696-.762 3.696 0-.761.11-.87.11-1.63l-.11-10.112c0-.652.11-.87.11-1.304 0-.544-.11.108-.11-.544l.218-1.74c0-.652-.218-.434 0-1.304l-.109-2.61c-.218-3.043-.109-6.414-.109-9.458 0-.652-.109-.76-.109-1.196-.108-1.304-.108-4.131.218-5.327.109-.544-.218-.435-.218-1.087 0-4.24.218-1.957.436-3.153.109-.435-.109-.435-.109-.979 0-.652.109-.434.109-.978 0-.217-.109-.544-.109-.87 0-.109.109-.543 0-.978-.218-1.957-.109-3.48-.109-5.545l-.109-4.349c.11-.76.327-.87.218-2.065-.218-1.74 0-1.74-.109-3.045v-1.087l-.109-3.479c.436-1.74.327-1.63.218-2.609zm69.656 10.002c0-.652.11-1.087.327-1.522.762.435.435.761.326 1.63 0 .544 0 .762.11.98.217 1.413-.219 1.521-.219 2.174 0 1.196.218 0 0 2.392l.11 1.957c0 .434-.218 1.413-.11 2.5 0 .435.11.652.11 1.305 0 .652-.11.652-.11 1.196v.543c-.108 1.196.11 1.087.11 1.957 0 2.5-.11 7.937 0 9.676.326 3.805-.218 3.588-.218 4.349l.108 9.676c-.108.978-.108 1.848-.108 2.935 0 1.74.326 9.894.217 10.872-.217 1.522.327 1.196-.326 1.631-.544-.435-.218-.435-.218-.978 0-2.392.109-3.806-.109-6.089v-2.391c.218-3.37 0-3.153 0-5.871v-8.154c0-.435.11-.653.218-.979.218-.978-.109-1.957 0-3.153 0-.434-.109-.543-.109-.978-.109-1.305 0-7.61 0-9.567 0-.544-.109-.761-.109-1.088 0-.326.11-.434.11-.978v-5.219c0-2.065-.219-3.696-.11-6.088 0-.652.218-.76.11-1.413 0-.435-.11-.544-.11-1.305zm-7.4 61.861c0-.76.87-1.522 1.305-1.956.436-.435.327-.435.762-.87l2.286-2.283c.653-.979.87-1.414 1.741-1.414v.979c0 2.718.218 5 .218 7.719v19.787h-6.313V215.59zm-60.297-.978l-.109-3.588c0-.435.11-.108.11-.652 0-.218-.436-1.63.76-.761 1.09.87.436.435 1.09 1.087.435.544.544.435.761.652.218.218.327.435.653.761.436.435.87.653 1.524 1.305.653.652.435.979 1.415 1.522 0 .761.109 1.087.109 1.63 0 .11-.11.653-.11.762 0 .326.11.326.11.87l-.11 18.047c0 .326.11.326.11.652 0 .11-.11.327-.11.653-.652 0-.108.108-.652.217l-4.136.109c-.762 0-.87-.218-1.415-.326 0-1.631-.109-12.286.109-13.59.109-.544-.109-.979-.109-1.74l.109-2.391c0-.327-.109-.435-.109-.979v-3.588c-.218-.435 0-.217 0-.652zm67.588 2.718c0-1.74.218-3.044 0-4.675l.11-2.174c.326-1.631-.11-1.631.652-1.74l.11 1.522c0 2.175-.763-.435-.327 5.327.108 1.196 0 2.827 0 4.023 0 1.305.108 2.283.108 3.697v5.98c0 .651.11.978.11 1.739v5.87c-.11.87-.763.653-.763-.108v-4.458c0-.217.11-1.63 0-2.392-.217-1.63.11-.978 0-1.848-.108-.652 0-.326 0-.87.11-.76 0-1.522-.108-1.957l.108-7.936zm-69.547-6.958c0-.218 0-.218.109-.326.435.108.326 0 .435.435.109.435.109 6.305 0 7.066-.109.761 0 4.023 0 5.545l.109 12.068c0 .652-.109.87-.109 1.413 0 .218.109.87-.435.87s-.327-.87-.327-2.392c0-.543.218-.435.218-.978 0-.435-.109-.435-.109-.761 0-.109.109-.326.109-.653 0-1.087-.109-2.5 0-3.479 0-.434-.109-.978-.109-1.63l.109-2.827c0-.326-.109-.435-.109-.979v-4.348c0-.435.109-.653.109-1.305 0-.652-.109-.652-.109-1.196l.109-6.523zm9.904 17.069c-.109-.435-.109-.435-.109-.979.762.218.327.653.11.979zm49.848-.87c0-.217 0-.326.109-.543.98-.11.544.652.218 1.739l-.327-1.196zm-42.882 1.305c.544-.218.87.108.87.76 0 1.088-.435.98-.87.87v-1.63zm35.699.543c0-.326.109-.326.109-.652h.326c.109.435.218 1.087 0 1.522-.326 0-.435.218-.435-.87zm-42.338 2.61c0 .652.109.543-.218.87-.109-.327-.109-.327-.109-.653-.109-.109.11-.109.327-.217zm49.739.543c.326.218.435.87 0 1.087-.327.11-.871 0-.871-.543 0-.326 0-.761.87-.544zm-7.184 5.98c-.326-.653-.108-2.61-.108-3.48 0-1.521-.545-2.717.326-2.826.218.544.109 1.63.109 2.392 0 .652.109.543.109 1.087 0 1.63.435 2.61-.436 2.827zm-34.392-4.893c0-.326.108-.326.326-.326h9.904c0 .653.11.761.11 1.305l-.11 4.022c-.544 0-.326.11-.761.11-.436 0 .217-.11-.327-.11l-6.313.11c-1.088 0-1.741-.11-2.83-.11v-5zm-1.089 4.893c-.87-.109-.544-.544-.544-1.087 0-.327-.109-.327-.109-.87 0-.326.109-.218.109-.761 0-.979-.218-2.827.109-3.588.762 0 .435.217.544 1.087.544 2.827-.435 1.087-.109 2.936.11.652 0 .652 0 .978 0 .652.327.109 0 1.305zm-7.4-3.044c-.218-.544-.327-1.414 0-1.957.326.108.108 0 .326.217.109.218.109.109.109.435 0 1.087.108 1.087-.436 1.305zm40.705-2.283c.108 0 .326.217.98.217.217.978.108 1.522.108 2.61 0 .869-.109 1.413 0 2.391-1.633.761-8.598.217-10.23.217-.327-.76-.218-4.674.217-5.327 2.939-.108 6.204-.108 8.925-.108zm-35.046 3.805c0 .978.435.76-.218 1.74-.762 0-1.197.108-1.741 0-2.395-.544-1.197-.436-1.197-1.305 0-.544-.11.108-.11-.327 0-.434.11.218.11-.326 0-.652-.11-.87-.11-1.304 0-.435.11-.653.11-1.305.761-.326 1.523-.217 2.503-.217 1.306 0 .653 2.174.653 3.044zm-5.66 1.413c-.217-.435-.109-.761-.109-1.305 0-.652-.217-.543.11-1.195.435.326.326 1.195.217 1.848 0 .652.218.326-.218.652zm44.624-4.24c.217-.217.435-.326.87-.326 2.286 0 2.504-.218 2.504.87v2.5c-.11 1.413.217.979-.327 1.63-1.632 0-3.047.218-3.047-.325v-4.349zm5.115 1.522c0-.544.109-.652.544-.761.218.326.11-.109.11.326 0 .87.108 1.631-.327 1.957-.327-.76-.327.435-.327-1.522zm0 11.85l-.109-4.348c0-.761.218-.87.218-2.392 0-.652-.435-1.196.218-1.196.544 0 .217 3.37.217 4.457 0 1.088-.108 1.523-.108 1.849 0 .543.108.435.108.87.11.76.11 3.587-.108 4.022-.871 0-.545-.544-.545-1.522.11-.652 0-1.087.11-1.74zm-49.848-7.392c0-.327 0-.218.218-.327.218.11.218 0 .218.327v1.304c-.11.544-.11.979-.11 1.522h-.217c0-1.087-.109-1.74-.109-2.826zm2.286.217c0-1.196 1.306-.761 1.524-.761.544 0 2.068-.435 2.068.435 0 5.327.326 4.457-1.524 4.349-1.415-.11-1.85.543-1.96-.979l-.108-3.044zm57.249 7.61c0-.543.217-.543.217-.87 0-.108-.217-.217-.217-.652 0-.217.109-.217.109-.652 0-.544-.11-.652-.11-.979.11-.652.218.218.218-2.391 0-.761-.108-1.196-.108-1.74-.11-.87 0-1.196.653-1.196.217.87.217 2.5.217 3.588 0 1.522-.326.87-.326 1.522 0 .87.326.435.326 1.196 0 .87-.435.326-.435 1.848v2.5c0 2.719.218 3.045 0 5.98 0 .544.109.761.109 1.087 0 .435-.109.544-.109 1.088 0 1.413.109 2.609.109 3.587v2.501c0 .544-.109.435-.109.87 0 .326.109.326.109.87 0 .652-.109-.11-.109.434 0 0 .109.327.109.435 0 2.61-.109 1.957-.218 3.153-.109 1.413.109 2.283.109 3.153l-.109 7.284c0 1.63.218 2.5.109 3.914 0 .979-.218.761-.544.761-.436-.87-.218-11.633-.218-13.264 0-.435.109-.435.109-.76 0-.11-.109-.327-.109-.653 0-1.957.218-3.262.218-5.11v-2.5c0-.87-.11-1.414-.11-2.392l.11-8.263v-4.349zm-69.548 21.418c.218-1.74.218-5.11 0-6.74l.218-5.002c0-.435-.109-.435-.109-.76l.109-4.35c0-.978-.109-1.522-.109-2.609v-1.413c0-.652.109-.652.109-1.196 0-.652-.109-.761-.109-1.196 0-.326.109-.543.109-1.087l-.109-4.349c0-.652 0-.76.544-.87l.327 3.37c0 .327-.218.653-.218.98.109 1.63-.218 7.392 0 8.588.218 2.174-.109 1.522 0 3.044 0 .652.218 1.305.109 2.066-.218 2.065 0 2.392 0 2.827 0 .326-.109.326-.109.87v4.022c0 1.74-.218.978-.218 1.74v1.848c0 .543.11.543.11.87 0 .326-.11.217-.11.76 0 .653.11.761.11 1.414 0 .652-.218.326-.11 1.196.11.76.11 4.566.11 5.544 0 1.631.217 1.849-.218 2.283-.545-.326-.436-1.413-.436-2.065v-.653c-.217-1.522.11-.543 0-1.522 0-.434-.109-.217-.109-.76-.108-.762 0-1.958.11-2.61.108-.543.217-.435.108-.87-.218-.978 0-1.087 0-2.283 0-.76-.218-.543-.109-1.087zm53.004-29.68c.436 0 .436 0 .436.435l.109 8.371c-.218 1.305.544 1.63-.545 2.283-.326-1.413 0-3.696-.108-5.001-.11-1.413-.11-.217 0-1.74 0-.434-.11-.326-.11-.87l.218-3.478zm1.85-.218c.654-.217 2.504-.217 3.266 0 0 .435.109.435.109.87v3.044c0 .544-.218.652-.545.979-1.197 0-1.523-.218-2.176-.218-.653 0-.871-.326-.871-1.087.109-1.087 0-2.5.218-3.588zm-36.242.109c.544 0 .544-.217 1.088-.217l9.034.108c.217.87.108 1.848.108 2.827 0 1.74.218 1.196-.108 2.5h-10.122v-5.218zm23.073.326c0-.76.871-.326 1.742-.326h4.57c.436 0 .763.109.98.109.436 0 .327-.218.871-.218 2.177 0 1.088.218 1.96.218v5.218h-9.905c-.109-.326-.327-.652-.327-.978v-4.023h.11zm-39.834 0c0-.326.108-.326.326-.326 6.857 0 6.095-.435 6.095 1.196v4.675c-.218 1.522-.109 7.936-.109 10.22 0 .543.109.543.109.87 0 .325-.109.325-.109.869v6.85c0 .869.109 1.413.109 2.391 0 1.522-.327 3.262-.109 4.675v9.459c-.435.108-.544.217-.762.326-.435.108-.326-.109-.98-.109-.543 0-.326.217-.979.109-.435-.109-.435-.218-.98-.218-1.305 0-1.958.218-2.72-.108v-40.879h.109zm15.128 5.219c.109-1.631 0-5.001.218-5.545.435 0 .435.109.544.544 0 .217 0 4.674.109 6.414.109.761-.11.978-.11 1.74 0 1.195-.217 5.98-.108 6.849.218 2.283-.109 1.413-.109 3.044 0 .761.327.217.11 1.413-.11.653.108.87.108 1.522 0 .653-.109.435-.109.979.218 2.283.109 5.653.109 8.045 0 .326 0 .218-.218.326-.326-.217-.217.109-.217-1.196 0-2.065-.327-3.261-.327-3.914 0-.543.109-.543.109-.87 0-.325-.109-.325-.109-.87v-3.696c0-.652.109-.108.327-1.195v-8.372l.217-4.022c-.435-.435-.653-.653-.544-1.196zm-6.966 1.087c-.108-.326-.108-.218-.108-.544 0-.217.108-.217.217-.217.218.217.218-.109.218.76h-.327zm4.354 32.398c-.544 2.283.762.87-.435 2.718-1.089 0-2.395.109-3.266-.217v-7.067c0-.761-.108-1.087-.108-1.74-.11-1.63.217-3.913 0-5l.108-14.025c.436-.11.545-.218.762-.653.544-1.087.11-2.392.436-4.566.108-.544-.11-.761-.11-1.087 0-1.413 1.09-.979 1.198-.979 1.415 0 2.503-.326 2.83.327.326.652 0 1.087.109 1.848.108.978 0 .978 0 2.065 0 .544-.11.544-.11.979.218 1.74.218 7.284-.108 9.024-.762.108-.98.217-1.524.543v11.09l1.415.87c0 .652 0 1.195.109 1.63 0 .326-.109.87-.109 1.414 0 1.956.109 1.522-.98 2.283-.217 0-.108.108-.217.543zm35.481-12.72c-.762-.217-2.286.217-3.047-1.413-.218-.544-.545-.979-.545-1.631v-4.24c0-.652.218-.87-.108-1.305-.327-.435-.762-.326-.653-.978 0-.218.435-.979.544-1.196.653-.979 1.088-.652.326-1.74h-2.612c-1.306 0-1.415.218-2.285-.326 0-.978 0-.326.217-.978.327-1.414 0-5.001.218-5.654 2.068 0 3.81-.108 5.877-.108 4.027 0 4.354-.435 4.136 1.304-.218 2.175.109.87-.109 2.5-.109.98.327.327-.109 1.632v14.46c-.108 1.304-1.632-.218-1.85-.327zm6.748-.544c0-.543-.218-.543-.109-1.195.218-1.414.11-1.088 0-2.175-.109-.87.436-.652-.544-2.066-.87 0-.762.218-1.415-.108l.109-1.087c0-.435-.109.217-.109-.327 0-.543.109-.217.109-.652 0-.217-.109-.109-.109-.544 0-.434.109-.652.109-1.304v-4.784c0-.652-.109-.76-.109-1.196l.109-2.283c0-.435-.109-.543-.109-1.196 0-1.087.87-.652 1.85-.76.98-.11 1.198-.218 2.286 0 0 .869.109 1.304.109 2.065v4.349c.217.543.98.543.98 1.196 0 .87-.436.652-.327 1.304 0 .326.218.761.218 1.305 0 .543-.218.76-.218 1.522 0 .87.218 1.522.109 2.066v3.696c0 .87.217.87.217 1.63 0 .544-.217.544-.217 1.197 0 .652.109-.109.109.435v3.261c-.11.544 0 1.196 0 1.848v3.48c0 .543-.11.217 0 .76 0 .327.108.544.108.762-.108 2.174.11 2.174.11 3.479l-.11 4.892c-.435.326-.435.544-1.197.544-1.741 0-.87.108-2.285-.218 0-.435-.11-.435-.11-.76 0-.11.11-.327.11-.653 0-1.631-.218-3.914 0-5.11.326-1.848-.98-1.196-1.198-2.283-.217-.761-.109-2.827-.109-3.805 0-1.088.98-.761 1.524-1.522.436-.653.11-1.522.11-2.501-.219-1.087 0-2.066 0-3.262zm-46.256-18.482c.218.326.109-.109.109.326 0 .979 0 .653-.218.87-.218-.217-.218.109-.218-.761-.108-.326.11-.326.327-.435zm8.49-.435c.979-.652.435-.217 1.305-.326.327 0 .327-.109.871-.109 2.068.327.87-.326 2.721.11.653.108 1.197 0 2.068 0 3.047 0 3.483-.436 3.265 1.739-.109.652-.109 1.196-.109 1.957 0 2.065.327 2.5-.217 3.37-.545 0-.871 0-1.415.109-.545.108-.653-.11-1.198-.11-.544 0-.653.11-1.306.11-1.523 0-.653 1.196-.217 1.848.326.435.435.978.435 1.522-1.633 1.087-.653.435-.653 3.153v2.174c0 .652-.544 2.936-1.415 3.37-2.177 1.088-2.394-.543-3.374 1.305-.87 0-.87.109-.87-.652v-7.937c.217-2.174 0-.87 0-2.5 0-.761.108-1.087.108-1.74v-7.393zm44.732-6.958c1.415.109 1.523-.108 2.503-.108l2.72.108v45.88c-.652 0-.652.109-1.414.109h-5.007c-.544-1.088-.108-1.305-.108-1.957 0-.653-.218-.327 0-1.088.108-.76.108-1.522.108-2.283 0-1.087.11-1.957 0-3.153-.108-1.522.11-8.262.11-10.545v-9.894c0-.652-.11-.543-.11-1.087v-3.588c0-1.522.11-1.848.11-2.609 0-.544-.11-.978-.11-1.305 0-.326.11-.543.11-1.087v-7.501l1.088.108zm-25.468 15.765c.435 0 .435.108.87.108.327 0 .544-.217.762-.108.327 0 1.306.108 1.633.108 2.394-.108 2.503-.543 3.047.435-.217.326-.109.435-.544.544a2.052 2.052 0 0 1-.87.217c-1.742 0-.871-.217-2.395 0l-3.81-.109c-.761-.108-1.306.218-1.306-.76.871-.544 1.633-.435 2.613-.435zm14.91 15.003c-.435 0-.217-1.848-.217-2.392l-.11-2.392c0-.326.219-.87.219-1.087 0-.217-.11-.652-.11-1.087v-5.11c-.217-1.413.218-.87 0-1.957-.326-1.957 0-1.087 0-2.283 0-.652-.108-1.74.327-2.174 0 .652.11.76.11 1.522V263.753c.217 1.74-.11 1.305 0 2.283.108.544.217 2.718 0 3.262h-.219zm-18.829-15.003c.762 0 2.395 1.413-1.306 1.195h-5.115c-.98 0-1.741.11-1.741-.87 0-.652 2.176-.325 2.285-.325.327 0 .327-.11.87-.11l1.742.11c.327 0 .327-.11.871-.11h2.394v.11zm-8.489 3.152c.435-.217.435-.217.87-.108h8.708c1.415 0 4.244-.218 6.095-.109.435 0 .217 0 .544.109.762.217 1.632-.109 2.612-.109.544.978 0 1.196.218 2.174.217.979.326 1.849-.218 2.61h-4.571c-1.85 0-.544.217-3.156 0-1.307-.11-.871.217-1.524-.327 0-.217.762-1.63.217-2.718-.435 0-.653 0-.653.327 0 2.174.327 2.718-.544 2.826-.109 0-1.306-.108-1.85-.108-.87 0-1.306.108-1.96.108H301.7c-2.286 0-2.395.218-3.156-.326 0-1.74.326-2.827.326-4.349zm-10.122 6.089c-.435 0-.653-.218-.653-.761 0-.218.218-.544.218-.761 0-.435-.11-.327-.11-.87 0-.218 0-.218.11-.544h.326c.218.653.327 2.392.11 2.936zm39.073-2.718c0-.326.109-.326.326-.326.436 0 .436.543.436 1.63 0 .761-.109 1.305-.762 1.305-.109-.87 0-1.413 0-2.61zm-21.332 8.697c-1.306-.217-.653 0-1.524 0-.98.109-3.265.109-4.136-.108 0-.327-.109-.544-.218-.761l-.217-.762c-.218-.76-.436-1.413-.762-2.065-.218-.326-.109-.109-.327-.544-.217-.652-.326-.87-.217-1.413.762 0 1.959-.109 2.612 0 .435.109.653.109 1.197.109l11.102-.11c.544 0 .435.218.87.218.11 0 .436-.108.871-.108 1.415 0 .762-.11 1.306-.11.653 0 .653.327.653.436.109.326-.326.76-.435 1.087-.545.87-.327.761-.653 1.522-.11.326-.218.544-.327.761-.218.652-.109 1.957-1.306 1.957h-5.768c-.545 0-.762-.109-.762-.761v-2.935c0-.762.109-.653-.436-.979-.217.109-.326.217-.326.544 0 .76.109 3.479 0 4.022-.327.109-.435.218-1.197 0zm-7.619-2.392c.327.653.218.761.435 1.305.218.761.436.544 0 1.087-.544-.108-.544-.326-.761-.87-.218-.434-1.85-2.609-1.85-2.935 0-.217.652-1.413 1.305-.326.11.109.327.435.327.544.218.326.109.217.218.652.217.326.217.435.326.543zm18.285 1.849s1.088-4.023 1.85-4.023c.653 0 .218-.109.435.217l.218.218c.544.761.218.761-.326 1.522-.218.326-.436.544-.653.87-.327.435-.327.435-.545.978-.435.87-.98.761-.98.218zm-28.625-3.697c.653.435.327.653.327 1.414 0 .543.326.217-.218.978-.87-.435-.435-.761-.435-1.196l-.109-.652c0-.435.218-.435.435-.544zm39.291 1.414c0-.761-.109-.653.109-1.305.217.109.544.109.544.326 0 .435-.109 1.305-.218 1.63-.435-.108-.435 0-.435-.651zm-35.372 2.826l-.11.109c-.87-.435-.435-.87-.435-1.087 0-.435-.108.217-.108-.326 0-.327.108-.653.544-.653.435 0 .544 1.414.217 1.849l-.108.108c.108-.108 0 0 0 0zm53.004-6.305c.762-.327.544-.327.87-.327h5.007c.435 0 .435.11.87.218v10.22c0 2.717.218 7.284-.326 9.675-.98 0-1.959-2.065-3.7-.76-.871.652-.98.326-1.306 1.413-.218.652-.327.652-.98.652-.435-.76-.218-1.413-.218-2.5 0-.653-.108-.653-.108-1.196 0-1.305.217-3.37.108-4.132-.108-1.087 0-1.413 0-2.5l-.108-5.219c-.218-1.63-.11-3.696-.11-5.544zm-26.013 5.762c0-.218.545-.653.653-.87.762-1.196 1.198-2.174 2.395-1.63 0 2.174.218 2.39-.327 3.152l-1.741-.109c-.327 0-.218.218-.653 0a.598.598 0 0 1-.327-.543zm4.463-.87c0-.544.217-.761.762-.761.109.435.435 2.283-.218 2.283s-.544-.761-.544-1.522zm-29.713-1.522c0-.435.218-.326.653-.326.327 0 2.394 1.848 2.394 3.261-.653.326-.326.218-.979.109-.435 0-.653.109-1.197.109-1.197 0-.871-.761-.871-3.153zm23.074 4.566c.87 0 .762-.217 1.741 0l3.374-.109c.435-.108.327-.217.762-.108.326.108.326.217.653.217.326 0 1.088-.217 1.524.109.217.108.326.326.326.652v.326c-.109 1.087.327 1.631-.98 1.631-1.088 0-2.611.109-3.264 0-1.089-.109-2.504-.109-3.374.109-.871.108-2.395 0-3.374 0-1.306 0-4.898.108-5.987-.109-.108-.978-.326-1.957.11-2.392.108-.109.217-.217.435-.217h5.986c.98-.326 1.088-.109 2.068-.109zm-25.686 2.827c-.435 0-.435-.435-.544-.87-.11-1.957-.653-1.957 1.632-1.957h2.612c1.415 0 1.742-.109 2.504-.109s1.959-.108 2.612 0c.326 0 .762.109 1.306.109 1.85-.217 2.503.217 3.374 0 .762-.109.544.109 1.197.109 1.633-.109 1.633-.544 1.633 2.392-.545.434-.327.326-.98.326h-2.612c-.544.108-.762-.109-1.306-.109s-.435.109-.87.109c-.436 0-.327-.109-.871-.109-1.85-.109-2.504.109-3.701.109h-5.986zm3.047 2.609c.98 0 .98-.109 1.85.109 0 .435-.108.652-.326.978-.109.218-.435.544-.544.653-1.633 1.413-1.415.108-1.306-1.305l.326-.435zm27.972.652c0 .653.109 1.74-.762 1.74-.435 0-1.633-1.74-1.633-1.957 0-.652.98-.326 1.306-.326.545 0 1.089-.109 1.089.543zm1.306-.108c0-.653 1.197-.435.653.652-.327-.109-.653-.218-.653-.652zm-31.454.543h-.545a1.564 1.564 0 0 1-.217-.326c0-.217 0-.217.109-.544.98 0 1.197.11.653.87zm5.224-.109c0-.217.326-1.087 1.197-.87 0 .98-.218 1.414-1.088 1.414 0-.435-.11-.217-.11-.544zm-32.87-2.391v-1.957c0-.761.11-.979.11-1.74 0-1.304-.218-2.718.217-3.479h.762c.327.544.544.435.544 1.414 0 2.5-.108 6.523.11 8.915.108.652-.11.217-.11.87 0 .543.11.217.11.76 0 .326-.11.544-.11.761-.108.87.11 1.522.11 1.849 0 .326-.11.434-.11.978 0 .652.11.979.11 1.413-.11 1.305-.11 3.37-.11 4.784 0 .979-.108 2.827 0 3.697.218 1.63-.108.652-.108 1.848 0 .652.217.326 0 1.196-.436 1.413-1.198.543-1.415.435 0-1.957 0-2.936-.11-4.784v-5.001c0-.544.11-.218.218-.653.11-.434 0-4.566.11-5.218 0-.761-.11-.87-.11-1.522l-.217-4.566zm25.142 16.742c-.108-1.413.11-6.74 0-7.827-.108-1.305.11-2.175.11-3.153v-2.718c0-.761-.436-1.305.326-1.414.326.544.326 8.154.326 9.459 0 .326-.217.435-.217.87 0 .652.108-.109.108.435-.108 1.63.11 2.283 0 3.261v9.35c.11.87.436 2.066-.544 2.61 0-.435-.109-.435-.109-.87l.11-6.415c-.218-1.087.217-1.304-.11-3.588zm30.04-12.937c0 .543-.653.978-.871.978-.653 0-1.524-2.609-1.524-2.718 0-.326.109-.326.327-.326.653 0 .653.544 1.088.979.218.217.98.652.98 1.087zm-11.428.87c0-.435.108-.218.108-.544 0-1.196-.108-2.5.654-2.5a22.286 22.286 0 0 1 3.809 0c.98.108 1.306-.11 2.612-.11.544.87 1.415 2.61 1.415 3.588-.87.435-1.85.218-2.721.11-.653-.11-.327 0-.98 0l-1.197-.11c-.98 0-3.7.435-3.7-.434zm17.196 1.522c0-1.305-.544-4.35.327-4.35.435 0 .217 1.306.217 1.74 0 1.631.218 5.871.11 6.958 0 .218-.11.435-.11.87s.11.544.11.979c-.219 2.065.108 1.413.108 2.174 0 .326-.218.652-.218 1.305l.11 3.805c-.11.87.217 1.087-.545 1.196 0-.544 0-.761-.109-1.305v-8.48c0-1.087.218-.761 0-2.392v-2.5zm-33.74-1.631c0-.652.98-.435.98.109 0 .434-.218.326-.544.543l-.436-.652zm7.401-.435c0-.435.327-.87.544-1.196.871-2.066.98-1.413 2.395-1.522.218 0 .218-.109.653-.109.544 0 .98.326 1.632.218.654 0 2.177-.435 3.266.108.108.327.108.327.108.653 0 4.349.218 2.283-3.156 2.935-1.197.218-1.197-.109-2.177-.109-.108 0-.761.218-.87.218-.327.109-.762 0-1.089 0-1.088 0-1.306.217-1.306-1.196zm24.271 0c1.306-.544 1.197.978.544.978-.87 0-.762-.108-.544-.978zm-28.515 1.63c0 .544-.327.653-.762.327v-.217c.109-.218.326-.327.762-.11zm-24.707 3.045c-.435-.109-.326-.218-.87-.218-.218 0-.11.218-.545.218-.544 0-.326-.109-.761-.326v-1.74c.761-.435.653-.108 1.197-.217l3.591-.109c.653 0 .871.109 1.198.109.435 0 .653-.109 1.197-.109l2.394.109c.327 0 .436-.109.98-.109h9.36c.326 0 .326.109.653.326 0 1.522.109 1.196-.544 1.848h-9.578c-.98 0-7.4.327-8.272.218zm28.298-1.63c0-.762 1.306-.436 2.068-.544.544-.11.544-.11 1.089 0 .761.108.326-.11 1.088-.11.544 0 .544.11.98.11.326 0 .435-.11.979-.11 2.612 0 3.156-.325 3.156 1.197 0 .76-.762.652-1.523.652l-6.095.109c-1.198 0-1.742.108-1.742-1.305zm-6.965.108c0-.544.326-.544.87-.544l.11 1.414-.545.217c-.327-.326-.435-.435-.435-1.087zm16.76.326c0-1.63.871-.978 2.177-.978.653 0-.108-.11.545-.11 2.394.218 5.006-.108 6.639.11.435 0 .98-.11 1.632-.11h4.571c.327 0 1.089.653.218 1.85-2.72 0-6.204-.436-9.251 0-1.197.216-5.55.108-6.422-.11 0-.326-.108-.326-.108-.652zm-14.04 1.305c0-.11.218-.327.218-.327.544.218.544.218.327.762-.327-.11-.544 0-.544-.435zm5.225 3.479c-.544-.979 0-1.196.217-1.522.545.108.436.217.762.543-.109.435-.217.653-.326.979h-.653zm7.945-1.196l.109.108c.217.218.109-.108.109.327 0 .543-1.198.652-1.198-.327.327-.108.545-.108.762-.217h.11l.108.109zm8.49.435c0-1.414 2.176-.87 2.176-.11 0 .327-.218.218-.544.87-.87 0-.653.11-1.524-.108 0-.326-.109-.326-.109-.652zm-7.402 0c0-.761.871-.435 1.198-.218.108 1.087-1.198.761-1.198.218zm12.408-.544c0-.652 1.197-.326 3.047-.326.871 0 .11 1.413 0 1.74-1.632 0-1.959.217-3.047-.327v-1.087zm-29.06.544c0-.435.218-.653.327-.87h2.72c.436.87.327.435.327 1.413-.218.218-.435.326-.87.326-1.416 0-2.504.218-2.504-.87zm4.68.76c.109-.87.87-1.087 1.415-.217-.326.435-.653.435-1.415.218zm38.311-1.087c1.524 0 3.918-.217 5.877-.108.327 0 .327.108.653.326 0 1.196-.217.652-.217 1.413v13.155c0 .326.326 5.219 0 6.632-.436.109-.871.326-1.415.218-.544-.11-.98-.11-1.524-.11l-3.265-.108v-21.418h-.109zm7.619.327c.98 0 .653.326.544.978-.109.652 0 .87-.109 1.522-.653-.435-.326-.978-.326-1.413 0-.218-.11-.109-.11-.544v-.543zm-53.875 20.656c0 .326.109.435.109.979v4.783c0 .435-.109.435-.109.87-.544 0-.544.109-1.088.109l-2.83-.109c0-.435-.109-.543-.109-1.087v-2.283c-.218-2.066.109-1.413.109-2.066-.109-1.087-.98-1.957-.98-2.935v-3.588c0-.326.11-.652.11-1.305v-13.59c.108-.652 0-1.304 0-1.956.434-.218.652-.218 1.196-.218.545.109.653-.109 1.198-.109.98 0 1.74.218 2.612.218v21.091c-.11.653-.218.87-.218 1.196zm-15.564-14.894c0-1.196.109-2.718 0-3.914-.109-1.196-.435-2.936.218-3.37.762.543.217 2.609.217 3.37.11 1.087.545 3.153-.435 3.914zm58.337 18.156c0 1.522.218 2.392-.326 3.261l-2.503.11c-1.85 0-.762-2.393-1.198-5.22-.109-.434.11-.543.11-1.087 0-.652-.11-.76-.11-1.304v-7.393c0-.326-.109-.544-.109-1.087v-2.175c0-.76.327-.978.327-1.522 0-1.196-.653-.435-.109-1.848.327-.652.327-.978.762-1.522.435-.652.653-.435.544-1.522-.109-.435-.109-.435-.326-.761l-.327-.326-.218-.218c.11-.217.11-.326.218-.543.109-.218.218-.218.327-.435.326-.435.217-.761.544-.979 0 0 2.83-.543 3.265.109l.327 1.63c0 .544 0 .762.108 1.305.11.544-.108.544-.108 1.088 0 .543.108.217.108.87l-.217 1.521c.109 1.414.217 7.937.109 9.242-.218 1.74-.11.652 0 2.065v1.087c0 1.523.217.979-.871 1.957-.109 1.523-.327 2.392-.327 3.697zm19.265-17.069c0 1.196 0 1.305-.545 2.066-2.938 0-2.067.217-2.067-1.631-.98-.652-.545-.218-1.742-.218-.109-.543 0-4.022 0-4.892 0-.217-.435-1.413 1.088-1.413 3.483 0 3.157.108 3.157 3.696 0 1.196.109 2.392.109 2.392zm-57.576-4.675c.762 0 .98.217 1.742.109.87-.109 4.57-.109 5.55-.109h5.442c.545.109 1.089 0 1.742 0 .544.761.435.652.217 1.522-.98.218-1.088 0-2.067 0l-1.633.109c-1.415 0-2.939-.218-4.462 0-.871.109-1.742 0-2.395 0-.87.109-1.741 0-2.612 0-.653 0-.762-.109-1.197-.218-.87-.217-.87-.543-.327-1.413zm15.346.87c0-1.522 2.286-.87 3.157-.87h9.578c1.088 0 1.088-.435 2.176.109l.11.978c-.654.435-.872.544-.98 0-.545.109-.11.218-.762.218l-1.85.108c-.327 0-.218-.108-.762-.108-2.939.217-5.551-.11-7.62.108h-.76c-1.307-.108-2.287.327-2.287-.543zm-33.63 18.047c0-4.022-.11-7.719-.11-11.742l-.108-5.87c.109-.979.218-.11.218-2.718v-1.522c0-.544-.11-.979.326-.979h5.877l.11 6.415c0 .217-.11.434-.11.87 0 .325.11.325.11.87 0 .978-.219 1.195 0 2.173.108.653-.11 1.305-.11 2.066l.11 10.328c-.327.11-.98.327-1.525.327H278.408c-1.307 0-2.395 0-3.374-.218zm67.588 1.196v-3.588l-.109-12.285c-.109-.652.327-.978.327-1.305 0-.326-.327-.652-.327-.978 0-.435.218-.544.544-.761.544.978.11.87 0 1.522-.109.435.11.326.218.761.109.435 0 1.522 0 1.957 0 1.087.109 5.98-.109 6.632-.109.435-.218.217-.109.76.218 1.523.327 8.807.218 10.112 0 .435-.109.109-.109.652 0 .435.109.761.109 1.413 0 1.305-.218.218 0 1.957.109.653.109 3.48-.109 3.697-.109.217.109.109-.326.109-.545-.979-.218-8.59-.218-10.655zm-50.392-12.938c0-.652-.218-.652-.109-1.087.109-.435.109.109.109-.543.109-1.196-.544-2.61.762-2.61 1.088 0 1.524-.108 2.503.11.109 1.521 0 1.086 0 2.065v4.022c0 2.827.653 3.37-.653 4.24-1.524-.326-1.633.218-2.286-.217a1.502 1.502 0 0 1-.435-.326c-.435-.652.109-2.61.109-2.61 0-.217-.218-.108-.218-.543 0-.326.218-.326.218-.652.109-.653 0-.109-.109-.653 0-.217.109-.543.109-1.196zm7.4-3.696c0-.761.98-.435 1.634-.544.435 0 .544-.108.979-.108.435 0 .327.108.87 0 .98-.218.98.108 1.96.108.326 0 3.156-.543 3.156.653 0 .87-2.394.978-2.177 2.718.11 1.087-.217 1.304.545 1.957 1.197.978 1.306.543 1.306 1.413-.762.326-.871.109-1.85.109h-6.204c0-.653.108-.544.544-.87 2.068-1.087 2.068-2.935.653-3.914-.98-.543-1.415-.109-1.415-1.522zm10.667 6.197c-.653 0-1.633.435-1.633-.217 0-.653.98-.435 1.415-1.196.218-.326.327-.653.436-.979.326-.76.217-.87-.218-1.957-.435-1.304-1.85-.76-1.85-1.957 0-.435.217-.435.653-.543 1.306-.326 2.068 0 2.938 0 .218 0 3.919-.218 4.463-.109.326.109.217 0 .326.217.218.327.218.761.218 1.088-.327.217-.218.217-.653.435-.218.108-.327.108-.544.326-1.089.76-.762.87-.762 3.37.326.217.544.435.98.652.435.218.652.218.87.544-.544.652-.87.217-1.741.217l-3.81.109c-.544.109-.653 0-1.088 0zm9.142 2.066c-.326-.326-.217-.109-.217-.435-.11-.652.217 0 .217-.979l.11-1.522c0-.435-.11-.543-.11-.978-.108-1.305 0-3.153 0-4.458.653.218.218.435.218 1.196v1.848c0 .435.109.544.109 1.088 0 .543-.109.76-.109 1.087.109.978.544 2.718-.218 3.153zm-22.856-8.154c0-.218 0-.218.11-.326h.217c.435 0 .326 1.522-.109 1.848-.218-.544-.218-.979-.218-1.522zm-23.073.435c.217.76.217.652 0 1.413-.109-.109-.109-.109-.109-.217l-.109-.761c0-.218 0-.218.218-.435zm47.67.543c0-.652-.108-1.413.327-1.74.327-.217 2.504-.108 2.721-.108.327 1.413.11 3.588.11 5.219 0 1.63.326 3.479 0 5-.545 0-.872.327-1.633.218-.436 0-1.089-.109-1.524-.217-.653-1.414.109-2.718.109-4.567l-.11-3.805zm-50.935-8.48c.217 0 .435.109.653.218.326.217 0 .108.435.217v29.354l-3.374.109c-1.85 0-.109.217-2.286 0-1.523-.109-2.83 1.087-2.285-2.392v-6.088c0-.435.109-.435.109-.761 0-.109-.11-.326-.11-.653l.11-1.413c0-.435-.11-.652-.11-1.196l.11-1.413c0-.435-.11-.544-.11-1.087 0-.544.11-.653.11-1.196 0-.218-.218-1.087.435-.979.218 0 1.633 1.305 2.83.109 1.306-1.305.87-2.827.87-3.805v-6.74c0-.653.436-.653.654-1.088.326-.544-.11-.217.435-1.087l1.524-.109zm26.447 12.068c0-.544-.217-2.283.11-2.827.434.326.217.544.217.979 0 .435.217.543.217 1.087l-.108 2.718c0 .978.544 1.413-.436 1.63-.109-.325-.109.11-.109-.325l.11-1.305c-.11-1.196 0-.761 0-1.957zm10.775-1.087c-.109-.326-.109-.218-.109-.653.327 0 .545 0 .545.218 0 .326-.218.326-.436.435zm1.633-.653c.109.544.109.327-.109.761-.544-.217-.544-.217-.327-.76h.436zm-2.177 5.219c.762 0 1.197.217 1.85.109 1.198-.218 2.504-.218 3.592 0 .98.217.87-.218 1.524-.218.87 0 .544 1.74.544 1.74 0 .435.218.326.109.978-.11.87 0 .979 0 1.957-.653.435-.653.435-1.415.435l-3.918-.217c-.871-.11-.545-.653-.545-1.414 0-.326-.87-.652-.87 0 0 1.196.435.653-.218 1.631l-2.612-.109h-2.612c-.218-.217-.327-.435-.327-.87v-3.37c0-.326.11-.326.327-.652h4.571zm8.816 1.087c0-.543.109-1.087.653-1.087 1.088 0 .326-.109.762.109.98.543.435.76.762 1.63.326.87.435.327-.11 1.088-2.502 0-1.958 0-1.958-1.087l-.109-.653zm10.557 0c.218.761.11.326 0 .979-.435-.11-.544-.218-.653-.761.218-.218.327-.218.653-.218zm-52.895.218c.326.217.326.217 0 .543v-.543zm25.686-1.305c1.197-.435 1.85 0 1.85 1.522 0 .761-.218.761-.544 1.196h-1.633c-.109-.109-.109-.109-.217-.326-.218-.326 0 0-.218-.218l.218-.543c.761-.761.326-.435.544-1.631zm-8.816 14.677c-.218-.109-.327-.217-.327-.543v-5.11c0-.761.218-1.196.11-1.849-.218-.978.108-.978.108-1.522-.109-.87-.326-.217 0-1.63l.109-1.522c.87.434.653.978.653 3.261 0 .652-.327.87-.327 1.413 0 .435.327.653.327 1.305 0 1.087-.435.87-.218 1.957.11.761 0 1.196 0 1.957-.217.109.327 1.63-.435 2.283zm1.741-11.307c.327-.217.436-.543.98-.543 1.632 0 1.741-.218 2.612.326 0 .87-.109.435-.109.978.109 1.305-.109.761 0 1.957.109.435 0 .979 0 1.414-.218 1.63.218 2.5 0 3.479-.326 1.413.218.87-.109 2.391-.98.218-1.741.11-2.83.11-.544-.762-.326-.87-.326-2.175l-.218-7.937zm32.543 9.459c0 .326-1.197.652-1.742.543-.653-.108-1.523 0-1.741-.543-.218-.544.109-7.393-.109-8.915-.218-1.522 1.197-1.087 2.068-1.196 1.088-.109.762-.217 1.306.217l.218 9.894zm-50.936-9.676c.108.326.108-.109.108.326l-.108 1.087c-.11.544.108.109-.327.435-.435-.326-.109.109-.326-.435 0-.217-.11-.217-.11-.543.11-.435.327-.761.763-.87zm46.147 1.848c0 1.74.109 4.892-.109 6.523-.218 1.957.762 1.848-2.285 1.848-.654-.978-.436-.978-.436-1.956-.109-1.957-1.306-1.523-1.306-2.61v-4.022c0-.327.109-.327.109-.653h3.592c.326.326.435.435.435.87zm-23.074-.652c.98-.544 1.742-.109 2.83-.218.653 0 .435-.217 1.197.326v4.675c-.217.11-.217.218-.435.327-.87.652-.435.326-.653 1.304-.327 1.522-.327.326-.327 2.392-.217.217-.435.326-.87.326-1.524 0-1.306.109-1.85-.326 0-.761-.218-1.305-.11-2.066.11-.652.11-1.413.11-2.174v-4.566h.108zm-23.726 2.174c0-.543.108-.652.217-1.087.544.326.327.326.436 1.087 0 .435.108.544-.11 1.087-.108.544-.217.435-.108.979.435 1.196.218 5.98.218 7.501 0 .544-.11.544-.11.87 0 0 .327 2.5-.543 2.5-.545 0-.11-1.413-.11-2.174-.217-1.522.218-.87.11-1.63-.11-1.305 0-2.284 0-3.806l-.11-2.609c0-.109.11-.652.218-.87.218-.326-.108-.87-.108-1.848zm52.786-3.261c0-.544.109-.653.544-.761.327 1.522-.109 5 .11 6.305.108.653-.11.435-.11.979 0 .435.11.326.11.87v1.087c0 .978.326.543 0 1.957-.11.543 0 .326-.436.652-.653-.435-.218-.761-.218-1.74-.218-2.174-.218-2.174.109-4.13l-.109-5.22zm-42.23 13.916c.11.87-.108.652 0 1.413.11.652.11.761-.326 1.087l-.108-.109-.327-.434c-.109-.435 0-.544.109-.761 0-.327-.109-.87-.109-1.414v-6.74c0-.979-.326-2.392.327-2.392.435 0 .217.978.217 1.413.218 1.413.11 7.067.218 7.937zm18.612-10.655h6.53c1.089 0 5.334-.217 5.987.109 0 2.61.217 2.283-1.198 2.283h-11.21c-.326-2.066-.326-.326-.109-2.392zm30.801 10.763c0-.652.11-.652.11-1.196 0-.543-.11-.543-.11-1.087v-2.5c0-1.522-.108-1.631-.108-2.392 0-1.413-.218-1.848.544-1.957.217.544.217 1.305.109 1.74-.11.326-.11.434-.11.87v7.5c-.108 1.197.436 1.088-.326 1.305-.217-.434 0-.434 0-1.087 0-.543-.109-.652-.109-1.196zm-17.631-4.892c-.436 0-.762 0-.762-.544 0-.108.762-.76.762.544zm-13.714-.109c-.326.109-.653.218-.653-.217 0-.218.218-.218.327-.218.326-.108.326.218.326.435zm6.857 0c.762-.435.87-.217 1.632-.108.98.108.98-.218 1.742.217-.327.435-.436.326-.653.978l-2.395.11c-.326-.544-.326-.436-.326-1.197zm-4.898.87c0-.652.87-.87 1.415-.87 1.306-.108 1.633-.435 2.83-.108l.109.978c-.327.217-.545.544-1.198.435-2.83-.435-1.959-.109-2.72-.109-.11 0-.436-.109-.436-.326zm48.215-16.96c.545 0 .762-.544 1.198-.109.217.218.217-.109.217.326v17.83h-7.836v-18.047h6.421zm-66.39 19.678c0-.87.217-1.087 1.088-1.087.87 0 2.176-.218 2.503.543.217.435 0 2.066-.109 2.718 0 .544.218.544.218 1.196 0 .218-.218.109-.327.653h-1.85c-.762 0-.653.217-1.415-.11-.327-1.304 0-1.521 0-2.282l-.109-1.631zm6.42 2.61c0-.436-.108-.544-.108-.98.109-1.086-.11-2.391.435-2.608.762-.327 7.075.108 8.598-.11 1.415-.217 2.504 0 3.157 0 .326 0 .326-.108.87-.108l1.85.109c.436 0 .545-.109.762 0 .762.217.327.978.327 1.413v.979c0 4.022-.435 1.522-2.503 2.609.217.76.217.652 1.088.652.87 0 .87 0 1.415.326 0 1.196-.109 1.957-.109 3.153 0 1.74.327.653.109 1.74-.109.652 0 .978-.653.978h-14.693c-.87-.217-.544-.87-.544-1.63.108-1.523-.218-3.262.108-4.458 1.742-.435 6.748.217 8.272-.109 1.524-.217 2.395.761 2.395-.76-.871-.218-1.306-.11-2.395-.11-1.415 0-.109.218-1.959 0h-2.068c-1.197 0-1.85.11-3.047 0l-1.306.11c-.218-.762 0-.436 0-1.197zm43.21-9.677h5.659c0 1.848.218 10.002-.109 10.763-.327.327-2.83.11-2.83.11-1.088.108-1.741.325-2.83-.327v-9.676c0-.435.11-.544.11-.87zm-7.402 6.85c0-.218.218-.544.436-.761.326-.218 2.72 0 3.156 0v4.892h-3.156c-.11-.435-.327-.544-.327-1.087 0-.435.109-.653.109-1.305 0-.87-.218-.978-.218-1.74zm-7.51-.87c.871 0 .545.109 1.524 0 1.089-.218.762.109 1.197.109.653 0 .327-.435 1.633-.11.435.98.109.98.218 2.501v.653c0 .435.326 1.63-.653 1.848l-4.79-.109c-.652 0-1.088 0-1.632-.109-.87-.326-.544 0-1.306 0-.653 0 .109-.108-.544-.108-1.85.108-.98-.109-2.83.108-.326 0-1.632-.326-1.632.653 0 .543 2.394.217 2.394.217 1.85 0 5.768.326 7.619.109.653-.109.762.109 1.088.109.87 0 1.197-.326 2.177-.11.109.327.218.545.218.98 0 7.175.544 4.566-3.483 5.218-1.633.217-5.007-.435-7.292-.109-.98.109-2.94 0-3.919 0-1.959 0-1.415-.217-1.415-1.304l-.108-3.914c0-.653.108-.87.108-1.196 0-.435-.108-.653-.108-1.196v-2.5c0-2.066.98-1.523 1.415-1.523l10.121-.217zm-44.297-5.654c.545 0 .436-.217.762-.217.327 0 .218.109.762.109.327 0 .544-.109 1.633-.109 1.632 0 1.85-.217 2.72.326v10.002c0 .544-.544.544-1.088.435l-4.789-.109c0-.434-.217-.543-.108-1.087.217-1.848-.11-2.174.108-3.044v-6.306zm50.392 7.285c.436.652.218.326.11.978-.11.544.326 1.413 0 1.957h-.218c-.436 0-.218-1.522-.218-1.74 0-.217-.109-.652-.109-.76 0-.435.109-.327.435-.435zm-36.351.543c0-.435.108-.543.326-.76.653.434.435 2.608.218 3.37h-.544c-.11-.87 0-1.414 0-2.61zm52.895 3.805c.653 0 .544.544.326.87-.435 0-.544 0-.544-.543.109-.218.218-.218.218-.327zm-15.129 3.588c0-.87.218-.217.218-2.066 0-2.391.218-1.63 1.96-1.63l.87-.11c.98 1.523.217.653.217 1.958s.327 1.087.11 1.63l-.218 1.197c-.98.217-.762 0-1.633 0 0 0-1.524.434-1.524-.979zm-54.092 1.196c-.762-.217-.436-.761-.544-2.5 0-1.196-.545-1.957.217-2.501.218.109.327.217.327.544.109.76.217 4.022 0 4.457zm16.543 10.002c-.217-.217-.326-.326-.326-.76l.109-4.35c0-.217-.11-.108-.11-.543v-4.023c0-.87.218-1.196.218-2.174 0-.435-.108-.218-.108-.544v-2.065c0-.327.108-.327.108-.653h.545c.326 1.414.108 3.805 0 5.219 0 .326.108.76.108 1.087l.11 2.174c0 1.414-.218 2.392-.218 3.262 0 .435 0 .978-.11 1.522-.108.978.654 1.196-.326 1.848zm42.882-14.46c0-.326.218-.326.327-.543.109.326.109-.109.109.326 0 1.087.109 1.196-.11 2.174-.543-.326-.326-.87-.326-1.956zm-47.67 3.48c0-.435.217.108.217-1.957 0-.435-.218-1.74.218-1.957.109-.11 1.741-.11 1.85-.11.762.11 1.306-.108 1.306.87l-.109 1.74c0 .979.653 2.61-1.632 2.392-1.306-.217-1.85 0-1.85-.978zm49.52-3.806c.436-.108.436-.217.871-.217.544 0 .544.109.871.109.327 0 .327-.11.87-.11h2.613c.435 0 0 .218.762.218l-.11 5.545c.219 1.413.11 3.262.11 4.784-.218.108-.545.326-.762.326h-4.571c-.218 0-.545-.218-.762-.326.217-.761.109-.435 0-1.196-.11-.761.109-.653.109-1.196 0-.761-.218-1.196 0-2.5.108-1.305 0-4.023 0-5.437zm-9.142.327c0-.218 0-.218.109-.327.653 0 .544.11.544 1.196 0 .544.11.979.11 1.414 0 .435-.219.543-.11 1.304.218 1.196 0 2.718 0 3.044l.11 7.176c0 .543-.11.435-.654.435v-11.198c0-.435-.109-.653-.109-1.196V321.7zm16.87 4.022c0-.543 0-2.066.435-2.174.436-.109.436.435.327.978-.109 1.087 0 .326 0 .979 0 .435-.762.652-.762.217zm-9.469-1.63h.218v.76h-.218v-.76zM282.98 321.7c0-.218 0-.218.109-.327.653.11.217-.108.435.218.109.217.109 3.805 0 4.24l-.218.326c-.435-1.74-.326-2.392-.326-4.457zm-19.918-5.002c.653 0 .653-.108 1.415-.108 6.857 0 6.422-.435 6.422 1.196l.109 7.936c-.11 1.414 0 3.153 0 4.675 0 1.848-.218.544 0 2.392.108.87-.11 3.261-.11 3.588.11 3.044 0 5.762 0 8.697h-7.727V316.7h-.109zm69.983 13.047c0-.653-.109-.761-.109-1.087 0-.435.218-.653.218-.979l.109-2.283c0 .652.109.652.109 1.087 0 .435-.11.544-.11 1.087v2.175c0 .978.11 1.413.11 2.283 0 1.305-.218.652-.327.543-.109-.108-.435-.543-.435-.652.109-2.718.435-1.522.435-2.174zm-49.848-1.414c-.217-.76-.326-.978 0-1.74.545.327.545 1.306 0 1.74zm42.23 9.459c.87.217 1.74.109 2.067-.87.11-.217.218-.543.218-.76 0-.436 0-.653-.109-.87v-5.654c0-.435.11-.652.11-.87 0-.543-.436-1.304.979-1.304 3.265 0 3.047-.326 3.047 1.413v5.327c.762.435.544.326 1.742.326.98 1.414.326-.217.435 1.74 0 .435-.109.652-.109 1.196 0 .543.109.652.109.978 0 .87-.544 4.132-.327 4.458.545.76 2.612-.544 2.721.543v2.392c.218 1.522.11 1.74.11 3.37 0 2.175.217 2.175-.654 2.719-1.959 1.522-3.592 2.718-5.66 4.022-1.632 1.196-.761-1.304-.979-2.392-.109-.652.109-1.087.109-1.848 0-11.742.109-6.85-1.742-9.024-1.306-1.522-3.047 0-3.265 0-.326.11-1.197-.434-1.632-.543l-1.415-.435c-1.524-.435-.327-.218-2.177-.652-.109-.544-.109-.761-.435-1.196-.762-.87-.436-.761-.436-.87.218-.435-.217-.109.871-.544 1.524-.652.218-1.304.109-1.304-.327-.326-.762-1.631-1.088-2.283-.871-1.957-1.85-.435-3.374-1.196-.327-.653 0-.435 0-1.088 0-.87-.218-1.195 0-2.391.108-.653-.327-1.305 1.306-1.414 2.612-.108 5.877 0 8.489 0 .762 0 .544 2.5.544 4.023 0 .652-.326.652-.326 1.196 0 .652.217.76.217 1.196-.217.326-1.088 2.174.545 2.609zm-37.985-4.131c-.653.435-.762.76-1.632 1.087l-.871.435c-.327.217-.653.326-.98.435-.544.217-2.068 1.63-1.523-.979.87-.217 1.306-.109 2.176-.543v-4.893c0-.543-.217-.978-.109-1.413.327-.87 1.742-.435 2.068-.435.327 0 .436-.109.98-.109 1.632 0 .98.653 1.088 2.283 0 .435.11.326.11.653 0 .435-.11.108-.11.652 0 .87.327 1.196-.109 1.848-.217.544-.435.435-1.088.979zm54.31-4.675c0-.761 1.306-2.5 1.524 0 .109 1.304-.109.978 0 1.522 0 .326.109.326.109.87 0 .326-.218.543-.218 1.087 0 .87.218.543 0 1.413-.653.326-.653.109-1.415.109s-3.265.326-3.918 0c0-.979.98-.544 2.394-.544 2.286 0 1.524-2.065 1.524-4.457zm-67.37.217c0 1.631-.327 3.48.544 4.023.326.217.435.217.87.326h2.504c0 1.196-.327.652-1.089.652-.326 0-.217.109-.762.109-.653 0-.108-.109-.87-.109l-2.286-.217c-.544-.979-.218-2.827-.218-3.805v-.327c.11-1.195 0-1.956.653-1.956.436-.218.654.652.654 1.304zm17.414.544c1.414-.326 3.591 0 5.006-.218.87-.108 4.136-.108 4.789.218v.652c-.762.218-1.524 0-2.503 0h-2.395c-1.088 0-1.85.326-2.394.326-.544.109-.653 0-1.197.218-.653.108-.436.217-1.306.217a3.1 3.1 0 0 1 0-1.413zm-15.673-8.59c.435-.216 4.136-.108 4.789-.108.326 0 .326.109.653.326v10.872h-5.877v-10.872l.435-.217zm7.183 10.112c.11.326.11-.109.11.326 0 .544 0 .435-.11.761-.217 0-.544.109-.544-.326.109-.435.218-.652.544-.761zm13.605 1.413c.435-.217.98 0 1.306.435-.544 0-1.088.326-1.633 0 .11-.326-.108-.217.327-.435zm11.537-3.261c0-.435.217-.653.326-.87 1.089 0 .762.109 1.524.217.98.109.87-.652 2.83.326v4.24c-.436.327-.436.544-1.197.544h-1.633c-1.306-.109-.544 0-1.415 0-.653-.109-.435-3.696-.435-4.457zm-5.224-.327c0-.434.435-.434.87-.434l2.721-.11c.218 0 .87-.325.87.653 0 4.24.327 4.566-.87 4.349-.762-.109-.544.217-1.306 0-1.306-.217-2.285.217-2.285-.544v-3.914zm32.651 5.219c0-.326.109-.326.109-.652h.326c.218.87.218 1.413 0 2.283-.435-.109-.435-.544-.435-1.631zm-36.896 1.848c0-1.196 3.156-.76 4.353-.76h2.504c.762 0 1.85-.327 1.85.325 0 1.305 0 .979-.87.87-.11 0-2.613.218-5.334-.109-.653 0-2.503.435-2.503-.326zm9.578-.326c.762-.544.98-.326 2.285-.326H316.174c.218 0 1.089-.218 1.089.87 0 .543-1.524.326-2.068.326h-4.79c-1.414 0-1.85.543-1.85-.87zm-26.23 2.718c0-.652.326-.87.762-1.087l2.503-1.196c.109-.109.218-.109.326-.218.871-.434 1.415-.543 2.612-.217.218 1.087-.326 2.066 1.96 2.066 1.197 0 1.197-1.196 1.197-1.849.217-.217.435-.326.87-.326 5.007 0 4.898-.326 4.898.761 0 .435-1.415 1.522 0 2.066.544.217.436.109.653.652l-.109.11c-.653.76-3.374.434-4.353.434h-4.136c-.762 0-.98.109-1.741.109-.436-.653-.327-.544-.327-1.631-.326-.218-.762-.652-1.197-.652-.87 0-1.089.978-1.089 1.74-1.306.869-.544.434-2.176.325-.653 0-.653.218-.653-1.087zm53.33-1.63c0-.436.11-.544.327-.762.544.326.326.87.217 1.522 0 1.087.436 1.305-.108 3.48h-.327c-.218-1.088-.109-3.045-.109-4.24zm4.245-.653c1.633.217 2.394-.326 3.592.435l-.218 2.065c-.109.327-.218 0-.218.435 0 .761.218.544.218.979 0 .109-.218.326-.218.76v5.22c-.217.76-3.156 2.717-3.918 3.152-1.632 1.087-1.524.979-1.524-.435-.108-3.37-.435-10.11.11-12.611h2.176zm-60.079 1.63c0-.325.218-.325.327-.543.218.544.326.979.109 1.63-.218.545 0 .218-.327.436-.109-.326-.109.109-.109-.326V337.9zm25.904.87c.544 0 1.524-.108 1.959.11v.217c0 .435-2.394.326-2.721.108.109-.326.218-.435.762-.435zm-12.734 3.48c-.544 0-.653-.762.217-.762h.98v.327c-.435.217-.435.435-1.197.435zm16.979 0c.761-.435.98-.11 1.306-.218.653 0 1.306-.109 2.394-.109l.435.435c-.217.435-.108.544-.761.653-.545.108-3.048-.218-3.374-.327v-.434zm-7.293-.218l2.395.109c.98 0 1.197-.544 1.197.76-1.197.653-.87-.108-1.524-.108-.326 0-.326.326-.762.326-.217 0-.653-.108-.98-.108-.979-.11-.652-.435-.326-.979zm-22.203 1.74c.327-1.196.762-1.414 1.415-2.284h3.7c.436 0 .545.11 1.09.11.652 0 1.85-.218 1.85.543 0 1.63-.762.76-1.633.87-.109 0-1.088.326-1.85.326-.436 0-.436-.109-.871-.109-.762.109-1.088.652-1.415.761-.109 0-1.741.217-1.959.109l-.327-.326zm-7.51 1.413c0-.87-.217-.652 0-1.63.218-.87.11-4.35.11-5.328 0-1.087-.545-2.283 1.523-1.957 1.089.217 2.395.109 3.592.109.326.76.218 1.848.218 3.044l.108 3.153c0 .543-.108.76-.108 1.522v2.392l.108 3.587c0 .979-1.197-.217-1.197-.217-.218-.218-.218-.109-.435-.326-1.089-.87-1.089-.653-1.96-1.305-.326-.217-.435-.435-.761-.652-.436-.218-.327 0-.762-.435-.218-.218-.435-.435-.653-.761.109-.544.218-.761.218-1.196zm72.16-28.593c.544 0 .436-.109.98-.109h4.897c1.307 0 1.307.109 1.85.109v28.267c-.435 0-.435.108-.87.108l-6.857-.108c0-.653-.217-.761-.109-1.305.327-2.827.11-22.505.11-26.962zm-18.829 36.203c0-.87-.217-1.63-.109-2.718.11-.76 0-.87 0-1.304 0-.326.218-.653.218-1.088 0-.76-.218-.326 0-1.195.218-.11.544-.218.87-.218h.11c.217.218.326.326.435.544 0 .326-.109.435-.109.978v5.436c-.109.761.109 2.392.109 3.697 0 .543-.653 1.196-.98 1.196-.653 0-.544-.327-.544-1.088v-4.24zm-46.474-5.218c0-.218 0-.218.11-.544.435 0 .108-.109.435.109.653.435-.545-.435.108.109l.11.108c-.11.218-.11.109-.11.544-.435 0-.653 0-.653-.326zm13.061-.435c.653-.435.762-.218 1.197-.109.327 1.305-.109 1.63-1.197.87v-.761zm-11.101 1.305s-.327-.979.544-1.414c.435-.217 5.442-.109 6.203-.109.871 0 1.198-.108 1.96-.108.87 0 1.088.217 1.088.978.109.87 0 1.087.653 1.414.218.108.544.326.762.434.762.327-.109-.217 1.197.11.327 1.521.109 5.653.109 7.718 0 1.087.326 1.087-.109 2.066-.544.109-.544.109-1.088.109-.653 0-.436.217-.98.217-.218 0-1.306-.761-1.741-1.087-1.198-.761-2.286-1.74-3.265-2.283l-3.157-2.283c-.544-.435-.98-.761-1.523-1.196-.327-.218-.436-.326-.762-.544-1.198-.87-3.048-2.066-.762-3.153.326-.108.435-.108.544-.435.109.11.327-.326.327-.434zm12.407 14.677c.327.326.762.543 1.197.76l2.068 1.523c.98.87 3.592 2.609 4.245 3.153.435.326.544.434 1.088.76l.653.327c.327.217 1.306.978 1.306 1.304 0 .435-.653.11-.98.11h-2.285c-3.047.325-22.638.108-26.992.108-3.374 0-7.183.109-10.666.109 0-.544-.109-.544-.109-1.088v-16.851c0-.652.11-.761.11-1.305-.11-.543-.11-.87-.11-1.413l.11-2.718v-1.522h6.638c.653 0 .762.326 1.198.652l1.632 1.196c1.415.87 2.83 2.066 3.7 2.61 1.416.87 1.416 1.087 2.069 1.521.653.435 1.414.761 2.176 1.522l8.599 6.089c.653.543.653.326 1.088.76.98.87.218.218.98.762.326.217.544.543.979.87l1.306.76zm2.286-17.287h28.624v5.11c.218 2.283.109.761 0 2.61v2.609c.218 1.848 0 1.087 0 1.74.109.978.327 1.956-.98 2.173-.653.11-1.197 1.305-2.938.435 0-1.087.109-5.327-.218-6.305-.435-1.305-2.612-1.414-3.156.108-.653 1.957-.109.653-.327 1.849-.217 1.413.11 3.152-.217 4.457-2.504.218-4.245.109-6.748.109-2.177 0-1.96.652-2.177-.979-.109-1.196-.435-.543-.218-2.935.11-.761.11-1.305 0-1.957-.217-1.196-.326-.979-.762-1.522-1.088 0-1.414-.109-2.394.109-.109.217-.109.543-.218.76-.217.436-.326.218-.326.544v4.24c0 .435.109.435.109.761 0 .218-.11.326-.11.761-.435.11-1.196.218-1.632.218-.435-.326-.653-.87-1.415-.87h-2.83c-1.197 0-.761 1.196-2.285.87-.218-.979-.109-1.957-.109-3.153l.109-1.522c0-1.087-.218-.109.109-1.74.109-.652-.109-.87-.109-1.63v-6.85h.218zm13.06 17.287c-.544 0-.217.108-.544-.218h.544v.218zm9.904.108c0 .435.11.11-.217.326-.87.762-1.415.11-1.633-.434.327-.327 1.85-.544 1.85.108zm-14.475.761c-.653 0 .218.218-1.524 0h-3.591c-.436 0-.545-.108-.871-.217 0-.544-.109-.435.109-.979 1.197-.434 3.265 0 4.462 0h2.395c1.523 0 1.74-.217 1.74.87-.979.761-1.74.326-2.72.326zm-2.83 1.414c.544.87.436.76.218 1.413-.98 0-2.177-.326-2.286-1.413h2.068zm7.945 1.522c0-.326 0-.326.11-.544.543.326.217 0 .326.326-.218.327-.11.218-.436.218zm-3.482 3.153c1.523 0 1.088.87.653.87-.545 0-.653-.327-.653-.87zm1.741.652c0-.217.218-.435.218-.652.653 0 .87-.11.87.326 0 .435-1.088.87-1.088.326zm3.265.326c0-.543 0-.435.218-.76.217-.218.326-.218.544-.327.98-.435 2.72-1.957 3.81-2.718.979-.652.652-.652 2.067-1.522l7.945-5.654c3.7-2.935 8.816-6.197 12.734-9.023.436-.326.653-.435 1.198-.761.435-.326.544-.544.98-.761l2.176-1.414c.218-.108.435-.217.544-.435 1.633-1.304.762-.326 1.197-1.413h6.748c.327 0 .327.109.327.326v24.136c0 .544-.87.326-1.524.326-8.163 0-16.543.109-24.706 0-1.197 0-.762-.109-1.415.326-.218-.217-.327-.326-.653-.326h-11.646c-.217.109-.326.109-.544 0zm-38.202 1.957c.435 0 .326-.109.544-.109.218 0 .109.11.544.11h5.225c3.374 0 7.51-.218 10.557 0 .653 0 .109-.11.653 0 .218 0 .326.108.762.108.544 0 .762-.218 1.632-.109 1.633.218 11.646.109 14.15.109.326 1.196.108 1.522 0 2.5h-38.312c-6.421 0-5.442.544-5.442-2.5h9.687v-.109zm40.814 0c.436 0 .436-.109.762-.109l4.68.11c.653 0 .87-.11 1.197-.11.436 0 .545.11 1.089.11l2.72-.11c.654 0 .654.11 1.198.11h7.836c.544 0 .762-.11 1.089-.11.326 0 .435.11.98.11.543 0 .543-.11.979-.11 3.591.218 9.577.11 13.387.11.653 0 1.632-.218 1.632.325 0 1.414.218 2.066-.326 2.066h-42.991v-2.5h5.768v.108zm.98 4.566c.435 0 .544.109.98.109 2.067-.217 30.692-.109 35.263-.109.326 0 .326.109.326.326v3.153H325.97c-1.85 0-.544.218-2.395 0H308.338l-.109-2.826c0-.327.109-.327.109-.653h6.857zm-51.48.326c0-.652 1.85-.326 3.047-.326h35.916c.436 0 .98-.108 1.198-.108.435 0 .87.108 1.306.108 1.197 0 2.394-.217 2.394.326 0 3.588.327 3.153-1.415 3.153-1.524 0-7.727-.108-8.598 0h-12.625c-2.395 0-2.395.218-4.68 0-.544-.108-1.089.218-2.286.109l-9.251-.109c-1.741.218-.544.109-1.85 0h-3.157v-3.153z"/>
        <path fill="#F38165" d="M308.338 92.629v4.349c0 .543.109.652.109.978 0 .761-.218 0 0 1.957.109 1.196-.218 4.675-.218 5.98 0 1.63.109 3.044.109 4.892 0 1.63.109 5.219-.109 6.632-.109.76.109.217.109.652 0 .544-.218 1.74.218 2.5.87-.652.108-3.804.326-4.674.109-.218.327-.761.327-.761 0-.653-.11-.761-.11-1.196 0-.435.11-.652.11-1.305 0-.76-.11-1.087-.11-2.609l.11-5.545c0-.435-.11-.326-.11-.87-.217-3.261.219-9.35-.108-12.61l.109-3.154c0-.543-.109-.652-.109-.978.109-.761.218 0 .218-2.392 0-.544-.11-.652-.218-1.087-.98.108-.544 1.196-.544 1.74v2.5c0 .87-.109 1.413-.109 2.392v2.609M308.23 130.028v3.48c.108 1.304.217.217 0 1.739 0 .435.108.435.108.978 0 .544-.109.326-.109.87s.109.435.109.87v9.024c0 .434.109.434.109.978v4.892c0 1.196-.327 2.284-.109 3.262.109.544 0 1.196 0 1.63-.109.653-.109 6.85 0 7.394.109.435 0 .326.435.435.218-.435.11-1.305.11-1.849 0-1.63.217-.652.217-2.5 0-.761-.327-1.087-.218-1.631.436-1.848-.109-1.413.109-3.805v-1.196-.435c0-.544.109-.544.109-.978 0-.327-.109-.435-.109-.979v-2.5c0-.761.218-.87.109-1.414-.218-2.065 0-.652 0-1.63 0-.653-.218-.11 0-.653.109-.435.218.109.109-.761 0-.217.109-2.61 0-4.131v-8.807c0-.652.109-3.044-.327-3.044-.544 0-.653.435-.653.761M308.23 175.038c0 .544 0 .652.108 1.087v3.262c0 1.305-.218 2.392-.109 4.457.109 2.284 0 6.415 0 9.133v11.415c0 1.631.327 3.153 0 4.567 0 .326-.109.76-.109.978 0 .435.871 1.74.871-.217 0-.653.109-.761.109-1.196-.109-1.087-.109-4.132-.109-5.436l-.109-1.848c0-.11.109-.327.109-.653 0-2.5 0-4.131-.109-6.632 0-.435.109-.652.109-1.196l-.109-2.609v-1.413c0-.544.109-.544.109-1.196 0-.87-.109-1.957 0-2.718 0-.544.218-.544.109-1.196-.218-1.305 0-6.523-.109-8.154 0-.544-.109-.652-.653-.761-.109.217-.109.109-.109.326M308.447 48.924v4.131c0 3.914.217 5.436 0 9.459v.543l-.109 4.458c0 .87.109.978 0 1.74l-.109 3.804c.218 1.196-.109 1.196.327 1.74.98-.652.544-1.087.544-1.63 0-1.088.218-.87.109-2.067v-.652c.109-1.196-.11-1.848-.11-3.044V61.1l-.217-10.872c-.109-.652.109-.76.109-1.413 0-.435 0 0-.109-.326-.218 0-.435.109-.435.435M308.23 168.624c0 1.196.108.87.217 1.74v1.304h.326c.218-.761.11-1.087.11-1.957 0-.87.217-.979.217-2.283 0-.435 0 0-.109-.326-.327.217-.218.217-.435.652-.218.217-.327.435-.327.87M308.338 78.06c0 1.414-.218 2.392.326 2.827.654-.435.327-.87.327-2.718 0-.543-.109-.652-.653-.76v.651M308.23 213.742c0 2.175-.436 2.5.217 3.044.326-.217.326-.435.326-.978 0-.979.545-1.196 0-1.848-.109-.326-.217-.326-.544-.218M307.903 352.033c.761 0 .544-1.196.544-2.5h-.762c-.435.76-.218.435-.109 1.196 0 .652-.218 1.304.327 1.304M308.338 123.723l.109 3.044c.435 0 .109.108.435-.109.436-.326.109-.87.109-1.087 0-.435.109-1.74-.109-2.283-.326 0-.544 0-.544.435M308.664 39.03l.11 2.827v.326c.108.435.108.218.217.326 0-.543.327-3.261 0-3.696-.109-.218 0-.109-.327-.218.11.218 0 .218 0 .435M308.447 46.967c0 .652 0 .435.217.76 1.415-.869-.217-1.63-.217-.76"/>
        <path fill="#F38165" fill-rule="nonzero" d="M260.885 68.058h2.939v315.395h-2.939zM356.009 69.58v311.59l-3.918 1.087.326-312.677z"/>
        <path fill="#F38165" fill-rule="nonzero" d="M260.885 68.058l10.23-21.309 2.177 1.088-9.795 21.743z"/>
        <path fill="#F38165" fill-rule="nonzero" d="M273.401 13.59l-.435 266.362-1.742-.217V13.59zM264.912 13.264V1.305h1.523l85.22-.11h1.524v11.743h-2.938V4.784L267.85 5v8.263zM343.819 13.59h2.068v270.929h-2.068z"/>
        <path fill="#F38165" fill-rule="nonzero" d="M353.18 13.046l-6.749 4.132-1.088-2.936 6.095-3.588zM352.309 69.472l-.871-2.175v-6.414h-2.068l-5.224-13.264 1.632-3.805 10.34 25.766z"/>
        <path fill="#F38165" fill-rule="nonzero" d="M352.091 68.058h2.939v315.395h-2.939z"/>
        <path fill="#F38165" fill-rule="nonzero" d="M260.885 380.844h94.036v2.935h-94.036zM339.574 33.594h-61.493v9.785h61.493v-9.785zm-62.581-2.174h64.758V45.553h-65.847V31.42h1.089z"/>
        <path fill="#F38165" fill-rule="nonzero" d="M281.02 13.807h2.177v81.866h-2.177zM334.459 13.807h2.177v80.887h-2.177zM260.885 375.951h94.036v1.848h-94.036zM260.885 371.059h94.036v2.283h-94.036zM333.915 95.238h2.177v213.09h-2.177z"/>
        <path fill="#F38165" fill-rule="nonzero" d="M281.564 95.238h2.177v213.09h-2.177zM340.445 285.497h1.524v22.614h-1.524z"/>
        <path fill="#F38165" d="M256.205 381.061h103.614v4.675H256.205zM251.307 387.584h113.409v4.675H251.307z"/>
        <path stroke="#F48266" stroke-width="1.417" d="M.87 397.478h663.368"/>
    </g>
</svg>
