<svg xmlns="http://www.w3.org/2000/svg" xmlns:xlink="http://www.w3.org/1999/xlink" width="591" height="569" viewBox="0 0 591 569">
    <defs>
        <path id="a" d="M0 569h591V0H0z"/>
    </defs>
    <g fill="none" fill-rule="evenodd">
        <path fill="#C5C5C5" d="M430.985 526S449 526 449 513.167v-43.62c0-7.703-25.735-5.136-25.735-5.136L375 472.107h63.707v15.402h-7.722V526z"/>
        <path stroke="#C5C5C5" stroke-linecap="round" stroke-linejoin="round" stroke-width="3.788" d="M430.985 526S449 526 449 513.167v-43.62c0-7.703-25.735-5.136-25.735-5.136L375 472.107h63.707v15.402h-7.722V526z"/>
        <path fill="#C5C5C5" d="M430.985 526S449 526 449 513.168v-43.62c0-7.704-25.736-5.138-25.736-5.138L375 472.11h63.705v15.4h-7.72V526zM210.885 526S193 526 193 513.167v-43.62c0-7.703 25.55-5.136 25.55-5.136l56.45 8.355-71.779-.659v15.402h7.664V526z"/>
        <path stroke="#C5C5C5" stroke-linecap="round" stroke-linejoin="round" stroke-width="3.788" d="M210.885 526S193 526 193 513.167v-43.62c0-7.703 25.55-5.136 25.55-5.136l56.45 8.355-71.779-.659v15.402h7.664V526z"/>
        <path fill="#C5C5C5" d="M210.886 526S193 526 193 513.168v-43.62c0-7.704 25.55-5.138 25.55-5.138l56.45 8.356-71.779-.657v15.4h7.665V526z"/>
        <mask id="b" fill="#fff">
            <use xlink:href="#a"/>
        </mask>
        <path stroke="#C5C5C5" stroke-width="2.835" d="M240 177h163v-53H240z" mask="url(#b)"/>
        <path fill="#C5C5C5" d="M171 509h3V370h-3z" mask="url(#b)"/>
        <path stroke="#C5C5C5" stroke-linecap="round" stroke-linejoin="round" stroke-width="4.258" d="M241 445h161v-57H241z" mask="url(#b)"/>
        <path fill="#FEFEFE" d="M241 445h161v-57H241z" mask="url(#b)"/>
        <path stroke="#C5C5C5" stroke-linecap="round" stroke-linejoin="round" stroke-width="3.588" d="M288 103h66v-3h-66z" mask="url(#b)"/>
        <path fill="#FEFEFE" d="M288 103h66v-3h-66z" mask="url(#b)"/>
        <path stroke="#C5C5C5" stroke-linecap="round" stroke-linejoin="round" stroke-width="3.588" d="M315 91h14v-3h-14z" mask="url(#b)"/>
        <path fill="#C5C5C5" d="M315 91h14v-3h-14z" mask="url(#b)"/>
        <path stroke="#C5C5C5" stroke-linecap="round" stroke-linejoin="round" stroke-width="3.588" d="M327 97h2v-6h-2z" mask="url(#b)"/>
        <path fill="#C5C5C5" d="M327 97h2v-6h-2z" mask="url(#b)"/>
        <path stroke="#C5C5C5" stroke-linecap="round" stroke-linejoin="round" stroke-width="3.588" d="M315 97h2v-6h-2z" mask="url(#b)"/>
        <path fill="#C5C5C5" d="M315 97h12v-6h-12z" mask="url(#b)"/>
        <path stroke="#C5C5C5" stroke-linecap="round" stroke-linejoin="round" stroke-width="3.588" d="M288 100h66v-3h-66z" mask="url(#b)"/>
        <path fill="#C5C5C5" d="M288 100h66v-3h-66z" mask="url(#b)"/>
        <path stroke="#C5C5C5" stroke-linecap="round" stroke-linejoin="round" stroke-width="3.588" d="M292 132h57v-29h-57z" mask="url(#b)"/>
        <path fill="#C5C5C5" d="M292 132h57v-29h-57z" mask="url(#b)"/>
        <path stroke="#C5C5C5" stroke-linecap="round" stroke-linejoin="round" stroke-width="3.588" d="M288 106h66v-3h-66z" mask="url(#b)"/>
        <path fill="#C5C5C5" d="M288 106h66v-3h-66z" mask="url(#b)"/>
        <path stroke="#C5C5C5" stroke-linecap="round" stroke-linejoin="round" stroke-width="3.588" d="M310 109h6v-6h-6z" mask="url(#b)"/>
        <path fill="#C5C5C5" d="M310 109h6v-6h-6z" mask="url(#b)"/>
        <path stroke="#C5C5C5" stroke-linecap="round" stroke-linejoin="round" stroke-width="3.588" d="M327 109h6v-6h-6z" mask="url(#b)"/>
        <path fill="#C5C5C5" d="M327 109h6v-6h-6z" mask="url(#b)"/>
        <path stroke="#C5C5C5" stroke-linecap="round" stroke-linejoin="round" stroke-width="3.588" d="M310 103h6v-6h-6z" mask="url(#b)"/>
        <path fill="#C5C5C5" d="M310 103h6v-6h-6z" mask="url(#b)"/>
        <path stroke="#C5C5C5" stroke-linecap="round" stroke-linejoin="round" stroke-width="3.588" d="M327 103h6v-6h-6z" mask="url(#b)"/>
        <path fill="#C5C5C5" d="M327 103h6v-6h-6zM474 507h3V201h-3zM166 323h308v-3H166zM166 376h308v-3H166zM426 150.15L400.15 176l-2.15-2.157L423.849 148zM169 270h20v-3h-20z" mask="url(#b)"/>
        <path fill="#C5C5C5" d="M476 203.573L430.208 225 429 222.434 474.79 201zM166 509h3V201h-3z" mask="url(#b)"/>
        <path fill="#C5C5C5" d="M168.761 204L166 201.41 266.239 95 269 97.598z" mask="url(#b)"/>
        <path fill="#C5C5C5" d="M215 149.304L242.696 177l2.304-2.31L217.304 147zM166 203.573L211.798 225l1.202-2.566L167.21 201z" mask="url(#b)"/>
        <path fill="#C5C5C5" d="M175 265.504C175 346.415 240.596 412 321.507 412 402.42 412 468 346.415 468 265.504 468 184.59 402.42 119 321.507 119 240.597 119 175 184.59 175 265.504M462 454.761l-70.068 21.058-142.158.181L181 454.761V423h280.28z" mask="url(#b)"/>
        <path stroke="#C5C5C5" stroke-linecap="round" stroke-linejoin="round" stroke-width="4.414" d="M462 454.761l-70.068 21.058-142.158.181L181 454.761V423h280.28z" mask="url(#b)"/>
        <path fill="#C5C5C5" d="M462 454.762l-70.07 21.059-142.155.179L181 454.762V423h280.278z" mask="url(#b)"/>
        <path fill="#C5C5C5" d="M177 429h292v-6H177z" mask="url(#b)"/>
        <path stroke="#C5C5C5" stroke-linecap="round" stroke-linejoin="round" stroke-width="5.111" d="M177 429h292v-6H177z" mask="url(#b)"/>
        <path fill="#C5C5C5" d="M177 429h292v-6H177zM171 394h3V264h-3z" mask="url(#b)"/>
        <path fill="#C5C5C5" d="M171 368h6v-6h-6zM169 356h8v-3h-8zM171 455h8v-34h-8z" mask="url(#b)"/>
        <path stroke="#C5C5C5" stroke-linecap="round" stroke-linejoin="round" stroke-width="4.258" d="M171 455h8v-34h-8z" mask="url(#b)"/>
        <path fill="#C5C5C5" d="M171 455h8v-34h-8zM468 507h3V264h-3z" mask="url(#b)"/>
        <path fill="#C5C5C5" d="M465 368h6v-6h-6zM465 419h3v-50h-3zM465 356h8v-3h-8zM463 455h8v-34h-8z" mask="url(#b)"/>
        <path stroke="#C5C5C5" stroke-linecap="round" stroke-linejoin="round" stroke-width="4.258" d="M463 455h8v-34h-8z" mask="url(#b)"/>
        <path fill="#C5C5C5" d="M463 455h8v-34h-8zM266 98h110v-3H266z" mask="url(#b)"/>
        <path fill="#C5C5C5" d="M472.24 204l2.76-2.59L374.762 95 372 97.598zM319 460h6v-6h-6z" mask="url(#b)"/>
        <path stroke="#C5C5C5" stroke-linecap="round" stroke-linejoin="round" stroke-width="4.093" d="M319 460h6v-6h-6z" mask="url(#b)"/>
        <path fill="#C5C5C5" d="M319 460h6v-6h-6zM263 510h113v-21H263z" mask="url(#b)"/>
        <path stroke="#C5C5C5" stroke-linecap="round" stroke-linejoin="round" stroke-width="5.091" d="M263 510h113v-21H263z" mask="url(#b)"/>
        <path fill="#C5C5C5" d="M263 510h113v-21H263zM403 537h7v-57h-7z" mask="url(#b)"/>
        <path stroke="#C5C5C5" stroke-linecap="round" stroke-linejoin="round" stroke-width="3.788" d="M403 537h7v-57h-7z" mask="url(#b)"/>
        <path fill="#C5C5C5" d="M403 537h7v-57h-7zM232 537h7v-57h-7z" mask="url(#b)"/>
        <path stroke="#C5C5C5" stroke-linecap="round" stroke-linejoin="round" stroke-width="3.788" d="M232 537h7v-57h-7z" mask="url(#b)"/>
        <path fill="#C5C5C5" d="M232 537h7v-57h-7z" mask="url(#b)"/>
        <path fill="#C5C5C5" d="M210 519h219v-13H210z" mask="url(#b)"/>
        <path stroke="#C5C5C5" stroke-linecap="round" stroke-linejoin="round" stroke-width="3.788" d="M210 519h219v-13H210z" mask="url(#b)"/>
        <path fill="#C5C5C5" d="M210 519h219v-13H210zM249 487h144v-13H249z" mask="url(#b)"/>
        <path stroke="#C5C5C5" stroke-linecap="round" stroke-linejoin="round" stroke-width="3.788" d="M249 487h144v-13H249z" mask="url(#b)"/>
        <path fill="#C5C5C5" d="M249 487h144v-13H249zM223 549h13v-69h-13z" mask="url(#b)"/>
        <path stroke="#C5C5C5" stroke-linecap="round" stroke-linejoin="round" stroke-width="3.788" d="M223 549h13v-69h-13z" mask="url(#b)"/>
        <path fill="#C5C5C5" d="M223 549h13v-69h-13zM406 549h13v-69h-13z" mask="url(#b)"/>
        <path stroke="#C5C5C5" stroke-linecap="round" stroke-linejoin="round" stroke-width="3.788" d="M406 549h13v-69h-13z" mask="url(#b)"/>
        <path fill="#C5C5C5" d="M406 549h13v-69h-13zM308 492h26v-32h-26z" mask="url(#b)"/>
        <path stroke="#C5C5C5" stroke-linecap="round" stroke-linejoin="round" stroke-width="3.788" d="M308 492h26v-32h-26z" mask="url(#b)"/>
        <path fill="#C5C5C5" d="M308 492h26v-32h-26z" mask="url(#b)"/>
        <path fill="#C5C5C5" d="M304 467.089c0-2.814 2.388-5.089 5.331-5.089h5.337c2.95 0 5.332 2.275 5.332 5.089V490h-10.669c-2.943 0-5.331-2.285-5.331-5.094v-17.817z" mask="url(#b)"/>
        <path stroke="#C5C5C5" stroke-linecap="round" stroke-linejoin="round" stroke-width="3.788" d="M304 467.089c0-2.814 2.388-5.089 5.331-5.089h5.337c2.95 0 5.332 2.275 5.332 5.089V490h-10.669c-2.943 0-5.331-2.285-5.331-5.094v-17.817z" mask="url(#b)"/>
        <path fill="#C5C5C5" d="M304 467.088c0-2.814 2.388-5.088 5.331-5.088h5.337c2.95 0 5.332 2.274 5.332 5.088V490h-10.669c-2.943 0-5.331-2.287-5.331-5.095v-17.817z" mask="url(#b)"/>
        <path fill="#C5C5C5" d="M306 475h7v-7h-7z" mask="url(#b)"/>
        <path stroke="#C5C5C5" stroke-linecap="round" stroke-linejoin="round" stroke-width="3.788" d="M306 475h7v-7h-7z" mask="url(#b)"/>
        <path fill="#C5C5C5" d="M306 475h7v-7h-7z" mask="url(#b)"/>
        <path fill="#FEFEFE" d="M327 499h10v-16h-10z" mask="url(#b)"/>
        <path stroke="#C5C5C5" stroke-linecap="round" stroke-linejoin="round" stroke-width="3.788" d="M327 499h10v-16h-10z" mask="url(#b)"/>
        <path fill="#FEFEFE" d="M327 499h10v-16h-10z" mask="url(#b)"/>
        <path fill="#FEFEFE" d="M327 499h10v-6h-10z" mask="url(#b)"/>
        <path stroke="#C5C5C5" stroke-linecap="round" stroke-linejoin="round" stroke-width="3.788" d="M327 499h10v-6h-10z" mask="url(#b)"/>
        <path fill="#FEFEFE" d="M327 499h10v-6h-10z" mask="url(#b)"/>
        <path fill="#C5C5C5" d="M313 488h3v-23h-3z" mask="url(#b)"/>
        <path stroke="#C5C5C5" stroke-linecap="round" stroke-linejoin="round" stroke-width="3.788" d="M313 488h3v-23h-3z" mask="url(#b)"/>
        <path fill="#C5C5C5" d="M313 488h3v-23h-3zM321 478h7v-18h-7z" mask="url(#b)"/>
        <path stroke="#C5C5C5" stroke-linecap="round" stroke-linejoin="round" stroke-width="3.788" d="M321 478h7v-18h-7z" mask="url(#b)"/>
        <path fill="#C5C5C5" d="M321 478h7v-18h-7zM347 485.925c0 2.802-2.386 5.075-5.33 5.075h-5.339c-2.944 0-5.331-2.273-5.331-5.075V458h10.67c2.944 0 5.33 2.267 5.33 5.075v22.85z" mask="url(#b)"/>
        <path stroke="#C5C5C5" stroke-linecap="round" stroke-linejoin="round" stroke-width="3.788" d="M347 485.925c0 2.802-2.386 5.075-5.33 5.075h-5.339c-2.944 0-5.331-2.273-5.331-5.075V458h10.67c2.944 0 5.33 2.267 5.33 5.075v22.85z" mask="url(#b)"/>
        <path fill="#C5C5C5" d="M347 485.926c0 2.8-2.386 5.074-5.33 5.074h-5.339c-2.944 0-5.331-2.273-5.331-5.074V458h10.67c2.944 0 5.33 2.267 5.33 5.075v22.85z" mask="url(#b)"/>
        <path fill="#C5C5C5" d="M331 461h10v-3h-10z" mask="url(#b)"/>
        <path stroke="#C5C5C5" stroke-linecap="round" stroke-linejoin="round" stroke-width="3.788" d="M331 461h10v-3h-10z" mask="url(#b)"/>
        <path fill="#C5C5C5" d="M331 461h10v-3h-10z" mask="url(#b)"/>
        <path fill="#C5C5C5" d="M339 488h3v-28h-3z" mask="url(#b)"/>
        <path stroke="#C5C5C5" stroke-linecap="round" stroke-linejoin="round" stroke-width="3.788" d="M339 488h3v-28h-3z" mask="url(#b)"/>
        <path fill="#C5C5C5" d="M339 488h3v-28h-3zM306 473h10v-3h-10z" mask="url(#b)"/>
        <path stroke="#C5C5C5" stroke-linecap="round" stroke-linejoin="round" stroke-width="3.788" d="M306 473h10v-3h-10z" mask="url(#b)"/>
        <path fill="#C5C5C5" d="M306 473h10v-3h-10z" mask="url(#b)"/>
        <path fill="#FEFEFE" d="M346 508h3v-20h-3z" mask="url(#b)"/>
        <path stroke="#C5C5C5" stroke-linecap="round" stroke-linejoin="round" stroke-width="3.788" d="M346 508h3v-20h-3z" mask="url(#b)"/>
        <path fill="#FEFEFE" d="M346 508h3v-20h-3z" mask="url(#b)"/>
        <path fill="#FEFEFE" d="M343 491h6v-3h-6z" mask="url(#b)"/>
        <path stroke="#C5C5C5" stroke-linecap="round" stroke-linejoin="round" stroke-width="3.788" d="M343 491h6v-3h-6z" mask="url(#b)"/>
        <path fill="#FEFEFE" d="M343 491h6v-3h-6zM342 520.257l2.387.743L348 508.743l-2.387-.743z" mask="url(#b)"/>
        <path stroke="#C5C5C5" stroke-linecap="round" stroke-linejoin="round" stroke-width="3.788" d="M342 520.257l2.387.743L348 508.743l-2.387-.743z" mask="url(#b)"/>
        <path fill="#FEFEFE" d="M342 520.257l2.387.743L348 508.743l-2.387-.743zM313 501h3v-13h-3z" mask="url(#b)"/>
        <path stroke="#C5C5C5" stroke-linecap="round" stroke-linejoin="round" stroke-width="3.788" d="M313 501h3v-13h-3z" mask="url(#b)"/>
        <path fill="#FEFEFE" d="M313 501h3v-13h-3z" mask="url(#b)"/>
        <path fill="#C5C5C5" d="M208 531h16v-57h-16z" mask="url(#b)"/>
        <path stroke="#C5C5C5" stroke-linecap="round" stroke-linejoin="round" stroke-width="3.788" d="M208 531h16v-57h-16z" mask="url(#b)"/>
        <path fill="#C5C5C5" d="M208 531h16v-57h-16zM419 531h16v-57h-16z" mask="url(#b)"/>
        <path stroke="#C5C5C5" stroke-linecap="round" stroke-linejoin="round" stroke-width="3.788" d="M419 531h16v-57h-16z" mask="url(#b)"/>
        <path fill="#C5C5C5" d="M419 531h16v-57h-16zM406 556h10v-80h-10z" mask="url(#b)"/>
        <path stroke="#C5C5C5" stroke-linecap="round" stroke-linejoin="round" stroke-width="3.725" d="M406 556h10v-80h-10z" mask="url(#b)"/>
        <path fill="#C5C5C5" d="M406 556h10v-80h-10z" mask="url(#b)"/>
        <path fill="#C5C5C5" d="M406 561h6v-85h-6z" mask="url(#b)"/>
        <path stroke="#C5C5C5" stroke-linecap="round" stroke-linejoin="round" stroke-width="3.788" d="M406 561h6v-85h-6z" mask="url(#b)"/>
        <path fill="#C5C5C5" d="M406 561h6v-85h-6zM226 557h10v-79h-10z" mask="url(#b)"/>
        <path stroke="#C5C5C5" stroke-linecap="round" stroke-linejoin="round" stroke-width="3.878" d="M226 557h10v-79h-10z" mask="url(#b)"/>
        <path fill="#C5C5C5" d="M226 557h10v-79h-10z" mask="url(#b)"/>
        <path fill="#C5C5C5" d="M232 561h6v-83h-6z" mask="url(#b)"/>
        <path stroke="#C5C5C5" stroke-linecap="round" stroke-linejoin="round" stroke-width="3.679" d="M232 561h6v-83h-6z" mask="url(#b)"/>
        <path fill="#C5C5C5" d="M232 561h6v-83h-6zM240 525h6v-28h-6z" mask="url(#b)"/>
        <path stroke="#C5C5C5" stroke-linecap="round" stroke-linejoin="round" stroke-width="1.5" d="M240 525h6v-28h-6z" mask="url(#b)"/>
        <path fill="#C5C5C5" d="M240 525h6v-28h-6zM399 525h6v-28h-6z" mask="url(#b)"/>
        <path stroke="#C5C5C5" stroke-linecap="round" stroke-linejoin="round" stroke-width="1.5" d="M399 525h6v-28h-6z" mask="url(#b)"/>
        <path fill="#C5C5C5" d="M399 525h6v-28h-6z" mask="url(#b)"/>
        <path fill="#EF8162" d="M537.144 1.328c22.44 2.837 38.367 23.373 35.528 45.818-2.838 22.44-23.375 38.365-45.815 35.526-22.442-2.838-38.368-23.375-35.53-45.816 2.841-22.445 23.377-38.368 45.817-35.528" mask="url(#b)"/>
        <path stroke="#FEFEFE" stroke-width=".567" d="M537.144 1.328c22.44 2.837 38.367 23.373 35.528 45.818-2.838 22.44-23.375 38.365-45.815 35.526-22.442-2.838-38.368-23.375-35.53-45.816 2.841-22.445 23.377-38.368 45.817-35.528z" mask="url(#b)"/>
        <path stroke="#FEFEFE" stroke-linecap="round" stroke-linejoin="round" stroke-width="1.417" d="M537.144 1.329c22.457 2.84 38.368 23.355 35.528 45.817-2.84 22.458-23.358 38.366-45.817 35.526-22.458-2.842-38.368-23.356-35.527-45.816 2.842-22.461 23.357-38.37 45.816-35.527" mask="url(#b)"/>
        <path stroke="#FEFEFE" stroke-width="1.417" d="M537.144 1.329c22.457 2.84 38.368 23.355 35.528 45.817-2.84 22.458-23.358 38.366-45.817 35.526-22.458-2.842-38.368-23.356-35.527-45.816 2.842-22.461 23.357-38.37 45.816-35.527M515.75 23.225a2.387 2.387 0 0 1 2.068 2.665 2.386 2.386 0 1 1-2.068-2.666" mask="url(#b)"/>
        <path fill="#EF8162" d="M515.813 23.02a2.501 2.501 0 0 1 2.167 2.793 2.501 2.501 0 1 1-2.167-2.793" mask="url(#b)"/>
        <path stroke="#FEFEFE" stroke-linecap="round" stroke-linejoin="round" stroke-width=".597" d="M515.813 23.02a2.501 2.501 0 0 1 2.167 2.793 2.501 2.501 0 1 1-2.167-2.793z" mask="url(#b)"/>
        <path fill="#EF8162" d="M537.642 6.296c20.27 2.564 34.626 21.079 32.062 41.348-2.564 20.266-21.077 34.623-41.346 32.06-20.267-2.563-34.625-21.079-32.062-41.344 2.565-20.27 21.08-34.628 41.346-32.064m-.425 3.368c18.408 2.327 31.446 19.145 29.117 37.553-2.329 18.408-19.14 31.446-37.551 29.117-18.408-2.327-31.446-19.141-29.118-37.55 2.327-18.407 19.144-31.45 37.552-29.12" mask="url(#b)"/>
        <path stroke="#FEFEFE" stroke-linecap="round" stroke-linejoin="round" stroke-width="1.134" d="M537.642 6.296c20.27 2.564 34.626 21.079 32.062 41.348-2.564 20.266-21.077 34.623-41.346 32.06-20.267-2.563-34.625-21.079-32.062-41.344 2.565-20.27 21.08-34.628 41.346-32.064zm-.425 3.368c18.408 2.327 31.446 19.145 29.117 37.553-2.329 18.408-19.14 31.446-37.551 29.117-18.408-2.327-31.446-19.141-29.118-37.55 2.327-18.407 19.144-31.45 37.552-29.12z" mask="url(#b)"/>
        <path fill="#EF8162" d="M535.828 8.276c18.884 2.388 32.285 19.668 29.896 38.554-2.389 18.883-19.67 32.282-38.554 29.894-18.882-2.388-32.283-19.669-29.894-38.552 2.389-18.886 19.669-32.285 38.552-29.896m-20.901 14.773a2.656 2.656 0 1 1-.667 5.27 2.656 2.656 0 0 1 .667-5.27" mask="url(#b)"/>
        <path stroke="#FEFEFE" stroke-width=".216" d="M535.828 8.276c18.884 2.388 32.285 19.668 29.896 38.554-2.389 18.883-19.67 32.282-38.554 29.894-18.882-2.388-32.283-19.669-29.894-38.552 2.389-18.886 19.669-32.285 38.552-29.896zm-20.901 14.773a2.656 2.656 0 1 1-.667 5.27 2.656 2.656 0 0 1 .667-5.27z" mask="url(#b)"/>
        <path fill="#EF8162" d="M535.828 8.276c18.884 2.388 32.285 19.667 29.896 38.555-2.389 18.883-19.67 32.282-38.554 29.893-18.882-2.388-32.283-19.668-29.894-38.551 2.389-18.887 19.669-32.286 38.552-29.897" mask="url(#b)"/>
        <path stroke="#FEFEFE" stroke-linecap="round" stroke-linejoin="round" stroke-width=".709" d="M535.828 8.276c18.884 2.388 32.285 19.667 29.896 38.555-2.389 18.883-19.67 32.282-38.554 29.893-18.882-2.388-32.283-19.668-29.894-38.551 2.389-18.887 19.669-32.286 38.552-29.897z" mask="url(#b)"/>
        <path fill="#EF8162" d="M531.582 53.444a10.76 10.76 0 0 0 5.718-.843c1.516-.673.774-.675 1.563.435.36.504.925.862 1.592.946 1.259.157 2.41-.722 2.568-1.963a2.242 2.242 0 0 0-.512-1.734c-1.329-1.58-1.109-.393.027-2.687a10.477 10.477 0 0 0 .965-6.2c-.457-3.012-1.132-1.644.717-3.248a2.27 2.27 0 0 0 .762-1.417c.158-1.244-.734-2.378-1.992-2.535a2.317 2.317 0 0 0-1.458.297c-2.04 1.195-.912.615-3.395-.755a10.844 10.844 0 0 0-7.424-1.113c-2.734.57-2.136 1.646-3.87.003a2.295 2.295 0 0 0-1.301-.612c-1.258-.158-2.407.723-2.565 1.966a2.23 2.23 0 0 0 .34 1.502c1.347 2.084.706.91-.376 3.679-.304.78-.517 1.607-.63 2.475a10.43 10.43 0 0 0 .175 3.637c.632 2.778.705 1.102-.853 2.712-.326.341-.55.779-.615 1.282-.159 1.24.733 2.375 1.99 2.532a2.305 2.305 0 0 0 1.587-.38c1.775-1.2 1.218-.203 3.395.917 1.09.56 2.3.943 3.592 1.104" mask="url(#b)"/>
        <path stroke="#FEFEFE" stroke-width=".216" d="M531.582 53.444a10.76 10.76 0 0 0 5.718-.843c1.516-.673.774-.675 1.563.435.36.504.925.862 1.592.946 1.259.157 2.41-.722 2.568-1.963a2.242 2.242 0 0 0-.512-1.734c-1.329-1.58-1.109-.393.027-2.687a10.477 10.477 0 0 0 .965-6.2c-.457-3.012-1.132-1.644.717-3.248a2.27 2.27 0 0 0 .762-1.417c.158-1.244-.734-2.378-1.992-2.535a2.317 2.317 0 0 0-1.458.297c-2.04 1.195-.912.615-3.395-.755a10.844 10.844 0 0 0-7.424-1.113c-2.734.57-2.136 1.646-3.87.003a2.295 2.295 0 0 0-1.301-.612c-1.258-.158-2.407.723-2.565 1.966a2.23 2.23 0 0 0 .34 1.502c1.347 2.084.706.91-.376 3.679-.304.78-.517 1.607-.63 2.475a10.43 10.43 0 0 0 .175 3.637c.632 2.778.705 1.102-.853 2.712-.326.341-.55.779-.615 1.282-.159 1.24.733 2.375 1.99 2.532a2.305 2.305 0 0 0 1.587-.38c1.775-1.2 1.218-.203 3.395.917 1.09.56 2.3.943 3.592 1.104z" mask="url(#b)"/>
        <path fill="#EF8162" d="M531.582 53.444a10.761 10.761 0 0 0 5.718-.843c1.516-.673.774-.674 1.563.435.36.505.925.863 1.592.946 1.259.157 2.408-.722 2.568-1.962a2.24 2.24 0 0 0-.512-1.734c-1.328-1.582-1.109-.393.027-2.688a10.471 10.471 0 0 0 .964-6.2c-.456-3.01-1.13-1.644.717-3.248.405-.352.689-.849.763-1.417.158-1.244-.735-2.378-1.992-2.536a2.317 2.317 0 0 0-1.458.298c-2.04 1.195-.912.615-3.394-.756a10.752 10.752 0 0 0-3.872-1.255 10.881 10.881 0 0 0-3.553.143c-2.733.57-2.136 1.646-3.87.003a2.295 2.295 0 0 0-1.301-.612c-1.257-.157-2.407.723-2.565 1.965-.07.544.062 1.072.34 1.502 1.347 2.086.706.911-.376 3.68a10.443 10.443 0 0 0-.63 2.474c-.158 1.25-.09 2.472.175 3.639.633 2.777.706 1.102-.852 2.711-.327.34-.552.778-.615 1.282-.16 1.24.732 2.375 1.989 2.532a2.302 2.302 0 0 0 1.587-.38c1.775-1.2 1.218-.203 3.395.917 1.091.56 2.3.943 3.592 1.104" mask="url(#b)"/>
        <path stroke="#FEFEFE" stroke-linecap="round" stroke-linejoin="round" stroke-width=".709" d="M531.582 53.444a10.761 10.761 0 0 0 5.718-.843c1.516-.673.774-.674 1.563.435.36.505.925.863 1.592.946 1.259.157 2.408-.722 2.568-1.962a2.24 2.24 0 0 0-.512-1.734c-1.328-1.582-1.109-.393.027-2.688a10.471 10.471 0 0 0 .964-6.2c-.456-3.01-1.13-1.644.717-3.248.405-.352.689-.849.763-1.417.158-1.244-.735-2.378-1.992-2.536a2.317 2.317 0 0 0-1.458.298c-2.04 1.195-.912.615-3.394-.756a10.752 10.752 0 0 0-3.872-1.255 10.881 10.881 0 0 0-3.553.143c-2.733.57-2.136 1.646-3.87.003a2.295 2.295 0 0 0-1.301-.612c-1.257-.157-2.407.723-2.565 1.965-.07.544.062 1.072.34 1.502 1.347 2.086.706.911-.376 3.68a10.443 10.443 0 0 0-.63 2.474c-.158 1.25-.09 2.472.175 3.639.633 2.777.706 1.102-.852 2.711-.327.34-.552.778-.615 1.282-.16 1.24.732 2.375 1.989 2.532a2.302 2.302 0 0 0 1.587-.38c1.775-1.2 1.218-.203 3.395.917 1.091.56 2.3.943 3.592 1.104z" mask="url(#b)"/>
        <path fill="#EF8162" d="M531.31 51.924c5.202.658 9.955-3.028 10.614-8.23.658-5.206-3.029-9.96-8.232-10.618-5.204-.658-9.958 3.028-10.616 8.233-.658 5.203 3.029 9.957 8.233 10.615" mask="url(#b)"/>
        <path stroke="#FEFEFE" stroke-width=".216" d="M531.31 51.924c5.202.658 9.955-3.028 10.614-8.23.658-5.206-3.029-9.96-8.232-10.618-5.204-.658-9.958 3.028-10.616 8.233-.658 5.203 3.029 9.957 8.233 10.615z" mask="url(#b)"/>
        <path fill="#EF8162" d="M531.31 51.924c5.202.658 9.955-3.028 10.614-8.23.657-5.206-3.029-9.96-8.232-10.618-5.204-.659-9.958 3.028-10.616 8.233-.658 5.204 3.029 9.957 8.233 10.615" mask="url(#b)"/>
        <path stroke="#FEFEFE" stroke-linecap="round" stroke-linejoin="round" stroke-width=".709" d="M531.31 51.924c5.202.658 9.955-3.028 10.614-8.23.657-5.206-3.029-9.96-8.232-10.618-5.204-.659-9.958 3.028-10.616 8.233-.658 5.204 3.029 9.957 8.233 10.615z" mask="url(#b)"/>
        <path fill="#EF8162" d="M531.248 47.952a6 6 0 1 0 1.505-11.904 6 6 0 0 0-1.505 11.904" mask="url(#b)"/>
        <path stroke="#FEFEFE" stroke-width=".216" d="M531.248 47.952a6 6 0 1 0 1.505-11.904 6 6 0 0 0-1.505 11.904z" mask="url(#b)"/>
        <path fill="#EF8162" d="M531.249 47.952a6 6 0 1 0 1.502-11.903 6 6 0 0 0-1.502 11.903" mask="url(#b)"/>
        <path stroke="#FEFEFE" stroke-linecap="round" stroke-linejoin="round" stroke-width="1.417" d="M531.249 47.952a6 6 0 1 0 1.502-11.903 6 6 0 0 0-1.502 11.903z" mask="url(#b)"/>
        <path fill="#EF8162" d="M424.57 360L369 305.386l4.43-4.386L429 355.611zM391 240h128v-6H391zM271.476 211L223 162.525l4.524-4.525L276 206.475zM380.057 183.477l17.153.182-.383-16.865-.075-3.24 3.22.035 17.152.18-.384-16.863-.075-3.24 3.22.034 17.152.182-.383-16.865-.075-3.24 3.22.035 17.153.18-.385-16.863-.073-3.24 3.22.033 17.152.183-.385-16.865-.074-3.24 3.22.034L500 84.25l-.057 6.274-17.154-.183.386 16.866.073 3.24-3.22-.035-17.152-.182.385 16.865.074 3.24-3.22-.034-17.152-.183.383 16.866.075 3.24-3.22-.036-17.152-.18.384 16.864.074 3.24-3.22-.033-17.153-.184.384 16.866.074 3.239-3.22-.033L380 189.75zM139.122 422.248l17.138.359-.21-16.829-.04-3.233 3.217.066 17.138.36-.21-16.829-.04-3.235 3.216.068 17.139.361-.21-16.83-.042-3.234 3.218.067 17.138.36-.21-16.83-.04-3.234 3.216.07 17.139.358-.211-16.83-.04-3.233 3.217.068 20.355.427-.121 6.257-17.14-.359.212 16.83.04 3.235-3.217-.07-17.138-.358.21 16.83.04 3.232-3.217-.067-17.138-.36.21 16.83.04 3.233-3.217-.066-17.138-.36.211 16.829.04 3.234-3.217-.068-17.139-.36.211 16.83.041 3.233-3.218-.066-20.355-.43z" mask="url(#b)"/>
        <path fill="#214294" d="M306.688 388.306v74.205H288V489h69v-26.489h-19.047V362h-48.336v26.306zM178.11 244.633L130 315.07V320h90v-29.21h-38.049l25.794-35.903c19.024-29.454 2.926-65.783-33.842-64.87-22.683.548-41.342 14.057-40.975 41.624h27.804c0-8.946 5.305-12.414 12.622-12.414 16.097 0 11.158 16.826 4.756 25.436v-.03zM319.319 194C293.574 194 272 210 272 237.788v44.424C272 310.001 293.574 326 319.319 326 345.607 326 367 310.001 367 282.212v-44.424C367 210 345.607 194 319.319 194m0 103.09c-9.245 0-16.498-5.241-16.498-15.605v-43.152c0-9.999 7.253-15.243 16.498-15.243 9.608 0 17.042 5.244 17.042 15.243v43.152c0 10.364-7.434 15.606-17.042 15.606M454.252 366l-36.556 61.465C412.81 434.898 411 443.6 411 452.303 411 482.038 432.354 496 459.681 496 486.646 496 508 482.038 508 452.303c0-26.29-17.735-42.607-44.519-40.612L490.265 366h-36.013zm5.429 102.44c-9.772 0-16.287-6.89-16.287-16.137 0-8.521 5.429-15.955 16.287-15.955 10.677 0 15.743 7.434 15.743 15.955 0 9.247-5.609 16.137-15.743 16.137zM62.983 423.957c6.61-6.61 17.427-6.61 24.036 0 6.608 6.61 19.664 12.018 29.014 12.018 9.345 0 16.992 7.646 16.992 16.995 0 9.348 5.408 22.403 12.02 29.013 6.607 6.609 6.607 17.426 0 24.035-6.612 6.608-12.02 19.666-12.02 29.013 0 9.348-7.647 16.995-16.992 16.995-9.35 0-22.406 5.408-29.014 12.018-6.61 6.608-17.426 6.608-24.036 0-6.609-6.61-19.665-12.018-29.014-12.018-9.346 0-16.994-7.647-16.994-16.995 0-9.347-5.408-22.405-12.017-29.013-6.61-6.609-6.61-17.426 0-24.035 6.609-6.61 12.017-19.665 12.017-29.013 0-9.349 7.648-16.995 16.994-16.995 9.349 0 22.405-5.408 29.014-12.018" mask="url(#b)"/>
        <path fill="#FEFEFE" d="M72.905 452v-5.117L78.634 452H80l-6.13-5.472L79.276 442H77.95l-5.045 4.213V442H72v10zM37.98 470c1.625 0 2.98-.442 4.043-1.348 1.063-.907 1.604-2.066 1.604-3.455 0-1.35-.5-2.466-1.5-3.33-1-.863-2.251-1.305-3.773-1.305-1.041 0-1.936.106-2.687.316l.688-4.972h6.251V455h-7.002l-.958 7.078a10.39 10.39 0 0 1 3.5-.589c1.355 0 2.46.358 3.272 1.075.833.694 1.251 1.58 1.251 2.633 0 1.116-.437 2.043-1.333 2.78-.897.738-2.022 1.096-3.377 1.096-1.522 0-2.855-.358-3.959-1.054v1.013c1.104.652 2.418.968 3.98.968zm9.231-5.5h5.627v-.863H47.21v.864zm10.608-1.586c-.063 1.62-.167 2.733-.5 3.996-.314 1.26-.98 1.952-1.918 1.952-.167 0-.313 0-.416-.02v.884c.103.02.228.02.374.02 1.397 0 2.334-.8 2.772-2.313.229-.755.375-1.47.458-2.163.084-.694.147-1.556.168-2.588l.062-2.12h5.147v9.164h.937v-10.029h-7.002l-.082 3.217zM73.364 470c1.438 0 2.542-.295 3.334-.907v-.926c-.938.632-2.022.948-3.21.948-1.332 0-2.437-.4-3.292-1.18-.854-.78-1.292-1.812-1.313-3.076h8.586v-.316c0-1.095-.312-2.19-.978-3.265-.647-1.095-1.94-1.832-3.606-1.832-1.458 0-2.647.505-3.564 1.516-.916.99-1.375 2.254-1.375 3.771 0 1.538.52 2.802 1.543 3.792 1.02.99 2.312 1.475 3.875 1.475zm-4.46-5.962c.063-.97.459-1.833 1.146-2.57.71-.759 1.647-1.137 2.814-1.137 2.667 0 3.667 2.253 3.667 3.707h-7.627zm14.692 5.708v-9.184h3.792v-.865h-8.523v.865h3.793v9.184h.938zm7.147 0l7.107-8.594v8.594h.937v-10.049h-.855l-7.126 8.617v-8.617h-.938v10.05h.875zm20.381.254c1.396 0 2.562-.505 3.48-1.496.937-1.01 1.396-2.275 1.396-3.771 0-1.517-.459-2.78-1.376-3.771-.917-1.011-2.083-1.516-3.5-1.516-1.334 0-2.46.462-3.356 1.368-.896.906-1.396 2.065-1.48 3.455h-2.792v-4.572h-.937v10.05h.937v-4.613h2.772c.104 1.41.604 2.57 1.5 3.495.896.907 2.022 1.371 3.356 1.371zm0-.885c-1.146 0-2.105-.422-2.855-1.242-.73-.843-1.105-1.898-1.105-3.14 0-1.265.376-2.317 1.105-3.139.75-.842 1.71-1.263 2.855-1.263 1.146 0 2.083.42 2.813 1.263.75.822 1.125 1.874 1.125 3.139 0 1.242-.376 2.297-1.125 3.14-.73.82-1.667 1.242-2.813 1.242zM27.936 487.76v-4.87l5.926 4.87h1.414l-6.341-5.209 5.593-4.31h-1.373l-5.219 4.01v-4.01H27v9.519h.936zm10.584-1.776c-.812-.799-1.227-1.797-1.227-2.973 0-1.18.415-2.176 1.227-2.975.831-.799 1.85-1.198 3.077-1.198 1.226 0 2.245.399 3.056 1.198.831.799 1.248 1.796 1.248 2.975 0 1.176-.417 2.174-1.248 2.973-.81.779-1.83 1.178-3.056 1.178-1.227 0-2.246-.399-3.077-1.178zm6.86.559c.977-.978 1.477-2.157 1.477-3.532 0-1.378-.5-2.555-1.477-3.534-.976-.978-2.224-1.477-3.783-1.477-1.56 0-2.828.5-3.806 1.477-.977.98-1.455 2.156-1.455 3.534 0 1.375.478 2.554 1.455 3.532.978.978 2.246 1.457 3.806 1.457 1.559 0 2.807-.48 3.783-1.457zm5.428 1.217v-8.243l4.18 4.57h.352l4.2-4.57v8.243h.937v-9.52h-.895l-4.407 4.79-4.409-4.79h-.894v9.52h.936zm14.367 0v-8.702h6.758v8.702h.935v-9.52H64.24v9.52h.936zm14.7-.598c-1.747 0-3.118-.759-3.118-2.295 0-1.378 1.289-2.296 3.389-2.296 1.247 0 2.454.38 3.64 1.117v1.578c-.812 1.037-2.247 1.896-3.91 1.896zm-.27.838c1.768 0 3.181-.599 4.263-1.816.084 1.097.811 1.655 1.705 1.655.353 0 .623-.06.81-.159v-.738c-.166.08-.353.12-.582.12-.664 0-1.081-.54-1.081-1.357v-4.232c0-2.315-1.725-3.473-4.304-3.473-1.352 0-2.537.32-3.535.939v.917c1.06-.678 2.183-1.018 3.368-1.018 2.246 0 3.536.878 3.536 2.715v1.258c-1.185-.699-2.495-1.039-3.888-1.039-1.186 0-2.163.28-2.953.859-.77.56-1.165 1.317-1.165 2.255 0 .977.375 1.737 1.123 2.295.77.54 1.664.819 2.704.819zm10.21-.24v-4.49h6.924v4.49h.935v-9.52h-.935v4.21h-6.925v-4.21h-.936v9.52h.936zm12.496 0l7.09-8.142v8.142h.936v-9.52h-.852l-7.112 8.163v-8.163h-.936v9.52h.874zm12.662 0l7.091-8.142v8.142H123v-9.52h-.853l-7.111 8.163v-8.163h-.936v9.52h.873zM36 540l.015-.557 3.68-3.691c.803-.804 1.369-1.453 1.697-1.964.327-.507.492-1.095.492-1.744 0-1.406-1.028-2.364-2.592-2.364-1.132 0-2.16.51-3.068 1.53v-.88c.848-.881 1.89-1.33 3.128-1.33.938 0 1.712.279 2.323.835.61.556.908 1.282.908 2.162a3.71 3.71 0 0 1-.522 1.946c-.342.572-.937 1.3-1.786 2.15l-3.217 3.242H43V540h-7zM49.5 539.331c1.088 0 1.985-.456 2.69-1.366.72-.927 1.074-2.082 1.074-3.466 0-1.382-.353-2.537-1.074-3.448-.705-.927-1.602-1.383-2.69-1.383-1.09 0-1.986.456-2.708 1.383-.704.911-1.056 2.066-1.056 3.448 0 1.384.352 2.539 1.056 3.466.722.91 1.619 1.366 2.708 1.366m-3.252-.896c-.833-1.048-1.248-2.37-1.248-3.936 0-1.565.415-2.871 1.248-3.92.85-1.047 1.922-1.579 3.252-1.579 1.313 0 2.385.532 3.234 1.58.85 1.048 1.266 2.354 1.266 3.92 0 1.565-.416 2.887-1.266 3.935-.849 1.049-1.921 1.565-3.234 1.565-1.33 0-2.402-.516-3.252-1.565M60.116 540v-10.216L57 531.341v-.74L60.175 529H61v11zM65.116 540v-10.216L62 531.341v-.74L65.173 529H66v11zM89 511l.015-.557 3.679-3.691c.804-.804 1.37-1.452 1.698-1.963.327-.508.49-1.095.49-1.744 0-1.407-1.026-2.364-2.59-2.364-1.133 0-2.16.51-3.07 1.529v-.88c.85-.881 1.892-1.33 3.129-1.33.939 0 1.714.279 2.324.835.61.557.908 1.283.908 2.163 0 .725-.178 1.375-.52 1.945-.344.573-.94 1.3-1.788 2.15l-3.218 3.242H96V511h-7zM102.5 510.331c1.09 0 1.986-.456 2.691-1.366.72-.927 1.073-2.082 1.073-3.464 0-1.384-.352-2.539-1.073-3.45-.705-.927-1.602-1.382-2.691-1.382-1.09 0-1.986.455-2.707 1.382-.705.911-1.057 2.066-1.057 3.45 0 1.382.352 2.537 1.057 3.464.72.91 1.618 1.366 2.707 1.366m-3.251-.895C98.416 508.387 98 507.065 98 505.5c0-1.566.416-2.873 1.249-3.922.849-1.047 1.921-1.579 3.251-1.579 1.313 0 2.385.532 3.235 1.58.85 1.048 1.265 2.355 1.265 3.92s-.416 2.887-1.265 3.936c-.85 1.048-1.922 1.564-3.235 1.564-1.33 0-2.402-.516-3.251-1.564M111.115 511v-10.214L108 502.341v-.74l3.174-1.601H112v11zM121.566 509.526c.525-.547.782-1.23.782-2.051 0-.804-.257-1.458-.782-1.96-.525-.501-1.163-.743-1.93-.743-.668 0-1.265.227-1.804.668a3.553 3.553 0 0 0-1.122 1.67c.227 2.02 1.222 3.221 2.968 3.221.752 0 1.376-.274 1.888-.805m-4.572.167c-.668-.865-.994-2.097-.994-3.66 0-1.748.383-3.176 1.164-4.315.78-1.14 1.804-1.718 3.082-1.718.795 0 1.476.214 2.058.655v.682a3.388 3.388 0 0 0-2.015-.667c-.795 0-1.477.258-2.031.775-1.122 1.017-1.604 2.642-1.604 4.602.496-1.109 1.69-1.944 3.124-1.944.895 0 1.647.318 2.271.958.639.622.951 1.426.951 2.399 0 1.018-.312 1.868-.95 2.537-.625.67-1.407 1.003-2.358 1.003-1.136 0-2.03-.441-2.698-1.307M65.757 520.686c1.234-1.475 2.644-.928 4.088-.368 1.233.479 2.498.969 3.512-.243.85-1.014.244-2.092-.376-3.195-.8-1.426-1.622-2.89-.222-4.562 1.234-1.477 2.645-.93 4.088-.369 1.234.479 2.498.97 3.513-.244.849-1.013.243-2.09-.376-3.193-.8-1.426-1.623-2.89-.223-4.563 1.234-1.476 2.645-.929 4.088-.368 1.233.479 2.499.97 3.513-.244l.638.559c-1.399 1.671-2.943 1.072-4.448.487h-.002c-1.165-.452-2.3-.892-3.15.124-1.014 1.21-.342 2.41.315 3.577.768 1.368 1.517 2.702.283 4.179-1.4 1.673-2.945 1.074-4.45.49-1.164-.453-2.301-.894-3.15.12-1.015 1.214-.342 2.411.315 3.58.767 1.368 1.517 2.704.283 4.179-1.4 1.673-2.944 1.073-4.45.489-1.165-.452-2.3-.894-3.15.122-1.014 1.212-.34 2.412.315 3.58.768 1.365 1.518 2.702.283 4.177l-.638-.557c.849-1.014.244-2.092-.375-3.194-.802-1.426-1.624-2.89-.224-4.563" mask="url(#b)"/>
        <path fill="#FEFEFE" d="M72.905 452v-5.117L78.634 452H80l-6.13-5.472L79.276 442H77.95l-5.045 4.213V442H72v10zM37.98 470c1.625 0 2.98-.442 4.043-1.348 1.063-.907 1.604-2.066 1.604-3.455 0-1.35-.5-2.466-1.5-3.33-1-.863-2.251-1.305-3.773-1.305-1.041 0-1.936.106-2.687.316l.688-4.972h6.251V455h-7.002l-.958 7.078a10.39 10.39 0 0 1 3.5-.589c1.355 0 2.46.358 3.272 1.075.833.694 1.251 1.58 1.251 2.633 0 1.116-.437 2.043-1.333 2.78-.897.738-2.022 1.096-3.377 1.096-1.522 0-2.855-.358-3.959-1.054v1.013c1.104.652 2.418.968 3.98.968zm9.231-5.5h5.627v-.863H47.21v.864zm10.608-1.586c-.063 1.62-.167 2.733-.5 3.996-.314 1.26-.98 1.952-1.918 1.952-.167 0-.313 0-.416-.02v.884c.103.02.228.02.374.02 1.397 0 2.334-.8 2.772-2.313.229-.755.375-1.47.458-2.163.084-.694.147-1.556.168-2.588l.062-2.12h5.147v9.164h.937v-10.029h-7.002l-.082 3.217zM73.364 470c1.438 0 2.542-.295 3.334-.907v-.926c-.938.632-2.022.948-3.21.948-1.332 0-2.437-.4-3.292-1.18-.854-.78-1.292-1.812-1.313-3.076h8.586v-.316c0-1.095-.312-2.19-.978-3.265-.647-1.095-1.94-1.832-3.606-1.832-1.458 0-2.647.505-3.564 1.516-.916.99-1.375 2.254-1.375 3.771 0 1.538.52 2.802 1.543 3.792 1.02.99 2.312 1.475 3.875 1.475zm-4.46-5.962c.063-.97.459-1.833 1.146-2.57.71-.759 1.647-1.137 2.814-1.137 2.667 0 3.667 2.253 3.667 3.707h-7.627zm14.692 5.708v-9.184h3.792v-.865h-8.523v.865h3.793v9.184h.938zm7.147 0l7.107-8.594v8.594h.937v-10.049h-.855l-7.126 8.617v-8.617h-.938v10.05h.875zm20.381.254c1.396 0 2.562-.505 3.48-1.496.937-1.01 1.396-2.275 1.396-3.771 0-1.517-.459-2.78-1.376-3.771-.917-1.011-2.083-1.516-3.5-1.516-1.334 0-2.46.462-3.356 1.368-.896.906-1.396 2.065-1.48 3.455h-2.792v-4.572h-.937v10.05h.937v-4.613h2.772c.104 1.41.604 2.57 1.5 3.495.896.907 2.022 1.371 3.356 1.371zm0-.885c-1.146 0-2.105-.422-2.855-1.242-.73-.843-1.105-1.898-1.105-3.14 0-1.265.376-2.317 1.105-3.139.75-.842 1.71-1.263 2.855-1.263 1.146 0 2.083.42 2.813 1.263.75.822 1.125 1.874 1.125 3.139 0 1.242-.376 2.297-1.125 3.14-.73.82-1.667 1.242-2.813 1.242zM27.936 487.76v-4.87l5.926 4.87h1.414l-6.341-5.209 5.593-4.31h-1.373l-5.219 4.01v-4.01H27v9.519h.936zm10.584-1.776c-.812-.799-1.227-1.797-1.227-2.973 0-1.18.415-2.176 1.227-2.975.831-.799 1.85-1.198 3.077-1.198 1.226 0 2.245.399 3.056 1.198.831.799 1.248 1.796 1.248 2.975 0 1.176-.417 2.174-1.248 2.973-.81.779-1.83 1.178-3.056 1.178-1.227 0-2.246-.399-3.077-1.178zm6.86.559c.977-.978 1.477-2.157 1.477-3.532 0-1.378-.5-2.555-1.477-3.534-.976-.978-2.224-1.477-3.783-1.477-1.56 0-2.828.5-3.806 1.477-.977.98-1.455 2.156-1.455 3.534 0 1.375.478 2.554 1.455 3.532.978.978 2.246 1.457 3.806 1.457 1.559 0 2.807-.48 3.783-1.457zm5.428 1.217v-8.243l4.18 4.57h.352l4.2-4.57v8.243h.937v-9.52h-.895l-4.407 4.79-4.409-4.79h-.894v9.52h.936zm14.367 0v-8.702h6.758v8.702h.935v-9.52H64.24v9.52h.936zm14.7-.598c-1.747 0-3.118-.759-3.118-2.295 0-1.378 1.289-2.296 3.389-2.296 1.247 0 2.454.38 3.64 1.117v1.578c-.812 1.037-2.247 1.896-3.91 1.896zm-.27.838c1.768 0 3.181-.599 4.263-1.816.084 1.097.811 1.655 1.705 1.655.353 0 .623-.06.81-.159v-.738c-.166.08-.353.12-.582.12-.664 0-1.081-.54-1.081-1.357v-4.232c0-2.315-1.725-3.473-4.304-3.473-1.352 0-2.537.32-3.535.939v.917c1.06-.678 2.183-1.018 3.368-1.018 2.246 0 3.536.878 3.536 2.715v1.258c-1.185-.699-2.495-1.039-3.888-1.039-1.186 0-2.163.28-2.953.859-.77.56-1.165 1.317-1.165 2.255 0 .977.375 1.737 1.123 2.295.77.54 1.664.819 2.704.819zm10.21-.24v-4.49h6.924v4.49h.935v-9.52h-.935v4.21h-6.925v-4.21h-.936v9.52h.936zm12.496 0l7.09-8.142v8.142h.936v-9.52h-.852l-7.112 8.163v-8.163h-.936v9.52h.874zm12.662 0l7.091-8.142v8.142H123v-9.52h-.853l-7.111 8.163v-8.163h-.936v9.52h.873zM36 540l.015-.557 3.68-3.691c.803-.804 1.369-1.453 1.697-1.964.327-.507.492-1.095.492-1.744 0-1.406-1.028-2.364-2.592-2.364-1.132 0-2.16.51-3.068 1.53v-.88c.848-.881 1.89-1.33 3.128-1.33.938 0 1.712.279 2.323.835.61.556.908 1.282.908 2.162a3.71 3.71 0 0 1-.522 1.946c-.342.572-.937 1.3-1.786 2.15l-3.217 3.242H43V540h-7zM49.5 539.331c1.088 0 1.985-.456 2.69-1.366.72-.927 1.074-2.082 1.074-3.466 0-1.382-.353-2.537-1.074-3.448-.705-.927-1.602-1.383-2.69-1.383-1.09 0-1.986.456-2.708 1.383-.704.911-1.056 2.066-1.056 3.448 0 1.384.352 2.539 1.056 3.466.722.91 1.619 1.366 2.708 1.366m-3.252-.896c-.833-1.048-1.248-2.37-1.248-3.936 0-1.565.415-2.871 1.248-3.92.85-1.047 1.922-1.579 3.252-1.579 1.313 0 2.385.532 3.234 1.58.85 1.048 1.266 2.354 1.266 3.92 0 1.565-.416 2.887-1.266 3.935-.849 1.049-1.921 1.565-3.234 1.565-1.33 0-2.402-.516-3.252-1.565M60.116 540v-10.216L57 531.341v-.74L60.175 529H61v11zM65.116 540v-10.216L62 531.341v-.74L65.173 529H66v11zM89 511l.015-.557 3.679-3.691c.804-.804 1.37-1.452 1.698-1.963.327-.508.49-1.095.49-1.744 0-1.407-1.026-2.364-2.59-2.364-1.133 0-2.16.51-3.07 1.529v-.88c.85-.881 1.892-1.33 3.129-1.33.939 0 1.714.279 2.324.835.61.557.908 1.283.908 2.163 0 .725-.178 1.375-.52 1.945-.344.573-.94 1.3-1.788 2.15l-3.218 3.242H96V511h-7zM102.5 510.331c1.09 0 1.986-.456 2.691-1.366.72-.927 1.073-2.082 1.073-3.464 0-1.384-.352-2.539-1.073-3.45-.705-.927-1.602-1.382-2.691-1.382-1.09 0-1.986.455-2.707 1.382-.705.911-1.057 2.066-1.057 3.45 0 1.382.352 2.537 1.057 3.464.72.91 1.618 1.366 2.707 1.366m-3.251-.895C98.416 508.387 98 507.065 98 505.5c0-1.566.416-2.873 1.249-3.922.849-1.047 1.921-1.579 3.251-1.579 1.313 0 2.385.532 3.235 1.58.85 1.048 1.265 2.355 1.265 3.92s-.416 2.887-1.265 3.936c-.85 1.048-1.922 1.564-3.235 1.564-1.33 0-2.402-.516-3.251-1.564M111.115 511v-10.214L108 502.341v-.74l3.174-1.601H112v11zM121.566 509.526c.525-.547.782-1.23.782-2.051 0-.804-.257-1.458-.782-1.96-.525-.501-1.163-.743-1.93-.743-.668 0-1.265.227-1.804.668a3.553 3.553 0 0 0-1.122 1.67c.227 2.02 1.222 3.221 2.968 3.221.752 0 1.376-.274 1.888-.805m-4.572.167c-.668-.865-.994-2.097-.994-3.66 0-1.748.383-3.176 1.164-4.315.78-1.14 1.804-1.718 3.082-1.718.795 0 1.476.214 2.058.655v.682a3.388 3.388 0 0 0-2.015-.667c-.795 0-1.477.258-2.031.775-1.122 1.017-1.604 2.642-1.604 4.602.496-1.109 1.69-1.944 3.124-1.944.895 0 1.647.318 2.271.958.639.622.951 1.426.951 2.399 0 1.018-.312 1.868-.95 2.537-.625.67-1.407 1.003-2.358 1.003-1.136 0-2.03-.441-2.698-1.307M65.757 520.686c1.234-1.475 2.644-.928 4.088-.368 1.233.479 2.498.969 3.512-.243.85-1.014.244-2.092-.376-3.195-.8-1.426-1.622-2.89-.222-4.562 1.234-1.477 2.645-.93 4.088-.369 1.234.479 2.498.97 3.513-.244.849-1.013.243-2.09-.376-3.193-.8-1.426-1.623-2.89-.223-4.563 1.234-1.476 2.645-.929 4.088-.368 1.233.479 2.499.97 3.513-.244l.638.559c-1.399 1.671-2.943 1.072-4.448.487h-.002c-1.165-.452-2.3-.892-3.15.124-1.014 1.21-.342 2.41.315 3.577.768 1.368 1.517 2.702.283 4.179-1.4 1.673-2.945 1.074-4.45.49-1.164-.453-2.301-.894-3.15.12-1.015 1.214-.342 2.411.315 3.58.767 1.368 1.517 2.704.283 4.179-1.4 1.673-2.944 1.073-4.45.489-1.165-.452-2.3-.894-3.15.122-1.014 1.212-.34 2.412.315 3.58.768 1.365 1.518 2.702.283 4.177l-.638-.557c.849-1.014.244-2.092-.375-3.194-.802-1.426-1.624-2.89-.224-4.563" mask="url(#b)"/>
        <path fill="#EF8162" d="M290 163h6.28V74.264H290V163zm43.72 0H340V34.676h-6.28V163zm-14.574 0h6.28V11h-6.28v152zm-14.573-.001h6.28V42.569h-6.28v120.43zM44 76h94v-6H44zM44 61h107v-6H44zM44 47h122v-6H44zM44 32h138v-6H44zM44.073 99L44 176l42-38.178zM95.073 99L95 176l42-38.178zM473.582 268.78h-20.197v-1.178H391v-6.204h200v6.204H473.582v1.178zM391 282h173.306v-6.205H391V282zm0-28.795h164.408V247H391v6.205z" mask="url(#b)"/>
    </g>
</svg>
