<svg xmlns="http://www.w3.org/2000/svg" xmlns:xlink="http://www.w3.org/1999/xlink" width="1063" height="285" viewBox="0 0 1063 285">
    <defs>
        <path id="a" d="M1062.577.524H0V285h1062.577z"/>
        <path id="c" d="M0 285.476h1062.577V1H0z"/>
    </defs>
    <g fill="none" fill-rule="evenodd" transform="translate(0 -1)">
        <path fill="#F48266" d="M251.882 114.027h-30.973l.015.03c.189.19.348.436.468.677.04.052.078.106.11.163.176.185.227.336.342.547h30.038v-1.417zm-35.464 0h-14.46c-.06.202-.083.437-.15.645 0 .24.009.431-.07.667l-.011.105h16.072a1.34 1.34 0 0 1-.134-.208l-.096-.043a1.42 1.42 0 0 1-1.151-1.166zm-19.571 0H181.79c-.041.352-.37 1.13-.602 1.417h15.717c-.02-.297-.003-.634-.003-.935 0-.063.004-.125.012-.186a1.462 1.462 0 0 1-.067-.296zm-18.923 0h-32.338c.084.271.092 1.131.034 1.417h31.329c.057-.2.158-.383.29-.537a1.41 1.41 0 0 1 .198-.297c.146-.293.297-.363.487-.583zm-36.127 0h-21.685c.093.156.24.311.34.481.228.241.368.605.433.936h20.767c-.021-.323-.008-.664.133-.96l-.072.144c0-.22.007-.388.084-.6zm-26.477 0H98.557l-.001 1.417h17.675c-.04-.052-.075-.106-.112-.16l.013.012c-.175-.182-.514-.713-.586-.938-.091-.128-.112-.214-.226-.33zm-19.667-.023l-21.83.023v1.417h21.765c.05-.1.065-.265.065-.44v-1zM1042.757 94.76c3.07 0 5.854 1.246 7.866 3.26h.002a11.092 11.092 0 0 1 3.26 7.87c0 3.072-1.245 5.855-3.26 7.87a11.092 11.092 0 0 1-7.868 3.258 11.101 11.101 0 0 1-7.871-3.259v-.002a11.097 11.097 0 0 1-3.26-7.868c0-3.07 1.247-5.854 3.26-7.867l.003-.002a11.093 11.093 0 0 1 7.868-3.26zm7.25 3.878a10.224 10.224 0 0 0-7.25-3.002 10.23 10.23 0 0 0-7.252 3.002 10.228 10.228 0 0 0-3.002 7.251c0 2.832 1.148 5.396 3.002 7.251h.002a10.218 10.218 0 0 0 7.25 3.002c2.83 0 5.395-1.147 7.25-3.002a10.226 10.226 0 0 0 3.002-7.25c0-2.832-1.148-5.396-3.002-7.25v-.002z"/>
        <g transform="translate(0 .476)">
            <mask id="b" fill="#fff">
                <use xlink:href="#a"/>
            </mask>
            <path fill="#F48266" d="M117.463 270.132h26.928l-.002-14.373c0-1.735.672-1.438 2.314-1.487V273.6h-29.24v-3.47zm-18.338-15.86h8.92v15.86h6.445v3.469H99.125v-19.33zm-11.894 19.33h7.434v-10.407H87.23v10.407zm-6.938 0h3.965v-10.407h-3.965v10.407zm-5.95-10.41h5.454v10.41h-5.46l.006-10.41zM55.017 273.6h14.869v-19.328h-14.87V273.6zm62.446-3.964h26.267v-15.364h-26.267v15.364zm-8.921 0h5.948v-15.364h-5.948v15.364zm-21.313-8.425c0-7.151 1.484-3.318 8.425-4.462v-2.478l2.816.1.13 19.235-2.946-.003V262.7c-4.667-.553-8.425.867-8.425-1.49zm-4.458 1.324h-8.92v11.068h-2.975l-.002-19.332h2.984l-.007 2.645c11.973-.003 10.408-1.136 10.408 4.295 0 1.139-.447 1.324-1.488 1.324zm4.46-6.281h7.434v-1.982H87.23v1.982zm-6.938 0h3.965v-1.982h-3.965v1.982zm-5.948 0h5.452v-1.982h-5.452v1.982zM54.993 244.36h14.893l-.056 6.774H55.182l-.19-6.774zm91.712-.002v6.446l-2.32-.11c.004-1.39-.102-3.101-.04-4.377.109-2.165.246-1.896 2.36-1.96zm-29.242 6.445h26.267v-6.443h-26.267v6.443zm-8.921-6.443h4.46c1.143 0 1.488.344 1.488 1.486v4.956h-5.948v-6.442zm-9.42 1.486c0-1.851 3.093-1.488 4.959-1.488h3.967v6.446h-8.915l-.01-4.958zm-3.466-.991h2.974l-.144 5.784-2.828.197-.002-5.981zm-8.425 5.947h7.434v-5.947H87.23v5.947zm-6.938-4.46l.122-1.823 3.678.005.198 1.815-.034 4.463h-3.964v-4.46zm-5.785 4.794l-.195-1.817.032-4.96h5.452v5.452c0 1.998-3.157 1.322-5.29 1.325zm-3.632-4.794L71 244.52c1.684.004 2.849-.3 2.849 1.326v4.956h-2.973v-4.46zm37.666-5.452h35.188v-60.96h-35.188v60.96zM70.876 81.308h2.973v12.389h21.807v-12.39l2.81.159.052 159.259c-4.335.462-22.013.174-27.642.166V81.308zm37.17 159.583h-8.921v-63.933c0-2.473 8.69-1.487 11.399-1.486l39.153.495v64.924l-5.293-.122.005-61.332h-36.343v61.454zm-8.921-65.914h15.364v-12.391H99.125v12.39zm-37.17-10.904l-.001-1.487c.574 0 6.81.162 6.813.163 1.238.338.739.308 1.119 1.318l.009 4.466h-7.94v-4.46zm933.22-1.983h5.452v-36.675h-5.452v36.675zm-5.947-147.194h3.47l1.82.124-.002 146.908-1.816.195-3.472-.033V14.896zM61.956 162.09h2.973v-36.675h-2.973v36.675zm619.5-147.195h4.963l-.003 145.216h-4.96V14.895zm-36.672 82.27c2.427.672 16.007 24.016 18.348 27.742 2.082 3.314 17.335 26.479 17.335 28.758v6.443h-35.683V97.166zm-226.986 0v62.943H379.14c.096-4.305 15.837-27.234 18.705-31.843 2.45-3.935 18.077-29.747 19.952-31.1zm583.327 40.65c0-4.788-.711-17.68.41-20.907 2.636-.696 2.645-2.401 5.036-3.384l.006 5.459-.003 1.972v2.478l.44 44.937-5.89.189v-30.744zm6.442-21.32l.002-1.484 5.944-.06 1.48 2.126c1.935 1.753 6.158 5.432 7.442 7.347h-14.868v-7.93zm-908.44 4.466v-5.95l14.905-.12c2.31.114 2.477.342 2.932 2.185 1.747 2.349 3.028 4.777 4.797 7.186l-22.511.152-.123-3.453zm-37.171-.502l.123-1.821c1.707 1.343.757.778 2.85 1.82V124.425h-2.973v-3.965zm919.7-3.606c-1.488.68-5.762 4.579-7.096 5.788-3.02 2.736-4.83 1.785-10.112 1.783h-23.79l4.465-7.424c.779-1.173.598-.527.993-1.988l22.297-.004h.49l14.87-.082c-1.394 1.067-1.172 1.082-2.117 1.927zm40.86-16.631c1.185.246 1-1.204.917 4.864l-.008 18.843c-2.21-1.48-4.525-4.308-6.567-6.318-3.98-3.912-2.85-3.197-2.85-10.533 1.943-.918 7.457-5.1 8.508-6.856zm-961.31 18.834c-.25 1.956.014 1.476.167 2.909.038.358-.038.818-.05 1.05-.816 14.66-.091 30.538.05 45.354l-5.86.19v-34.712l.005-20.32 1.38.592c.09.053.218.13.307.19l4.002 4.747zm309.88-27.341h1.613v62.94c-1.858-.06-1.574-.09-1.611-1.995l-.01-3.453.008-57.492zM74.345 93.202h20.32v-1.487h-20.32v1.487zm920.83 9.416V91.715h13.382c-.618 1.783.53.078-1.282 1.696l-8.335 6.545c-1.475 1.15-2.07 2.21-3.765 2.662zM54.52 91.715h10.408v8.92c-1.676-1.122-3.43-2.788-5.237-4.181l-4.82-4.09c-.071-.102-.256-.514-.351-.65zm961.178-1.284c-1.617.079-.51-.28-1.686.288l-.001-1.478c2.636.216.873-.45 1.687 1.19zm6.817 9.79l-9.956 7.4.538 6.888-5.531.003v-2.477l-6.031 4.873-2.476 1.984 1.314-.153-.244 1.23v4.455h-4.955c.18-2.934.58-1.556 1.487-3.47l-1.422.284-.065-14.16 20.524-16.647 2.032-1.965-22.556-.221V84.28h28.25c0 5.014.803 12.568-.91 15.94zm-372.372-8.398l30.324-.108.01 42.64c.073 5.69-.87 5.218.248 11.842-2.776-2.862-6.46-9.582-8.774-13.257l-21.278-34.241c-2.172-3.523-1.753-5.002-6.386-5.002v66.907l44.673.083c-1.67-1.478-1.521 1.239-1.555-7.518h.992c-1.575-5.897-.992-6.987-.992-14.372V91.715h4.46l.077 62.633-4.536.06.004.942h7.428V88.245h-7.433V84.28h301.162v3.8l-26.102.173-3.081 4.72c2.735-2.126 5.934-1.26 10.515-1.26 19.828.002 18.984-1.932 18.853 4.938-.064 3.347.91 9.456-.63 11.802-.18.276-5.941 5.034-6.514 5.374-2.723 1.608-34.31.787-35.663.189l-6.774 11.894 27.589-.508-42.852 34.336-.1-5.083-1.983-.991-1.03 1.466 2.465.018.053 5.455c7.008.478 8.35-2.704 16.515-9.256l28.617-22.933c3.577-2.821 11.962-8.971 14.68-11.692 3.18-2.21 5.382-7.185 5.486-1.311.069 3.893.587 9.94-.87 12.482-.81 1.999.318-2.352.95 1.485l.042 32.71-42.623-.494-.988.993c13.594-.01 35.614-.483 48.893.217.985.053 3.7-.216 6.113-.216v1.985l.002 3.959c-6.342 0-59.481.338-60.993-.182l.61-1.773-816.834-.027.53 1.8-7.963.182.062-5.784 2.333.414-1.474-2.004c-3.036.97 2.127.59-2.375.943l-14.902-.012.015-29.24c4.555 2.418 13.992 10.969 18.835 14.84 3.1 2.48 6.263 5.032 9.34 7.52 2.098 1.698 4.704 4.189 6.905 5.477h4.272c.23-.037.487-.066.777-.083v-5.451c4.82.078-2.497-4.216-.496 3.963-1.86-.7-29.716-23.346-35.758-28.162-2.372-1.892-3.89-1.917-3.89-5.54h23.79l-7.214-12.193c-.794 1.812-.043 1.299-3.126 1.372l-13.45-.081V91.715l3.47.99c-.317-1.185-1.348-2.868-2.137-3.81-1.706-2.035-1.333-.461-1.333-4.614l273.574-.001v3.965c-6.621.003-5.452-2.368-5.452 12.39v54.518h5.452c0 3.217-.26 4.807.367 5.534h13.246c1.69-.037 3.585-.05 5.715-.022 8.754.114 17.477-.061 26.267-.061V93.697c-4.814 0-4.453 1.56-6.473 4.928-4.802 8.007-30.947 50.169-32.184 51.076.094-2.932-.613-5.998.99-7.172-.812-2.762.518.656-1.455-.182 0-13.877-.03-26.843-.031-40.72 0-12.43-1.882-9.912 10.903-9.912h20.816c1.782.59-.36 3.027 1.667.313.967-1.298 1.566-2.35 1.802-3.783h-34.692V84.28l300.83-.001v3.965h-32.71l2.387 3.578zm-575.8-3.577h20.32V84.28h-20.32v3.965zM59.974 101.13c2.34 1.859 4.892 2.677 5.002 6.397.114 3.846-.046 8.046-.046 11.94l-11.2-8.673 1.637 3.54-6.296.177c0-3.33-.594-5.3.99-6.938l-1.568-.413.084 7.848 5.94.014.004 1.478.02 7.923c-18.282.002-15.383 2.993-15.383-11.894 0-4.12.136-8.294 0-12.39l1.983.99c-2.408-3.594-2.043-1.081-1.987-7.428.027-3.137.004-6.283.004-9.421h25.772v3.964h-20.32c5.206 4.342 9.935 8.575 15.364 12.886zm964.933-24.283h11.91l.486-.001h9.906l14.87-.493.004 1.484v7.93h-37.666l.49-8.92zM.502 78.835L.292 76.6c3.339.026 36.2.089 37.87-.244l.003 1.983.01 7.428H.5v-6.932zM1014.01 81.31l9.658-.155c-.332 2.723.23 2.184-5.66 2.272-3.408.05-3.918.896-3.998-2.117zm-974.85.989c.552-1.453-1.466-1.105 4.954-1.025 5.586.07 4.398-.693 4.454 2.01-1.723.013-3.244.085-4.951.08-7.133-.018-3.394.414-4.456-1.065zm340.446-5.947l300.86-.001-.075 4.3H379.799l-.192-4.3zm-340.48 0l25.802-.001-.077 4.298-25.532-.001-.193-4.296zm956.214 4.405l-.201-1.926.033-2.482h28.252l.002 3.968h-1.984l-26.102.44zm-181.061-.11l-126.71-.005-.164-4.291h.374v-.496h-.374v-.991h.374v-.485l-.374-.01V71.89h34.692V50.084h-34.692v-1.488l.122-1.823 55.386-.158c1.394 0 8.46 13.885 8.92 15.859l-13.381.496v2.477l27.75-.061.004-2.416h10.904V26.79h211.623v49.065H767.343v.529l221.228.09c-.003 6.122.515 4.016-17.68 4.199l-66.907-.026c-29.91 0-59.868.006-89.704 0zm-95.55-4.283l18.763.008v-.674L718.73 75.2v1.164zM71.373 76.35h301.327v2.478l-.125 1.82-8.301.022-28.25-.024-136.29.005-14.868-.005-113.494-.073V76.35zm-1.486 5.452v80.287h-4.461V53.553l5.45-.496-.023 25.748c-.34 2.934-.966 1.156-.966 2.998zm954.53-15.86h25.276V55.04h1.982l2.478.05V44.632h7.93v31.223h-37.666v-9.911zM379.142 49.59c1.49.397 10.159 8.615 19.469-.852 2.466-2.507 3.858-5.006 5.31-8.558.599-1.46 2.288-9.792 3.47-10.415-.002 9.543 7.176 22.89 17.347 22.89 10.81 0 17.038-13.228 17.84-22.89.848 1.335 1.519 5.872 2.133 7.79 9.05 28.314 33.244 12.924 33.552-8.285h.99c.764 9.168 7.027 23.293 16.356 23.293 16.79 0 15.706-17.09 19.329-22.798 1.6 10.04 6.366 23.294 17.42 23.55 15.345.358 16.53-21.381 18.758-22.56 0 8.95 7.526 22.799 16.355 22.799h1.983c9.558 0 16.088-14.137 16.85-23.293 1.58 2.49 2.477 24.969 20.816 23.789l4.449-.576.01 9.497h14.373c0 3.146-.172 2.974 2.974 2.974v.06h22.33l-.027-.06c4.674 0 1.173-.138 2.973-2.974l-4.248-1.131 7.716-14.791 22.708-.27.09 3.306h-9.416V71.89h9.417c-.005 4.52-12.458 3.964-31.23 3.964l.035-.048H631.37l.033.048H379.14V49.589zM71.37 52.562c9.745-2.433 11.854-19.893 13.382-22.302 2.365 10.15 5.94 23.293 18.337 23.293 10.896 0 15.213-14.134 17.347-23.293 1.194 1.882.925 7.508 5.292 15.027 2.282 3.928 6.556 7.977 12.114 8.178 14.966.543 16.399-20.475 18.772-22.214 0 8.039 6.959 22.302 18.338 22.302 13.093 0 16.162-21.567 17.842-22.798 0 8.356 7.16 22.302 16.85 22.302 15.05 0 17.136-20.903 18.337-22.797.735 8.828 7.453 23.293 16.355 23.293h2.478c8.734 0 16.355-14.2 16.355-22.798 2.12 1.12 3.163 22.798 18.338 22.798 11.933 0 15.537-13.405 17.84-23.293 1.272 2.002 3.336 23.293 17.843 23.293 6.192 0 9.736-3.727 12.308-7.52 3.69-5.44 3.27-9.226 5.698-14.618.944 2.207 3.846 22.138 16.19 22.138h2.974c9.079 0 16.152-15.184 16.355-24.284 3.258 5.134 1.983 38.467 1.983 46.586H71.372V52.562zM.5 44.63h7.93l.003 10.902c5.903-.74 4.282-.45 4.46 10.408h25.336l-.06 9.916H.625L.499 44.63zm686.907 5.948h34.198v18.833l-.124 1.82-1.857.196-6.441-.057-25.776.024V50.579zm-15.86 19.329v-19.33h8.922v20.817h-7.435c-1.141 0-1.486-.345-1.486-1.487zm351.879-3.47v9.417h-28.25V26.79h54.022v38.162h-24.285c-1.143 0-1.487.345-1.487 1.486zM13.387 33.728c1.555 2.453 3.664 19.825 17.84 19.825 11.17 0 15.189-14.582 17.51-24.122 1.23 2.857 2.48 21.939 16.192 24.122v22.302H38.662V64.952H13.387V33.728zm1036.305 20.816h3.469V14.896h-3.47v39.648zM65.425 14.896h5.45v35.683c-1.111.26-1.138.496-2.477.496h-2.973v-36.18zm580.35 47.082h-3.468c.587-2.518 5.759-10.587 7.434-14.867h3.468c-.472 2.029-5.992 11.185-7.434 14.867zm-7.927.002h-3.97c2.634-4.995 5.3-9.895 7.932-14.872h3.472c-.535 2.305-6.028 12.214-7.434 14.872zm-7.931 0h-3.968c.065-2.882 2.109-5.188 3.308-7.6 1.28-2.577 2.363-4.873 3.63-7.272h4.466c-.578 2.264-6.853 12.545-7.436 14.872zm-3.966-14.87h2.478l-1.82 4.128c-.818 1.33.055.008-.658.828V47.11zm130.344-.495c4.273 0 3.39-.827 7.765 7.595 1.238 2.386 3.217 5.742 4.13 8.264h-3.964c-1.845-4.71-5.336-9.93-7.122-13.693-.427-.895-.535-1.552-.81-2.166zm-7.93 0h3.469l7.93 15.859h-3.47l-7.93-15.86zm27.756 4.958c-.078-.088-.188-.21-.231-.267-.043-.058-.178-.195-.228-.27l-2.518-4.424h2.977v4.96zm-11.895-4.958h4.955c1.01 4.338 6.939 10.75 6.939 15.859-4.45 0-2.943.837-7.422-7.442-1.542-2.85-2.714-5.79-4.472-8.417zm-37.668-4.957h49.562v4.46h-88.714v-3.964h31.718v3.469h7.434v-3.965zm-100.607-.001h43.15l-.201 3.965h7.6v-3.47h3.97l-.002 3.969h-54.52l.003-4.464zm93.669 3.47h5.947V26.79h-5.947v18.338zm-50.055 0h5.947V26.79h-5.947v18.338zm9.415-3.466h1.49V35.71h-1.49v5.95zm26.386-8.31c5.877-.801 8.183-.615 13.76-.615l-.002 8.429-31.72.495c0-8.547-.657-6.531 5.377-7.073 5.286-.475 6.914-.464 12.585-1.236zm67.78 7.317h2.479v-7.93h-2.478v7.93zm-96.643 0h1.486v-5.452h-1.486v5.452zm-39.152-5.452l29.739-.033 1.894.194.085 5.29H637.35v-5.451zm-22.305 5.453h3.473V26.788h-3.473v13.88zm111.512-6.444c4.313-.36 1.634-1.94 10.324-1.371l35.768-.116c0 10.275 1.62 8.26-11.4 8.26l-34.692-.331v-6.442zM626.942 41c-2.237 0-1.322-5.904-1.322-8.25l38.406-.035-.41 2.005h-26.76c0 7.828 1.874 6.278-9.914 6.28zm99.616-8.758h49.562V26.79h-49.562v5.452zm-39.152 0h31.719V26.79h-31.72v5.452zm-10.903 0h3.965V26.79h-3.965v5.452zm-57.49-5.452h48.569c2.052 0 2.05 5.452 0 5.452h-48.57V26.79zm-317.186 1.983c0-1.048.177-.654.496-1.983h30.23c2.118 9.085-6.95 24.285-13.38 24.285h-2.478c-8.146 0-14.868-14.155-14.868-22.302zM159.094 26.79h30.23c2.178 9.343-6.585 24.285-14.867 24.285-9.192 0-15.86-14.783-15.86-22.302 0-1.048.178-.654.497-1.983zM51.052 28.773c0-1.048.178-.654.496-1.983h13.38v24.285c-9.44-2.2-13.876-17.322-13.876-22.302zm394.004 0c0-1.048.178-.654.496-1.983h30.232c.328 1.406.496.847.496 1.983 0 2.915-3.326 11.826-4.466 13.875-3.272 5.88-6.063 7.93-12.385 7.93-7.37 0-14.373-14.405-14.373-21.805zm-35.683-.495c0-2.625 11.9-1.488 14.868-1.488H440.1c1.803 7.74-6.141 23.789-14.868 23.789-9.396 0-15.86-14.662-15.86-22.301zm-71.37-1.49c3.72 0 30.733-.814 30.733.993 0 8.41-6.183 23.792-15.862 23.792-8.171 0-12.553-10.076-14.461-16.764-2.578-9.036-.763-4.774-.41-8.021zm-250.772-.005l30.564.172c1.74 7.097-6.24 24.12-13.218 24.12h-2.478c-9.005 0-15.616-15.292-14.868-24.292zM556.986 42.23c-1.73-3.326-4.812-11.48-3.888-15.441h30.232c1.086 4.07 1.113 3.32-.315 8.113-.808 2.715-1.638 5.26-2.807 7.599-2.011 4.018-5.864 9.119-11.674 8.9-5.724-.214-9.338-4.926-11.548-9.171zm-9.34-15.441c.278 3.334 1.182.365.592 4.003-1.178 7.26-6.083 20.282-15.46 20.282-9.304 0-13.46-12.258-15.371-20.378-.958-4.071-.614-4.027 3.94-3.938l26.3.03zm-37.17 0c6.109 0-2.78 23.789-12.886 23.789-9.443 0-16.355-14.341-16.355-23.79h29.24zm-239.902-.03l26.297.03c1.679 7.207-5.84 24.285-13.877 24.285h-2.477c-8.124 0-13.13-13.07-14.494-20.774-.636-3.6.378-3.61 4.55-3.54zm-9.386.03c1.149 13.804-12.561 35.084-25.078 18.636-2.053-2.698-3.406-6.406-4.51-9.871-3.66-11.488-3.667-8.765 29.588-8.765zm-35.596 3.46c-1.323 7.548-6.297 20.329-14.46 20.329h-1.487c-9.192 0-15.561-15.454-14.868-23.79h17.842c11.02 0 13.816-1.353 12.973 3.462zM30.236 51.076c-8.06 0-12.15-10.263-14.06-16.667-1.352-4.534-1.281-3.987-.312-7.618h30.232c1.647 7.07-6.503 24.285-13.381 24.285h-2.48zm584.153-24.12l.03 13.49-2.838.224v11.4h-1.985c-8.72 0-12.842-2.698-16.128-8.17-1.405-2.341-2.55-5.582-3.445-8.447-.585-1.87-.743-2.982-1.177-4.836-.65-2.76-.654-1.475-.066-3.836l25.609.175zM379.14 26.79h25.276c.7 8.419-5.777 24.285-15.363 24.285-4.076 0-9.913-3.6-9.913-7.434V26.79zm-252.306-.041l26.807.04c1.497 6.425-4.55 24.286-15.364 24.286-9.27 0-13.525-12.56-15.285-20.474-.81-3.642-.314-3.896 3.842-3.852zm-55.463.039h9.416c3.998 0-.395 10.737-1.277 13.084-1.37 3.64-4.601 9.272-8.142 10.214l.003-23.298zm701.775-7.431h2.477l.032 4.958-.197 1.816-2.19.003-.122-1.821v-4.956zm-52.04-5.948c2.012 0 2.237-.032 4.46 0v12.887l-5.947-.001V13.409h1.488zm-44.604 9.417c.943-.453 2.646-.881 3.965-.992l.032 2.48-.197 1.817-3.675.002-.125-1.82v-1.487zm-6.938-9.417c2.716 0 3.584-.034 5.947 0v12.886h-5.947V13.409zm17.85 6.502c9.042-1.127 22.194-.554 31.709-.554 0 8.636.86 6.774-14.867 6.774-5.563 0-11.125-.002-16.793.003l-.05-6.223zm56.487.436c0-2.153 8.55-1.151 12.926-1.292 2.935-.096 5.942-.026 8.884-.032 2.083-.003 6.94-.842 6.94 1.324 0 7.218.688 5.97-6.941 5.95h-24.782c-.046-2.11-.42-2.046-1.486-2.977h4.459v-2.973zM12.726 29.929v24.45l-3.305.165V14.896l3.309.124-.004 8.3c-3.995 3.035-3.161 3.878 0 6.609zm726.223-6.112c-2.297 1.503-6.002 1.29-12.283.766l-.108-5.226h10.904c.445 1.912 1.127 2.173 1.487 4.46zm-70.376.744c.74 1.722 1.074.588-.737 1.78-.014-.11-22.791-.046-26.024-.046-16.516 0-16.545 1.727-16.282-4.497.119-2.791.119-2.783 2.897-2.741l33.993.043c8.897-.242 6.153-.862 6.153 5.46zm69.384-5.204h5.453v2.973h-2.973l-.973-.01-1.507-2.963zm38.163-5.948v4.957h-49.562v-4.98l49.562.023zm-157.107 0l48.077-.033 1.815.197.005 4.67-1.824.123h-48.073v-4.957zm-245.655 1.65l5.288-.163v145.212c-2.452 0-5.295.474-5.288-.992.09-16.816.624-142.133 0-144.056zm336.912-1.774c10.396.124 8.854-1.421 8.854 5.08h-31.718v-4.46c-8.152 0-6.938-1.013-6.938 4.46h-3.965V13.41l33.767-.124zM615.048 1.019h3.469v9.912c0 5.296-.255 9.777 0 15.365l-3.47-.001V1.019zm158.099 11.399h2.478V1.515h-2.478v10.903zm-87.228-6.443h57.489l.002 6.443c-10.002-.477-17.985 0-27.26 0H685.92V5.975zm-2.481 5.457c.702-2.102.125-.052 1.49-1.494v1.986c-1.084-.535-.174-.147-1.49-.492zM7.488 132.778L.5 132.85.499 86.757h37.667l.002 46.094H30.73l-1.487-3.965 1.184 4.408 8.234.05v-7.93h16.355v43.615h14.869v72.358H51.052v35.187H46.59V285h111.18c-.17-10.101 2.607-11.605 6.057-18.501 1.276-2.551 12.755-24.084 12.678-25.861l-18.636 35.85-7.202.086-.611-100.606c3.69.078 15.55 3.863 20.289 5.087 2.759.712 3.297.53 4.003 3.335l4.06 15.26c1.662 6.549 3.449 13.563 5.449 20.356 2 6.798-4.91 13.006-6.64 19.699 1.647-2.605 5.554-11.164 7.075-14.16 1.912-3.762-1.101-10.233-2.221-14.683-.964-3.826-7.41-28.572-8.175-29.524-.733-.91-20.39-5.56-22.23-6.11-4.694-1.405-27.58-.252-36.186-.252v-5.947c2.177 0 4.354.028 6.528.037 7.294.025.143-.45 3.384-1.524H938.18l-2.478 2.478c2.434-.65.909-1.023 4.923-1.024 9.319-.004 40.542-.403 44.968.196l.167 96.975 2.973-2.478v-94.66h18.833v-43.614h15.858v8.059l8.269-.035-.666-.476-6.612.015v-46.22h37.666v46.22l-7.608-.284-.024.768 8.127.012V44.137c-11.37 0-8.921 1.473-8.92-10.41V14.4h-4.46v11.895h-54.022V14.4h-6.441v11.895l-212.453-.002c-.725-5.587.927-8.26.65-11.885-.151-1.98-.852-2.278-.835-5.931.013-2.486.024-4.97.024-7.458h-3.47l-.038 11.233-28.708.174V5.48l-13.876-.496-44.604.472c0 5.31.056 3.45-4.474 4.47-2.922.66-4.04 2.31-6.903 2.514-7.324.523-45.698-.022-55.034-.022V.524h-4.461l-.173 25.605-25.598.174c-.891-3.344-4.552-3.603-5.451-.008h-30.232c-.917-3.432-4.84-3.415-5.451 0l-26.297.029c-6.84.104-2.336-.911-6.413-2.507-5.122.426-.39 2.488-6.391 2.53l-27.311-.052c-.961-5.368-4.733-1.017-5.466-.515-1.795 1.23-7.108.515-9.897.515h-20.32c-.89-3.336-4.554-3.595-5.452 0-3.046 0-28.234.529-29.915-.321-.333-.168-5.208-5.3-5.768.32H379.14V14.4h-6.442c0 13.726.543 8.36-2.612 9.743-2.927 1.283.32 1.327-2.9 2.093l-29.181.059c-1.423-5.331-4.487-1.185-5.466-.515-1.831 1.254-26.877.515-30.217.515-.866-3.244-4.586-3.72-5.452 0h-20.32c-2.37 0-7.808.6-9.595-.32-.742-.38-4.441-5.378-5.768.32H230.46c-.17-1.56-.856-2.456-2.491-2.48-2.174-.03-1.81 1.168-2.976 1.967-1.825 1.249-26.88.513-30.216.513-.92-3.444-4.533-3.444-5.452 0h-30.231c-.866-3.242-4.586-3.72-5.452 0l-26.805.04c-6.666.06-1.74-1.772-6.4-2.52l-3.39 2.565-29.816-.085c-.166-1.667-.855-2.43-2.51-2.461-2.35-.046-1.674 1.329-3.258 2.142-1.852.953-7.63.319-10.091.319V14.4h-6.443v11.895H51.548c-.92-3.444-4.532-3.444-5.452 0H15.864c-3.137-3.978-2.17-2.282-2.477-11.895H8.43v29.737H.005L0 133.345h7.488v-.567z" mask="url(#b)"/>
        </g>
        <path fill="#F48266" d="M920.719 254.266l13.99-.015v-6.939h1.49l-.007 6.94h30.733v-6.94h2.482l-.015 9.115h-38.178c-4.51-.004-7.696.005-12.002.005l1.507-2.166zm-15.355-82.159l15.99 37.872c2.54.935 9.128 1.156 12.367 1.156v-39.648l-1.556.64-26.801-.02zm16.723 39.608l.803 1.902 10.669.082.197-2.066-9.501-.052c-1.79.024-2.07-.098-2.168.134zm1.27 3.01l10.2 24.154.164-24.275-10.363.121zm11.562 27.38l.828 1.967.267.454c.038.066.117.211.184.31v-73.349h-1.485l-.003 65.421c-.01 2.167-.222 3.585.209 5.197zm.45 3.313l-12.955-30.682-.097.001-.121-.52-.964-2.284c-.442-.555-.787-1.15-.756-1.79l-15.11-35.78.106.594c-1.673-1.926-.693-3.086-2.816-3.405l31.708 74.701 1.339.07-.334-.905zm-245.046.832c-.92-1.495-2.272-3.78-4.403-2.9-.414.862 1.042 1.31.84 3.166-.41 3.787 1.08 6.961 2.554 8.307 6.705 6.13 19.147.172 16.66-9.2-1.416-5.337-6.088-5.37-7.965-7.744l.3-5.433c2.263 1.515 4.18 1.515 6.444 0 .41-.86-.757-11.915-.47-15.866.522-7.125-.78-2.656-1.457-6.508-.292-1.66 3.87-30.195 4.689-38.09l193.19.144 1.298-.639c.223.014.42.033.599.058l-.761.32 31.6 75.031.016 6.861-12.531.008-2.231 3.128 51.205.002v-45.76h-33.205V190.32c0-4.713 1.688-17.283-.992-19.824l-808.327.496c.598.378-.604 1.134 5.679 1.134 112.726 0 507.946-.144 552.463-.15l2.199 39.355-2.356 1.79c-.02 2.716-.513 19.026.072 20.274l5.938-.453c0 2.051.215 3.49.429 4.796.262 1.6 1.139 3.566 2.547 4.618l1.422 1.062c1.615.988 5.186 3.383 1.809 6.14-3.513 2.87-6.23-1.339-7.255-3.308zm246.372 2.056c0-1.142.344-1.487 1.487-1.487h26.762c1.663.06 1.242 4.804 1.329 6.816l-29.578.122v-5.45zm-248.297-2.395c.466.4.184-.312.833 1.056 1.017 2.146.02 2.59-.5 3.158-.55-1.457-1.078-2.582-.333-4.214zm278.528-21.394h2.478v21.806h-32.71v-1.982h30.232v-19.824zm-30.231 0h29.24v19.328h-27.753c-1.143 0-1.487-.344-1.487-1.486v-17.842zm-234.917 23.79c0-3.934-2.986-2.718-3.465-5.946 1.296.691 2.346.936 3.357 2.09 6.807 7.774-8.301 15.443-10.541 5.595 1.599.671.212-.189 1.604.866.93.706.287.358.98.973 2.319 2.06 5.14 1.78 6.962-.224.642-.706 1.103-2.133 1.103-3.355zm-1.65-8.096c-2.428.64-4.693.61-6.114-1.157 3.807-.003 3.366.333 6.114 1.157zm-9.912-11.894c-1.748.063-2.4.44-3.72-.332.658-.523-.905-.822 2.198-.78 2.1.028 1.427-.546 1.522 1.112zm12.885-1.654c-.12 2.18-1.171 1.203-3.638 1.161.189-2.169.579-.28 3.638-1.16zm259.366-5.122c6.016-.01 6.702-.81 6.952 1.986h-32.726c.218-2.454.048-2.04 2.915-2.043l22.859.057zm-271.591-2.972h7.93c0 8.483.92 9.765-1.487 10.408v-5.452c-2.981.248-1.48.248-4.461 0v5.452c-1.4-.116-1.982.011-1.982-1.486v-8.922zm245.819-2.973c0-1.535.02-1.229 1.744-1.03.807.092 2.52.002 3.809-.02 2.745-.049 22.005-.034 23.632.065l.056 6.436h-29.241v-5.45zm30.23 5.451v-7.434h-30.23v-1.982h32.709v9.416h-2.478zm-279.023-49.065h17.345c-.866 10.428-3.055 23.651-4.257 34.883-.376 3.52.43 2.892-1.583 4.923-2.524 2.544-1.356.982-.601 3.808h-7.93c.902-2.49 1.768-.628-.074-3.317-1.407-2.054-.903-1.397-.928-4.603-.291-11.785-1.495-23.359-1.972-35.694zM117.876 163.64c.296.407.573.867.91 1.405 69.038 0 137.844-.248 206.83.026 68.94.275 138.276.512 207.162-.02 68.818-.531 137.804.516 206.666 0 34.593-.26 69.071.363 103.581.056l77.313-.061c4.318-.03 8.6.07 12.887.063 7.677-.013 9.328.704 12.597-1.64l-.35-.754c-1.395.811-.94.952-2.893 1.275l-721.535.063c-9.88 0-95.632.66-103.168-.413M301.827 92.686c.902-1.704 3.233-3.964.495-3.964h-45.595v66.906c9.638 0 5.746-.497 5.616-1.983v-47.578c0-2.69-1.035-13.876 1.322-13.876 5.67 0 35.021-.613 38.162.495M147.88 155.132h-1.177v-1.487c8.272-4.059 7.91-4.702 1.178 1.487zm-1.177-9.912h2.478v-19.329h-2.478v19.33zm27.263-26.762c-.711 1.164-1.06 1.911-1.858 3.102-.825 1.23-1.247 1.752-1.615 3.342h-23.296c0-2.762-.592-7.572.494-9.417l28.25.002c-1.002 1.944-.261 1.411-1.975 2.971zm-27.263-26.267h1.488c1.088.576.99-.278.99 1.982v20.815h-2.478V92.191zm30.729 21.807c-2.708 1.82-22.685.884-22.69.882-2.456-.968-1.464-18.646-.936-22.678l36.574.006-.558 1.966c.542-.398 2.907-3.672 3.052-4.364.11-.535-.091-.845-.498-1.018-15.391 0-30.716-.074-46.168-.07l-.001 66.971 5.948-.065c.838-3.137 2.613-2.78 1.828-5.025-.717-2.05-.341-21.604-.341-24.712 3.304 0 6.613.018 9.917-.002 1.168-.007 3.839-.168 4.818.14 2.146.676.43 1.91 1.607.444.875-1.09 7.135-11.225 7.448-12.475zM913.897 125.892h1.981v17.84c0 1.5-.583 1.37-1.98 1.488v-19.328zm-12.385-10.407h.485l13.231-.047.153 2.034.002 7.428-23.222-.04-4.8-7.653c-.896-1.453-.77-.25-1.184-1.888l15.335.166zm12.385-23.294c1.398.115 1.981-.012 1.981 1.487V113.5c0 1.499-.583 1.37-1.98 1.487V92.19zm-5.453 59.472l1.983 4.002 5.947-.037V88.722l-40.144-.001c-8.087-.024-7.67-1.165-4.955 3.965 2.124-.656 33.883-.893 37.996-.33.467 3.416.165 8.61.165 12.225 0 8.053 1.151 10.059-1.934 10.457-2.683.345-9.318-.05-12.438-.05-7.54 0-7.733.958-10.565-1.238l8.086 12.638c.078.027 13.566-.496 16.851-.496l.006 20.824c.023 2.633.738 5.625-.998 4.947zM232.938 125.892h18.833l-.415 29.5-18.418-29.5zm-7.44-10.407l26.06-.238-.283 1.724c0 8.94 2.832 7.944-6.939 7.929-5.12-.007-10.242 0-15.363 0-1.294-.621-3.436-4.542-3.965-5.945-1.065-.75-.652-.08-.986-1.493l-1.329-1.831 2.805-.146zm1.493-.494c-1.909 0-6.718-9.142-7.892-10.966-1.382-2.147-6.502-9.787-6.978-11.837h39.652l-.033 22.803h-24.749zm-21.807-26.27c3.138 5.97 6.962 11.234 10.382 16.876l31.25 50.002 5.45.194V88.722h-47.082zM700.292 92.19h14.372c0 3.852-3.301 27.737-3.958 33.71-.645 5.878-1.383 10.97-1.993 16.83-.407 3.904-.28 4.507-2.168 7.259-3.284 4.79-1.96 5.143-6.253 5.143V92.19zm10.408 50.552c1.068-3.183 1.877-14.49 2.372-18.442.775-6.183 1.486-12.062 2.17-18.15 1.868-16.597.422-14.066 6.846-13.97 6.75.102 13.57.01 20.607.185L710.7 142.742zm-5.554 13.084c3.155-5.964 7.242-11.687 10.667-17.388l26.238-42.141c1.1-1.775 5.923-7.575 2.845-7.575H699.3l-.017 67.104h5.863zM758.772 88.722c3.398 7.256 2.23 4.016 3.604 3.603l17.708-.135c24.75 0 20.714-1.876 20.652 7.434-.049 7.547 1.322 53.475-.829 56.004h5.633l-.18-66.906h-46.588zM810.81 125.892h19.33c-2.59 4.892-6.226 9.984-9.295 14.983-1.618 2.636-7.5 13.788-10.035 14.257v-29.24zm27.255-7.933l-3.96 6.94h-23.247l-.048-2.972.003-6.44 6.446-.002h.485l21.81.002c-.423 1.807-.27 1.585-1.489 2.472zM810.81 92.188h40.146c-.605 2.607-13.266 22.803-14.862 22.803h-25.286l.002-22.803zm46.092-3.466h-46.686l.1 66.906 5.44-.006 41.146-66.9zM921.33 137.29v-11.398h7.435c-1.934 2.888-5.33 9.392-7.434 11.399zm13.218-12.421l-13.217.032.002-6.933v-2.54l12.394.017.98.04 5.454.002c-1.451 2.81-3.947 6.67-5.613 9.382zM921.33 92.19h28.25c-.534 2.086-5.498 9.212-7.061 11.758-1.17 1.91-6.1 11.04-7.807 11.04H921.33V92.19zm2.478 50.552l-.854-.246.854-.746c1.725-.45 25.4-37.993 28.952-44.884 6.146-9.941 7.486-8.145-7.146-8.145h-24.78v54.68l2.974-.66zM859.628 127.468c.074-1.255-.054-.803.744-1.576l-.496 34.693-.248-33.117zm-15.61-10.491c.163-.155.48-.49.697-.794 1.067-1.503-.483 1.384.296-.702l14.885.006-.023 2.98.335 6.412-20.652.022c.627-2.691 3.477-5.063 4.462-7.924zm15.617-17.798c.002-1.207.009-.831.737-1.536l-.496 17.345-.021-13.89c-.081-1.552-.221-.898-.22-1.92zm-14.131 14.818l-7.435 11.895h16.85v34.505h-38.456l-.911.767 45.878-.001-.563-66.99c-3.63 0-3.208-.172-4.788 2.169-1.703 2.52-1.453 1.87-1.238 4.774.32 4.318.079 9.462.079 13.872l-9.416-.991zM134.313 125.892h6.939V136.3c-1.531-1.123-5.491-8.246-6.94-10.408zm-9.916-10.407h12.394l.5-.002 3.462-.046.005 3.51.005 5.956-12.73-.034c-1.065-1.364-4.722-7.488-5.616-9.387l1.98.003zm-10.9-23.294h14.374c2.84 0 13.38-1.118 13.38 1.487v21.31h-12.885c-1.905 0-13.475-19.974-14.868-22.797zm-5.451 1.487l-.283-1.422.549-.233 13.923 22.09-1.451 1.027 7.582 11.248 1.473-.566 10.254 16.757-1.814-.332c.662 1.64.89.99 3.468.99V88.723h-36.674l2.973 4.956z"/>
        <mask id="d" fill="#fff">
            <use xlink:href="#c"/>
        </mask>
        <path fill="#F48266" d="M202.212 160.584h.991v-34.692h-.991v34.692zm0-36.675l.002-8.429 5.951.005h.978l8.674-.244c.163 1.36.225 1.367.748 2.231 1.066 2.199 3.586 5.103 4.461 7.428h-10.902c-2.209 0-9.149.994-9.912-.991zm0-8.921h.991V97.642h-.991v17.346zm43.116 44.604v.992h-37.169v-34.692c4.952 0 13.654-1.15 16.85.991l-7.611-12.657c-1.133-1.124-.073-.337-.476-.09-3.11 1.906 1.861-.503-.666.598-1.727.752-5.959.254-8.097.254 0-4.611-.073-9.185.205-13.709.138-2.246-.457-2.276-1.796-4.527-1.54-2.591-.989-2.579-4.852-2.579v66.907l44.604.051-.992-1.539zM360.804 155.132c-2.073 0-18.096-27.08-20.507-31.05-3.21-5.287-18.956-28.966-19.637-31.89h41.631v62.94h-1.487zm-44.98-66.177l41.511 66.673h5.578l-.127-66.906-46.963.233zM356.344 160.089l-39.648.496-.001-56.501c-.01-2.65-.767-6.633.992-5.945-.743-3.19-1.753-3.965-5.452-3.965v66.972l45.224-.008-1.115-1.05zM755.507 99.495l37.959 61.091h-38.164l.205-61.092zm40.933 56.63l-.993.99c-12.274-18.332-25.232-41.546-37.388-59.35-2.208-3.236-.677-1.436.383-3.591l-3.611.08v66.91h45.197l-3.588-5.04zM160.746 160.418c3.613-4.97 7.46-11.925 10.944-17.463 12.899-20.5 7.066-17.063 24.575-17.063v34.692c-6.966.006-30.323.326-35.518-.166zm19.162-42.375c.489-1.94.495-.69.996-2.556 3.637-.184 7.27.037 10.905-.08 5.913-.19 4.447.523 4.453 6.526l-.163 2.956-20.486-.153c.81-1.558 3.17-5.84 4.296-6.693zm9.58-3.217c1.157-1.822 1.964-3.315 3.242-5.334l3.535-5.407v10.903l-6.776-.162zm3.803-19.662h2.974c0 4.35-2.902 7.405-4.86 10.501a536.06 536.06 0 0 1-6.044 9.323l-3.938.011.469-1.498-8.425 13.547c1.897-1.614 1.657-1.156 5.132-1.046l-19.504 31.113-3.939.01.469-1.497-3.47 5.574 44.987-.123-.382-66.906c-2.58 0-2.808-.65-3.47.991zM269.28 160.421c6.45-8.939 12.342-19.864 18.817-29.908 2.936-4.554 16.693-28.504 19.183-29.404l-.002 59.477-36.182.033-1.816-.198zm34.033-64.266l3.185-.859-38.877 61.887-4.947 3.948 45.1-.05c0-19.422-.406-43.263.03-62.477.114-5.082.674-4.43-3.934-4.412l-.557 1.963zM744.154 98.632l2.23-.991v62.945l-37.708-.005.536-5.45-4.012 6.032h45.147v-66.99l-3.76.115zM865.823 125.892c18.732 0 12.563-3.537 25.567 17.063 3.446 5.46 7.29 12.435 10.943 17.465-4.263-.014-30.078-.017-36.51-.023v-34.505zm.497-6.932l.002-3.496 12.396.023 1.967-.002.941.019 5.508 9.396h-20.822l.008-5.94zm7.433-3.972c-6.716 0-7.677.934-7.98-1.932-.179-1.684-.019-8.078.215-9.797 1.864 1.354 6.25 9.242 7.765 11.729zm34.222 42.153c-1.203.066-2.019-.026-3.99-.026-2.624-4.53-18.776-29.17-19.263-30.991l3.92.043-7.455-11.674c-1.372.323-1.568.178-3.469.495-2.575-3.891-10.995-15.96-11.895-19.824 2.888 0 2.217-.18 3.964.99l-.556-1.962c-4.654-.02-4.025-.661-3.924 4.42.391 19.518.02 42.865.02 62.552l45.1-.026-2.452-3.997zM483.713 155.132h-3.965v-62.94h42.622v.99c.763-.559 2.696-3.423 2.974-4.46h-47.083v66.906c2.131-.162 4.19.226 5.452-.496M540.708 94.173l-.557-1.963 43.178-.019v62.941l-4.955-.495c.617 1.665-1.537.991 5.946.991V88.721l-41.637-.006c-2.413-.024-5.45-.616-5.045 1.093.168.713 2.524 3.965 3.07 4.365M486.687 160.584c.545-2.04 17.038-27.488 19.701-31.837 3.354-5.48 6.586-10.549 9.94-15.834 1.79-2.822 3.227-4.947 4.991-7.886 3.32-5.525 3.463-7.385 6.998-7.385v62.942h-41.63zm42.125-66.41c-3.885 0-3.295.011-4.872 2.562l-7.988 12.824c-3.094 5.123-30.866 48.886-31.909 51.568l44.77-.049V94.173zM534.265 97.642c4.02 0 3.009.292 7.499 7.39l14.898 23.74a1611.4 1611.4 0 0 1 9.94 15.832c1.475 2.378 9.34 14.3 9.79 15.98h-42.127V97.642zm-.991 63.437l45.1.05c-1.644-4.309-40.326-63.78-41.135-66.956-5.244 0-3.966-1.234-3.966 13.381v53.525zM466.782 153.23l1.08 2.394 5.939.004.067-64.005c-.006-3.62-.137-3.016-3.995-2.935l-43.153.034 1.798 3.578c3.157-.916 23.238-.11 28.434-.11 20.015 0 15.898-3.058 16.186 11.377l.004 51.4c-6.077.825-3.811-.306-6.36-1.736M594.728 154.637l-5.446.586.002-62.868 43.606-.169-.495 1.987c.576-.423 2.617-3.314 2.95-4.088.874-2.031-1.742-1.409-4.424-1.376l-42.14.013v66.906l5.947-.991zM466.368 159.097l.496 1.487h-41.631V97.642c2.483 0 2.014.017 3.469.992-.49-1.837-1.486-2.332-1.982-4.46h-3.965v66.97l45.184-.12-1.571-1.927zM634.46 97.725l3.386-.083v62.942l-38.196.029c-3.818.062-3.49.057-3.85-.94l-1.072 1.457 45.1-.05v-53.526c0-14.641 1.283-13.391-3.86-13.326l-1.508 3.497zM153.03 178.864l13.818 4.14c1.853.536 3.208 1.044 4.967 1.476l4.875 17.994c.967 3.414 1.474 6.073 2.434 9.447.722 2.537 2.213 6.99 2.272 9.622-5.625 0-11.203-.917-16.83-1.008-1.425-.023-2.982-.17-4.383-.284-10.005-.808-7.195.289-7.154-5.644.083-12.05.002-23.691.002-35.743zm-.99 40.2c0 2.069.772 1.483 2.943 1.517 2.589.04 4.89.33 7.589.458 6.623.316 13.308 1.13 19.815 1.495-.071-3.207-9.644-35.5-9.911-38.714-3.718-.866-7.473-2.042-11.253-3.114-5.017-1.422-9.183-3.906-9.183-1.347v39.706zM153.03 223.03l24.559 1.31c5.908-.065 3.95 1.514 4.83-.279-7.262-.162-15.466-1.039-22.817-1.54-11.3-.005-6.743-2.432-7.401 6.043l-.173 19.76c.117 4.617-.156 24.767.508 26.744h4.575l5.62-11.727c2.536-4.92 1.21-3.136 1.009-3.544l-7.125 14.28h-3.584V223.03zM77.837 134.339c-1.164-.007-2.326-.022-3.491-.022 0-.962-.14-3.247-.045-4.035.252-2.125-.57-1.366 1.532-.921-.774-1.055-.038-.644-1.487-.991v-7.435c4.05 0 7.626-.064 10.985.414l9.334-.414v3.966c-1.151 0-3.324.16-4.337-.124-1.99-1.886-1.891-1.756-2.601-1.363.979 1.462 5.376 4.9 6.938 5.947v4.956c-4.91.13-12.45-.45-16.828.022zm-3.987.969h20.319c1.142 0 1.488-.345 1.488-1.487v-12.39c0-1.142-.346-1.487-1.488-1.487h-20.32v15.364zM80.293 174.958h14.372v-11.896H80.293v11.896zm-5.947-5.453h5.451v4.46c0 1.143-.345 1.487-1.488 1.487h-3.963v-5.947zm.001-1.481c.003-2.63.024-2.926.497-4.959h4.455v1.989l.002 3.955h-4.956l.002-.985zm-.001-5.458h20.32v-.991h-20.32v.991zm-.482 13.381h21.793V161.08H73.602l.262 14.867zM74.346 100.616h20.32v13.382H81.78c-1.207 0-6.834-4.694-7.434-5.948v-7.434zm-.496 13.877h21.807v-13.381c0-1.353-.135-1.487-1.487-1.487H73.85v14.868zM80.293 236.411h14.372V223.03H80.293v13.381zm-5.785-13.714c5.422.011 5.383-1.097 5.301 4.285-.045 3.136-.012 6.292-.012 9.429H74.33l.178-13.714zm-.658 14.21h21.807v-13.381c0-1.351-.137-1.488-1.487-1.488H73.85v14.869zM80.293 202.71h14.372v13.38l-12.393.034-1.857-.191-.122-1.823v-11.4zm-5.947 13.38h5.45v-13.875h-5.45v13.876zm-.496.497h21.807v-14.868H73.85v14.868zM94.17 144.229c1.104 2.302.495 7.237.495 10.408h-20.32v-13.381h20.32c0 1.679.155 1.947-.496 2.973zm-20.32 11.399h20.32c1.916 0 1.502-.574 1.533-2.423.022-1.283-.046-2.71-.047-4.02-.002-2.808 0-5.617 0-8.425l-21.807-.164v15.032zM74.346 195.772h5.451v-13.877h-5.451v13.877zm20.155-.165c-1.849.184-12.851.472-13.734-.324-.741-.667-.523-1.494-.511-2.942l.201-10.379 14.223-.067-.179 13.712zm-20.651.66h21.807v-14.868H73.85v14.868zM111.021 227.491h7.434v-.992h-7.434v.992zm-.991-.496c0 2.421 2.836 1.156 4.46 1.156 3.635 0 4.46 1.992 4.46-2.643-7.028 0-8.92-.824-8.92 1.487z" mask="url(#d)"/>
        <path fill="#F48266" d="M165.95 255.657c.504-.448.22-.027.735-.752 2.108-2.965 12.232-24.797 12.316-25.35l-13.05 26.102zM87.727 123.413c-.148-.989.935-.255-.812-1.47-1.252-1.257-.743-.402-1.585-.595.767 1.095.73.854 2.397 2.065M53.035 111.023c-.87-1.298-.251-1.024-1.983-1.487.87 1.3.25 1.025 1.983 1.487" mask="url(#d)"/>
        <path fill="#F48266" d="M179 229.555c.221-.2.667-.254.826-1.109.331-1.775-.598-.46-.826 1.11M127.375 170.992c-.737-1.085-.094-.614-1.487-1.154.729 1.279-.017.738 1.487 1.154M881.187 114.493c-.31-1.334-.094-.86-.99-1.651.34 1.661-.172.785.99 1.651M356.344 160.089c-.34-1.414.075-.746-.991-1.487.339 1.414-.076.745.99 1.487M908.444 151.663c-.338-1.414.076-.746-.99-1.487.347 1.45-.065.714.99 1.487M939.173 126.388c-1.066.741-.653.072-.992 1.486 1.096-.761.617-.081.992-1.486" mask="url(#d)"/>
        <path fill="#F48266" d="M962.87 89.434l-41.635 66.188h-1.029L962.13 88.97zM871.336 91.55l40.069 63.895-1.046.22-40.765-65.925zM868.91 94.04l42.278 67.11-1.57-.03L868.165 94.5zM1007.806 113.79l-61.06 48.58-1.764.362 62.653-50.521zM19.092 94.586a11.095 11.095 0 0 0-7.868 3.26h-.002a11.097 11.097 0 0 0-3.26 7.869c0 3.073 1.247 5.855 3.26 7.869a11.096 11.096 0 0 0 7.87 3.26 11.09 11.09 0 0 0 7.869-3.26v-.001a11.095 11.095 0 0 0 3.26-7.868c0-3.071-1.246-5.854-3.26-7.868l-.001-.001a11.093 11.093 0 0 0-7.868-3.26zm-7.251 3.878a10.226 10.226 0 0 1 7.25-3.002c2.833 0 5.397 1.148 7.252 3.002a10.226 10.226 0 0 1 3.002 7.25c0 2.833-1.148 5.397-3.002 7.252l-.001-.001a10.22 10.22 0 0 1-7.25 3.003 10.222 10.222 0 0 1-7.25-3.003 10.222 10.222 0 0 1-3.003-7.25c0-2.831 1.148-5.395 3.003-7.25l-.001-.001zM859.251 160.396h2.189V94.524h-2.189zM857.889 94.991l-41.28 66.173h-1.66l42.014-66.754zM855.513 91.295l-39.706 64.27-2.497.108 41.279-64.96zM747.759 94.991l-40.567 66.173h-1.662l41.298-66.754zM759.089 88.71l41.696 66.735-1.046.22-41.495-66.842.002-.088zM865.564 126.131h15.132v-.794h-15.132z" mask="url(#d)"/>
        <path fill="#F48266" d="M865.564 115.273h15.132v-.795h-15.132zM885.562 115.273h30.162v-.795h-30.162z" mask="url(#d)"/>
        <path fill="#F48266" d="M885.962 113.9H916.262v1.537H885.529v-1.1l-.562-.438zM938.215 168.963l.058 85.067h-2.19v-82.852l-.406-.588zM938.842 169.6h68.852v-2.189h-68.852zM1000.954 163.567h-56.825l1.86-1.734 54.965.058zM645.934 97.036l35.256 55.58-1.046.22L645.09 97.15l.002-.088zM648.242 95.336l33.387 52.69-1.047.22-33.185-52.796.002-.088zM648.508 88.71l32.16 51.47v1.806l-33.005-53.163.002-.088zM637.433 94.991l-41.28 66.173h-1.66l42.015-66.754zM633.353 92.88l-39.413 62.942h-1.662l41.185-64.971z" mask="url(#d)"/>
        <path fill="#F48266" d="M595.621 160.166h44.223v.876l-44.288.12zM588.93 155.825h5.153v-1.307h-5.153zM578.624 155.825h5.69v-1.307h-5.69zM800.73 88.92l4.357.437v66.469h-4.358z" mask="url(#d)"/>
        <path fill="#F48266" d="M771.307 92.299h33.564V88.92h-33.564zM699.974 92.299h33.564V88.92h-33.564zM428.413 92.299h43.735V88.92h-43.735zM538.009 88.71l41.797 67.115h-1.182l-41.46-67.002.003-.088zM629.53 63.158a6.72 6.72 0 0 1 4.764 1.974 6.72 6.72 0 0 1 1.973 4.764 6.722 6.722 0 0 1-1.973 4.766 6.72 6.72 0 0 1-4.765 1.972 6.72 6.72 0 0 1-4.765-1.972 6.722 6.722 0 0 1-1.973-4.766 6.72 6.72 0 0 1 1.973-4.764 6.72 6.72 0 0 1 4.765-1.974m3.216 3.522a4.534 4.534 0 0 0-3.216-1.332 4.538 4.538 0 0 0-3.217 1.332 4.538 4.538 0 0 0-1.332 3.216c0 1.257.51 2.394 1.332 3.216a4.539 4.539 0 0 0 3.217 1.334c1.255 0 2.394-.51 3.216-1.334a4.534 4.534 0 0 0 1.332-3.215 4.534 4.534 0 0 0-1.332-3.217M647.796 63.158a6.72 6.72 0 0 1 4.764 1.974 6.72 6.72 0 0 1 1.974 4.764 6.723 6.723 0 0 1-1.974 4.766 6.719 6.719 0 0 1-4.764 1.972 6.724 6.724 0 0 1-4.766-1.972 6.725 6.725 0 0 1-1.972-4.766c0-1.86.755-3.546 1.972-4.764a6.725 6.725 0 0 1 4.766-1.974m3.216 3.522a4.536 4.536 0 0 0-3.216-1.332 4.534 4.534 0 0 0-3.216 1.332 4.534 4.534 0 0 0-1.332 3.216c0 1.257.509 2.394 1.332 3.216a4.535 4.535 0 0 0 3.216 1.334c1.255 0 2.393-.51 3.216-1.334a4.534 4.534 0 0 0 1.332-3.215 4.534 4.534 0 0 0-1.332-3.217M738.533 66.629h27.919v-3.564h-27.919z" mask="url(#d)"/>
        <path fill="#F48266" d="M742.246 63.158a6.72 6.72 0 0 1 4.764 1.974 6.719 6.719 0 0 1 1.972 4.764 6.721 6.721 0 0 1-1.972 4.766 6.719 6.719 0 0 1-4.764 1.972 6.722 6.722 0 0 1-4.766-1.972 6.721 6.721 0 0 1-1.972-4.766c0-1.86.754-3.546 1.972-4.764a6.723 6.723 0 0 1 4.766-1.974m3.216 3.522a4.536 4.536 0 0 0-3.216-1.332 4.534 4.534 0 0 0-3.217 1.332 4.539 4.539 0 0 0-1.333 3.216c0 1.257.511 2.394 1.333 3.216a4.535 4.535 0 0 0 3.217 1.334c1.255 0 2.393-.51 3.216-1.334a4.538 4.538 0 0 0 1.332-3.215c0-1.257-.51-2.394-1.332-3.217M760.512 63.158a6.72 6.72 0 0 1 4.765 1.974 6.72 6.72 0 0 1 1.973 4.764 6.722 6.722 0 0 1-1.973 4.766 6.72 6.72 0 0 1-4.765 1.972 6.72 6.72 0 0 1-4.765-1.972 6.722 6.722 0 0 1-1.973-4.766 6.72 6.72 0 0 1 1.973-4.764 6.72 6.72 0 0 1 4.765-1.974m3.216 3.522a4.532 4.532 0 0 0-3.216-1.332 4.536 4.536 0 0 0-3.216 1.332 4.534 4.534 0 0 0-1.332 3.216c0 1.257.509 2.394 1.332 3.216a4.536 4.536 0 0 0 3.216 1.334c1.256 0 2.394-.51 3.216-1.334a4.534 4.534 0 0 0 1.332-3.215 4.534 4.534 0 0 0-1.332-3.217M650.08 61.403l21.898 9.92-.629 1.009-21.592-9.731z" mask="url(#d)"/>
        <path fill="#F48266" d="M738.521 63.066l-17.19 8.309.56.957 17.19-8.31zM653.254 63.066h-1.488v3.564h2.362v-2.914zM317.173 96.914l40.45 64.25h-1.986l-39.854-64.409.548.185zM423.872 97.642c4.02 0 3.008.292 7.498 7.39l14.899 23.74a1630.464 1630.464 0 0 1 9.94 15.832c1.474 2.378 9.34 14.3 9.788 15.98h-42.125V97.642zm-.992 63.437l45.538.05c-1.643-4.309-40.762-63.78-41.573-66.956-5.242 0-3.965-1.234-3.965 13.381v53.525zM523.646 91.402l-40.177 64.224h-1.662l40.915-64.805z" mask="url(#d)"/>
        <path fill="#F48266" d="M478.272 154.318h5.691l-.754 1.307h-4.937zM467.98 155.625h5.691v-1.307h-5.691zM412.678 92.3l-34.031 53.785v-2.539l33-52.179zM367.308 155.625h5.554v-1.533h-5.554zM358.118 155.625h4.736v-1.533h-4.736z" mask="url(#d)"/>
        <path fill="#F48266" d="M427.329 88.71L469 155.624h-1.18l-41.335-66.802.001-.088zM373.831 161.163h11.896v-.589h-11.896zM302.094 92.3l-39.71 63.325v-2.538l38.678-61.72zM306.769 160.574h1.095V95.483h-1.095zM361.81 155.625h1.094V88.8h-1.094zM417.105 161.163h1.094V94.338h-1.094z" mask="url(#d)"/>
        <path fill="#F48266" d="M378.747 161.163h1.095V14.8h-1.095z" mask="url(#d)"/>
        <path fill="#F48266" d="M379.841 92.299h9.494v-3.332h-9.494zM304.933 95.64l-41.56 64.933v-2.537l40.53-63.328zM251.054 155.625h1.095V89.469h-1.095zM206.424 96.914l40.448 64.25h-1.985l-39.853-64.409.548.185zM193.877 88.773l-41.91 66.852v-2.538l40.409-64.296zM195.077 94.728l-41.732 66.435h-1.585l41.92-66.635zM112.795 92.299h27.938v-3.508h-27.938z" mask="url(#d)"/>
        <path fill="#F48266" d="M140.185 142.595h1.095V88.791h-1.095zM145.454 155.625h1.094V88.791h-1.094zM206.957 88.951l40.448 64.248h-1.986l-39.853-64.407.548.185z" mask="url(#d)"/>
        <path fill="#F48266" d="M106.04 88.951l40.448 64.248-.68 2.005-41.157-66.412.547.185zM99.897 88.951l41.94 66.674h-1.985L98.507 88.792l.548.185z" mask="url(#d)"/>
        <path fill="#F48266" d="M140.943 155.506h-1.986v5.068h-.876v-5.944h2.862zM989.102 162.205h5.909V15.231h-5.909zM1049.419 75.055h4.186V15.231h-4.186zM1042.972 121.524c3.246 0 6.186 1.315 8.313 3.44a11.707 11.707 0 0 1 3.422 9.018h-.878a10.829 10.829 0 0 0-3.164-8.399 10.848 10.848 0 0 0-7.693-3.184 10.852 10.852 0 0 0-7.694 3.184 10.836 10.836 0 0 0-3.164 8.4h-.877a11.708 11.708 0 0 1 3.422-9.018 11.725 11.725 0 0 1 8.313-3.44M13.9 28.227h51.205v-2.19H13.9zM38.762 99.135l26.445 21.078v1.68L37.94 100.157l.822-1.021zm59.816 48.005l21 16.854-.821 1.02-20.18-16.193v-1.681zM184.7 226.216l-26.756 54.858-.447-3.435 27.043-53.653zM18.876 121.35a11.721 11.721 0 0 0-8.313 3.442 11.723 11.723 0 0 0-3.422 9.027h.877a10.849 10.849 0 0 1 3.164-8.407 10.848 10.848 0 0 1 7.694-3.187c3.005 0 5.725 1.218 7.694 3.187a10.845 10.845 0 0 1 3.164 8.407h.877a11.723 11.723 0 0 0-3.422-9.027 11.721 11.721 0 0 0-8.313-3.443M6.864 144.37l17.806.002h12.302c.195 0 .353.158.353.352v.01l-.088 41.962a.357.357 0 0 1-.179.307L7.006 204.111a.353.353 0 0 1-.527-.307v-59.08c0-.197.157-.355.353-.355l.032.001zm17.806.708l-17.484-.002v58.12l29.345-16.706.088-41.413-11.949.001z" mask="url(#d)"/>
        <path fill="#F48266" d="M13.356 143.23l12.224-.02-.082-1.347c-5.101-.097-5.09-.693-5.001-4.864.01-.537.024-1.143.024-1.926 0-.196.159-.354.355-.354H23.495v-4.248h-7.717v4.248h2.62c.195 0 .353.158.353.354v.01c0 6.781-.228 6.781-4.975 6.774h-.156l-.264 1.372zm12.6.684l-13.002.022a.352.352 0 0 1-.373-.419l.399-2.08a.353.353 0 0 1 .348-.286h.448c3.992.007 4.258.006 4.267-5.724H15.423a.355.355 0 0 1-.354-.354V130.116c0-.195.159-.354.355-.354h8.425c.196 0 .355.16.355.354v4.958a.355.355 0 0 1-.355.353h-2.62c-.004.546-.016 1.092-.026 1.586-.076 3.624-.086 4.08 4.616 4.15a.353.353 0 0 1 .365.332l.125 2.046h-.002l.002.02a.354.354 0 0 1-.353.353zM182.465 224.167l-25.398 50.927-1.636-.059 24.835-50.709zM117.963 185.442h16.313c1.193 0 2.28.489 3.068 1.277h.001l.001.002a4.334 4.334 0 0 1 1.277 3.068v26.424c0 1.194-.49 2.28-1.277 3.068l-.002.002a4.332 4.332 0 0 1-3.068 1.276h-16.313a4.334 4.334 0 0 1-3.069-1.276v-.002a4.335 4.335 0 0 1-1.278-3.068v-26.424c0-1.194.49-2.281 1.277-3.068l.001-.001v-.001a4.335 4.335 0 0 1 3.07-1.277m16.312.876h-16.313c-.955 0-1.824.39-2.45 1.018l-.003.002a3.46 3.46 0 0 0-1.018 2.45v26.425c0 .955.39 1.823 1.018 2.45l.002.002a3.454 3.454 0 0 0 2.451 1.018h16.313c.955 0 1.823-.39 2.451-1.018l.002-.002a3.46 3.46 0 0 0 1.018-2.45v-26.424c0-.955-.39-1.823-1.018-2.451l-.002-.002a3.464 3.464 0 0 0-2.45-1.018M1055.95 144.37l-17.808.002h-12.3a.353.353 0 0 0-.354.352v.01l.09 41.962c0 .131.07.245.178.307l30.05 17.108a.355.355 0 0 0 .53-.307v-59.08a.354.354 0 0 0-.356-.355l-.03.001zm-17.808.708l17.485-.002v58.12l-29.346-16.706-.087-41.413 11.948.001zM1049.458 143.23l-12.225-.02.082-1.347c5.1-.097 5.088-.693 5-4.864-.01-.537-.023-1.143-.023-1.926a.354.354 0 0 0-.355-.354h-2.619v-4.248h7.717v4.248h-2.618a.354.354 0 0 0-.355.354v.01c0 6.781.228 6.781 4.975 6.774h.156l.265 1.372zm-12.6.684l13 .022a.352.352 0 0 0 .374-.419l-.4-2.08a.354.354 0 0 0-.347-.286h-.448c-3.991.007-4.258.006-4.266-5.724H1047.39a.354.354 0 0 0 .353-.354V130.116a.354.354 0 0 0-.353-.354h-8.426a.356.356 0 0 0-.355.354v4.958c0 .194.16.353.356.353h2.62c.004.546.016 1.092.025 1.586.077 3.624.086 4.08-4.616 4.15a.352.352 0 0 0-.364.332l-.125 2.046v.02c0 .195.157.353.353.353zM74.016 127.503l8.655 6.983-1.156.656-7.499-5.959z" mask="url(#d)"/>
        <path stroke="#F48266" stroke-width="1.417" d="M71.198 27.228h300.865M380.132 27.228H615.29M776.674 27.228h272.047" mask="url(#d)"/>
        <path fill="#F48266" d="M921.048 253.766l-2.056 3.127h-.566l2.055-3.127zM810.462 114.027h30.973l-.015.03c-.188.19-.348.436-.47.677a1.251 1.251 0 0 0-.108.163c-.176.185-.227.336-.342.547h-30.038v-1.417zm35.465 0h14.46c.059.202.083.437.147.645 0 .24-.007.431.07.667l.013.105h-16.072c.052-.065.096-.135.135-.208l.095-.043a1.422 1.422 0 0 0 1.152-1.166zm19.57 0h15.488c.052.19.163.406.296.554.056.168.447.566.62.72.016.05.038.096.059.143h-16.52c.018-.297.002-.634.002-.935 0-.063-.003-.125-.012-.186.032-.095.055-.194.067-.296zm19.234 0h31.46c-.083.271-.092 1.131-.034 1.417h-30.793c-.038-.105-.115-.2-.115-.312h-.001c0-.457-.191-.796-.513-1.1l-.004-.005zm36.099 0h21.403c-.093.156-.243.311-.341.481-.228.241-.368.605-.434.936h-20.481c.02-.323.006-.664-.134-.96l.07.144c0-.22-.006-.388-.083-.6zm26.194 0h36.778v1.417h-37.69c.04-.052.077-.106.114-.16l-.014.012c.175-.182.515-.713.587-.938.09-.128.11-.214.225-.33zm60.214 0h6.325v1.417h-6.384c.04-.127.059-.265.059-.416v-1zM987.879 248.814h.854v1.474l14.103.07-1.217 4.39h-6.444v-1.982h-6.442v3.023h-.854zM987.879 233.439h.854v1.474l14.103.07-1.217 4.39h-6.444v-1.982h-6.442v3.023h-.854zM987.879 262.712h.854v1.474l14.103.07-1.217 4.39h-6.444v-1.982h-9.414v-.02z" mask="url(#d)"/>
    </g>
</svg>
