<svg xmlns="http://www.w3.org/2000/svg" xmlns:xlink="http://www.w3.org/1999/xlink" width="223" height="37" viewBox="0 0 223 37">
    <defs>
        <path id="a" d="M7.522 7.716v-6.8H.529v6.8h6.993z"/>
        <path id="c" d="M7.522 7.378V.581H.529v6.797h6.993z"/>
        <path id="e" d="M0 36.042h222.522V0H0z"/>
    </defs>
    <g fill="none" fill-rule="evenodd">
        <path fill="#214294" d="M0 36.042V4.95A4.959 4.959 0 0 1 4.95 0h95.873v31.092a4.959 4.959 0 0 1-4.95 4.95H0zm94.175-9.352l-10.238-8.998 9.992-8.836h-7.845l-8.256 7.258V8.856h-6.111v18.33h6.111v-7.971l8.504 7.475h7.843zm-47.505.494V18.845l2.669 2.396h8.694a4.732 4.732 0 0 0 4.732-4.732v-2.916a4.733 4.733 0 0 0-4.732-4.737H40.561v18.328h6.109zm0-11.08v-2.27h9.346c.627 0 1.136.504 1.136 1.135 0 .625-.509 1.135-1.136 1.135H46.67zm-19.794 11.08a4.731 4.731 0 0 0 4.736-4.731v-.357a4.74 4.74 0 0 0-2.819-4.325 4.726 4.726 0 0 0 1.95-3.822v-.356a4.739 4.739 0 0 0-4.735-4.737H8.526v18.328h18.35zm-12.235-4.425v-2.27h9.354a1.135 1.135 0 0 1 0 2.27h-9.354zm0-7.171v-2.275h9.354a1.137 1.137 0 1 1 0 2.275h-9.354z"/>
        <path fill="#DA0919" d="M105.51 31.195a4.84 4.84 0 0 0 4.84 4.84h30.688V4.845a4.839 4.839 0 0 0-4.84-4.838H105.51v31.189zm22.512-19.868l-12.262 9.887v-5.931l12.262-9.89v5.934zm0 19.32h-6.696V18.616l6.696-5.197v17.23zM150.094 5.915v1.557h2.834c.25 0 .437-.024.559-.072a.405.405 0 0 0 .242-.237c.04-.11.059-.27.059-.483a1.48 1.48 0 0 0-.053-.448.396.396 0 0 0-.224-.236c-.115-.054-.293-.08-.532-.08h-2.885zm0-2.673v1.47h2.885a.51.51 0 0 0 .438-.222c.107-.146.159-.337.159-.57 0-.212-.052-.377-.156-.497a.568.568 0 0 0-.448-.18h-2.878zm-1.414 5.515V1.958h4.259c.447 0 .822.056 1.12.168.302.111.529.293.683.543.155.252.23.583.23.994 0 .512-.055.866-.167 1.066-.11.198-.3.345-.565.443.333.128.577.3.73.517.155.218.232.574.232 1.068 0 .482-.07.87-.213 1.163a1.304 1.304 0 0 1-.647.64c-.293.131-.664.197-1.114.197h-4.548zM160.607 5.76h2.36l-1.124-2.528h-.067l-1.169 2.529zm-1.337 2.998h-1.65l3.133-6.8h2.096l3.108 6.8h-1.662l-.758-1.712h-3.5l-.767 1.712zM173.65 1.958v1.354H170v5.445h-1.414V1.958zM177.866 6.27c.003.3.036.53.102.69a.59.59 0 0 0 .33.346c.157.066.38.1.675.1h1.873c.309 0 .543-.032.696-.097a.557.557 0 0 0 .322-.334c.059-.162.089-.4.089-.716V4.525c0-.333-.036-.587-.107-.76a.635.635 0 0 0-.346-.357c-.16-.066-.385-.097-.678-.097h-1.823c-.3 0-.53.033-.688.103a.607.607 0 0 0-.336.363c-.067.172-.103.424-.11.757V6.27zm5.5.165c0 .439-.034.804-.104 1.09-.07.29-.185.527-.344.707-.161.18-.38.312-.656.397-.275.086-.62.129-1.033.129h-2.597a3.36 3.36 0 0 1-1.01-.134 1.509 1.509 0 0 1-.671-.411 1.707 1.707 0 0 1-.38-.716 4.051 4.051 0 0 1-.12-1.062V4.368c0-.471.04-.86.117-1.167.078-.306.2-.552.37-.734.17-.182.389-.312.66-.392a3.885 3.885 0 0 1 1.034-.117h2.597c.51 0 .919.07 1.227.21.307.14.536.385.687.736.148.35.223.839.223 1.464v2.067zM186.223 8.758v-6.8h1.413v2.608h3.645V1.959h1.422v6.799h-1.422V5.916h-3.645v2.842zM195.602 8.758v-6.8h1.415v2.608h3.643V1.959h1.422v6.799h-1.422V5.916h-3.643v2.842zM207.705 5.76h2.358l-1.125-2.528h-.067l-1.166 2.529zm-1.339 2.998h-1.648l3.132-6.8h2.095l3.108 6.8h-1.662l-.757-1.712h-3.499l-.769 1.712z"/>
        <g transform="translate(215 1.042)">
            <mask id="b" fill="#fff">
                <use xlink:href="#a"/>
            </mask>
            <path fill="#DA0919" d="M3.179 2.2c-.306 0-.518.08-.633.243-.12.159-.176.425-.176.797.005.363.074.627.206.79.136.163.349.246.645.246h2.91V2.2H3.179zM7.523.918v6.799H6.13V5.56H3.783L2.37 7.716H.529L2.26 5.345a1.468 1.468 0 0 1-.641-.378 2.149 2.149 0 0 1-.481-.721 2.36 2.36 0 0 1-.184-.938c0-.611.09-1.095.262-1.448.17-.355.413-.6.72-.737C2.243.985 2.62.917 3.06.917h4.464z" mask="url(#b)"/>
        </g>
        <path fill="#DA0919" d="M150.094 18.06h2.36c.234 0 .417-.034.552-.11a.594.594 0 0 0 .284-.337 1.87 1.87 0 0 0 .082-.61c0-.358-.065-.619-.194-.784-.131-.163-.373-.245-.724-.245h-2.36v2.087zm-1.414 3.36v-6.797h4.029c.38 0 .7.043.96.13.26.088.472.226.636.412.164.186.287.43.364.732.079.3.117.668.117 1.107-.003.574-.075 1.037-.214 1.39-.142.354-.363.612-.665.775-.302.162-.696.242-1.182.242h-2.631v2.01h-1.414zM156.384 21.42v-6.797h6.038v1.283h-4.624v1.49h4.48v1.187h-4.48v1.553h4.624v1.284zM173.218 21.42h-1.413v-5.444h-.19l-2.023 5.444h-2.01l-2.027-5.444h-.188v5.444h-1.412v-6.797h2.629l1.96 5.446h.086l1.958-5.446h2.63zM176.103 18.935c.003.297.038.528.102.692a.597.597 0 0 0 .332.343c.156.067.381.099.674.099h1.873c.31 0 .542-.03.696-.095a.559.559 0 0 0 .322-.337c.059-.159.089-.398.089-.713v-1.735c0-.334-.036-.586-.108-.758a.626.626 0 0 0-.344-.358c-.159-.066-.386-.099-.679-.099h-1.823c-.301 0-.53.033-.687.105a.61.61 0 0 0-.337.362c-.067.172-.102.424-.11.759v1.735zm5.502.163c0 .441-.034.805-.104 1.093-.07.288-.185.523-.346.704-.16.181-.379.314-.655.398-.274.085-.62.127-1.033.127h-2.597c-.395 0-.732-.043-1.008-.131a1.507 1.507 0 0 1-.673-.413 1.69 1.69 0 0 1-.379-.715 4.003 4.003 0 0 1-.121-1.063v-2.064c0-.473.039-.863.118-1.169.077-.307.201-.551.369-.733.169-.183.389-.314.661-.392.271-.077.617-.117 1.033-.117h2.597c.51 0 .919.068 1.227.21.307.139.536.384.686.734.15.351.225.839.225 1.467v2.064zM183.03 21.42v-6.797h1.415v2.606h3.643v-2.606h1.424v6.797h-1.424v-2.84h-3.643v2.84zM190.833 14.623h6.38v1.351h-2.494v5.446h-1.415v-5.446h-2.47zM198.464 21.42v-6.797h1.413v2.606h3.644v-2.606h1.42v6.797h-1.42v-2.84h-3.644v2.84zM209.134 18.424h2.358l-1.123-2.528h-.068l-1.167 2.528zm-1.338 2.996h-1.649l3.132-6.797h2.094l3.111 6.797h-1.662l-.76-1.712h-3.499l-.767 1.712z"/>
        <g transform="translate(215 14.042)">
            <mask id="d" fill="#fff">
                <use xlink:href="#c"/>
            </mask>
            <path fill="#DA0919" d="M3.18 1.864c-.31 0-.521.081-.635.242-.117.161-.175.426-.175.796.003.363.072.628.207.79.133.166.347.248.643.248h2.912V1.864H3.18zM7.523.581v6.797H6.132V5.223h-2.35L2.37 7.378H.529l1.73-2.369a1.49 1.49 0 0 1-.64-.378 2.173 2.173 0 0 1-.481-.723c-.123-.29-.182-.6-.182-.936 0-.612.087-1.096.26-1.449.172-.354.412-.599.72-.738.307-.136.68-.204 1.124-.204h4.463z" mask="url(#d)"/>
        </g>
        <path fill="#DA0919" d="M148.688 34.084v-6.797h1.405v2.538h.834l2.581-2.538h2.12l-3.483 3.184 3.621 3.613h-2.08l-2.73-2.91h-.863v2.91zM157.477 31.597c.002.298.036.532.102.695a.6.6 0 0 0 .331.342c.157.067.381.1.674.1h1.874c.311 0 .541-.033.696-.096a.562.562 0 0 0 .322-.337c.059-.16.088-.397.088-.713v-1.735c0-.332-.035-.586-.106-.758a.636.636 0 0 0-.346-.357c-.158-.067-.385-.1-.677-.1h-1.825c-.3 0-.528.035-.687.104a.622.622 0 0 0-.337.362c-.066.172-.103.425-.109.76v1.733zm5.5.165c0 .44-.034.805-.103 1.093a1.589 1.589 0 0 1-.345.704c-.16.182-.379.314-.656.398-.274.085-.619.127-1.032.127h-2.597c-.396 0-.733-.044-1.009-.132a1.507 1.507 0 0 1-.675-.413 1.703 1.703 0 0 1-.378-.715 4.088 4.088 0 0 1-.119-1.062v-2.064c0-.473.039-.862.118-1.168.076-.308.199-.552.369-.734.169-.185.389-.314.66-.393a3.875 3.875 0 0 1 1.034-.117h2.597c.51 0 .92.07 1.226.21.31.14.536.384.687.735.149.351.223.84.223 1.467v2.064zM173.162 34.084h-1.413v-5.445h-.188l-2.027 5.445h-2.008l-2.027-5.445h-.187v5.445h-1.414v-6.797h2.63l1.96 5.447h.085l1.959-5.447h2.63zM174.086 34.084v-6.797h6.48v6.797h-1.414v-5.447H175.5v5.447zM184.178 31.089h2.36l-1.126-2.528h-.067l-1.167 2.528zm-1.336 2.995h-1.652l3.134-6.797h2.095l3.107 6.797h-1.66l-.759-1.711h-3.499l-.766 1.71zM190.12 34.084v-6.797h1.413v2.606h3.647v-2.606h1.42v6.797h-1.42v-2.84h-3.647v2.84zM203.72 34.084v-5.445h-.195l-3.552 5.445h-2.426v-6.797h1.41v5.447h.198l3.6-5.447h2.38v6.797zM208.532 28.572c-.308 0-.518.08-.634.24-.116.161-.175.427-.175.796.004.365.073.63.208.792.13.165.348.246.643.246h2.913v-2.074h-2.955zm4.369 5.512h-1.414v-2.153h-2.35l-1.414 2.153h-1.84l1.729-2.368a1.48 1.48 0 0 1-.638-.378 2.155 2.155 0 0 1-.482-.722 2.419 2.419 0 0 1-.182-.937c0-.613.085-1.097.259-1.45.173-.354.415-.6.72-.738.307-.136.683-.205 1.125-.205h4.487v6.798z"/>
        <mask id="f" fill="#fff">
            <use xlink:href="#e"/>
        </mask>
        <path fill="#DA0919" d="M214.296 31.577h3.475v-1.351h-3.475zM222.522 34.084h-1.39v-5.34h-.434l-1.575 1.423-.749-1.243 1.831-1.637h2.317z" mask="url(#f)"/>
    </g>
</svg>
