<svg xmlns="http://www.w3.org/2000/svg" width="234" height="66" viewBox="0 0 234 66">
    <g fill="#DCDDD8" fill-rule="evenodd">
        <path d="M84.675 11.816h29.316V2.395H84.675v9.421zM83.959.965h31.462v12.283H83.243V.965h.716z"/>
        <path d="M92.962 10.774h-6.247V3.689h6.765v7.085h-.518zM87.75 9.74h4.694V4.725H87.75V9.74zM95.193 6.085h7.017V3.712h-7.017zM95.197 10.24h16.797V7.867H95.197zM15.686 12.95H8.64V4.964h7.63v7.986h-.584zm-5.878-1.166h5.295V6.131H9.808v5.653z"/>
        <path d="M10.897 10.325h2.859v-2.56h-2.859zM17.877 12.526h4.269V6.478h-4.269zM23.086 12.526h4.269V6.478h-4.269zM28.199 12.526h8.434V6.478h-8.434zM11.617 36.615a7.41 7.41 0 0 1-.449 2.602 6.125 6.125 0 0 1-1.256 2.065 5.704 5.704 0 0 1-2.035 1.394c-.812.339-1.717.507-2.725.507-.929 0-1.839-.103-2.736-.307-.897-.204-1.678-.471-2.335-.804v-2.753h.182c.198.151.483.321.857.511.372.187.786.364 1.239.533.51.186.975.329 1.403.43a6.09 6.09 0 0 0 1.429.151 4.27 4.27 0 0 0 1.523-.279 3.08 3.08 0 0 0 1.275-.906 3.94 3.94 0 0 0 .737-1.341c.169-.511.253-1.115.253-1.808 0-.688-.094-1.252-.279-1.692a2.78 2.78 0 0 0-.813-1.096c-.373-.329-.83-.56-1.372-.697a7.559 7.559 0 0 0-1.812-.2c-.702 0-1.408.053-2.119.164-.714.111-1.278.219-1.705.316v-9.992h10.63v2.265H3.383v5.164c.312-.031.622-.057.925-.075.302-.018.582-.027.83-.027.99 0 1.824.085 2.514.249.683.164 1.34.485 1.975.959a4.862 4.862 0 0 1 1.475 1.82c.342.729.515 1.679.515 2.847M93.83 36.615c0 .936-.151 1.803-.45 2.602a6.11 6.11 0 0 1-1.256 2.065 5.7 5.7 0 0 1-2.034 1.394c-.812.339-1.718.507-2.726.507a12.3 12.3 0 0 1-2.736-.307c-.896-.204-1.677-.471-2.336-.804v-2.753h.183c.199.151.483.321.857.511.373.187.787.364 1.239.533.511.186.976.329 1.404.43.426.103.9.151 1.429.151.524 0 1.03-.093 1.523-.279.497-.187.92-.489 1.275-.906a3.94 3.94 0 0 0 .737-1.341c.169-.511.253-1.115.253-1.808 0-.688-.093-1.252-.279-1.692a2.78 2.78 0 0 0-.813-1.096c-.373-.329-.831-.56-1.373-.697a7.545 7.545 0 0 0-1.811-.2c-.703 0-1.408.053-2.119.164-.714.111-1.278.219-1.705.316v-9.992h10.631v2.265h-8.126v5.164c.311-.031.622-.057.924-.075.301-.018.581-.027.83-.027.989 0 1.825.085 2.514.249.682.164 1.34.485 1.974.959a4.834 4.834 0 0 1 1.475 1.82c.343.729.516 1.679.516 2.847M14.902 37.694h2.957v.156c0 .878.297 1.576.897 2.1.6.519 1.412.782 2.438.782 1.154 0 2.047-.289 2.673-.866.631-.578.946-1.408.946-2.491 0-1.137-.324-1.995-.968-2.571-.649-.579-1.617-.866-2.9-.866-.062 0-.155.004-.284.013a4.701 4.701 0 0 1-.302.013V31.46c.062 0 .156.004.28.013.128.009.222.014.28.014 1.132 0 1.98-.236 2.553-.711.573-.471.861-1.168.861-2.087 0-.813-.257-1.462-.777-1.941-.514-.484-1.208-.723-2.074-.723-.932 0-1.656.221-2.184.67-.524.447-.799 1.079-.826 1.887h-2.793c.089-1.621.639-2.869 1.656-3.735 1.013-.865 2.424-1.301 4.228-1.301 1.745 0 3.126.453 4.147 1.364 1.017.91 1.527 2.14 1.527 3.694 0 1.168-.288 2.132-.865 2.878-.578.75-1.377 1.202-2.403 1.359 1.204.217 2.123.746 2.753 1.589.626.839.942 1.954.942 3.344 0 1.692-.591 3.033-1.776 4.027-1.182.991-2.785 1.488-4.805 1.488-1.83 0-3.308-.506-4.427-1.514-1.114-1.012-1.701-2.371-1.754-4.081M31.65 37.694h2.957v.156c0 .878.298 1.576.896 2.1.601.519 1.413.782 2.439.782 1.154 0 2.047-.289 2.673-.866.631-.578.946-1.408.946-2.491 0-1.137-.324-1.995-.969-2.571-.647-.579-1.615-.866-2.898-.866-.064 0-.156.004-.285.013a4.733 4.733 0 0 1-.301.013V31.46c.061 0 .154.004.279.013.129.009.222.014.28.014 1.131 0 1.98-.236 2.552-.711.573-.471.863-1.168.863-2.087 0-.813-.258-1.462-.777-1.941-.516-.484-1.209-.723-2.074-.723-.934 0-1.656.221-2.186.67-.523.447-.798 1.079-.826 1.887h-2.793c.09-1.621.641-2.869 1.657-3.735 1.013-.865 2.424-1.301 4.228-1.301 1.744 0 3.126.453 4.147 1.364 1.017.91 1.528 2.14 1.528 3.694 0 1.168-.289 2.132-.866 2.878-.578.75-1.376 1.202-2.403 1.359 1.203.217 2.122.746 2.752 1.589.627.839.943 1.954.943 3.344 0 1.692-.591 3.033-1.777 4.027-1.18.991-2.784 1.488-4.804 1.488-1.83 0-3.308-.506-4.427-1.514-1.115-1.012-1.701-2.371-1.754-4.081M60.494 40.305v2.478H47.732l7.122-8.521c.884-1.066 1.527-2.003 1.936-2.811.409-.804.613-1.537.613-2.198 0-.943-.279-1.688-.839-2.23-.561-.541-1.328-.812-2.296-.812-.87 0-1.585.271-2.149.812-.564.546-.88 1.257-.951 2.146h-2.983c0-1.71.571-3.074 1.718-4.095 1.146-1.017 2.681-1.528 4.618-1.528 1.838 0 3.291.471 4.352 1.417 1.061.946 1.594 2.234 1.594 3.863 0 1.159-.306 2.332-.915 3.517-.613 1.182-1.905 2.9-3.882 5.156l-2.42 2.806h7.244M70.954 42.783V26.371h-3.943l1.198-2.451h5.569v18.863h-2.824M110.783 33.613c0 3.024-.609 5.396-1.83 7.11-1.216 1.709-2.89 2.566-5.022 2.566-2.162 0-3.842-.866-5.04-2.593-1.204-1.732-1.804-4.161-1.804-7.291 0-3.105.61-5.524 1.822-7.257 1.212-1.736 2.899-2.602 5.058-2.602 2.184 0 3.866.871 5.048 2.607 1.177 1.74 1.768 4.228 1.768 7.46m-6.906 7.012c1.266 0 2.221-.605 2.856-1.817.64-1.208.959-3.019.959-5.43 0-2.34-.316-4.125-.946-5.351-.626-1.23-1.545-1.844-2.753-1.844-1.256 0-2.207.614-2.851 1.834-.643 1.227-.963 3.03-.963 5.414 0 2.314.32 4.094.959 5.333.635 1.239 1.55 1.861 2.739 1.861M113.863 37.694h2.957v.156c0 .878.298 1.576.897 2.1.6.519 1.412.782 2.438.782 1.155 0 2.047-.289 2.673-.866.63-.578.946-1.408.946-2.491 0-1.137-.324-1.995-.968-2.571-.649-.579-1.616-.866-2.9-.866-.062 0-.156.004-.284.013a4.701 4.701 0 0 1-.302.013V31.46c.062 0 .156.004.28.013.128.009.222.014.28.014 1.132 0 1.98-.236 2.553-.711.573-.471.86-1.168.86-2.087 0-.813-.256-1.462-.776-1.941-.515-.484-1.207-.723-2.074-.723-.932 0-1.656.221-2.184.67-.524.447-.8 1.079-.826 1.887h-2.793c.089-1.621.639-2.869 1.656-3.735 1.013-.865 2.424-1.301 4.227-1.301 1.746 0 3.127.453 4.148 1.364 1.017.91 1.527 2.14 1.527 3.694 0 1.168-.288 2.132-.865 2.878-.578.75-1.377 1.202-2.403 1.359 1.204.217 2.123.746 2.753 1.589.626.839.942 1.954.942 3.344 0 1.692-.591 3.033-1.777 4.027-1.181.991-2.784 1.488-4.805 1.488-1.829 0-3.307-.506-4.426-1.514-1.115-1.012-1.701-2.371-1.754-4.081M37.972 65.317V54.432h-2.615l.795-1.626h3.693v12.511h-1.873M51.159 63.674v1.644h-8.466l4.724-5.652c.587-.708 1.014-1.329 1.285-1.865.27-.533.406-1.019.406-1.458 0-.624-.185-1.119-.556-1.478-.372-.36-.881-.539-1.522-.539-.577 0-1.053.179-1.427.539-.374.362-.583.833-.63 1.422h-1.978c0-1.134.379-2.038 1.139-2.715.76-.675 1.779-1.013 3.064-1.013 1.219 0 2.181.312 2.885.939.705.627 1.058 1.481 1.058 2.563 0 .768-.204 1.546-.606 2.332-.408.783-1.265 1.923-2.576 3.42l-1.605 1.861h4.805M231.4 56.674V45.788h-2.615l.796-1.626h3.692v12.512H231.4"/>
    </g>
</svg>
