<svg xmlns="http://www.w3.org/2000/svg" width="589" height="399" viewBox="0 0 589 399">
    <defs>
        <linearGradient id="a" x1="49.997%" x2="49.997%" y1="-.015%" y2="99.909%">
            <stop offset="0%" stop-color="#932524"/>
            <stop offset="25.13%" stop-color="#862623"/>
            <stop offset="100%" stop-color="#642721"/>
        </linearGradient>
    </defs>
    <g fill="none" fill-rule="nonzero">
        <path fill="#AA5958" d="M558.516 14.786h2.395v180.039h-2.395zM544.471 171.45h14.045v2.392h-14.045zM544.471 129.376h14.045v2.392h-14.045zM544.471 91.977h14.045v2.392h-14.045zM544.471 42.835h14.045v2.392h-14.045z"/>
        <path fill="#AA5958" d="M545.297 2.47l1.694-1.693 13.914 13.916-1.693 1.693z"/>
        <path fill="#AA5958" d="M467.172.761h79.586v2.392h-79.586zM490.579 3.153h2.395v23.375h-2.395zM528.031 3.153h2.395v23.375h-2.395z"/>
        <path fill="#1F2D3D" d="M556.121 307.132h23.408v28.05h-23.408z"/>
        <path fill="#000100" d="M460.095 311.807h110.07v16.417h-110.07z"/>
        <path fill="#000100" d="M544.471 314.09h4.682v32.725h-4.682z"/>
        <path fill="#65605E" d="M532.713 314.09h16.44v9.35h-16.44z"/>
        <path fill="#494C55" d="M588.891 330.507a4.644 4.644 0 0 1-4.681 4.675h-16.44a4.644 4.644 0 0 1-4.682-4.675l11.759-21.092v-4.675h9.363a4.644 4.644 0 0 1 4.681 4.675v21.092z"/>
        <path fill="#65605E" d="M560.802 307.132h23.408v28.05h-23.408z"/>
        <path fill="#837F7D" d="M560.802 309.415h23.408v2.283h-23.408zM581.923 311.807h2.395v18.7h-2.395z"/>
        <path fill="#969696" d="M560.802 311.807h2.395v18.7h-2.395z"/>
        <path fill="#1F2D3D" d="M556.121 318.765h23.408v4.675h-23.408z"/>
        <path fill="#000100" d="M556.121 318.765h23.408v2.283h-23.408z"/>
        <path fill="#837F7D" d="M560.802 316.482h16.44v2.392h-16.44z"/>
        <path fill="#1F2D3D" d="M577.242 314.09h2.395v16.417h-2.395z"/>
        <path fill="#000100" d="M.218 304.74h532.495v16.417H.218z"/>
        <path fill="#000100" d="M99.509 318.765h187.37v14.025H99.509z"/>
        <path fill="#000100" d="M127.599 323.44h32.771v14.025h-32.771zM275.12 332.79l44.53 44.466h65.54l42.134-42.074V314.09H275.121z"/>
        <path fill="#6E7281" d="M396.949 353.881c0 24.571 19.924 44.467 44.529 44.467 24.605 0 44.529-19.896 44.529-44.467 0-24.57-19.924-44.466-44.53-44.466-24.604 0-44.528 19.896-44.528 44.466"/>
        <path fill="#76797D" d="M401.63 353.881c0 21.962 17.856 39.792 39.848 39.792 21.992 0 39.847-17.83 39.847-39.792 0-21.96-17.855-39.79-39.847-39.79-22.101 0-39.848 17.83-39.848 39.79"/>
        <path fill="#000100" d="M406.312 353.881c0 19.353 15.678 35.117 35.166 35.117 19.38 0 35.166-15.656 35.166-35.117 0-19.352-15.678-35.116-35.166-35.116-19.488 0-35.166 15.764-35.166 35.116"/>
        <path fill="#363F51" d="M417.961 339.857h25.803c7.077 0 4.682 16.416 4.682 16.416s14.044 0 14.044-14.024c0-9.35-9.363-11.742-14.044-11.742H417.96v9.35zM352.42 335.182h4.682v23.375h-4.682zM347.739 365.514h9.363v7.067h-9.363z"/>
        <path fill="#76797D" d="M361.783 356.165h23.408v2.392h-23.408z"/>
        <path fill="#19253B" d="M361.783 353.881h23.408v2.283h-23.408z"/>
        <path fill="#76797D" d="M361.783 349.207h23.408v2.283h-23.408z"/>
        <path fill="#A2A8AE" d="M366.465 356.165h9.363v2.392h-9.363z"/>
        <path fill="#363F51" d="M366.465 353.881h9.363v2.283h-9.363z"/>
        <path fill="#76797D" d="M361.783 363.231h23.408v2.283h-23.408z"/>
        <path fill="#19253B" d="M361.783 360.84h23.408v2.392h-23.408z"/>
        <path fill="#A2A8AE" d="M366.465 363.231h9.363v2.283h-9.363z"/>
        <path fill="#363F51" d="M366.465 360.84h9.363v2.392h-9.363z"/>
        <path fill="#A2A8AE" d="M366.465 349.207h9.363v2.283h-9.363z"/>
        <path fill="#19253B" d="M361.783 346.815h23.408v2.392h-23.408z"/>
        <path fill="#363F51" d="M366.465 346.815h9.363v2.392h-9.363z"/>
        <path fill="#76797D" d="M361.783 342.14h23.408v2.283h-23.408z"/>
        <path fill="#A2A8AE" d="M366.465 342.14h9.363v2.283h-9.363z"/>
        <path fill="#19253B" d="M361.783 339.857h23.408v2.392h-23.408z"/>
        <path fill="#363F51" d="M366.465 339.857h9.363v2.392h-9.363z"/>
        <path fill="#363F51" d="M415.675 342.14l-14.045 14.025c-2.395 2.391-7.076 4.675-7.076-4.675v-9.35c.109-6.632.762-7.067 6.968-7.067h14.044c2.395.109 4.79 2.392.109 7.067m4.682-16.308H352.42v9.35h25.803c4.681 0 9.363 2.392 9.363 9.35v25.766c-1.742 2.283-4.682 4.675-9.363 4.675H352.42v7.067h30.484c7.077 0 11.759-7.067 11.759-7.067l30.484-30.441c11.54-11.742 9.254-18.7-4.79-18.7"/>
        <path fill="#76797D" d="M455.413 363.231a4.644 4.644 0 0 1-4.681 4.675h-18.726a4.644 4.644 0 0 1-4.682-4.675v-18.7a4.644 4.644 0 0 1 4.682-4.674h18.726a4.644 4.644 0 0 1 4.681 4.675v18.7z"/>
        <path fill="#000100" d="M429.72 353.881c0 6.415 5.225 11.742 11.758 11.742 6.423 0 11.758-5.218 11.758-11.742 0-6.414-5.226-11.741-11.758-11.741a11.701 11.701 0 0 0-11.758 11.741"/>
        <path fill="#363F51" d="M432.006 353.881c0 5.219 4.246 9.35 9.363 9.35 5.226 0 9.363-4.24 9.363-9.35 0-5.218-4.246-9.35-9.363-9.35-5.117 0-9.363 4.132-9.363 9.35"/>
        <path fill="#76797D" d="M436.687 353.881a4.644 4.644 0 0 0 4.682 4.675 4.644 4.644 0 0 0 4.681-4.675 4.644 4.644 0 0 0-4.681-4.674c-2.504 0-4.682 2.065-4.682 4.674"/>
        <path fill="#6E7281" d="M307.891 353.881c0 24.571-19.923 44.467-44.529 44.467-24.605 0-44.528-19.896-44.528-44.467 0-24.57 19.923-44.466 44.528-44.466 24.606 0 44.53 19.896 44.53 44.466"/>
        <path fill="#76797D" d="M303.21 353.881c0 21.962-17.855 39.792-39.848 39.792-21.992 0-39.847-17.83-39.847-39.792 0-21.96 17.855-39.79 39.847-39.79 22.102 0 39.848 17.83 39.848 39.79"/>
        <path fill="#000100" d="M298.528 353.881c0 19.353-15.677 35.117-35.166 35.117-19.379 0-35.165-15.656-35.165-35.117 0-19.352 15.677-35.116 35.165-35.116 19.489 0 35.166 15.764 35.166 35.116"/>
        <path fill="#363F51" d="M286.879 339.857h-25.803c-7.077 0-4.681 16.416-4.681 16.416s-14.045 0-14.045-14.024c0-9.35 9.363-11.742 14.045-11.742h30.484v9.35zM347.739 335.182h4.682v23.375h-4.682z"/>
        <path fill="#76797D" d="M319.65 356.165h23.408v2.392H319.65z"/>
        <path fill="#19253B" d="M319.65 353.881h23.408v2.283H319.65z"/>
        <path fill="#76797D" d="M319.65 349.207h23.408v2.283H319.65z"/>
        <path fill="#A2A8AE" d="M329.013 356.165h9.363v2.392h-9.363z"/>
        <path fill="#363F51" d="M329.013 353.881h9.363v2.283h-9.363z"/>
        <path fill="#76797D" d="M319.65 363.231h23.408v2.283H319.65z"/>
        <path fill="#19253B" d="M319.65 360.84h23.408v2.392H319.65z"/>
        <path fill="#A2A8AE" d="M329.013 363.231h9.363v2.283h-9.363z"/>
        <path fill="#363F51" d="M329.013 360.84h9.363v2.392h-9.363z"/>
        <path fill="#A2A8AE" d="M329.013 349.207h9.363v2.283h-9.363z"/>
        <path fill="#19253B" d="M319.65 346.815h23.408v2.392H319.65z"/>
        <path fill="#363F51" d="M329.013 346.815h9.363v2.392h-9.363z"/>
        <path fill="#76797D" d="M319.65 342.14h23.408v2.283H319.65z"/>
        <path fill="#A2A8AE" d="M329.013 342.14h9.363v2.283h-9.363z"/>
        <path fill="#19253B" d="M319.65 339.857h23.408v2.392H319.65z"/>
        <path fill="#363F51" d="M329.013 339.857h9.363v2.392h-9.363z"/>
        <path fill="#363F51" d="M289.165 335.182h14.045c6.314 0 6.968.435 6.968 7.067v9.35c0 9.35-4.682 7.066-7.077 4.674l-14.045-14.024c-4.572-4.784-2.177-7.067.11-7.067m-9.364 9.35l30.485 30.441s4.681 7.067 11.758 7.067h30.484v-7.067h-25.912c-4.681 0-7.62-2.392-9.363-4.675v-25.766c0-7.067 4.682-9.35 9.363-9.35h25.803v-9.35h-67.936c-14.045 0-16.331 6.958-4.682 18.7"/>
        <path fill="#363F51" d="M385.19 326.92c0 1.956-1.523 3.478-3.483 3.478h-60.86c-1.96 0-3.484-1.522-3.484-3.479s1.524-3.479 3.484-3.479h60.86c1.96 0 3.484 1.63 3.484 3.48"/>
        <path fill="#000100" d="M378.223 329.31c0 .653-.544 1.197-1.198 1.197h-49.21a1.207 1.207 0 0 1-1.198-1.196c0-.652.545-1.196 1.198-1.196h49.21c.654 0 1.198.544 1.198 1.196"/>
        <path fill="#363F51" d="M317.254 316.482h25.803v2.392h-25.803zM361.783 316.482h25.803v2.392h-25.803z"/>
        <path fill="#76797D" d="M277.516 363.231a4.644 4.644 0 0 1-4.682 4.675h-18.726a4.644 4.644 0 0 1-4.681-4.675v-18.7a4.644 4.644 0 0 1 4.681-4.674h18.726a4.644 4.644 0 0 1 4.682 4.675v18.7z"/>
        <path fill="#000100" d="M275.12 353.881c0 6.415-5.225 11.742-11.758 11.742-6.423 0-11.758-5.218-11.758-11.742 0-6.414 5.226-11.741 11.758-11.741a11.701 11.701 0 0 1 11.759 11.741"/>
        <path fill="#363F51" d="M272.834 353.881c0 5.219-4.246 9.35-9.363 9.35-5.226 0-9.363-4.24-9.363-9.35 0-5.218 4.246-9.35 9.363-9.35 5.117 0 9.363 4.132 9.363 9.35"/>
        <path fill="#76797D" d="M268.153 353.881a4.644 4.644 0 0 1-4.682 4.675 4.644 4.644 0 0 1-4.681-4.675 4.644 4.644 0 0 1 4.681-4.674 4.644 4.644 0 0 1 4.682 4.674"/>
        <path fill="#A14342" d="M.218 54.577h544.253V304.74H.218z"/>
        <path fill="#9A3434" d="M.218 265.058h537.177v39.791H.218z"/>
        <path fill="#5D1C1A" d="M.218 66.21h530.209v226.789H.218z"/>
        <path fill="#9A3434" d="M.218 66.21h525.527v226.789H.218z"/>
        <path fill="#932524" d="M.218 229.072c66.52-.326 137.506-1.957 209.361-6.197 238.867-14.025 316.166 0 316.166 0v70.124H.218v-63.927z"/>
        <path fill="#932524" d="M64.452 89.585h7.077v203.414h-7.077z"/>
        <path fill="url(#a)" d="M.218 243.966h525.527v49.141H.218z"/>
        <path fill="#5D1C1A" d="M.218 194.825h525.527v2.392H.218z"/>
        <path fill="#A14342" d="M.218 192.542h525.527v2.283H.218z"/>
        <path fill="#5D1C1A" d="M.218 52.185h551.221V66.21H.218z"/>
        <path fill="#AA5958" d="M.218 52.185h551.221v4.675H.218z"/>
        <path fill="#2D1111" d="M.218 66.21h544.253v4.675H.218z"/>
        <path fill="#A14342" d="M530.427 59.252h9.363v247.88h-9.363z"/>
        <path fill="#AA5958" d="M537.394 61.535h2.395v245.488h-2.395z"/>
        <path fill="#5D1C1A" d="M528.031 70.885h2.395v222.114h-2.395zM544.471 281.366h2.395v9.35h-2.395zM542.076 70.885h2.395v222.114h-2.395zM528.031 293.107h2.395v11.742h-2.395zM539.79 293.107h2.395v11.742h-2.395zM504.624 84.91c0 1.304-1.524 4.675-3.484 4.675H456.61c-1.96 0-3.484-3.37-3.484-4.675H504.624"/>
        <path fill="#A14342" d="M504.624 84.91c0 1.304-1.524 2.392-3.484 2.392H456.61c-1.96 0-3.484-1.088-3.484-2.392 0-1.305 1.524-2.283 3.484-2.283h44.529c1.96 0 3.484 1.087 3.484 2.283"/>
        <path fill="#5D1C1A" d="M504.624 127.093c0 1.305-1.524 4.675-3.484 4.675H456.61c-1.96 0-3.484-3.37-3.484-4.675H504.624"/>
        <path fill="#A14342" d="M504.624 127.093c0 1.305-1.524 2.392-3.484 2.392H456.61c-1.96 0-3.484-1.087-3.484-2.392s1.524-2.283 3.484-2.283h44.529c1.96-.109 3.484.978 3.484 2.283"/>
        <path fill="#5D1C1A" d="M504.624 171.45c0 1.305-1.524 4.675-3.484 4.675H456.61c-1.96 0-3.484-3.37-3.484-4.675H504.624"/>
        <path fill="#A14342" d="M504.624 171.45c0 1.305-1.524 2.392-3.484 2.392H456.61c-1.96 0-3.484-1.087-3.484-2.392 0-1.304 1.524-2.283 3.484-2.283h44.529c1.96 0 3.484.979 3.484 2.283"/>
        <path fill="#5D1C1A" d="M504.624 222.875c0 1.304-1.524 4.675-3.484 4.675H456.61c-1.96 0-3.484-3.37-3.484-4.675H504.624"/>
        <path fill="#A14342" d="M504.624 222.875c0 1.304-1.524 2.391-3.484 2.391H456.61c-1.96 0-3.484-1.087-3.484-2.391 0-1.305 1.524-2.283 3.484-2.283h44.529c1.96 0 3.484.978 3.484 2.283"/>
        <path fill="#5D1C1A" d="M504.624 264.949c0 1.305-1.524 4.675-3.484 4.675H456.61c-1.96 0-3.484-3.37-3.484-4.675H504.624"/>
        <path fill="#A14342" d="M504.624 264.949c0 1.305-1.524 2.392-3.484 2.392H456.61c-1.96 0-3.484-1.087-3.484-2.392s1.524-2.283 3.484-2.283h44.529c1.96 0 3.484 1.087 3.484 2.283M422.643 59.252h9.363v247.88h-9.363z"/>
        <path fill="#AA5958" d="M429.72 61.535h2.395v245.488h-2.395z"/>
        <path fill="#5D1C1A" d="M420.357 70.885h2.395v222.114h-2.395zM420.357 293.107h2.395v11.742h-2.395zM432.006 293.107h2.395v11.742h-2.395zM396.949 84.91c0 1.304-1.524 4.675-3.484 4.675h-44.529c-1.96 0-3.484-3.37-3.484-4.675h51.497"/>
        <path fill="#A14342" d="M396.949 84.91c0 1.304-1.524 2.392-3.484 2.392h-44.529c-1.96 0-3.484-1.088-3.484-2.392 0-1.305 1.525-2.283 3.484-2.283h44.53c1.85 0 3.483 1.087 3.483 2.283"/>
        <path fill="#5D1C1A" d="M396.949 127.093c0 1.305-1.524 4.675-3.484 4.675h-44.529c-1.96 0-3.484-3.37-3.484-4.675h51.497"/>
        <path fill="#A14342" d="M396.949 127.093c0 1.305-1.524 2.392-3.484 2.392h-44.529c-1.96 0-3.484-1.087-3.484-2.392s1.525-2.283 3.484-2.283h44.53c1.85-.109 3.483.978 3.483 2.283"/>
        <path fill="#5D1C1A" d="M396.949 171.45c0 1.305-1.524 4.675-3.484 4.675h-44.529c-1.96 0-3.484-3.37-3.484-4.675h51.497"/>
        <path fill="#A14342" d="M396.949 171.45c0 1.305-1.524 2.392-3.484 2.392h-44.529c-1.96 0-3.484-1.087-3.484-2.392 0-1.304 1.525-2.283 3.484-2.283h44.53c1.85 0 3.483.979 3.483 2.283"/>
        <path fill="#5D1C1A" d="M396.949 222.875c0 1.304-1.524 4.675-3.484 4.675h-44.529c-1.96 0-3.484-3.37-3.484-4.675h51.497"/>
        <path fill="#A14342" d="M396.949 222.875c0 1.304-1.524 2.391-3.484 2.391h-44.529c-1.96 0-3.484-1.087-3.484-2.391 0-1.305 1.525-2.283 3.484-2.283h44.53c1.85 0 3.483.978 3.483 2.283"/>
        <path fill="#5D1C1A" d="M396.949 264.949c0 1.305-1.524 4.675-3.484 4.675h-44.529c-1.96 0-3.484-3.37-3.484-4.675h51.497"/>
        <path fill="#A14342" d="M396.949 264.949c0 1.305-1.524 2.392-3.484 2.392h-44.529c-1.96 0-3.484-1.087-3.484-2.392s1.525-2.283 3.484-2.283h44.53c1.85 0 3.483 1.087 3.483 2.283M312.573 59.252h9.363v247.88h-9.363z"/>
        <path fill="#AA5958" d="M319.65 61.535h2.395v245.488h-2.395z"/>
        <path fill="#5D1C1A" d="M310.287 70.885h2.395v222.114h-2.395zM310.287 293.107h2.395v11.742h-2.395zM321.936 293.107h2.395v11.742h-2.395zM286.879 84.91c0 1.304-1.524 4.675-3.484 4.675h-44.529c-1.96 0-3.484-3.37-3.484-4.675H286.88"/>
        <path fill="#A14342" d="M286.879 84.91c0 1.304-1.524 2.392-3.484 2.392h-44.529c-1.96 0-3.484-1.088-3.484-2.392 0-1.305 1.524-2.283 3.484-2.283h44.529c1.85 0 3.484 1.087 3.484 2.283"/>
        <path fill="#5D1C1A" d="M286.879 127.093c0 1.305-1.524 4.675-3.484 4.675h-44.529c-1.96 0-3.484-3.37-3.484-4.675H286.88"/>
        <path fill="#A14342" d="M286.879 127.093c0 1.305-1.524 2.392-3.484 2.392h-44.529c-1.96 0-3.484-1.087-3.484-2.392s1.524-2.283 3.484-2.283h44.529c1.85-.109 3.484.978 3.484 2.283"/>
        <path fill="#5D1C1A" d="M286.879 171.45c0 1.305-1.524 4.675-3.484 4.675h-44.529c-1.96 0-3.484-3.37-3.484-4.675H286.88"/>
        <path fill="#A14342" d="M286.879 171.45c0 1.305-1.524 2.392-3.484 2.392h-44.529c-1.96 0-3.484-1.087-3.484-2.392 0-1.304 1.524-2.283 3.484-2.283h44.529c1.85 0 3.484.979 3.484 2.283"/>
        <path fill="#5D1C1A" d="M286.879 222.875c0 1.304-1.524 4.675-3.484 4.675h-44.529c-1.96 0-3.484-3.37-3.484-4.675H286.88"/>
        <path fill="#A14342" d="M286.879 222.875c0 1.304-1.524 2.391-3.484 2.391h-44.529c-1.96 0-3.484-1.087-3.484-2.391 0-1.305 1.524-2.283 3.484-2.283h44.529c1.85 0 3.484.978 3.484 2.283"/>
        <path fill="#5D1C1A" d="M286.879 264.949c0 1.305-1.524 4.675-3.484 4.675h-44.529c-1.96 0-3.484-3.37-3.484-4.675H286.88"/>
        <path fill="#A14342" d="M286.879 264.949c0 1.305-1.524 2.392-3.484 2.392h-44.529c-1.96 0-3.484-1.087-3.484-2.392s1.524-2.283 3.484-2.283h44.529c1.85 0 3.484 1.087 3.484 2.283M204.898 59.252h9.363v247.88h-9.363z"/>
        <path fill="#AA5958" d="M211.975 61.535h2.395v245.488h-2.395z"/>
        <path fill="#5D1C1A" d="M202.612 70.885h2.395v222.114h-2.395zM202.612 293.107h2.395v11.742h-2.395zM214.261 293.107h2.395v11.742h-2.395zM179.095 84.91c0 1.304-1.524 4.675-3.484 4.675h-44.529c-1.96 0-3.483-3.37-3.483-4.675H179.095"/>
        <path fill="#A14342" d="M179.095 84.91c0 1.304-1.524 2.392-3.484 2.392h-44.529c-1.96 0-3.483-1.088-3.483-2.392 0-1.305 1.524-2.283 3.483-2.283h44.53c1.959 0 3.483 1.087 3.483 2.283"/>
        <path fill="#5D1C1A" d="M179.095 127.093c0 1.305-1.524 4.675-3.484 4.675h-44.529c-1.96 0-3.483-3.37-3.483-4.675H179.095"/>
        <path fill="#A14342" d="M179.095 127.093c0 1.305-1.524 2.392-3.484 2.392h-44.529c-1.96 0-3.483-1.087-3.483-2.392s1.524-2.283 3.483-2.283h44.53c1.959-.109 3.483.978 3.483 2.283"/>
        <path fill="#5D1C1A" d="M179.095 171.45c0 1.305-1.524 4.675-3.484 4.675h-44.529c-1.96 0-3.483-3.37-3.483-4.675H179.095"/>
        <path fill="#A14342" d="M179.095 171.45c0 1.305-1.524 2.392-3.484 2.392h-44.529c-1.96 0-3.483-1.087-3.483-2.392 0-1.304 1.524-2.283 3.483-2.283h44.53c1.959 0 3.483.979 3.483 2.283"/>
        <path fill="#5D1C1A" d="M179.095 222.875c0 1.304-1.524 4.675-3.484 4.675h-44.529c-1.96 0-3.483-3.37-3.483-4.675H179.095"/>
        <path fill="#A14342" d="M179.095 222.875c0 1.304-1.524 2.391-3.484 2.391h-44.529c-1.96 0-3.483-1.087-3.483-2.391 0-1.305 1.524-2.283 3.483-2.283h44.53c1.959 0 3.483.978 3.483 2.283"/>
        <path fill="#5D1C1A" d="M179.095 264.949c0 1.305-1.524 4.675-3.484 4.675h-44.529c-1.96 0-3.483-3.37-3.483-4.675H179.095"/>
        <path fill="#A14342" d="M179.095 264.949c0 1.305-1.524 2.392-3.484 2.392h-44.529c-1.96 0-3.483-1.087-3.483-2.392s1.524-2.283 3.483-2.283h44.53c1.959 0 3.483 1.087 3.483 2.283M97.223 59.252h9.363v247.88h-9.363z"/>
        <path fill="#AA5958" d="M104.191 61.535h2.395v245.488h-2.395z"/>
        <path fill="#5D1C1A" d="M94.828 70.885h2.395v222.114h-2.395zM94.828 293.107h2.395v11.742h-2.395zM106.586 293.107h2.395v11.742h-2.395zM71.42 84.91c0 1.304-1.524 4.675-3.484 4.675H23.408c-1.96 0-3.484-3.37-3.484-4.675H71.42"/>
        <path fill="#A14342" d="M71.42 84.91c0 1.304-1.524 2.392-3.484 2.392H23.408c-1.96 0-3.484-1.088-3.484-2.392 0-1.305 1.524-2.283 3.484-2.283h44.528c1.96 0 3.484 1.087 3.484 2.283"/>
        <path fill="#5D1C1A" d="M71.42 127.093c0 1.305-1.524 4.675-3.484 4.675H23.408c-1.96 0-3.484-3.37-3.484-4.675H71.42"/>
        <path fill="#A14342" d="M71.42 127.093c0 1.305-1.524 2.392-3.484 2.392H23.408c-1.96 0-3.484-1.087-3.484-2.392s1.524-2.283 3.484-2.283h44.528c1.96-.109 3.484.978 3.484 2.283"/>
        <path fill="#5D1C1A" d="M71.42 171.45c0 1.305-1.524 4.675-3.484 4.675H23.408c-1.96 0-3.484-3.37-3.484-4.675H71.42"/>
        <path fill="#A14342" d="M71.42 171.45c0 1.305-1.524 2.392-3.484 2.392H23.408c-1.96 0-3.484-1.087-3.484-2.392 0-1.304 1.524-2.283 3.484-2.283h44.528c1.96 0 3.484.979 3.484 2.283"/>
        <path fill="#5D1C1A" d="M71.42 222.875c0 1.304-1.524 4.675-3.484 4.675H23.408c-1.96 0-3.484-3.37-3.484-4.675H71.42"/>
        <path fill="#A14342" d="M71.42 222.875c0 1.304-1.524 2.391-3.484 2.391H23.408c-1.96 0-3.484-1.087-3.484-2.391 0-1.305 1.524-2.283 3.484-2.283h44.528c1.96 0 3.484.978 3.484 2.283"/>
        <path fill="#5D1C1A" d="M71.42 264.949c0 1.305-1.524 4.675-3.484 4.675H23.408c-1.96 0-3.484-3.37-3.484-4.675H71.42"/>
        <path fill="#A14342" d="M71.42 264.949c0 1.305-1.524 2.392-3.484 2.392H23.408c-1.96 0-3.484-1.087-3.484-2.392s1.524-2.283 3.484-2.283h44.528c1.96 0 3.484 1.087 3.484 2.283M432.006 68.602h42.134v28.05h-42.134z"/>
        <path fill="#AA5958" d="M471.853 68.602h2.395v28.05h-2.395z"/>
        <path fill="#5D1C1A" d="M432.006 96.651h42.134v2.392h-42.134zM.218 295.39h202.394v2.283H.218z"/>
        <path fill="#AA5958" d="M.218 293.107h202.394v2.392H.218z"/>
        <path fill="#381213" d="M62.057 89.585h2.395v201.131h-2.395z"/>
        <path fill="#381213" d="M38.65 106.001h163.962v2.392H38.65z"/>
        <path fill="#AA5958" d="M64.452 101.326h138.159v2.392H64.452z"/>
        <path fill="#5D1C1A" d="M64.452 103.61h138.159v2.392H64.452zM190.853 281.366h11.758v9.35h-11.758zM193.249 108.284h11.758v9.35h-11.758zM190.853 91.977h11.758v9.35h-11.758z"/>
        <path fill="#AA5958" d="M195.535 103.61h7.077v14.025h-7.077zM197.93 283.757h4.682v7.067h-4.682z"/>
        <path fill="#381213" d="M.218 75.56h202.394v9.35H.218z"/>
        <path fill="#5D1C1A" d="M36.363 84.91h166.248v4.675H36.363z"/>
        <path fill="#381213" d="M36.363 84.91h166.248v2.392H36.363z"/>
        <path fill="#AA5958" d="M.218 80.235h202.394v4.675H.218z"/>
        <path fill="#9A3434" d="M.218 87.302h61.731v201.131H.218z"/>
        <path fill="#5D1C1A" d="M.218 87.302h50.19v4.675H.218z"/>
        <path fill="#932524" d="M.218 234.508l50.19-2.283v53.816H.218z"/>
        <path fill="#5D1C1A" d="M.218 269.733h50.19v2.392H.218z"/>
        <path fill="#A14342" d="M.218 267.341h50.19v2.283H.218z"/>
        <path fill="#5D1C1A" d="M.218 232.225h50.19v2.392H.218z"/>
        <path fill="#A14342" d="M.218 229.941h50.19v2.283H.218z"/>
        <path fill="#5D1C1A" d="M.218 250.924h50.19v2.392H.218z"/>
        <path fill="#A14342" d="M.218 248.641h50.19v2.283H.218z"/>
        <path fill="#5D1C1A" d="M.218 145.793h50.19v2.392H.218z"/>
        <path fill="#A14342" d="M.218 143.401h50.19v2.283H.218z"/>
        <path fill="#5D1C1A" d="M.218 108.284h50.19v2.392H.218z"/>
        <path fill="#A14342" d="M.218 106.001h50.19v2.392H.218z"/>
        <path fill="#5D1C1A" d="M.218 127.093h50.19v2.392H.218z"/>
        <path fill="#A14342" d="M.218 124.701h50.19v2.283H.218z"/>
        <path fill="#5D1C1A" d="M.218 199.5h50.19v2.392H.218z"/>
        <path fill="#A14342" d="M.218 197.217h50.19v2.283H.218z"/>
        <path fill="#5D1C1A" d="M.218 162.101h50.19v2.283H.218z"/>
        <path fill="#A14342" d="M.218 159.817h50.19v2.392H.218z"/>
        <path fill="#5D1C1A" d="M.218 180.8h50.19v2.392H.218z"/>
        <path fill="#A14342" d="M.218 178.517h50.19v2.283H.218z"/>
        <path fill="#5D1C1A" d="M.218 215.917h50.19v2.283H.218z"/>
        <path fill="#A14342" d="M.218 213.525h50.19v2.392H.218zM52.694 87.302h9.363v201.131h-9.363z"/>
        <path fill="#AA5958" d="M59.771 87.302h2.395v201.131h-2.395z"/>
        <path fill="#5D1C1A" d="M50.408 87.302h2.395v201.131h-2.395z"/>
        <path fill="#A14342" d="M.218 87.302h8.057v201.131H.218z"/>
        <path fill="#AA5958" d="M5.879 87.302h2.395v201.131H5.879z"/>
        <path fill="#5D1C1A" d="M.218 288.432h61.84v4.675H.218z"/>
        <path fill="#381213" d="M.218 288.432h61.84v2.392H.218z"/>
        <path fill="#AA5958" d="M.218 283.757h52.477v2.392H.218z"/>
        <path fill="#A14342" d="M.218 286.041h52.477v2.283H.218z"/>
        <path fill="#381213" d="M.218 84.91H55.09v2.392H.218z"/>
        <path fill="#2D1111" d="M300.923 17.178h88.949v7.067h-88.949z"/>
        <path fill="#AA5958" d="M298.528 17.178h93.63v2.392h-93.63z"/>
        <path fill="#5D1C1A" d="M300.923 21.853h88.949v2.392h-88.949zM373.541 14.786h4.682v2.392h-4.682zM310.287 14.786h4.682v2.392h-4.682z"/>
        <path fill="#A14342" d="M.218 24.136h551.221v28.05H.218z"/>
        <path fill="#AA5958" d="M.218 26.528h551.221v10.22H.218z"/>
        <path fill="#AA5958" d="M118.235 21.853h2.395v30.441h-2.395z"/>
        <path fill="#5D1C1A" d="M115.949 21.853h2.395v30.441h-2.395z"/>
        <path fill="#AA5958" d="M268.153 21.853h2.395v30.441h-2.395z"/>
        <path fill="#5D1C1A" d="M265.758 21.853h2.395v30.441h-2.395z"/>
        <path fill="#AA5958" d="M420.357 21.853h2.395v30.441h-2.395z"/>
        <path fill="#5D1C1A" d="M417.961 21.853h2.395v30.441h-2.395z"/>
        <path fill="#AA5958" d="M549.153 21.853h2.395v30.441h-2.395z"/>
        <path fill="#5D1C1A" d="M546.757 21.853h2.395v30.441h-2.395z"/>
        <path fill="#AA5958" d="M406.312 108.284a4.644 4.644 0 0 1-4.682 4.675h-58.573a4.644 4.644 0 0 1-4.681-4.675V87.193a4.644 4.644 0 0 1 4.681-4.675h58.573a4.644 4.644 0 0 1 4.682 4.675v21.091z"/>
        <path fill="#5D1C1A" d="M406.312 108.284a4.644 4.644 0 0 1-4.682 4.675h-58.573a4.644 4.644 0 0 1-4.681-4.675v-18.7a4.644 4.644 0 0 1 4.681-4.674h58.573a4.644 4.644 0 0 1 4.682 4.675v18.7z"/>
        <path fill="#A14342" d="M403.917 106.762c0 2.175-1.96 3.914-4.355 3.914h-54.436c-2.396 0-4.355-1.74-4.355-3.914v-17.83c0-2.174 1.96-3.913 4.355-3.913h54.436c2.395 0 4.355 1.739 4.355 3.913v17.83z"/>
        <path fill="#5D1C1A" d="M389.872 96.651c0 3.914-7.839 7.067-17.528 7.067-9.69 0-17.529-3.153-17.529-7.067 0-3.913 7.84-7.066 17.529-7.066 9.69 0 17.528 3.153 17.528 7.066"/>
        <path fill="#A14342" d="M389.872 97.847c0 3.262-7.839 5.871-17.528 5.871-9.69 0-17.529-2.609-17.529-5.87 0-3.262 7.84-5.871 17.529-5.871 9.69 0 17.528 2.609 17.528 5.87"/>
        <path fill="#5D1C1A" d="M350.134 108.284h2.395v7.067h-2.395z"/>
        <path fill="#A14342" d="M352.42 108.284h2.395v7.067h-2.395z"/>
        <path fill="#5D1C1A" d="M389.872 108.284h2.395v7.067h-2.395z"/>
        <path fill="#A14342" d="M392.267 108.284h2.395v7.067h-2.395z"/>
        <path fill="#AA5958" d="M296.242 108.284a4.644 4.644 0 0 1-4.682 4.675h-58.573a4.644 4.644 0 0 1-4.681-4.675V87.193a4.644 4.644 0 0 1 4.681-4.675h58.573a4.644 4.644 0 0 1 4.682 4.675v21.091z"/>
        <path fill="#5D1C1A" d="M296.242 108.284a4.644 4.644 0 0 1-4.682 4.675h-58.573a4.644 4.644 0 0 1-4.681-4.675v-18.7a4.644 4.644 0 0 1 4.681-4.674h58.573a4.644 4.644 0 0 1 4.682 4.675v18.7z"/>
        <path fill="#A14342" d="M293.847 106.762c0 2.175-1.96 3.914-4.355 3.914h-54.545c-2.395 0-4.355-1.74-4.355-3.914v-17.83c0-2.174 1.96-3.913 4.355-3.913h54.545c2.395 0 4.355 1.739 4.355 3.913v17.83z"/>
        <path fill="#5D1C1A" d="M279.802 96.651c0 3.914-7.839 7.067-17.528 7.067-9.69 0-17.529-3.153-17.529-7.067 0-3.913 7.84-7.066 17.529-7.066 9.69 0 17.528 3.153 17.528 7.066"/>
        <path fill="#A14342" d="M279.802 97.847c0 3.262-7.839 5.871-17.528 5.871-9.69 0-17.529-2.609-17.529-5.87 0-3.262 7.84-5.871 17.529-5.871 9.69 0 17.528 2.609 17.528 5.87"/>
        <path fill="#5D1C1A" d="M240.064 108.284h2.395v7.067h-2.395z"/>
        <path fill="#A14342" d="M242.35 108.284h2.395v7.067h-2.395z"/>
        <path fill="#5D1C1A" d="M279.802 108.284h2.395v7.067h-2.395z"/>
        <path fill="#A14342" d="M282.197 108.284h2.395v7.067h-2.395z"/>
        <path fill="#CEA59C" d="M232.987 267.341h4.682v4.675h-4.682zM240.064 267.341h4.682v4.675h-4.682zM258.79 267.341h4.682v4.675h-4.682zM249.427 267.341h2.395v4.675h-2.395zM254.108 267.341h2.395v4.675h-2.395zM265.758 267.341h2.395v4.675h-2.395zM272.834 267.341h4.682v4.675h-4.682zM279.802 267.341h2.395v4.675h-2.395zM286.879 267.341h4.682v4.675h-4.682zM293.847 267.341h2.395v4.675h-2.395zM291.56 274.408h4.682v2.392h-4.682zM284.484 274.408h4.682v2.392h-4.682zM265.758 274.408h4.682v2.392h-4.682zM277.516 274.408h2.395v2.392h-2.395zM272.834 274.408h2.395v2.392h-2.395zM261.076 274.408h2.395v2.392h-2.395zM251.713 274.408h4.682v2.392h-4.682zM247.032 274.408h2.395v2.392h-2.395zM237.669 274.408h4.682v2.392h-4.682zM232.987 274.408h2.395v2.392h-2.395zM232.987 279.083h4.682v2.392h-4.682zM240.064 279.083h4.682v2.392h-4.682zM258.79 279.083h4.682v2.392h-4.682zM249.427 279.083h2.395v2.392h-2.395zM254.108 279.083h2.395v2.392h-2.395zM265.758 279.083h2.395v2.392h-2.395zM272.834 279.083h4.682v2.392h-4.682zM279.802 279.083h2.395v2.392h-2.395zM232.987 257.991h21.121v4.675h-21.121z"/>
        <path fill="#CEA59C" d="M235.382 260.274h2.395v2.392h-2.395zM247.032 260.274h2.395v2.392h-2.395zM258.79 257.991h9.363v4.675h-9.363zM270.439 257.991h4.682v4.675h-4.682zM279.802 257.991h9.363v4.675h-9.363zM232.987 236.899h2.395v14.025h-2.395zM240.064 236.899h2.395v14.025h-2.395zM247.032 236.899h2.395v14.025h-2.395z"/>
        <path fill="#CEA59C" d="M242.35 236.899h4.682v2.283h-4.682zM242.35 248.641h4.682v2.283h-4.682zM251.931 236.899h2.395v14.025h-2.395zM259.008 236.899h2.395v14.025h-2.395z"/>
        <path fill="#CEA59C" d="M254.326 236.899h4.682v2.283h-4.682zM254.326 248.641h4.682v2.283h-4.682z"/>
    </g>
</svg>
