<svg xmlns="http://www.w3.org/2000/svg" width="32" height="36" viewBox="0 0 32 36">
    <g fill="none" fill-rule="nonzero">
        <path stroke="#EF8162" stroke-width="2" d="M30.279 10.507L20.802 1H2.234C1.554 1 1 1.558 1 2.25v31.5c0 .692.554 1.25 1.234 1.25h26.81c.68 0 1.235-.558 1.235-1.25V10.507z"/>
        <path fill="#B53629" d="M31.279 10.033h-7.796a2.236 2.236 0 0 1-2.237-2.235V0l10.033 10.033z"/>
        <path fill="#EF8162" d="M22.469 17.182c.367 0 .547-.316.547-.623 0-.318-.187-.625-.547-.625h-2.093c-.41 0-.638.335-.638.705v5.083c0 .453.262.704.615.704.35 0 .613-.251.613-.704v-1.395h1.266c.393 0 .59-.318.59-.633 0-.31-.197-.616-.59-.616h-1.266v-1.896h1.503zm-7.075-1.248h-1.531c-.416 0-.711.282-.711.7v5.092c0 .52.424.682.728.682h1.607c1.903 0 3.159-1.237 3.159-3.146-.001-2.018-1.184-3.328-3.252-3.328zm.074 5.219h-.934V17.19h.842c1.273 0 1.827.844 1.827 2.01 0 1.09-.544 1.953-1.735 1.953zm-5.61-5.219H8.34c-.429 0-.668.28-.668.705v5.083c0 .453.274.704.643.704s.643-.251.643-.704v-1.484h.95c1.175 0 2.143-.822 2.143-2.143 0-1.293-.934-2.16-2.194-2.16zm-.026 3.111h-.874v-1.917h.874c.54 0 .883.416.883.96 0 .541-.343.957-.883.957z"/>
    </g>
</svg>
