<svg xmlns="http://www.w3.org/2000/svg" width="1221" height="25" viewBox="0 0 1221 25">
    <path fill="none" fill-rule="evenodd" stroke="#F48266" stroke-linecap="round" stroke-linejoin="round" stroke-width="1.417" d="M1219.897 13.359h-20.128V24h-28.684V13.359h-47.754V24h-28.668V13.359h-47.739V24h-28.71V13.359h-47.733V24h-28.69V13.359H894.04V24h-28.701V13.359h-47.707V24h-28.706V13.359h-47.725V24h-28.699V13.359h-47.738V24h-28.696V13.359h-47.742V24h-28.693V13.359h-47.73V24h-28.684V13.359h-47.754V24h-28.682V13.359h-47.754V24h-28.685V13.359H282.62V24h-28.685V13.359h-47.752V24h-28.694V13.359h-47.741V24h-28.697V13.359H53.308V24h-28.68V13.359H1M1 .996h1218.897"/>
</svg>
