<?xml version="1.0" encoding="utf-8"?>
<!-- Generator: Adobe Illustrator 21.1.0, SVG Export Plug-In . SVG Version: 6.00 Build 0)  -->
<svg version="1.1" id="Слой_1" xmlns="http://www.w3.org/2000/svg" xmlns:xlink="http://www.w3.org/1999/xlink" x="0px" y="0px"
	 viewBox="0 0 449 264" style="enable-background:new 0 0 449 264;" xml:space="preserve">
<style type="text/css">
	.st0{fill:#221F20;}
	.st1{font-family:'Geometria';}
	.st2{font-size:8.0723px;}
	.st3{fill:#1375BB;}
	.st4{fill:#BABDBF;}
	.st5{fill:#EC1D24;}
	.st6{fill:#F7A98E;}
	.st7{fill:#C81D66;}
	.st8{fill:#6E6E71;}
	.st9{fill:#F5811E;}
	.st10{font-family:'Geometria-Bold';}
	.st11{font-size:7.0632px;}
	.st12{letter-spacing:3.1;}
	.st13{font-family:'Geometria-Medium';}
	.st14{font-size:10.0904px;}
	.st15{fill:#F48266;}
	.st16{font-size:6.4709px;}
	.st17{font-size:11.0994px;}
	.st18{font-size:4.7061px;}
	.st19{font-family:'Geometria-Italic';}
</style>
<text transform="matrix(0.9823 0 0 1 7.98 187.1006)" class="st0 st1 st2">ВРК</text>
<text transform="matrix(0.9823 0 0 1 23.7515 187.1006)" class="st0 st1 st2">-</text>
<text transform="matrix(0.9823 0 0 1 27.4067 187.1006)" class="st0 st1 st2">1</text>
<text transform="matrix(0.9823 0 0 1 7.98 199.209)" class="st0 st1 st2">ВРК</text>
<text transform="matrix(0.9823 0 0 1 23.7515 199.209)" class="st0 st1 st2">-</text>
<text transform="matrix(0.9823 0 0 1 27.4067 199.209)" class="st0 st1 st2">2</text>
<text transform="matrix(0.9823 0 0 1 7.98 211.3174)" class="st0 st1 st2">ВРК</text>
<text transform="matrix(0.9823 0 0 1 23.7515 211.3174)" class="st0 st1 st2">-</text>
<text transform="matrix(0.9823 0 0 1 27.4067 211.3174)" class="st0 st1 st2">3</text>
<text transform="matrix(0.9823 0 0 1 7.98 223.4258)"><tspan x="0" y="0" class="st0 st1 st2">В</tspan><tspan x="5.8" y="0" class="st0 st1 st2">ЧДЭ</tspan></text>
<text transform="matrix(0.9823 0 0 1 7.98 235.5342)"><tspan x="0" y="0" class="st0 st1 st2">Ча</tspan><tspan x="10.4" y="0" class="st0 st1 st2">с</tspan><tspan x="14.6" y="0" class="st0 st1 st2">тные депо</tspan></text>
<text transform="matrix(0.9823 0 0 1 7.98 247.6426)" class="st0 st1 st2">ВРП</text>
<text transform="matrix(0.9823 0 0 1 7.98 259.751)" class="st0 st1 st2">Заво</text>
<text transform="matrix(0.9823 0 0 1 27.019 259.751)"><tspan x="0" y="0" class="st0 st1 st2">ды </tspan><tspan x="13.2" y="0" class="st0 st1 st2">х</tspan><tspan x="17.6" y="0" class="st0 st1 st2">о</tspan><tspan x="22.4" y="0" class="st0 st1 st2">лдин</tspan><tspan x="42.4" y="0" class="st0 st1 st2">г</tspan><tspan x="46.2" y="0" class="st0 st1 st2">а «</tspan><tspan x="57.5" y="0" class="st0 st1 st2">Р</tspan><tspan x="62.8" y="0" class="st0 st1 st2">ЖД»</tspan></text>
<rect x="1" y="182.3" class="st3" width="4.3" height="4.4"/>
<rect x="1" y="194.4" class="st4" width="4.3" height="4.4"/>
<rect x="1" y="206.5" class="st5" width="4.3" height="4.4"/>
<rect x="1" y="218.6" class="st6" width="4.3" height="4.4"/>
<rect x="1" y="230.6" class="st7" width="4.3" height="4.4"/>
<rect x="1" y="242.7" class="st8" width="4.3" height="4.4"/>
<rect x="1" y="254.8" class="st9" width="4.3" height="4.4"/>
<path class="st3" d="M113.1,52c5.6,0,11,0.6,16.3,1.9c5.3,1.3,10.3,3,15,5.4c4.7,2.3,9.2,5.2,13.3,8.5c4.1,3.3,7.8,7,11.1,11.1
	c3.3,4.1,6.2,8.5,8.6,13.3c2.4,4.8,4.3,9.8,5.6,15.1l-70,18.3V52z"/>
<path class="st4" d="M183,107.2c1.4,5.5,2.1,11,2.2,16.5c0.1,5.5-0.3,10.9-1.4,16.1c-1,5.2-2.6,10.3-4.7,15.2
	c-2.1,4.9-4.7,9.5-7.8,13.8c-3.1,4.3-6.6,8.2-10.5,11.8c-4,3.6-8.3,6.7-13,9.3l-34.8-64.4L183,107.2z"/>
<path class="st5" d="M147.8,189.9c-6,3.4-12.1,5.8-18.5,7.2c-6.4,1.5-12.7,2.1-19.1,1.8c-6.3-0.3-12.6-1.3-18.7-3.3
	c-6.1-1.9-11.8-4.6-17.2-8.1l38.7-62.1L147.8,189.9z"/>
<path class="st7" d="M70.7,184.9c-5.4-4-10-8.5-14-13.6c-4-5.1-7.2-10.5-9.7-16.3c-2.5-5.8-4.2-11.8-5.2-18
	c-1-6.2-1.2-12.5-0.6-18.8c0.6-6.3,2-12.5,4.2-18.6c2.2-6.1,5.3-11.9,9.2-17.3c2.6-3.6,5.4-6.9,8.4-9.9c3.1-3,6.3-5.6,9.7-8
	c3.4-2.3,7-4.3,10.7-6c3.7-1.7,7.6-3,11.5-4.1l18,71.1L70.7,184.9z"/>
<text transform="matrix(0.9823 0 0 1 54.7354 201.5557)"><tspan x="0" y="0" class="st8 st10 st11">0</tspan><tspan x="4.7" y="0" class="st8 st10 st11">,14% </tspan></text>
<text transform="matrix(0.9823 0 0 1 159.0464 62.4727)"><tspan x="0" y="0" class="st8 st10 st11">2</tspan><tspan x="4.1" y="0" class="st8 st10 st11">0</tspan><tspan x="8.8" y="0" class="st8 st10 st11">,</tspan><tspan x="10.8" y="0" class="st8 st10 st11">7</tspan><tspan x="14.6" y="0" class="st8 st10 st11">6% </tspan></text>
<text transform="matrix(0.9823 0 0 1 185.7378 161.1533)"><tspan x="0" y="0" class="st8 st10 st11">2</tspan><tspan x="4.1" y="0" class="st8 st10 st11">0</tspan><tspan x="8.8" y="0" class="st8 st10 st11">,31%</tspan></text>
<text transform="matrix(0.9823 0 0 1 96.8789 209.0635)"><tspan x="0" y="0" class="st8 st10 st11">1</tspan><tspan x="2.8" y="0" class="st8 st10 st11">7</tspan><tspan x="5.8" y="0" class="st8 st10 st11">,36%</tspan></text>
<text transform="matrix(0.9823 0 0 1 10.8296 123.6118)"><tspan x="0" y="0" class="st8 st10 st11">38,</tspan><tspan x="10.6" y="0" class="st8 st10 st11">0</tspan><tspan x="15.5" y="0" class="st8 st10 st11">7%</tspan></text>
<text transform="matrix(0.9823 0 0 1 87.394 47.2437)"><tspan x="0" y="0" class="st8 st10 st11">1,64</tspan><tspan x="13.8" y="0" class="st8 st10 st11 st12">%</tspan><tspan x="22.9" y="0" class="st8 st10 st11">1,72%</tspan></text>
<text transform="matrix(0.9823 0 0 1 94.1416 117.7417)"><tspan x="0" y="0" class="st0 st13 st14">И</tspan><tspan x="7.7" y="0" class="st0 st13 st14">Т</tspan><tspan x="13.6" y="0" class="st0 st13 st14">О</tspan><tspan x="22.1" y="0" class="st0 st13 st14">Г</tspan><tspan x="27.8" y="0" class="st0 st13 st14">О:</tspan></text>
<path class="st0" d="M94.1,131.7v-2.1h-4.2v-1.3l4.1-5.1h1.7v4.9H97v1.4h-1.2v2.1H94.1z M91.8,128.2h2.3v-2.8L91.8,128.2z
	 M97.9,127.9c0-2.5,1.2-4.8,3.8-4.8c0.7,0,1.3,0.2,1.9,0.5v1.6c-0.5-0.4-1.1-0.5-1.7-0.5c-0.7,0-1.2,0.2-1.6,0.7
	c-0.4,0.4-0.6,1-0.7,1.6c0.4-0.5,1.1-0.8,1.9-0.8c0.8,0,1.4,0.3,1.9,0.8c0.5,0.5,0.8,1.1,0.8,2c0,0.9-0.3,1.6-0.9,2.2
	c-0.6,0.6-1.3,0.8-2.2,0.8C99.2,131.9,97.9,130.4,97.9,127.9z M102.6,128.9c0-0.8-0.6-1.4-1.4-1.4c-0.7,0-1.3,0.4-1.5,1.1
	c0,1.1,0.6,1.8,1.5,1.8C102,130.4,102.6,129.8,102.6,128.9z M105.4,131.3v-1.6c0.7,0.4,1.5,0.7,2.3,0.7c1,0,1.8-0.5,1.8-1.4
	c0-0.8-0.7-1.4-1.9-1.4c-0.7,0-1.3,0.1-2,0.4l0.5-4.6h4.4v1.5h-3.2l-0.2,1.4c0.3-0.1,0.5-0.1,0.8-0.1c0.9,0,1.7,0.3,2.2,0.8
	c0.6,0.5,0.9,1.2,0.9,2c0,0.9-0.3,1.7-1,2.2c-0.7,0.5-1.5,0.8-2.5,0.8C106.9,131.9,106.1,131.7,105.4,131.3z M115.4,131.2v-1.7
	c0.7,0.5,1.5,0.8,2.4,0.8c1,0,1.7-0.5,1.7-1.4c0-0.8-0.6-1.4-1.7-1.4c-0.4,0-0.8,0.1-1.2,0.2v-1.1l2-1.9h-3.1v-1.5h5.3v1.3l-1.9,1.8
	c0.6,0.1,1.1,0.4,1.6,0.8c0.5,0.4,0.7,1,0.7,1.8c0,0.9-0.3,1.6-1,2.2c-0.6,0.5-1.4,0.8-2.4,0.8C116.9,131.9,116.1,131.6,115.4,131.2
	z M122.7,131.7l3.4-6.9h-3.9v-1.6h5.9v1.3l-3.5,7.1H122.7z M130.5,131.2c-1.1-0.8-1.7-2.2-1.7-3.8c0-0.8,0.1-1.5,0.4-2.2
	c0.6-1.3,1.7-2.3,3.2-2.3c1.1,0,2,0.4,2.6,1.3c0.7,0.9,1,1.9,1,3.1s-0.3,2.3-1,3.1c-0.6,0.9-1.5,1.3-2.6,1.3
	C131.7,131.9,131.1,131.7,130.5,131.2z M132.5,130.2c0.6,0,1-0.3,1.4-0.8c0.3-0.5,0.5-1.2,0.5-2c0-0.8-0.2-1.4-0.5-2
	c-0.3-0.5-0.8-0.8-1.4-0.8s-1,0.3-1.4,0.8c-0.3,0.5-0.5,1.2-0.5,2c0,0.8,0.2,1.4,0.5,2C131.5,130,131.9,130.2,132.5,130.2z"/>
<text transform="matrix(0.9823 0 0 1 92.8633 142.8008)"><tspan x="0" y="0" class="st0 st13 st14">ва</tspan><tspan x="11.9" y="0" class="st0 st13 st14">г</tspan><tspan x="16.7" y="0" class="st0 st13 st14">онов</tspan></text>
<text transform="matrix(0.9823 0 0 1 1.2178 10.5767)"><tspan x="0" y="0" class="st15 st10 st14">Д</tspan><tspan x="8.3" y="0" class="st15 st10 st14">О</tspan><tspan x="16.8" y="0" class="st15 st10 st14">Л</tspan><tspan x="24.5" y="0" class="st15 st10 st14">Я </tspan><tspan x="35" y="0" class="st15 st10 st14">К</tspan><tspan x="41.7" y="0" class="st15 st10 st14">ОМ</tspan><tspan x="59.2" y="0" class="st15 st10 st14">П</tspan><tspan x="67" y="0" class="st15 st10 st14">АНИ</tspan><tspan x="91" y="0" class="st15 st10 st14">И </tspan><tspan x="101.8" y="0" class="st15 st10 st14">Н</tspan><tspan x="109.7" y="0" class="st15 st10 st14">А </tspan><tspan x="120.6" y="0" class="st15 st10 st14">Р</tspan><tspan x="127.5" y="0" class="st15 st10 st14">Е</tspan><tspan x="134.3" y="0" class="st15 st10 st14">М</tspan><tspan x="143.1" y="0" class="st15 st10 st14">ОНТНО</tspan><tspan x="183.2" y="0" class="st15 st10 st14">М</tspan><tspan x="191.8" y="0" class="st15 st10 st14"> </tspan></text>
<text transform="matrix(0.9823 0 0 1 1.2178 22.6851)"><tspan x="0" y="0" class="st15 st10 st14">Р</tspan><tspan x="7" y="0" class="st15 st10 st14">Ы</tspan><tspan x="16.6" y="0" class="st15 st10 st14">Н</tspan><tspan x="24.6" y="0" class="st15 st10 st14">К</tspan><tspan x="32" y="0" class="st15 st10 st14">Е В </tspan><tspan x="51.8" y="0" class="st15 st10 st14">С</tspan><tspan x="59" y="0" class="st15 st10 st14">Е</tspan><tspan x="65.7" y="0" class="st15 st10 st14">ГМ</tspan><tspan x="81.1" y="0" class="st15 st10 st14">Е</tspan><tspan x="87.8" y="0" class="st15 st10 st14">НТ</tspan><tspan x="102.6" y="0" class="st15 st10 st14">Е</tspan><tspan x="109.3" y="0" class="st15 st10 st14"> </tspan><tspan x="112.2" y="0" class="st15 st10 st14">П</tspan><tspan x="119.9" y="0" class="st15 st10 st14">Л</tspan><tspan x="127.6" y="0" class="st15 st10 st14">АНОВЫ</tspan><tspan x="169.5" y="0" class="st15 st10 st14">Х</tspan><tspan x="176.9" y="0" class="st15 st10 st14"> </tspan></text>
<text transform="matrix(0.9823 0 0 1 177.9771 22.6851)" class="st15 st10 st14"> </text>
<text transform="matrix(0.9823 0 0 1 1.2178 34.7935)"><tspan x="0" y="0" class="st15 st10 st14">В</tspan><tspan x="7.5" y="0" class="st15 st10 st14">И</tspan><tspan x="15.5" y="0" class="st15 st10 st14">ДО</tspan><tspan x="32.5" y="0" class="st15 st10 st14">В</tspan><tspan x="40" y="0" class="st15 st10 st14"> </tspan><tspan x="42.8" y="0" class="st15 st10 st14">Р</tspan><tspan x="49.8" y="0" class="st15 st10 st14">Е</tspan><tspan x="56.5" y="0" class="st15 st10 st14">М</tspan><tspan x="65.4" y="0" class="st15 st10 st14">ОН</tspan><tspan x="82" y="0" class="st15 st10 st14">Т</tspan><tspan x="87.8" y="0" class="st15 st10 st14">А </tspan><tspan x="98.7" y="0" class="st15 st10 st14">В</tspan></text>
<text transform="matrix(0.9823 0 0 1 105.5503 34.7935)" class="st15 st10 st14"> </text>
<text transform="matrix(0.9823 0 0 1 108.2861 34.7935)"><tspan x="0" y="0" class="st15 st10 st14">20</tspan><tspan x="13.3" y="0" class="st15 st10 st14">1</tspan></text>
<text transform="matrix(0.9823 0 0 1 125.4639 34.7935)" class="st15 st10 st14">6</text>
<text transform="matrix(0.9823 0 0 1 131.9854 34.7935)" class="st15 st10 st14"> </text>
<text transform="matrix(0.9823 0 0 1 134.7705 34.7935)"><tspan x="0" y="0" class="st15 st10 st14">Г</tspan><tspan x="5.4" y="0" class="st15 st10 st14">.</tspan></text>
<text transform="matrix(0.9823 0 0 1 142.8491 34.7935)"><tspan x="0" y="0" class="st15 st10 st14">, </tspan><tspan x="5.8" y="0" class="st15 st10 st14">%</tspan></text>
<path class="st3" d="M337.7,52c5.9,0,11.5,0.7,17,2.1c5.5,1.4,10.7,3.3,15.6,5.9c4.9,2.5,9.4,5.6,13.6,9.2c4.2,3.6,8,7.6,11.3,12
	c3.3,4.4,6.1,9.2,8.4,14.4c2.3,5.1,4,10.5,5,16.2l-70.9,13.8V52z"/>
<path class="st4" d="M408.6,111.7c1.4,7.6,1.7,15.1,0.8,22.5c-0.9,7.4-2.8,14.4-5.7,21c-2.9,6.6-6.6,12.7-11.3,18.2
	c-4.6,5.5-10,10.3-16,14.2l-38.7-62.1L408.6,111.7z"/>
<path class="st5" d="M376.3,187.6c-5.4,3.5-11.1,6.2-17,8c-5.9,1.9-11.8,2.9-17.8,3.3c-6,0.3-11.9-0.1-17.8-1.3
	c-5.9-1.2-11.5-3-16.9-5.6l30.8-66.5L376.3,187.6z"/>
<path class="st7" d="M337.7,125.5L306.9,192c-6-2.9-11.4-6.4-16.3-10.7c-4.8-4.3-9-9-12.5-14.2c-3.5-5.2-6.3-10.8-8.4-16.7
	c-2.1-6-3.4-12.1-4-18.3c-0.6-6.3-0.3-12.6,0.8-19c1.1-6.4,3-12.7,5.8-18.8c3.1-6.7,6.9-12.6,11.6-17.8c4.7-5.2,9.8-9.6,15.5-13.2
	c5.7-3.6,11.8-6.3,18.3-8.2c6.5-1.9,13.1-2.8,19.9-2.8V125.5z"/>
<text transform="matrix(0.9823 0 0 1 390.4922 68.8389)" class="st8 st10 st11">22% </text>
<text transform="matrix(0.9823 0 0 1 409.6416 160.6543)" class="st8 st10 st11">19%</text>
<text transform="matrix(0.9823 0 0 1 334.5068 208.7061)" class="st8 st10 st11">16%</text>
<text transform="matrix(0.9823 0 0 1 248.249 133.4326)" class="st8 st10 st11">43%</text>
<path class="st15" d="M232.6,4.4c0.7-0.7,1.5-1.1,2.6-1.1c1,0,1.9,0.4,2.6,1.1c0.7,0.7,1,1.6,1,2.6c0,1-0.3,1.9-1,2.6
	c-0.7,0.7-1.5,1.1-2.6,1.1c-1,0-1.9-0.4-2.6-1.1c-0.7-0.7-1-1.6-1-2.6C231.6,6,232,5.2,232.6,4.4z M235.2,9.4c0.6,0,1.1-0.2,1.5-0.7
	c0.4-0.4,0.6-1,0.6-1.7c0-0.7-0.2-1.2-0.6-1.7c-0.4-0.4-0.9-0.7-1.5-0.7c-0.6,0-1.1,0.2-1.5,0.7c-0.4,0.4-0.6,1-0.6,1.7
	c0,0.7,0.2,1.2,0.6,1.7C234.1,9.1,234.6,9.4,235.2,9.4z M240.4,10.6V3.5h5v1.3h-3.6v1.1h1.6c0.8,0,1.4,0.2,1.9,0.6
	c0.5,0.4,0.7,1,0.7,1.7s-0.2,1.2-0.7,1.7c-0.5,0.4-1.1,0.6-1.9,0.6H240.4z M241.8,9.3h1.5c0.8,0,1.3-0.4,1.3-1.1s-0.5-1.1-1.3-1.1
	h-1.5V9.3z M255.8,12v-1.4h-8.3V3.5h1.4v5.8h2.2V3.5h1.4v5.8h2.2V3.5h1.4v5.8h1V12H255.8z M257.9,10.6l3-7.1h1.4l3,7.1h-1.5L263,8.9
	h-2.9l-0.7,1.6H257.9z M260.5,7.7h2l-1-2.5L260.5,7.7z M265.8,10.6l2.2-3c-0.9-0.3-1.4-1-1.4-2c0-0.6,0.2-1.1,0.6-1.5
	c0.4-0.4,1-0.6,1.7-0.6h3.2v7.1h-1.4V7.7h-1.2l-2,2.9H265.8z M270.7,6.5V4.8H269c-0.6,0-1,0.3-1,0.9c0,0.6,0.4,0.9,1,0.9H270.7z
	 M276.2,12V9.3h0.7c0.3-0.5,0.5-1.1,0.7-1.8c0.1-0.7,0.2-1.7,0.2-2.8V3.5h4.9v5.8h1V12h-1.3v-1.4h-4.7V12H276.2z M281.2,9.3V4.8h-2
	c0,1.8-0.1,3.2-0.8,4.5H281.2z M285.7,4.4c0.7-0.7,1.5-1.1,2.6-1.1s1.9,0.4,2.6,1.1c0.7,0.7,1,1.6,1,2.6c0,1-0.3,1.9-1,2.6
	c-0.7,0.7-1.5,1.1-2.6,1.1s-1.9-0.4-2.6-1.1c-0.7-0.7-1-1.6-1-2.6C284.7,6,285,5.2,285.7,4.4z M288.3,9.4c0.6,0,1.1-0.2,1.5-0.7
	c0.4-0.4,0.6-1,0.6-1.7c0-0.7-0.2-1.2-0.6-1.7c-0.4-0.4-0.9-0.7-1.5-0.7s-1.1,0.2-1.5,0.7c-0.4,0.4-0.6,1-0.6,1.7
	c0,0.7,0.2,1.2,0.6,1.7C287.1,9.1,287.7,9.4,288.3,9.4z M292.6,9.2c0.1,0.1,0.3,0.1,0.5,0.1c0.4,0,0.6-0.3,0.8-0.8
	C294,8,294,7,294.1,5.6l0-2.1h4.9v7.1h-1.4V4.8h-2.1l0,1.4c0,1.6-0.2,2.8-0.6,3.4c-0.3,0.6-0.9,0.9-1.7,0.9c-0.2,0-0.4,0-0.6-0.1
	V9.2z M300.2,10.6l2.2-3c-0.9-0.3-1.4-1-1.4-2c0-0.6,0.2-1.1,0.6-1.5c0.4-0.4,1-0.6,1.7-0.6h3.2v7.1h-1.4V7.7h-1.2l-2,2.9H300.2z
	 M305.1,6.5V4.8h-1.7c-0.6,0-1,0.3-1,0.9c0,0.6,0.4,0.9,1,0.9H305.1z M310.5,10.6l3-7.1h1.4l3,7.1h-1.5l-0.7-1.6h-2.9l-0.7,1.6
	H310.5z M313.1,7.7h2l-1-2.5L313.1,7.7z M319.3,4.4c0.7-0.7,1.5-1.1,2.6-1.1s1.9,0.4,2.6,1.1c0.7,0.7,1,1.6,1,2.6c0,1-0.3,1.9-1,2.6
	c-0.7,0.7-1.5,1.1-2.6,1.1s-1.9-0.4-2.6-1.1c-0.7-0.7-1-1.6-1-2.6C318.3,6,318.6,5.2,319.3,4.4z M321.9,9.4c0.6,0,1.1-0.2,1.5-0.7
	c0.4-0.4,0.6-1,0.6-1.7c0-0.7-0.2-1.2-0.6-1.7c-0.4-0.4-0.9-0.7-1.5-0.7s-1.1,0.2-1.5,0.7c-0.4,0.4-0.6,1-0.6,1.7
	c0,0.7,0.2,1.2,0.6,1.7C320.8,9.1,321.3,9.4,321.9,9.4z M330.7,9.2l-1.4-1.8V6.7l1.4-1.8h1.4L330.5,7l1.6,2.2H330.7z M333.1,9.2
	l-1.4-1.8V6.7l1.4-1.8h1.4L332.9,7l1.6,2.2H333.1z M335.9,10.6V3.5h3.3c1.3,0,2.1,0.6,2.1,1.8c0,0.7-0.4,1.2-0.9,1.4
	c0.4,0.1,0.7,0.3,1,0.6c0.3,0.3,0.4,0.7,0.4,1.3c0,0.6-0.2,1.1-0.7,1.5c-0.4,0.4-1,0.6-1.8,0.6H335.9z M337.3,6.3h1.6
	c0.6,0,1-0.3,1-0.8c0-0.5-0.4-0.8-1-0.8h-1.6V6.3z M337.3,9.3h1.8c0.7,0,1.1-0.3,1.1-0.9c0-0.6-0.4-0.9-1.1-0.9h-1.8V9.3z
	 M343.3,10.6V3.5h3c0.7,0,1.3,0.2,1.8,0.6c0.4,0.4,0.7,0.9,0.7,1.5s-0.2,1.1-0.7,1.5c-0.4,0.4-1,0.6-1.8,0.6h-1.6v2.8H343.3z
	 M344.7,6.5h1.5c0.7,0,1.1-0.3,1.1-0.9s-0.4-0.9-1.1-0.9h-1.5V6.5z M350.1,10.6V3.5h1.4v2.8l2.6-2.8h1.7l-2.9,3.2l3.4,3.8h-1.8
	l-3-3.3v3.3H350.1z M357.2,7.3V6h3.1v1.3H357.2z M363.1,10.6V5.1l-1.5,0.8V4.4l1.6-0.9h1.2v7.1H363.1z M365.8,9.2l1.6-2.2l-1.6-2.2
	h1.4l1.4,1.8v0.7l-1.4,1.8H365.8z M368.3,9.2l1.6-2.2l-1.6-2.2h1.4l1.4,1.8v0.7l-1.4,1.8H368.3z"/>
<text transform="matrix(0.9823 0 0 1 231.0918 22.686)"><tspan x="0" y="0" class="st15 st10 st14">Н</tspan><tspan x="7.9" y="0" class="st15 st10 st14">А </tspan><tspan x="18.8" y="0" class="st15 st10 st14">РО</tspan><tspan x="34.4" y="0" class="st15 st10 st14">С</tspan><tspan x="41.3" y="0" class="st15 st10 st14">СИ</tspan><tspan x="56.5" y="0" class="st15 st10 st14">Й</tspan><tspan x="64.4" y="0" class="st15 st10 st14">С</tspan><tspan x="71.6" y="0" class="st15 st10 st14">К</tspan><tspan x="78.3" y="0" class="st15 st10 st14">О</tspan><tspan x="87" y="0" class="st15 st10 st14">М </tspan><tspan x="98.6" y="0" class="st15 st10 st14">ВА</tspan><tspan x="114.2" y="0" class="st15 st10 st14">Г</tspan><tspan x="120.3" y="0" class="st15 st10 st14">О</tspan><tspan x="129" y="0" class="st15 st10 st14">Н</tspan><tspan x="136.9" y="0" class="st15 st10 st14">О</tspan><tspan x="145.6" y="0" class="st15 st10 st14">РЕ</tspan><tspan x="159.3" y="0" class="st15 st10 st14">МОНТ</tspan><tspan x="191.6" y="0" class="st15 st10 st14">Н</tspan><tspan x="199.6" y="0" class="st15 st10 st14">О</tspan><tspan x="208.3" y="0" class="st15 st10 st14">М</tspan><tspan x="216.8" y="0" class="st15 st10 st14"> </tspan></text>
<text transform="matrix(0.9823 0 0 1 231.0918 34.7944)"><tspan x="0" y="0" class="st15 st10 st14">Р</tspan><tspan x="6.9" y="0" class="st15 st10 st14">Ы</tspan><tspan x="16.6" y="0" class="st15 st10 st14">Н</tspan><tspan x="24.5" y="0" class="st15 st10 st14">К</tspan><tspan x="32" y="0" class="st15 st10 st14">Е</tspan><tspan x="38.7" y="0" class="st15 st10 st14">,</tspan><tspan x="41.7" y="0" class="st15 st10 st14"> </tspan><tspan x="44.5" y="0" class="st15 st10 st14">%</tspan><tspan x="52.9" y="0" class="st15 st10 st14">,</tspan><tspan x="56" y="0" class="st15 st10 st14"> </tspan></text>
<text transform="matrix(0.9823 0 0 1 288.8379 31.0981)" class="st15 st10 st16">1</text>
<text transform="matrix(0.9823 0 0 1 291.3164 34.7944)" class="st15 st10 st17">, </text>
<text transform="matrix(0.9823 0 0 1 297.1611 31.0981)" class="st15 st10 st16">2</text>
<text transform="matrix(0.9823 0 0 1 300.835 34.7944)" class="st15 st10 st2"> </text>
<text transform="matrix(0.9823 0 0 1 163.9614 217.8857)" class="st0 st10 st18">1</text>
<text transform="matrix(0.9823 0 0 1 165.7642 220.5742)" class="st0 st1 st2"> </text>
<text transform="matrix(0.9823 0 0 1 167.8579 220.5742)" class="st0 st19 st2"> </text>
<text transform="matrix(0.9823 0 0 1 167.8579 220.5742)" class="st0 st19 st2"> </text>
<text transform="matrix(0.9823 0 0 1 169.9512 220.5742)" class="st0 st19 st2"> </text>
<text transform="matrix(0.9823 0 0 1 169.9512 220.5742)"><tspan x="0" y="0" class="st0 st19 st2">Д</tspan><tspan x="6.3" y="0" class="st0 st19 st2">о</tspan><tspan x="11.2" y="0" class="st0 st19 st2">ля расчитывалась по ключевым </tspan><tspan x="141" y="0" class="st0 st19 st2">у</tspan><tspan x="145.4" y="0" class="st0 st19 st2">с</tspan><tspan x="149.5" y="0" class="st0 st19 st2">лу</tspan><tspan x="158.8" y="0" class="st0 st19 st2">г</tspan><tspan x="162.5" y="0" class="st0 st19 st2">ам (плановые виды ремонта </tspan></text>
<text transform="matrix(0.9823 0 0 1 169.9512 229.6553)"><tspan x="0" y="0" class="st0 st19 st2">г</tspan><tspan x="3.9" y="0" class="st0 st19 st2">р</tspan><tspan x="9" y="0" class="st0 st19 st2">у</tspan></text>
<text transform="matrix(0.9823 0 0 1 183.0586 229.6553)"><tspan x="0" y="0" class="st0 st19 st2">зовых ва</tspan><tspan x="35.7" y="0" class="st0 st19 st2">г</tspan><tspan x="39.5" y="0" class="st0 st19 st2">оно</tspan><tspan x="54.4" y="0" class="st0 st19 st2">в</tspan><tspan x="59" y="0" class="st0 st19 st2">,</tspan><tspan x="61" y="0" class="st0 st19 st2"> </tspan><tspan x="62.8" y="0" class="st0 st19 st2">т</tspan><tspan x="66.5" y="0" class="st0 st19 st2">е</tspan><tspan x="71.2" y="0" class="st0 st19 st2">к</tspan><tspan x="75.5" y="0" class="st0 st19 st2">ущий </tspan><tspan x="98.9" y="0" class="st0 st19 st2">о</tspan><tspan x="103.8" y="0" class="st0 st19 st2">тцепочный ремон</tspan><tspan x="174.9" y="0" class="st0 st19 st2">т</tspan><tspan x="178.4" y="0" class="st0 st19 st2"> (Т</tspan><tspan x="188.3" y="0" class="st0 st19 st2">Р</tspan><tspan x="193.4" y="0" class="st0 st19 st2">-</tspan><tspan x="197" y="0" class="st0 st19 st2">2), уча</tspan><tspan x="222.3" y="0" class="st0 st19 st2">с</tspan><tspan x="226.4" y="0" class="st0 st19 st2">т</tspan><tspan x="230.3" y="0" class="st0 st19 st2">к</tspan><tspan x="234.4" y="0" class="st0 st19 st2">овый </tspan></text>
<text transform="matrix(0.9823 0 0 1 169.9512 238.7363)"><tspan x="0" y="0" class="st0 st19 st2">ремон</tspan><tspan x="25.3" y="0" class="st0 st19 st2">т</tspan><tspan x="28.8" y="0" class="st0 st19 st2"> </tspan><tspan x="31" y="0" class="st0 st19 st2">к</tspan><tspan x="35.1" y="0" class="st0 st19 st2">о</tspan><tspan x="40" y="0" class="st0 st19 st2">лесных па</tspan><tspan x="80.7" y="0" class="st0 st19 st2">р</tspan><tspan x="85.6" y="0" class="st0 st19 st2">, </tspan><tspan x="89.8" y="0" class="st0 st19 st2">к</tspan><tspan x="94.1" y="0" class="st0 st19 st2">апитальный ремон</tspan><tspan x="169.7" y="0" class="st0 st19 st2">т</tspan><tspan x="173.2" y="0" class="st0 st19 st2"> </tspan><tspan x="175.3" y="0" class="st0 st19 st2">к</tspan><tspan x="179.4" y="0" class="st0 st19 st2">о</tspan><tspan x="184.3" y="0" class="st0 st19 st2">лесных па</tspan><tspan x="225" y="0" class="st0 st19 st2">р</tspan><tspan x="229.9" y="0" class="st0 st19 st2">).</tspan></text>
<text transform="matrix(0.9823 0 0 1 163.9614 247.9893)" class="st0 st10 st18">2</text>
<text transform="matrix(0.9823 0 0 1 166.6333 250.6777)" class="st0 st19 st2"> </text>
<text transform="matrix(0.9823 0 0 1 168.7266 250.6777)" class="st0 st19 st2"> </text>
<text transform="matrix(0.9823 0 0 1 168.7266 250.6777)"><tspan x="0" y="0" class="st0 st19 st2">Б</tspan><tspan x="5.6" y="0" class="st0 st19 st2">е</tspan><tspan x="10.2" y="0" class="st0 st19 st2">з уч</tspan><tspan x="25.5" y="0" class="st0 st19 st2">е</tspan><tspan x="30.1" y="0" class="st0 st19 st2">та о</tspan><tspan x="45.9" y="0" class="st0 st19 st2">б</tspan><tspan x="50.7" y="0" class="st0 st19 st2">ъемов</tspan><tspan x="75.7" y="0" class="st0 st19 st2"> </tspan><tspan x="77.5" y="0" class="st0 st19 st2">Т</tspan><tspan x="82.6" y="0" class="st0 st19 st2">Р</tspan><tspan x="87.6" y="0" class="st0 st19 st2">-</tspan><tspan x="91.3" y="0" class="st0 st19 st2">2, вып</tspan><tspan x="115.3" y="0" class="st0 st19 st2">о</tspan><tspan x="120.2" y="0" class="st0 st19 st2">лняемых в э</tspan><tspan x="168.3" y="0" class="st0 st19 st2">к</tspan><tspan x="172.4" y="0" class="st0 st19 st2">спл</tspan><tspan x="186.3" y="0" class="st0 st19 st2">у</tspan><tspan x="190.7" y="0" class="st0 st19 st2">а</tspan><tspan x="195.4" y="0" class="st0 st19 st2">тационных депо </tspan></text>
<text transform="matrix(0.9823 0 0 1 168.7266 259.7588)" class="st0 st19 st2">ЦДИ </text>
<text transform="matrix(0.9823 0 0 1 189.3989 259.7588)"><tspan x="0" y="0" class="st0 st19 st2">О</tspan><tspan x="6.6" y="0" class="st0 st19 st2">А</tspan></text>
<path class="st0" d="M207.4,254.8c0.5,0.5,0.7,1.1,0.7,1.9c0,0.9-0.3,1.6-0.9,2.2c-0.6,0.6-1.3,0.9-2.1,0.9c-0.8,0-1.4-0.3-1.9-0.8
	c-0.5-0.5-0.7-1.1-0.7-1.9c0-0.9,0.3-1.6,0.8-2.2c0.6-0.6,1.3-0.9,2.1-0.9C206.3,254,206.9,254.3,207.4,254.8z M206.8,258.5
	c0.5-0.5,0.7-1.1,0.7-1.8c0-0.6-0.2-1.1-0.6-1.5c-0.4-0.4-0.9-0.6-1.5-0.6c-0.7,0-1.2,0.3-1.7,0.8c-0.5,0.5-0.7,1.1-0.7,1.8
	c0,0.6,0.2,1.1,0.6,1.5c0.4,0.4,0.9,0.6,1.5,0.6C205.8,259.3,206.4,259,206.8,258.5z M212.1,258.6l-1-1.5l0-0.3l1.4-1.5h0.6
	l-1.6,1.7l1,1.6H212.1z M214,258.6l-1-1.5l0-0.3l1.4-1.5h0.6l-1.6,1.7l1,1.6H214z M216.5,254.1h2.2c1,0,1.6,0.5,1.6,1.4
	c0,0.5-0.2,0.9-0.6,1.3s-0.8,0.5-1.4,0.5h-1.8l-0.4,2.5h-0.6L216.5,254.1z M218.4,256.7c0.4,0,0.7-0.1,0.9-0.3
	c0.3-0.2,0.4-0.5,0.4-0.9c0-0.6-0.4-0.9-1.1-0.9H217l-0.3,2.1H218.4z M222,254.1l1.9,2.5l0.4-2.5h0.6l-0.4,2.5l2.7-2.5h0.8l-2.9,2.7
	l2.3,2.9h-0.7l-2.2-2.8l-0.4,2.8h-0.6l0.4-2.8l-3,2.8H220l3.3-3l-2-2.6H222z M227.7,261l0.3-1.8h0.5c0.4-0.5,0.8-1.1,1-1.7
	c0.3-0.7,0.5-1.6,0.6-2.7l0.1-0.7h3.4l-0.8,5.1h0.8l-0.3,1.8h-0.5l0.2-1.3h-4.7l-0.2,1.3H227.7z M232.3,259.2l0.7-4.6h-2.3l-0.1,0.4
	c-0.3,1.9-0.8,3.3-1.5,4.2H232.3z M235.6,255.3l1,1.5l0,0.3l-1.4,1.5h-0.6l1.6-1.7l-1-1.6H235.6z M237.5,255.3l1,1.5l0,0.3l-1.4,1.5
	h-0.6l1.6-1.7l-1-1.6H237.5z M238.6,259.1c0.2-0.2,0.4-0.2,0.6,0c0.2,0.2,0.2,0.4,0,0.6c-0.2,0.2-0.4,0.2-0.6,0
	S238.4,259.3,238.6,259.1z"/>
</svg>
