<?xml version="1.0" encoding="utf-8"?>
<!-- Generator: Adobe Illustrator 21.1.0, SVG Export Plug-In . SVG Version: 6.00 Build 0)  -->
<svg version="1.1" id="Слой_1" xmlns="http://www.w3.org/2000/svg" xmlns:xlink="http://www.w3.org/1999/xlink" x="0px" y="0px"
	 viewBox="0 0 434 334" style="enable-background:new 0 0 434 334;" xml:space="preserve">
<style type="text/css">
	.st0{fill:#BABDBF;}
	.st1{fill:#1375BB;}
	.st2{fill:#FFFFFF;}
	.st3{font-family:'ChartwellPies';}
	.st4{font-size:142.4317px;}
	.st5{fill:#F48266;}
	.st6{font-family:'Geometria-Bold';}
	.st7{font-size:9.4954px;}
	.st8{fill:#221F20;}
	.st9{font-family:'Geometria';}
	.st10{font-size:7.5964px;}
	.st11{fill:#6E6E71;}
	.st12{font-size:6.6468px;}
	.st13{font-family:'Geometria-Medium';}
	.st14{font-size:8.5459px;}
	.st15{fill:none;stroke:#221F20;stroke-width:0.25;}
	.st16{font-size:11.3945px;}
</style>
<path class="st0" d="M60.4,60.9c4.9,0,9.6,0.6,14.2,1.8c4.5,1.2,8.8,2.9,12.7,5.1c3.9,2.2,7.5,4.9,10.8,8c3.2,3.1,6,6.5,8.3,10.3
	c2.3,3.8,4.1,7.8,5.4,12.1c1.3,4.3,1.9,8.8,1.9,13.5c0,4.7-0.6,9.2-1.9,13.5c-1.3,4.3-3.1,8.4-5.4,12.1c-2.3,3.8-5.1,7.2-8.3,10.3
	c-3.2,3.1-6.8,5.7-10.8,7.9c-3.9,2.2-8.2,3.9-12.7,5.1c-4.5,1.2-9.3,1.8-14.2,1.8c-4.9,0-9.6-0.6-14.2-1.8
	c-4.5-1.2-8.8-2.9-12.7-5.1c-3.9-2.2-7.5-4.8-10.8-7.9c-3.2-3.1-6-6.5-8.3-10.3c-2.3-3.8-4.1-7.8-5.4-12.1
	c-1.3-4.3-1.9-8.8-1.9-13.5c0-4.2,0.5-8.3,1.5-12.2c1-3.9,2.5-7.7,4.4-11.2c1.9-3.5,4.2-6.7,6.9-9.7c2.7-3,5.7-5.6,9-8l31.3,41.1
	V60.9z"/>
<path class="st1" d="M29.1,70.6c4.8-3.3,9.8-5.7,15.1-7.3c5.3-1.6,10.7-2.4,16.2-2.4l0,50.8L29.1,70.6z"/>
<text transform="matrix(1.0487 0 0 1 121.1899 160.769)" class="st2 st3 st4">R</text>
<path class="st0" d="M375.9,111.8V60.9c4.9,0,9.6,0.6,14.2,1.8c4.5,1.2,8.8,2.9,12.7,5.1c3.9,2.2,7.5,4.9,10.8,8
	c3.2,3.1,6,6.5,8.3,10.3c2.3,3.8,4.1,7.8,5.4,12.1c1.3,4.3,1.9,8.8,1.9,13.5c0,4.7-0.6,9.2-1.9,13.5c-1.3,4.3-3.1,8.4-5.4,12.1
	c-2.3,3.8-5.1,7.2-8.3,10.3c-3.2,3.1-6.8,5.7-10.8,7.9c-3.9,2.2-8.2,3.9-12.7,5.1c-4.5,1.2-9.3,1.8-14.2,1.8
	c-4.9,0-9.6-0.6-14.2-1.8c-4.5-1.2-8.8-2.9-12.7-5.1c-3.9-2.2-7.5-4.8-10.8-7.9c-3.2-3.1-6-6.5-8.3-10.3c-2.3-3.8-4.1-7.8-5.4-12.1
	c-1.3-4.3-1.9-8.8-1.9-13.5c0-4.8,0.7-9.4,2-13.8c1.3-4.4,3.2-8.6,5.6-12.4c2.4-3.8,5.3-7.3,8.7-10.4c3.4-3.1,7.1-5.8,11.2-7.9
	L375.9,111.8z"/>
<path class="st0" d="M218.3,211.3c4.9,0,9.6,0.6,14.2,1.8c4.5,1.2,8.8,2.9,12.7,5.1c3.9,2.2,7.5,4.9,10.8,8c3.2,3.1,6,6.5,8.3,10.3
	c2.3,3.8,4.1,7.8,5.4,12.1c1.3,4.3,1.9,8.8,1.9,13.5c0,4.7-0.6,9.2-1.9,13.5c-1.3,4.3-3.1,8.4-5.4,12.1c-2.3,3.8-5.1,7.2-8.3,10.3
	c-3.2,3.1-6.8,5.7-10.8,7.9c-3.9,2.2-8.2,3.9-12.7,5.1c-4.5,1.2-9.3,1.8-14.2,1.8c-4.9,0-9.6-0.6-14.2-1.8
	c-4.5-1.2-8.8-2.9-12.7-5.1c-3.9-2.2-7.5-4.8-10.8-7.9c-3.2-3.1-6-6.5-8.3-10.3c-2.3-3.8-4.1-7.8-5.4-12.1
	c-1.3-4.3-1.9-8.8-1.9-13.5c0-3.9,0.5-7.8,1.4-11.5c0.9-3.7,2.2-7.2,3.9-10.6c1.7-3.3,3.7-6.5,6.1-9.3c2.4-2.9,5-5.5,8-7.9
	c3-2.3,6.2-4.4,9.6-6.1c3.5-1.7,7.1-3,10.9-4l13.3,49.2V211.3z"/>
<path class="st0" d="M375.9,211.3c4.9,0,9.6,0.6,14.2,1.8c4.5,1.2,8.8,2.9,12.7,5.1c3.9,2.2,7.5,4.9,10.8,8c3.2,3.1,6,6.5,8.3,10.3
	c2.3,3.8,4.1,7.8,5.4,12.1c1.3,4.3,1.9,8.8,1.9,13.5c0,4.7-0.6,9.2-1.9,13.5c-1.3,4.3-3.1,8.4-5.4,12.1c-2.3,3.8-5.1,7.2-8.3,10.3
	c-3.2,3.1-6.8,5.7-10.8,7.9c-3.9,2.2-8.2,3.9-12.7,5.1c-4.5,1.2-9.3,1.8-14.2,1.8c-4.9,0-9.6-0.6-14.2-1.8
	c-4.5-1.2-8.8-2.9-12.7-5.1c-3.9-2.2-7.5-4.8-10.8-7.9c-3.2-3.1-6-6.5-8.3-10.3c-2.3-3.8-4.1-7.8-5.4-12.1
	c-1.3-4.3-1.9-8.8-1.9-13.5c0-4.2,0.5-8.3,1.5-12.2c1-3.9,2.5-7.7,4.4-11.2c1.9-3.5,4.2-6.7,6.9-9.7c2.7-3,5.7-5.6,9-8l31.3,41.1
	V211.3z"/>
<path class="st1" d="M344.5,221.1c4.8-3.3,9.8-5.7,15.1-7.3c5.3-1.6,10.7-2.4,16.2-2.4l0,50.8L344.5,221.1z"/>
<path class="st0" d="M218.3,111.8V60.9c4.9,0,9.6,0.6,14.2,1.8c4.5,1.2,8.8,2.9,12.7,5.1c3.9,2.2,7.5,4.9,10.8,8
	c3.2,3.1,6,6.5,8.3,10.3c2.3,3.8,4.1,7.8,5.4,12.1c1.3,4.3,1.9,8.8,1.9,13.5c0,4.7-0.6,9.2-1.9,13.5c-1.3,4.3-3.1,8.4-5.4,12.1
	c-2.3,3.8-5.1,7.2-8.3,10.3c-3.2,3.1-6.8,5.7-10.8,7.9c-3.9,2.2-8.2,3.9-12.7,5.1c-4.5,1.2-9.3,1.8-14.2,1.8
	c-4.9,0-9.6-0.6-14.2-1.8c-4.5-1.2-8.8-2.9-12.7-5.1c-3.9-2.2-7.5-4.8-10.8-7.9c-3.2-3.1-6-6.5-8.3-10.3c-2.3-3.8-4.1-7.8-5.4-12.1
	c-1.3-4.3-1.9-8.8-1.9-13.5c0-5.6,0.9-10.9,2.7-16c1.8-5,4.3-9.7,7.5-13.9L218.3,111.8z"/>
<path class="st1" d="M175.1,81.9c2.6-3.4,5.6-6.4,8.8-9c3.3-2.6,6.8-4.8,10.5-6.6c3.7-1.8,7.6-3.1,11.6-4c4-0.9,8.1-1.4,12.2-1.4
	v50.8L175.1,81.9z"/>
<text transform="matrix(1.0487 0 0 1 7.0005 13.0708)"><tspan x="0" y="0" class="st5 st6 st7">Д</tspan><tspan x="7.8" y="0" class="st5 st6 st7">ИН</tspan><tspan x="22.8" y="0" class="st5 st6 st7">А</tspan><tspan x="30.4" y="0" class="st5 st6 st7">М</tspan><tspan x="38.7" y="0" class="st5 st6 st7">И</tspan><tspan x="46.2" y="0" class="st5 st6 st7">К</tspan><tspan x="53.2" y="0" class="st5 st6 st7">А </tspan><tspan x="63.4" y="0" class="st5 st6 st7">О</tspan><tspan x="71.6" y="0" class="st5 st6 st7">Б</tspan><tspan x="78.1" y="0" class="st5 st6 st7">ЪЕ</tspan><tspan x="92.4" y="0" class="st5 st6 st7">М</tspan><tspan x="100.7" y="0" class="st5 st6 st7">О</tspan><tspan x="108.9" y="0" class="st5 st6 st7">В </tspan><tspan x="118.6" y="0" class="st5 st6 st7">Д</tspan><tspan x="126.4" y="0" class="st5 st6 st7">ЕПО</tspan><tspan x="148.3" y="0" class="st5 st6 st7">В</tspan><tspan x="155.2" y="0" class="st5 st6 st7">С</tspan><tspan x="161.9" y="0" class="st5 st6 st7">К</tspan><tspan x="168.3" y="0" class="st5 st6 st7">О</tspan><tspan x="176.4" y="0" class="st5 st6 st7">Г</tspan><tspan x="182.1" y="0" class="st5 st6 st7">О</tspan><tspan x="190.3" y="0" class="st5 st6 st7"> </tspan><tspan x="192.9" y="0" class="st5 st6 st7">И</tspan><tspan x="200.4" y="0" class="st5 st6 st7"> </tspan><tspan x="203.1" y="0" class="st5 st6 st7">КА</tspan><tspan x="217.7" y="0" class="st5 st6 st7">П</tspan><tspan x="225" y="0" class="st5 st6 st7">И</tspan><tspan x="232.5" y="0" class="st5 st6 st7">Т</tspan><tspan x="238" y="0" class="st5 st6 st7">АЛЬ</tspan><tspan x="259.5" y="0" class="st5 st6 st7">Н</tspan><tspan x="267" y="0" class="st5 st6 st7">О</tspan><tspan x="275.2" y="0" class="st5 st6 st7">Г</tspan><tspan x="280.9" y="0" class="st5 st6 st7">О</tspan><tspan x="289" y="0" class="st5 st6 st7"> </tspan><tspan x="291.7" y="0" class="st5 st6 st7">Р</tspan><tspan x="298.2" y="0" class="st5 st6 st7">ЕМО</tspan><tspan x="321.1" y="0" class="st5 st6 st7">Н</tspan><tspan x="328.6" y="0" class="st5 st6 st7">Т</tspan><tspan x="334.1" y="0" class="st5 st6 st7">А </tspan><tspan x="344.3" y="0" class="st5 st6 st7">ВА</tspan><tspan x="359" y="0" class="st5 st6 st7">Г</tspan><tspan x="364.7" y="0" class="st5 st6 st7">О</tspan><tspan x="372.8" y="0" class="st5 st6 st7">Н</tspan><tspan x="380.3" y="0" class="st5 st6 st7">О</tspan><tspan x="388.5" y="0" class="st5 st6 st7">В</tspan><tspan x="395.3" y="0" class="st5 st6 st7"> </tspan></text>
<path class="st5" d="M7.8,24.5v-6.6H11c1.3,0,2.1,0.6,2.1,1.7c0,0.7-0.4,1.1-0.9,1.3c0.4,0.1,0.7,0.3,1,0.6c0.3,0.3,0.4,0.7,0.4,1.2
	c0,0.6-0.2,1-0.7,1.4c-0.4,0.4-1,0.5-1.8,0.5H7.8z M9.2,20.4h1.6c0.6,0,1-0.3,1-0.7c0-0.5-0.4-0.7-1-0.7H9.2V20.4z M9.2,23.3H11
	c0.7,0,1.1-0.3,1.1-0.9c0-0.6-0.4-0.9-1.1-0.9H9.2V23.3z M17.5,24.5v-1l2.1-1.8c0.5-0.4,0.8-0.7,1-1c0.2-0.3,0.3-0.5,0.3-0.8
	c0-0.6-0.5-0.9-1.2-0.9c-0.7,0-1.3,0.3-1.9,0.8v-1.4c0.6-0.4,1.2-0.6,2-0.6c0.7,0,1.2,0.2,1.7,0.6s0.7,0.9,0.7,1.5
	c0,0.5-0.1,0.9-0.3,1.2c-0.2,0.4-0.6,0.8-1.1,1.3l-1.2,1h2.9v1.2H17.5z M25,24.1c-0.9-0.7-1.4-1.7-1.4-3c0-0.6,0.1-1.2,0.3-1.7
	c0.5-1,1.4-1.8,2.7-1.8c0.9,0,1.6,0.3,2.2,1c0.5,0.7,0.8,1.5,0.8,2.4c0,0.9-0.3,1.8-0.8,2.4c-0.5,0.7-1.3,1-2.2,1
	C26,24.6,25.4,24.4,25,24.1z M26.6,23.3c0.5,0,0.9-0.2,1.1-0.6c0.3-0.4,0.4-0.9,0.4-1.5S28,20,27.7,19.6c-0.3-0.4-0.7-0.6-1.1-0.6
	s-0.9,0.2-1.1,0.6C25.2,20,25,20.5,25,21.1s0.1,1.1,0.4,1.5C25.7,23.1,26.1,23.3,26.6,23.3z M32,24.5v-5.2L30.5,20v-1.3l1.6-0.8h1.2
	v6.6H32z M34.7,24.5v-1l2.1-1.8c0.5-0.4,0.8-0.7,1-1c0.2-0.3,0.3-0.5,0.3-0.8c0-0.6-0.5-0.9-1.2-0.9c-0.7,0-1.3,0.3-1.9,0.8v-1.4
	c0.6-0.4,1.2-0.6,2-0.6c0.7,0,1.2,0.2,1.7,0.6c0.5,0.4,0.7,0.9,0.7,1.5c0,0.5-0.1,0.9-0.3,1.2c-0.2,0.4-0.6,0.8-1.1,1.3l-1.2,1h2.9
	v1.2H34.7z M41.3,21.4v-1.2h5.8v1.2H41.3z M48.6,24.5v-1l2.1-1.8c0.5-0.4,0.8-0.7,1-1c0.2-0.3,0.3-0.5,0.3-0.8
	c0-0.6-0.5-0.9-1.2-0.9c-0.7,0-1.3,0.3-1.9,0.8v-1.4c0.6-0.4,1.2-0.6,2-0.6c0.7,0,1.2,0.2,1.7,0.6c0.5,0.4,0.7,0.9,0.7,1.5
	c0,0.5-0.1,0.9-0.3,1.2c-0.2,0.4-0.6,0.8-1.1,1.3l-1.2,1h2.9v1.2H48.6z M56.1,24.1c-0.9-0.7-1.4-1.7-1.4-3c0-0.6,0.1-1.2,0.3-1.7
	c0.5-1,1.4-1.8,2.7-1.8c0.9,0,1.6,0.3,2.2,1c0.5,0.7,0.8,1.5,0.8,2.4c0,0.9-0.3,1.8-0.8,2.4c-0.5,0.7-1.3,1-2.2,1
	C57.1,24.6,56.5,24.4,56.1,24.1z M57.7,23.3c0.5,0,0.9-0.2,1.1-0.6c0.3-0.4,0.4-0.9,0.4-1.5s-0.1-1.1-0.4-1.5
	c-0.3-0.4-0.7-0.6-1.1-0.6c-0.5,0-0.9,0.2-1.1,0.6c-0.3,0.4-0.4,0.9-0.4,1.5s0.1,1.1,0.4,1.5C56.8,23.1,57.2,23.3,57.7,23.3z
	 M63.1,24.5v-5.2L61.6,20v-1.3l1.6-0.8h1.2v6.6H63.1z M66,21.5c0-2,1-3.8,3.2-3.8c0.6,0,1.1,0.1,1.6,0.4v1.2
	c-0.4-0.3-0.9-0.4-1.4-0.4c-0.6,0-1,0.2-1.4,0.5c-0.3,0.3-0.5,0.8-0.5,1.3c0.4-0.4,0.9-0.6,1.6-0.6c0.6,0,1.2,0.2,1.6,0.6
	c0.4,0.4,0.6,0.9,0.6,1.6c0,0.7-0.2,1.3-0.7,1.7c-0.5,0.4-1.1,0.7-1.8,0.7C67,24.6,66,23.4,66,21.5z M69.9,22.3
	c0-0.6-0.5-1.1-1.2-1.1c-0.5,0-1.1,0.4-1.3,0.8c0,0.9,0.5,1.4,1.3,1.4C69.4,23.4,69.9,23,69.9,22.3z M75.6,24.5v-6.6h5V19H77v5.4
	H75.6z M82,24.5v-6.6h5V19h-3.6v5.4H82z M87,23.7c0-0.5,0.4-0.8,0.9-0.8c0.5,0,0.9,0.4,0.9,0.8c0,0.5-0.4,0.8-0.9,0.8
	C87.4,24.6,87,24.2,87,23.7z M89.4,25.9l0.9-2.9h1.5l-1.2,2.9H89.4z M95.9,24.5v-6.6h5.1V19h-3.7v1.3h3v1.2h-3v1.7h3.8v1.2H95.9z
	 M102,25.8v-2.6h0.7c0.3-0.5,0.5-1,0.7-1.7c0.1-0.7,0.2-1.6,0.2-2.7v-1.1h4.9v5.4h1v2.6h-1.3v-1.4h-4.8v1.4H102z M107.1,23.2V19h-2
	c0,1.7-0.1,3-0.8,4.2H107.1z M110.9,23.7c0-0.5,0.4-0.8,0.9-0.8c0.5,0,0.9,0.4,0.9,0.8c0,0.5-0.4,0.8-0.9,0.8
	C111.2,24.6,110.9,24.2,110.9,23.7z"/>
<text transform="matrix(1.0487 0 0 1 29.1577 253.8564)"><tspan x="0" y="0" class="st8 st9 st10">Д</tspan><tspan x="5.8" y="0" class="st8 st9 st10">еповс</tspan><tspan x="27.9" y="0" class="st8 st9 st10">к</tspan><tspan x="31.7" y="0" class="st8 st9 st10">ой ремон</tspan><tspan x="67" y="0" class="st8 st9 st10">т</tspan><tspan x="70.3" y="0" class="st8 st9 st10"> </tspan></text>
<text transform="matrix(1.0487 0 0 1 29.1577 265.251)" class="st8 st9 st10">Капитальный ремонт</text>
<rect x="22.1" y="249.3" class="st0" width="4.3" height="4.1"/>
<rect x="22.1" y="260.7" class="st1" width="4.3" height="4.1"/>
<text transform="matrix(1.0487 0 0 1 201.8511 208.0869)"><tspan x="0" y="0" class="st11 st6 st12">42</tspan><tspan x="8.1" y="0" class="st11 st6 st12">2</tspan><tspan x="11.9" y="0" class="st11 st6 st12">6</tspan></text>
<text transform="matrix(1.0487 0 0 1 239.2754 319.1807)"><tspan x="0" y="0" class="st11 st6 st12">95 </tspan><tspan x="9.8" y="0" class="st11 st6 st12">6</tspan><tspan x="14" y="0" class="st11 st6 st12">93</tspan></text>
<text transform="matrix(1.0487 0 0 1 204.0415 198.1895)"><tspan x="0" y="0" class="st8 st13 st14">2015 </tspan><tspan x="21.5" y="0" class="st8 st13 st14">г</tspan><tspan x="24.8" y="0" class="st8 st13 st14">.</tspan></text>
<text transform="matrix(1.0487 0 0 1 349.2324 207.9971)" class="st11 st6 st12">8030</text>
<text transform="matrix(1.0487 0 0 1 398.2148 319.1846)" class="st11 st6 st12">84 156</text>
<text transform="matrix(1.0487 0 0 1 361.8008 198.1895)"><tspan x="0" y="0" class="st8 st13 st14">2016 </tspan><tspan x="21.9" y="0" class="st8 st13 st14">г</tspan><tspan x="25.2" y="0" class="st8 st13 st14">.</tspan></text>
<text transform="matrix(1.0487 0 0 1 22.7192 60.4512)" class="st11 st6 st12">15 473</text>
<text transform="matrix(1.0487 0 0 1 70.5923 169.665)"><tspan x="0" y="0" class="st11 st6 st12">102 7</tspan><tspan x="16.6" y="0" class="st11 st6 st12">7</tspan><tspan x="20.3" y="0" class="st11 st6 st12">5</tspan></text>
<text transform="matrix(1.0487 0 0 1 46.6196 47.1895)"><tspan x="0" y="0" class="st8 st13 st14">2012 </tspan><tspan x="21.4" y="0" class="st8 st13 st14">г</tspan><tspan x="24.7" y="0" class="st8 st13 st14">.</tspan></text>
<path class="st15" d="M60.5,61.8"/>
<path class="st15" d="M60.5,48.4"/>
<text transform="matrix(1.0487 0 0 1 176.3765 61.7969)" class="st11 st6 st12">14 325</text>
<text transform="matrix(1.0487 0 0 1 228.8926 169.6611)" class="st11 st6 st12">88 825</text>
<text transform="matrix(1.0487 0 0 1 204.1216 47.1895)"><tspan x="0" y="0" class="st8 st13 st14">2013 </tspan><tspan x="21.4" y="0" class="st8 st13 st14">г</tspan><tspan x="24.7" y="0" class="st8 st13 st14">.</tspan></text>
<text transform="matrix(1.0487 0 0 1 351.3623 57.7593)"><tspan x="0" y="0" class="st11 st6 st12">8</tspan><tspan x="4.2" y="0" class="st11 st6 st12">2</tspan><tspan x="8" y="0" class="st11 st6 st12">45</tspan></text>
<text transform="matrix(1.0487 0 0 1 388.3066 169.665)" class="st11 st6 st12">94 951</text>
<text transform="matrix(1.0487 0 0 1 361.8096 47.1895)"><tspan x="0" y="0" class="st8 st13 st14">2014 </tspan><tspan x="21.9" y="0" class="st8 st13 st14">г</tspan><tspan x="25.2" y="0" class="st8 st13 st14">.</tspan></text>
<path class="st15" d="M361.8,48.4"/>
<path class="st15" d="M390.1,48.4"/>
<text transform="matrix(1.0487 0 0 1 202.1675 252.6299)"><tspan x="0" y="0" class="st8 st13 st10">И</tspan><tspan x="5.8" y="0" class="st8 st13 st10">Т</tspan><tspan x="10.3" y="0" class="st8 st13 st10">О</tspan><tspan x="16.6" y="0" class="st8 st13 st10">Г</tspan><tspan x="20.9" y="0" class="st8 st13 st10">О:</tspan></text>
<text transform="matrix(1.0487 0 0 1 201.5317 265.7666)" class="st8 st6 st7">99 919 </text>
<text transform="matrix(1.0487 0 0 1 201.1401 276.2119)"><tspan x="0" y="0" class="st8 st13 st10">ва</tspan><tspan x="8.9" y="0" class="st8 st13 st10">г</tspan><tspan x="12.5" y="0" class="st8 st13 st10">онов</tspan></text>
<text transform="matrix(1.0487 0 0 1 360.5215 252.6328)"><tspan x="0" y="0" class="st8 st13 st10">И</tspan><tspan x="5.8" y="0" class="st8 st13 st10">Т</tspan><tspan x="10.3" y="0" class="st8 st13 st10">О</tspan><tspan x="16.6" y="0" class="st8 st13 st10">Г</tspan><tspan x="20.9" y="0" class="st8 st13 st10">О:</tspan></text>
<text transform="matrix(1.0487 0 0 1 360.1904 265.7666)" class="st8 st6 st7">92 186 </text>
<text transform="matrix(1.0487 0 0 1 359.4941 276.2119)"><tspan x="0" y="0" class="st8 st13 st10">ва</tspan><tspan x="8.9" y="0" class="st8 st13 st10">г</tspan><tspan x="12.5" y="0" class="st8 st13 st10">онов</tspan></text>
<text transform="matrix(1.0487 0 0 1 44.8726 101.6323)"><tspan x="0" y="0" class="st8 st13 st10">И</tspan><tspan x="5.8" y="0" class="st8 st13 st10">Т</tspan><tspan x="10.3" y="0" class="st8 st13 st10">О</tspan><tspan x="16.6" y="0" class="st8 st13 st10">Г</tspan><tspan x="20.9" y="0" class="st8 st13 st10">О:</tspan></text>
<text transform="matrix(1.0487 0 0 1 42.6626 114.7666)"><tspan x="0" y="0" class="st8 st6 st7">118 </tspan><tspan x="15.9" y="0" class="st8 st6 st7">2</tspan><tspan x="21.2" y="0" class="st8 st6 st7">48 </tspan></text>
<text transform="matrix(1.0487 0 0 1 43.8442 125.2119)"><tspan x="0" y="0" class="st8 st13 st10">ва</tspan><tspan x="8.9" y="0" class="st8 st13 st10">г</tspan><tspan x="12.5" y="0" class="st8 st13 st10">онов</tspan></text>
<text transform="matrix(1.0487 0 0 1 202.7085 101.6328)"><tspan x="0" y="0" class="st8 st13 st10">И</tspan><tspan x="5.8" y="0" class="st8 st13 st10">Т</tspan><tspan x="10.3" y="0" class="st8 st13 st10">О</tspan><tspan x="16.6" y="0" class="st8 st13 st10">Г</tspan><tspan x="20.9" y="0" class="st8 st13 st10">О:</tspan></text>
<text transform="matrix(1.0487 0 0 1 200.022 114.7666)" class="st8 st6 st7">103 150</text>
<text transform="matrix(1.0487 0 0 1 235.9688 114.7666)" class="st8 st6 st16"> </text>
<text transform="matrix(1.0487 0 0 1 201.6812 125.2119)"><tspan x="0" y="0" class="st8 st13 st10">ва</tspan><tspan x="8.9" y="0" class="st8 st13 st10">г</tspan><tspan x="12.5" y="0" class="st8 st13 st10">онов</tspan></text>
<text transform="matrix(1.0487 0 0 1 360.8721 101.6328)"><tspan x="0" y="0" class="st8 st13 st10">И</tspan><tspan x="5.8" y="0" class="st8 st13 st10">Т</tspan><tspan x="10.3" y="0" class="st8 st13 st10">О</tspan><tspan x="16.6" y="0" class="st8 st13 st10">Г</tspan><tspan x="20.9" y="0" class="st8 st13 st10">О:</tspan></text>
<text transform="matrix(1.0487 0 0 1 358.2666 114.7666)" class="st8 st6 st7">103 196 </text>
<text transform="matrix(1.0487 0 0 1 359.8467 125.2119)"><tspan x="0" y="0" class="st8 st13 st10">ва</tspan><tspan x="8.9" y="0" class="st8 st13 st10">г</tspan><tspan x="12.5" y="0" class="st8 st13 st10">онов</tspan></text>
</svg>
