<?xml version="1.0" encoding="utf-8"?>
<!-- Generator: Adobe Illustrator 21.1.0, SVG Export Plug-In . SVG Version: 6.00 Build 0)  -->
<svg version="1.1" id="Слой_1" xmlns="http://www.w3.org/2000/svg" xmlns:xlink="http://www.w3.org/1999/xlink" x="0px" y="0px"
	 viewBox="0 0 434 334" style="enable-background:new 0 0 434 334;" xml:space="preserve">
<style type="text/css">
	.st0{fill:#F48266;}
	.st1{font-family:'Geometria-Bold';}
	.st2{font-size:11.7356px;}
	.st3{fill:#221F20;}
	.st4{font-family:'Geometria';}
	.st5{font-size:9.3885px;}
	.st6{fill:#1375BB;}
	.st7{fill:#6E6E71;}
	.st8{font-size:7.2903px;}
	.st9{fill:#BABDBF;}
	.st10{font-family:'Geometria-Medium';}
	.st11{font-size:10.562px;}
	.st12{fill:none;stroke:#6E6E71;stroke-width:0.5;}
</style>
<text transform="matrix(0.8875 0 0 1 3.0527 12.6675)"><tspan x="0" y="0" class="st0 st1 st2">Д</tspan><tspan x="9.7" y="0" class="st0 st1 st2">ИН</tspan><tspan x="28.2" y="0" class="st0 st1 st2">А</tspan><tspan x="37.6" y="0" class="st0 st1 st2">М</tspan><tspan x="47.9" y="0" class="st0 st1 st2">И</tspan><tspan x="57.2" y="0" class="st0 st1 st2">К</tspan><tspan x="65.8" y="0" class="st0 st1 st2">А </tspan><tspan x="78.4" y="0" class="st0 st1 st2">К</tspan><tspan x="86.2" y="0" class="st0 st1 st2">О</tspan><tspan x="96.1" y="0" class="st0 st1 st2">ЛИ</tspan><tspan x="114.3" y="0" class="st0 st1 st2">Ч</tspan><tspan x="122.8" y="0" class="st0 st1 st2">Е</tspan><tspan x="130.5" y="0" class="st0 st1 st2">СТВ</tspan><tspan x="155.4" y="0" class="st0 st1 st2">А</tspan><tspan x="164.8" y="0" class="st0 st1 st2"> </tspan><tspan x="168.1" y="0" class="st0 st1 st2">С</tspan><tspan x="176.1" y="0" class="st0 st1 st2">ОБЫТ</tspan><tspan x="213.8" y="0" class="st0 st1 st2">И</tspan><tspan x="223.1" y="0" class="st0 st1 st2">Й</tspan><tspan x="232.3" y="0" class="st0 st1 st2">,</tspan><tspan x="235.8" y="0" class="st0 st1 st2"> </tspan><tspan x="239.1" y="0" class="st0 st1 st2">С</tspan><tspan x="247.4" y="0" class="st0 st1 st2">В</tspan><tspan x="256.1" y="0" class="st0 st1 st2">Я</tspan><tspan x="265" y="0" class="st0 st1 st2">З</tspan><tspan x="272.5" y="0" class="st0 st1 st2">А</tspan><tspan x="281.9" y="0" class="st0 st1 st2">Н</tspan><tspan x="291.2" y="0" class="st0 st1 st2">Н</tspan><tspan x="300.4" y="0" class="st0 st1 st2">Ы</tspan><tspan x="311.6" y="0" class="st0 st1 st2">Х</tspan><tspan x="320.4" y="0" class="st0 st1 st2"> </tspan><tspan x="323.7" y="0" class="st0 st1 st2">С </tspan><tspan x="335.3" y="0" class="st0 st1 st2">Н</tspan><tspan x="344.5" y="0" class="st0 st1 st2">А</tspan><tspan x="353.9" y="0" class="st0 st1 st2">Р</tspan><tspan x="362" y="0" class="st0 st1 st2">УШЕ</tspan><tspan x="390.4" y="0" class="st0 st1 st2">Н</tspan><tspan x="399.7" y="0" class="st0 st1 st2">И</tspan><tspan x="409" y="0" class="st0 st1 st2">Е</tspan><tspan x="416.8" y="0" class="st0 st1 st2">М</tspan><tspan x="427" y="0" class="st0 st1 st2"> </tspan><tspan x="430.3" y="0" class="st0 st1 st2">П</tspan><tspan x="439.4" y="0" class="st0 st1 st2">Р</tspan><tspan x="446.5" y="0" class="st0 st1 st2">АВ</tspan><tspan x="464.7" y="0" class="st0 st1 st2">И</tspan><tspan x="474" y="0" class="st0 st1 st2">Л</tspan><tspan x="482.6" y="0" class="st0 st1 st2"> </tspan></text>
<text transform="matrix(0.8875 0 0 1 3.0527 26.7505)"><tspan x="0" y="0" class="st0 st1 st2">Б</tspan><tspan x="8.4" y="0" class="st0 st1 st2">Е</tspan><tspan x="16.5" y="0" class="st0 st1 st2">З</tspan><tspan x="24" y="0" class="st0 st1 st2">О</tspan><tspan x="34.1" y="0" class="st0 st1 st2">П</tspan><tspan x="43.2" y="0" class="st0 st1 st2">А</tspan><tspan x="52" y="0" class="st0 st1 st2">С</tspan><tspan x="60.3" y="0" class="st0 st1 st2">Н</tspan><tspan x="69.5" y="0" class="st0 st1 st2">ОСТ</tspan><tspan x="95.9" y="0" class="st0 st1 st2">И </tspan><tspan x="108.4" y="0" class="st0 st1 st2">ДВ</tspan><tspan x="126.8" y="0" class="st0 st1 st2">И</tspan><tspan x="136.1" y="0" class="st0 st1 st2">Ж</tspan><tspan x="148.6" y="0" class="st0 st1 st2">Е</tspan><tspan x="156.4" y="0" class="st0 st1 st2">Н</tspan><tspan x="165.7" y="0" class="st0 st1 st2">И</tspan><tspan x="174.9" y="0" class="st0 st1 st2">Я</tspan><tspan x="183.8" y="0" class="st0 st1 st2"> </tspan><tspan x="187.1" y="0" class="st0 st1 st2">Н</tspan><tspan x="196.4" y="0" class="st0 st1 st2">А</tspan><tspan x="205.7" y="0" class="st0 st1 st2"> </tspan><tspan x="209" y="0" class="st0 st1 st2">Ж</tspan><tspan x="221.4" y="0" class="st0 st1 st2">Е</tspan><tspan x="229.3" y="0" class="st0 st1 st2">Л</tspan><tspan x="238.2" y="0" class="st0 st1 st2">Е</tspan><tspan x="246.3" y="0" class="st0 st1 st2">З</tspan><tspan x="254" y="0" class="st0 st1 st2">Н</tspan><tspan x="263.2" y="0" class="st0 st1 st2">О</tspan><tspan x="272.9" y="0" class="st0 st1 st2">Д</tspan><tspan x="282.6" y="0" class="st0 st1 st2">О</tspan><tspan x="292.7" y="0" class="st0 st1 st2">Р</tspan><tspan x="300.8" y="0" class="st0 st1 st2">О</tspan><tspan x="310.3" y="0" class="st0 st1 st2">Ж</tspan><tspan x="322.8" y="0" class="st0 st1 st2">Н</tspan><tspan x="332" y="0" class="st0 st1 st2">О</tspan><tspan x="342.1" y="0" class="st0 st1 st2">М</tspan><tspan x="352.4" y="0" class="st0 st1 st2"> </tspan><tspan x="355.1" y="0" class="st0 st1 st2">Т</tspan><tspan x="363" y="0" class="st0 st1 st2">Р</tspan><tspan x="370.2" y="0" class="st0 st1 st2">А</tspan><tspan x="379.6" y="0" class="st0 st1 st2">Н</tspan><tspan x="388.8" y="0" class="st0 st1 st2">С</tspan><tspan x="397.1" y="0" class="st0 st1 st2">П</tspan><tspan x="406.2" y="0" class="st0 st1 st2">О</tspan><tspan x="416.3" y="0" class="st0 st1 st2">Р</tspan><tspan x="424.4" y="0" class="st0 st1 st2">Т</tspan><tspan x="432.3" y="0" class="st0 st1 st2">Е</tspan><tspan x="439.9" y="0" class="st0 st1 st2"> </tspan></text>
<text transform="matrix(0.8875 0 0 1 396.6582 26.7505)" class="st0 st1 st2"> </text>
<path class="st0" d="M3.9,40.8v-8.2h3.4c1.3,0,2.2,0.7,2.2,2.1c0,0.8-0.4,1.4-0.9,1.6c0.4,0.1,0.7,0.3,1,0.7
	c0.3,0.4,0.4,0.9,0.4,1.5c0,0.7-0.2,1.3-0.7,1.7c-0.5,0.4-1.1,0.6-1.8,0.6H3.9z M5.4,35.8H7c0.6,0,1-0.3,1-0.9C8,34.4,7.7,34,7,34
	H5.4V35.8z M5.4,39.4h1.9c0.7,0,1.2-0.4,1.2-1.1c0-0.7-0.4-1.1-1.2-1.1H5.4V39.4z M14,40.8v-1.2l2.1-2.2c0.5-0.5,0.8-0.9,1-1.2
	c0.2-0.3,0.3-0.6,0.3-1c0-0.7-0.5-1.1-1.2-1.1c-0.7,0-1.3,0.3-2,0.9v-1.7c0.6-0.5,1.3-0.8,2.1-0.8c0.7,0,1.3,0.2,1.8,0.7
	c0.5,0.5,0.8,1.1,0.8,1.8c0,0.6-0.1,1.1-0.3,1.5c-0.2,0.4-0.6,1-1.2,1.6l-1.2,1.3h3v1.5H14z M21.8,40.4c-1-0.8-1.4-2.1-1.4-3.7
	c0-0.8,0.1-1.5,0.4-2.1c0.5-1.3,1.5-2.2,2.8-2.2c1,0,1.7,0.4,2.3,1.3c0.6,0.8,0.9,1.8,0.9,3s-0.3,2.2-0.9,3
	c-0.6,0.8-1.3,1.3-2.3,1.3C22.9,41,22.3,40.8,21.8,40.4z M23.5,39.4c0.5,0,0.9-0.3,1.2-0.8c0.3-0.5,0.4-1.2,0.4-1.9
	s-0.1-1.4-0.4-1.9C24.4,34.3,24,34,23.5,34s-0.9,0.3-1.2,0.8c-0.3,0.5-0.4,1.1-0.4,1.9s0.1,1.4,0.4,1.9C22.7,39.2,23,39.4,23.5,39.4
	z M29.2,40.8v-6.4l-1.5,0.9v-1.7l1.7-1h1.3v8.2H29.2z M32.1,40.8v-1.2l2.1-2.2c0.5-0.5,0.8-0.9,1-1.2c0.2-0.3,0.3-0.6,0.3-1
	c0-0.7-0.5-1.1-1.2-1.1c-0.7,0-1.3,0.3-2,0.9v-1.7c0.6-0.5,1.3-0.8,2.1-0.8c0.7,0,1.3,0.2,1.8,0.7c0.5,0.5,0.8,1.1,0.8,1.8
	c0,0.6-0.1,1.1-0.3,1.5c-0.2,0.4-0.6,1-1.2,1.6l-1.2,1.3h3v1.5H32.1z M38.9,37v-1.5h6V37H38.9z M46.5,40.8v-1.2l2.1-2.2
	c0.5-0.5,0.8-0.9,1-1.2c0.2-0.3,0.3-0.6,0.3-1c0-0.7-0.5-1.1-1.2-1.1c-0.7,0-1.3,0.3-2,0.9v-1.7c0.6-0.5,1.3-0.8,2.1-0.8
	c0.7,0,1.3,0.2,1.8,0.7c0.5,0.5,0.8,1.1,0.8,1.8c0,0.6-0.1,1.1-0.3,1.5c-0.2,0.4-0.6,1-1.2,1.6l-1.2,1.3h3v1.5H46.5z M54.4,40.4
	c-1-0.8-1.4-2.1-1.4-3.7c0-0.8,0.1-1.5,0.4-2.1c0.5-1.3,1.5-2.2,2.8-2.2c1,0,1.7,0.4,2.3,1.3c0.6,0.8,0.9,1.8,0.9,3s-0.3,2.2-0.9,3
	C57.8,40.6,57,41,56.1,41C55.4,41,54.9,40.8,54.4,40.4z M56.1,39.4c0.5,0,0.9-0.3,1.2-0.8c0.3-0.5,0.4-1.2,0.4-1.9s-0.1-1.4-0.4-1.9
	C57,34.3,56.6,34,56.1,34s-0.9,0.3-1.2,0.8c-0.3,0.5-0.4,1.1-0.4,1.9s0.1,1.4,0.4,1.9C55.2,39.2,55.6,39.4,56.1,39.4z M61.7,40.8
	v-6.4l-1.5,0.9v-1.7l1.7-1h1.3v8.2H61.7z M64.8,37.1c0-2.4,1.1-4.7,3.3-4.7c0.6,0,1.2,0.2,1.6,0.5v1.5c-0.5-0.4-0.9-0.5-1.5-0.5
	c-0.6,0-1.1,0.2-1.4,0.6c-0.3,0.4-0.5,1-0.6,1.6c0.4-0.5,0.9-0.8,1.7-0.8c0.7,0,1.2,0.2,1.7,0.7c0.4,0.5,0.7,1.1,0.7,1.9
	c0,0.9-0.2,1.5-0.8,2.1c-0.5,0.5-1.1,0.8-1.9,0.8C65.9,41,64.8,39.5,64.8,37.1z M68.8,38.1c0-0.8-0.5-1.4-1.2-1.4
	c-0.6,0-1.1,0.4-1.3,1c0,1.1,0.5,1.7,1.3,1.7C68.3,39.5,68.8,39,68.8,38.1z M74.8,40.8v-8.2H80v1.5h-3.8v6.7H74.8z M81.5,40.8v-8.2
	h5.3v1.5H83v6.7H81.5z M86.7,39.9c0-0.6,0.4-1,0.9-1c0.5,0,0.9,0.4,0.9,1c0,0.6-0.4,1-0.9,1C87.1,41,86.7,40.5,86.7,39.9z
	 M89.3,42.6l0.9-3.6h1.6l-1.3,3.6H89.3z M96.1,40.8v-8.2h5.4v1.5h-3.9v1.6h3.1v1.5h-3.1v2.1h4v1.5H96.1z M102.4,42.5v-3.2h0.7
	c0.3-0.6,0.6-1.3,0.7-2.1c0.2-0.8,0.2-1.9,0.2-3.3v-1.3h5.1v6.7h1v3.2h-1.4v-1.7h-5v1.7H102.4z M107.7,39.3v-5.2h-2.1
	c0,2.1-0.2,3.7-0.8,5.2H107.7z M111.7,39.9c0-0.6,0.4-1,0.9-1c0.5,0,0.9,0.4,0.9,1c0,0.6-0.4,1-0.9,1
	C112.1,41,111.7,40.5,111.7,39.9z"/>
<text transform="matrix(0.8875 0 0 1 90.708 313.0547)"><tspan x="0" y="0" class="st3 st4 st5">К</tspan><tspan x="6" y="0" class="st3 st4 st5">о</tspan><tspan x="11.7" y="0" class="st3 st4 st5">личе</tspan><tspan x="33.8" y="0" class="st3 st4 st5">с</tspan><tspan x="38.6" y="0" class="st3 st4 st5">тво </tspan><tspan x="56.8" y="0" class="st3 st4 st5">с</tspan><tspan x="61.6" y="0" class="st3 st4 st5">обытий, связанных </tspan></text>
<text transform="matrix(0.8875 0 0 1 90.708 322.4434)"><tspan x="0" y="0" class="st3 st4 st5">с на</tspan><tspan x="18.7" y="0" class="st3 st4 st5">р</tspan><tspan x="24.6" y="0" class="st3 st4 st5">ушением правил б</tspan><tspan x="111.1" y="0" class="st3 st4 st5">е</tspan><tspan x="116.4" y="0" class="st3 st4 st5">зопасно</tspan><tspan x="154.9" y="0" class="st3 st4 st5">с</tspan><tspan x="159.7" y="0" class="st3 st4 st5">ти </tspan></text>
<text transform="matrix(0.8875 0 0 1 90.708 331.832)"><tspan x="0" y="0" class="st3 st4 st5">на </tspan><tspan x="13.8" y="0" class="st3 st4 st5">ж</tspan><tspan x="20.6" y="0" class="st3 st4 st5">е</tspan><tspan x="25.9" y="0" class="st3 st4 st5">л</tspan><tspan x="31.6" y="0" class="st3 st4 st5">е</tspan><tspan x="36.8" y="0" class="st3 st4 st5">зн</tspan><tspan x="47.5" y="0" class="st3 st4 st5">о</tspan><tspan x="53.1" y="0" class="st3 st4 st5">дор</tspan><tspan x="71" y="0" class="st3 st4 st5">о</tspan><tspan x="76.5" y="0" class="st3 st4 st5">жном</tspan><tspan x="101.8" y="0" class="st3 st4 st5"> </tspan><tspan x="103.9" y="0" class="st3 st4 st5">транспо</tspan><tspan x="142.1" y="0" class="st3 st4 st5">р</tspan><tspan x="147.9" y="0" class="st3 st4 st5">т</tspan><tspan x="152.2" y="0" class="st3 st4 st5">е</tspan></text>
<rect x="83.4" y="307.8" class="st6" width="4.5" height="5.1"/>
<text transform="matrix(-6.123234e-17 -1.1268 1 -6.899781e-17 370.7334 185.8994)" class="st7 st1 st8">548</text>
<rect x="364" y="194" class="st6" width="8.9" height="78.5"/>
<text transform="matrix(-6.123234e-17 -1.1268 1 -6.899781e-17 384.7471 121.5298)" class="st7 st1 st8">1001</text>
<rect x="378" y="129.9" class="st9" width="8.9" height="142.6"/>
<text transform="matrix(-6.123234e-17 -1.1268 1 -6.899781e-17 287.9043 127.8491)" class="st7 st1 st8">990</text>
<rect x="281.2" y="134.9" class="st6" width="8.9" height="137.4"/>
<text transform="matrix(-6.123234e-17 -1.1268 1 -6.899781e-17 301.9189 65.9761)"><tspan x="0" y="0" class="st7 st1 st8">1</tspan><tspan x="2.8" y="0" class="st7 st1 st8">3</tspan><tspan x="7" y="0" class="st7 st1 st8">99</tspan></text>
<rect x="295.2" y="73.8" class="st9" width="8.9" height="198.4"/>
<text transform="matrix(-6.123234e-17 -1.1268 1 -6.899781e-17 205.0771 200.8701)" class="st7 st1 st8">445</text>
<rect x="198.4" y="208.7" class="st6" width="8.9" height="63.5"/>
<text transform="matrix(-6.123234e-17 -1.1268 1 -6.899781e-17 219.0908 132.1733)" class="st7 st1 st8">983</text>
<rect x="212.4" y="139.4" class="st9" width="8.9" height="132.8"/>
<text transform="matrix(-6.123234e-17 -1.1268 1 -6.899781e-17 122.249 200.0371)" class="st7 st1 st8">451</text>
<rect x="115.5" y="208.1" class="st6" width="8.9" height="64.2"/>
<text transform="matrix(-6.123234e-17 -1.1268 1 -6.899781e-17 136.2627 153.4653)"><tspan x="0" y="0" class="st7 st1 st8">7</tspan><tspan x="4" y="0" class="st7 st1 st8">85</tspan></text>
<rect x="129.6" y="161.7" class="st9" width="8.9" height="110.5"/>
<text transform="matrix(-6.123234e-17 -1.1268 1 -6.899781e-17 39.4209 208.3525)"><tspan x="0" y="0" class="st7 st1 st8">3</tspan><tspan x="4.1" y="0" class="st7 st1 st8">94</tspan></text>
<rect x="32.7" y="216.1" class="st6" width="8.9" height="56.1"/>
<text transform="matrix(-6.123234e-17 -1.1268 1 -6.899781e-17 53.4346 158.4565)"><tspan x="0" y="0" class="st7 st1 st8">7</tspan><tspan x="4.1" y="0" class="st7 st1 st8">57</tspan></text>
<rect x="46.7" y="166.4" class="st9" width="8.9" height="105.9"/>
<text transform="matrix(0.8875 0 0 1 364.9941 286.7646)" class="st3 st10 st11">2016</text>
<text transform="matrix(0.8875 0 0 1 282.3877 286.7646)" class="st3 st10 st11">2015</text>
<text transform="matrix(0.8875 0 0 1 199.3486 286.7646)" class="st3 st10 st11">2014</text>
<text transform="matrix(0.8875 0 0 1 116.8174 286.7646)" class="st3 st10 st11">2013</text>
<text transform="matrix(0.8875 0 0 1 33.9766 286.7646)" class="st3 st10 st11">2012</text>
<line class="st12" x1="3" y1="272" x2="417.3" y2="272"/>
<line class="st12" x1="86" y1="271.7" x2="86" y2="277"/>
<line class="st12" x1="168.8" y1="271.7" x2="168.8" y2="277"/>
<line class="st12" x1="251.5" y1="271.7" x2="251.5" y2="277"/>
<line class="st12" x1="334.3" y1="271.7" x2="334.3" y2="277"/>
<line class="st12" x1="417" y1="271.7" x2="417" y2="277"/>
<line class="st12" x1="3.3" y1="271.7" x2="3.3" y2="277"/>
<rect x="322.6" y="307.5" class="st9" width="4.5" height="5.1"/>
<text transform="matrix(0.8875 0 0 1 329.1475 313.0547)"><tspan x="0" y="0" class="st3 st4 st5">К</tspan><tspan x="6" y="0" class="st3 st4 st5">о</tspan><tspan x="11.7" y="0" class="st3 st4 st5">личе</tspan><tspan x="33.8" y="0" class="st3 st4 st5">с</tspan><tspan x="38.6" y="0" class="st3 st4 st5">тво </tspan></text>
<text transform="matrix(0.8875 0 0 1 329.1475 322.4434)"><tspan x="0" y="0" class="st3 st4 st5">о</tspan><tspan x="5.7" y="0" class="st3 st4 st5">т</tspan><tspan x="10.1" y="0" class="st3 st4 st5">к</tspan><tspan x="15.1" y="0" class="st3 st4 st5">азов</tspan><tspan x="36.9" y="0" class="st3 st4 st5"> </tspan><tspan x="39" y="0" class="st3 st4 st5">т</tspan><tspan x="43.3" y="0" class="st3 st4 st5">е</tspan><tspan x="48.6" y="0" class="st3 st4 st5">хнических </tspan></text>
<text transform="matrix(0.8875 0 0 1 329.1475 331.832)"><tspan x="0" y="0" class="st3 st4 st5">сред</tspan><tspan x="22.3" y="0" class="st3 st4 st5">с</tspan><tspan x="27.2" y="0" class="st3 st4 st5">тв</tspan></text>
</svg>
