<svg xmlns="http://www.w3.org/2000/svg" xmlns:xlink="http://www.w3.org/1999/xlink" width="755" height="256" viewBox="0 0 755 256">
    <defs>
        <path id="a" d="M0 255.487h754.071V0H0z"/>
    </defs>
    <g fill="none" fill-rule="evenodd">
        <path fill="#F48266" d="M655.168 50.056c.147-.088.303-.162.454-.242-.015-.044-.036-.081-.05-.127-.01-.04-.01-.084-.02-.127h-7.54v21.808h.953a4.5 4.5 0 0 1 .474-.541c-.696-.118-.931-.516-.931-1.442v-19.33h6.66z"/>
        <path fill="#F48266" d="M753.08 51.05c-.076-.09-.186-.21-.23-.267-.042-.058-.177-.195-.228-.27l-2.52-4.424h2.979v4.96zm-7.422 3.459c-1.542-2.85-2.714-5.79-4.473-8.417h4.957c1.01 4.338 6.938 10.75 6.938 15.859-4.448 0-2.942.837-7.422-7.442zm-4.473 7.442c-1.843-4.71-5.334-9.93-7.122-13.693-.425-.895-.534-1.552-.807-2.166 4.272 0 3.389-.827 7.763 7.595 1.24 2.386 3.218 5.742 4.13 8.264h-3.964zm-7.93 0l-7.93-15.86h3.47l7.93 15.86h-3.47zm-29.737-30.232h49.56v-5.452h-49.56v5.452zm46.588 8.426h2.479v-7.93h-2.48v7.93zm-11.894.33l-34.694-.331v-6.442c4.313-.36 1.634-1.94 10.325-1.371l35.767-.116c0 10.275 1.62 8.26-11.398 8.26zm-45.101-28.58H662.88V5.452h57.488l.002 6.443c-10.002-.477-17.984 0-27.26 0zm9.417 13.878l-5.948-.001V12.886h1.487c2.012 0 2.238-.032 4.46 0v12.887zm-5.948 18.832h5.947V26.267h-5.947v18.338zm-.495-26.762h-31.72v-4.461c-8.15 0-6.936-1.013-6.936 4.46h-3.965v-4.956l33.765-.124c10.398.124 8.856-1.421 8.856 5.08zm-14.867 7.765c-5.564 0-11.125-.002-16.793.003l-.05-6.223c9.043-1.127 22.194-.554 31.71-.554 0 8.636.86 6.774-14.867 6.774zm-16.852 6.11h31.72v-5.451h-31.72v5.452zm-7.102-6.11l-3.675.002-.125-1.82v-1.487c.942-.453 2.644-.882 3.965-.992l.032 2.48-.197 1.817zm-3.8 6.11h3.965v-5.451h-3.965v5.452zm0 8.427h1.485v-5.452h-1.485v5.452zm8.426-30.73V11.4c-1.085-.535-.175-.148-1.493-.492.704-2.102.125-.052 1.493-1.494zm58.972 13.38v-2.971c0-2.154 8.55-1.151 12.926-1.292 2.936-.096 5.94-.026 8.885-.032 2.083-.003 6.939-.842 6.939 1.324 0 7.218.689 5.97-6.94 5.95H717.89c-.046-2.11-.42-2.046-1.487-2.978h4.459zm-4.953.499c-2.297 1.502-6.002 1.29-12.282.766l-.11-5.226h10.906c.444 1.912 1.127 2.173 1.486 4.46zm-.991-4.46h5.452v2.973h-2.974l-.971-.011-1.507-2.962zm37.698 4.958l-.196 1.816-2.191.003-.123-1.821v-4.956h2.479l.03 4.958zm.464-10.906v4.957h-49.562v-4.98l49.562.023zm-2.974-.991h2.479V.992h-2.48v10.903zm-97.633 13.877h-5.95V12.886c2.718 0 3.585-.034 5.95 0v12.886zm-5.948 18.833h5.948V26.267h-5.948v18.338zm-1.728-18.787c-.015-.11-22.791-.046-26.026-.046-16.514 0-16.544 1.727-16.281-4.497.118-2.791.118-2.783 2.898-2.741l33.993.043c8.895-.242 6.152-.862 6.152 5.46.739 1.723 1.073.589-.736 1.78zm-.254 5.9h-48.57v-5.451h48.57c2.052 0 2.05 5.452 0 5.452zm-30.233 8.426v-5.451l29.74-.033 1.894.194.085 5.29h-31.72zm-10.408.333c-2.237 0-1.322-5.904-1.322-8.25l38.406-.035-.41 2.005h-26.761c0 7.828 1.874 6.278-9.913 6.28zm2.316 13.38c1.28-2.577 2.362-4.873 3.63-7.272h4.464c-.577 2.264-6.851 12.544-7.434 14.872h-3.97c.067-2.882 2.11-5.188 3.31-7.6zm-3.307-7.27h2.479l-1.821 4.128c-.817 1.33.055.008-.658.828v-4.956zm19.33-.002c-.534 2.305-6.026 12.214-7.432 14.872h-3.97c2.634-4.996 5.3-9.895 7.93-14.872h3.473zm7.929.002c-.473 2.03-5.992 11.186-7.435 14.868h-3.467c.585-2.518 5.757-10.587 7.433-14.868h3.469zm-38.164-6.441h3.473V26.265h-3.473v13.88zm.003-39.65h3.468v9.912c0 5.296-.254 9.777 0 15.365l-3.468-.001V.496zm3.965 12.39l48.077-.033 1.814.197.005 4.67-1.823.123h-48.073v-4.957zM753.77 25.77h-.53c-.724-5.587.928-8.26.65-11.885-.151-1.98-.852-2.278-.834-5.931.01-2.486.023-4.97.023-7.458h-3.47l-.038 11.233-28.708.174V4.957l-13.876-.496-44.603.472c0 5.31.054 3.45-4.475 4.47-2.922.66-4.04 2.31-6.902 2.514-7.324.523-45.698-.022-55.034-.022V0h-4.461l-.166 24.599a5.743 5.743 0 0 1 .005 3.263l.028 12.06-2.84.223-.001 22.3h14.372c0 3.147-.172 2.974 2.975 2.974v.062h22.33l-.03-.062c4.676 0 1.175-.137 2.975-2.973l-4.248-1.131 7.717-14.791 22.708-.271.007.247c.015-.004.03-.013.047-.016.352-.066.69-.113 1.026-.144v-.678c-.33-.015-.66-.05-.99-.103v.038h-54.52l.003-4.464h43.149l-.201 3.965h7.603v-3.47h3.969v.144a1.76 1.76 0 0 1 .486-.07c.167.002.334.009.5.01v-.087a3.874 3.874 0 0 1-.99-.488h-1.488v-5.951h1.492v.069c.319-.11.647-.204.987-.277V14.372h4.962l-.001 20.237c.427.04.843.124 1.229.266.472-1.006 1.75-.508 5.133-.811 5.285-.475 6.914-.464 12.585-1.236 5.877-.801 8.184-.615 13.76-.615l-.001 8.429-31.721.495v-.09a4.388 4.388 0 0 0-.985.075v.685c.329.008.658.012.987.019v-.195h31.719V45.1h7.433v-3.965h49.562v4.46h-97.025v-.353l-.774-.015a1.75 1.75 0 0 1-.214.19v.788c.355.08.707.185 1.064.28.01.003.018.008.029.01l.017-.245 63.697-.158c1.395 0 8.462 13.885 8.92 15.859l-13.381.496v2.477l27.75-.061.005-2.416h10.903V27.43a5.691 5.691 0 0 1-.3-1.661z"/>
        <path fill="#F48266" d="M653.667 50.056h44.896v18.832l-.124 1.822-1.856.195-6.44-.058-41.59.019c-.01.168-.032.335-.053.502h50.559V49.56h-45.227a2.995 2.995 0 0 1-.165.495M668.089 248.213c1.599.671.212-.189 1.604.866.93.706.287.358.98.973 2.319 2.06 5.14 1.78 6.962-.224.642-.706 1.103-2.133 1.103-3.355 0-3.933-2.986-2.717-3.465-5.945 1.296.691 2.347.936 3.357 2.09 6.807 7.774-8.3 15.443-10.541 5.595m2.885-10.992c3.807-.003 3.366.333 6.114 1.157-2.427.64-4.693.61-6.114-1.157m-1.156-15.529v5.452c-1.4-.116-1.982.011-1.982-1.486v-8.922h7.93c0 8.483.92 9.765-1.487 10.408v-5.452c-2.981.248-1.48.248-4.461 0m-4.127 26.6c-.55-1.457-1.078-2.582-.333-4.214.466.4.185-.312.833 1.056 1.018 2.146.02 2.59-.5 3.158m1.485-21.808c-1.748.063-2.4.44-3.718-.332.656-.523-.907-.822 2.196-.78 2.1.028 1.428-.546 1.522 1.112m12.885-1.654c-.12 2.18-1.171 1.203-3.638 1.161.189-2.169.579-.28 3.638-1.16m-5.092 11.215l.3-5.433c2.263 1.515 4.182 1.515 6.444 0 .412-.86-.756-11.915-.468-15.866.52-7.125-.781-2.656-1.458-6.508-.285-1.623 3.688-30.087 4.633-38.698-.754.005-1.508.015-2.26.035-.9 10.33-3.031 24.443-4.21 35.456-.376 3.52.43 2.892-1.582 4.923-2.525 2.544-1.357.982-.602 3.808h-7.93c.902-2.49 1.768-.628-.074-3.317-1.407-2.054-.902-1.397-.927-4.603-.266-10.756-1.862-23.62-2.402-34.765-.772.163-1.546.317-2.325.46l2.569 37.96-2.356 1.79c-.02 2.716-.513 19.026.072 20.274l5.939-.453c0 2.051.214 3.49.428 4.796.262 1.6 1.139 3.566 2.547 4.618l1.422 1.062c1.615.988 5.187 3.383 1.81 6.14-3.514 2.87-6.23-1.339-7.255-3.308-.921-1.495-2.273-3.78-4.404-2.9-.414.862 1.042 1.31.84 3.166-.41 3.787 1.08 6.961 2.554 8.307 6.705 6.13 19.147.172 16.66-9.2-1.416-5.337-6.088-5.37-7.965-7.744M606.49 61.325c1.86 0 3.546.755 4.764 1.974a6.72 6.72 0 0 1 1.973 4.765 6.722 6.722 0 0 1-1.973 4.765 6.717 6.717 0 0 1-4.764 1.973 6.722 6.722 0 0 1-4.766-1.974 6.721 6.721 0 0 1-1.972-4.764c0-1.86.754-3.546 1.972-4.764a6.723 6.723 0 0 1 4.766-1.974m3.216 3.521a4.536 4.536 0 0 0-3.216-1.331 4.538 4.538 0 0 0-3.218 1.331 4.542 4.542 0 0 0-1.332 3.217 4.54 4.54 0 0 0 1.332 3.216 4.54 4.54 0 0 0 3.218 1.332c1.255 0 2.393-.51 3.216-1.332a4.534 4.534 0 0 0 1.332-3.216 4.534 4.534 0 0 0-1.332-3.216M624.756 61.325c1.86 0 3.545.755 4.765 1.974a6.72 6.72 0 0 1 1.973 4.765 6.722 6.722 0 0 1-1.973 4.765 6.721 6.721 0 0 1-4.765 1.973 6.721 6.721 0 0 1-4.765-1.974 6.725 6.725 0 0 1-1.972-4.764c0-1.86.755-3.546 1.972-4.764a6.722 6.722 0 0 1 4.765-1.974m3.216 3.521a4.534 4.534 0 0 0-3.216-1.331 4.536 4.536 0 0 0-3.216 1.331 4.534 4.534 0 0 0-1.332 3.217c0 1.256.509 2.394 1.332 3.216a4.536 4.536 0 0 0 3.216 1.332c1.255 0 2.394-.51 3.216-1.332a4.534 4.534 0 0 0 1.332-3.216 4.534 4.534 0 0 0-1.332-3.216"/>
        <mask id="b" fill="#fff">
            <use xlink:href="#a"/>
        </mask>
        <path fill="#F48266" d="M715.493 64.796h27.919v-3.564h-27.919z" mask="url(#b)"/>
        <path fill="#F48266" d="M719.206 61.325c1.86 0 3.545.755 4.764 1.974a6.716 6.716 0 0 1 1.973 4.765 6.718 6.718 0 0 1-1.973 4.765 6.717 6.717 0 0 1-4.764 1.973 6.72 6.72 0 0 1-4.765-1.974 6.718 6.718 0 0 1-1.973-4.764c0-1.86.754-3.546 1.973-4.764a6.72 6.72 0 0 1 4.765-1.974m3.216 3.521a4.536 4.536 0 0 0-3.216-1.331 4.534 4.534 0 0 0-3.216 1.331 4.535 4.535 0 0 0-1.333 3.217c0 1.256.51 2.394 1.333 3.216a4.535 4.535 0 0 0 3.216 1.332c1.255 0 2.393-.51 3.216-1.332a4.534 4.534 0 0 0 1.332-3.216 4.534 4.534 0 0 0-1.332-3.216M737.472 61.325c1.86 0 3.547.755 4.764 1.974a6.72 6.72 0 0 1 1.974 4.765 6.722 6.722 0 0 1-1.974 4.765 6.717 6.717 0 0 1-4.764 1.973 6.724 6.724 0 0 1-4.765-1.974 6.721 6.721 0 0 1-1.972-4.764c0-1.86.754-3.546 1.971-4.764a6.725 6.725 0 0 1 4.766-1.974m3.216 3.521a4.534 4.534 0 0 0-3.216-1.331 4.538 4.538 0 0 0-3.216 1.331 4.538 4.538 0 0 0-1.332 3.217c0 1.256.51 2.394 1.332 3.216a4.539 4.539 0 0 0 3.216 1.332c1.257 0 2.394-.51 3.216-1.332a4.534 4.534 0 0 0 1.332-3.216 4.534 4.534 0 0 0-1.332-3.216M627.04 59.57l21.899 9.92-.63 1.01-21.592-9.732z" mask="url(#b)"/>
        <path fill="#F48266" d="M715.481 61.233l-17.19 8.309.56.957 17.191-8.31zM630.215 61.233h-1.488v3.564h2.36v-2.914zM583.432 41.505c-1.405-2.341-2.55-5.582-3.446-8.447-.584-1.87-.741-2.982-1.177-4.836-.649-2.76-.652-1.475-.064-3.836l.44.003c-.022-.16-.041-.321-.058-.483l-.382.003c-.599-2.248-2.447-3.094-3.87-2.321.231.834.383 1.7.423 2.593.086 1.92-.468 3.739-1.438 5.313-.18.71-.467 1.627-.88 3.015-.81 2.715-1.64 5.26-2.808 7.599-2.012 4.018-5.865 9.119-11.675 8.9-5.723-.214-9.337-4.926-11.546-9.171-1.731-3.326-4.813-11.48-3.889-15.441h1.658c-.005-.072-.018-.142-.02-.215-.004-.094.005-.186.003-.28h-1.64c-.644-2.403-2.755-3.11-4.177-2.148.229.815.375 1.633.412 2.428.07 1.59-.412 3.313-1.203 4.834-1.348 7.355-6.235 19.666-15.353 19.666-9.304 0-13.458-12.258-15.371-20.378-.621-2.64-.686-3.545.579-3.834-.031-.228-.048-.457-.066-.686-1.61-.334.003-1.191-2.983-2.36-.48.04-.872.094-1.196.16.389 2.293-.135 4.712-1.303 6.774-.54 6.764-7.356 19.828-14.847 19.828-8.112 0-14.351-10.578-15.952-19.551-.766-1.81-.971-3.911-.704-5.854-1.238-3.433-4.317-.053-5.103.559.01.366-.005.728-.04 1.086.322 1.363.488.827.488 1.954 0 2.915-3.327 11.826-4.466 13.875-3.273 5.88-6.064 7.93-12.386 7.93-7.368 0-14.373-14.405-14.373-21.805 0-1.048.18-.654.496-1.983h.63a11.523 11.523 0 0 1-.121-.495h-.509c-.89-3.336-4.553-3.595-5.452 0-.197 0-.495.002-.87.006 0 .163.009.326.002.489h.868c1.805 7.74-6.14 23.789-14.866 23.789-9.397 0-15.86-14.662-15.86-22.302 0-.631.694-1.044 1.781-1.308a12.1 12.1 0 0 1-.154-.821c-.394-.051-.683-.108-.815-.174-.334-.168-5.209-5.3-5.769.32h-.127c-.014.168-.027.334-.048.496h.175c.7 8.419-5.776 24.285-15.363 24.285-4.075 0-9.913-3.6-9.913-7.434v-.37c-.17-.178-.334-.363-.493-.557v2.602c-5.924-6.675-5.918-18.131-5.918-18.131.264-.32.555-.572.86-.765l-.003-.5a13.378 13.378 0 0 0-1.11-1.894c-.313.22-.985-.5-2.389.117-2.928 1.283.32 1.327-2.899 2.092l-1.551.003c.033.243.053.486.067.729 1.865.18 3.032.44 3.032.814 0 8.41-6.183 23.792-15.863 23.792-8.17 0-12.553-10.076-14.46-16.764-1.786-6.261-1.464-6.138-.98-6.552a11.819 11.819 0 0 1-.197-1.686 8.768 8.768 0 0 1 .132-1.907c-1.555-2.663-3.978.533-4.829 1.116-.183.125-.607.23-1.212.319a10.7 10.7 0 0 1-.038.69h1.264c2.118 9.086-6.95 24.286-13.38 24.286h-2.478c-8.145 0-14.868-14.155-14.868-22.302 0-1.048.178-.654.495-1.983h1.435c-.005-.074-.017-.145-.02-.22-.005-.085.005-.172.005-.26-.629-.01-1.115-.015-1.42-.015-.865-3.244-4.584-3.72-5.452 0h-.575c-.016.166-.04.33-.066.494h.642c1.679 7.208-5.84 24.286-13.877 24.286h-2.478c-8.124 0-13.13-13.07-14.493-20.774-.43-2.431-.101-3.223 1.439-3.461-.048-.235-.097-.47-.13-.71a2.746 2.746 0 0 1-.376-.154c-.742-.381-4.442-5.38-5.768.319h-1.49c-.008.164-.022.328-.037.49.508.002 1.001.005 1.528.005 1.149 13.804-12.563 35.084-25.078 18.636-2.054-2.698-3.407-6.406-4.511-9.871-1.448-4.547-2.315-6.863-.782-8.008a15.339 15.339 0 0 1-.047-1.252h-.312c-.17-1.56-.856-2.456-2.49-2.48-2.173-.03-1.81 1.168-2.976 1.967-.233.159-.849.286-1.746.387.018.173.02.347.03.52 2.188.224 2.754 1.05 2.315 3.562-1.324 7.547-6.297 20.328-14.46 20.328h-1.488c-9.191 0-15.56-15.454-14.867-23.79h.08c-.028-.161-.04-.328-.059-.494h-.02c-.823-3.082-3.797-3.397-5.073-.965.061.41.11.824.129 1.245a8.9 8.9 0 0 1-.212 2.314c.614 9.32-7.48 22.186-15.166 22.186-9.191 0-15.858-14.783-15.858-22.302 0-1.048.177-.654.495-1.983h.81c-.016-.165-.037-.33-.044-.495h-.766c-.865-3.242-4.584-3.72-5.451 0h-.447c.008.166.008.33.01.494h.436c1.498 6.425-4.548 24.286-15.362 24.286-9.27 0-13.525-12.56-15.286-20.474-.207-.934-.328-1.643-.323-2.183a13.461 13.461 0 0 1-.433-2.843 7.566 7.566 0 0 1 .05-1.18c-.33-.222-.882-.424-1.85-.58l-2.267 1.716c.08.514.14 1.03.163 1.544.038.819-.085 1.674-.307 2.519-.22 7.965-7.23 21.48-13.45 21.48h-2.478c-9.004 0-15.614-15.291-14.867-24.291l1.184.007c-.017-.164-.04-.327-.05-.492l-1.133-.003c-.166-1.667-.856-2.43-2.511-2.461-2.162-.042-1.767 1.116-2.922 1.935-.019.439-.058.865-.122 1.273 2.337 1.632-1.365 10.696-2.166 12.83-1.37 3.64-4.601 9.272-8.142 10.214v-.97c-.163.086-.325.173-.493.249v1.214c-1.113.26-1.139.496-2.478.496H55.39v-.651c-.166-.004-.332-.006-.497-.016v.667a10.93 10.93 0 0 1-3.056-1.244c-3.053-.982-5.553-3.178-6.188-6.591-3.123-5.225-4.633-11.566-4.633-14.467 0-1.048.18-.654.498-1.983h1.012c0-.165.003-.33.007-.495h-1.02c-.92-3.444-4.532-3.444-5.453 0h-1.807c-.018.166-.044.33-.07.495h1.877c1.648 7.07-6.502 24.285-13.38 24.285h-2.478c-8.062 0-12.15-10.263-14.062-16.667-1.128-3.788-1.263-4.037-.712-6.132a9.368 9.368 0 0 1-.2-2.74c-.923-1.166-1.377-1.768-1.594-2.568-.102.013-.204.034-.307.044-.087.054-.164.119-.252.17-.15.065-.3.128-.45.19-3.914 2.99-3.077 3.842.065 6.557v3.622c.261.5.49 1.028.661 1.6v-1.423c1.557 2.453 3.664 19.825 17.841 19.825 11.171 0 15.189-14.582 17.51-24.122 1.166 2.704 2.355 19.94 14.11 23.624 1.864-.538 3.862-.622 5.742-.152l1.062.266 1.224-.112v.418c.166.04.331.082.497.124v-1.037c9.743-2.433 11.853-19.893 13.382-22.302 2.364 10.15 5.94 23.293 18.337 23.293 10.895 0 15.211-14.134 17.345-23.293 1.195 1.882.926 7.508 5.292 15.027 2.283 3.928 6.557 7.977 12.115 8.178 14.966.543 16.398-20.475 18.771-22.214 0 8.039 6.96 22.302 18.339 22.302 13.094 0 16.161-21.567 17.843-22.798 0 8.356 7.16 22.302 16.849 22.302 15.05 0 17.135-20.903 18.337-22.797.736 8.828 7.453 23.293 16.356 23.293h2.478c8.733 0 16.355-14.2 16.355-22.798 2.119 1.12 3.161 22.798 18.337 22.798 11.934 0 15.538-13.405 17.84-23.293 1.272 2.002 3.335 23.293 17.844 23.293 6.19 0 9.734-3.727 12.306-7.52 3.692-5.44 3.272-9.226 5.699-14.618.943 2.207 3.846 22.138 16.19 22.138h2.974c7.983 0 14.409-11.735 15.983-20.755.389 4.619 2.123 11.298 8.303 16.31 2.423 1.967 3.582 2.578 4.028 2.48 3.69 1.877 9.661 3.528 15.935-2.851 2.465-2.507 3.858-5.006 5.311-8.558.598-1.46 2.286-9.792 3.47-10.415-.004 9.543 7.175 22.89 17.346 22.89 10.81 0 17.038-13.228 17.84-22.89.848 1.335 1.519 5.872 2.132 7.79 9.051 28.314 33.245 12.924 33.553-8.285h.99c.763 9.168 7.026 23.293 16.356 23.293 16.791 0 15.707-17.09 19.329-22.798 1.6 10.04 6.365 23.294 17.42 23.55 15.344.358 16.531-21.381 18.757-22.56 0 8.134 6.217 20.312 13.98 22.465 2.88-.22 5.76-.434 8.64-.645 7.19-3.352 11.927-14.6 12.57-22.314 1.175 1.853 1.977 14.769 9.865 20.774 1.62-.104 3.24-.21 4.861-.308-3.344-1.306-5.606-3.571-7.563-6.827" mask="url(#b)"/>
    </g>
</svg>
