<?xml version="1.0" encoding="utf-8"?>
<!-- Generator: Adobe Illustrator 21.0.1, SVG Export Plug-In . SVG Version: 6.00 Build 0)  -->
<svg version="1.1" id="Слой_1" xmlns="http://www.w3.org/2000/svg" xmlns:xlink="http://www.w3.org/1999/xlink" x="0px" y="0px"
	 viewBox="0 0 332 128.3" style="enable-background:new 0 0 332 128.3;" xml:space="preserve">
<style type="text/css">
	.st0{fill:#C5C5C5;}
</style>
<g>
	<path class="st0" d="M0,65.3V47.8c0-13,2.2-23.4,6.6-31.3C11.8,7,19.7,2.3,30.3,2.3c10.3,0,18.1,4.6,23.4,13.9
		c4.5,8,6.8,18.5,6.8,31.5v35.1c0,12.5-2.1,22.8-6.4,30.8c-5.2,9.8-13.1,14.6-23.7,14.6c-10.7,0-18.7-4.9-23.9-14.6
		C2.1,105.8,0,95.5,0,82.9V65.3z M21.6,65.3v12.7c0,10.2,0.5,17.9,1.4,23.1c1.4,7.8,3.9,11.7,7.5,11.7c2.6,0,4.7-2.6,6.2-7.8
		c1.5-5.2,2.3-14.4,2.3-27.5V53.1c0-10.4-0.4-18.2-1.2-23.2c-1.3-8-3.7-12.1-7.3-12.1c-2.7,0-4.8,2.3-6.2,6.9
		c-1.8,5.6-2.7,14.9-2.7,27.9V65.3z M126.6,3.9v16h-19.1v106.9H87.7V19.9H68.8v-16H126.6z M178.8,70V3.9h19.8v122.9h-19.8v-43
		c-1.7,0.7-3.7,1.3-6.2,1.9c-2.5,0.6-5.4,0.9-8.6,0.9c-8.2,0-13.9-3.4-16.9-10.3c-1.8-4-2.7-9.4-2.7-16V3.9H165v54.6
		c0,4.6,0.4,7.7,1.1,9.5c1.2,2.8,3.5,4.1,7,4.1c1.2,0,2.3-0.2,3.4-0.7C177.5,70.9,178.3,70.4,178.8,70L178.8,70z M263.7,3.9v16h-28
		v34.9h21v16.4h-21v39.6h31.4v16h-51.2V3.9L263.7,3.9L263.7,3.9z M332,3.9v16h-19.1v106.9h-19.8V19.9h-18.9v-16L332,3.9L332,3.9z"/>
</g>
</svg>
