<?xml version="1.0" encoding="utf-8"?>
<!-- Generator: Adobe Illustrator 21.0.1, SVG Export Plug-In . SVG Version: 6.00 Build 0)  -->
<svg version="1.1" id="Слой_1" xmlns="http://www.w3.org/2000/svg" xmlns:xlink="http://www.w3.org/1999/xlink" x="0px" y="0px"
	 viewBox="0 0 332 141" style="enable-background:new 0 0 332 141;" xml:space="preserve">
<style type="text/css">
	.st0{filter:url(#Adobe_OpacityMaskFilter);}
	.st1{fill:#FFFFFF;}
	.st2{mask:url(#b);fill:#C5C5C5;}
</style>
<g>
	<g>
		<defs>
			<filter id="Adobe_OpacityMaskFilter" filterUnits="userSpaceOnUse" x="0" y="0.6" width="331.9" height="136">
				<feColorMatrix  type="matrix" values="1 0 0 0 0  0 1 0 0 0  0 0 1 0 0  0 0 0 1 0"/>
			</filter>
		</defs>
		<mask maskUnits="userSpaceOnUse" x="0" y="0.6" width="331.9" height="136" id="b">
			<g class="st0">
				<path id="a" class="st1" d="M0,0.6v136h331.9V0.6H0z"/>
			</g>
		</mask>
		<path class="st2" d="M30.6,24.6v11.3H13.2V111H0V24.6L30.6,24.6L30.6,24.6z M37,67.8V55.5c0-9.1,1.5-16.5,4.4-22
			c3.5-6.6,8.8-9.9,15.9-9.9c6.9,0,12.1,3.3,15.6,9.8c3,5.6,4.5,13,4.5,22.1v24.7c0,8.8-1.4,16-4.3,21.7
			c-3.5,6.9-8.8,10.3-15.9,10.3c-7.2,0-12.5-3.4-16-10.3C38.4,96.3,37,89,37,80.2L37,67.8L37,67.8z M51.4,67.8v9
			c0,7.2,0.3,12.6,1,16.2c1,5.5,2.6,8.2,5,8.2c1.8,0,3.1-1.8,4.2-5.5c1-3.7,1.5-10.1,1.5-19.3V59.2c0-7.3-0.3-12.8-0.8-16.3
			c-0.9-5.6-2.5-8.5-4.9-8.5c-1.8,0-3.2,1.6-4.2,4.8c-1.2,4-1.8,10.5-1.8,19.6V67.8z M95.4,24.6h32.9v73.1h6.4l-1.7,39h-9.7l-2-25.7
			H97.8l-2.4,25.7h-9.3l-1.6-39h5.6c1.4-9.3,2.5-18.6,3.2-27.9c0.7-9.2,1.1-15.6,1.1-19.3C94.5,50.5,95.4,24.6,95.4,24.6z
			 M115.1,35.9h-6.7l-1,16.7l-0.4,7.4l-0.8,13.4c0,3.4-0.2,7.1-0.7,11.1c-0.5,4.4-1.1,8.8-1.8,13.2h11.3
			C115.1,97.7,115.1,35.9,115.1,35.9z M142.3,67.8V55.5c0-9.1,1.5-16.5,4.4-22c3.5-6.6,8.8-9.9,15.9-9.9c6.9,0,12.1,3.3,15.6,9.8
			c3,5.6,4.5,13,4.5,22.1v24.7c0,8.8-1.4,16-4.3,21.7c-3.5,6.9-8.8,10.3-15.9,10.3c-7.2,0-12.5-3.4-16-10.3
			c-2.9-5.6-4.3-12.8-4.3-21.7V67.8z M156.8,67.8v9c0,7.2,0.3,12.6,1,16.2c1,5.5,2.6,8.2,5,8.2c1.7,0,3.1-1.8,4.2-5.5
			c1-3.7,1.5-10.1,1.5-19.3V59.2c0-7.3-0.3-12.8-0.8-16.3c-0.9-5.6-2.5-8.5-4.9-8.5c-1.8,0-3.2,1.6-4.2,4.8
			c-1.2,4-1.8,10.5-1.8,19.6V67.8z M193.2,111V24.6h13.2c7.2,0,12.5,1.2,16.1,3.5c4.6,3,6.9,8.1,6.9,15.5c0,5-0.8,9.2-2.5,12.6
			c-1.9,3.8-4.8,6.4-8.7,7.9c4.3,0.9,7.6,3.1,10,6.7c2.3,3.6,3.5,8.6,3.5,15.1c0,10.9-3.3,18.2-9.8,22c-3.6,2.1-8.7,3.1-15.5,3.1
			H193.2z M206.5,99.8c2.7,0,4.9-0.7,6.6-2.2c2.7-2.3,4.1-6.3,4.1-12c0-5.8-1-10-2.9-12.7c-1.6-2.3-3.7-3.4-6.3-3.4h-1.4L206.5,99.8
			L206.5,99.8z M206.5,59.1c2.1,0.2,4-0.2,5.5-1.2c1-0.7,1.9-1.6,2.5-2.7c0.6-1.1,1-2.2,1.1-3.4c0.1-1.2,0.2-2.7,0.2-4.6
			c0-2-0.1-3.5-0.2-4.4c-0.1-0.9-0.5-2-1.1-3.2c-0.6-1.2-1.4-2.1-2.3-2.8c-1.2-0.9-2.6-1.3-4.2-1.3h-1.6L206.5,59.1L206.5,59.1z
			 M241.7,67.8V55.5c0-9.1,1.5-16.5,4.4-22c3.5-6.6,8.8-9.9,15.9-9.9c6.9,0,12.1,3.3,15.6,9.8c3,5.6,4.5,13,4.5,22.1v24.7
			c0,8.8-1.4,16-4.3,21.7c-3.5,6.9-8.8,10.3-15.9,10.3c-7.2,0-12.5-3.4-16-10.3c-2.9-5.6-4.3-12.8-4.3-21.7V67.8z M256.1,67.8v9
			c0,7.2,0.3,12.6,1,16.2c1,5.5,2.6,8.2,5,8.2c1.7,0,3.1-1.8,4.2-5.5c1-3.7,1.6-10.1,1.6-19.3V59.2c0-7.3-0.3-12.8-0.8-16.3
			c-0.9-5.6-2.5-8.5-4.9-8.5c-1.8,0-3.2,1.6-4.2,4.8c-1.2,4-1.8,10.5-1.8,19.6V67.8z M296.8,0.6l9.2,1.8c0.4,4,1.1,6.7,2.2,8.1
			c1.1,1.4,2.5,2.1,4.4,2.1c2.2,0,3.9-1.1,4.9-3.1c0.7-1.5,1.2-3.8,1.5-7l9.3-1.8c0,5.4-1.1,9.9-3.3,13.6c-2.8,4.5-6.9,6.8-12.4,6.8
			c-5.4,0-9.5-2.3-12.3-6.8C298,10.5,296.8,6,296.8,0.6L296.8,0.6z M293.8,24.6h13.2v42.7l11.6-24.8l0-17.8h13.2V111h-13.2V67.2
			l-11.6,25.7V111h-13.2L293.8,24.6L293.8,24.6z"/>
	</g>
</g>
</svg>
