<?xml version="1.0" encoding="utf-8"?>
<!-- Generator: Adobe Illustrator 21.0.1, SVG Export Plug-In . SVG Version: 6.00 Build 0)  -->
<svg version="1.1" id="Слой_1" xmlns="http://www.w3.org/2000/svg" xmlns:xlink="http://www.w3.org/1999/xlink" x="0px" y="0px"
	 viewBox="0 0 145.2 45.1" style="enable-background:new 0 0 145.2 45.1;" xml:space="preserve">
<style type="text/css">
	.st0{fill:#C5C5C5;}
	.st1{filter:url(#Adobe_OpacityMaskFilter);}
	.st2{fill:#FFFFFF;}
	.st3{mask:url(#b);fill:#C5C5C5;}
	.st4{filter:url(#Adobe_OpacityMaskFilter_1_);}
	.st5{mask:url(#d);fill:#C5C5C5;}
</style>
<g>
	<path class="st0" d="M121.2,2v42h19v-5.5h-11.7V25h7.8v-5.6h-7.8V7.5h10.4V2H121.2z"/>
	<g transform="translate(79.868 139.103)">
		<defs>
			<filter id="Adobe_OpacityMaskFilter" filterUnits="userSpaceOnUse" x="-3.7" y="-137" width="24.4" height="42.9">
				<feColorMatrix  type="matrix" values="1 0 0 0 0  0 1 0 0 0  0 0 1 0 0  0 0 0 1 0"/>
			</filter>
		</defs>
		<mask maskUnits="userSpaceOnUse" x="-3.7" y="-137" width="24.4" height="42.9" id="b">
			<g class="st1">
				<path id="a" class="st2" d="M-3.7-94h24.4V-137H-3.7V-94z"/>
			</g>
		</mask>
		<path class="st3" d="M20.7-137v42.4h-7.2v-36.3H9.9l-1.2,24.2c0,3.6-0.9,6.6-2.7,9c-1.8,2.5-4.1,3.7-7,3.7c-0.6,0-1.2-0.1-1.8-0.2
			l-1-4.1c2-0.9,3.4-2.2,4.1-3.8c0.7-1.6,1.1-3.8,1.1-6.4L2.7-137L20.7-137L20.7-137z"/>
	</g>
	<path class="st0" d="M37.7,2.1H45V23l6.3-12.2l0-8.7h7.2v42.4h-7.2V23L45,35.6v9h-7.2V2.1z"/>
	<g transform="translate(3.26 138.331)">
		<defs>
			<filter id="Adobe_OpacityMaskFilter_1_" filterUnits="userSpaceOnUse" x="-3.3" y="-136.7" width="19.8" height="43.5">
				<feColorMatrix  type="matrix" values="1 0 0 0 0  0 1 0 0 0  0 0 1 0 0  0 0 0 1 0"/>
			</filter>
		</defs>
		<mask maskUnits="userSpaceOnUse" x="-3.3" y="-136.7" width="19.8" height="43.5" id="d">
			<g class="st4">
				<path id="c" class="st2" d="M-3.3-93.3h19.9v-43.5H-3.3L-3.3-93.3z"/>
			</g>
		</mask>
		<path class="st5" d="M10.4-110.4l6.2,0.7c0,4.1-0.5,7.5-1.5,10.2c-1.6,4.2-4.2,6.3-8,6.3c-3.2,0-5.6-1.2-7.2-3.7
			c-1.3-2-2.2-4.9-2.7-8.9c-0.3-2.6-0.5-6.1-0.5-10.3c0-6.1,0.5-10.7,1.6-13.7c1.6-4.5,4.4-6.8,8.5-6.8c3.3,0,5.7,1.5,7.4,4.5
			c1.3,2.3,1.9,5.1,1.9,8.6v2l-6.3,0.8l-0.1-3.4L9.1-128c0-0.4,0-0.8-0.1-1.2c-0.1-0.4-0.3-0.7-0.5-0.9c-0.4-0.3-0.8-0.5-1.1-0.5
			c-0.2,0-0.4,0-0.6,0.1c-0.2,0.1-0.4,0.3-0.6,0.5c-0.2,0.2-0.4,0.5-0.5,0.8c-0.1,0.3-0.2,0.8-0.3,1.3c0,0.7-0.1,1.4-0.2,2
			c-0.1,0.6-0.2,1.2-0.3,1.9c0,1.5,0,2.9-0.1,4.4s-0.1,3-0.1,4.4c0,1,0,2.7,0.1,5c0.1,2.3,0.1,3.6,0.1,3.7l0.5,3
			c0,0.7,0.1,1.3,0.2,1.8c0.1,0.5,0.4,1,0.8,1.5c0.4,0.5,0.8,0.7,1.2,0.7c0.2,0,0.4,0,0.7-0.1c0.2-0.1,0.5-0.4,0.8-0.7
			c0.3-0.3,0.5-0.8,0.6-1.6c0.1-0.7,0.2-1.3,0.2-1.6c0-0.7,0.1-1.4,0.2-2.1c0.1-0.7,0.2-1.1,0.3-1.4L10.4-110.4L10.4-110.4z"/>
	</g>
</g>
</svg>
