<?xml version="1.0" encoding="utf-8"?>
<!-- Generator: Adobe Illustrator 21.0.1, SVG Export Plug-In . SVG Version: 6.00 Build 0)  -->
<svg version="1.1" id="Слой_1" xmlns="http://www.w3.org/2000/svg" xmlns:xlink="http://www.w3.org/1999/xlink" x="0px" y="0px"
	 viewBox="0 0 370 70.7" style="enable-background:new 0 0 370 70.7;" xml:space="preserve">
<style type="text/css">
	.st0{filter:url(#Adobe_OpacityMaskFilter);}
	.st1{fill:#FFFFFF;}
	.st2{mask:url(#f);fill:#C5C5C5;}
	.st3{fill:#C5C5C5;}
</style>
<g>
	<g transform="translate(0 75.172)">
		<defs>
			<filter id="Adobe_OpacityMaskFilter" filterUnits="userSpaceOnUse" x="0" y="-61.8" width="27.5" height="55">
				<feColorMatrix  type="matrix" values="1 0 0 0 0  0 1 0 0 0  0 0 1 0 0  0 0 0 1 0"/>
			</filter>
		</defs>
		<mask maskUnits="userSpaceOnUse" x="0" y="-61.8" width="27.5" height="55" id="f">
			<g class="st0">
				<path id="e" class="st1" d="M0-61.8v55h27.5v-55H0z"/>
			</g>
		</mask>
		<path class="st2" d="M5.9-61.8h18V-26h3.5L26.6-6.9h-5.3l-1.1-12.6H7.2L5.9-6.9H0.8L0-26h3.1c0.8-4.5,1.4-9.1,1.8-13.7
			c0.4-4.5,0.6-7.7,0.6-9.5L5.9-61.8z M16.7-56.3h-3.7l-0.5,8.2l-0.2,3.6l-0.5,6.6c0,1.7-0.1,3.5-0.4,5.5c-0.3,2-0.6,4.1-1,6.5h6.2
			V-56.3L16.7-56.3z"/>
	</g>
	<path class="st3" d="M41.4,55.7V13.3h7.2c3.9,0,6.9,0.6,8.8,1.7c2.5,1.5,3.8,4,3.8,7.6c0,2.5-0.5,4.5-1.4,6.2
		c-1,1.9-2.6,3.1-4.8,3.9c2.3,0.4,4.2,1.5,5.5,3.3c1.3,1.7,1.9,4.2,1.9,7.4c0,5.3-1.8,8.9-5.4,10.8c-2,1-4.8,1.5-8.5,1.5
		C48.6,55.7,41.4,55.7,41.4,55.7z M48.6,50.2c1.5,0,2.7-0.4,3.6-1.1c1.5-1.1,2.2-3.1,2.2-5.9c0-2.8-0.5-4.9-1.6-6.2
		c-0.9-1.1-2-1.7-3.5-1.7h-0.8V50.2z M48.6,30.3c1.2,0.1,2.2-0.1,3-0.6c0.5-0.3,1-0.8,1.4-1.3c0.3-0.5,0.6-1.1,0.6-1.7
		c0.1-0.6,0.1-1.3,0.1-2.3c0-1,0-1.7-0.1-2.2c-0.1-0.5-0.3-1-0.6-1.6c-0.3-0.6-0.8-1.1-1.3-1.4c-0.7-0.4-1.4-0.7-2.3-0.7h-0.8
		L48.6,30.3L48.6,30.3z M83.5,13.3h7.2v20.9l6.3-12.2l0-8.7h7.2v42.4h-7.2V34.2l-6.3,12.5v9h-7.2V13.3z M139.3,55.7V36
		c-0.3,0-0.5-0.1-0.8-0.1c-1.7,0-2.8,0.6-3.3,1.9c-0.4,0.9-0.6,2.2-0.6,4.1v7.3c0,1.6-0.3,3-0.9,4.1c-1,1.7-2.6,2.7-4.9,3
		c-0.3,0-0.6,0.1-1.1,0.1c-0.6,0-1.2-0.1-1.8-0.2c-0.6-0.1-1.2-0.3-1.8-0.4l0.6-3.4c0.9,0,1.5-0.3,1.8-0.9c0.3-0.6,0.5-1.5,0.5-2.7
		v-6.4c0-2.5,0.5-4.6,1.5-6.1c1-1.5,2.7-2.5,5.1-2.9c-2.4-0.5-4-1.5-4.9-3c-0.6-1-0.9-2.5-0.9-4.3v-6.7c0-0.8-0.1-1.4-0.3-1.8
		c-0.3-0.6-1-0.8-2-0.8l-0.7-3.6c0.4-0.1,1.1-0.2,1.9-0.4c0.8-0.1,1.4-0.2,1.8-0.2c1.7,0,3.1,0.5,4.1,1.4c1.4,1.2,2,3.2,2,6.1v6.5
		c0,1.7,0.4,2.9,1.2,3.7c0.7,0.7,1.5,1,2.5,1h1v-18h7v17.9c0.3,0.1,0.6,0.1,1,0.1c1.2,0,2.1-0.4,2.7-1.2c0.6-0.8,0.9-2,0.9-3.5v-6.5
		c0-2.8,0.7-4.8,2-6c1-0.9,2.4-1.4,4.2-1.4c0.7,0,1.4,0,2,0.2c0.6,0.1,1.1,0.2,1.7,0.4l-0.6,3.6c-0.7,0-1.3,0.2-1.7,0.5
		c-0.4,0.3-0.6,1-0.6,2v6.8c0,1.9-0.3,3.4-0.9,4.4c-0.9,1.4-2.5,2.4-4.9,2.8c2.3,0.4,4,1.4,5.1,2.9c1,1.5,1.5,3.5,1.5,6.1v6.4
		c0,1.1,0.1,2,0.4,2.6c0.3,0.6,0.9,0.9,1.7,0.9l0.7,3.4c-0.5,0.2-1.1,0.3-1.6,0.4c-0.6,0.1-1.3,0.2-2,0.2c-0.4,0-0.8,0-1-0.1
		c-2.3-0.2-4-1.2-5-2.9c-0.7-1.1-1-2.5-1-4.2v-7.3c0-2.4-0.3-4-1-4.8c-0.7-0.8-1.6-1.2-2.9-1.2h-0.8v19.8H139.3L139.3,55.7z
		 M186.9,13.3l4.2,19.9l3.8-19.9h7.6l-9.1,35.3c-0.6,2.4-1.8,4.3-3.5,5.6c-1.7,1.3-3.7,2-5.9,2c-1.1,0-2.3-0.2-3.3-0.6l-0.5-4.3
		c1.8,0,3.1-0.3,4.1-0.8c0.9-0.6,1.6-1.6,2-3l1-3.4l-8-30.8L186.9,13.3L186.9,13.3z M220.4,55.7V13.3h7.2v36.9h6.1V13.3h7.2v36.9h6
		V13.3h7.3l-0.1,36.9h3.9L257,66.5h-5.1L251,55.7H220.4z M293.5,13.3v5.5h-10.3v12.1h7.7v5.6h-7.7v13.7h11.5v5.5H276V13.3H293.5z
		 M314.2,1.6l5,0.9c0.2,2,0.6,3.3,1.2,4c0.6,0.7,1.4,1,2.4,1c1.2,0,2.1-0.5,2.7-1.5c0.4-0.7,0.7-1.9,0.8-3.4l5.1-0.9
		c0,2.7-0.6,4.9-1.8,6.7c-1.5,2.2-3.8,3.3-6.8,3.3c-3,0-5.2-1.1-6.7-3.3C314.9,6.4,314.2,4.2,314.2,1.6L314.2,1.6z M312.6,13.3h7.2
		v20.9l6.4-12.2l0-8.7h7.2v42.4h-7.2V34.2l-6.3,12.6v8.9h-7.2V13.3z"/>
</g>
</svg>
