<svg xmlns="http://www.w3.org/2000/svg" xmlns:xlink="http://www.w3.org/1999/xlink" width="370" height="183" viewBox="0 0 370 183">
    <defs>
        <path id="a" d="M.082 42.954h24.42V.025H.082z"/>
        <path id="c" d="M.559 43.726h19.85V.263H.558z"/>
        <path id="e" d="M0 .498v54.983h27.488V.498H0z"/>
        <path id="g" d="M18.92 42.592V.2H.183v42.392H18.92z"/>
    </defs>
    <g fill="none" fill-rule="evenodd">
        <path fill="#C5C5C5" d="M125 139v42h19v-5.47h-11.653V162h7.812v-5.588h-7.812v-11.94h10.394V139z"/>
        <g transform="translate(79.868 139.103)">
            <mask id="b" fill="#fff">
                <use xlink:href="#a"/>
            </mask>
            <path fill="#C5C5C5" d="M24.502.025V42.42h-7.248V6.082h-3.526l-1.175 24.166c0 3.563-.903 6.57-2.71 9.023-1.806 2.456-4.123 3.683-6.954 3.683-.608 0-1.217-.06-1.827-.178l-.98-4.097c2.004-.95 3.374-2.227 4.114-3.83.74-1.604 1.11-3.751 1.11-6.443L6.482.026h18.02z" mask="url(#b)"/>
        </g>
        <path fill="#C5C5C5" d="M41.526 139.128h7.248v20.92l6.311-12.202.023-8.718h7.247v42.395h-7.247v-21.494l-6.334 12.529v8.965h-7.248z"/>
        <g transform="translate(3.26 138.331)">
            <mask id="d" fill="#fff">
                <use xlink:href="#c"/>
            </mask>
            <path fill="#C5C5C5" d="M14.206 26.567l6.202.712c0 4.117-.499 7.502-1.501 10.153-1.566 4.196-4.223 6.294-7.966 6.294-3.178 0-5.594-1.247-7.248-3.74-1.304-1.98-2.197-4.95-2.676-8.908-.305-2.612-.458-6.056-.458-10.33 0-6.096.523-10.668 1.568-13.717C3.682 2.519 6.5.263 10.58.263c3.3 0 5.747 1.484 7.358 4.454 1.252 2.294 1.882 5.145 1.882 8.55v2.018l-6.334.831-.065-3.443-.521-3.623c0-.435-.044-.83-.13-1.187a2.114 2.114 0 0 0-.524-.95c-.435-.318-.805-.475-1.11-.475a.951.951 0 0 0-.62.09 2.509 2.509 0 0 0-.62.474 2.043 2.043 0 0 0-.49.832c-.109.335-.206.761-.294 1.276 0 .713-.054 1.375-.163 1.989-.11.614-.207 1.237-.294 1.87 0 1.465-.021 2.938-.065 4.423-.044 1.485-.088 2.96-.13 4.425 0 .99.032 2.65.097 4.988.066 2.335.098 3.56.098 3.68l.457 3.03c0 .671.055 1.275.163 1.81.097.534.36 1.038.751 1.514.403.474.794.712 1.175.712.219.04.435-.01.664-.149.24-.139.49-.366.762-.681.273-.318.468-.842.577-1.574.098-.732.173-1.278.217-1.633 0-.712.065-1.407.196-2.08.13-.671.218-1.148.262-1.424l.326-3.443z" mask="url(#d)"/>
        </g>
        <g transform="translate(0 75.172)">
            <mask id="f" fill="#fff">
                <use xlink:href="#e"/>
            </mask>
            <path fill="#C5C5C5" d="M5.942.498h18.02v35.864h3.526l-.913 19.12h-5.289l-1.11-12.59H7.247l-1.305 12.59H.848L0 36.361h3.07a170.772 170.772 0 0 0 1.763-13.687c.391-4.494.587-7.65.587-9.47L5.942.498zm10.772 5.523h-3.656l-.521 8.193-.196 3.623-.456 6.59c0 1.662-.132 3.483-.393 5.462-.261 1.98-.589 4.137-.98 6.473h6.202V6.02z" mask="url(#f)"/>
        </g>
        <path fill="#C5C5C5" d="M41.395 118.064V75.67h7.247c3.918 0 6.857.573 8.815 1.721 2.524 1.466 3.788 3.999 3.788 7.6 0 2.456-.458 4.514-1.371 6.177-1.045 1.86-2.634 3.145-4.766 3.86 2.349.433 4.166 1.522 5.45 3.264 1.285 1.741 1.927 4.216 1.927 7.422 0 5.343-1.785 8.946-5.354 10.807-1.958 1.028-4.79 1.543-8.49 1.543h-7.246zm7.247-5.522c1.48 0 2.678-.356 3.592-1.069 1.48-1.147 2.22-3.106 2.22-5.877 0-2.85-.523-4.93-1.568-6.235-.87-1.108-2.023-1.663-3.46-1.663h-.784v14.844zm0-19.95c1.175.12 2.177-.08 3.004-.593a4.367 4.367 0 0 0 1.37-1.327c.35-.534.556-1.078.622-1.653.065-.575.097-1.334.097-2.275 0-.99-.032-1.702-.097-2.157-.066-.456-.261-.97-.587-1.565-.328-.593-.752-1.05-1.275-1.355-.652-.436-1.415-.653-2.285-.653h-.85v11.578zM83.541 75.67h7.247v20.92l6.313-12.202.021-8.718h7.249v42.395h-7.249V96.57L90.788 109.1v8.966h-7.247zM139.282 118.064V98.292a7.843 7.843 0 0 0-.783-.06c-1.656 0-2.766.635-3.331 1.901-.392.87-.587 2.237-.587 4.098v7.302c0 1.623-.305 2.988-.915 4.097-.956 1.741-2.59 2.732-4.898 2.969-.26.038-.63.06-1.108.06-.61 0-1.198-.05-1.764-.15a12.96 12.96 0 0 1-1.762-.445l.587-3.383c.87 0 1.457-.298 1.762-.892.305-.595.458-1.485.458-2.672v-6.413c0-2.533.512-4.553 1.534-6.056 1.024-1.502 2.71-2.474 5.06-2.91-2.393-.474-4.027-1.464-4.897-2.968-.61-1.029-.913-2.454-.913-4.276V81.786c0-.832-.11-1.426-.327-1.78-.348-.556-1.001-.833-1.958-.833l-.719-3.563c.435-.118 1.066-.246 1.894-.386.827-.139 1.436-.207 1.827-.207 1.741 0 3.114.455 4.114 1.365 1.35 1.228 2.025 3.246 2.025 6.057v6.473c0 1.7.39 2.948 1.175 3.74.654.673 1.501 1.008 2.546 1.008h.98V75.67h6.986v17.872c.262.08.61.118 1.044.118 1.22 0 2.134-.416 2.744-1.245.608-.842.912-1.99.912-3.466v-6.49c0-2.781.675-4.78 2.025-6.017 1.045-.95 2.438-1.425 4.179-1.425.74 0 1.394.049 1.96.15.565.098 1.13.247 1.696.443l-.587 3.563c-.74 0-1.317.168-1.73.505-.413.335-.62 1.019-.62 2.049V88.494c0 1.94-.307 3.404-.916 4.396-.87 1.423-2.502 2.374-4.895 2.848 2.349.436 4.037 1.408 5.06 2.91 1.021 1.503 1.533 3.523 1.533 6.056v6.413c0 1.148.142 2.029.426 2.643.282.612.859.921 1.729.921l.654 3.383c-.524.159-1.068.298-1.634.415a9.51 9.51 0 0 1-1.957.18c-.435 0-.763-.022-.98-.06-2.308-.237-3.96-1.209-4.963-2.91-.652-1.147-.98-2.533-.98-4.156v-7.302c0-2.376-.326-3.97-.978-4.781-.653-.811-1.633-1.218-2.938-1.218h-.784v19.832h-6.986zM186.898 75.67l4.19 19.95 3.82-19.95h7.64L193.415 111c-.61 2.415-1.773 4.295-3.493 5.64-1.72 1.346-3.688 2.018-5.91 2.018a9.347 9.347 0 0 1-3.33-.592l-.456-4.336c1.784 0 3.145-.275 4.081-.83.936-.554 1.6-1.565 1.992-3.029l1.043-3.385-8.03-30.815h7.585zM220.378 118.064V75.61h7.249v36.932h6.136V75.61h7.249v36.932h6.006V75.61h7.314l-.065 36.932h3.916l-1.175 16.327h-5.092l-.914-10.805zM293.514 75.67v5.523H283.26v12.052h7.707v5.64h-7.707v13.657h11.493v5.523h-18.74V75.67zM314.22 63.914l5.027.89c.218 1.978.62 3.304 1.21 3.978.586.672 1.38 1.01 2.382 1.01 1.218 0 2.111-.514 2.677-1.544.39-.713.674-1.861.849-3.443l5.093-.891c0 2.651-.61 4.868-1.828 6.65-1.523 2.217-3.787 3.324-6.79 3.324-2.96 0-5.202-1.107-6.726-3.324-1.263-1.822-1.894-4.038-1.894-6.65zm-1.632 11.756h7.247V96.6l6.355-12.192-.02-8.738h7.246v42.394h-7.247V96.571l-6.334 12.586v8.907h-7.247V75.67z"/>
        <g transform="translate(350.44 12.012)">
            <mask id="h" fill="#fff">
                <use xlink:href="#g"/>
            </mask>
            <path fill="#C5C5C5" d="M17.681.2v5.522H7.43v12.052h7.704v5.64H7.43v13.658h11.493v5.52H.182V.2z" mask="url(#h)"/>
        </g>
        <path fill="#C5C5C5" d="M312.588 12.212h7.248v20.919l6.311-12.201.022-8.718h7.248v42.393h-7.248V33.11l-6.333 12.53v8.964h-7.248zM274.294 54.605V12.212h7.247c3.918 0 6.857.574 8.815 1.722 2.524 1.464 3.788 3.997 3.788 7.6 0 2.454-.458 4.512-1.373 6.175-1.043 1.86-2.632 3.147-4.766 3.86 2.35.435 4.168 1.523 5.452 3.264 1.283 1.743 1.925 4.217 1.925 7.424 0 5.342-1.783 8.944-5.352 10.805-1.96 1.03-4.79 1.543-8.49 1.543h-7.246zm7.247-5.522c1.48 0 2.678-.355 3.592-1.067 1.48-1.149 2.22-3.108 2.22-5.879 0-2.85-.523-4.928-1.568-6.235-.87-1.108-2.023-1.662-3.46-1.662h-.784v14.843zm0-19.95c1.175.12 2.176-.078 3.004-.593a4.385 4.385 0 0 0 1.37-1.326c.35-.535.556-1.079.622-1.654.065-.573.097-1.334.097-2.275 0-.99-.032-1.702-.097-2.157-.066-.455-.261-.97-.589-1.565-.326-.592-.751-1.048-1.273-1.355-.653-.434-1.415-.653-2.285-.653h-.85v11.578zM257.09 12.212v5.522h-6.986v36.87h-7.249v-36.87h-6.92v-5.522zM212.527 37.981l6.203.711c0 4.117-.5 7.501-1.5 10.154-1.569 4.196-4.224 6.293-7.966 6.293-3.179 0-5.594-1.247-7.249-3.739-1.305-1.98-2.197-4.95-2.676-8.907-.305-2.614-.458-6.057-.458-10.33 0-6.098.523-10.67 1.566-13.718 1.557-4.511 4.375-6.769 8.456-6.769 3.298 0 5.748 1.485 7.358 4.454 1.252 2.296 1.883 5.146 1.883 8.55v2.02l-6.334.83-.066-3.444-.523-3.621c0-.436-.044-.832-.13-1.187a2.079 2.079 0 0 0-.522-.95c-.435-.318-.805-.475-1.11-.475a.946.946 0 0 0-.62.089 2.499 2.499 0 0 0-.622.474c-.217.217-.38.496-.489.831a9.15 9.15 0 0 0-.293 1.278c0 .712-.056 1.375-.163 1.989-.11.613-.207 1.235-.295 1.87 0 1.464-.021 2.938-.065 4.423l-.13 4.423c0 .99.033 2.652.097 4.988.067 2.335.098 3.562.098 3.68l.458 3.029c0 .674.054 1.278.163 1.81.098.535.358 1.04.751 1.516.403.475.794.711 1.175.711.219.04.436-.01.664-.147.24-.14.49-.368.763-.683.27-.316.467-.84.575-1.575.098-.732.174-1.276.218-1.632 0-.713.066-1.406.196-2.078.13-.673.218-1.148.26-1.425l.327-3.443zM162.48.455l5.027.89c.219 1.98.621 3.306 1.21 3.98.587.672 1.38 1.009 2.383 1.009 1.217 0 2.11-.515 2.676-1.545.391-.711.675-1.861.85-3.443l5.093-.89c0 2.652-.61 4.869-1.829 6.649-1.522 2.217-3.788 3.324-6.79 3.324-2.96 0-5.201-1.107-6.725-3.324-1.264-1.82-1.894-4.038-1.894-6.65zm-1.631 11.757h7.247v20.93l6.355-12.193-.021-8.737h7.247v42.393h-7.247V33.112l-6.334 12.586v8.907h-7.247V12.212zM142.403 12.212v5.522H132.15v12.052h7.707v5.641h-7.707v13.657h11.493v5.52h-18.74V12.213zM86.154 12.212h18.02v35.861h3.526l-.913 19.12h-5.289l-1.112-12.588H87.46l-1.305 12.588H81.06l-.85-19.12h3.07c.784-4.63 1.37-9.192 1.764-13.684.39-4.494.586-7.65.586-9.472l.524-12.705zm10.772 5.522H93.27l-.522 8.193-.195 3.623-.458 6.59c0 1.661-.13 3.483-.391 5.462-.261 1.98-.589 4.136-.98 6.471h6.202V17.734zM40.873 33.409v-6.057c0-4.473.805-8.074 2.416-10.806 1.915-3.246 4.81-4.869 8.684-4.869 3.786 0 6.637 1.604 8.554 4.81 1.653 2.771 2.48 6.392 2.48 10.865V39.464c0 4.316-.783 7.858-2.35 10.629-1.916 3.365-4.81 5.046-8.684 5.046-3.918 0-6.834-1.68-8.75-5.046-1.568-2.73-2.35-6.274-2.35-10.629V33.41zm7.9 0v4.392c0 3.524.175 6.177.522 7.956.523 2.694 1.438 4.04 2.743 4.04.957 0 1.72-.901 2.285-2.702.566-1.8.85-4.959.85-9.47v-8.433c0-3.602-.154-6.274-.458-8.015-.478-2.77-1.371-4.157-2.677-4.157-1 0-1.762.794-2.285 2.376-.654 1.94-.98 5.145-.98 9.62v4.393zM17.466 37.981l6.202.711c0 4.117-.499 7.501-1.501 10.154-1.566 4.196-4.223 6.293-7.966 6.293-3.178 0-5.594-1.247-7.248-3.739-1.304-1.98-2.197-4.95-2.676-8.907-.305-2.614-.459-6.057-.459-10.33 0-6.098.524-10.67 1.569-13.718 1.554-4.511 4.374-6.769 8.454-6.769 3.3 0 5.747 1.485 7.358 4.454 1.252 2.296 1.882 5.146 1.882 8.55v2.02l-6.334.83-.065-3.444-.521-3.621c0-.436-.044-.832-.13-1.187a2.097 2.097 0 0 0-.524-.95c-.435-.318-.805-.475-1.11-.475a.941.941 0 0 0-.62.089 2.47 2.47 0 0 0-.62.474 2.037 2.037 0 0 0-.49.831c-.109.337-.206.763-.294 1.278 0 .712-.054 1.375-.163 1.989-.11.613-.207 1.235-.294 1.87 0 1.464-.021 2.938-.065 4.423-.044 1.483-.088 2.959-.13 4.423 0 .99.032 2.652.097 4.988.066 2.335.098 3.562.098 3.68l.457 3.029c0 .674.055 1.278.163 1.81.097.535.36 1.04.75 1.516.404.475.795.711 1.176.711.219.04.435-.01.664-.147.24-.14.49-.368.762-.683.273-.316.468-.84.577-1.575.098-.732.173-1.276.217-1.632 0-.713.065-1.406.196-2.078.13-.673.218-1.148.262-1.425l.326-3.443z"/>
    </g>
</svg>
