<?xml version="1.0" encoding="utf-8"?>
<!-- Generator: Adobe Illustrator 21.0.1, SVG Export Plug-In . SVG Version: 6.00 Build 0)  -->
<svg version="1.1" id="Слой_1" xmlns="http://www.w3.org/2000/svg" xmlns:xlink="http://www.w3.org/1999/xlink" x="0px" y="0px"
	 viewBox="0 0 370 69" style="enable-background:new 0 0 370 69;" xml:space="preserve">
<style type="text/css">
	.st0{filter:url(#Adobe_OpacityMaskFilter);}
	.st1{fill:#FFFFFF;}
	.st2{mask:url(#h);fill:#C5C5C5;}
	.st3{fill:#C5C5C5;}
</style>
<g>
	<g transform="translate(350.44 12.012)">
		<defs>
			<filter id="Adobe_OpacityMaskFilter" filterUnits="userSpaceOnUse" x="0.2" y="0.2" width="18.7" height="42.4">
				<feColorMatrix  type="matrix" values="1 0 0 0 0  0 1 0 0 0  0 0 1 0 0  0 0 0 1 0"/>
			</filter>
		</defs>
		<mask maskUnits="userSpaceOnUse" x="0.2" y="0.2" width="18.7" height="42.4" id="h">
			<g class="st0">
				<path id="g" class="st1" d="M18.9,42.6V0.2H0.2v42.4H18.9z"/>
			</g>
		</mask>
		<path class="st2" d="M17.7,0.2v5.5H7.4v12.1h7.7v5.6H7.4v13.7h11.5v5.5H0.2V0.2H17.7z"/>
	</g>
	<path class="st3" d="M312.6,12.2h7.2v20.9l6.3-12.2l0-8.7h7.2v42.4h-7.2V33.1l-6.3,12.5v9h-7.2V12.2z M274.3,54.6V12.2h7.2
		c3.9,0,6.9,0.6,8.8,1.7c2.5,1.5,3.8,4,3.8,7.6c0,2.5-0.5,4.5-1.4,6.2c-1,1.9-2.6,3.1-4.8,3.9c2.4,0.4,4.2,1.5,5.5,3.3
		c1.3,1.7,1.9,4.2,1.9,7.4c0,5.3-1.8,8.9-5.4,10.8c-2,1-4.8,1.5-8.5,1.5H274.3L274.3,54.6z M281.5,49.1c1.5,0,2.7-0.4,3.6-1.1
		c1.5-1.1,2.2-3.1,2.2-5.9c0-2.8-0.5-4.9-1.6-6.2c-0.9-1.1-2-1.7-3.5-1.7h-0.8L281.5,49.1L281.5,49.1z M281.5,29.1
		c1.2,0.1,2.2-0.1,3-0.6c0.5-0.3,1-0.8,1.4-1.3c0.4-0.5,0.6-1.1,0.6-1.7c0.1-0.6,0.1-1.3,0.1-2.3c0-1,0-1.7-0.1-2.2
		c-0.1-0.5-0.3-1-0.6-1.6c-0.3-0.6-0.8-1-1.3-1.4c-0.7-0.4-1.4-0.7-2.3-0.7h-0.9L281.5,29.1L281.5,29.1z M257.1,12.2v5.5h-7v36.9
		h-7.2V17.7h-6.9v-5.5L257.1,12.2z M212.5,38l6.2,0.7c0,4.1-0.5,7.5-1.5,10.2c-1.6,4.2-4.2,6.3-8,6.3c-3.2,0-5.6-1.2-7.2-3.7
		c-1.3-2-2.2-5-2.7-8.9c-0.3-2.6-0.5-6.1-0.5-10.3c0-6.1,0.5-10.7,1.6-13.7c1.6-4.5,4.4-6.8,8.5-6.8c3.3,0,5.7,1.5,7.4,4.5
		c1.3,2.3,1.9,5.1,1.9,8.5v2l-6.3,0.8l-0.1-3.4l-0.5-3.6c0-0.4,0-0.8-0.1-1.2c-0.1-0.4-0.3-0.7-0.5-1c-0.4-0.3-0.8-0.5-1.1-0.5
		c-0.2,0-0.4,0-0.6,0.1c-0.2,0.1-0.4,0.3-0.6,0.5c-0.2,0.2-0.4,0.5-0.5,0.8c-0.1,0.4-0.2,0.8-0.3,1.3c0,0.7-0.1,1.4-0.2,2
		c-0.1,0.6-0.2,1.2-0.3,1.9c0,1.5,0,2.9-0.1,4.4l-0.1,4.4c0,1,0,2.7,0.1,5c0.1,2.3,0.1,3.6,0.1,3.7l0.5,3c0,0.7,0.1,1.3,0.2,1.8
		c0.1,0.5,0.4,1,0.8,1.5c0.4,0.5,0.8,0.7,1.2,0.7c0.2,0,0.4,0,0.7-0.1c0.2-0.1,0.5-0.4,0.8-0.7c0.3-0.3,0.5-0.8,0.6-1.6
		c0.1-0.7,0.2-1.3,0.2-1.6c0-0.7,0.1-1.4,0.2-2.1c0.1-0.7,0.2-1.1,0.3-1.4L212.5,38L212.5,38z M162.5,0.5l5,0.9c0.2,2,0.6,3.3,1.2,4
		c0.6,0.7,1.4,1,2.4,1c1.2,0,2.1-0.5,2.7-1.5c0.4-0.7,0.7-1.9,0.9-3.4l5.1-0.9c0,2.7-0.6,4.9-1.8,6.6c-1.5,2.2-3.8,3.3-6.8,3.3
		c-3,0-5.2-1.1-6.7-3.3C163.1,5.3,162.5,3.1,162.5,0.5L162.5,0.5z M160.8,12.2h7.2v20.9l6.4-12.2l0-8.7h7.2v42.4h-7.2V33.1
		l-6.3,12.6v8.9h-7.2V12.2z M142.4,12.2v5.5h-10.3v12.1h7.7v5.6h-7.7v13.7h11.5v5.5h-18.7V12.2L142.4,12.2z M86.2,12.2h18v35.9h3.5
		l-0.9,19.1h-5.3l-1.1-12.6H87.5l-1.3,12.6h-5.1l-0.8-19.1h3.1c0.8-4.6,1.4-9.2,1.8-13.7c0.4-4.5,0.6-7.6,0.6-9.5L86.2,12.2z
		 M96.9,17.7h-3.7l-0.5,8.2l-0.2,3.6l-0.5,6.6c0,1.7-0.1,3.5-0.4,5.5c-0.3,2-0.6,4.1-1,6.5h6.2C96.9,48.1,96.9,17.7,96.9,17.7z
		 M40.9,33.4v-6.1c0-4.5,0.8-8.1,2.4-10.8c1.9-3.2,4.8-4.9,8.7-4.9c3.8,0,6.6,1.6,8.6,4.8c1.7,2.8,2.5,6.4,2.5,10.9v12.1
		c0,4.3-0.8,7.9-2.3,10.6c-1.9,3.4-4.8,5-8.7,5c-3.9,0-6.8-1.7-8.8-5c-1.6-2.7-2.3-6.3-2.3-10.6V33.4L40.9,33.4z M48.8,33.4v4.4
		c0,3.5,0.2,6.2,0.5,8c0.5,2.7,1.4,4,2.7,4c1,0,1.7-0.9,2.3-2.7c0.6-1.8,0.8-5,0.8-9.5v-8.4c0-3.6-0.2-6.3-0.5-8
		C54.2,18.4,53.3,17,52,17c-1,0-1.8,0.8-2.3,2.4c-0.7,1.9-1,5.1-1,9.6C48.8,29,48.8,33.4,48.8,33.4z M17.5,38l6.2,0.7
		c0,4.1-0.5,7.5-1.5,10.2c-1.6,4.2-4.2,6.3-8,6.3c-3.2,0-5.6-1.2-7.2-3.7c-1.3-2-2.2-5-2.7-8.9C4,39.9,3.8,36.4,3.8,32.2
		c0-6.1,0.5-10.7,1.6-13.7c1.6-4.5,4.4-6.8,8.5-6.8c3.3,0,5.7,1.5,7.4,4.5c1.3,2.3,1.9,5.1,1.9,8.5v2l-6.3,0.8l-0.1-3.4l-0.5-3.6
		c0-0.4,0-0.8-0.1-1.2c-0.1-0.4-0.3-0.7-0.5-1c-0.4-0.3-0.8-0.5-1.1-0.5c-0.2,0-0.4,0-0.6,0.1c-0.2,0.1-0.4,0.3-0.6,0.5
		c-0.2,0.2-0.4,0.5-0.5,0.8c-0.1,0.3-0.2,0.8-0.3,1.3c0,0.7-0.1,1.4-0.2,2c-0.1,0.6-0.2,1.2-0.3,1.9c0,1.5,0,2.9-0.1,4.4
		c0,1.5-0.1,3-0.1,4.4c0,1,0,2.7,0.1,5c0.1,2.3,0.1,3.6,0.1,3.7l0.5,3c0,0.7,0.1,1.3,0.2,1.8c0.1,0.5,0.4,1,0.8,1.5
		c0.4,0.5,0.8,0.7,1.2,0.7c0.2,0,0.4,0,0.7-0.1c0.2-0.1,0.5-0.4,0.8-0.7c0.3-0.3,0.5-0.8,0.6-1.6c0.1-0.7,0.2-1.3,0.2-1.6
		c0-0.7,0.1-1.4,0.2-2.1c0.1-0.7,0.2-1.1,0.3-1.4C17.1,41.4,17.5,38,17.5,38z"/>
</g>
</svg>
