<svg xmlns="http://www.w3.org/2000/svg" width="1180" height="383" viewBox="0 0 1180 383">
    <g fill="none" fill-rule="evenodd">
        <g fill="#A6A9AA">
            <path d="M45.066 14.91h120.83v7.945h.98-121.7l-.11-7.945zm127.797 0l144.017.109v7.836H172.863V14.91zm150.984 0l141.622.109v7.836H323.738l.109-7.945zM45.284 25.14h120.722V38.2l-120.83-.109.108-12.95zm127.688 0H316.88V38.2H172.863l.11-13.06zm150.875 0l141.622.109V38.2c-4.572.544-12.737.109-17.635.109-14.478 0-121.592.435-123.987-.218v-12.95zM40.603 45.165h9.906c-1.088 1.524-.544 4.68-.653 6.965l-9.253-.108v-6.857zm20.9 6.965c-.108-2.285.436-5.55-.652-6.965h96.446c-1.089 1.524-.544 4.68-.653 6.965h-95.14zm106.789 0c-.11-2.176.435-5.55-.654-6.965h98.733c-.98 1.524-.544 4.462-.653 6.965h-97.426zm109.073 0c-.109-2.285.436-5.55-.653-6.965h96.447c-.98 1.633-.545 4.462-.653 6.965h-95.14zm106.788 0c-.109-2.176.436-5.55-.653-6.856h96.446c-.98 1.85-.435 4.245-.653 6.965l-95.14-.109zm106.788 0c-.109-2.176.435-5.55-.653-6.856h98.732c-.98 1.85-.544 4.353-.653 6.965l-97.426-.109zM54.428 291.125c-.435-40.594 0-81.515 0-122.218V61.817c0-2.939.762-12.843-.653-14.366h5.334v1.306c.326 80.535 0 161.724 0 242.368h-4.681zm106.897.11c-.327-40.704 0-81.516 0-122.219V61.926c0-2.286.544-13.17-.653-14.366h5.334v243.783l-4.681-.109zm109.074-.11c-.436-40.594 0-81.515 0-122.218V61.817c0-2.286.544-13.17-.654-14.366h5.334v243.674h-4.68zm106.787 0c-.435-40.594 0-81.515 0-122.109V61.926c0-2.177.545-13.17-.544-14.366h5.334c.218 19.154-.218 38.853 0 58.225v185.45l-4.79-.11zM484.083 61.381c-.327-2.938.762-12.407-.653-13.821l5.334-.11-.109 13.931h-4.572zm109.074 0c-.327-3.047.762-12.298-.762-13.821l5.334-.11-.11 13.931h-4.462zM61.395 54.416l53.884.109c-.545.98-.436.87-.545 2.285h-53.34v-2.394zm-13.934 0l2.395-.109v1.088l-.109 1.306-2.286-.108v-2.177zm120.83 0h97.536l-.11 2.394H168.4l-.108-1.197v-1.197zm109.074 0h95.25l-.11 2.394H277.475l-.109-2.394zm106.788 0h95.25l-.11 2.394-95.14-.109v-2.285zm106.788 0h97.535v1.088l-.109 1.306-97.426-.109v-2.285zm-104.502 4.68h92.963l-.217 2.394h-92.637l-.109-2.394zm106.788 0h95.249v1.197l-.109 1.197h-95.031l-.11-2.394zm-427.151 0c5.987 0 46.481-.544 48.767.217l-.109 9.033C103.958 69.87 83.057 65.081 84.69 72.7c1.415 6.203 6.205 4.897 12.518 4.897h17.526c.218 2.503-.87 7.727.871 9.25h40.93v90.549H65.967l.109-118.3zm34.29 11.536h14.477v2.394H92.637c-2.286 0-5.008.544-5.661-1.523 2.177-1.633 9.797-.871 13.39-.871zm297.83 16.325c-.327-2.939.544-7.074-.654-9.36h12.737c22.968.218 46.263-.218 69.014 0v9.36h-81.097zm139.118-11.428c.87-.544.653-.435 2.503-.326 7.294.109 34.834-.435 37.23.218l-.219 2.394c-3.265.544-29.5.109-37.337.109-1.089 0-1.524.217-1.96-.436l-.217-1.959zM156.426 56.92c.327.327.11-.218.327.653v2.286c0 6.53.217 16.76 0 22.31-1.415.653-34.29.653-37.338.218-.218-2.939-.435-24.052.218-25.576 4.68-.435 25.037-.109 32.657-.109.762-.108 3.7-.544 4.136.218zm230.122 23.072l9.362.11v6.965h-9.253l-.109-7.075zm97.426-2.394h4.79l-.109 9.469-4.79-.11.11-9.359zm9.253 0c3.157-.109 18.832-.435 21.01.109v9.142c-1.96.544-17.962.326-21.01.109v-9.36zm23.295.109h4.572v9.25l-4.572-.108v-9.142zm20.9 2.285l39.406.218v11.536h-39.405V79.991zM386.44 91.528l4.68.108v11.537h-4.68V91.528zm130.083 4.68h4.681v13.821l-4.68.435V96.207zm20.792 2.394c.109 0 .217-.11.217-.11l2.286-.217c7.403.109 34.399-.435 37.011.218.545 1.632.545 10.339-.108 11.754-3.157.544-27.868.109-34.943.109h-2.395l-2.068-.327V98.602zm-20.792 14.8c1.089-1.305 2.722-.979 4.572-.979v2.395c-1.96 0-4.028.435-4.572-1.415zm20.9 3.701l39.406.218v11.536h-39.405v-11.754zm.11 27.752c0-.109-.11-.109-.11-.217 0 0-.108-.11-.108-.218v-8.707c1.415-.544 37.337-.544 39.514-.108.327 1.632.436 7.944-.108 9.36-4.028.652-15.131.108-19.921.108-1.198.109-18.07.435-19.268-.218zm-21.01-26.337c1.85.98 2.068.87 4.572.87v34.827l-4.572.326v-36.023zm0 39.397c.544-1.85 2.613-1.415 4.681-1.415l-.109 2.395c-1.742 0-3.374.435-4.572-.98zm20.9-5.986l39.406.11v11.427h-39.405v-11.537zM170.578 59.096h95.141v118.409h-95.14V59.096zm109.074 0h92.855v118.409h-92.419.98-1.416V59.095zm107.006 46.471c11.103-.327 9.144 2.068 9.144-9.36h83.601v81.298h-92.854c-.109-8.271-.327-69 .109-71.938zm106.57-9.36h21.01V177.614l-21.01-.11V96.208zm23.295 66.497c2.177.98 1.85.87 4.572.87v14.04l-4.68-.11.108-14.8zm21.01 19.263c-.218-.218-.218 0-.327-.653l.109-10.883c1.524-.544 37.228-.653 39.514-.11.436 1.742.436 10.231-.108 11.755-4.137.653-15.023.109-19.921.109-1.198.108-18.07.544-19.268-.218zm-.11 7.074h19.812c3.92 0 16.655-.544 19.594.218v9.142h-39.405v-9.36zm-20.9-4.68h4.572l-.109 20.896-4.463.435v-21.33zm0 24.487c.762-1.523 2.395-1.197 4.572-1.197l-.109 2.395c-2.068 0-3.483.326-4.463-1.198zm21.01 5.66c0-.11-.11-.11-.11-.218 0 0-.108-.109-.108-.218v-8.706c1.524-.544 37.228-.544 39.514-.109.327 1.632.436 7.945-.108 9.36-2.83.544-28.085.108-34.943.108-1.089.11-3.266.327-4.246-.217zm-.11 7.074l39.406.109v11.536h-39.405v-11.645zm-20.9-7.836c2.286.87 1.742.87 4.572.87l.109 1.307v29.82l-.218 1.414-4.463.327v-33.738zm0 36.567c1.306-1.197 2.395-.98 4.681-.98v2.395c-2.068.109-4.028.436-4.68-1.415zm20.9-10.121l2.395-.326c7.403.108 34.399-.436 37.011.217.327 1.633.436 10.23-.108 11.754-3.157.544-23.84.109-29.936.109-1.088 0-8.708.435-9.361-.327v-11.427zm-150.874-55.83h92.854v92.833H397.76c.544-1.96.327-6.312.327-8.816 0-2.83-.218-2.067-.545-2.285-1.524-1.088-8.49-.326-11.103-.435l.109-81.298zm150.875 74.331l39.405.218v9.142h-39.405v-9.36zM581.4 75.312c1.415-.436 3.484-.544 4.79.109.435 3.373.109 8.597.109 12.189 0 22.854.435 178.484-.218 180.552-1.415.326-3.266.435-4.79-.109l.11-192.741zM390.902 268.488c-.544-.544-.762.871-.435-.653l5.334.11c.653 1.523.544 5.44.109 7.182-1.524.218-3.484.435-4.899-.109l-.109-6.53zM528.17 75.312l4.572.109v197.203h-4.681l.109-197.312zM386.44 270.338l2.394.11-.109 4.57h-2.177l-.109-4.68zm106.896-85.977h20.9v92.834l-21.01-.109.11-92.725zm23.186 71.067c1.85.98 1.96.871 4.572.871l.109 20.896-4.68-.109v-21.658zM66.402 184.47h90.242v92.725c-.327.109-.218.218-.762.326l-1.96.11c-14.804.217-86.649.217-87.846-.327-.545-3.048 0-77.597-.11-90.548-.108-1.198-.326-1.85.436-2.286zm104.284 92.834c-.653-2.721-.217-40.268-.217-46.363 0-8.924-.436-40.159.108-46.58h95.032c.544 6.965.109 16.216.109 23.4 0 7.617.326 67.475-.218 69.543h-94.814zm109.183 0c-.544-2.721-.218-40.16-.218-46.363 0-9.25-.435-39.832.11-46.58h92.745c.653 6.857.108 16.325.108 23.4 0 10.556.545 67.148-.217 69.543h-92.528zM483.974 96.207h4.681l-.109 180.988h-3.157l-1.306-.109-.109-180.879zM63.79 279.59l90.568.109v9.033c-2.504.762-89.48.435-90.677-.109l.109-9.033zm106.896 0l92.746.109v8.924c-2.069.653-88.5.218-92.963.218v-.435l.217-8.816zm109.183 0l90.46.109v9.033c-2.287.653-86.541.218-90.569.218l.109-9.36zm106.679 4.68l90.46.109v4.353c-1.96.544-39.95.218-45.394.218-14.804 0-30.588.544-45.284 0l.218-4.68zm106.788 0l92.854.109v4.353c-2.177.653-62.157.218-69.777.218-7.51 0-15.675.326-23.186 0l.109-4.68zm-9.253 0h4.572l.109 6.965-4.681-.109v-6.856zm109.074 0h4.572v6.965l-4.681-.109.109-6.856zM3.375 295.479c0-2.395.87-4.136 3.048-4.136-.762.435-.654.762-.654 2.503v24.923c-1.959-.653-2.394-1.633-2.394-4.136v-19.154zm27.867-2.068l2.395.109v2.285h-2.395v-2.394zm-20.139 4.57c-.653 1.198.871.327-.87.98.761-1.088-.98-.326.87-.98zm20.139 13.931l.217-2.176c4.572-.11 4.355.544 4.464-3.483 0-3.918.108-3.265-4.572-3.483v-4.68l9.47.654-.109 13.386c-1.197.218-8.164.544-9.47-.218zM15.13 300.485l-.653-2.286 12.192.11v2.285l-11.539-.11zm27.758 0h13.934l-.109 6.965-13.825-.109v-6.856zm518.046 7.074h20.357v9.033h-20.465v-9.033h.108zm-550.594 8.38c.762.762 1.089.87 2.722.762 3.592-.109 1.306-2.939 2.177-6.965h11.43c.326 1.523.109 3.265.109 4.897.108 2.939 1.524 1.197 2.286 2.612v1.85H8.055l.11-2.394c1.632 0 1.414.218 2.176-.762zm21.118 2.938l-.217-.435c-.218-.653 0 .327-.11-.544l.11-3.7h2.503c.327 1.523.436 3.482-.108 4.788-.436 0-.762.11-1.198.11-1.524 0-.762.217-.98-.219zm396.78-9.141l30.263.108v11.645H428.24v-11.753zm127.689-2.286h2.395v13.93h-1.415l-.98-.108V307.45zm-510.97 23.181l-1.851.11c-.435-.545-.327.108-.435-1.09-.327-2.176.108-19.698.217-20.133l2.395.218c.327 1.959.109 12.515.109 15.89v2.72c0 2.83 0 1.959-.435 2.285zm538.946-23.18h4.354c.545 1.632.436 22.636.218 25.683l-4.572-.217V307.45zm-224.026 4.679h65.314c.762-.218 1.197-.544 1.415-.98v3.592h-64.552c-.762-.87-1.415-1.741-2.177-2.612zm-177.217 0h112.23c-.762.87-1.524 1.741-2.177 2.612-35.922 0-71.954 0-107.985-.109-.653-.87-1.415-1.741-2.068-2.503zm-56.823-7.074H60.415v-2.068h68.906c-1.197.653-2.395 1.306-3.483 2.068zm177.108 0H174.387c-1.197-.762-2.286-1.524-3.592-2.177 42.672 0 91.766 0 135.744-.109-1.089.762-2.395 1.524-3.593 2.286zm304.471-13.822v-2.285c-1.742 0-3.375-.11-5.116-.11l.109-4.679h4.898v-16.216h-16.655v-9.25H607.2v-6.64c-7.075 0-13.607 0-16.546-.217-.544-1.524-.544-10.121-.109-11.863 2.177-.217 9.035-.217 16.655-.217v-6.53h-15.348l-1.307-.11v-11.426l16.655.761v-7.509c-6.858 0-13.171 0-16.546-.218-.653-1.523-.544-7.727-.109-9.468 2.395-.218 9.253-.218 16.655-.218v-6.638h-16.655v-9.251h16.546v-6.639c-6.749.109-12.953 0-16.546-.218-.762-1.632-.653-10.012-.109-11.862 2.069-.218 9.144-.218 16.655-.218v-6.639h-16.655v-11.536h16.655V145.4c-6.858.11-13.062 0-16.546-.217-.653-1.524-.544-7.727-.109-9.469 2.83-.326 9.689-.326 16.655-.217v-6.639h-16.655v-11.645h16.547v-6.856h-15.35l-1.305-.11V98.712h16.655v-6.966h-16.655V80.1h16.546v-2.285h-16.655l.109-2.286h16.546v-4.68H385.895l.109-2.394h220.869V66.17h-220.87l.11-2.395h220.76V61.49h-5.008l-.109-2.394h5.008V56.81h-7.294l-.108-2.394h7.402V52.13h-7.294c-.108-2.176.436-5.55-.653-6.856h7.947V42.99H123.443c-5.008 0-80.01.435-82.84-.218v-2.177h566.814v-2.176c-3.375 0-6.858-.218-9.035-.218-11.539 0-123.77.435-126.055-.218l.108-12.842 134.982.109V23.29c-3.375 0-6.75-.218-9.035-.218-11.865 0-123.443.436-126.055-.217-.436-1.524-.545-6.639.108-8.163l134.982.11V9.903H472.544c0-.98-.109-1.197-.326-1.96-1.85-.435-4.028-.326-5.987-.326-.871 1.197-.98.436-.98 2.395H323.956c0-3.265-2.395-2.395-5.008-2.395-1.741 0-2.286.653-2.394 2.395h-27.432V8.38c1.415 0 1.415-.218 2.395-.653l-.327-4.353c-1.089-.109-1.197-.327-2.395-.327h-9.035c0-3.047-.98-1.959-6.64-1.959-.435.762-.544.871-.653 1.96h-55.19c0-3.048-1.089-1.96-5.987-1.96-1.198 0-1.307.762-1.307 1.96-3.265 0-10.994-.654-13.715.652-.436 1.96-.871 4.571 1.959 4.68v1.633H173.08c0-3.265-2.395-2.395-5.007-2.395-1.85 0-1.96.87-1.96 2.395h-29.282l-91.548.217-.109-1.632c.327-1.85-5.77-.87-6.531-.653-.98 4.027-.327 15.563-.327 20.787h-.326v5.006h.109V53.11c0 1.088.653 1.415 2.068 1.415h1.088c1.089 0 2.286-.109 3.92-.109v22.855h-.11v5.332h.11v31.78h-.11v5.332h.11v36.459h-.11v5.006h.11v104.152h-.11v.218h-1.415c-1.633.544-.87 2.938-.87 10.557 0 1.414 1.306 1.306 2.394 1.306 0 2.067-.544 12.842.327 13.712.762.762 3.374.327 4.354.327 0 3.482 1.96 2.394 7.076 2.394v1.633h-20.9c0-3.048.98-4.354-2.287-4.354l-16.11-.326c-.11-3.047-1.85-1.96-10.995-1.96-3.048 0-5.66 2.722-5.66 5.66v21.767c0 3.7 4.027 5.332 7.402 5.332H34.18c.98 0 1.306-.326 1.96-.653v-6.312h4.353v18.066c1.524.327 6.096.87 7.076 0 .871-.87.327-15.89.327-18.066h67.817a23.919 23.919 0 0 1 2.177-2.503H47.788l.109-2.286c3.157-.217 8.382.327 11.103-.326.327-.762.218-1.197.435-1.633V293.628l2.069-.326.326-1.959h95.032c.326 3.047.435 2.285 5.987 2.285 5.77 0 5.443.545 5.77-2.285h97.316c.327 3.047.327 2.285 6.096 2.285 5.66 0 5.443.545 5.77-2.285h95.031c.218 1.85 0 2.177 1.96 2.285 1.306 0 2.72-.108 4.027-.108 5.77 0 5.443.544 5.77-2.286h95.03c.219 1.741 0 2.177 1.96 2.286l8.056-.11c1.85-.108 1.524-.435 1.741-2.285h97.427c.217 1.85 0 2.286 1.959 2.286 1.306.109 2.721-.109 4.028-.109 5.878 0 5.442.544 5.769-2.285h6.858v.217zm0 16.325v-2.394H488.655c-.109-1.742.218-2.068-1.306-2.286H348.013c1.306.653 2.504 1.415 3.701 2.177h134.655c0 2.503.327 9.686-.218 11.645h-26.125v-8.707h-33.528v14.584h34.399v-3.374c5.225 0 24.057.544 27.758-.327.87-3.482.327-7.727.327-11.427h64.551v15.78c1.85.98 4.246.654 6.314.654.87-1.197.98-.436.98-2.395h20.465v6.313c-.98 0-1.198.109-1.96.326-.87 3.7-.326 10.883-.326 15.019 0 1.959 4.027 1.632 4.68.98.762-.762.327-7.619.327-9.034 3.592 0 7.076.871 7.076-1.306v-26.446h16.328v.218z"/>
            <path d="M302.729 100.887c.544 1.85-.218 2.177 2.068 2.286 1.524.108 3.157.108 4.572-.218l.544-2.068h32.222c.544 1.96-.218 2.177 2.068 2.286 1.524.108 3.157.108 4.572-.218l.544-2.068c7.62 0 11.539.544 11.43-7.836 0-5.441.544-14.474-.109-19.48-.87-6.422-8.164-5.116-14.478-5.116h-39.514c-6.314 0-13.825-1.306-15.35 4.354-.761 2.83-.217 15.78-.217 19.698.218 8.924 3.375 8.271 11.648 8.38m.109-4.68c-8.709.545-6.967-.435-6.967-19.263 0-2.83.98-3.918 3.919-3.918h52.577c2.613 0 3.919.98 3.919 3.592 0 20.242 1.633 19.698-6.858 19.698-.435-2.72-.218-2.394-3.483-2.394-3.484 0-3.266-.544-3.701 2.394h-32.33l-.436-2.176c-1.524-.327-2.94-.218-4.354-.218-2.504 0-1.742.218-2.286 2.285m51.27 2.286c2.178-.762 4.029-2.177 4.464-4.462.435 3.265-1.306 4.788-4.463 4.462m-60.524-3.374c1.633 1.415 1.633 2.503 4.463 3.374-2.721.218-4.245-.762-4.463-3.374M240.354 100.887c7.947-.109 11.539.544 11.539-8.162 0-4.789.544-15.454-.218-19.59-1.088-6.095-8.273-4.789-14.804-4.789h-39.188c-6.423 0-13.825-1.414-15.35 4.354-.761 2.83-.217 15.78-.217 19.698 0 9.577 3.592 8.272 11.648 8.598 0 2.068 0 2.285 2.177 2.285 1.415 0 2.94.11 4.354-.217l.544-2.068h32.222l.653 2.068c1.524.435 4.463.435 6.205 0l.435-2.177zm-46.59-4.68c-7.62.653-6.967-1.197-6.967-7.835 0-2.83-.544-12.734.762-14.257 1.742-1.96 10.668-1.089 13.934-1.089h15.022c31.895 0 30.697-2.285 30.697 6.965 0 14.802 2.068 16.76-7.075 16.216 0-2.83-.545-2.285-3.593-2.285-3.265 0-2.939-.435-3.374 2.394h-32.222l-.544-2.068c-1.415-.326-3.048-.326-4.572-.217-2.395 0-1.524.435-2.068 2.176zm51.271 2.286c1.633-.544 2.83-1.197 3.592-2.503l.98-1.524c-.109 3.047-1.524 4.353-4.572 4.027zm-60.524-3.374c1.633 1.306 1.524 2.394 4.463 3.374-2.721.218-4.245-.762-4.463-3.374zM386.548 66.061h220.869v-2.394h-220.76zM194.308 205.692c-5.334 1.742-1.85 8.38 1.415 8.816 3.266.544 11.866.109 15.676.109 4.68 0 28.302.761 30.588-.653 2.721-1.742 4.899-7.945-1.088-8.598-4.355-.436-11.104 0-15.785 0-4.572 0-28.411-.544-30.806.326m48.223 3.156c-.98 1.633-3.048 1.198-5.334 1.198h-32.112c-3.701 0-10.124.653-11.321-1.198.87-1.632 2.939-1.197 5.225-1.197H231.1c3.593 0 10.56-.762 11.43 1.197M303.708 154.65c-1.959.653-3.592 1.741-2.83 4.353.545 1.85 1.96 3.918 3.592 4.354 1.524.435 45.176.326 46.373-.218 2.83-1.524 5.443-7.836-.544-8.707-3.701-.544-11.539-.108-15.675-.108-4.899 0-28.303-.545-30.916.326m47.897 3.265c-1.088 1.306-3.266.98-5.225.98h-31.786c-2.395 0-10.124.653-11.539-.98.653-1.959 3.048-1.415 5.225-1.415h38.535c1.96.11 4.246-.435 4.79 1.415M410.279 205.692c-5.334 1.742-1.742 7.945.87 8.707 1.416.435 45.176.435 46.7-.327 2.612-1.414 5.334-7.727-.545-8.597-3.592-.545-11.647-.11-15.784-.11-4.68 0-28.847-.543-31.241.327m48.223 3.156c-.98 1.633-3.048 1.198-5.334 1.198h-32.113c-3.7 0-10.123.653-11.212-1.198.871-1.632 2.94-1.197 5.225-1.197h41.692c1.198.218 1.306.327 1.742 1.197M87.52 205.692c-5.007 1.633-2.177 7.836.871 8.707 1.415.435 44.958.653 46.7-.327 2.939-1.632 4.898-7.836-.545-8.597-3.701-.545-11.647-.11-15.784-.11-4.68 0-28.847-.543-31.242.327m48.224 3.156c-.98 1.524-2.94 1.198-5.334 1.198H91.875c-2.178 0-4.028.326-4.899-1.198.762-1.632 3.048-1.197 5.225-1.197h32.113c3.7 0 10.45-.762 11.43 1.197M410.714 154.541c-5.77 1.524-2.504 7.727.327 8.816 1.306.435 45.284.435 46.372-.11 2.94-1.305 5.77-7.726-.109-8.815-2.177-.435-45.284-.326-46.59.11m47.679 3.373c-1.089 1.306-3.266.98-5.225.98h-38.209c-1.959 0-4.027.435-5.225-.98.545-1.959 3.048-1.415 5.225-1.415h38.535c2.069.11 4.355-.435 4.899 1.415M87.956 154.541c-5.879 1.415-2.504 7.727.326 8.816 1.307.435 45.284.435 46.373-.11 3.048-1.305 5.552-7.726 0-8.815-2.068-.435-45.175-.326-46.7.11m47.789 3.373c-1.198 1.306-3.266.98-5.226.98H98.732c-3.047 0-10.014.653-11.647-.871.762-2.068 2.939-1.415 5.334-1.415h38.535c1.96 0 4.136-.544 4.79 1.306M304.035 110.356c-6.096 1.414-2.612 7.727.109 8.815 1.306.544 45.393.435 46.481-.109 2.94-1.306 5.661-7.727-.108-8.706-2.178-.436-44.85-.327-46.482 0m47.57 3.047c-.544 1.959-3.048 1.415-5.225 1.415h-38.535c-2.068 0-4.354.435-4.899-1.415 1.198-1.415 3.266-.98 5.226-.98h38.208c1.85 0 4.137-.435 5.225.98M410.823 110.356c-6.75 1.632-1.633 8.162.109 8.815 1.306.435 45.284.435 46.481-.109 2.94-1.306 5.66-7.727-.109-8.815-2.177-.327-44.848-.218-46.481.109zm42.345 2.067c1.96 0 4.136-.435 5.225.98-.544 1.959-3.048 1.415-5.225 1.415h-38.535c-2.068 0-4.354.435-4.899-1.415 1.415-1.741 8.927-.98 11.54-.98h31.894zM88.065 110.356c-6.096 1.414-2.504 7.835.108 8.815 1.198.435 45.285.435 46.482-.109 2.94-1.306 5.552-7.727-.109-8.706-2.068-.436-44.74-.327-46.481 0m47.679 3.047c-.545 1.959-3.048 1.415-5.226 1.415H91.983c-2.286 0-4.245.544-5.007-1.524 1.633-1.632 8.709-.87 11.648-.87h25.472c2.395 0 10.124-.654 11.648.979M244.6 159.003c.762-2.503-.871-4.026-2.94-4.462-1.85-.435-34.616-.217-38.97-.217-4.136 0-12.083-1.089-11.103 4.353.326 1.85 2.068 4.136 3.483 4.68 1.415.544 34.725.217 38.753.217 5.987-.108 9.144.871 10.777-4.57m-2.069-1.089c-1.197 1.306-3.265.98-5.225.98H205.52c-2.503 0-10.123.653-11.538-.98.544-1.85 3.048-1.415 5.225-1.415h38.535c1.96.11 4.245-.435 4.79 1.415M88.173 247.375c-5.987 1.524-2.83 7.4-.108 8.598 1.741.87 45.828.435 46.59.108 2.94-1.088 5.987-7.727 0-8.815-2.177-.435-44.958-.326-46.482.109zm35.923 1.959c3.266 0 9.688-.653 11.648.87-.654 2.068-3.048 1.524-5.334 1.524H91.875c-2.178 0-4.355.436-5.008-1.523 1.96-1.633 8.49-.871 11.648-.871h25.58zM244.708 114.818c.762-2.395-.98-3.918-3.047-4.354-1.96-.435-34.399-.217-38.862-.217-3.919 0-11.974-1.089-11.103 4.244.326 1.85 2.068 4.245 3.374 4.789 1.415.544 34.834.217 38.862.217 5.987-.108 9.035.762 10.776-4.68m-2.177-1.414c-.544 1.959-3.048 1.415-5.225 1.415h-38.535c-2.068 0-4.354.435-4.898-1.415 1.524-1.741 8.926-.98 11.538-.98h25.473c2.395 0 10.232-.653 11.647.98M194.961 247.375c-6.096 1.524-2.612 7.727.11 8.706 1.414.545 45.392.436 46.59-.108 2.83-1.198 5.551-7.727-.218-8.707-2.286-.435-44.958-.326-46.482.109zm35.923 1.959c3.265 0 9.688-.653 11.647.87-.544 2.068-3.048 1.524-5.334 1.524h-38.535c-2.177 0-4.245.436-4.898-1.415 1.96-1.632 8.382-.98 11.647-.98h25.473zM407.448 250.966c.218 1.96 1.96 4.245 3.048 4.898 1.633.98 5.225.435 7.185.435h31.46c6.095 0 9.579 1.197 11.43-4.353.761-2.503-.654-4.136-2.722-4.68-1.96-.544-34.29-.218-38.753-.218-3.919.11-12.083-.98-11.648 3.918zm39.297-1.632c3.157 0 9.797-.653 11.648.87-.653 2.068-3.048 1.524-5.334 1.524h-38.535c-2.177 0-4.354.436-4.899-1.415 1.742-1.632 8.6-.98 11.648-.98h25.472z"/>
            <path d="M322.432 75.53c-3.92.435-7.729 1.196-10.777 2.72-2.613 1.415-5.66 4.789-3.266 8.489 2.722 4.027 15.349 5.224 21.663 4.68 3.7-.327 7.837-1.089 10.885-2.503 3.375-1.524 5.334-5.007 2.504-8.49-3.157-4.026-14.26-5.658-21.01-4.897m-12.518 9.142c2.395-6.312 30.48-6.203 32.548 0-2.395 6.095-29.935 6.204-32.548 0M235.347 85.65c4.136-11.97-32.004-13.603-36.467-3.917-3.483 7.51 9.797 9.577 15.893 9.795 6.314.217 18.832-.762 20.574-5.877m-34.616-.98c2.394-6.203 30.48-6.312 32.548 0-2.286 6.204-29.827 6.204-32.548 0M581.292 268.162c1.523.435 3.374.435 4.79.109.761-2.068.217-157.698.217-180.552 0-3.592.326-8.816-.109-12.19-1.306-.653-3.375-.544-4.79-.108l-.108 192.74zm.326-192.741h4.354v192.414h-4.354V75.421zM472.762 15.128h134.655V14.8l-134.982-.109c-.544 1.415-.544 6.64-.108 8.163 2.612.653 114.19.217 126.055.217 2.286 0 5.66.11 9.035.218v-.544H472.435l.327-7.618zM590.762 77.597h16.655v-2.176l-16.546-.11zM156.644 277.086l-90.35.109.217-92.725c-.762.435-.544 1.088-.544 2.286.109 12.95-.327 87.5.109 90.548 1.197.435 73.042.544 87.847.326l1.959-.109c.544-.217.435-.217.762-.435M156.426 56.92c-.435-.763-3.374-.327-4.245-.327-7.62 0-27.976-.327-32.657.108-.544 1.633-.435 22.746-.218 25.576 3.048.435 35.923.435 37.338-.109.326-5.55 0-15.78 0-22.31v-2.286c0-.762.109-.218-.218-.653zm0 0l-.109 25.14h-36.793l.109-25.14h36.793zM607.417 181.858H590.98l-.11-11.318h16.547v-.545c-7.511 0-14.587 0-16.655.218-.544 1.85-.653 10.23.109 11.863 3.592.217 9.797.326 16.546.217v-.435zM607.417 251.51H590.98l-.11-11.318h16.547v-.544c-7.62 0-14.478 0-16.655.218-.435 1.74-.544 10.339.109 11.862 2.939.218 9.47.218 16.546.218v-.435zM607.417 144.746h-16.546v-9.033h16.546v-.544c-6.967-.109-13.934-.109-16.655.218-.435 1.741-.544 7.945.109 9.468 3.483.218 9.688.327 16.546.218v-.327zM607.417 214.399h-16.546v-9.033h16.546v-.544c-7.402 0-14.369 0-16.655.217-.435 1.742-.544 7.945.109 9.469 3.374.217 9.688.326 16.546.217v-.326zM537.531 181.967c1.198.653 18.07.326 19.377.326 4.79 0 15.784.545 19.92-.108.545-1.524.436-10.013.11-11.754-2.287-.653-38.1-.544-39.515.109l-.11 10.883c0 .544 0 .326.218.544zm0 0V170.54h39.189v11.318l-39.189.109zM537.531 214.508c.98.544 3.157.326 4.355.326 6.858 0 32.112.436 34.942-.109.545-1.414.436-7.727.11-9.36-2.287-.543-37.992-.435-39.515.11v8.706c0 .109.108.218.108.218-.108 0-.108 0 0 .109zm0 0v-9.033h39.189v9.033H537.53zM537.531 251.62c.654.87 8.273.326 9.362.326 6.096 0 26.779.435 29.935-.109.436-1.524.436-10.012.11-11.754-2.613-.653-29.61-.109-37.012-.217l-2.395.326h39.297v11.319h-39.297v.108zM537.531 144.855c1.198.653 18.07.327 19.377.327 4.79 0 15.893.544 19.92-.11.545-1.414.436-7.726.11-9.359-2.178-.544-38.21-.435-39.515.11v8.706c0 .109.108.217.108.217-.108 0 0 .11 0 .11zm0 0v-9.142h39.08v9.033l-39.08.11zM537.423 110.03l2.068.326h2.395c7.075 0 31.786.435 34.942-.11.654-1.414.545-10.12.11-11.753-2.613-.653-29.61-.109-37.012-.218l-2.286.218c-.109 0-.217.109-.217.109h39.405l-.108 11.318h-39.297v.11zM537.531 77.488c.436.653.871.436 1.96.436 7.837 0 34.072.326 37.337-.11l.218-2.393c-2.395-.653-29.935-.11-37.229-.218-1.741 0-1.632-.109-2.503.326h39.297v1.96h-39.08zM555.928 321.272l.98.217 1.415-.108v-13.93h-2.395zM493.227 87.066c3.157.108 19.05.435 21.01-.11v-9.141c-2.178-.544-17.853-.327-21.01-.109v9.36zm.327-9.142h20.138l.109 8.815h-20.247v-8.815zM43.107 330.74l-.109-20.896h2.068l-.108 20.787c.435-.326.435.436.435-2.394v-2.72c0-3.375.218-13.931-.109-15.89l-2.395-.218c-.109.435-.544 17.849-.217 20.134.217 1.306 0 .762.435 1.197M386.548 275.018h2.177l.109-4.68h-2.395zM516.522 250.313c.653 1.85 2.613 1.415 4.681 1.415v-2.394c-2.395 0-3.375-.218-4.68.98M516.522 113.403c.544 1.85 2.504 1.415 4.572 1.415v-2.395c-1.85 0-3.374-.326-4.572.98M516.522 157.915c1.089 1.306 2.722.98 4.572.98l.109-2.395c-2.068.11-4.137-.326-4.68 1.415M483.865 86.957l4.79.109.109-9.469h-4.79l-.109 9.36zm.545-9.033h4.027v8.815h-4.027v-8.815zM516.522 208.848c.98 1.524 2.395 1.198 4.463 1.198l.11-2.395c-2.178 0-3.81-.326-4.573 1.197M390.902 268.597c.871-.762 3.592-.435 4.79-.435v6.639l-4.354-.11-.11-5.659c0-.108-.108-.108-.108-.326-.109-.109-.109-.109-.218-.109l.11 6.312c1.414.545 3.374.436 4.898.11.435-1.742.544-5.66-.11-7.184l-5.333-.109c-.327 1.633-.11.218.435.871M31.242 311.912c1.306.87 8.273.436 9.361.218l.11-13.386c-.219.326-.219.217-.327.761v12.516l-9.144-.109zM47.57 56.701l2.177.11.11-1.307v-1.088H47.46zM354.109 98.493c3.157.218 4.898-1.197 4.463-4.462-.435 2.394-2.286 3.809-4.463 4.462M245.035 98.493c3.048.218 4.572-.98 4.572-4.027l-.98 1.524c-.762 1.306-1.96 2.068-3.592 2.503M188.974 98.493c-3.048-1.088-2.83-2.177-4.463-3.374.218 2.612 1.742 3.592 4.463 3.374M298.048 98.493c-2.94-.98-2.83-2.068-4.463-3.374.218 2.612 1.742 3.592 4.463 3.374M10.341 298.961c1.742-.762.218.218.871-.98-1.96.654-.218-.108-.87.98M305.45 205.692c-5.007 1.633-2.177 7.836.871 8.707 1.415.435 44.958.653 46.7-.327 2.938-1.632 4.898-7.836-.545-8.597-3.701-.545-11.648-.11-15.784-.11-4.79 0-28.847-.543-31.242.327m48.115 3.156c-.98 1.524-2.94 1.198-5.334 1.198h-38.535c-2.178 0-4.028.326-4.899-1.198.762-1.632 3.048-1.197 5.225-1.197h32.113c3.81 0 10.559-.762 11.43 1.197M305.994 247.375c-5.987 1.524-2.83 7.4-.108 8.598 1.741.87 45.828.435 46.59.108 2.94-1.088 5.987-7.727 0-8.815-2.177-.435-44.849-.326-46.482.109zm35.923 1.959c3.266 0 9.688-.653 11.648.87-.654 2.068-3.048 1.524-5.334 1.524h-38.535c-2.178 0-4.355.436-5.008-1.523 1.96-1.633 8.491-.871 11.648-.871h25.581z"/>
        </g>
        <g fill="#A6A9AA">
            <path d="M1134.498 22.855h-121.701.98V14.91h120.83l-.109 7.945zm-127.58 0H862.903v-7.836l144.017-.109v7.945zm-150.983 0h-141.73v-7.836l141.622-.109.108 7.945zm278.672 15.236l-120.83.109V25.14h120.721l.109 12.951zm-127.688.109H862.902V25.14h143.908l.109 13.06zm-150.984-.218c-2.394.762-109.509.218-123.987.218-5.007 0-13.062.435-17.634-.109v-12.95l141.621-.11v12.951zm283.244 14.04l-9.253.108c-.109-2.285.436-5.441-.653-6.965h9.906v6.857zm-116.04.108c-.11-2.285.326-5.441-.654-6.965h96.447c-1.089 1.415-.545 4.68-.653 6.965h-95.14zm-109.074 0c-.11-2.394.326-5.332-.654-6.965h98.733c-1.089 1.415-.544 4.68-.653 6.965h-97.426zm-106.788 0c-.218-2.503.326-5.223-.653-6.965h96.446c-1.088 1.415-.544 4.68-.653 6.965h-95.14zm-106.788 0c-.218-2.611.326-5.115-.653-6.965h96.446c-1.088 1.306-.544 4.68-.653 6.857l-95.14.108zm-109.183 0c-.217-2.611.327-5.115-.653-6.965h98.733c-1.089 1.306-.545 4.68-.654 6.857l-97.426.108zm529.259 239.104c0-80.644-.327-161.833 0-242.368V47.56h5.334c-1.307 1.523-.654 11.427-.654 14.365v107.091c0 40.703.436 81.515 0 122.218h-4.68zm-106.788 0V47.451h5.334c-1.198 1.197-.653 12.08-.653 14.366v107.09c0 40.703.326 81.515 0 122.218l-4.681.11zm-109.074 0V47.56h5.334c-1.089 1.197-.653 12.08-.653 14.365v107.091c0 40.703.435 81.515 0 122.218h-4.681zm-106.788 0v-185.45c.218-19.371-.326-39.179 0-58.224h5.334c-1.197 1.088-.544 12.08-.544 14.365v107.091c0 40.703.435 81.515 0 122.11l-4.79.108zM691.236 61.381l-.109-13.93 5.334.109c-1.415 1.414-.326 10.883-.653 13.821h-4.572zm-109.182 0l-.11-13.93 5.335.109c-1.524 1.523-.327 10.883-.762 13.821h-4.463zm536.225-4.68h-53.34c-.109-1.414 0-1.306-.544-2.285l53.884-.109v2.394zm13.933 0l-2.286.11-.109-1.307v-1.088l2.395.109V56.7zm-120.721-1.197l-.11 1.197h-97.316l-.11-2.394h97.536v1.197zm-109.183 1.197H807.277l-.11-2.394h95.25l-.109 2.394zm-106.788 0l-95.14.11-.109-2.395h95.25v2.285zm-106.788 0l-97.426.11-.109-1.307v-1.088h97.535v2.285zm104.502 4.68h-92.636l-.218-2.394h92.963l-.109 2.394zm-106.788 0h-95.03l-.11-1.197v-1.197h95.25l-.11 2.394zm427.26 116.124h-90.568V86.957h40.93c1.742-1.524.653-6.748.871-9.251h17.526c6.314 0 11.103 1.306 12.518-4.897 1.742-7.619-19.267-2.939-30.044-4.354l-.109-9.033c2.395-.762 42.78-.326 48.768-.217l.109 118.3zm-34.289-106.873c3.483 0 11.103-.762 13.28.87-.653 2.068-3.265 1.524-5.66 1.524h-22.207v-2.394h14.587zM700.489 86.957v-9.36c22.75-.218 46.046.218 69.015 0h12.736c-1.198 2.286-.327 6.421-.653 9.36h-81.098zm-58.238-9.469c-.436.653-.87.436-1.96.436-7.837 0-34.071.326-37.337-.11l-.218-2.393c2.395-.653 29.936-.11 37.229-.218 1.742 0 1.633-.109 2.504.326l-.218 1.96zm380.996-20.569c.436-.762 3.375-.326 4.246-.326 7.62 0 27.976-.327 32.656.108.545 1.633.436 22.746.218 25.576-3.048.435-35.922.435-37.337-.218-.327-5.55 0-15.78 0-22.31v-2.286c.108-.653-.11-.109.217-.544zM793.234 86.957h-9.252V79.99l9.361-.108-.109 7.074zm-97.426 0l-4.79.109-.108-9.469h4.79l.108 9.36zm-9.253.109c-3.156.108-19.05.435-21.009-.11v-9.141c2.177-.544 17.853-.327 21.01-.109v9.36zm-23.295-.11l-4.572.11v-9.251h4.572v9.142zm-20.9 4.68h-39.406V80.1l39.406-.217v11.753zm150.874 11.537h-4.68V91.636l4.68-.108v11.645zm-129.974 7.291l-4.68-.435V96.207h4.68v14.257zm-20.9-.435l-2.068.327h-2.395c-7.076 0-31.786.435-34.943-.11-.653-1.414-.544-10.12-.109-11.753 2.613-.653 29.609-.109 37.011-.218l2.286.218c.109 0 .218.109.218.109v11.427zm20.791 3.374c-.544 1.85-2.503 1.415-4.572 1.415v-2.395c1.85 0 3.484-.326 4.572.98zm-20.791 15.345h-39.406v-11.536l39.406-.218v11.754zm-.11 16.107c-1.196.653-18.07.327-19.375.327-4.79 0-15.893.544-19.921-.11-.544-1.414-.436-7.726-.109-9.359 2.177-.544 38.209-.435 39.515.11v8.706c0 .109-.11.217-.11.217.11 0 0 .11 0 .11zm21.01 9.795l-4.572-.326v-34.827c2.613 0 2.722.218 4.572-.87v36.023zm-.109 3.265c-1.088 1.306-2.721.98-4.572.98l-.109-2.395c2.178.11 4.137-.326 4.681 1.415zm-20.791 5.66h-39.406v-11.428l39.406-.109v11.536zm366.845 12.406v1.524h-95.14V59.095h95.14v116.886zm-109.183 1.524h-1.415.98H807.168V59.095h92.854v118.41zm-106.897-71.938c.436 3.047.218 63.775.11 71.938H700.38V96.207h83.602c0 11.428-1.96 9.033 9.143 9.36zm-106.679 71.829l-21.009.109V96.098h21.01v81.298zm-23.186 0l-4.68.109v-14.04c2.72 0 2.503.11 4.571-.87l.11 14.801zm-21.01 4.571c-1.196.653-18.07.326-19.375.326-4.79 0-15.785.545-19.921-.108-.544-1.524-.436-10.013-.109-11.754 2.286-.653 38.1-.544 39.515.109l.109 10.883c-.11.544 0 .326-.218.544zm.11 16.434h-39.406v-9.142c2.939-.653 15.675-.218 19.594-.218h19.812v9.36zm20.9 7.291l-4.463-.435-.109-20.896h4.572v21.331zm0 3.156c-.98 1.524-2.395 1.198-4.463 1.198l-.109-2.395c2.177 0 3.701-.326 4.572 1.197zm-21.01 5.66c-.979.544-3.156.326-4.353.326-6.858 0-32.113.436-34.943-.109-.544-1.414-.436-7.727-.109-9.36 2.286-.543 37.99-.435 39.515.11v8.706c0 .109-.11.218-.11.218.11 0 0 0 0 .109zm.11 18.719h-39.406V221.69l39.406-.11v11.646zm20.9 14.148l-4.463-.327-.218-1.414v-29.82l.11-1.306c2.83 0 2.285 0 4.571-.871v33.738zm0 2.938c-.653 1.85-2.612 1.415-4.68 1.415v-2.394c2.285 0 3.374-.218 4.68.98zm-21.01 1.306c-.652.871-8.272.327-9.36.327-6.097 0-26.78.435-29.936-.109-.436-1.524-.436-10.012-.109-11.754 2.613-.653 29.609-.109 37.011-.217l2.395.326v11.427zm150.984 14.04c-2.503.109-9.47-.653-11.103.435-.327.218-.544-.544-.544 2.285 0 2.504-.218 6.857.326 8.816h-81.642V184.36h92.854l.11 81.298zm-150.874 2.394h-39.406v-9.142l39.406-.218v9.36zm-43.87.109c-1.523.435-3.374.435-4.789.109-.762-2.068-.218-157.698-.218-180.552 0-3.592-.326-8.816.11-12.19 1.306-.653 3.374-.544 4.789-.108l.109 192.74zm190.281 6.747c-1.415.545-3.374.436-4.898.11-.436-1.742-.545-5.66.109-7.184l5.333-.109c.327 1.524.11.11-.435.762v-.109l-.109 6.53zm-137.158-2.285h-4.681V75.42l4.572-.11.109 197.313zm141.621 2.394h-2.177l-.109-4.57 2.395-.11-.109 4.68zm-106.788 2.177l-21.009.109V184.47h20.9l.11 92.725zm-23.186 0l-4.68.109.108-20.896c2.613 0 2.722.109 4.572-.87v21.657zm450.12-92.725c.762.435.544 1.088.544 2.286-.109 12.95.327 87.5-.109 90.548-1.197.435-73.042.544-87.846.326l-1.96-.109c-.544-.108-.435-.108-.762-.326V184.47h90.133zm-199.207 92.834c-.544-1.96-.217-61.926-.217-69.544 0-7.183-.545-16.434.109-23.399h95.03c.545 6.313.11 37.547.11 46.58 0 6.204.435 43.642-.218 46.363h-94.814zm-106.787 0c-.762-2.286-.218-58.878-.218-69.544 0-7.074-.544-16.542.109-23.399h92.745c.544 6.639.109 37.33.109 46.58 0 6.204.435 43.642-.218 46.363h-92.527zm-111.578 0l-1.306.109h-3.157l-.109-180.988h4.681l-.109 180.879zm420.185 11.318c-1.089.436-88.065.762-90.678.11v-9.034l90.569-.109.109 9.033zm-106.788-.109v.436c-4.463 0-90.895.435-92.963-.218v-8.924l92.745-.109.218 8.815zm-109.074.327c-4.137.109-88.391.435-90.568-.218v-9.033l90.46-.109.108 9.36zm-106.788 0c-14.695.544-30.48 0-45.284 0-5.443 0-43.434.326-45.393-.218v-4.353l90.46-.109.217 4.68zm-106.788 0c-7.51.326-15.675 0-23.186 0-7.729 0-67.6.435-69.777-.218v-4.353l92.854-.109.11 4.68zm9.253 2.285l-4.68.11.108-6.966h4.572v6.856zm-109.183 0l-4.68.11v-6.966h4.572l.108 6.856zm589.783 23.508c0 2.503-.436 3.483-2.395 4.136v-24.923c0-1.741.109-2.068-.653-2.503 2.177.109 3.048 1.85 3.048 4.136v19.154zm-27.976-18.828h-2.395v-2.285l2.395-.11v2.395zm20.138 2.177c1.85.653.109-.11.871.98-1.742-.654-.218.217-.87-.98zm-20.03 13.93c-1.306.87-8.272.436-9.361.218l-.109-13.386 9.47-.653v4.68c-4.68.108-4.571-.545-4.571 3.482 0 4.136-.11 3.483 4.463 3.483l.109 2.176zm4.573-11.427v-2.286l12.191-.108-.653 2.285-11.538.109zm-16.22 6.856l-13.825.11-.109-6.966h13.934v6.856zm-518.046 9.251h-20.465v-9.033h20.465v9.033zm550.594-.653c.762.98.435.762 2.068.762l.11 2.394h-21.01v-1.85c.87-1.524 2.286.327 2.286-2.612 0-1.632-.218-3.265.109-4.897h11.43c.762 4.135-1.416 6.856 2.177 6.965 1.741.109 2.068 0 2.83-.762zm-21.118 2.938c-.218.327.544.218-.98.327-.435 0-.87-.109-1.197-.109-.545-1.415-.436-3.374-.11-4.788h2.505l.108 3.7c-.108.87.11-.109-.108.544l-.218.326zm-396.78 2.504H721.28v-11.645l30.262-.11v11.755zm-127.689-.11l-.98.11h-1.415v-13.93h2.395v13.82zm510.97 9.36c-.435-.326-.435.436-.435-2.394v-2.72c0-3.375-.217-13.931.11-15.89l2.394-.218c.109.435.544 17.849.218 20.134-.218 1.197 0 .544-.436 1.088h-1.85zm-538.946 2.286l-4.572.217c-.217-3.047-.326-23.943.218-25.684h4.354v25.467zm224.026-20.787c-.762.87-1.524 1.741-2.177 2.612h-64.552v-3.592c.327.436.653.762 1.415.98h65.314zm177.218 0c-.762.87-1.415 1.632-2.177 2.503-36.032 0-71.954 0-107.986.109-.653-.87-1.415-1.741-2.177-2.612h112.34zm56.823-7.074c-1.089-.762-2.286-1.415-3.484-2.068h68.906v2.068h-65.422zm-177.218 0c-1.197-.762-2.395-1.524-3.701-2.177 43.978 0 92.963 0 135.743.109-1.197.653-2.394 1.415-3.592 2.177l-128.45-.11zm-297.068-13.822c.326 2.721-.11 2.286 5.769 2.286 1.306 0 2.721.108 4.028.108 1.96-.108 1.741-.544 1.96-2.285h97.425c.218 1.741-.109 2.177 1.742 2.285l8.055.11c1.96-.11 1.742-.545 1.96-2.286h95.031c.327 2.72-.109 2.176 5.77 2.285 1.306 0 2.72.11 4.027.11 1.96-.11 1.742-.436 1.96-2.286h95.031c.327 2.83 0 2.285 5.77 2.285 5.769 0 5.66.762 6.095-2.285h97.318c.326 2.72 0 2.285 5.769 2.285 5.66 0 5.66.762 5.987-2.285h95.031l.327 1.959 2.068.326v14.257c.11.327.11.87.436 1.633 2.721.653 8.055.108 11.103.326l.109 2.286h-70.103c.762.761 1.415 1.632 2.177 2.503h67.817c0 2.176-.544 17.304.327 18.066.98.87 5.551.326 7.075 0V314.85h4.354v6.312c.654.326.98.653 1.96.653h25.799c3.265 0 7.402-1.633 7.402-5.333v-21.766c0-2.939-2.613-5.66-5.66-5.66-9.253 0-10.995-.979-10.995 1.96l-16.11.326c-3.375 0-2.287 1.306-2.287 4.353h-20.791v-1.85c5.007 0 7.075 1.088 7.075-2.394.98 0 3.593.435 4.355-.327.87-.87.326-11.645.326-13.712.98 0 2.395 0 2.395-1.306 0-7.619.762-9.904-.87-10.557h-1.416v-.218h-.109V161.18h.11v-5.006h-.11v-36.459h.11v-5.333h-.11V82.603h.11v-5.332h-.11V54.525c1.524 0 2.83.109 3.92.109h1.088c1.415 0 2.068-.327 2.068-1.415V33.738h.327v-5.006h-.327c0-5.224.653-16.76-.327-20.787-.762-.218-6.966-1.197-6.531.653l-.109 1.632-91.548-.217h-29.282c0-1.415-.218-2.395-1.96-2.395-2.612 0-5.007-.87-5.007 2.395h-25.146V8.38c2.94-.109 2.504-2.72 1.96-4.68-2.722-1.306-10.45-.653-13.716-.653 0-1.197-.109-1.959-1.306-1.959-5.008 0-5.987-.98-5.987 1.96h-55.19c-.11-1.089-.218-1.198-.654-1.96-5.66 0-6.749-.98-6.749 1.96h-9.035c-1.197 0-1.306.217-2.395.326l-.326 4.353c.87.435.98.653 2.395.653v1.633h-28.085c0-1.633-.653-2.395-2.395-2.395-2.613 0-5.007-.87-5.007 2.395H714.53c0-1.96-.217-1.089-.98-2.395-1.959 0-4.136-.109-5.986.327-.218.762-.327.98-.327 1.959H572.365V14.8l134.982-.109c.544 1.415.544 6.64.109 8.163-2.613.653-114.19.217-126.056.217-2.286 0-5.66.11-9.035.218v1.959l134.982-.109.109 12.842c-2.286.653-114.408.218-126.056.218-2.068 0-5.551.109-9.035.218v2.176h566.814v2.177c-2.83.653-77.832.218-82.84.218H572.365v2.285h7.947c-1.089 1.306-.544 4.68-.653 6.856h-7.294v2.286h7.403l-.11 2.394h-7.293v2.286h5.008l-.11 2.394h-5.007v2.285h220.76l.11 2.395h-220.87v2.285h220.87l.108 2.395H572.256v4.68h16.547l.108 2.285h-16.655V80.1h16.547v11.645h-16.655v6.966h16.655v11.536l-1.307.109h-15.348v6.856h16.546v11.645h-16.655v6.639c6.967-.11 13.933-.11 16.655.217.435 1.742.544 7.945-.11 9.469-3.483.217-9.687.326-16.545.217v6.64h16.655v11.535h-16.655v6.64c7.51 0 14.586 0 16.655.217.544 1.85.653 10.23-.11 11.862-3.591.218-9.796.327-16.545.218v6.639h16.546v9.25H571.93v6.64c7.402 0 14.369 0 16.655.217.435 1.741.544 7.945-.109 9.468-3.375.218-9.688.327-16.546.218v7.51l16.655-.762v11.427l-1.306.109h-15.35v6.53c7.62 0 14.479 0 16.656.217.435 1.742.544 10.34-.109 11.863-2.94.218-9.47.218-16.546.218v6.638h16.546v9.251h-16.655v16.216h4.899l.108 4.68c-1.632 0-3.374.109-5.116.109v2.285h7.947zm9.035 16.325v26.446c0 2.177 3.483 1.306 7.075 1.306 0 1.415-.435 8.271.327 9.033.653.653 4.68.98 4.68-.98 0-4.135.545-11.318-.326-15.018-.762-.218-.98-.327-1.96-.327v-6.312h20.466c0 1.96.217 1.088.98 2.394 2.068 0 4.571.327 6.313-.653v-15.78h64.552c0 3.7-.436 7.836.326 11.427 3.701.87 22.534.327 27.759.327v3.373h34.398v-14.8h-33.528v8.815h-26.125c-.544-1.96-.218-9.142-.218-11.645h134.655c1.198-.762 2.395-1.524 3.701-2.177H692.433c-1.523.218-1.197.544-1.306 2.286H572.365v2.394h16.329v-.109z"/>
            <path d="M877.054 100.887c8.273-.109 11.43.544 11.43-8.489 0-3.809.544-16.869-.218-19.698-1.415-5.66-9.035-4.354-15.349-4.354h-39.515c-6.422 0-13.607-1.306-14.478 5.116-.653 5.006-.109 14.039-.109 19.48 0 8.38 3.81 7.836 11.43 7.836l.545 2.068c1.415.435 3.048.327 4.572.218 2.394-.109 1.632-.327 2.068-2.286h32.221l.545 2.068c1.415.327 3.156.327 4.572.218 2.394 0 1.741-.327 2.286-2.177m-.11-4.68c-.544-2.067.218-2.176-2.285-2.285-1.415 0-2.83-.109-4.355.218l-.435 2.176h-32.33c-.545-2.83-.218-2.394-3.701-2.394-3.266 0-2.94-.435-3.484 2.394-8.6 0-6.858.544-6.858-19.698 0-2.721 1.307-3.592 3.92-3.592h52.577c2.939 0 3.918 1.089 3.918 3.918-.108 18.828 1.742 19.699-6.966 19.263m-51.272 2.286c-3.156.218-4.898-1.197-4.463-4.462.436 2.394 2.177 3.809 4.463 4.462m60.524-3.374c-.217 2.612-1.741 3.592-4.463 3.374 2.83-.87 2.83-1.96 4.463-3.374M939.863 102.955c1.742.435 4.572.435 6.205 0l.653-2.068h32.222l.544 2.068c1.415.326 2.94.218 4.354.218 2.177-.11 2.177-.218 2.177-2.286 8.056-.217 11.648 1.088 11.648-8.598 0-3.917.435-16.76-.218-19.698-1.415-5.66-8.926-4.353-15.348-4.353H942.91c-6.53 0-13.715-1.306-14.804 4.788-.762 4.027-.218 14.801-.218 19.59 0 8.815 3.484 8.054 11.539 8.162l.435 2.177zm46.155-6.748c-.544-1.74.327-2.176-1.959-2.285-1.524-.109-3.157-.109-4.572.218l-.544 2.067H946.72c-.435-2.72-.217-2.285-3.374-2.394-3.048 0-3.592-.544-3.592 2.286-9.144.544-7.076-1.524-7.076-16.216 0-9.251-1.197-6.966 30.697-6.966H978.4c3.265 0 12.191-.87 13.933 1.089 1.306 1.415.762 11.427.762 14.257-.109 6.747.544 8.597-7.076 7.944zm-51.27 2.286c-3.049.218-4.573-.98-4.573-4.027l.98 1.524c.762 1.306 1.96 2.068 3.592 2.503zm60.523-3.374c-.217 2.612-1.741 3.592-4.463 3.374 3.048-.98 2.83-2.068 4.463-3.374zM793.234 66.061H572.365v-2.394h220.76zM985.365 205.692c-2.395-.762-26.234-.326-30.806-.326-4.572 0-11.43-.436-15.784 0-5.987.653-3.919 6.856-1.089 8.598 2.286 1.414 25.908.653 30.589.653 3.81 0 12.41.435 15.675-.11 3.266-.543 6.858-7.073 1.415-8.815m-48.114 3.156c.87-1.959 7.838-1.197 11.321-1.197h32.113c2.285 0 4.354-.435 5.225 1.197-1.198 1.85-7.62 1.198-11.321 1.198h-32.113c-2.286 0-4.245.326-5.225-1.198M876.074 154.65c-2.722-.87-26.126-.326-31.024-.326-4.137 0-11.865-.436-15.675.108-5.879.871-3.375 7.183-.545 8.707 1.198.653 44.849.653 46.373.218 1.633-.436 3.048-2.612 3.592-4.354.98-2.72-.762-3.809-2.721-4.353m-47.897 3.265c.544-1.85 2.83-1.415 4.899-1.415h38.535c2.177 0 4.572-.544 5.225 1.415-1.415 1.633-9.144.98-11.539.98h-31.786c-2.068 0-4.245.435-5.334-.98M769.504 205.692c-2.395-.762-26.561-.326-31.242-.326-4.028 0-12.083-.436-15.784.109-5.878.87-3.157 7.183-.544 8.597 1.415.762 45.175.762 46.699.327 2.721-.762 6.205-6.965.87-8.707m-48.223 3.156c.327-.761.436-.98 1.742-1.197h41.692c2.286 0 4.463-.435 5.225 1.197-1.088 1.85-7.62 1.198-11.212 1.198h-32.113c-2.286 0-4.354.326-5.334-1.198M1092.262 205.692c-2.395-.762-26.56-.326-31.242-.326-4.136 0-12.083-.436-15.784.109-5.551.761-3.592 6.965-.544 8.597 1.633.871 45.175.762 46.7.327 2.938-.98 5.877-7.074.87-8.707m-48.223 3.156c.98-1.959 7.729-1.197 11.32-1.197h32.113c2.286 0 4.463-.435 5.225 1.197-.98 1.524-2.721 1.198-4.898 1.198h-38.535c-2.286 0-4.246.326-5.225-1.198M769.068 154.541c-1.306-.326-44.522-.435-46.59-.109-5.878.98-2.94 7.51-.109 8.816 1.197.544 45.066.544 46.373.109 2.83-1.197 6.096-7.4.326-8.816m-47.679 3.374c.545-1.85 2.83-1.415 4.899-1.415h38.535c2.177 0 4.572-.544 5.225 1.415-1.089 1.415-3.266.98-5.225.98h-38.209c-1.959 0-4.136.435-5.225-.98M1091.718 154.541c-1.524-.435-44.631-.435-46.7-.109-5.551 1.089-3.048 7.401 0 8.816 1.089.544 45.067.544 46.373.109 2.83-1.089 6.205-7.4.327-8.816m-47.68 3.374c.545-1.85 2.831-1.415 4.9-1.415h38.534c2.286 0 4.572-.544 5.334 1.415-1.633 1.633-8.6.87-11.647.87h-31.786c-2.069.11-4.137.545-5.334-.87M875.747 110.356c-1.633-.436-44.413-.436-46.481-.11-5.77 1.089-3.048 7.401-.11 8.707 1.198.544 45.176.653 46.482.11 2.613-.98 6.096-7.184.11-8.707m-47.57 3.047c1.088-1.415 3.374-.98 5.224-.98h38.209c1.96 0 4.027-.435 5.225.98-.544 1.85-2.83 1.415-4.899 1.415h-38.535c-2.177 0-4.68.544-5.225-1.415M768.96 110.356c-1.742-.436-44.305-.545-46.482-.11-5.77 1.089-3.048 7.51-.109 8.816 1.197.544 45.284.544 46.482.109 1.741-.653 6.857-7.074.108-8.815zm-10.56 2.067c2.613 0 10.124-.761 11.54.98-.545 1.85-2.722 1.415-4.9 1.415h-38.534c-2.178 0-4.681.544-5.226-1.415 1.089-1.415 3.375-.98 5.226-.98H758.4zM1091.609 110.356c-1.742-.436-44.413-.436-46.482-.11-5.66 1.089-3.048 7.401-.109 8.707 1.307.544 45.285.544 46.482.11 2.613-.763 6.314-7.184.109-8.707m-47.57 3.047c1.415-1.633 9.253-.98 11.647-.98h25.473c2.939 0 10.014-.653 11.647.871-.653 1.959-2.721 1.524-5.007 1.524h-38.535c-2.177 0-4.681.544-5.225-1.415M935.074 159.003c1.633 5.55 4.79 4.571 10.777 4.571 4.027 0 37.446.327 38.752-.217 1.415-.544 3.157-2.83 3.484-4.68.98-5.442-7.076-4.353-11.104-4.353-4.354 0-37.12-.218-38.97.217-2.068.436-3.701 1.96-2.94 4.462m2.178-1.088c.544-1.85 2.83-1.415 4.898-1.415h38.536c2.177 0 4.68-.544 5.225 1.415-1.524 1.633-9.144.98-11.54.98h-31.785c-2.068 0-4.137.435-5.334-.98M1091.609 247.375c-1.633-.435-44.305-.544-46.482-.109-5.878 1.088-2.939 7.727 0 8.815.762.327 44.849.762 46.59-.108 2.722-1.198 5.879-7.183-.108-8.598zm-10.56 1.959c3.266 0 9.689-.653 11.648.87-.544 1.96-2.721 1.524-5.007 1.524h-38.535c-2.286 0-4.68.544-5.334-1.523 1.96-1.633 8.382-.871 11.648-.871h25.58zM935.074 114.818c1.741 5.55 4.68 4.68 10.777 4.68 4.027 0 37.446.326 38.861-.218 1.306-.436 3.157-2.939 3.375-4.789.87-5.333-7.185-4.244-11.104-4.244-4.572 0-36.902-.218-38.861.217-2.068.327-3.81 1.96-3.048 4.354m2.177-1.415c1.415-1.633 9.253-.98 11.648-.98h25.363c2.721 0 10.015-.761 11.539.98-.545 1.85-2.83 1.415-4.899 1.415h-38.535c-2.068 0-4.572.544-5.116-1.415M984.821 247.375c-1.524-.435-44.304-.544-46.482-.109-5.769 1.088-3.047 7.51-.217 8.707 1.197.544 45.175.653 46.59.108 2.722-1.088 6.205-7.182.109-8.706zm-10.559 1.959c3.266 0 9.688-.762 11.648.98-.654 1.958-2.83 1.414-4.899 1.414h-38.535c-2.286 0-4.79.544-5.334-1.523 2.068-1.524 8.49-.871 11.648-.871h25.472zM772.334 250.966c.435-4.897-7.729-3.809-11.539-3.809-4.463 0-36.902-.326-38.753.218-2.068.544-3.483 2.177-2.721 4.68 1.742 5.55 5.334 4.353 11.43 4.353h31.46c2.068 0 5.551.435 7.184-.435.98-.762 2.721-2.939 2.939-5.007zm-13.934-1.632c3.048 0 9.906-.762 11.648.98-.653 1.958-2.83 1.414-4.899 1.414h-38.535c-2.286 0-4.68.544-5.334-1.523 1.851-1.524 8.6-.871 11.648-.871H758.4z"/>
            <path d="M857.35 75.53c-6.857-.762-17.852.87-21.118 4.897-2.72 3.591-.762 6.965 2.504 8.489 3.048 1.414 7.185 2.176 10.886 2.503 6.313.544 18.94-.653 21.662-4.68 2.504-3.7-.544-7.074-3.266-8.489-2.939-1.524-6.749-2.176-10.667-2.72m12.518 9.141c-2.721 6.204-30.153 6.095-32.548 0 2.068-6.312 30.153-6.312 32.548 0M944.435 85.65c1.742 5.116 14.26 6.095 20.574 5.878 6.096-.11 19.377-2.177 15.893-9.795-4.572-9.795-40.712-8.054-36.467 3.918m34.617-.98c-2.613 6.204-30.262 6.312-32.548 0 2.068-6.312 30.153-6.312 32.548 0M598.382 75.312c-1.415-.436-3.483-.544-4.79.109-.435 3.373-.109 8.597-.109 12.189 0 22.854-.435 178.484.218 180.552 1.415.326 3.266.435 4.79-.109l-.11-192.741zm-.218 192.632h-4.354V75.421h4.354v192.523zM707.02 15.128H572.365V14.8l134.982-.109c.544 1.415.544 6.64.109 8.163-2.613.653-114.19.217-126.056.217-2.286 0-5.66.11-9.035.218v-.544h134.982l-.327-7.618zM589.02 77.597h-16.655v-2.176l16.546-.11zM1023.138 277.086l90.35.109-.217-92.725c.762.435.544 1.088.544 2.286-.108 12.95.327 87.5-.108 90.548-1.198.435-73.043.544-87.847.326l-1.96-.109c-.544-.217-.544-.217-.762-.435M1023.247 56.92c-.326.326-.109-.219-.326.652v2.286c0 6.53-.218 16.76 0 22.31 1.415.653 34.29.653 37.337.109.218-2.939.436-24.052-.217-25.576-4.681-.435-25.037-.108-32.657-.108-.653 0-3.701-.436-4.137.326zm36.902.108l.11 25.14h-36.794l-.109-25.14h36.793zM572.365 181.858h16.438l.108-11.318h-16.546v-.545c7.511 0 14.587 0 16.655.218.545 1.85.653 10.23-.109 11.863-3.592.217-9.797.326-16.546.217v-.435zM572.365 251.51h16.438l.108-11.318h-16.546v-.544c7.62 0 14.478 0 16.655.218.436 1.74.545 10.339-.109 11.862-2.939.218-9.47.218-16.546.218v-.435zM572.365 144.746h16.546v-9.033h-16.546v-.544c6.967-.109 13.934-.109 16.655.218.436 1.741.545 7.945-.109 9.468-3.483.218-9.688.327-16.546.218v-.327zM572.365 214.399h16.546v-9.033h-16.546v-.544c7.403 0 14.37 0 16.655.217.436 1.742.545 7.945-.109 9.469-3.374.217-9.688.326-16.546.217v-.326zM642.25 181.967c.219-.218.219 0 .327-.653l-.108-10.883c-1.524-.544-37.23-.653-39.515-.11-.436 1.742-.436 10.231.109 11.755 4.136.762 15.022.109 19.92.109 1.198.108 18.07.544 19.268-.218zm-39.187 0v-11.319h39.188v11.428l-39.188-.109zM642.25 214.508c0-.11.11-.11.11-.218 0 0 .109-.109.109-.218v-8.706c-1.524-.544-37.23-.544-39.515-.109-.327 1.632-.436 7.945.109 9.36 2.83.544 28.085.108 34.943.108 1.088.11 3.265.327 4.245-.217zm-39.187 0v-9.033h39.188v9.033h-39.188zM642.25 251.62c-.652.87-8.272.326-9.36.326-6.097 0-26.78.435-29.936-.109-.436-1.524-.436-10.012-.109-11.754 2.613-.653 29.609-.109 37.011-.217l2.395.326h-39.188v11.319h39.188v.108zM642.25 144.855c0-.109.11-.109.11-.217 0 0 .109-.11.109-.218v-8.707c-1.415-.544-37.338-.544-39.515-.108-.327 1.632-.436 7.944.109 9.36 4.027.652 15.13.108 19.92.108 1.089.109 18.07.435 19.268-.218zm-39.187 0v-9.033h39.08v9.142l-39.08-.109zM642.36 110.03l-2.068.326h-2.395c-7.076 0-31.786.435-34.943-.11-.653-1.414-.544-10.12-.109-11.753 2.613-.653 29.609-.109 37.011-.218l2.286.218c.109 0 .218.109.218.109h-39.297l.109 11.318h39.188v.11zM642.25 77.488c-.435.653-.87.436-1.958.436-7.838 0-34.072.326-37.338-.11l-.218-2.393c2.395-.653 29.936-.11 37.229-.218 1.742 0 1.633-.109 2.504.326h-39.406v1.96h39.188zM623.854 321.272l-.98.217-1.415-.108-.108-13.93h2.503zM686.555 77.597c-3.156-.109-18.832-.435-21.009.109v9.142c1.96.544 17.961.326 21.01.109v-9.36zm-.326 9.033h-20.247l.108-8.815h20.139v8.815zM1136.675 330.74l.11-20.896h-2.07l.11 20.787c-.436-.326-.436.436-.436-2.394v-2.72c0-3.375-.217-13.931.11-15.89l2.394-.218c.109.435.544 17.849.218 20.134-.218 1.306-.11.762-.436 1.197M793.234 275.018h-2.177l-.218-4.68h2.395zM663.26 250.313c-.653 1.85-2.612 1.415-4.68 1.415v-2.394c2.285 0 3.374-.218 4.68.98M663.151 113.403c-.544 1.85-2.503 1.415-4.572 1.415v-2.395c1.85 0 3.484-.326 4.572.98M663.151 157.915c-1.088 1.306-2.721.98-4.572.98l-.109-2.395c2.178.11 4.137-.326 4.681 1.415M695.808 77.597h-4.79l.11 9.469 4.789-.11-.109-9.359zm-.435 9.033h-4.028v-8.815h4.028v8.815zM663.26 208.848c-.98 1.524-2.395 1.198-4.463 1.198l-.109-2.395c2.177 0 3.701-.326 4.572 1.197M788.88 268.597c-.87-.762-3.592-.435-4.79-.435v6.639l4.355-.11.109-5.659c0-.108.108-.108.108-.326 0-.109.11-.109.218-.109l-.109 6.312c-1.415.545-3.374.436-4.898.11-.436-1.742-.545-5.66.109-7.184l5.333-.109c.218 1.633.11.218-.435.871M1148.54 311.912c-1.306.87-8.272.436-9.361.218l-.109-13.386c.218.326.218.217.327.761v12.516l9.144-.109zM1132.212 56.701l-2.286.11-.109-1.307.11-1.088h2.285zM825.673 98.493c-3.156.218-4.898-1.197-4.463-4.462.436 2.394 2.177 3.809 4.463 4.462M934.747 98.493c-3.048.218-4.572-.98-4.572-4.027l.98 1.524c.762 1.306 1.96 2.068 3.592 2.503M990.808 98.493c3.048-1.088 2.83-2.177 4.463-3.374-.217 2.612-1.741 3.592-4.463 3.374M881.625 98.493c2.94-.98 2.83-2.068 4.464-3.374-.11 2.612-1.742 3.592-4.464 3.374M1169.441 298.961c-1.742-.762-.218.218-.87-.98 1.85.654.217-.108.87.98M874.332 205.692c-2.395-.762-26.56-.326-31.242-.326-4.136 0-12.083-.436-15.784.109-5.551.761-3.592 6.965-.544 8.597 1.633.871 45.175.762 46.7.327 3.047-.98 5.877-7.074.87-8.707m-48.223 3.156c.98-1.959 7.729-1.197 11.32-1.197h32.113c2.178 0 4.464-.435 5.226 1.197-.98 1.524-2.722 1.198-4.899 1.198h-38.535c-2.286 0-4.137.326-5.225-1.198M873.788 247.375c-1.633-.435-44.305-.544-46.482-.109-5.878 1.088-2.939 7.727 0 8.815.762.327 44.849.762 46.59-.108 2.722-1.198 5.77-7.183-.108-8.598zm-10.56 1.959c3.266 0 9.689-.653 11.648.87-.544 1.96-2.721 1.524-5.007 1.524h-38.535c-2.286 0-4.68.544-5.334-1.523 1.96-1.633 8.382-.871 11.648-.871h25.58z"/>
        </g>
        <g stroke="#9B9B9B" transform="translate(729.336 289.493)">
            <path fill="#FFF" fill-rule="nonzero" d="M.327 7.292h107.659V23.29H.327z"/>
            <path stroke-linecap="round" stroke-linejoin="round" stroke-width="1.417" d="M.327 7.292h107.659V23.29H.327z"/>
            <path fill="#FFF" fill-rule="nonzero" d="M41.583.435H380.67v20.569H41.583z"/>
            <path stroke-linecap="round" stroke-linejoin="round" stroke-width="1.417" d="M41.583.435H380.67v20.569H41.583z"/>
            <path fill="#FFF" fill-rule="nonzero" d="M289.013 27.861L245.47 71.394h-64.116l-41.256-41.248V9.577h148.915z"/>
            <path stroke-linecap="round" stroke-linejoin="round" stroke-width="1.417" d="M289.013 27.861L245.47 71.394h-64.116l-41.256-41.248V9.577h148.915z"/>
            <ellipse cx="126.382" cy="48.539" fill="#FFF" fill-rule="nonzero" rx="43.542" ry="43.533"/>
            <ellipse cx="126.382" cy="48.539" stroke-linecap="round" stroke-linejoin="round" stroke-width="1.417" rx="43.542" ry="43.533"/>
            <ellipse cx="126.382" cy="48.539" fill="#FFF" fill-rule="nonzero" rx="38.97" ry="38.962"/>
            <ellipse cx="126.382" cy="48.539" stroke-linecap="round" stroke-linejoin="round" stroke-width="1.417" rx="38.97" ry="38.962"/>
            <ellipse cx="126.382" cy="48.539" fill="#FFF" fill-rule="nonzero" rx="34.399" ry="34.391"/>
            <ellipse cx="126.382" cy="48.539" stroke-linecap="round" stroke-linejoin="round" stroke-width="1.417" rx="34.399" ry="34.391"/>
            <path fill="#FFF" fill-rule="nonzero" d="M149.242 34.717h-25.146c-6.858 0-4.572 15.999-4.572 15.999s-13.716 0-13.716-13.713c0-9.142 9.144-11.428 13.716-11.428h29.827v9.142h-.11z"/>
            <path stroke-linecap="round" stroke-linejoin="round" stroke-width="1.417" d="M149.242 34.717h-25.146c-6.858 0-4.572 15.999-4.572 15.999s-13.716 0-13.716-13.713c0-9.142 9.144-11.428 13.716-11.428h29.827v9.142h-.11z"/>
            <path fill="#FFF" fill-rule="nonzero" d="M208.895 30.146h4.572v22.855h-4.572z"/>
            <path stroke-linecap="round" stroke-linejoin="round" stroke-width="1.417" d="M208.895 30.146h4.572v22.855h-4.572z"/>
            <path fill="#FFF" fill-rule="nonzero" d="M208.895 59.966h9.144v6.856h-9.144z"/>
            <path stroke-linecap="round" stroke-linejoin="round" stroke-width="1.417" d="M208.895 59.966h9.144v6.856h-9.144z"/>
            <path fill="#FFF" fill-rule="nonzero" d="M181.354 50.825h22.86v2.285h-22.86z"/>
            <path stroke-linecap="round" stroke-linejoin="round" stroke-width="1.417" d="M181.354 50.825h22.86v2.285h-22.86z"/>
            <path fill="#FFF" fill-rule="nonzero" d="M181.354 48.539h22.86v2.285h-22.86z"/>
            <path stroke-linecap="round" stroke-linejoin="round" stroke-width="1.417" d="M181.354 48.539h22.86v2.285h-22.86z"/>
            <path fill="#FFF" fill-rule="nonzero" d="M181.354 43.968h22.86v2.285h-22.86z"/>
            <path stroke-linecap="round" stroke-linejoin="round" stroke-width="1.417" d="M181.354 43.968h22.86v2.285h-22.86z"/>
            <path fill="#FFF" fill-rule="nonzero" d="M190.498 50.825h9.144v2.285h-9.144z"/>
            <path stroke-linecap="round" stroke-linejoin="round" stroke-width="1.417" d="M190.498 50.825h9.144v2.285h-9.144z"/>
            <path fill="#FFF" fill-rule="nonzero" d="M190.498 48.539h9.144v2.285h-9.144z"/>
            <path stroke-linecap="round" stroke-linejoin="round" stroke-width="1.417" d="M190.498 48.539h9.144v2.285h-9.144z"/>
            <path fill="#FFF" fill-rule="nonzero" d="M181.354 57.681h22.86v2.285h-22.86z"/>
            <path stroke-linecap="round" stroke-linejoin="round" stroke-width="1.417" d="M181.354 57.681h22.86v2.285h-22.86z"/>
            <path fill="#FFF" fill-rule="nonzero" d="M181.354 55.395h22.86v2.285h-22.86z"/>
            <path stroke-linecap="round" stroke-linejoin="round" stroke-width="1.417" d="M181.354 55.395h22.86v2.285h-22.86z"/>
            <path fill="#FFF" fill-rule="nonzero" d="M190.498 57.681h9.144v2.285h-9.144z"/>
            <path stroke-linecap="round" stroke-linejoin="round" stroke-width="1.417" d="M190.498 57.681h9.144v2.285h-9.144z"/>
            <path fill="#FFF" fill-rule="nonzero" d="M190.498 55.395h9.144v2.285h-9.144z"/>
            <path stroke-linecap="round" stroke-linejoin="round" stroke-width="1.417" d="M190.498 55.395h9.144v2.285h-9.144z"/>
            <path fill="#FFF" fill-rule="nonzero" d="M190.498 43.968h9.144v2.285h-9.144z"/>
            <path stroke-linecap="round" stroke-linejoin="round" stroke-width="1.417" d="M190.498 43.968h9.144v2.285h-9.144z"/>
            <path fill="#FFF" fill-rule="nonzero" d="M181.354 41.683h22.86v2.285h-22.86z"/>
            <path stroke-linecap="round" stroke-linejoin="round" stroke-width="1.417" d="M181.354 41.683h22.86v2.285h-22.86z"/>
            <path fill="#FFF" fill-rule="nonzero" d="M190.498 41.683h9.144v2.285h-9.144z"/>
            <path stroke-linecap="round" stroke-linejoin="round" stroke-width="1.417" d="M190.498 41.683h9.144v2.285h-9.144z"/>
            <path fill="#FFF" fill-rule="nonzero" d="M181.354 37.003h22.86v2.285h-22.86z"/>
            <path stroke-linecap="round" stroke-linejoin="round" stroke-width="1.417" d="M181.354 37.003h22.86v2.285h-22.86z"/>
            <path fill="#FFF" fill-rule="nonzero" d="M190.498 37.003h9.144v2.285h-9.144z"/>
            <path stroke-linecap="round" stroke-linejoin="round" stroke-width="1.417" d="M190.498 37.003h9.144v2.285h-9.144z"/>
            <path fill="#FFF" fill-rule="nonzero" d="M181.354 34.717h22.86v2.285h-22.86z"/>
            <path stroke-linecap="round" stroke-linejoin="round" stroke-width="1.417" d="M181.354 34.717h22.86v2.285h-22.86z"/>
            <path fill="#FFF" fill-rule="nonzero" d="M190.498 34.717h9.144v2.285h-9.144z"/>
            <path stroke-linecap="round" stroke-linejoin="round" stroke-width="1.417" d="M190.498 34.717h9.144v2.285h-9.144z"/>
            <path fill="#FFF" fill-rule="nonzero" d="M146.956 21.005h66.402v9.141h-25.146c-4.572 0-9.144 2.286-9.144 9.142v25.14C180.81 66.714 183.64 69 188.212 69h25.146v6.857H183.53c-6.858 0-11.43-6.857-11.43-6.857l-29.826-29.82c-11.321-11.318-9.035-18.174 4.68-18.174zm4.572 15.998l13.716 13.713c2.286 2.285 6.857 4.57 6.857-4.571v-9.142c-.108-6.421-.762-6.857-6.857-6.857h-13.716c-2.286 0-4.572 2.286 0 6.857z"/>
            <path stroke-linecap="round" stroke-linejoin="round" stroke-width="1.417" d="M146.956 21.005h66.402v9.141h-25.146c-4.572 0-9.144 2.286-9.144 9.142v25.14C180.81 66.714 183.64 69 188.212 69h25.146v6.857H183.53c-6.858 0-11.43-6.857-11.43-6.857l-29.826-29.82c-11.321-11.318-9.035-18.174 4.68-18.174zm4.572 15.998l13.716 13.713c2.286 2.285 6.857 4.57 6.857-4.571v-9.142c-.108-6.421-.762-6.857-6.857-6.857h-13.716c-2.286 0-4.572 2.286 0 6.857z"/>
            <path fill="#FFF" fill-rule="nonzero" d="M112.666 57.68c0 2.504 2.068 4.572 4.572 4.572h18.288c2.504 0 4.572-2.068 4.572-4.571V39.397c0-2.503-2.068-4.57-4.572-4.57h-18.288c-2.504 0-4.572 2.067-4.572 4.57v18.284z"/>
            <path stroke-linecap="round" stroke-linejoin="round" stroke-width="1.417" d="M112.666 57.68c0 2.504 2.068 4.572 4.572 4.572h18.288c2.504 0 4.572-2.068 4.572-4.571V39.397c0-2.503-2.068-4.57-4.572-4.57h-18.288c-2.504 0-4.572 2.067-4.572 4.57v18.284z"/>
            <ellipse cx="126.382" cy="48.539" fill="#FFF" fill-rule="nonzero" rx="11.43" ry="11.427"/>
            <ellipse cx="126.382" cy="48.539" stroke-linecap="round" stroke-linejoin="round" stroke-width="1.417" rx="11.43" ry="11.427"/>
            <ellipse cx="126.382" cy="48.539" fill="#FFF" fill-rule="nonzero" rx="9.144" ry="9.142"/>
            <ellipse cx="126.382" cy="48.539" stroke-linecap="round" stroke-linejoin="round" stroke-width="1.417" rx="9.144" ry="9.142"/>
            <ellipse cx="126.382" cy="48.539" fill="#FFF" fill-rule="nonzero" rx="4.572" ry="4.571"/>
            <ellipse cx="126.382" cy="48.539" stroke-linecap="round" stroke-linejoin="round" stroke-width="1.417" rx="4.572" ry="4.571"/>
            <ellipse cx="300.443" cy="48.539" fill="#FFF" fill-rule="nonzero" rx="43.542" ry="43.533"/>
            <ellipse cx="300.443" cy="48.539" stroke-linecap="round" stroke-linejoin="round" stroke-width="1.417" rx="43.542" ry="43.533"/>
            <ellipse cx="300.443" cy="48.539" fill="#FFF" fill-rule="nonzero" rx="38.97" ry="38.962"/>
            <ellipse cx="300.443" cy="48.539" stroke-linecap="round" stroke-linejoin="round" stroke-width="1.417" rx="38.97" ry="38.962"/>
            <ellipse cx="300.443" cy="48.539" fill="#FFF" fill-rule="nonzero" rx="34.399" ry="34.391"/>
            <ellipse cx="300.443" cy="48.539" stroke-linecap="round" stroke-linejoin="round" stroke-width="1.417" rx="34.399" ry="34.391"/>
            <path fill="#FFF" fill-rule="nonzero" d="M277.583 34.717h25.146c6.858 0 4.572 15.999 4.572 15.999s13.716 0 13.716-13.713c0-9.142-9.144-11.428-13.716-11.428h-29.718v9.142z"/>
            <path stroke-linecap="round" stroke-linejoin="round" stroke-width="1.417" d="M277.583 34.717h25.146c6.858 0 4.572 15.999 4.572 15.999s13.716 0 13.716-13.713c0-9.142-9.144-11.428-13.716-11.428h-29.718v9.142z"/>
            <path fill="#FFF" fill-rule="nonzero" d="M213.467 30.146h4.572v22.855h-4.572z"/>
            <path stroke-linecap="round" stroke-linejoin="round" stroke-width="1.417" d="M213.467 30.146h4.572v22.855h-4.572z"/>
            <path fill="#FFF" fill-rule="nonzero" d="M222.611 50.825h22.86v2.285h-22.86z"/>
            <path stroke-linecap="round" stroke-linejoin="round" stroke-width="1.417" d="M222.611 50.825h22.86v2.285h-22.86z"/>
            <path fill="#FFF" fill-rule="nonzero" d="M222.611 48.539h22.86v2.285h-22.86z"/>
            <path stroke-linecap="round" stroke-linejoin="round" stroke-width="1.417" d="M222.611 48.539h22.86v2.285h-22.86z"/>
            <path fill="#FFF" fill-rule="nonzero" d="M222.611 43.968h22.86v2.285h-22.86z"/>
            <path stroke-linecap="round" stroke-linejoin="round" stroke-width="1.417" d="M222.611 43.968h22.86v2.285h-22.86z"/>
            <path fill="#FFF" fill-rule="nonzero" d="M227.183 50.825h9.144v2.285h-9.144z"/>
            <path stroke-linecap="round" stroke-linejoin="round" stroke-width="1.417" d="M227.183 50.825h9.144v2.285h-9.144z"/>
            <path fill="#FFF" fill-rule="nonzero" d="M227.183 48.539h9.144v2.285h-9.144z"/>
            <path stroke-linecap="round" stroke-linejoin="round" stroke-width="1.417" d="M227.183 48.539h9.144v2.285h-9.144z"/>
            <path fill="#FFF" fill-rule="nonzero" d="M222.611 57.681h22.86v2.285h-22.86z"/>
            <path stroke-linecap="round" stroke-linejoin="round" stroke-width="1.417" d="M222.611 57.681h22.86v2.285h-22.86z"/>
            <path fill="#FFF" fill-rule="nonzero" d="M222.611 55.395h22.86v2.285h-22.86z"/>
            <path stroke-linecap="round" stroke-linejoin="round" stroke-width="1.417" d="M222.611 55.395h22.86v2.285h-22.86z"/>
            <path fill="#FFF" fill-rule="nonzero" d="M227.183 57.681h9.144v2.285h-9.144z"/>
            <path stroke-linecap="round" stroke-linejoin="round" stroke-width="1.417" d="M227.183 57.681h9.144v2.285h-9.144z"/>
            <path fill="#FFF" fill-rule="nonzero" d="M227.183 55.395h9.144v2.285h-9.144z"/>
            <path stroke-linecap="round" stroke-linejoin="round" stroke-width="1.417" d="M227.183 55.395h9.144v2.285h-9.144z"/>
            <path fill="#FFF" fill-rule="nonzero" d="M227.183 43.968h9.144v2.285h-9.144z"/>
            <path stroke-linecap="round" stroke-linejoin="round" stroke-width="1.417" d="M227.183 43.968h9.144v2.285h-9.144z"/>
            <path fill="#FFF" fill-rule="nonzero" d="M222.611 41.683h22.86v2.285h-22.86z"/>
            <path stroke-linecap="round" stroke-linejoin="round" stroke-width="1.417" d="M222.611 41.683h22.86v2.285h-22.86z"/>
            <path fill="#FFF" fill-rule="nonzero" d="M227.183 41.683h9.144v2.285h-9.144z"/>
            <path stroke-linecap="round" stroke-linejoin="round" stroke-width="1.417" d="M227.183 41.683h9.144v2.285h-9.144z"/>
            <path fill="#FFF" fill-rule="nonzero" d="M222.611 37.003h22.86v2.285h-22.86z"/>
            <path stroke-linecap="round" stroke-linejoin="round" stroke-width="1.417" d="M222.611 37.003h22.86v2.285h-22.86z"/>
            <path fill="#FFF" fill-rule="nonzero" d="M227.183 37.003h9.144v2.285h-9.144z"/>
            <path stroke-linecap="round" stroke-linejoin="round" stroke-width="1.417" d="M227.183 37.003h9.144v2.285h-9.144z"/>
            <path fill="#FFF" fill-rule="nonzero" d="M222.611 34.717h22.86v2.285h-22.86z"/>
            <path stroke-linecap="round" stroke-linejoin="round" stroke-width="1.417" d="M222.611 34.717h22.86v2.285h-22.86z"/>
            <path fill="#FFF" fill-rule="nonzero" d="M227.183 34.717h9.144v2.285h-9.144z"/>
            <path stroke-linecap="round" stroke-linejoin="round" stroke-width="1.417" d="M227.183 34.717h9.144v2.285h-9.144z"/>
            <path fill="#FFF" fill-rule="nonzero" d="M284.441 39.288l-29.827 29.82s-4.572 6.857-11.43 6.857h-29.826v-6.857h25.146c4.572 0 7.402-2.285 9.144-4.57v-25.14c0-6.857-4.572-9.143-9.144-9.143h-25.146v-9.142h66.402c13.825-.108 16.11 6.748 4.681 18.175zm-9.144-9.142h-13.716c-6.096 0-6.749.436-6.858 6.857v9.142c0 9.142 4.572 6.856 6.858 4.57l13.716-13.712c4.572-4.571 2.286-6.857 0-6.857z"/>
            <path stroke-linecap="round" stroke-linejoin="round" stroke-width="1.417" d="M284.441 39.288l-29.827 29.82s-4.572 6.857-11.43 6.857h-29.826v-6.857h25.146c4.572 0 7.402-2.285 9.144-4.57v-25.14c0-6.857-4.572-9.143-9.144-9.143h-25.146v-9.142h66.402c13.825-.108 16.11 6.748 4.681 18.175zm-9.144-9.142h-13.716c-6.096 0-6.749.436-6.858 6.857v9.142c0 9.142 4.572 6.856 6.858 4.57l13.716-13.712c4.572-4.571 2.286-6.857 0-6.857z"/>
            <path fill="#FFF" fill-rule="nonzero" d="M181.354 22.202c0 1.85 1.524 3.482 3.484 3.482h59.544c1.85 0 3.483-1.523 3.483-3.482 0-1.85-1.524-3.483-3.483-3.483h-59.544c-1.96 0-3.484 1.524-3.484 3.483z"/>
            <path stroke-linecap="round" stroke-linejoin="round" stroke-width="1.417" d="M181.354 22.202c0 1.85 1.524 3.482 3.484 3.482h59.544c1.85 0 3.483-1.523 3.483-3.482 0-1.85-1.524-3.483-3.483-3.483h-59.544c-1.96 0-3.484 1.524-3.484 3.483z"/>
            <path fill="#FFF" fill-rule="nonzero" d="M188.212 24.487c0 .653.544 1.197 1.198 1.197h48.114c.653 0 1.197-.544 1.197-1.197s-.544-1.197-1.197-1.197H189.41c-.654 0-1.198.544-1.198 1.197z"/>
            <path stroke-linecap="round" stroke-linejoin="round" stroke-width="1.417" d="M188.212 24.487c0 .653.544 1.197 1.198 1.197h48.114c.653 0 1.197-.544 1.197-1.197s-.544-1.197-1.197-1.197H189.41c-.654 0-1.198.544-1.198 1.197z"/>
            <path fill="#FFF" fill-rule="nonzero" d="M222.611 11.863h25.146v2.285h-25.146z"/>
            <path stroke-linecap="round" stroke-linejoin="round" stroke-width="1.417" d="M222.611 11.863h25.146v2.285h-25.146z"/>
            <path fill="#FFF" fill-rule="nonzero" d="M179.068 11.863h25.146v2.285h-25.146z"/>
            <path stroke-linecap="round" stroke-linejoin="round" stroke-width="1.417" d="M179.068 11.863h25.146v2.285h-25.146z"/>
            <path fill="#FFF" fill-rule="nonzero" d="M286.727 57.68c0 2.504 2.068 4.572 4.572 4.572h18.288c2.503 0 4.572-2.068 4.572-4.571V39.397c0-2.503-2.069-4.57-4.572-4.57h-18.288c-2.504 0-4.572 2.067-4.572 4.57v18.284z"/>
            <path stroke-linecap="round" stroke-linejoin="round" stroke-width="1.417" d="M286.727 57.68c0 2.504 2.068 4.572 4.572 4.572h18.288c2.503 0 4.572-2.068 4.572-4.571V39.397c0-2.503-2.069-4.57-4.572-4.57h-18.288c-2.504 0-4.572 2.067-4.572 4.57v18.284z"/>
            <ellipse cx="300.443" cy="48.539" fill="#FFF" fill-rule="nonzero" rx="11.43" ry="11.427"/>
            <ellipse cx="300.443" cy="48.539" stroke-linecap="round" stroke-linejoin="round" stroke-width="1.417" rx="11.43" ry="11.427"/>
            <ellipse cx="300.443" cy="48.539" fill="#FFF" fill-rule="nonzero" rx="9.144" ry="9.142"/>
            <ellipse cx="300.443" cy="48.539" stroke-linecap="round" stroke-linejoin="round" stroke-width="1.417" rx="9.144" ry="9.142"/>
            <ellipse cx="300.443" cy="48.539" fill="#FFF" fill-rule="nonzero" rx="4.572" ry="4.571"/>
            <ellipse cx="300.443" cy="48.539" stroke-linecap="round" stroke-linejoin="round" stroke-width="1.417" rx="4.572" ry="4.571"/>
        </g>
    </g>
</svg>
